<svg width="28" height="28" viewBox="0 0 28 28" fill="none" xmlns="http://www.w3.org/2000/svg">
<path d="M13.9322 17.6135C14.1663 17.6047 14.4368 17.5118 14.6075 17.3572L20.6951 11.6576C21.0141 11.3155 21.1457 10.6595 20.7769 10.2771C20.4137 9.90048 19.7092 9.91168 19.3446 10.2869L14.9144 14.4877L14.2566 15.1274C14.2566 15.1274 14.1339 15.2929 13.9322 15.2955C13.7305 15.2981 13.6087 15.1274 13.6087 15.1274L12.95 14.4877L8.65888 10.5637C8.32314 10.2407 7.59389 10.181 7.2265 10.554C6.85914 10.9268 6.97651 11.6064 7.30838 11.9344L13.2569 17.3572C13.4474 17.5299 13.6709 17.6141 13.9322 17.6135Z" fill="#1E1E1F"/>
</svg>
