<svg width="28" height="28" viewBox="0 0 28 28" fill="none" xmlns="http://www.w3.org/2000/svg">
<path d="M13.9322 9.99999C14.1663 10.0088 14.4368 10.1017 14.6075 10.2564L20.6951 15.956C21.0141 16.2981 21.1457 16.9541 20.7769 17.3364C20.4137 17.713 19.7092 17.7018 19.3446 17.3266L14.9144 13.1259L14.2566 12.4862C14.2566 12.4862 14.1339 12.3206 13.9322 12.318C13.7305 12.3154 13.6087 12.4862 13.6087 12.4862L12.95 13.1259L8.65888 17.0498C8.32314 17.3728 7.59389 17.4325 7.2265 17.0596C6.85914 16.6867 6.97651 16.0072 7.30838 15.6791L13.2569 10.2564C13.4474 10.0836 13.6709 9.99943 13.9322 9.99999Z" fill="#666666"/>
</svg>
