<svg xmlns="http://www.w3.org/2000/svg" width="17" height="17" viewBox="0 0 17 17">
    <g fill="none" fill-rule="evenodd">
        <g>
            <g transform="translate(-1798 -1353) translate(1798 1353)">
                <circle cx="8.5" cy="8.5" r="8.5" fill="#555"/>
                <path fill="#BABABA" fill-rule="nonzero" d="M8.315 12.097c.451 0 .859-.094 1.222-.283.363-.188.649-.455.856-.8.207-.345.31-.736.31-1.176 0-.306-.051-.591-.155-.855-.103-.265-.243-.486-.42-.664-.176-.178-.383-.318-.621-.42-.238-.102-.489-.153-.752-.153-.191 0-.431.04-.719.12l.051-.81h2.255V5.477h-3.65l-.214 3.54.914.361c.108-.08.208-.144.299-.19.091-.046.174-.078.248-.095.074-.017.153-.026.237-.026.049 0 .1.007.155.019.054.012.11.03.167.056.057.024.111.057.162.097.051.04.098.087.14.14.041.052.074.115.097.19.023.074.035.154.035.24 0 .198-.077.367-.23.506-.153.14-.34.209-.559.209-.334 0-.64-.14-.918-.418l-1.253 1.02c.59.647 1.372.97 2.343.97z"/>
            </g>
        </g>
    </g>
</svg>
