<svg xmlns="http://www.w3.org/2000/svg" width="17" height="17" viewBox="0 0 17 17">
    <g fill="none" fill-rule="evenodd">
        <g>
            <g transform="translate(-1708 -1257) translate(1708 1257)">
                <circle cx="8.5" cy="8.5" r="8.5" fill="#7A7F34"/>
                <path fill="#000" fill-rule="nonzero" d="M10.667 12v-1.586H8.709v-.019l.83-.858c.294-.303.52-.575.675-.817.156-.24.26-.462.313-.663.053-.2.08-.437.08-.71 0-.3-.06-.575-.177-.825-.118-.25-.275-.458-.473-.622-.198-.164-.426-.291-.684-.383-.259-.09-.532-.136-.82-.136-.28 0-.543.032-.788.097-.244.065-.459.155-.644.271-.186.116-.348.245-.488.388-.139.142-.26.3-.361.473l1.252.909c.257-.346.549-.52.877-.52.154 0 .281.052.38.156.1.104.149.236.149.397 0 .105-.014.207-.042.308-.028.1-.074.204-.137.31-.063.107-.14.216-.227.325-.088.11-.199.235-.332.374l-1.855 1.995L6.255 12h4.412z"/>
            </g>
        </g>
    </g>
</svg>
