<?xml version="1.0" encoding="UTF-8"?>
<svg width="26px" height="25px" viewBox="0 0 26 25" version="1.1" xmlns="http://www.w3.org/2000/svg" xmlns:xlink="http://www.w3.org/1999/xlink">
    <title>3A6A826D-9CC6-41EE-A270-0D734145C537</title>
    <g id="Page-1" stroke="none" stroke-width="1" fill="none" fill-rule="evenodd">
        <g id="Mainwindow_Sidebar_202106" transform="translate(-1482.000000, -932.000000)" fill="#BABABA" fill-rule="nonzero">
            <g id="ic_mobile_off_normal" transform="translate(1482.000000, 932.000000)">
                <g id="Group-14" transform="translate(3.000000, 0.400000)">
                    <path d="M16,0.1 C18.1539105,0.1 19.9,1.84608948 19.9,4 L19.9,4 L19.9,20 C19.9,22.1539105 18.1539105,23.9 16,23.9 L16,23.9 L4,23.9 C1.84608948,23.9 0.1,22.1539105 0.1,20 L0.1,20 L0.1,4 C0.1,1.84608948 1.84608948,0.1 4,0.1 L4,0.1 Z M16,1.9 L13.999,1.899 L14,3.5 C14,3.77614237 13.7761424,4 13.5,4 L6.5,4 C6.22385763,4 6,3.77614237 6,3.5 L5.999,1.899 L4,1.9 C2.89062802,1.9 1.98217181,2.76022265 1.90527273,3.85002658 L1.9,4 L1.9,20 C1.9,21.159798 2.84020203,22.1 4,22.1 L4,22.1 L16,22.1 C17.159798,22.1 18.1,21.159798 18.1,20 L18.1,20 L18.1,4 C18.1,2.84020203 17.159798,1.9 16,1.9 L16,1.9 Z" id="Combined-Shape"></path>
                </g>
            </g>
        </g>
    </g>
</svg>