<svg xmlns="http://www.w3.org/2000/svg" width="26" height="25" viewBox="0 0 26 25">
    <g fill="none" fill-rule="evenodd">
        <g fill="#7A7F34" fill-rule="nonzero">
            <g>
                <g>
                    <path d="M16 .1c2.154 0 3.9 1.746 3.9 3.9v16c0 2.154-1.746 3.9-3.9 3.9H4C1.846 23.9.1 22.154.1 20V4C.1 1.846 1.846.1 4 .1zm0 1.8l-2.001-.001L14 3.5c0 .276-.224.5-.5.5h-7c-.276 0-.5-.224-.5-.5l-.001-1.601L4 1.9c-1.11 0-2.018.86-2.095 1.95L1.9 4v16c0 1.16.94 2.1 2.1 2.1h12c1.16 0 2.1-.94 2.1-2.1V4c0-1.16-.94-2.1-2.1-2.1z" transform="translate(-1753 -932) translate(1753 932) translate(3 .4)"/>
                </g>
            </g>
        </g>
    </g>
</svg>
