<svg xmlns="http://www.w3.org/2000/svg" width="121" height="29" viewBox="0 0 121 29">
    <g fill="none" fill-rule="evenodd">
        <g fill="#666">
            <g>
                <g>
                    <g>
                        <path fill-rule="nonzero" d="M31.775 14.368l-.695-2.041h-3.915l-.694 2.041h-2.112L28.14 4.16h1.95l3.796 10.208h-2.111zm-4.027-3.767h2.743l-1.368-4.006h-.014L27.748 10.6zm11.365-3.368c.37 0 .724.058 1.063.172.34.115.644.28.916.498.271.218.506.475.705.772.199.297.352.634.46 1.01.107.377.16.776.16 1.197 0 .533-.083 1.025-.252 1.476-.168.452-.4.833-.698 1.144-.297.311-.652.553-1.066.726-.414.173-.862.26-1.344.26-.88 0-1.57-.302-2.07-.905h-.028v3.627h-1.88V7.353h1.88v.806h.028c.524-.617 1.233-.926 2.126-.926zm-.4 5.57c.529 0 .96-.177 1.295-.532.334-.356.501-.816.501-1.382 0-.59-.17-1.064-.512-1.425-.341-.36-.77-.54-1.284-.54-.266 0-.513.05-.74.151-.227.1-.42.237-.579.41-.159.173-.284.382-.375.625-.091.243-.137.503-.137.779 0 .374.08.708.242 1.003.162.294.381.52.66.677.278.157.588.235.93.235zm9.268-5.57c.37 0 .724.058 1.063.172.34.115.644.28.916.498.271.218.506.475.705.772.199.297.352.634.46 1.01.107.377.16.776.16 1.197 0 .533-.083 1.025-.252 1.476-.168.452-.4.833-.698 1.144-.297.311-.652.553-1.066.726-.414.173-.862.26-1.344.26-.88 0-1.57-.302-2.07-.905h-.028v3.627h-1.88V7.353h1.88v.806h.028c.524-.617 1.233-.926 2.126-.926zm-.4 5.57c.529 0 .96-.177 1.295-.532.334-.356.501-.816.501-1.382 0-.59-.17-1.064-.512-1.425-.341-.36-.77-.54-1.284-.54-.266 0-.513.05-.74.151-.227.1-.42.237-.579.41-.159.173-.284.382-.375.625-.091.243-.137.503-.137.779 0 .374.08.708.242 1.003.162.294.381.52.66.677.278.157.588.235.93.235zm12.25 1.685c-.678 0-1.337-.134-1.975-.4-.638-.267-1.22-.67-1.743-1.207l1.213-1.494c.187.215.39.404.607.568.218.164.435.297.653.4.217.103.434.18.649.231.215.052.425.078.631.078.318 0 .588-.047.81-.14.223-.094.387-.22.495-.38.108-.159.161-.346.161-.56 0-.15-.023-.284-.07-.4-.047-.118-.11-.22-.193-.31-.082-.088-.2-.176-.358-.263-.156-.086-.319-.163-.487-.231-.168-.068-.39-.149-.667-.242-.248-.089-.467-.17-.66-.246-.19-.075-.399-.17-.624-.284-.224-.114-.418-.229-.582-.344-.164-.114-.326-.252-.487-.414-.162-.16-.293-.332-.393-.512-.1-.18-.183-.388-.246-.624s-.095-.488-.095-.754c0-.538.145-1.03.435-1.474.29-.444.686-.794 1.186-1.048.5-.255 1.052-.388 1.656-.397 1.235-.014 2.38.414 3.438 1.284L62.02 6.847c-.819-.668-1.56-1.003-2.224-1.003-.36 0-.654.091-.88.274-.227.182-.343.432-.348.75 0 .127.024.241.07.344.047.103.11.196.19.277.08.082.197.166.354.253.157.086.313.164.47.231.157.068.368.154.635.257.851.332 1.415.573 1.69.722.637.346 1.06.774 1.27 1.284.132.318.197.688.197 1.109 0 .43-.072.824-.217 1.182-.145.358-.337.655-.576.89-.238.237-.515.438-.831.604-.316.166-.64.285-.972.358-.332.072-.67.109-1.017.109zm7.296 0c-.622 0-1.112-.198-1.47-.593-.357-.395-.536-.977-.536-1.744v-3.24h-.828V7.352h.828V5.058L67 4.855v2.498h1.908V8.91h-1.908v2.982c0 .309.048.535.144.68.096.145.254.218.474.218.27 0 .566-.082.884-.246l.484 1.502c-.267.145-.536.255-.807.33-.271.074-.622.112-1.053.112zm6.181 0c-.44 0-.853-.059-1.241-.176-.389-.117-.734-.283-1.035-.498-.302-.215-.563-.471-.782-.768-.22-.297-.388-.63-.502-1-.115-.37-.172-.762-.172-1.178 0-.52.09-1.004.27-1.453.18-.449.432-.833.754-1.154.323-.32.718-.572 1.186-.754.468-.182.975-.274 1.522-.274.538 0 1.039.09 1.502.267.463.178.858.424 1.185.74.328.316.584.7.769 1.15.184.452.277.944.277 1.478 0 .706-.16 1.335-.477 1.887-.318.552-.76.978-1.326 1.28-.566.302-1.21.453-1.93.453zm0-1.684c.515 0 .948-.183 1.298-.547.351-.365.527-.828.527-1.39 0-.57-.174-1.037-.52-1.4-.346-.362-.78-.543-1.305-.543-.542 0-.983.184-1.322.55-.34.368-.509.832-.509 1.394 0 .547.172 1.006.516 1.378.344.372.782.558 1.315.558zm9.268-5.57c.07 0 .12.002.148.006v2.063c-.187-.014-.353-.021-.498-.021-.562 0-1 .17-1.316.512-.316.342-.474.781-.474 1.32v3.254h-1.88V7.353h1.88v1.03h.022c.266-.369.582-.653.947-.852.365-.198.755-.298 1.171-.298zm7.732 3.563c0 .332-.017.557-.05.674h-4.917c.112.416.326.744.642.982.315.239.698.36 1.147.365.678.005 1.237-.26 1.676-.793l1.221 1.137c-.318.402-.734.723-1.249.964-.514.241-1.108.362-1.782.362-.683 0-1.298-.149-1.845-.446-.547-.297-.979-.724-1.294-1.28-.316-.557-.474-1.193-.474-1.909 0-.523.089-1.011.267-1.462.177-.452.42-.835.726-1.15.306-.317.675-.563 1.105-.741.43-.178.89-.267 1.382-.267.678 0 1.28.154 1.803.46.524.306.928.73 1.214 1.27.285.54.428 1.151.428 1.834zM86.926 8.89c-.388 0-.721.105-1 .316-.278.21-.47.514-.578.912h3.094c-.099-.384-.276-.684-.534-.902-.257-.217-.584-.326-.982-.326z" transform="translate(-710 -1054) translate(545 1036) translate(165 18) translate(12 3)"/>
                        <g>
                            <path d="M13.03 10.176c-.022-2.424 1.98-3.588 2.068-3.641-1.125-1.648-2.88-1.877-3.5-1.904-1.494-.151-2.915.88-3.67.88-.757 0-1.926-.856-3.161-.83-1.63.022-3.127.946-3.964 2.398-1.69 2.932-.435 7.277 1.215 9.654.803 1.163 1.761 2.47 3.02 2.424 1.216-.047 1.675-.784 3.142-.784 1.465 0 1.878.784 3.164.764 1.303-.027 2.132-1.19 2.93-2.355.921-1.35 1.304-2.658 1.327-2.727-.028-.01-2.547-.976-2.572-3.879M10.616 3.058c.67-.81 1.122-1.936.997-3.058-.963.037-2.13.644-2.82 1.45-.621.72-1.166 1.87-1.018 2.966 1.073.082 2.174-.547 2.841-1.358" transform="translate(-710 -1054) translate(545 1036) translate(165 18) translate(12 3)"/>
                        </g>
                    </g>
                </g>
            </g>
        </g>
    </g>
</svg>
