<?xml version="1.0" encoding="UTF-8"?>
<svg width="26px" height="25px" viewBox="0 0 26 25" version="1.1" xmlns="http://www.w3.org/2000/svg" xmlns:xlink="http://www.w3.org/1999/xlink">
    <title>EC2ECEEA-083B-4B1D-AC76-C40D300682B5</title>
    <g id="Page-1" stroke="none" stroke-width="1" fill="none" fill-rule="evenodd">
        <g id="Mainwindow_Sidebar_202106" transform="translate(-1794.000000, -932.000000)" fill="#444444" fill-rule="nonzero">
            <g id="ic_mobile_on_disable" transform="translate(1794.000000, 932.000000)">
                <g id="Group-14" transform="translate(3.000000, 0.500000)">
                    <path d="M15.9,-3.62376795e-13 C18.0539105,-3.62376795e-13 19.8,1.74608948 19.8,3.9 L19.8,3.9 L19.8,19.9 C19.8,22.0539105 18.0539105,23.8 15.9,23.8 L15.9,23.8 L3.9,23.8 C1.74608948,23.8 -3.62376795e-13,22.0539105 -3.62376795e-13,19.9 L-3.62376795e-13,19.9 L-3.62376795e-13,3.9 C-3.62376795e-13,1.74608948 1.74608948,-3.62376795e-13 3.9,-3.62376795e-13 L3.9,-3.62376795e-13 Z M15.9,1.8 L13.899,1.799 L13.9,3.4 C13.9,3.67614237 13.6761424,3.9 13.4,3.9 L6.4,3.9 C6.12385763,3.9 5.9,3.67614237 5.9,3.4 L5.899,1.799 L3.9,1.8 C2.79062802,1.8 1.88217181,2.66022265 1.80527273,3.75002658 L1.8,3.9 L1.8,19.9 C1.8,21.059798 2.74020203,22 3.9,22 L3.9,22 L15.9,22 C17.059798,22 18,21.059798 18,19.9 L18,19.9 L18,3.9 C18,2.74020203 17.059798,1.8 15.9,1.8 L15.9,1.8 Z" id="Combined-Shape"></path>
                </g>
            </g>
        </g>
    </g>
</svg>