<svg xmlns="http://www.w3.org/2000/svg" xmlns:xlink="http://www.w3.org/1999/xlink" width="25" height="17" viewBox="0 0 25 17">
    <defs>
        <path id="gvjf6rc9qa" d="M0 0L25 0 25 15.741 0 15.741z"/>
    </defs>
    <g fill="none" fill-rule="evenodd">
        <g>
            <g transform="translate(-1453 -1094) translate(1453 1094)">
                <mask id="crarpc45fb" fill="#fff">
                    <use xlink:href="#gvjf6rc9qa"/>
                </mask>
                <path fill="#CCC" d="M20.665 6.552c.05-.147.254-.209.455-.138.2.071.323.248.273.394-.05.147-.253.21-.454.138-.2-.07-.324-.247-.274-.394m-1.097 3.895c-.87-.816 3.737.583 4.454-1.221.83-2.092-2.705-4.156-4.076-4.44-.966-.2-1.527-1.235-1.527-1.235S16.085-.588 14.741.071c-1.482.727 1.417 3.298 2.115 4.323.542.795-.782.339-.782.339-6.077-2.27-9.849.35-9.849.35-.807.524-1.387 1.023-1.806 1.498-.196-.12-.426-.191-.672-.191-.72 0-1.304.594-1.304 1.328 0 .6.393 1.108.93 1.271-.39.798.206 1.914-.43 2.6C1.64 12.999-.809 14.602.265 15.52c1.075.918 2.41-1.21 5.437-2.792 3.026-1.582 7.74-1.689 11.247-.464 2.768.966 3.672 1.762 6.345 2.385 1.916.447 2.4-1.856.508-1.856-1.926 0-3.363-1.528-4.234-2.345z" mask="url(#crarpc45fb)"/>
            </g>
        </g>
    </g>
</svg>
