<svg xmlns="http://www.w3.org/2000/svg" width="19" height="12" viewBox="0 0 19 12">
    <g fill="none" fill-rule="evenodd">
        <g fill="#666" fill-rule="nonzero">
            <g>
                <path d="M4.469 11.125c1.062 0 1.89-.39 2.484-1.172h.024V11h1.71V3.195H6.899v.938h-.03c-.595-.703-1.4-1.055-2.415-1.055-.531 0-1.029.102-1.492.305-.464.203-.862.482-1.195.836-.334.354-.597.784-.79 1.289-.192.505-.288 1.047-.288 1.625 0 .474.06.92.183 1.34.122.419.297.789.524 1.109.226.32.494.598.804.832.31.234.66.412 1.047.531.388.12.796.18 1.223.18zM4.75 9.5c-.661 0-1.2-.22-1.617-.66-.417-.44-.625-1.007-.625-1.7 0-.364.058-.701.176-1.011.117-.31.277-.568.48-.774.203-.205.441-.365.715-.48.273-.115.566-.172.879-.172.635 0 1.163.233 1.582.7.42.465.629 1.045.629 1.738 0 .692-.215 1.259-.645 1.699-.43.44-.954.66-1.574.66zm9.5 1.625c1.063 0 1.89-.39 2.484-1.172h.024V11h1.71V3.195H16.68v.938h-.032c-.593-.703-1.398-1.055-2.414-1.055-.53 0-1.028.102-1.492.305-.463.203-.862.482-1.195.836-.333.354-.596.784-.79 1.289-.192.505-.288 1.047-.288 1.625 0 .474.06.92.183 1.34.123.419.297.789.524 1.109.226.32.495.598.804.832.31.234.66.412 1.047.531.388.12.796.18 1.223.18zm.281-1.625c-.661 0-1.2-.22-1.617-.66-.417-.44-.625-1.007-.625-1.7 0-.364.059-.701.176-1.011.117-.31.277-.568.48-.774.203-.205.442-.365.715-.48.274-.115.567-.172.88-.172.634 0 1.162.233 1.581.7.42.465.629 1.045.629 1.738 0 .692-.215 1.259-.645 1.699-.43.44-.954.66-1.574.66z" transform="translate(-1664 -2189) translate(1664 2189)"/>
            </g>
        </g>
    </g>
</svg>
