<svg width="22" height="22" viewBox="0 0 22 22" fill="none" xmlns="http://www.w3.org/2000/svg">
<path d="M10.5928 3.9502C14.1009 3.95034 16.9721 6.64737 17.208 10.0498L17.6855 9.58008L17.7461 9.52637C18.0605 9.27406 18.5229 9.29182 18.8154 9.58008C19.1278 9.88811 19.1277 10.3894 18.8154 10.6982L17 12.4873C16.8439 12.6422 16.6383 12.7188 16.4346 12.7188C16.2301 12.7186 16.0252 12.6421 15.8691 12.4873L14.0537 10.6982C13.7415 10.3894 13.7413 9.88811 14.0537 9.58008L14.1143 9.52637C14.4287 9.27403 14.8912 9.29184 15.1846 9.58008L15.6025 9.99219C15.3431 7.48974 13.1997 5.52846 10.5928 5.52832C7.81207 5.52832 5.55006 7.75894 5.5498 10.5C5.5498 13.2403 7.81191 15.4717 10.5928 15.4717C11.034 15.4718 11.3916 15.824 11.3916 16.2607C11.3915 16.6973 11.034 17.0497 10.5928 17.0498C6.93115 17.0498 3.9502 14.1122 3.9502 10.5C3.95045 6.88706 6.9313 3.9502 10.5928 3.9502Z" fill="white" stroke="white" stroke-width="0.1"/>
</svg>
