<svg width="13" height="10" viewBox="0 0 13 10" fill="none" xmlns="http://www.w3.org/2000/svg">
<path fill-rule="evenodd" clip-rule="evenodd" d="M5.34916 0.842302C5.62216 1.12309 5.61583 1.57202 5.33504 1.84501L2.80585 4.30395H11.8153C12.2069 4.30395 12.5244 4.62142 12.5244 5.01304C12.5244 5.40466 12.2069 5.72213 11.8153 5.72213H2.80519L5.33504 8.18171C5.61583 8.4547 5.62216 8.90363 5.34916 9.18442C5.07617 9.46521 4.62725 9.47153 4.34646 9.19854L0.56685 5.52392L0.558132 5.51537C0.499472 5.45688 0.453165 5.39059 0.419259 5.3198C0.372931 5.22312 0.349831 5.11821 0.34984 5.01336C0.349856 4.83165 0.419288 4.65012 0.557528 4.51196L0.566923 4.50273L4.34646 0.828179C4.62725 0.555189 5.07617 0.561512 5.34916 0.842302Z" fill="white"/>
</svg>
