<svg width="15" height="15" viewBox="0 0 15 15" fill="none" xmlns="http://www.w3.org/2000/svg">
<path fill-rule="evenodd" clip-rule="evenodd" d="M10.2498 5.52477C10.2498 6.14659 10.0132 6.73773 9.58364 7.18841L8.26091 8.51182V9.56045C8.26091 9.83659 8.03591 10.0609 7.76045 10.0609H7.26068C6.98591 10.0609 6.76091 9.83659 6.76091 9.56045V8.20159C6.76091 8.0025 6.84 7.81159 6.98045 7.67114L8.51045 6.14114C8.66114 5.98364 8.74977 5.76 8.74977 5.52477V5.35227C8.74977 4.84909 8.34068 4.43864 7.83682 4.43864H7.16318C6.66 4.43864 6.24955 4.84909 6.24955 5.35227V5.74227C6.24955 6.01773 6.02523 6.24273 5.74977 6.24273H5.25C4.97523 6.24273 4.75023 6.01773 4.75023 5.74227V5.35227C4.75023 4.02068 5.83295 2.93864 7.16318 2.93864H7.83682C9.16773 2.93864 10.2498 4.02068 10.2498 5.35227V5.52477ZM8.25 11.5609C8.25 11.8364 8.025 12.0607 7.74955 12.0607H7.24977C6.97568 12.0607 6.75 11.8364 6.75 11.5609V11.0611C6.75 10.7864 6.97568 10.5607 7.24977 10.5607H7.74955C8.025 10.5607 8.25 10.7864 8.25 11.0611V11.5609ZM7.5 0C3.35727 0 0 3.35795 0 7.5C0 11.642 3.35727 15 7.5 15C11.642 15 15 11.642 15 7.5C15 3.35795 11.642 0 7.5 0Z" fill="white"/>
</svg>
