<svg width="50" height="27" viewBox="0 0 50 27" fill="none" xmlns="http://www.w3.org/2000/svg">
<rect x="1" y="1" width="48" height="25" rx="9" fill="url(#paint0_linear_258_31154)"/>
<rect x="0.5" y="0.5" width="49" height="26" rx="9.5" stroke="black" stroke-opacity="0.1"/>
<path fill-rule="evenodd" clip-rule="evenodd" d="M13.25 8.48978V18.0101H15.1041V14.7382H16.5861C17.1084 14.7382 17.585 14.6794 18.0094 14.5488C18.4338 14.4248 18.7994 14.2354 19.1062 13.9808C19.413 13.7327 19.6481 13.4062 19.8178 13.0145C19.981 12.6227 20.0659 12.1722 20.0659 11.6564C20.0659 11.1928 20.0006 10.7684 19.8701 10.3898C19.7395 10.0111 19.5436 9.67808 19.2825 9.3908C19.0213 9.10352 18.6753 8.88153 18.2444 8.72483C17.8135 8.56813 17.3239 8.48978 16.7624 8.48978H13.25ZM16.3511 13.0732H15.1041V10.1612H16.4295C16.9648 10.1612 17.3826 10.2918 17.6764 10.553C17.9702 10.8141 18.1204 11.1732 18.1204 11.6172C18.1204 12.0677 17.9637 12.4203 17.6634 12.6815C17.3631 12.9426 16.9256 13.0732 16.3511 13.0732ZM21.5148 18.0105V8.48978H23.2645V18.0105H21.5148ZM32.1214 17.0594C32.8393 17.6932 33.7124 18.0101 34.7407 18.0101C35.5556 18.0101 36.1764 17.829 36.6033 17.4539C37.0301 17.0853 37.25 16.6002 37.25 15.9987C37.25 15.8434 37.2371 15.6947 37.2112 15.5653C37.1271 15.1385 36.8749 14.7892 36.461 14.5305C36.2152 14.3753 35.7366 14.1683 35.0252 13.9031C34.6825 13.7738 34.4367 13.6573 34.2815 13.5539C34.1263 13.4504 34.0551 13.3339 34.0551 13.2046C34.0551 13.0494 34.1198 12.9329 34.2492 12.8489C34.3785 12.7648 34.5208 12.7195 34.6889 12.7195C34.9347 12.7195 35.1934 12.7777 35.465 12.8941C35.7366 13.0106 35.9889 13.1787 36.2346 13.4051L37.0754 12.1374C36.7067 11.8528 36.3316 11.6459 35.9565 11.5165C35.575 11.3871 35.161 11.3225 34.7083 11.3225C34.2686 11.3225 33.8676 11.4066 33.5184 11.5618C33.1691 11.7235 32.891 11.9498 32.6841 12.2474C32.4771 12.5449 32.3801 12.8812 32.3801 13.2628C32.3801 13.4698 32.3995 13.6573 32.4512 13.8255C32.4965 14.0001 32.5677 14.1554 32.6582 14.2847C32.7487 14.4205 32.8522 14.5434 32.9686 14.6469C33.085 14.7569 33.2209 14.8539 33.3825 14.9444C33.5378 15.035 33.693 15.1061 33.8482 15.1708C34.0034 15.2355 34.178 15.3001 34.372 15.3648C34.676 15.4683 34.9024 15.5459 35.0576 15.6106C35.2128 15.6753 35.3292 15.7464 35.4197 15.824C35.5038 15.9017 35.5491 15.9857 35.5491 16.0827C35.5491 16.2444 35.4779 16.3738 35.3357 16.4708C35.1934 16.5743 34.9994 16.6196 34.7536 16.6196C34.0939 16.6196 33.499 16.3673 32.9622 15.8628L32.1214 17.0594ZM30.9494 11.4322H29.2162V14.569C29.2162 15.1706 29.0739 15.6362 28.8023 15.9596C28.5242 16.2895 28.1814 16.4512 27.7805 16.4512C27.3665 16.4512 27.069 16.3348 26.888 16.1019C26.7069 15.8691 26.6228 15.4551 26.6228 14.873V11.4322H24.8896V15.3258C24.8896 15.8109 24.9413 16.2248 25.0577 16.5741C25.1741 16.9233 25.3358 17.2014 25.5557 17.4084C25.7756 17.6154 26.0213 17.7706 26.3059 17.8676C26.584 17.9646 26.9074 18.0099 27.2695 18.0099C27.6382 18.0099 27.9874 17.9388 28.3172 17.7835C28.6471 17.6283 28.9381 17.4084 29.1903 17.1109H29.2162V18.0099H30.9494V11.4322Z" fill="#020107"/>
<defs>
<linearGradient id="paint0_linear_258_31154" x1="3.48276" y1="4.125" x2="42.5412" y2="34.3472" gradientUnits="userSpaceOnUse">
<stop stop-color="#BBBEFF"/>
<stop offset="0.330753" stop-color="#8DEBEA"/>
<stop offset="0.681056" stop-color="#AEF9CC"/>
<stop offset="1" stop-color="#F9FBCA"/>
</linearGradient>
</defs>
</svg>
