<svg width="60" height="32" viewBox="0 0 60 32" fill="none" xmlns="http://www.w3.org/2000/svg">
<rect x="1" y="1" width="57.6" height="30" rx="15" fill="url(#paint0_linear_769_1271)"/>
<rect x="0.5" y="0.5" width="58.6" height="31" rx="15.5" stroke="black" stroke-opacity="0.1"/>
<path fill-rule="evenodd" clip-rule="evenodd" d="M16.5498 10.3946V21.1049H18.6357V17.424H20.303C20.8906 17.424 21.4267 17.3578 21.9042 17.2109C22.3816 17.0714 22.7929 16.8584 23.1381 16.5719C23.4833 16.2928 23.7477 15.9255 23.9387 15.4848C24.1223 15.0441 24.2178 14.5373 24.2178 13.957C24.2178 13.4355 24.1443 12.9581 23.9974 12.532C23.8505 12.106 23.6302 11.7314 23.3364 11.4082C23.0426 11.085 22.6533 10.8353 22.1686 10.659C21.6838 10.4827 21.133 10.3946 20.5013 10.3946H16.5498ZM20.0386 15.5509H18.6357V12.2749H20.1267C20.729 12.2749 21.1991 12.4218 21.5296 12.7157C21.8601 13.0095 22.029 13.4135 22.029 13.9129C22.029 14.4198 21.8527 14.8164 21.5149 15.1102C21.177 15.404 20.6849 15.5509 20.0386 15.5509ZM25.8477 21.1053V10.3946H27.8161V21.1053H25.8477ZM37.78 20.0355C38.5877 20.7485 39.5699 21.1051 40.7267 21.1051C41.6435 21.1051 42.3419 20.9013 42.8221 20.4793C43.3023 20.0646 43.5497 19.5189 43.5497 18.8422C43.5497 18.6675 43.5352 18.5002 43.5061 18.3547C43.4115 17.8744 43.1277 17.4815 42.6621 17.1905C42.3856 17.0158 41.8472 16.783 41.0469 16.4847C40.6612 16.3392 40.3848 16.2082 40.2101 16.0918C40.0355 15.9753 39.9555 15.8444 39.9555 15.6989C39.9555 15.5242 40.0283 15.3932 40.1738 15.2987C40.3193 15.2041 40.4794 15.1531 40.6685 15.1531C40.945 15.1531 41.236 15.2186 41.5416 15.3496C41.8472 15.4806 42.131 15.6697 42.4074 15.9244L43.3533 14.4983C42.9386 14.1781 42.5166 13.9453 42.0946 13.7998C41.6653 13.6542 41.1997 13.5815 40.6903 13.5815C40.1956 13.5815 39.7445 13.6761 39.3516 13.8507C38.9587 14.0326 38.6459 14.2873 38.413 14.622C38.1802 14.9567 38.0711 15.335 38.0711 15.7643C38.0711 15.9972 38.0929 16.2082 38.1511 16.3974C38.202 16.5938 38.2821 16.7685 38.3839 16.914C38.4858 17.0668 38.6022 17.205 38.7332 17.3214C38.8641 17.4451 39.0169 17.5543 39.1988 17.6562C39.3734 17.758 39.5481 17.8381 39.7227 17.9108C39.8973 17.9836 40.0937 18.0563 40.312 18.1291C40.654 18.2455 40.9086 18.3328 41.0832 18.4056C41.2579 18.4784 41.3888 18.5584 41.4907 18.6457C41.5853 18.733 41.6362 18.8276 41.6362 18.9368C41.6362 19.1187 41.5562 19.2642 41.3961 19.3733C41.236 19.4898 41.0178 19.5407 40.7413 19.5407C39.9992 19.5407 39.3298 19.2569 38.7259 18.6894L37.78 20.0355ZM36.4618 13.7047H34.5119V17.2337C34.5119 17.9104 34.3518 18.4343 34.0462 18.7981C33.7334 19.1692 33.3477 19.3511 32.8966 19.3511C32.431 19.3511 32.0963 19.2201 31.8926 18.9582C31.6889 18.6962 31.5943 18.2306 31.5943 17.5757V13.7047H29.6444V18.085C29.6444 18.6307 29.7026 19.0964 29.8335 19.4893C29.9645 19.8822 30.1464 20.1951 30.3938 20.428C30.6412 20.6608 30.9176 20.8354 31.2378 20.9446C31.5506 21.0537 31.9144 21.1047 32.3219 21.1047C32.7366 21.1047 33.1295 21.0246 33.5005 20.85C33.8716 20.6754 34.199 20.428 34.4828 20.0933H34.5119V21.1047H36.4618V13.7047Z" fill="#020107"/>
<defs>
<linearGradient id="paint0_linear_769_1271" x1="3.97931" y1="4.75" x2="50.8494" y2="41.0166" gradientUnits="userSpaceOnUse">
<stop stop-color="#BBBEFF"/>
<stop offset="0.330753" stop-color="#8DEBEA"/>
<stop offset="0.681056" stop-color="#AEF9CC"/>
<stop offset="1" stop-color="#F9FBCA"/>
</linearGradient>
</defs>
</svg>
