<svg xmlns="http://www.w3.org/2000/svg" width="30" height="30" viewBox="0 0 30 30">
    <path fill="#EFFC35" fill-rule="evenodd" d="M22.003 7.54c.293-.294.767-.294 1.06 0 .294.292.294.767 0 1.06l-1.18 1.18c.68.86 1.21 1.845 1.512 2.94.146.532.08.86-.242 1.21-.002 0-.007.005-.013.012l-.034.032-8.854 8.64c-.009.012-.038.041-.069.068-.085.078-.131.116-.184.15l-.103.073c-.104.065-.207.112-.312.145-.107.035-.216.06-.332.06-.118 0-.24-.018-.375-.053l-.024-.007c-1.06-.28-2.018-.762-2.861-1.378l-1.167 1.166c-.145.146-.337.22-.53.22-.191 0-.383-.074-.53-.22-.293-.293-.293-.768 0-1.06l7.083-7.084.092-.093zm-9.284 11.403l-1.633 1.633c.551.401 1.152.733 1.801.951-.168-.779-.197-1.639-.197-2.129 0-.154.02-.303.03-.455zm8.13-4.942c-.419-.036-.855-.018-1.248.008-1.049.07-1.968.36-2.75.803l-1.9 1.901c-.393.7-.642 1.501-.68 2.401-.027.585-.022 1.043.012 1.368zM15.096 6.5c1.661 0 3.236.473 4.574 1.299l-.181.18-.197.198-.534.534-.187.186C17.526 8.334 16.338 8 15.096 8c-3.809 0-7.026 3.169-7.026 6.921 0 1.227.38 2.419 1.009 3.469l-.186.186-.174.173-.439.44-.183.183-.178.177C7.018 18.208 6.5 16.611 6.5 14.921c0-4.643 3.856-8.421 8.596-8.421zm5.744 4.323l-1.654 1.654c.133-.008.264-.025.398-.025.797 0 1.45 0 2.24.132-.226-.64-.569-1.227-.984-1.76z"/>
</svg>
