<svg width="26" height="25" viewBox="0 0 26 25" xmlns="http://www.w3.org/2000/svg" xmlns:xlink="http://www.w3.org/1999/xlink">
    <defs>
        <path d="M12.054 0c5.471 0 10.228 3.562 11.639 8.624.175.628.119.978-.266 1.39a1.519 1.519 0 0 1-.108.104L10.603 22.383a.795.795 0 0 1-.102.106l-.07.058-.008.009a1.145 1.145 0 0 1-.148.118c-.425.319-.777.42-1.335.277C3.716 21.6 0 17.003 0 11.672 0 5.21 5.412 0 12.054 0zm0 1.428c-5.71 0-10.51 4.748-10.51 10.244 0 4.585 3.398 8.791 7.782 9.948l.037-.035.012.048c-.322-1.024-.435-2.377-.435-3.565a9.543 9.543 0 0 1 9.597-9.565c1.342 0 2.37 0 3.759.295-1.183-4.243-5.461-7.37-10.242-7.37zm6.483 8.585c-4.476.297-7.839 3.154-8.036 7.635-.059 1.344-.007 2.233.163 2.683l10.47-10.22c-.79-.17-1.679-.158-2.597-.098z" id="e52hpz8doa"/>
    </defs>
    <use stroke="#EFFC35" stroke-width=".5" fill="#EFFC35" stroke-linejoin="round" xlink:href="#e52hpz8doa" transform="translate(1 1)" fill-rule="evenodd"/>
</svg>
