<svg xmlns="http://www.w3.org/2000/svg" xmlns:xlink="http://www.w3.org/1999/xlink" width="90" height="90" viewBox="0 0 90 90">
    <defs>
        <path id="prefix__a" d="M40.18 0c18.238 0 34.094 11.874 38.797 28.746.583 2.095.396 3.261-.886 4.632-.117.124-.236.24-.358.347L35.346 74.609c-.104.129-.217.248-.342.355-.082.07-.162.14-.242.205l-.018.017c-.16.151-.34.293-.536.423-1.396 1.04-2.564 1.369-4.406.893C12.387 72.004 0 56.676 0 38.907 0 17.367 18.04 0 40.18 0zm0 4.761c-19.03 0-35.03 15.825-35.03 34.146 0 15.283 11.325 29.304 25.938 33.16l.115-.113.048.155c-1.074-3.412-1.45-7.921-1.45-11.88 0-17.39 13.901-31.887 31.99-31.887 4.472 0 7.901 0 12.527.983C70.377 15.183 56.116 4.761 40.181 4.761zm21.611 28.617c-14.92.987-26.13 10.513-26.787 25.449-.197 4.479-.024 7.44.541 8.941l34.902-34.065c-2.632-.568-5.596-.528-8.656-.325z"/>
    </defs>
    <g fill="none" fill-rule="evenodd" transform="translate(5 7)">
        <use fill="#666" stroke="#666" stroke-linejoin="round" stroke-width=".5" xlink:href="#prefix__a"/>
    </g>
</svg>
