<svg xmlns="http://www.w3.org/2000/svg" xmlns:xlink="http://www.w3.org/1999/xlink" width="30" height="30" viewBox="0 0 30 30">
    <defs>
        <path id="prefix__a" d="M8.345 0c3.788 0 7.081 2.494 8.058 6.037.121.44.082.684-.184.972l-.037.036-.004.004-8.85 8.635c-.018.021-.037.04-.058.059l-.04.032-.014.014c-.032.03-.067.06-.106.086-.293.22-.536.29-.92.19C2.573 15.121 0 11.902 0 8.17 0 3.647 3.747 0 8.345 0zm0 1C4.393 1 1.07 4.323 1.07 8.17c0 3.21 2.353 6.155 5.388 6.964l.024-.024.009.033c-.223-.717-.301-1.664-.301-2.495 0-3.652 2.887-6.696 6.644-6.696.928 0 1.64 0 2.601.206C14.617 3.188 11.655 1 8.345 1zm4.489 6.01c-3.1.207-5.427 2.207-5.564 5.344-.04.94-.005 1.563.113 1.878l7.248-7.154c-.546-.12-1.162-.111-1.797-.069z"/>
    </defs>
    <g fill="none" fill-rule="evenodd" transform="translate(6.692 6.7)">
        <use fill="#7A7F34" stroke="#7A7F34" stroke-linejoin="round" stroke-width=".5" xlink:href="#prefix__a"/>
    </g>
</svg>
