<svg xmlns="http://www.w3.org/2000/svg" xmlns:xlink="http://www.w3.org/1999/xlink" width="80" height="80" viewBox="0 0 80 80">
    <defs>
        <path id="prefix__a" d="M35.863 1.645L0.17 1.645 0.17 0.356 35.863 0.356z"/>
        <path id="prefix__c" d="M35.315 31.671L0 31.671 0 0.269 35.315 0.269z"/>
        <path id="prefix__e" d="M35.461 31.393L35.461 0.302 0.235 0.302 0.235 31.393z"/>
    </defs>
    <g fill="none" fill-rule="evenodd" opacity=".2">
        <g transform="translate(22 24) translate(.411 30.168)">
            <mask id="prefix__b" fill="#fff">
                <use xlink:href="#prefix__a"/>
            </mask>
            <path fill="red" d="M35.327 1.163c-.073.127-.374.211-.52.211L.576 1.367c-.145 0-.28-.077-.352-.204-.012-.02-.02-.042-.027-.064-.042.112-.035.238.027.343.072.126.207.203.352.203h34.15c.285 0 .688-.065.863-.244.085-.088.48-.435.139-1.045-.008.021-.388.787-.4.807" mask="url(#prefix__b)"/>
        </g>
        <path fill="red" d="M24.193 24.74c-.073.127-.207.204-.352.204H12.53c-.145 0-.28-.077-.352-.204-.012-.02-.019-.042-.027-.064-.041.112-.034.237.027.342.073.126.207.204.352.204h11.052c.146 0 .648-.033.855-.27.175-.201.21-.323.23-.53-.008.022-.463.298-.475.318M29.966 28.036c-.073.126-.207.203-.353.203H6.76c-.145 0-.28-.077-.352-.203-.012-.02-.02-.043-.027-.064-.041.111-.035.236.027.342.072.126.207.203.352.203h22.492c.279 0 .593-.01.844-.145.21-.113.35-.308.398-.54.008-.041.004-.097.02-.136-.009.022-.535.32-.547.34" transform="translate(22 24)"/>
        <path fill="red" d="M12.759 23.864h9.898l-4.949-8.573-4.95 8.573zm10.603.814l-10.944.544c-.514 0-1.221-.27-.717-1.155l5.655-9.793c.61-.934 1.51-.36 1.66 0l4.7 9.793c.072.126.072.282-.001.407-.073.127-.207.204-.353.204z" transform="translate(22 24)"/>
        <path fill="red" d="M6.986 27.16H28.43L17.708 8.59 6.986 27.16zm22.15.814l-22.577.543c-.273 0-1.16-.27-.63-1.154l11.373-19.7c.286-.576 1.107-.887 1.745-.036l10.44 19.736c.074.126.074.281 0 .407-.072.126-.206.204-.352.204z" transform="translate(22 24)"/>
        <g transform="translate(22 24) translate(0 .142)">
            <mask id="prefix__d" fill="#fff">
                <use xlink:href="#prefix__c"/>
            </mask>
            <path fill="red" d="M1.214 30.313h32.989L17.708 1.743 1.214 30.314zm33.694.814l-33.922.545c-.458 0-1.345-.274-.83-1.155L17.313.819c.568-.902 1.467-.517 1.704-.094L35.26 30.517c.073.126.073.281 0 .407-.072.126-.207.203-.352.203z" mask="url(#prefix__d)"/>
        </g>
        <path fill="#00F" d="M23.135 23.726L23.135 24.022 22.366 23.36 13.397 23.36 13.237 23.726zM28.908 27.021L28.908 27.317 28.139 26.656 7.625 26.656 7.464 27.021zM34.672 30.326L34.697 30.622 33.917 29.96 1.844 29.96 1.683 30.326z" transform="translate(22 24)"/>
        <path fill="#00F" d="M13.715 23.864h9.898l-5.427-8.573v.829l-4.471 7.744zm10.207 1.087l-10.913-.273c-.145 0-.28-.077-.352-.204-.073-.125-.073-.28 0-.407l5.05-9.895c.542-.66 1.107-.3 1.31.102l5.576 9.657c.072.126.116.396.068.534-.05.14-.142.486-.74.486z" transform="translate(22 24)"/>
        <path fill="#00F" d="M7.942 27.16h21.444l-11.2-18.885v1.142L7.942 27.16zm21.747 1.08l-22.452-.266c-.145 0-.28-.078-.353-.204-.073-.126-.073-.281 0-.407L17.81 7.357c.293-.319.896-.27 1.264.31l11.371 19.696c.073.126.108.37.035.495-.072.126-.16.389-.79.381z" transform="translate(22 24)"/>
        <g transform="translate(22 24) translate(.823 .142)">
            <mask id="prefix__f" fill="#fff">
                <use xlink:href="#prefix__e"/>
            </mask>
            <path fill="#00F" d="M1.347 30.313h32.99L17.841 1.743l-.479.361v.468L1.347 30.313zm33.285 1.08l-33.99-.266c-.146 0-.28-.077-.352-.203-.074-.126-.074-.281 0-.407L16.845.655c.518-.624 1.12-.306 1.35.07l17.128 29.669c.073.125.186.378.116.558-.157.403-.662.441-.807.441z" mask="url(#prefix__f)"/>
        </g>
        <path fill="#3FA9FF" d="M13.445 23.864h9.898l-4.95-8.573-4.948 8.573zm10.424 1.086l-11.13-.272c-.145 0-.28-.077-.352-.204-.073-.125-.073-.28 0-.407l5.447-9.793c.26-.504.767-.253.912 0l5.655 9.793c.073.126.128.391.028.552-.17.273-.414.33-.56.33z" transform="translate(22 24)"/>
        <path fill="#3FA9FF" d="M7.672 27.16h21.444L18.394 8.59 7.672 27.16zm21.975 1.08l-22.68-.266c-.146 0-.28-.078-.353-.204-.073-.126-.073-.281 0-.407L17.69 7.476c.355-.503.897-.148 1.042.105l11.443 19.782c.073.126.103.307.064.447-.078.277-.312.43-.59.43z" transform="translate(22 24)"/>
        <path fill="#3FA9FF" d="M1.9 30.455h32.989L18.394 1.885 1.9 30.456zm33.342 1.087l-34.048-.273c-.145 0-.28-.077-.352-.203-.074-.126-.074-.281 0-.407L17.667.797c.445-.514.934-.182 1.08.07l17.2 29.792c.072.126.117.384.054.515-.17.35-.614.368-.76.368z" transform="translate(22 24)"/>
        <path fill="#FF0" d="M13.016 23.864h9.899l-4.728-8.19v-.603l-5.17 8.793zm10.604.814l-11.017.273c-.146 0-1.124-.002-.644-.884l5.654-9.793c.225-.291.662-.402.885-.058l5.475 9.851c.073.126.073.282 0 .407-.073.127-.207.204-.353.204z" transform="translate(22 24)"/>
        <path fill="#FF0" d="M7.244 27.16h21.444L18.186 8.97v-.695L7.244 27.16zm22.15.814l-22.635.265c-.145 0-.996-.083-.573-.876L17.579 7.63c.197-.37.752-.463.978-.027l11.189 19.76c.073.126.073.281 0 .407-.073.126-.208.204-.353.204z" transform="translate(22 24)"/>
        <path fill="#FF0" d="M1.471 30.455L34.41 30.4 18.186 2.246v-.36h-.22L1.471 30.456zm33.695.814l-34.15.283c-.229 0-.971-.192-.603-.893L17.613.867c.23-.412.756-.288.902-.036L35.518 30.66c.073.126.073.281 0 .407-.072.126-.207.203-.352.203z" transform="translate(22 24)"/>
        <path fill="#FFF" d="M13.237 23.864h9.898l-4.949-8.573-4.95 8.573zm10.603.814H12.532c-.146 0-.28-.077-.353-.204-.073-.125-.073-.28 0-.407l5.655-9.793c.145-.253.56-.253.705 0l5.654 9.793c.073.126.073.282 0 .407-.073.127-.207.204-.353.204z" transform="translate(22 24)"/>
        <path fill="#FFF" d="M7.464 27.16h21.444L18.186 8.59 7.464 27.16zm22.15.814H6.759c-.145 0-.28-.078-.353-.204-.073-.126-.073-.281 0-.407L17.833 7.57c.146-.252.56-.252.705 0l11.428 19.792c.073.126.073.281 0 .407-.073.126-.207.204-.352.204z" transform="translate(22 24)"/>
        <path fill="#FFF" d="M1.692 30.455H34.68L18.186 1.885 1.692 30.456zm33.623.814H.986c-.145 0-.28-.077-.352-.203-.073-.126-.073-.281 0-.407L17.834.867c.145-.252.56-.252.705 0l17.2 29.792c.073.126.073.281 0 .407-.073.126-.279.203-.424.203z" transform="translate(22 24)"/>
    </g>
</svg>
