<svg xmlns="http://www.w3.org/2000/svg" width="22" height="22" viewBox="0 0 22 22">
    <g fill="none" fill-rule="evenodd">
        <g fill="#FFF">
            <g>
                <g>
                    <path d="M9 16.5c-1.526 0-2.946-.46-4.132-1.246l5.154-5.154.326 2.91c.034.309.256.564.556.642.063.017.127.025.189.025.239 0 .467-.114.61-.314L14.397 9.6h2.073C16.162 13.456 12.932 16.5 9 16.5zM1.538 9.75h2.477c.287 0 .549-.164.675-.423l.031-.064v1.894l6.23-6.23-.113-1.011c-.036-.321-.274-.584-.591-.65-.314-.068-.641.079-.803.359L6.221 9.203V6c0-.35-.241-.652-.582-.73-.338-.084-.689.088-.843.403L3.545 8.25H1.538C1.916 4.465 5.117 1.5 9 1.5c2.067 0 3.942.84 5.3 2.199L3.699 14.3C2.507 13.109 1.714 11.52 1.538 9.75zm13.715-4.882c.629.949 1.045 2.049 1.188 3.233h-2.43c-.242 0-.469.117-.609.313L11.621 10.9l-.242-2.158 3.874-3.875zM9 0C4.029 0 0 4.029 0 9c0 4.972 4.029 9 9 9 4.97 0 9-4.028 9-9 0-4.971-4.03-9-9-9z" transform="translate(-1605 -857) translate(1605 857) translate(2 2)"/>
                </g>
            </g>
        </g>
    </g>
</svg>
