<svg xmlns="http://www.w3.org/2000/svg" xmlns:xlink="http://www.w3.org/1999/xlink" width="40" height="34" viewBox="0 0 40 34">
    <defs>
        <path id="9gsylswbwa" d="M19.837 4.894c.113 1.03-.024-.187-.038-.28-.046-.305-.17-.727-.186-.778-.393-1.368-1.885-1.954-1.885-1.954-.48-.213-1.512-.493-1.512-.493C14.44.94 12.58.695 10.664.69h-.132s-2.91-.02-5.625.693c-.998.263-1.444.485-1.444.485-.72.326-1.468.941-1.82 1.62-.033.063-.355 1.056-.367 1.126-.195 1.173-.252 3.2-.269 4.292C1 9.361 1 9.654 1 9.656c0 2.192.218 4.334.642 6.402.169.821.55 1.22.55 1.22.411.537 1.005.928 1.689 1.082l.147.028c2.125.42 4.322.64 6.57.64 2.259 0 4.465-.222 6.599-.645l.105-.02c1.127-.247 2.013-1.14 2.247-2.27l.003-.013c.424-2.075.646-4.224.646-6.424 0-.521-.018-1.039-.044-1.553-.106-1.59-.106-1.501-.317-3.209z"/>
    </defs>
    <g fill="none" fill-rule="evenodd">
        <g>
            <g>
                <g>
                    <g opacity=".6">
                        <path stroke="#FFF" stroke-width="1.3" d="M10.664 3.69c1.916.005 3.775.25 5.552.7 0 0 1.033.28 1.512.492 0 0 1.492.586 1.885 1.954.016.05.14.473.186.778.014.093.025.187.038.28-.22-.125-.434-.243-.641-.351-.31-.162-.614-.312-.946-.473l-.193-.093c-.214-.1-.58-.27-.98-.447-.171-.076-.35-.154-.525-.227-.116-.05-.231-.097-.342-.141-.067-.027-.135-.049-.202-.067l-.063-.015c-.049-.012-.097-.022-.145-.03h0l-.071-.01c-.048-.005-.097-.009-.146-.011l-.06-.003H15.5c-.02 0-.038.003-.057.003-.06.002-.117.005-.175.012l-.087.014c-.053.009-.105.02-.157.034-.029.007-.057.014-.085.023-.054.017-.106.037-.157.058-.023.01-.047.018-.07.029-.073.034-.144.072-.21.115 0 0-.07.041-.167.129-.076.07-.17.17-.257.301-.022.033-.043.068-.064.105-.04.074-.08.156-.112.248-.065.181-.106.397-.102.65.014.742.051 1.48.101 2.226.026.385.054.73.082 1.023.01.117.021.226.031.325l.028.27c.005.04.01.077.013.112l.021.178c.011.096.019.148.019.148v.01c.002.015.005.045.012.085l.013.068c.01.05.024.11.044.177.03.099.07.212.129.329.02.039.04.078.064.117.047.079.101.158.166.233.065.076.138.148.224.214.084.066.18.126.289.176.065.03.133.053.203.073.02.006.04.01.061.015.054.013.109.024.164.032h0l.059.008c.07.008.141.012.213.012h.007c.096 0 .193-.008.289-.02h0l.081-.014c.069-.012.135-.025.201-.041l.092-.026c.063-.018.123-.039.18-.061l.077-.03c.08-.034.156-.072.223-.113 0 0 .371-.188.996-.579.21-.13.446-.283.707-.459.323-.218.621-.434.916-.653l.65-.48c.025.515.043 1.033.043 1.554 0 2.2-.222 4.349-.646 6.424h0l-.003.013c-.234 1.13-1.12 2.023-2.247 2.27l-.105.02c-2.134.423-4.34.645-6.598.645-2.249 0-4.446-.22-6.571-.64l-.147-.028c-.684-.154-1.278-.545-1.69-1.082 0 0-.38-.399-.549-1.22C1.218 16.99 1 14.848 1 12.655h0v-.013c.061.058.12.12.183.173.431.365.93.624 1.467.717.131.022.261.04.39.05h0l.13.007c.085.004.17.01.254.01h.01c.113 0 .226-.004.338-.013.031-.002.061-.007.092-.01.084-.009.168-.018.25-.032.042-.007.082-.016.123-.024.07-.014.141-.028.21-.046.043-.01.086-.023.129-.035.066-.019.13-.04.194-.062h0l.127-.045c.063-.025.126-.052.188-.08.04-.017.08-.035.118-.054.065-.032.129-.067.192-.103.033-.018.066-.036.099-.056.081-.049.16-.102.238-.158l.037-.025c.089-.065.175-.135.258-.21.025-.022.049-.046.073-.069.057-.053.114-.107.168-.164.029-.031.057-.064.085-.096.047-.053.093-.107.138-.163l.082-.11c.042-.057.082-.114.12-.174.026-.039.052-.078.076-.12.038-.061.073-.126.108-.19l.065-.123c.035-.073.068-.149.1-.225.016-.037.033-.073.048-.11.045-.116.087-.234.124-.357.316-1.052.32-2.038-.03-2.846C6.831 7.09 6.125 6.46 5.02 6.123h0l-.177-.05h0l-.176-.04-.104-.02c-.085-.015-.17-.028-.255-.038l-.105-.012c-.107-.009-.211-.015-.315-.016l-.03-.001h0c-.119 0-.232.006-.344.016-.035.003-.068.007-.102.012-.08.009-.16.02-.238.033-.04.007-.079.014-.118.023-.075.015-.148.032-.221.051h0l-.112.03c-.083.025-.165.052-.247.082-.024.008-.048.015-.071.025-.104.039-.207.083-.306.13h0l-.078.04c-.074.036-.147.074-.219.114l-.096.056c.336-.778.97-1.334 1.756-1.69 0 0 .446-.222 1.444-.485 2.385-.627 4.922-.687 5.503-.692zM14.79.097c.35-.199.793-.085.972.275.187.377-.001.815-.4.952h0L11.22 3.201c-.488.22-.817.178-1.284-.028h0L7.258 1.91c-.37-.207-.416-.714-.18-1.01.251-.297.702-.344.985-.077h0l2.061 1.654c.224.184.458.193.643.152.076-.017.139-.05.24-.107h0z" transform="translate(-1433 -884) translate(1228 876) translate(205 8) translate(9 5)"/>
                        <g transform="translate(-1433 -884) translate(1228 876) translate(205 8) translate(9 5) translate(0 3)">
                            <path fill="#FFF" d="M5 12H16V16H5z"/>
                            <path fill="#FFF" d="M19.137 4.894c.113 1.03-.024-.187-.038-.28-.046-.305-.17-.727-.186-.778-.393-1.368-1.885-1.954-1.885-1.954-.48-.213-1.512-.493-1.512-.493C13.74.94 11.88.695 9.964.69h-.132s-2.91-.02-5.625.693c-.998.263-1.444.485-1.444.485-.72.326-1.468.941-1.82 1.62C.91 3.552.587 4.545.575 4.615.381 5.787.324 7.814.307 8.906.3 9.361.3 9.654.3 9.656c0 2.192.218 4.334.642 6.402.169.821.55 1.22.55 1.22.411.537 1.005.928 1.689 1.082l.147.028c2.125.42 4.322.64 6.57.64 2.259 0 4.465-.222 6.599-.645l.105-.02c1.127-.247 2.013-1.14 2.247-2.27l.003-.013c.424-2.075.646-4.224.646-6.424 0-.521-.018-1.039-.044-1.553-.106-1.59-.106-1.501-.317-3.209z"/>
                            <path fill="#FFF" d="M20.537 4.894c.113 1.03-.024-.187-.038-.28-.046-.305-.17-.727-.186-.778-.393-1.368-1.885-1.954-1.885-1.954-.48-.213-1.512-.493-1.512-.493C15.14.94 13.28.695 11.364.69h-.132s-2.91-.02-5.625.693c-.998.263-1.444.485-1.444.485-.72.326-1.468.941-1.82 1.62-.033.063-.355 1.056-.367 1.126-.195 1.173-.252 3.2-.269 4.292-.007.455-.007.748-.007.75 0 2.192.218 4.334.642 6.402.169.821.55 1.22.55 1.22.411.537 1.005.928 1.689 1.082l.147.028c2.125.42 4.322.64 6.57.64 2.259 0 4.465-.222 6.599-.645l.105-.02c1.127-.247 2.013-1.14 2.247-2.27l.003-.013c.424-2.075.646-4.224.646-6.424 0-.521-.018-1.039-.044-1.553-.106-1.59-.106-1.501-.317-3.209z"/>
                            <mask id="i5z2jcscpb" fill="#fff">
                                <use xlink:href="#9gsylswbwa"/>
                            </mask>
                            <use fill="#0545B1" xlink:href="#9gsylswbwa"/>
                            <path fill="#0545B1" d="M15.608 13.416c-2.468 2.295-7.633 2.292-10.046-.003-.165-.16-.174-.428-.01-.594.158-.168.427-.176.594-.015 2.089 1.993 6.745 1.99 8.892-.002.172-.16.436-.15.596.02.157.17.149.436-.026.594M7.859 9.481c0-.018.002-.036.003-.053l.003-.037.003-.037.144-1.568.144-1.568.015-.169c.009-.055.02-.11.032-.163.04-.157.102-.306.185-.44.163-.272.404-.492.69-.63.144-.07.3-.118.464-.143.076-.011.155-.018.235-.018H11.403c.084 0 .167.01.248.022.008.001.016.001.023.003.478.082.884.373 1.123.774.08.134.14.28.179.435.016.066.029.134.037.203l.008.089.261 2.87.026.286.011.125v.02c.002.02.003.04.003.061 0 .707-.452 1.309-1.083 1.534-.09.032-.184.057-.28.073-.087.014-.176.022-.266.022H9.486c-.071 0-.142-.005-.21-.013-.07-.01-.138-.023-.203-.04-.176-.047-.339-.121-.486-.218-.146-.097-.276-.218-.384-.356-.109-.138-.195-.294-.254-.463-.06-.169-.092-.35-.092-.539l.002-.062m12.295-1.378c-.22.161-.435.32-.649.48-.295.218-.593.434-.916.652-.26.176-.497.328-.707.46-.625.39-.996.578-.996.578-.067.041-.143.079-.223.113l-.076.03c-.058.022-.118.043-.18.061-.031.01-.062.018-.093.026-.066.016-.132.03-.2.04l-.082.014c-.096.013-.193.02-.289.02l-.007.001c-.072 0-.142-.004-.213-.012l-.059-.008c-.055-.008-.11-.019-.164-.032l-.061-.015c-.07-.02-.138-.043-.203-.073-.109-.05-.205-.11-.29-.176-.085-.066-.158-.138-.223-.214-.065-.075-.12-.154-.166-.233-.023-.039-.045-.078-.064-.117-.058-.117-.1-.23-.13-.33-.019-.065-.033-.126-.043-.176l-.013-.068c-.007-.04-.01-.07-.011-.084l-.001-.011s-.008-.052-.019-.148l-.02-.178-.014-.112-.028-.27-.031-.325c-.028-.293-.056-.638-.082-1.023-.05-.747-.087-1.484-.101-2.226-.004-.253.037-.469.102-.65.032-.092.071-.174.112-.248.02-.037.042-.072.064-.105.087-.132.18-.231.257-.301.097-.088.167-.13.167-.13.066-.042.137-.08.21-.114l.07-.03c.051-.02.103-.04.157-.057.028-.009.056-.016.085-.023.052-.014.104-.025.157-.034l.087-.014c.058-.007.116-.01.175-.012.02 0 .038-.004.057-.004l.022.001.061.003c.05.002.098.006.146.012.024.002.047.006.071.01.048.007.096.017.145.029l.063.015c.067.018.135.04.202.067.11.044.226.091.342.14.176.074.354.152.525.228.4.177.766.347.98.447l.193.093c.332.161.637.311.946.473.207.108.42.226.641.351-.013-.093-.024-.187-.038-.28-.046-.305-.17-.727-.186-.778-.393-1.368-1.885-1.954-1.885-1.954-.48-.213-1.512-.493-1.512-.493C14.44.94 12.58.695 10.664.69h-.132s-2.91-.02-5.625.693c-.998.263-1.444.485-1.444.485-.787.356-1.42.912-1.756 1.69l.096-.056c.072-.04.145-.078.219-.115l.078-.04c.1-.046.202-.09.306-.13.023-.009.047-.016.071-.024.082-.03.164-.057.247-.081.037-.011.074-.02.112-.03.073-.02.146-.037.22-.052.04-.009.079-.016.119-.023.079-.014.158-.024.238-.033.034-.005.067-.01.102-.012.112-.01.225-.016.338-.016H3.89c.104.002.208.008.315.017l.105.012c.085.01.17.023.255.039l.104.019c.118.025.235.054.352.09 1.106.338 1.812.968 2.163 1.776.35.808.347 1.794.03 2.846-.036.123-.078.241-.123.357l-.047.11c-.033.076-.066.152-.101.225l-.065.122c-.035.065-.07.13-.108.192-.024.04-.05.08-.075.119-.039.06-.08.117-.12.174l-.083.11c-.045.056-.091.11-.138.163-.028.032-.056.065-.085.096-.054.057-.11.111-.168.164l-.073.07c-.083.074-.17.144-.258.21-.012.008-.025.015-.037.024-.078.056-.157.109-.238.158-.033.02-.066.038-.1.056-.062.036-.126.071-.191.103-.039.02-.079.037-.118.054-.062.028-.125.055-.188.08l-.127.045c-.064.022-.128.043-.194.062-.043.012-.086.025-.13.035-.068.018-.138.032-.209.046-.04.008-.081.017-.123.024-.082.014-.166.023-.25.032-.03.003-.06.008-.092.01-.112.009-.225.014-.339.014h-.01c-.083 0-.168-.007-.252-.011-.044-.003-.086-.003-.13-.007-.13-.01-.26-.028-.39-.05-.537-.093-1.037-.351-1.468-.717-.064-.054-.122-.115-.182-.173L1 9.655c0 2.193.218 4.335.642 6.403.169.821.55 1.22.55 1.22.411.537 1.005.928 1.689 1.082l.147.028c2.125.42 4.322.64 6.57.64 2.259 0 4.465-.222 6.599-.645l.105-.02c1.127-.247 2.013-1.14 2.247-2.27l.003-.013c.424-2.075.646-4.224.646-6.424 0-.521-.018-1.039-.044-1.553" mask="url(#i5z2jcscpb)"/>
                            <path fill="#00BBED" stroke="#00BBED" stroke-width="1.5" d="M16.901 8.12c-.76 0-1.377-.614-1.377-1.373s.617-1.373 1.377-1.373 1.377.614 1.377 1.373-.617 1.374-1.377 1.374m2.957-2.362h0l-.016-.008-.029-.013-.027-.017c-.647-.386-1.157-.64-1.863-.986-.005-.003-1.134-.543-1.99-.885-.138-.055-.283-.083-.433-.083-.214 0-.425.06-.592.168l-.023.014c-.062.045-.35.278-.341.784.012.668.044 1.365.099 2.19.08 1.19.187 2 .188 2.007l.003.022.001.022c.003.015.064.582.514.791.1.047.234.072.387.072.306 0 .603-.098.761-.196l.025-.015.027-.013c.006-.004.638-.328 1.624-.993.405-.272.766-.542 1.15-.826.21-.157.424-.316.648-.478.049-.035.088-.075.127-.115-.036-.461-.08-.92-.135-1.375-.019-.012-.035-.027-.055-.039l-.05-.028" mask="url(#i5z2jcscpb)"/>
                            <path fill="#1AC62F" stroke="#1AC62F" stroke-width="1.5" d="M9.262 10.401c.074.02.15.03.226.03h2.197c.054 0 .103-.005.152-.013.43-.071.742-.44.742-.875l-.001-.032v-.006l-.01-.1-.287-3.157-.007-.078c-.004-.035-.011-.07-.02-.102-.084-.34-.362-.598-.707-.658-.05-.008-.1-.013-.148-.014H9.777c-.04.001-.083.004-.125.01-.349.053-.642.318-.727.661l-.015.072-.014.146-.287 3.137-.006.062-.001.024-.001.035c0 .403.272.756.661.858" mask="url(#i5z2jcscpb)"/>
                            <path fill="#F2338A" stroke="#F2338A" stroke-width="1.6" d="M3.986 5.373c.76 0 1.377.615 1.377 1.374 0 .759-.617 1.374-1.377 1.374S2.61 7.506 2.61 6.747c0-.759.617-1.374 1.377-1.374m-.553 4.485c1.484 0 2.631-.87 3.069-2.326.326-1.087.54-3.014-1.7-3.7-.311-.096-.63-.145-.948-.145-.898.001-1.791.391-2.476 1.044-.208 1.234-.318 2.497-.359 3.778.457.696 1.097 1.178 1.758 1.292.22.038.441.057.656.057z" mask="url(#i5z2jcscpb)"/>
                            <circle cx="3.95" cy="6.75" r="1.45" fill="#1E1E1E" mask="url(#i5z2jcscpb)"/>
                            <circle cx="16.95" cy="6.75" r="1.45" fill="#1E1E1E" mask="url(#i5z2jcscpb)"/>
                            <path fill="#FFF" d="M15.608 13.416c-2.468 2.295-7.633 2.292-10.046-.003-.165-.16-.174-.428-.01-.594.158-.168.427-.176.594-.015 2.089 1.993 6.745 1.99 8.892-.002.172-.16.436-.15.596.02.157.17.149.436-.026.594" mask="url(#i5z2jcscpb)"/>
                        </g>
                        <path fill="#0545B1" d="M7.258 1.909l2.678 1.264c.467.206.796.248 1.284.028l4.141-1.877c.4-.137.588-.575.4-.952-.178-.36-.622-.474-.97-.275L11.006 2.52c-.101.057-.164.09-.24.107-.185.041-.419.032-.643-.152L8.064.822C7.78.555 7.328.602 7.078.9c-.237.295-.192.802.18 1.009" transform="translate(-1433 -884) translate(1228 876) translate(205 8) translate(9 5)"/>
                    </g>
                </g>
            </g>
        </g>
    </g>
</svg>
