<svg width="34" height="34" viewBox="0 0 34 34" fill="none" xmlns="http://www.w3.org/2000/svg">
<rect width="34" height="34" rx="17" fill="white"/>
<path d="M26.3521 20.4001C25.8519 20.4001 25.3922 20.3183 24.9685 20.1503C24.5449 19.9867 24.1843 19.7551 23.8869 19.4553C23.5894 19.16 23.3551 18.8012 23.1883 18.3787C23.0216 17.9608 22.9404 17.502 22.9404 17.0024C22.9404 16.5072 23.0216 16.0485 23.1883 15.626C23.3551 15.2036 23.5894 14.8447 23.8869 14.5449C24.1843 14.2497 24.5449 14.018 24.9685 13.8499C25.3922 13.6864 25.8519 13.6001 26.3521 13.6001C26.8434 13.6001 27.2986 13.6864 27.7222 13.8499C28.1414 14.0135 28.5019 14.2451 28.7994 14.5404C29.0968 14.8356 29.3267 15.1945 29.498 15.6169C29.6647 16.0439 29.7503 16.5027 29.7503 17.0024C29.7503 17.502 29.6647 17.9654 29.498 18.3878C29.3267 18.8103 29.0968 19.1691 28.7994 19.4644C28.5019 19.7596 28.1414 19.9913 27.7222 20.1548C27.2986 20.3183 26.8434 20.4001 26.3521 20.4001ZM26.3476 18.7512C26.6496 18.7512 26.92 18.674 27.1634 18.5195C27.4068 18.3651 27.5915 18.1516 27.7222 17.8881C27.8529 17.6247 27.9205 17.3294 27.9205 17.0024C27.9205 16.6799 27.8529 16.3846 27.7222 16.1211C27.5915 15.8577 27.4068 15.6442 27.1634 15.4897C26.92 15.3353 26.6496 15.2535 26.3476 15.2535C26.0412 15.2535 25.7708 15.3308 25.5319 15.4852C25.2885 15.6396 25.1037 15.8531 24.9685 16.1166C24.8333 16.3846 24.7702 16.6799 24.7702 17.0024C24.7702 17.3294 24.8333 17.6247 24.9685 17.8881C25.1037 18.1516 25.2885 18.3651 25.5319 18.5195C25.7753 18.674 26.0457 18.7512 26.3476 18.7512Z" fill="black"/>
<path d="M19.6678 20.3865C19.2847 20.3865 18.9242 20.341 18.5816 20.2457C18.2391 20.1548 17.9281 20.014 17.6442 19.8232C17.3558 19.637 17.1124 19.4099 16.9051 19.1464C16.6978 18.8829 16.5355 18.565 16.4183 18.2016C16.3012 17.8382 16.2471 17.443 16.2471 17.016C16.2471 16.6344 16.2921 16.2756 16.3868 15.9304C16.4814 15.5851 16.6211 15.2717 16.8104 14.9901C16.9997 14.7084 17.2251 14.4632 17.491 14.2542C17.7569 14.0498 18.0679 13.8908 18.4284 13.7727C18.789 13.6591 19.1765 13.6001 19.5957 13.6001C19.9202 13.6001 20.2447 13.6455 20.5737 13.7364C20.8982 13.8272 21.2137 13.968 21.5201 14.1543C21.8221 14.3405 22.0835 14.5631 22.2998 14.822L21.0559 15.8804C20.6278 15.4716 20.141 15.2626 19.5912 15.2626C19.4289 15.2626 19.2757 15.2899 19.127 15.3353C18.9782 15.3853 18.8385 15.4579 18.7123 15.5579C18.5861 15.6578 18.4735 15.7759 18.3788 15.9122C18.2842 16.0485 18.2121 16.212 18.158 16.4028C18.1039 16.5936 18.0769 16.798 18.0769 17.016C18.0769 17.2522 18.1129 17.4793 18.185 17.6883C18.2571 17.8972 18.3563 18.0835 18.487 18.247C18.6177 18.4105 18.7845 18.5377 18.9918 18.6286C19.1946 18.7239 19.4199 18.7694 19.6678 18.7694C20.0103 18.7694 20.3348 18.6967 20.6503 18.5513V17.9426H19.5326V16.5163H22.2953V19.5915C21.9889 19.8232 21.6013 20.014 21.1235 20.1639C20.6458 20.3138 20.1591 20.3865 19.6678 20.3865Z" fill="black"/>
<path d="M12.2906 20.4001C11.7904 20.4001 11.3307 20.3183 10.907 20.1503C10.4834 19.9867 10.1228 19.7551 9.82535 19.4553C9.5279 19.16 9.29354 18.8012 9.12679 18.3787C8.96003 17.9608 8.87891 17.502 8.87891 17.0024C8.87891 16.5072 8.96003 16.0485 9.12679 15.626C9.29354 15.2036 9.5279 14.8447 9.82535 14.5449C10.1228 14.2497 10.4834 14.018 10.907 13.8499C11.3307 13.6864 11.7904 13.6001 12.2906 13.6001C12.7819 13.6001 13.2371 13.6864 13.6607 13.8499C14.0799 14.0135 14.4404 14.2451 14.7379 14.5404C15.0353 14.8356 15.2652 15.1945 15.4364 15.6169C15.6032 16.0439 15.6888 16.5027 15.6888 17.0024C15.6888 17.502 15.6032 17.9654 15.4364 18.3878C15.2652 18.8103 15.0353 19.1691 14.7379 19.4644C14.4404 19.7596 14.0799 19.9913 13.6607 20.1548C13.2371 20.3183 12.7819 20.4001 12.2906 20.4001ZM12.2861 18.7512C12.5881 18.7512 12.8585 18.674 13.1019 18.5195C13.3452 18.3651 13.53 18.1516 13.6607 17.8881C13.7914 17.6247 13.859 17.3294 13.859 17.0024C13.859 16.6799 13.7914 16.3846 13.6607 16.1211C13.53 15.8577 13.3452 15.6442 13.1019 15.4897C12.8585 15.3353 12.5881 15.2535 12.2861 15.2535C11.9796 15.2535 11.7092 15.3308 11.4704 15.4852C11.227 15.6396 11.0422 15.8531 10.907 16.1166C10.7718 16.3846 10.7087 16.6799 10.7087 17.0024C10.7087 17.3294 10.7718 17.6247 10.907 17.8881C11.0422 18.1516 11.227 18.3651 11.4704 18.5195C11.7137 18.674 11.9842 18.7512 12.2861 18.7512Z" fill="black"/>
<path d="M4.25 20.3045V13.6953H6.0167V18.7329H8.62169V20.3045H4.25Z" fill="black"/>
</svg>
