<svg width="22" height="25" viewBox="0 0 22 25" fill="none" xmlns="http://www.w3.org/2000/svg">
<g clip-path="url(#clip0_2182_39106)">
<path fill-rule="evenodd" clip-rule="evenodd" d="M17.1691 2.67595C15.58 0.980643 13.3647 0 10.9945 0C8.62628 0 6.41263 0.979049 4.82374 2.67196C4.50393 3.0127 4.5209 3.54819 4.86165 3.868C5.20239 4.18781 5.73788 4.17084 6.05769 3.83009C7.32993 2.47456 9.09863 1.69231 10.9945 1.69231C12.892 1.69231 14.662 2.47584 15.9344 3.83329C16.254 4.17424 16.7895 4.19156 17.1304 3.87197C17.4714 3.55238 17.4887 3.01691 17.1691 2.67595ZM15.2307 8.46154C16.6327 8.46154 17.7692 9.59805 17.7692 11V22C17.7692 23.402 16.6327 24.5385 15.2307 24.5385H6.76917C5.36722 24.5385 4.23071 23.402 4.23071 22V11C4.23071 9.59805 5.36722 8.46154 6.76917 8.46154H9.66148H12.3384H15.2307ZM8.46148 10.1538V10.6462C8.46148 11.3089 8.99874 11.8462 9.66148 11.8462H12.3384C13.0011 11.8462 13.5384 11.3089 13.5384 10.6462V10.1538H15.2307C15.698 10.1538 16.0769 10.5327 16.0769 11V22C16.0769 22.4673 15.698 22.8462 15.2307 22.8462H6.76917C6.30186 22.8462 5.92302 22.4673 5.92302 22V11C5.92302 10.5327 6.30186 10.1538 6.76917 10.1538H8.46148ZM10.9945 3.38462C12.4182 3.38462 13.7495 3.97478 14.7029 4.99403C15.0221 5.33532 15.0042 5.87078 14.6629 6.19001C14.3217 6.50924 13.7862 6.49137 13.467 6.15008C12.8303 5.46945 11.9449 5.07692 10.9945 5.07692C10.0426 5.07692 9.15575 5.47081 8.51894 6.15348C8.20017 6.4952 7.66474 6.51381 7.32302 6.19504C6.9813 5.87627 6.96269 5.34084 7.28146 4.99912C8.2351 3.97681 9.56842 3.38462 10.9945 3.38462Z" fill="#7A7F34"/>
</g>
<defs>
<clipPath id="clip0_2182_39106">
<rect width="22" height="25" fill="white"/>
</clipPath>
</defs>
</svg>
