<svg width="36" height="36" viewBox="0 0 36 36" xmlns="http://www.w3.org/2000/svg">
    <g fill="none" fill-rule="evenodd">
        <path d="M32.053 29.214H3.885a.333.333 0 0 1-.289-.501L17.71 4.268c.12-.207.46-.207.578 0l14.114 24.445c.06.103.06.23 0 .334-.06.104-.228.167-.348.167z" stroke="#000" stroke-width="7.695" fill="#000"/>
        <path d="m17.61 16.111 4.057 7.026h-8.122l4.056-7.026c.002-.003.007-.003.01 0zm-4.887 7.11a.687.687 0 0 0 .596 1.03h9.108c.119 0 .531-.026.701-.222a.648.648 0 0 0 .19-.433c-.008.018-4.638-8.328-4.638-8.328-.124-.294-.863-.765-1.363 0l-4.594 7.953z" fill="red"/>
        <path d="m17.606 10.604 8.798 15.238H8.808l8.798-15.238zM8.01 25.896a.706.706 0 0 0 .612 1.06h18.455c.23 0 .487-.008.693-.12a.643.643 0 0 0 .327-.442c.006-.034.003-.08.015-.112-.007.017-9.408-16.467-9.408-16.467-.523-.698-1.197-.444-1.431.03L8.01 25.896z" fill="red"/>
        <path d="m17.606 5.103 13.37 23.159a.19.19 0 0 1-.164.284H4.072L17.606 5.103zM3.25 28.598a.708.708 0 0 0 .613 1.062h28.044c.234 0 .565-.053.708-.2.07-.072.394-.358.115-.858-.007.018-14.05-24.334-14.05-24.334-.194-.348-.93-.663-1.397.077L3.25 28.598z" fill="red"/>
        <path fill="#00F" d="M22.06 22.953v.184l-.632-.412h-7.36l-.13.228zM26.796 25.657v.185l-.631-.413H9.332l-.132.228zM31.525 28.368l.021.185-.64-.413H4.588l-.131.228z"/>
        <path d="M14.33 23.137h8.121l-4.453-7.033v.68l-3.668 6.353zm8.374.893-8.953-.225a.333.333 0 0 1-.29-.5l4.145-8.12c.444-.542.908-.247 1.074.083l4.575 7.924c.06.104.095.326.056.438-.04.116-.116.4-.607.4z" fill="#00F"/>
        <path d="M9.593 25.842h17.595l-9.19-15.496v.937L9.593 25.842zm17.844.886-18.423-.219a.334.334 0 0 1-.29-.5l8.964-16.416c.24-.262.737-.222 1.038.255l9.33 16.16c.06.104.09.303.03.407-.06.103-.133.319-.65.313z" fill="#00F"/>
        <path d="M4.856 28.546h27.07L18.39 5.103l-.393.296v.384L4.856 28.546zm27.312.886-27.89-.218a.334.334 0 0 1-.29-.501L17.573 4.21c.425-.512.92-.25 1.107.058l14.055 24.344c.06.103.153.31.095.458-.129.33-.543.362-.662.362z" fill="#00F"/>
        <path d="M14.108 23.137h8.122l-4.061-7.033-4.061 7.033zm8.554.891-9.133-.223a.333.333 0 0 1-.29-.5l4.47-8.037c.214-.413.63-.207.749 0l4.64 8.036c.06.104.105.321.022.453a.538.538 0 0 1-.458.271z" fill="#3FA9FF"/>
        <path d="M9.371 25.842h17.596l-8.798-15.239L9.37 25.842zm18.032.886-18.61-.219a.333.333 0 0 1-.29-.5L17.59 9.69c.292-.413.736-.122.855.086l9.39 16.231c.06.104.084.252.052.368-.063.226-.256.352-.484.352z" fill="#3FA9FF"/>
        <path d="M4.635 28.546h27.069L18.169 5.103 4.635 28.546zm27.358.891-27.937-.223a.333.333 0 0 1-.29-.501L17.574 4.21c.364-.421.766-.149.885.058L32.57 28.713c.06.103.096.315.045.423-.139.287-.504.301-.623.301z" fill="#3FA9FF"/>
        <path fill="#3FA9FF" d="m22.168 23.162.042.074-.45-.302h-7.714l-.132.228zM26.975 25.866l-.179-.024-.298-.204H9.309l-.132.228zM31.641 28.57l-.108-.024-.313-.203H4.572l-.131.228z"/>
        <path d="M17.998 15.923v.363c0 .086.024.17.066.245l3.697 6.403.298.203h-8.303l4.242-7.214zm-5.102 7.37a.49.49 0 0 0 .425.736h9.175c.119 0 .323-.036.431-.166.082-.1.148-.285.016-.529-.007.018-.006.284-.016.3a.335.335 0 0 1-.29.167h-.148a.333.333 0 0 0 .258-.496l-4.493-8.084c-.183-.283-.542-.192-.726.047l-4.632 8.025z" fill="#EFFC35"/>
        <path d="M17.998 10.346v.57l8.5 14.723.298.202H9.02l8.978-15.495zm-9.815 15.59a.531.531 0 0 0 .46.798h18.63c.12 0 .316-.074.39-.167.073-.09.14-.27.02-.521-.007.018-.01.276-.02.292a.334.334 0 0 1-.288.168h-.15a.332.332 0 0 0 .258-.497l-9.18-16.215c-.186-.357-.64-.28-.802.023l-9.318 16.12z" fill="#EFFC35"/>
        <path d="M17.817 5.103h.181V5.4l13.221 22.944.327.21-27.263-.007L17.817 5.103zM3.434 28.668c-.2.345.05.777.449.777l28.08-.007c.119 0 .336-.032.438-.167.068-.09.156-.232.025-.504-.007.018-.016.26-.025.276-.06.103-.24.167-.36.167h-.078a.33.33 0 0 0 .257-.497L18.268 4.238c-.12-.207-.552-.308-.74.03l-14.094 24.4z" fill="#EFFC35"/>
        <path d="M13.937 23.137h8.122L18 16.104l-4.062 7.033zm8.7.668h-9.279a.333.333 0 0 1-.289-.5l4.64-8.037c.12-.207.46-.207.579 0l4.64 8.036a.334.334 0 0 1-.29.501z" fill="#FFF"/>
        <path d="M9.2 25.842h17.596l-8.798-15.239L9.2 25.842zm18.175.667H8.622a.333.333 0 0 1-.29-.5l9.377-16.24c.12-.208.46-.208.578 0l9.377 16.24a.333.333 0 0 1-.29.5z" fill="#FFF"/>
        <path d="M4.464 28.546h27.069L17.998 5.103 4.464 28.546zm27.589.668H3.885a.333.333 0 0 1-.289-.501L17.71 4.268c.12-.207.46-.207.578 0l14.114 24.445c.06.103.06.23 0 .334-.06.104-.228.167-.348.167z" fill="#FFF"/>
    </g>
</svg>
