<svg xmlns="http://www.w3.org/2000/svg" width="30" height="30" viewBox="0 0 30 30">
    <g fill="#666" fill-rule="evenodd">
        <path d="M17.95 9.316h-2.458V8l-3.643 2.106 3.643 2.105v-1.316h2.457c2.525 0 4.58 2.054 4.58 4.579 0 2.055-1.362 3.798-3.23 4.376l1.687.976c1.861-1.062 3.121-3.061 3.121-5.352 0-3.396-2.762-6.158-6.158-6.158M15.615 20.054h-2.457c-2.525 0-4.579-2.055-4.579-4.58 0-2.043 1.345-3.776 3.194-4.364l-1.679-.97C8.248 11.204 7 13.194 7 15.474c0 3.396 2.762 6.159 6.158 6.159h2.457v1.316l3.641-2.105-3.64-2.106v1.316z"/>
    </g>
</svg>
