<?xml version="1.0" standalone="no"?><!DOCTYPE svg PUBLIC "-//W3C//DTD SVG 1.1//EN" "http://www.w3.org/Graphics/SVG/1.1/DTD/svg11.dtd"><svg t="1682055845754" class="icon" viewBox="0 0 1024 1024" version="1.1" xmlns="http://www.w3.org/2000/svg" p-id="24640" xmlns:xlink="http://www.w3.org/1999/xlink" width="200" height="200"><path d="M512 512m-512 0a512 512 0 1 0 1024 0 512 512 0 1 0-1024 0Z" fill="#FFC12F" p-id="24641"></path><path d="M512 0a512 512 0 1 1 0 1024A512 512 0 0 1 512 0z m0 42.666667a469.333333 469.333333 0 1 0 0 938.666666 469.333333 469.333333 0 0 0 0-938.666666z" fill="#FFB300" p-id="24642"></path><path d="M768 469.333333a42.666667 42.666667 0 0 1 7.68 84.650667L768 554.666667H256a42.666667 42.666667 0 0 1-7.68-84.650667L256 469.333333h512z" fill="#995700" p-id="24643"></path></svg>