<svg xmlns="http://www.w3.org/2000/svg" width="15" height="15" viewBox="0 0 15 15">
    <g fill="none" fill-rule="evenodd">
        <g fill="#666">
            <g>
                <g>
                    <path d="M9.342.008c-.833.055-1.607.41-2.2 1.012l-.64.65-.643-.651C5.212.363 4.35-.001 3.432-.001 2.514 0 1.65.364 1.005 1.02c-1.34 1.359-1.34 3.567 0 4.928l4.747 4.746c.358.36.921.408 1.335.122l.11-.09.034-.031 4.906-4.905c1.206-1.386 1.136-3.474-.139-4.77C11.351.364 10.488 0 9.571 0l-.229.009z" transform="translate(-347.000000, -1123.000000) translate(347.000000, 1123.000000) translate(1.000000, 3.000000)"/>
                </g>
            </g>
        </g>
    </g>
</svg>
