<svg xmlns="http://www.w3.org/2000/svg" width="15" height="15" viewBox="0 0 15 15">
    <g fill="none" fill-rule="evenodd">
        <g fill="#BABABA">
            <g>
                <g transform="translate(-427.000000, -1123.000000) translate(427.000000, 1123.000000) translate(0.000000, 2.000000)">
                    <rect width="2.786" height="6.417" x=".782" y="4.225" rx=".475"/>
                    <path d="M12.539 5.896c-.005.094-.021.187-.046.278-.01.026-.023.052-.04.075L10.98 9.843c-.152.368-.5.608-.887.614H5.688c-.549-.007-.994-.46-1.008-1.026V4.38c-.012-.272.102-.535.308-.707L8.07.502c.1-.096.231-.193.413-.068l.406.401c.119.162.163.351.097.568l-.054.17-.862 2.33h3.084c.542-.028 1.213.316 1.375.872.01.04.01.102.01.102v1.02z"/>
                </g>
            </g>
        </g>
    </g>
</svg>
