<svg xmlns="http://www.w3.org/2000/svg" width="15" height="15" viewBox="0 0 15 15">
    <g fill="none" fill-rule="evenodd">
        <g fill="#BABABA">
            <g>
                <g>
                    <path d="M8.645 4.846L1.12.11C1.06.074 1 .047.936.028.914.022.891.022.87.018.83.01.787 0 .746 0 .7 0 .658.008.617.016.597.02.577.018.556.024.492.04.431.064.373.098.319.132.268.173.22.22.08.363 0 .558 0 .765v9.47c0 .207.082.402.22.544.046.047.098.09.155.122.057.032.116.058.176.073.06.018.123.026.186.026.134 0 .265-.037.384-.11l7.524-4.736c.22-.14.354-.387.354-.654 0-.268-.133-.516-.354-.654z" transform="translate(-452.000000, -1123.000000) translate(452.000000, 1123.000000) translate(2.000000, 2.000000)"/>
                </g>
            </g>
        </g>
    </g>
</svg>
