<svg xmlns="http://www.w3.org/2000/svg" width="15" height="15" viewBox="0 0 15 15">
    <g fill="none" fill-rule="evenodd">
        <g fill="#BABABA">
            <g>
                <g>
                    <path d="M5.5.5C6.88.5 8 1.62 8 3S6.88 5.5 5.5 5.5 3 4.38 3 3 4.12.5 5.5.5zM5.5 7C2.462 7 .042 8.72 0 10.442c-.003.165.015.199.042.362.022.11.131.192.261.196h10.394c.13-.004.239-.086.261-.196.027-.163.045-.197.041-.362C10.96 8.672 8.54 7 5.5 7z" transform="translate(-402.000000, -1123.000000) translate(402.000000, 1123.000000) translate(2.000000, 2.000000)"/>
                </g>
            </g>
        </g>
    </g>
</svg>
