<svg xmlns="http://www.w3.org/2000/svg" width="15" height="15" viewBox="0 0 15 15">
    <g fill="none" fill-rule="evenodd">
        <g fill="#BABABA">
            <g>
                <g>
                    <g>
                        <path d="M6 0c3.314 0 6 2.686 6 6s-2.686 6-6 6c-1 0-1.966-.247-2.826-.706l-.038-.022-.215.072-1.332.459c-.87.303-1.701-.54-1.385-1.406l.36-1.008.174-.506-.021-.037C.297 8.068.05 7.202.007 6.301L0 6c0-3.314 2.686-6 6-6zM3.495 5.3c-.44 0-.795.36-.795.805 0 .445.356.805.795.805.44 0 .795-.36.795-.805 0-.445-.355-.805-.795-.805zm2.652 0c-.44 0-.795.36-.795.805 0 .445.355.805.795.805.44 0 .795-.36.795-.805 0-.445-.356-.805-.795-.805zm2.653 0c-.441 0-.797.36-.797.805 0 .445.356.805.797.805.438 0 .794-.36.794-.805 0-.445-.356-.805-.794-.805z" transform="translate(-1037 -561) translate(912 525) translate(125 36) translate(1.5 1.7)"/>
                    </g>
                </g>
            </g>
        </g>
    </g>
</svg>
