<svg xmlns="http://www.w3.org/2000/svg" width="23" height="22" viewBox="0 0 23 22">
    <g fill="none" fill-rule="evenodd">
        <g fill="#7A7F34">
            <g>
                <g>
                    <path fill-rule="nonzero" d="M19.214 0c1.656 0 3 1.343 3 3v14.194c0 1.657-1.344 3-3 3H3c-1.657 0-3-1.343-3-3V3c0-1.657 1.343-3 3-3h16.214zm0 2H3c-.513 0-.936.386-.993.883L2 3v14.194c0 .513.386.936.883.993l.117.007h16.214c.512 0 .935-.386.993-.883l.007-.117V3c0-.513-.386-.936-.884-.993L19.214 2z" transform="translate(-1176 -520) translate(1176 520) translate(.5 1.01)"/>
                    <path stroke="#7A7F34" stroke-width=".3" d="M11.467 12.476c.403 0 .733.33.733.734v.733c0 .404-.33.733-.733.733h-.734c-.402 0-.733-.33-.733-.733v-.733c0-.403.331-.734.733-.734h.734zm0-7.486c.403 0 .733.225.733.5v5c0 .275-.33.5-.733.5h-.734c-.402 0-.733-.225-.733-.5v-5c0-.275.331-.5.733-.5h.734z" transform="translate(-1176 -520) translate(1176 520) translate(.5 1.01)"/>
                </g>
            </g>
        </g>
    </g>
</svg>
