<?xml version="1.0" encoding="UTF-8"?>
<svg width="100px" height="100px" viewBox="0 0 100 100" version="1.1" xmlns="http://www.w3.org/2000/svg" xmlns:xlink="http://www.w3.org/1999/xlink">
    <title>A5423880-A8AE-43E6-989D-D5A45886C9B8</title>
    <g id="가이드" stroke="none" stroke-width="1" fill="none" fill-rule="evenodd">
        <g id="GUIDE_AddSource_202105" transform="translate(-910.000000, -5694.000000)" fill="#444444">
            <g id="ic-addsource-display" transform="translate(910.000000, 5694.000000)">
                <g id="icon_path" transform="translate(10.500000, 10.500000)">
                    <path d="M28.597,-2.84217094e-14 L28.597,6.479 L11.1390977,6.47932331 L10.9283595,6.48419146 C8.4819994,6.59735745 6.47932331,8.6686569 6.47932331,11.1390977 L6.479,28.597 L0,28.597 L0,11.1390977 C0,5.01602111 5.01602111,-2.84217094e-14 11.1390977,-2.84217094e-14 L28.597,-2.84217094e-14 Z" id="Combined-Shape"></path>
                    <path d="M6.479,50.402 L6.47932331,67.8609023 L6.48419146,68.0716405 C6.59735745,70.5180006 8.6686569,72.5206767 11.1390977,72.5206767 L28.597,72.52 L28.597,78.999 L11.1390977,79 L10.8483751,78.9962242 C4.85804614,78.8404823 0,73.8867872 0,67.8609023 L0,50.402 L6.479,50.402 Z" id="Combined-Shape"></path>
                    <path d="M67.8609023,-2.84217094e-14 L68.1516249,0.00377576625 C74.1419539,0.159517691 79,5.1132128 79,11.1390977 L79,11.1390977 L78.999,28.597 L72.52,28.597 L72.5206767,11.1390977 L72.5158085,10.9283595 C72.4026426,8.4819994 70.3313431,6.47932331 67.8609023,6.47932331 L67.8609023,6.47932331 L50.402,6.479 L50.402,-2.84217094e-14 L67.8609023,-2.84217094e-14 Z" id="Combined-Shape"></path>
                    <path d="M78.999,50.402 L79,67.8609023 L78.9962242,68.1516249 C78.8404823,74.1419539 73.8867872,79 67.8609023,79 L50.402,78.999 L50.402,72.52 L67.8609023,72.5206767 L68.0716405,72.5158085 C70.5180006,72.4026426 72.5206767,70.3313431 72.5206767,67.8609023 L72.52,50.402 L78.999,50.402 Z" id="Combined-Shape"></path>
                </g>
            </g>
        </g>
    </g>
</svg>