<svg xmlns="http://www.w3.org/2000/svg" width="100" height="100" viewBox="0 0 100 100">
    <g fill="none" fill-rule="evenodd">
        <g fill="#444">
            <g>
                <path d="M85.054 79.178v2.651c0 .686-.562 1.251-1.25 1.251H71.984v-3.902h13.069zM14.94 73.253h70.113V25.747H14.94v47.506zm57.044-53.43v-3.898h11.818c.689 0 1.25.56 1.25 1.246v2.651H71.986zm-19.015.005H66.04v-3.903H52.97v3.903zm-19.014 0h13.068v-3.903H33.956v3.903zm-19.015-.006v-2.651c0-.686.567-1.246 1.256-1.246h11.818v3.897H14.94zm13.074 59.356v3.902H16.197c-.689 0-1.256-.565-1.256-1.25v-2.652h13.074zm5.946 3.902H47.03v-3.902H33.96v3.902zm19.01 0h13.068v-3.902H52.97v3.902zM16.196 10C12.228 10 9 13.217 9 17.17v64.66C9 85.782 12.228 89 16.197 89h67.606C87.772 89 91 85.783 91 81.83V17.17c0-3.953-3.228-7.17-7.197-7.17H16.197z" transform="translate(-1990.000000, -5694.000000) translate(1990.000000, 5694.000000)"/>
            </g>
        </g>
    </g>
</svg>
