<svg width="100" height="100" viewBox="0 0 100 100" fill="none" xmlns="http://www.w3.org/2000/svg">
<path fill-rule="evenodd" clip-rule="evenodd" d="M86.3984 17.2442C86.6867 28.7664 86.6474 42.2563 82.0523 54.7575C77.5812 66.9214 68.6766 78.4534 50.3566 85.9236C50.1454 86.0097 49.8546 86.0097 49.6434 85.9236C31.3234 78.4534 22.4188 66.9214 17.9477 54.7575C13.3526 42.2564 13.3133 28.7664 13.6016 17.2442C13.6141 16.7454 13.8504 16.246 14.3412 15.8615C14.8391 15.4714 15.4416 15.3282 16.0018 15.4399C24.7076 17.1752 38.2773 19.4465 50 19.4465C61.7227 19.4465 75.2924 17.1752 83.9982 15.4399C84.5584 15.3282 85.1609 15.4714 85.6588 15.8615C86.1496 16.246 86.386 16.7454 86.3984 17.2442ZM82.8253 9.55562C87.6095 8.60197 92.2745 12.2173 92.3966 17.0942C92.9731 40.1346 92.5112 75.2142 52.622 91.4794C50.9586 92.1577 49.0414 92.1577 47.378 91.4794C7.4888 75.2142 7.02693 40.1346 7.60345 17.0942C7.72548 12.2173 12.3905 8.60197 17.1747 9.55562C25.7968 11.2743 38.8915 13.4465 50 13.4465C61.1085 13.4465 74.2032 11.2743 82.8253 9.55562ZM32.1213 39.6213C33.7112 38.0315 36.2888 38.0315 37.8787 39.6213C39.0503 40.7929 40.9497 40.7929 42.1213 39.6213C43.2929 38.4498 43.2929 36.5503 42.1213 35.3787C38.1883 31.4457 31.8117 31.4457 27.8787 35.3787C26.7071 36.5503 26.7071 38.4498 27.8787 39.6213C29.0503 40.7929 30.9497 40.7929 32.1213 39.6213ZM67.8787 39.6213C66.2888 38.0315 63.7112 38.0315 62.1213 39.6213C60.9497 40.7929 59.0503 40.7929 57.8787 39.6213C56.7071 38.4498 56.7071 36.5503 57.8787 35.3787C61.8117 31.4457 68.1883 31.4457 72.1213 35.3787C73.2929 36.5503 73.2929 38.4498 72.1213 39.6213C70.9497 40.7929 69.0503 40.7929 67.8787 39.6213ZM62.5999 55.7C56.2999 64.1 43.6999 64.1 37.3999 55.7C36.4058 54.3745 34.5254 54.1059 33.1999 55.1C31.8745 56.0941 31.6058 57.9745 32.5999 59.3C41.2999 70.9 58.6999 70.9 67.3999 59.3C68.3941 57.9745 68.1254 56.0941 66.7999 55.1C65.4745 54.1059 63.5941 54.3745 62.5999 55.7Z" fill="#444444"/>
</svg>
