<?xml version="1.0" encoding="UTF-8"?>
<svg width="100px" height="100px" viewBox="0 0 100 100" version="1.1" xmlns="http://www.w3.org/2000/svg" xmlns:xlink="http://www.w3.org/1999/xlink">
    <title>2FB25140-A252-4C5E-8D43-C0C9A51BE4D8</title>
    <g id="가이드" stroke="none" stroke-width="1" fill="none" fill-rule="evenodd">
        <g id="GUIDE_AddSource_202105" transform="translate(-1630.000000, -5694.000000)" fill="#444444">
            <g id="ic-addsource-imageslide" transform="translate(1630.000000, 5694.000000)">
                <g id="icon_path" transform="translate(7.500000, 9.500000)">
                    <path d="M58.8590753,22.4529917 C58.8590753,25.5034613 56.4090747,27.9692117 53.3780896,27.9692117 C50.3525854,27.9692117 47.8971038,25.5034613 47.8971038,22.4529917 C47.8971038,19.4080382 50.3525854,16.9367716 53.3780896,16.9367716 C56.4090747,16.9367716 58.8590753,19.4080382 58.8590753,22.4529917" id="Fill-1"></path>
                    <path d="M80.1849974,8.78913927 L80.1849974,72.4764072 C80.1849974,73.9509652 78.9926651,75.1509381 77.5274961,75.1509381 L8.76620001,75.1509381 L8.76620001,80.5 L77.5274961,80.5 C81.9230032,80.5 85.5,76.9000814 85.5,72.4764072 L85.5,8.78913927 L80.1849974,8.78913927 Z" id="Fill-1"></path>
                    <path d="M69.8210467,0 L70.0424286,0.00407726976 C73.2013434,0.120616499 75.7338,2.72065765 75.7338,5.90433149 L75.7338,5.90433149 L75.7338,64.801013 L75.7297133,65.0222444 C75.6129045,68.1790371 73.0069099,70.7108607 69.8210467,70.7108607 L69.8210467,70.7108607 L5.91275328,70.7108607 L5.69144861,70.7067768 C2.53358871,70.5900489 0,67.9858428 0,64.801013 L0,64.801013 L0,5.90433149 L0.00408493473,5.68318554 C0.120842788,2.52768493 2.72573172,0 5.91275328,0 L5.91275328,0 L69.8210467,0 Z M70.321143,5.40433149 L5.41275328,5.40433149 L5.41275328,41.6781976 L15.6535088,32.6861948 L15.7957894,32.5695851 C16.8618281,31.7574728 18.4090966,31.8909019 19.3136795,32.9029463 L19.3136795,32.9029463 L47.0810499,63.8386864 L47.2005172,63.961894 C47.9823772,64.7047504 49.2280893,64.7350544 50.0489987,64.0052562 L50.0489987,64.0052562 L51.2452279,62.9338832 L51.3687133,62.8146906 C52.1132195,62.0343732 52.1430981,60.7865672 51.4105739,59.9666536 L51.4105739,59.9666536 L38.472,45.541 L45.0043292,39.8019941 L45.146592,39.6854 C46.2125066,38.8733966 47.759775,39.0068258 48.664358,40.0188701 L48.664358,40.0188701 L70.3098333,64.1601415 L70.321143,5.40433149 Z" id="Combined-Shape"></path>
                </g>
            </g>
        </g>
    </g>
</svg>