<?xml version="1.0" encoding="UTF-8"?>
<svg width="100px" height="100px" viewBox="0 0 100 100" version="1.1" xmlns="http://www.w3.org/2000/svg" xmlns:xlink="http://www.w3.org/1999/xlink">
    <title>1F9843F2-285E-48A5-B7C1-16F7582B06C9</title>
    <g id="가이드" stroke="none" stroke-width="1" fill="none" fill-rule="evenodd">
        <g id="GUIDE_AddSource_202105" transform="translate(-1270.000000, -5694.000000)" fill="#444444">
            <g id="ic-addsource-url" transform="translate(1270.000000, 5694.000000)">
                <g id="icon_path" transform="translate(7.250120, 7.249743)">
                    <path d="M42.2825396,6.89032677 L55.2124725,19.825846 C56.9158058,21.5291424 58.3272577,23.4549546 59.4176008,25.5452045 C61.4798767,29.4826949 62.369704,33.9432164 62.0137229,38.3957089 C61.8424855,40.5554589 61.3569502,42.7122556 60.5752218,44.8043177 C59.4019736,47.9348179 57.596822,50.7678025 55.2126729,53.1518999 L53.1476063,55.2169219 L52.7460915,55.6097897 C50.7180347,57.5469776 48.3845563,59.076299 45.827894,60.1708327 L45.5348802,60.2912575 L40.5998802,55.3512575 L40.9173431,55.2729392 C43.8442911,54.5075047 46.5331888,52.9882932 48.7260207,50.7955087 L50.7864771,48.7292286 C53.5783894,45.9373787 55.2821931,42.3414477 55.7250749,38.4793419 C56.0046716,36.0519879 55.771479,33.5930652 55.0352828,31.2712658 C54.2107182,28.6352818 52.7698598,26.2317568 50.783845,24.2519526 L37.8554882,11.3121408 C31.1068814,4.57000423 20.1256789,4.57000423 13.3778874,11.3113256 L11.3124063,13.3767618 L11.0531463,13.6420403 C4.57164656,20.4156665 4.65806656,31.199727 11.3124063,37.8539225 L15.7888802,42.3302575 L15.665742,42.9363522 C15.2066436,45.311649 15.0187244,47.731003 15.1032893,50.145996 L15.1198802,50.5212575 L6.88519585,42.281444 C-2.29523379,33.1012132 -2.29523379,18.1464787 6.88620691,8.95409408 L8.95127358,6.88320562 C18.1478445,-2.29645072 33.0972881,-2.29472568 42.2825396,6.89032677 Z" id="Combined-Shape"></path>
                    <path d="M39.9528802,25.2092575 L44.8898802,30.1462575 L44.5745027,30.226005 C41.6479857,30.9943964 38.9611681,32.512492 36.7737396,34.6998731 L36.7737396,34.6998731 L34.6981907,36.7695123 L34.4036539,37.0719181 C31.7904854,39.8207079 30.1960454,43.2963192 29.7688188,47.0219064 C29.4910777,49.4331504 29.7237035,51.8844927 30.4506098,54.223184 C31.2937948,56.8769532 32.7296457,59.2748044 34.7028063,61.2479223 L34.7028063,61.2479223 L47.6329396,74.1777754 L47.8981473,74.4374464 C54.6698638,80.929247 65.443157,80.844652 72.11014,74.1840559 L72.11014,74.1840559 L74.1722615,72.1102389 L74.4654356,71.8106194 C77.5492309,68.5832597 79.2412116,64.3582322 79.235079,59.8753964 L79.235079,59.8753964 L79.2306801,59.4565802 C79.130811,54.9974897 77.3398644,50.8112351 74.168898,47.6464707 L74.168898,47.6464707 L69.7028802,43.1762575 L69.827631,42.5643048 C70.2851504,40.1823916 70.4730612,37.7635302 70.3891218,35.3539115 L70.3891218,35.3539115 L70.3718802,34.9912575 L78.5977599,43.2205995 L78.9196646,43.5482695 C83.1639667,47.9517163 85.4944376,53.7273367 85.4998806,59.8723471 C85.4998806,66.175722 83.0554413,72.0818947 78.6030729,76.5341666 L78.6030729,76.5341666 L76.5367534,78.6063097 L76.5408802,78.6112575 L76.5378802,78.6162575 L76.5321396,78.6109216 L76.2432148,78.8949871 C67.0353509,87.795706 52.3016469,87.7010175 43.2113541,78.6109216 L43.2113541,78.6109216 L30.2755544,65.6695358 L29.8567889,65.2401284 C28.3437008,63.6490228 27.0772139,61.8761584 26.0691967,59.9536931 C24.0100418,56.0221648 23.1238379,51.5682982 23.4801708,47.111406 C23.6531123,44.9245862 24.1328453,42.7749254 24.9121595,40.6986546 C26.0892817,37.5578167 27.8911908,34.7212789 30.2704924,32.3366093 L30.2704924,32.3366093 L32.3391661,30.2738463 L32.7411782,29.882229 C34.7715802,27.951128 37.1053033,26.4253727 39.661195,25.3305 L39.661195,25.3305 L39.9528802,25.2092575 Z" id="Combined-Shape"></path>
                </g>
            </g>
        </g>
    </g>
</svg>