<?xml version="1.0" encoding="UTF-8"?>
<svg width="100px" height="100px" viewBox="0 0 100 100" version="1.1" xmlns="http://www.w3.org/2000/svg" xmlns:xlink="http://www.w3.org/1999/xlink">
    <title>C0F1E15A-E5E4-401A-9E4A-5B17A02BD05C</title>
    <g id="가이드" stroke="none" stroke-width="1" fill="none" fill-rule="evenodd">
        <g id="GUIDE_AddSource_202105" transform="translate(-670.000000, -5694.000000)" fill="#444444">
            <g id="ic-addsource-ndi" transform="translate(670.000000, 5694.000000)">
                <g id="icon_path" transform="translate(8.000000, 12.007000)">
                    <path d="M5.70382123,66.6464777 C8.85566785,66.6464777 11.4076425,69.1864334 11.4076425,72.3223943 C11.4076425,75.453742 8.85496549,77.993 5.70382123,77.993 C2.55267697,77.993 0,75.453742 0,72.3223943 C0,69.1864334 2.55197461,66.6464777 5.70382123,66.6464777 Z M5.542,22.511 L5.80916769,22.5169284 L6.44071603,22.5361505 C19.4789829,23.0124172 31.6539097,28.3808324 40.7423042,37.4313965 L40.7423042,37.4313965 L41.1722263,37.8643962 L41.603338,38.309112 C50.3101936,47.399788 55.4066904,59.41414 55.7177201,72.2252043 L55.7177201,72.2252043 L55.722,72.474 L48.067,72.474 L48.0643978,72.310429 L48.0448069,71.7201179 C47.6053762,60.7149244 43.0426067,50.5010335 35.3273257,42.8125502 L35.3273257,42.8125502 L34.9117716,42.4046867 L34.4914464,42.0028392 C26.742107,34.6909827 16.6169369,30.4288054 5.74714361,30.1311377 L5.74714361,30.1311377 L5.542,30.127 L5.542,22.511 Z M5.542,44.426 L6.03748728,44.4471202 L6.53299034,44.4763687 C13.6239539,44.9548495 20.2224296,47.9764259 25.1850393,52.9232144 L25.1850393,52.9232144 L25.5282671,53.2701091 L25.865196,53.622245 C30.5378868,58.5884282 33.344693,65.0699184 33.6959537,71.9930072 L33.6959537,71.9930072 L33.715,72.474 L26.06,72.474 L26.0420723,72.1122405 L26.0065583,71.6350066 C25.5722553,66.5569945 23.366419,61.8855683 19.7760024,58.3049743 L19.7760024,58.3049743 L19.4466953,57.9842687 L19.100916,57.6615245 C15.4958621,54.3686262 10.9055234,52.3854361 5.9565102,52.0674939 L5.9565102,52.0674939 L5.542,52.045 L5.542,44.426 Z M5.543,-6.39488462e-14 L6.30847835,0.0137825284 L7.18882462,0.0397203122 C16.5708975,0.37152296 25.6840863,2.46604879 34.1740731,6.1762911 C42.6030798,9.85939136 50.2573526,15.0711607 56.7269446,21.5138231 C58.2316095,23.0122249 59.6548583,24.5579208 60.9923268,26.1489469 C61.3996325,26.6388628 61.7993202,27.1314668 62.1839459,27.6180116 L62.1839459,27.6180116 L62.6472376,28.1920461 L63.3808731,29.1539864 C66.4182157,33.2173929 69.0315822,37.6135637 71.1915869,42.2732656 C71.9630592,43.9329453 72.5865371,45.3791476 73.1222935,46.7778517 C76.1708075,54.69946 77.8275577,63.1011259 78.0002063,71.5986378 L78.0002063,71.5986378 L77.973,72.474 L70.355,72.474 L70.3456756,71.7837571 L70.3233112,70.9365714 C70.0821602,63.597812 68.6113654,56.3542892 65.9763957,49.5027292 L65.9763957,49.5027292 L65.6280588,48.6198615 L65.2672515,47.7423745 C63.7991734,44.2433709 62.0334621,40.8767975 59.9899955,37.6821955 L59.9899955,37.6821955 L59.851,37.47 L59.869334,37.4583084 L59.6367616,37.1020915 L59.2618059,36.539554 C58.6414251,35.6169216 58.0421766,34.7669569 57.4401289,33.9599331 L57.4401289,33.9599331 L56.8632848,33.201263 L56.5386538,32.7829533 L55.3424322,31.2971691 C54.0631066,29.7694423 52.7205579,28.3030987 51.3130798,26.8960883 L51.3130798,26.8960883 L50.842428,26.4324019 L50.3547953,25.961473 C38.4368676,14.5676038 22.7207757,7.95476856 5.89324043,7.61932528 L5.89324043,7.61932528 L5.543,7.614 L5.543,-6.39488462e-14 Z" id="Combined-Shape"></path>
                </g>
            </g>
        </g>
    </g>
</svg>