<?xml version="1.0" encoding="UTF-8"?>
<svg width="100px" height="100px" viewBox="0 0 100 100" version="1.1" xmlns="http://www.w3.org/2000/svg" xmlns:xlink="http://www.w3.org/1999/xlink">
    <title>A4D34F59-733E-4898-932E-36AB383DFB9C</title>
    <g id="가이드" stroke="none" stroke-width="1" fill="none" fill-rule="evenodd">
        <g id="GUIDE_AddSource_202105" transform="translate(-1750.000000, -5694.000000)" fill="#444444">
            <g id="ic-addsource-color" transform="translate(1750.000000, 5694.000000)">
                <g id="icon_path" transform="translate(6.511628, 6.511628)">
                    <path d="M59.8604651,20.9767442 C59.8604651,17.5894146 57.1082598,14.8372093 53.7209302,14.8372093 C50.3336006,14.8372093 47.5813953,17.5894146 47.5813953,20.9767442 C47.5813953,24.3590331 50.3336006,27.1162791 53.7209302,27.1162791 C57.1082598,27.1162791 59.8604651,24.3590331 59.8604651,20.9767442" id="Fill-1"></path>
                    <path d="M16.2737611,33.4023224 C15.2199878,34.6580355 14.71579,36.2516314 14.8620073,37.8855715 C15.0031827,39.5195115 15.7746053,40.9971178 17.0300577,42.056153 C18.1796286,43.0193708 19.5812984,43.4883721 20.9728843,43.4883721 C22.7274925,43.4883721 24.4669748,42.7470474 25.6820914,41.2996993 C27.8602258,38.7025415 27.5173713,34.8244554 24.9257948,32.6458686 C22.3241343,30.4622389 18.4468535,30.8102076 16.2737611,33.4023224" id="Fill-3"></path>
                    <path d="M34.2790698,14.8372093 C30.8917402,14.8372093 28.1395349,17.5894146 28.1395349,20.9767442 C28.1395349,24.3640738 30.8917402,27.1162791 34.2790698,27.1162791 C37.6613587,27.1162791 40.4186047,24.3640738 40.4186047,20.9767442 C40.4186047,17.5894146 37.6613587,14.8372093 34.2790698,14.8372093" id="Fill-5"></path>
                    <path d="M66.4882348,43.4631673 C66.6697658,43.4782902 66.8512967,43.4883721 67.0328277,43.4883721 C68.4749905,43.4883721 69.8516004,42.9842766 70.9710414,42.0517 C72.2266307,40.9981405 72.9981373,39.5160999 73.1393281,37.8828306 C73.2805188,36.2495614 72.7813086,34.6566197 71.7274205,33.401422 C69.5540913,30.8103714 65.6713454,30.4625455 63.0744439,32.6452789 C60.482585,34.8179303 60.1396931,38.6994653 62.3180649,41.2955569 C63.371953,42.5507545 64.854456,43.3220206 66.4882348,43.4631673" id="Fill-10"></path>
                    <path d="M43.8740511,-2.20268248e-13 L44.5740405,0.00526349952 C67.6366218,0.352179059 86.9767442,17.8008166 86.9767442,38.3727242 C86.9767442,39.2599748 86.9367629,40.0177216 86.850274,40.7141611 L86.850274,40.7141611 L86.7904325,41.2061039 C85.7944264,48.8888389 82.0541097,55.4181271 76.2206378,59.6477796 C70.2095559,64.0087092 62.6529246,65.5459096 54.9495519,63.968091 L54.9495519,63.968091 L53.7873813,63.7293316 L53.5707438,63.6898077 C51.9856885,63.4411302 50.4878361,64.0949846 49.5770088,65.4483106 C48.6196547,66.8615859 48.6077598,68.5730761 49.5470013,69.9993315 L49.5470013,69.9993315 L50.7752077,71.8564562 L50.9544959,72.1370876 C52.8694892,75.2464503 52.8973471,79.0813584 51.0076495,82.231668 C49.2264938,85.2030391 46.1017621,86.9767442 42.6518289,86.9767442 C42.3157462,86.9767442 42.0203342,86.9642895 41.7357838,86.9358573 C32.5667459,86.0974734 22.6325584,82.4566193 15.029347,76.3758048 C5.44458888,68.71021 7.10542736e-15,57.7351009 7.10542736e-15,43.3825311 C7.10542736e-15,19.2969256 18.8853578,0.381600259 43.1375086,0.00570231262 L43.1375086,0.00570231262 L43.8740511,-2.20268248e-13 Z M43.8740511,5.65286828 C22.4520779,5.65286828 5.66365777,22.2279652 5.66365777,43.3825311 C5.66365777,55.4976972 10.0065117,65.1436751 18.5662216,72.0112859 C25.8453083,77.8528635 34.4075532,80.5928935 42.2524587,81.3054949 C43.8706879,81.4591999 45.3178686,80.7218811 46.149585,79.3264622 C46.9782673,77.9484999 46.9409267,76.3136137 46.049386,74.9711887 L46.049386,74.9711887 L44.8222772,73.1157237 L44.642988,72.8340009 C42.6697603,69.6211982 42.6928243,65.7435496 44.7070183,62.5526523 L44.7070183,62.5526523 L44.8843839,62.2810901 L45.0607312,62.0286972 C47.3335208,58.8761023 51.078466,57.4148314 54.9248772,58.1915668 L54.9248772,58.1915668 L56.082021,58.4249813 L56.5294941,58.5123654 C62.4920912,59.6193336 68.2975416,58.4018766 72.899349,55.0647085 C77.5520021,51.6963277 80.5111618,46.3676929 81.2336909,40.0811765 C81.2928666,39.5812994 81.3185185,39.0376452 81.3185185,38.3727242 C81.3185185,21.2040344 64.8402798,5.65286828 43.8740511,5.65286828 Z" id="Combined-Shape"></path>
                </g>
            </g>
        </g>
    </g>
</svg>