<?xml version="1.0" encoding="UTF-8"?>
<svg width="100px" height="100px" viewBox="0 0 100 100" version="1.1" xmlns="http://www.w3.org/2000/svg" xmlns:xlink="http://www.w3.org/1999/xlink">
    <title>7B4128E1-953F-4188-8ED0-DE228D41678E</title>
    <g id="Page-1" stroke="none" stroke-width="1" fill="none" fill-rule="evenodd">
        <g id="Add-Source_202201" transform="translate(-835.000000, -1619.000000)" fill="#444444" fill-rule="nonzero">
            <g id="Group-8" transform="translate(70.000000, 1264.000000)">
                <g id="preview" transform="translate(655.000000, 45.000000)">
                    <g id="img" transform="translate(20.000000, 290.000000)">
                        <g id="ic-addsource-camera" transform="translate(90.000000, 20.000000)">
                            <g id="icon_path" transform="translate(3.000000, 19.000000)">
                                <path d="M60.8117647,0 L13,0 C5.82029825,0 0,5.82029825 0,13 L0,49 C0,56.1797017 5.82029825,62 13,62 L60.8117647,62 L61.1186209,61.9964496 C68.1565729,61.8334283 73.8117647,56.0771346 73.8117647,49 L73.811,46.406 L82.9307009,52.9218161 C84.1180037,53.7700979 85.5407615,54.2261331 87,54.2261331 C90.8659932,54.2261331 94,51.0921264 94,47.2261331 L94,14.7738669 C94,13.3146284 93.5439647,11.8918706 92.6956617,10.7045379 L92.5427225,10.4984171 C90.2545307,7.52801876 86.0063953,6.88071973 82.9306711,9.07820519 L73.811,15.593 L73.8117647,13.0002723 C73.8117647,5.82029825 67.9914665,0 60.8117647,0 Z M13,6 L60.8117647,6 C64.677758,6 67.8117647,9.13400675 67.8117647,13 L67.8108236,23.367382 C67.8107233,24.4719515 68.7060725,25.3674633 69.810642,25.3675636 C70.2276209,25.3676014 70.6341846,25.237309 70.9734691,24.9949097 L86.4186375,13.9602222 L86.4186375,13.9602222 C86.8680426,13.6391397 87.4926048,13.7431589 87.813666,14.1925342 C87.9348521,14.3621531 88,14.5654042 88,14.7738669 L88,47.2261331 C88,47.7784179 87.5522847,48.2261331 87,48.2261331 C86.7915374,48.2261331 86.5882862,48.1609852 86.4186673,48.0397991 L70.9734691,37.0050903 C70.0747106,36.3629789 68.8255888,36.5710325 68.1834774,37.4697909 C67.9410781,37.8090754 67.8107857,38.215639 67.8108236,38.632618 L67.8117647,49.0002723 L67.8117647,49.0002723 C67.8117647,52.8659932 64.677758,56 60.8117647,56 L13,56 C9.13400675,56 6,52.8659932 6,49 L6,13 C6,9.13400675 9.13400675,6 13,6 Z" id="Combined-Shape"></path>
                            </g>
                        </g>
                    </g>
                </g>
            </g>
        </g>
    </g>
</svg>