<?xml version="1.0" encoding="UTF-8"?>
<svg width="100px" height="100px" viewBox="0 0 100 100" version="1.1" xmlns="http://www.w3.org/2000/svg" xmlns:xlink="http://www.w3.org/1999/xlink">
    <title>DEB044E5-84E5-4346-BB28-2689DA35827D</title>
    <g id="가이드" stroke="none" stroke-width="1" fill="none" fill-rule="evenodd">
        <g id="GUIDE_AddSource_202105" transform="translate(-1150.000000, -5694.000000)" fill="#444444" fill-rule="nonzero">
            <g id="ic-addsource-window" transform="translate(1150.000000, 5694.000000)">
                <g id="icon_path" transform="translate(9.000000, 9.000000)">
                    <path d="M70.2857143,0 C76.7553356,0 82,5.24466436 82,11.7142857 L82,70.2857143 C82,76.7553356 76.7553356,82 70.2857143,82 L11.7142857,82 C5.24466436,82 0,76.7553356 0,70.2857143 L0,11.7142857 C0,5.24466436 5.24466436,0 11.7142857,0 L70.2857143,0 Z M76.5,20.5 L5.5,20.5 L5.5,70.2857143 C5.5,73.6415016 8.15994974,76.3760244 11.4864681,76.4959016 L11.7142857,76.5 L70.2857143,76.5 C73.6415016,76.5 76.3760244,73.8400503 76.4959016,70.5135319 L76.5,70.2857143 L76.5,20.5 Z M68.8214286,5.85714286 C66.3953206,5.85714286 64.4285714,7.82389199 64.4285714,10.25 C64.4285714,12.676108 66.3953206,14.6428571 68.8214286,14.6428571 C71.2475366,14.6428571 73.2142857,12.676108 73.2142857,10.25 C73.2142857,7.82389199 71.2475366,5.85714286 68.8214286,5.85714286 Z" id="Combined-Shape"></path>
                </g>
            </g>
        </g>
    </g>
</svg>