<?xml version="1.0" encoding="UTF-8"?>
<svg width="100px" height="100px" viewBox="0 0 100 100" version="1.1" xmlns="http://www.w3.org/2000/svg" xmlns:xlink="http://www.w3.org/1999/xlink">
    <title>6A56894C-B65E-4EBB-B6B6-413984AD8825</title>
    <g id="가이드" stroke="none" stroke-width="1" fill="none" fill-rule="evenodd">
        <g id="GUIDE_AddSource_202105" transform="translate(-1870.000000, -5694.000000)" fill="#444444">
            <g id="ic-addsource-text" transform="translate(1870.000000, 5694.000000)">
                <path d="M23.1387549,11 C16.4457341,11 11,16.4458025 11,23.1389074 C11,24.8976723 12.4256105,26.3233007 14.1843533,26.3233007 C15.9430962,26.3233007 17.3687067,24.8976723 17.3687067,23.1389074 C17.3687067,19.9574535 19.957341,17.3687867 23.1387549,17.3687867 L46.8156467,17.3687867 L46.8156467,82.6312133 L32.0931565,82.6312133 C30.3344136,82.6312133 28.9088031,84.0578215 28.9088031,85.8156067 C28.9088031,87.5743716 30.3344136,89 32.0931565,89 L67.9078233,89 C69.6665662,89 71.0921767,87.5743716 71.0921767,85.8156067 C71.0921767,84.0578215 69.6665662,82.6312133 67.9078233,82.6312133 L53.1843533,82.6312133 L53.1843533,17.3687867 L76.8622249,17.3687867 C80.042659,17.3687867 82.6312933,19.9574535 82.6312933,23.1389074 C82.6312933,24.8976723 84.0569038,26.3233007 85.8156467,26.3233007 C87.5743895,26.3233007 89,24.8976723 89,23.1389074 C89,16.4458025 83.5552457,11 76.8622249,11 L23.1387549,11 Z" id="Fill-1"></path>
            </g>
        </g>
    </g>
</svg>