<?xml version="1.0" encoding="UTF-8"?>
<svg width="100px" height="100px" viewBox="0 0 100 100" version="1.1" xmlns="http://www.w3.org/2000/svg" xmlns:xlink="http://www.w3.org/1999/xlink">
    <title>EDC73017-ECEC-4E00-886D-4D207DA91F1C</title>
    <g id="가이드" stroke="none" stroke-width="1" fill="none" fill-rule="evenodd">
        <g id="GUIDE_AddSource_202105" transform="translate(-2230.000000, -5694.000000)" fill="#444444">
            <g id="ic-addsource-plugin" transform="translate(2230.000000, 5694.000000)">
                <g id="icon_path" transform="translate(7.000000, 5.000000)">
                    <path d="M36.2352941,0 C41.9530656,-1.05033759e-15 46.5882353,4.63516965 46.5882353,10.3529412 L46.588,15.529 L62.1176471,15.5294118 C67.8354186,15.5294118 72.4705882,20.1645814 72.4705882,25.8823529 L72.47,41.411 L77.6470588,41.4117647 C83.3648304,41.4117647 88,46.0469344 88,51.7647059 C88,57.4824774 83.3648304,62.1176471 77.6470588,62.1176471 L72.47,62.117 L72.4705882,77.6470588 C72.4705882,83.3648304 67.8354186,88 62.1176471,88 L46.588,88 L46.5882353,82.8235294 C46.5882353,77.1994918 42.1037927,72.622852 36.5156075,72.4743096 L36.2352941,72.4705882 C30.5175226,72.4705882 25.8823529,77.1057579 25.8823529,82.8235294 L25.8823529,82.8235294 L25.882,88 L10.3529412,88 C4.63516965,88 7.0022506e-16,83.3648304 0,77.6470588 L0,62.117 L5.17647059,62.1176471 C10.8005082,62.1176471 15.377148,57.6332045 15.5256904,52.0450193 L15.5294118,51.7647059 C15.5294118,46.0469344 10.8942421,41.4117647 5.17647059,41.4117647 L5.17647059,41.4117647 L0,41.411 L0,25.8823529 C2.85248862e-15,20.1645814 4.63516965,15.5294118 10.3529412,15.5294118 L25.882,15.529 L25.8823529,10.3529412 C25.8823529,4.63516965 30.5175226,1.05033759e-15 36.2352941,0 Z" id="Combined-Shape"></path>
                </g>
            </g>
        </g>
    </g>
</svg>