<?xml version="1.0" encoding="UTF-8"?>
<svg width="100px" height="100px" viewBox="0 0 100 100" version="1.1" xmlns="http://www.w3.org/2000/svg" xmlns:xlink="http://www.w3.org/1999/xlink">
    <title>717D6B72-A704-4E66-8906-F72619E7EF04</title>
    <g id="가이드" stroke="none" stroke-width="1" fill="none" fill-rule="evenodd">
        <g id="GUIDE_AddSource_202105" transform="translate(-550.000000, -5694.000000)" fill="#444444">
            <g id="ic-addsource-audio" transform="translate(550.000000, 5694.000000)">
                <g id="icon_path" transform="translate(8.000000, 12.000000)">
                    <path d="M39.8230953,0.248505707 C38.5961753,-0.257548102 37.211119,0.0254067158 36.2841128,0.950451312 L14.837552,22.3516301 L3.24452166,22.3516301 C1.45594501,22.3516301 0,23.8099357 0,25.5947276 L0,51.4089133 C0,53.1937052 1.45594501,54.6520108 3.24452166,54.6520108 L14.837552,54.6520108 L36.2841128,76.0531896 C36.8948463,76.6626308 37.70734,77 38.5798164,77 C39.0106016,77 39.4359339,76.912937 39.8230953,76.7551353 C41.0445622,76.2545229 41.829791,75.0791721 41.829791,73.7623439 L41.829791,3.24129705 C41.829791,1.92446886 41.0445622,0.749118076 39.8230953,0.248505707" id="Fill-1"></path>
                    <path d="M55.0139651,21.3294458 C55.7385622,21.2043099 56.4762935,21.3646638 57.0715186,21.7804397 C62.5551689,25.5896237 65.8279903,31.8410687 65.8279903,38.5056295 C65.8279903,45.1635275 62.5561579,51.4101941 57.0723209,55.2248186 C56.6092682,55.5482684 56.0710134,55.7175128 55.5038298,55.7175128 C54.602154,55.7175128 53.7585058,55.2790425 53.2478593,54.5445329 C52.8262921,53.9435608 52.6660639,53.2186496 52.7951329,52.4964728 C52.9245163,51.7725366 53.3246846,51.1489714 53.9300296,50.7293532 L53.9300296,50.7293532 L54.2278209,50.5166265 C58.0593335,47.7085395 60.333494,43.2492208 60.333494,38.5056295 C60.333494,33.6336985 57.9401453,29.062409 53.9296412,26.2761942 C52.6850183,25.4114018 52.3800575,23.7049597 53.2473683,22.4619896 C53.6613587,21.860696 54.2897008,21.4591668 55.0139651,21.3294458 Z" id="Combined-Shape"></path>
                    <path d="M51.5815587,3.66717634 C51.9424926,2.27485367 53.3314487,1.41684039 54.7680699,1.66719745 L54.7680699,1.66719745 L54.934,1.701 L55.4341981,1.83319811 C71.9853055,6.32694455 83.5,21.3328746 83.5,38.5061736 C83.5,55.8482814 71.7507516,70.9830853 54.9311144,75.3066556 C54.7098037,75.3607028 54.4770293,75.3888582 54.2485543,75.3888582 C52.9919241,75.3888582 51.8988739,74.5457115 51.5804178,73.3298494 C51.2033708,71.8707259 52.0921225,70.3735963 53.5606598,69.9957182 C67.9477819,66.3043168 77.9945977,53.356116 77.9945977,38.5061736 C77.9945977,23.6551207 67.9467065,10.7023131 53.560324,7.01110138 C52.8462566,6.82602023 52.2495876,6.37886281 51.882719,5.75192985 C51.5070349,5.11784354 51.4011177,4.38279618 51.5815587,3.66717634 Z" id="Combined-Shape"></path>
                </g>
            </g>
        </g>
    </g>
</svg>