<?xml version="1.0" encoding="UTF-8"?>
<svg width="100px" height="100px" viewBox="0 0 100 100" version="1.1" xmlns="http://www.w3.org/2000/svg" xmlns:xlink="http://www.w3.org/1999/xlink">
    <title>8ABB8191-546F-4F3A-AFA6-CBBCB3B894CA</title>
    <g id="가이드" stroke="none" stroke-width="1" fill="none" fill-rule="evenodd">
        <g id="GUIDE_AddSource_202105" transform="translate(-190.000000, -5694.000000)" fill="#444444" fill-rule="nonzero">
            <g id="ic-addsource-mobile" transform="translate(190.000000, 5694.000000)">
                <g id="icon_path" transform="translate(15.250000, 5.161111)">
                    <path d="M56.0833333,0 C63.4931537,0 69.5,6.00684627 69.5,13.4166667 L69.5,13.4166667 L69.5,76.1722222 C69.5,83.5820426 63.4931537,89.5888889 56.0833333,89.5888889 L56.0833333,89.5888889 L13.4166667,89.5888889 C6.00684627,89.5888889 0,83.5820426 0,76.1722222 L0,76.1722222 L0,13.4166667 C0,6.00684627 6.00684627,0 13.4166667,0 L13.4166667,0 Z M56.0833333,5.5 L50.75,5.5 L50.75,9.4 C50.75,10.8727593 49.5560927,12.0666667 48.0833333,12.0666667 L21.4166667,12.0666667 C19.9439073,12.0666667 18.75,10.8727593 18.75,9.4 L18.75,5.5 L13.4166667,5.5 C9.12690776,5.5 5.63404612,8.91192279 5.50376717,13.170083 L5.5,13.4166667 L5.5,76.1722222 C5.5,80.5444765 9.0444124,84.0888889 13.4166667,84.0888889 L13.4166667,84.0888889 L56.0833333,84.0888889 C60.4555876,84.0888889 64,80.5444765 64,76.1722222 L64,76.1722222 L64,13.4166667 C64,9.0444124 60.4555876,5.5 56.0833333,5.5 L56.0833333,5.5 Z" id="Combined-Shape"></path>
                </g>
            </g>
        </g>
    </g>
</svg>