<svg width="100" height="100" viewBox="0 0 100 100" xmlns="http://www.w3.org/2000/svg">
    <g fill="none" fill-rule="evenodd">
        <path d="M0 0h100v100H0z"/>
        <g fill="#444">
            <path d="M23 87c-8.284 0-15-6.716-15-15V27c0-8.284 6.716-15 15-15h50c8.284 0 15 6.716 15 15v5a3 3 0 0 1-6 0v-5a9 9 0 0 0-8.735-8.996L73 18H23a9 9 0 0 0-8.996 8.735L14 27v45a9 9 0 0 0 8.735 8.996L23 81h20a3 3 0 0 1 0 6H23z" fill-rule="nonzero"/>
            <path d="M66.361 42.145a1.89 1.89 0 0 0-2.065.41L51.783 55.063h-6.765a1.898 1.898 0 0 0-1.893 1.895v15.086c0 1.043.85 1.895 1.893 1.895h6.765l12.513 12.508c.357.356.83.553 1.34.553.251 0 .5-.05.725-.143a1.883 1.883 0 0 0 1.171-1.75V43.895c0-.77-.458-1.456-1.17-1.749"/>
            <path d="M76.053 71.407c-.417.29-.694.722-.783 1.221-.09.5.022 1.002.312 1.415a1.893 1.893 0 0 0 2.637.471 12.208 12.208 0 0 0 5.234-10.01c0-3.992-1.957-7.735-5.234-10.015a1.903 1.903 0 0 0-1.419-.311 1.87 1.87 0 0 0-1.218.782 1.892 1.892 0 0 0 .47 2.636 8.42 8.42 0 0 1 3.612 6.907 8.422 8.422 0 0 1-3.611 6.904" stroke="#444" stroke-width="1.6"/>
            <path d="M78.112 42.71c-1.022-.241-2.05.354-2.31 1.362a1.893 1.893 0 0 0 .207 1.437c.254.436.668.744 1.158.871 8.266 2.125 14.037 9.579 14.037 18.124 0 8.544-5.771 15.995-14.037 18.12a1.897 1.897 0 0 0-1.365 2.305 1.899 1.899 0 0 0 2.31 1.364A22.496 22.496 0 0 0 95 64.503a22.497 22.497 0 0 0-16.888-21.792" stroke="#444" stroke-width="1.6"/>
        </g>
    </g>
</svg>
