<?xml version="1.0" encoding="UTF-8"?>
<svg width="100px" height="100px" viewBox="0 0 100 100" version="1.1" xmlns="http://www.w3.org/2000/svg" xmlns:xlink="http://www.w3.org/1999/xlink">
    <title>FBBD917D-7830-4576-ACE6-2697E06D7615</title>
    <g id="가이드" stroke="none" stroke-width="1" fill="none" fill-rule="evenodd">
        <g id="GUIDE_AddSource_202105" transform="translate(-1390.000000, -5694.000000)" fill="#444444" fill-rule="nonzero">
            <g id="ic-addsource-media" transform="translate(1390.000000, 5694.000000)">
                <path d="M83.3857143,12 C87.4857143,12 91,15.4545455 91,19.4848485 L91,19.4848485 L91,80.5151515 C91,84.5454545 87.4857143,88 83.3857143,88 L83.3857143,88 L16.6142857,88 C12.5142857,88 9,84.5454545 9,80.5151515 L9,80.5151515 L9,19.4848485 C9,15.4545455 12.5142857,12 16.6142857,12 L16.6142857,12 Z M42.9571429,33.7957158 C41.0241462,33.7957158 39.4571429,35.3627192 39.4571429,37.2957158 L39.4571429,37.2957158 L39.4571429,62.6465439 C39.4571429,63.3648297 39.6781392,64.0657231 40.0901395,64.6541025 C41.1988834,66.2375047 43.3812992,66.6222913 44.9647014,65.5135473 L44.9647014,65.5135473 L63.066517,52.8381333 C63.4009298,52.6039677 63.6917963,52.3131013 63.9259618,51.9786884 C65.0347058,50.3952862 64.6499192,48.2128704 63.066517,47.1041265 L63.066517,47.1041265 L44.9647014,34.4287124 C44.3763221,34.0167122 43.6754287,33.7957158 42.9571429,33.7957158 Z" id="Combined-Shape"></path>
            </g>
        </g>
    </g>
</svg>