<?xml version="1.0" encoding="UTF-8"?>
<svg width="30px" height="30px" viewBox="0 0 30 30" version="1.1" xmlns="http://www.w3.org/2000/svg" xmlns:xlink="http://www.w3.org/1999/xlink">
    <title>2D5D8FC3-A340-4ED1-9F07-76AF26FF55D7</title>
    <g id="Page-1" stroke="none" stroke-width="1" fill="none" fill-rule="evenodd">
        <g id="Add-Source_202201" transform="translate(-1125.000000, -1362.000000)">
            <g id="Group-9" transform="translate(1100.000000, 1264.000000)">
                <g id="sources_OBS" transform="translate(5.000000, 45.000000)">
                    <g id="source_list" transform="translate(12.000000, 48.000000)">
                        <g id="icon-source-camera-normal" transform="translate(8.000000, 5.000000)">
                            <rect id="area" x="0" y="0" width="30" height="30"></rect>
                            <g id="icon_path" transform="translate(7.000000, 9.000000)" fill="#FFFFFF" fill-rule="nonzero">
                                <path d="M11.4917647,0 L2.7,0 C1.20883118,0 0,1.20883118 0,2.7 L0,9.3 C0,10.7911688 1.20883118,12 2.7,12 L11.4917647,12 L11.662517,11.9946881 C13.0741323,11.9065953 14.1917647,10.7338162 14.1917647,9.3 L14.191,9.175 L15.6260013,10.204039 C15.8808267,10.3867285 16.1864729,10.4849711 16.5,10.4849711 C17.3284271,10.4849711 18,9.81339826 18,8.98497114 L18,3.01502886 C18,2.70150179 17.9017573,2.39585552 17.7190791,2.14104598 L17.6293281,2.02764137 C17.127058,1.45179494 16.2596913,1.34165569 15.6260171,1.79594974 L14.191,2.824 L14.1917646,2.70035998 C14.1917647,1.20883118 12.9829335,0 11.4917647,0 Z M2.7,1.4 L11.4917647,1.4 C12.2097349,1.4 12.7917647,1.98202983 12.7917647,2.7 L12.7907998,4.5762467 C12.7906577,4.85238904 13.0144002,5.07636176 13.2905426,5.07650378 C13.3950998,5.07655755 13.4970432,5.04383224 13.582033,4.98293115 L16.4416024,2.93385155 L16.4416024,2.93385155 C16.4866197,2.90157776 16.5490928,2.91187808 16.5812719,2.95676334 C16.5934505,2.97375064 16.6,2.99412706 16.6,3.01502886 L16.6,8.98497114 C16.6,9.04019961 16.5552285,9.08497114 16.5,9.08497114 C16.4790982,9.08497114 16.4587218,9.07842163 16.4417345,9.06624308 L13.5821386,7.01602 C13.3577168,6.85511797 13.0453501,6.90661093 12.8844481,7.13103274 C12.8234991,7.21604273 12.790746,7.31802708 12.7907998,7.42262859 L12.7917648,9.30035974 L12.7917648,9.30035974 C12.7917647,10.0179702 12.2097349,10.6 11.4917647,10.6 L2.7,10.6 C1.98202983,10.6 1.4,10.0179702 1.4,9.3 L1.4,2.7 C1.4,1.98202983 1.98202983,1.4 2.7,1.4 Z" id="Combined-Shape"></path>
                            </g>
                        </g>
                    </g>
                </g>
            </g>
        </g>
    </g>
</svg>