<svg width="30" height="30" viewBox="0 0 30 30" fill="none" xmlns="http://www.w3.org/2000/svg">
<path fill-rule="evenodd" clip-rule="evenodd" d="M21.2227 15.8825C22.1273 13.4217 22.1374 10.7584 22.0797 8.45387C22.0789 8.41876 22.0636 8.373 22.0084 8.32975C21.9516 8.2852 21.8897 8.27398 21.8387 8.28414C20.0948 8.63176 17.365 9.08932 15 9.08932C12.635 9.08932 9.90521 8.63176 8.16126 8.28414C8.11028 8.27398 8.04844 8.2852 7.99158 8.32975C7.93639 8.373 7.92113 8.41876 7.92025 8.45387C7.86259 10.7584 7.87272 13.4217 8.77726 15.8825C9.65249 18.2636 11.3929 20.5256 14.9996 21.9976C18.6062 20.5256 20.3475 18.2636 21.2227 15.8825ZM23.4793 8.41885C23.4549 7.44349 22.5219 6.72042 21.5651 6.91115C19.8406 7.25488 17.2217 7.68932 15 7.68932C12.7783 7.68932 10.1594 7.25488 8.43494 6.91115C7.47809 6.72042 6.5451 7.44349 6.52069 8.41886C6.40539 13.0269 6.49776 20.0429 14.4756 23.2959C14.8083 23.4316 15.1917 23.4316 15.5244 23.2959C23.5022 20.0429 23.5946 13.0269 23.4793 8.41885Z" fill="white"/>
<path fill-rule="evenodd" clip-rule="evenodd" d="M12.5757 12.9243C12.2578 12.6063 11.7422 12.6063 11.4243 12.9243C11.1899 13.1586 10.8101 13.1586 10.5757 12.9243C10.3414 12.69 10.3414 12.3101 10.5757 12.0758C11.3623 11.2892 12.6377 11.2892 13.4243 12.0758C13.6586 12.3101 13.6586 12.69 13.4243 12.9243C13.1899 13.1586 12.8101 13.1586 12.5757 12.9243Z" fill="white"/>
<path fill-rule="evenodd" clip-rule="evenodd" d="M18.5757 12.9243C18.2578 12.6063 17.7422 12.6063 17.4243 12.9243C17.1899 13.1586 16.8101 13.1586 16.5757 12.9243C16.3414 12.69 16.3414 12.3101 16.5757 12.0758C17.3623 11.2892 18.6377 11.2892 19.4243 12.0758C19.6586 12.3101 19.6586 12.69 19.4243 12.9243C19.1899 13.1586 18.8101 13.1586 18.5757 12.9243Z" fill="white"/>
<path fill-rule="evenodd" clip-rule="evenodd" d="M12.48 16.14C13.74 17.82 16.26 17.82 17.52 16.14C17.7188 15.8749 18.0949 15.8212 18.36 16.02C18.6251 16.2188 18.6788 16.5949 18.48 16.86C16.74 19.18 13.26 19.18 11.52 16.86C11.3212 16.5949 11.3749 16.2188 11.64 16.02C11.9051 15.8212 12.2812 15.8749 12.48 16.14Z" fill="white"/>
</svg>
