<svg xmlns="http://www.w3.org/2000/svg" xmlns:xlink="http://www.w3.org/1999/xlink" width="30" height="30" viewBox="0 0 30 30">
    <defs>
        <path id="j1npe8pqha" d="M0 0L15 0 15 15 0 15z"/>
    </defs>
    <g fill="none" fill-rule="evenodd">
        <g>
            <g>
                <g>
                    <g transform="translate(-590.000000, -5906.000000) translate(70.000000, 5906.000000) translate(520.000000, 0.000000) translate(8.000000, 8.000066)">
                        <mask id="jut2w6iqfb" fill="#fff">
                            <use xlink:href="#j1npe8pqha"/>
                        </mask>
                        <path fill="#FFF" stroke="#FFF" stroke-width=".3" d="M12.07 1H3.04C1.915 1 1 1.915 1 3.04c0 .296.24.535.535.535.296 0 .535-.24.535-.535 0-.534.436-.97.97-.97h3.98v10.97H4.545c-.295 0-.535.24-.535.535 0 .296.24.535.535.535h6.02c.296 0 .535-.24.535-.535 0-.295-.24-.535-.535-.535H8.09V2.07h3.98c.535 0 .97.436.97.97 0 .296.24.535.535.535.296 0 .535-.24.535-.535 0-1.125-.915-2.04-2.04-2.04" mask="url(#jut2w6iqfb)"/>
                    </g>
                </g>
            </g>
        </g>
    </g>
</svg>
