<svg xmlns="http://www.w3.org/2000/svg" xmlns:xlink="http://www.w3.org/1999/xlink" width="30" height="30" viewBox="0 0 30 30">
    <defs>
        <path id="nguop7ibna" d="M0 0L16.2 0 16.2 16.213 0 16.213z"/>
    </defs>
    <g fill="none" fill-rule="evenodd">
        <g>
            <g>
                <g>
                    <g>
                        <path fill="#FFF" d="M11.238 4.03c0-.671-.546-1.217-1.218-1.217-.672 0-1.218.546-1.218 1.218 0 .67.546 1.218 1.218 1.218.672 0 1.218-.547 1.218-1.218M2.95 6.11c-.21.249-.31.565-.28.889.028.324.18.617.43.827.228.191.506.284.782.284.348 0 .693-.147.934-.434.432-.515.364-1.284-.15-1.716-.516-.433-1.285-.364-1.716.15M6.322 2.813c-.672 0-1.218.546-1.218 1.218 0 .672.546 1.218 1.218 1.218.67 0 1.218-.546 1.218-1.218 0-.672-.547-1.218-1.218-1.218" transform="translate(-550.000000, -5906.000000) translate(70.000000, 5906.000000) translate(480.000000, 0.000000) translate(7.000000, 7.000400)"/>
                        <g transform="translate(-550.000000, -5906.000000) translate(70.000000, 5906.000000) translate(480.000000, 0.000000) translate(7.000000, 7.000400)">
                            <mask id="zrmx6zwpvb" fill="#fff">
                                <use xlink:href="#nguop7ibna"/>
                            </mask>
                            <path fill="#FFF" d="M8.279 11.516c-.436.646-.44 1.45-.012 2.1l.226.343c.144.217.15.479.016.702-.134.225-.365.344-.628.319-.748-.068-2.664-.37-4.31-1.692-1.553-1.247-2.34-2.997-2.34-5.201 0-3.845 3.048-6.857 6.94-6.857 4.067 0 6.799 3.068 6.799 5.934 0 .112-.004.21-.015.304-.13 1.132-.661 2.09-1.496 2.695-.846.614-1.92.829-3.022.603l-.213-.043c-.762-.154-1.508.147-1.945.793M8.17 0C3.59 0 0 3.552 0 8.087c0 5.846 4.883 7.854 7.768 8.118.06.006.119.008.178.008.668 0 1.274-.344 1.619-.92.377-.63.36-1.4-.045-2.012l-.226-.342c-.152-.231-.15-.505.005-.734.154-.23.409-.333.678-.277l.214.044c1.444.296 2.862.007 3.99-.812 1.119-.812 1.827-2.074 1.995-3.553.017-.137.024-.282.024-.443C16.2 3.28 12.523 0 8.17 0" mask="url(#zrmx6zwpvb)"/>
                        </g>
                        <path fill="#FFF" d="M12.354 8.106c.036.003.072.005.107.005.287 0 .56-.1.781-.285.25-.209.402-.503.43-.827.028-.324-.07-.64-.28-.889-.43-.514-1.2-.583-1.715-.15-.514.431-.582 1.201-.15 1.716.209.25.503.402.827.43" transform="translate(-550.000000, -5906.000000) translate(70.000000, 5906.000000) translate(480.000000, 0.000000) translate(7.000000, 7.000400)"/>
                    </g>
                </g>
            </g>
        </g>
    </g>
</svg>
