<svg width="90" height="90" viewBox="0 0 90 90" fill="none" xmlns="http://www.w3.org/2000/svg">
<path fill-rule="evenodd" clip-rule="evenodd" d="M18.0584 51.7844C8.76383 42.4888 8.76383 27.3681 18.0584 18.0755C22.5625 13.5693 28.5517 11.0915 34.9187 11.0915C41.2857 11.0915 47.2764 13.5693 51.7805 18.0755C61.0736 27.365 61.0736 42.4872 51.7805 51.7844C47.2764 56.2845 41.2857 58.7653 34.9157 58.7653C28.5472 58.7653 22.5625 56.2845 18.0584 51.7844ZM85 80.6918L58.1323 53.8281C67.7102 42.0822 67.0293 24.7061 56.0881 13.7688C50.431 8.11429 42.9155 5 34.9187 5C26.9219 5 19.4064 8.11429 13.7508 13.7688C2.08307 25.434 2.08307 44.4198 13.7508 56.0911C19.4034 61.7426 26.9204 64.8568 34.9157 64.8568C41.8904 64.8568 48.495 62.4857 53.8231 58.1348L80.6939 85L85 80.6918Z" fill="#666666"/>
</svg>
