<svg width="30" height="30" viewBox="0 0 30 30" fill="none" xmlns="http://www.w3.org/2000/svg">
<path fill-rule="evenodd" clip-rule="evenodd" d="M23.5711 14.2324C23.2669 13.9329 22.7735 13.9329 22.4683 14.2324L21.8931 14.7988C21.7059 11.2401 18.7156 8.40039 15.0554 8.40039C11.2753 8.40039 8.19922 11.4282 8.19922 15.1511C8.19922 18.873 11.2753 21.9009 15.0554 21.9009C15.4864 21.9009 15.8344 21.5572 15.8344 21.1329C15.8344 20.7086 15.4864 20.3658 15.0554 20.3658C12.1353 20.3658 9.75922 18.0263 9.75922 15.1511C9.75922 12.275 12.1353 9.93543 15.0554 9.93543C17.8429 9.93543 20.1283 12.0676 20.3321 14.7614L19.7949 14.2324C19.4897 13.9329 18.9964 13.9329 18.6912 14.2324C18.387 14.5319 18.387 15.0186 18.6912 15.3191L20.5798 17.1777C20.7319 17.3284 20.9317 17.4033 21.1316 17.4033C21.3305 17.4033 21.5304 17.3284 21.6825 17.1777L23.5711 15.3191C23.8753 15.0186 23.8753 14.5319 23.5711 14.2324Z" fill="white"/>
</svg>
