<svg width="22" height="22" viewBox="0 0 22 22" fill="none" xmlns="http://www.w3.org/2000/svg">
<path fill-rule="evenodd" clip-rule="evenodd" d="M1 4C1 2.34315 2.34315 1 4 1H18C19.4497 1 20.6593 2.02835 20.9391 3.3954C20.979 3.59069 21 3.79289 21 4V6V8.99211L21 8.9999C21 9.33127 20.7314 9.5999 20.4 9.5999C20.0687 9.5999 19.8001 9.33133 19.8 9H19.8V6H2.2V17C2.2 17.9941 3.00589 18.8 4 18.8H9V18.8H9.00002C9.3314 18.8 9.60002 19.0687 9.60002 19.4C9.60002 19.7314 9.3314 20 9.00002 20L8.99223 20H4C2.34315 20 1 18.6569 1 17V6V4ZM4 4.5C4.55228 4.5 5 4.05228 5 3.5C5 2.94772 4.55228 2.5 4 2.5C3.44772 2.5 3 2.94772 3 3.5C3 4.05228 3.44772 4.5 4 4.5ZM8 3.5C8 4.05228 7.55228 4.5 7 4.5C6.44772 4.5 6 4.05228 6 3.5C6 2.94772 6.44772 2.5 7 2.5C7.55228 2.5 8 2.94772 8 3.5ZM10.544 13.5C11.2525 11.9564 12.5967 10.7653 14.2414 10.2618C14.1244 10.4465 14.0124 10.6513 13.907 10.8761C13.5965 11.5386 13.3312 12.4015 13.1692 13.5H10.544ZM10.189 14.5H13.057C13.02 14.9646 13 15.464 13 16C13 16.536 13.02 17.0354 13.057 17.5H10.189C10.0656 17.0206 10 16.518 10 16C10 15.482 10.0656 14.9794 10.189 14.5ZM14 16C14 16.5431 14.0215 17.0422 14.0603 17.5H17.9397C17.9785 17.0422 18 16.5431 18 16C18 15.4569 17.9785 14.9578 17.9397 14.5H14.0603C14.0215 14.9578 14 15.4569 14 16ZM10.544 18.5H13.1692C13.3312 19.5985 13.5965 20.4614 13.907 21.1239C14.0124 21.3487 14.1244 21.5535 14.2414 21.7382C12.5967 21.2347 11.2525 20.0436 10.544 18.5ZM21.456 18.5C20.7475 20.0436 19.4033 21.2347 17.7586 21.7382C17.8756 21.5535 17.9876 21.3487 18.093 21.1239C18.4035 20.4614 18.6688 19.5985 18.8308 18.5H21.456ZM16 22C16.3932 22 17.4049 21.0921 17.8191 18.5H14.1809C14.5951 21.0921 15.6068 22 16 22ZM21.811 17.5H18.943C18.98 17.0354 19 16.536 19 16C19 15.464 18.98 14.9646 18.943 14.5H21.811C21.9344 14.9794 22 15.482 22 16C22 16.518 21.9344 17.0206 21.811 17.5ZM21.456 13.5H18.8308C18.6688 12.4015 18.4035 11.5386 18.093 10.8761C17.9876 10.6513 17.8756 10.4465 17.7586 10.2618C19.4033 10.7653 20.7475 11.9564 21.456 13.5ZM16 10C15.6068 10 14.5951 10.9079 14.1809 13.5H17.8191C17.4049 10.9079 16.3932 10 16 10Z" fill="#F1FA75"/>
</svg>
