<svg width="10" height="10" viewBox="0 0 10 10" fill="none" xmlns="http://www.w3.org/2000/svg">
<path d="M6.10449 0.997559C6.35078 0.724416 6.77237 0.702822 7.0459 0.94873C7.3194 1.19498 7.34176 1.61649 7.0957 1.89014L4.29688 4.99951L7.0957 8.10889C7.34192 8.38246 7.31929 8.80395 7.0459 9.05029C6.77231 9.29653 6.35083 9.27491 6.10449 9.00146L2.9043 5.4458C2.89553 5.43605 2.88894 5.42466 2.88086 5.41455C2.86911 5.39988 2.858 5.38505 2.84766 5.36963C2.83358 5.34863 2.82098 5.32726 2.80957 5.30518C2.80061 5.28785 2.79251 5.27035 2.78516 5.25244C2.77618 5.23053 2.76825 5.20857 2.76172 5.18604C2.75579 5.1657 2.75103 5.14525 2.74707 5.12451C2.74339 5.10501 2.74021 5.08561 2.73828 5.06592C2.73606 5.0438 2.73537 5.02174 2.73535 4.99951C2.7354 4.97729 2.73603 4.95522 2.73828 4.93311C2.7402 4.91374 2.74345 4.89467 2.74707 4.87549C2.75128 4.85344 2.75626 4.83165 2.7627 4.81006C2.76895 4.78896 2.77578 4.7681 2.78418 4.74756C2.79168 4.72926 2.80039 4.71153 2.80957 4.69385C2.82121 4.6714 2.83424 4.64974 2.84863 4.62842C2.85826 4.61417 2.86807 4.60004 2.87891 4.58643C2.88745 4.57567 2.89498 4.56358 2.9043 4.55322L6.10449 0.997559Z" fill="#1E1E1E"/>
</svg>
