<svg width="12" height="12" viewBox="0 0 12 12" fill="none" xmlns="http://www.w3.org/2000/svg">
<path fill-rule="evenodd" clip-rule="evenodd" d="M3 0C1.34315 0 0 1.34315 0 3V9C0 10.6569 1.34315 12 3 12H9C10.6569 12 12 10.6569 12 9V3C12 1.34315 10.6569 0 9 0H3ZM4.28517 4.81943H5.82007L3.17643 7.46307C2.80079 7.83872 2.80079 8.44776 3.17643 8.82341C3.55208 9.19905 4.16113 9.19905 4.53677 8.82341L7.18041 6.17977V7.71467C7.18041 8.24591 7.61107 8.67657 8.14232 8.67657C8.67356 8.67657 9.10422 8.24591 9.10422 7.71467V3.85752C9.10422 3.32628 8.67356 2.89562 8.14232 2.89562L4.28517 2.89562C3.75393 2.89562 3.32327 3.32628 3.32327 3.85752C3.32327 4.38877 3.75393 4.81943 4.28517 4.81943Z" fill="white"/>
</svg>
