<svg xmlns="http://www.w3.org/2000/svg" width="24" height="24" viewBox="0 0 24 24">
    <g fill-rule="evenodd">
        <path d="M13.18 21.91c0 .49-.408.89-.912.89h-.686c-.504 0-.911-.4-.911-.89v-3.366c0-.492.407-.89.91-.89h.687c.504 0 .912.398.912.89v3.365z" opacity=".6"/>
        <path d="M13.18 5.723c0 .492-.408.89-.912.89h-.686c-.504 0-.911-.398-.911-.89V2.358c0-.491.407-.89.91-.89h.687c.504 0 .912.399.912.89v3.365zM1.912 13.359c-.504 0-.912-.4-.912-.89v-.671c0-.491.408-.89.912-.89h3.447c.503 0 .912.399.912.89v.671c0 .49-.409.89-.912.89H1.912z"/>
        <path d="M18.49 13.359c-.503 0-.91-.4-.91-.89v-.671c0-.491.407-.89.91-.89h3.448c.504 0 .912.399.912.89v.671c0 .49-.408.89-.912.89h-3.447z" opacity=".1"/>
        <path d="M5.732 19.913c-.356.347-.933.347-1.289 0l-.486-.474c-.355-.348-.355-.911 0-1.259l2.438-2.38c.356-.348.933-.348 1.29 0l.485.474c.356.348.356.91 0 1.259l-2.438 2.38z" opacity=".8"/>
        <path d="M17.455 8.467c-.356.348-.932.348-1.289 0l-.485-.473c-.356-.349-.356-.912 0-1.26l2.437-2.379c.356-.347.933-.347 1.29 0l.485.473c.356.348.356.911 0 1.26l-2.438 2.379zM3.957 6.088c-.356-.349-.356-.912 0-1.26l.486-.474c.356-.346.933-.346 1.289 0l2.438 2.38c.356.348.356.911 0 1.259l-.486.474c-.356.348-.933.348-1.29 0l-2.437-2.38z"/>
        <path d="M15.68 17.533c-.355-.348-.355-.911 0-1.259l.486-.473c.357-.349.933-.349 1.29 0l2.437 2.378c.356.349.356.912 0 1.26l-.486.474c-.356.347-.933.347-1.289 0l-2.437-2.38z" opacity=".4"/>
    </g>
</svg>
