<svg width="22" height="22" viewBox="0 0 22 22" fill="none" xmlns="http://www.w3.org/2000/svg">
<path d="M4.98229 0.50615C5.03057 0.26977 5.23898 0.0999756 5.48036 0.0999756C5.72173 0.0999756 5.92981 0.26977 5.97842 0.50615L6.11326 1.16435C6.22945 1.73 6.66958 2.17046 7.23523 2.28632L7.89376 2.42149C8.13014 2.46977 8.29994 2.67818 8.29994 2.91956C8.29994 3.16093 8.13014 3.36901 7.89376 3.41762L7.23523 3.55245C6.66958 3.66831 6.22945 4.10878 6.11326 4.67443L5.97842 5.33263C5.92981 5.56934 5.72173 5.73914 5.48036 5.73914C5.23898 5.73914 5.03057 5.56934 4.98229 5.33263L4.84746 4.67443C4.73126 4.10878 4.29113 3.66831 3.72548 3.55245L3.06695 3.41762C2.83057 3.36901 2.66078 3.16093 2.66078 2.91956C2.66078 2.67785 2.83057 2.46977 3.06695 2.42149L3.72548 2.28632C4.29113 2.17046 4.73126 1.73 4.84746 1.16435L4.98229 0.50615Z" fill="#444444"/>
<path d="M0.999887 11.8V15C0.999887 18.3137 3.68618 21 6.99989 21H14.9999C18.3136 21 20.9999 18.3137 20.9999 15V7C20.9999 3.68629 18.3136 1 14.9999 1H10.7999C10.3581 1 9.99989 1.35817 9.99989 1.8C9.99989 2.24183 10.3581 2.6 10.7999 2.6H14.9999C17.4299 2.6 19.3999 4.56995 19.3999 7V15C19.3999 17.4301 17.4299 19.4 14.9999 19.4H6.99989C4.56983 19.4 2.59989 17.4301 2.59989 15V11.8C2.59989 11.3582 2.24172 11 1.79989 11C1.35806 11 0.999887 11.3582 0.999887 11.8Z" fill="#444444"/>
<path d="M1.9255 5.19995C1.76749 5.19995 1.63155 5.31094 1.59972 5.46551L1.51168 5.89597C1.43568 6.26563 1.14775 6.55356 0.778091 6.62927L0.347633 6.71788C0.192772 6.74943 0.0817871 6.88536 0.0817871 7.04338C0.0817871 7.2014 0.192772 7.33733 0.347633 7.36916L0.778091 7.4572C1.14775 7.53291 1.43568 7.82084 1.51168 8.19079L1.59972 8.62125C1.63155 8.77582 1.76749 8.88681 1.9255 8.88681C2.08323 8.88681 2.21945 8.77582 2.251 8.62125L2.33933 8.19079C2.41532 7.82084 2.70297 7.53291 3.07291 7.4572L3.50308 7.36916C3.65795 7.33733 3.76893 7.20111 3.76893 7.04338C3.76893 6.88536 3.65795 6.74943 3.50308 6.71788L3.07291 6.62927C2.70297 6.55356 2.41532 6.26563 2.33933 5.89597L2.251 5.46551C2.21945 5.31094 2.08323 5.19995 1.9255 5.19995Z" fill="#444444"/>
<path fill-rule="evenodd" clip-rule="evenodd" d="M10.9999 14C12.6567 14 13.9999 12.6569 13.9999 11C13.9999 9.34315 12.6567 8 10.9999 8C9.34303 8 7.99989 9.34315 7.99989 11C7.99989 12.6569 9.34303 14 10.9999 14ZM10.9999 13C12.1045 13 12.9999 12.1046 12.9999 11C12.9999 9.89543 12.1045 9 10.9999 9C9.89532 9 8.99989 9.89543 8.99989 11C8.99989 12.1046 9.89532 13 10.9999 13Z" fill="#444444"/>
<path fill-rule="evenodd" clip-rule="evenodd" d="M15.9999 11C15.9999 13.7614 13.7613 16 10.9999 16C8.23846 16 5.99989 13.7614 5.99989 11C5.99989 8.23858 8.23846 6 10.9999 6C13.7613 6 15.9999 8.23858 15.9999 11ZM14.9999 11C14.9999 13.2091 13.209 15 10.9999 15C8.79075 15 6.99989 13.2091 6.99989 11C6.99989 8.79086 8.79075 7 10.9999 7C13.209 7 14.9999 8.79086 14.9999 11Z" fill="#444444"/>
</svg>
