<svg width="22" height="22" viewBox="0 0 22 22" fill="none" xmlns="http://www.w3.org/2000/svg">
<path fill-rule="evenodd" clip-rule="evenodd" d="M13 1.6H4C2.67452 1.6 1.6 2.67452 1.6 4V13C1.6 14.3255 2.67452 15.4 4 15.4H5V11.6V10V9C5 6.79086 6.79086 5 9 5H15.4V4C15.4 2.67452 14.3255 1.6 13 1.6ZM17 5H18C20.2091 5 22 6.79086 22 9V10V11.6V18C22 20.2091 20.2091 22 18 22H17H15.4H9C6.79086 22 5 20.2091 5 18V17H4C1.79086 17 0 15.2091 0 13V4C0 1.79086 1.79086 0 4 0H13C15.2091 0 17 1.79086 17 4V5ZM9 6.6H18C19.3255 6.6 20.4 7.67452 20.4 9V10H6.6V9C6.6 7.67452 7.67452 6.6 9 6.6ZM18 20.4H17V11.6H20.4V18C20.4 19.3255 19.3255 20.4 18 20.4ZM6.6 11.6H15.4L15.4 20.4H9C7.67452 20.4 6.6 19.3255 6.6 18V11.6Z" fill="#444444"/>
</svg>
