<svg width="30" height="30" viewBox="0 0 30 30" fill="none" xmlns="http://www.w3.org/2000/svg">
<path fill-rule="evenodd" clip-rule="evenodd" d="M7.00033 16.0217V19C7.00033 21.7614 9.23891 24 12.0003 24H19.0003C21.7618 24 24.0003 21.7614 24.0003 19V12C24.0003 9.23858 21.7618 7 19.0003 7H15.5003H15.5C15.1134 7 14.8 7.3134 14.8 7.7C14.8 8.0866 15.1134 8.4 15.5 8.4H15.5003H19.0003C20.9886 8.4 22.6003 10.0118 22.6003 12V19C22.6003 20.9882 20.9886 22.6 19.0003 22.6H12.0003C10.0121 22.6 8.40033 20.9882 8.40033 19V16H8.4C8.4 15.6134 8.0866 15.3 7.7 15.3C7.3134 15.3 7 15.6134 7 16C7 16.0073 7.00011 16.0145 7.00033 16.0217Z" fill="#EFFC35"/>
<path d="M7.60032 10.5C7.46318 10.5 7.34521 10.5963 7.31758 10.7305L7.24117 11.1041C7.17521 11.4249 6.92533 11.6748 6.6045 11.7405L6.23092 11.8174C6.09652 11.8448 6.0002 11.9627 6.0002 12.0999C6.0002 12.237 6.09652 12.355 6.23092 12.3826L6.6045 12.459C6.92533 12.5247 7.17521 12.7746 7.24117 13.0957L7.31758 13.4693C7.34521 13.6034 7.46318 13.6998 7.60032 13.6998C7.73721 13.6998 7.85543 13.6034 7.88281 13.4693L7.95947 13.0957C8.02543 12.7746 8.27507 12.5247 8.59614 12.459L8.96947 12.3826C9.10387 12.355 9.2002 12.2368 9.2002 12.0999C9.2002 11.9627 9.10387 11.8448 8.96947 11.8174L8.59614 11.7405C8.27507 11.6748 8.02543 11.4249 7.95947 11.1041L7.88281 10.7305C7.85543 10.5963 7.73721 10.5 7.60032 10.5Z" fill="#EFFC35"/>
<path d="M10.6997 6C10.4857 6 10.3009 6.15017 10.2581 6.35922L10.1385 6.94134C10.0355 7.44159 9.64527 7.83114 9.14374 7.93361L8.55984 8.05315C8.35026 8.09585 8.19971 8.27988 8.19971 8.49364C8.19971 8.70711 8.35026 8.89114 8.55984 8.93413L9.14374 9.05338C9.64527 9.15584 10.0355 9.54539 10.1385 10.0457L10.2581 10.6278C10.3009 10.8371 10.4857 10.9873 10.6997 10.9873C10.9137 10.9873 11.0982 10.8371 11.1413 10.6278L11.2609 10.0457C11.3639 9.54539 11.7541 9.15584 12.2557 9.05338L12.8396 8.93413C13.0492 8.89114 13.1997 8.70711 13.1997 8.49364C13.1997 8.28017 13.0492 8.09585 12.8396 8.05315L12.2557 7.93361C11.7541 7.83114 11.3639 7.44159 11.2609 6.94134L11.1413 6.35922C11.0982 6.15017 10.9137 6 10.6997 6Z" fill="#EFFC35"/>
<circle cx="15.5" cy="15.5" r="2.1" stroke="#EFFC35" stroke-width="0.8"/>
<circle cx="15.5" cy="15.5" r="4.1" stroke="#EFFC35" stroke-width="0.8"/>
</svg>
