<svg xmlns="http://www.w3.org/2000/svg" xmlns:xlink="http://www.w3.org/1999/xlink" width="30" height="30" viewBox="0 0 30 30">
    <defs>
        <path id="prefix__a" d="M0 0.705L12 0.705 12 10 0 10z"/>
    </defs>
    <g fill="none" fill-rule="evenodd">
        <path fill="#535353" d="M6 10.798c1.844 0 3.353-1.539 3.353-3.419V3.42C9.353 1.54 7.843 0 6 0 4.156 0 2.647 1.54 2.647 3.42v3.96c0 1.88 1.509 3.418 3.353 3.418" transform="translate(9 7)"/>
        <g transform="translate(9 7) translate(0 6)">
            <mask id="prefix__b" fill="#fff">
                <use xlink:href="#prefix__a"/>
            </mask>
            <path fill="#535353" d="M10.235 8.56H6.706V7.506C9.678 7.174 12 4.576 12 1.426c0-.399-.316-.72-.706-.72-.39 0-.706.321-.706.72 0 2.58-2.03 4.678-4.526 4.678h-.125c-2.495 0-4.526-2.099-4.526-4.679 0-.398-.316-.72-.705-.72-.39 0-.706.322-.706.72 0 3.15 2.322 5.75 5.294 6.081V8.56h-3.53c-.389 0-.705.322-.705.72 0 .397.316.72.705.72h8.471c.39 0 .706-.323.706-.72 0-.398-.316-.72-.706-.72" mask="url(#prefix__b)"/>
        </g>
    </g>
</svg>
