<svg xmlns="http://www.w3.org/2000/svg" xmlns:xlink="http://www.w3.org/1999/xlink" width="30" height="30" viewBox="0 0 30 30">
    <defs>
        <path id="prefix__a" d="M0 0L11.01 0 11.01 10.74 0 10.74z"/>
        <path id="prefix__c" d="M0.989 0.261L12 0.261 12 11 0.989 11z"/>
    </defs>
    <g fill="none" fill-rule="evenodd" transform="translate(8 7)">
        <mask id="prefix__b" fill="#fff">
            <use xlink:href="#prefix__a"/>
        </mask>
        <path fill="#535353" d="M2.292 6.515c-1.066-1.066-1.066-2.803 0-3.871l.352-.352c1.067-1.066 2.804-1.066 3.87 0L8.72 4.498c.322.32.545.704.672 1.11.117.369.153.758.109 1.14-.068.593-.327 1.167-.781 1.62l-.351.353c-.454.454-1.028.712-1.621.78.067.105.144.205.236.298l.94.94c.548-.204 1.06-.523 1.5-.963l.352-.352c.439-.44.758-.952.963-1.5.139-.371.227-.758.258-1.15.063-.787-.091-1.59-.466-2.305-.193-.37-.445-.717-.755-1.027L7.57 1.237c-1.65-1.65-4.332-1.65-5.983-.001l-.352.353c-1.648 1.65-1.648 4.334 0 5.982l1.827 1.828c-.108-.677-.083-1.37.075-2.038l-.846-.846z" mask="url(#prefix__b)"/>
        <g transform="translate(3 4)">
            <mask id="prefix__d" fill="#fff">
                <use xlink:href="#prefix__c"/>
            </mask>
            <path fill="#535353" d="M10.76 3.43L8.937 1.604c.108.676.082 1.368-.075 2.037l.844.845c.517.516.802 1.203.8 1.934.002.73-.282 1.418-.8 1.935l-.351.353C8.286 9.775 6.55 9.775 5.483 8.707L3.279 6.503c-.321-.321-.543-.704-.672-1.11-.115-.37-.152-.758-.108-1.14.068-.593.326-1.167.779-1.621l.354-.353c.453-.453 1.027-.711 1.62-.78-.068-.104-.145-.206-.236-.297L4.075.26c-.547.205-1.06.523-1.5.962l-.353.352c-.44.44-.757.954-.962 1.5-.14.374-.226.76-.257 1.152-.063.788.09 1.589.465 2.305.194.37.445.716.755 1.026l2.205 2.206c1.649 1.649 4.332 1.649 5.98 0l.002-.001.352-.353C11.56 8.61 12 7.55 12 6.419c-.001-1.13-.44-2.191-1.24-2.99" mask="url(#prefix__d)"/>
        </g>
    </g>
</svg>
