<svg width="30" height="30" viewBox="0 0 30 30" fill="none" xmlns="http://www.w3.org/2000/svg">
<path fill-rule="evenodd" clip-rule="evenodd" d="M9.7 9H18.4918C19.9829 9 21.1918 10.2088 21.1918 11.7004L21.191 11.824L22.626 10.7959C23.2597 10.3417 24.1271 10.4518 24.6293 11.0276L24.7191 11.141C24.9018 11.3959 25 11.7015 25 12.015V17.985C25 18.8134 24.3284 19.485 23.5 19.485C23.1865 19.485 22.8808 19.3867 22.626 19.204L21.191 18.175L21.1918 18.3C21.1918 19.7338 20.0741 20.9066 18.6625 20.9947L18.4918 21H9.7C8.20883 21 7 19.7912 7 18.3V11.7C7 10.2088 8.20883 9 9.7 9ZM18.4918 10.4H9.7C8.98203 10.4 8.4 10.982 8.4 11.7V18.3C8.4 19.018 8.98203 19.6 9.7 19.6H18.4918C19.2097 19.6 19.7918 19.018 19.7918 18.3004L19.7908 16.4226C19.7906 16.0154 20.2512 15.7787 20.5821 16.016L23.4417 18.0662C23.4587 18.0784 23.4791 18.085 23.5 18.085C23.5552 18.085 23.6 18.0402 23.6 17.985V12.015C23.6 11.9941 23.5935 11.9738 23.5813 11.9568C23.5491 11.9119 23.4866 11.9016 23.4416 11.9339L20.582 13.9829C20.2511 14.2201 19.7906 13.9834 19.7908 13.5762L19.7918 11.7C19.7918 10.982 19.2097 10.4 18.4918 10.4Z" fill="#EFFC35"/>
</svg>
