<svg xmlns="http://www.w3.org/2000/svg" width="30" height="30" viewBox="0 0 30 30">
    <g fill="none" fill-rule="evenodd">
        <g fill="#7A7F34" stroke="#7A7F34" stroke-width=".4">
            <g>
                <g>
                    <path d="M13.835.165c.22.22.22.576 0 .796L.962 13.835c-.11.11-.255.165-.399.165-.144 0-.288-.055-.398-.165-.22-.22-.22-.577 0-.797L13.039.165c.22-.22.576-.22.796 0zm0 9.655c.22.22.22.577 0 .797l-3.218 3.218c-.11.11-.254.165-.399.165-.144 0-.288-.055-.398-.165-.22-.22-.22-.577 0-.797L13.04 9.82c.22-.22.576-.22.796 0zm0-4.828c.22.22.22.577 0 .797L5.79 13.835c-.11.11-.254.165-.398.165-.144 0-.289-.055-.398-.165-.22-.22-.22-.577 0-.797l8.046-8.046c.22-.22.576-.22.796 0zM9.008.165c.22.22.22.576 0 .796L.962 9.007c-.11.11-.255.165-.399.165-.144 0-.288-.055-.398-.165-.22-.22-.22-.576 0-.796L8.211.165c.22-.22.577-.22.797 0zm-4.828 0c.22.22.22.576 0 .796L.962 4.18c-.11.11-.255.165-.399.165-.144 0-.288-.055-.398-.165-.22-.22-.22-.577 0-.797L3.383.165c.22-.22.577-.22.797 0z" transform="translate(-1228 -1868) translate(1228 1868) translate(8 8) matrix(-1 0 0 1 14 0)"/>
                </g>
            </g>
        </g>
    </g>
</svg>
