<svg xmlns="http://www.w3.org/2000/svg" width="30" height="30" viewBox="0 0 30 30">
    <g fill="none" fill-rule="evenodd">
        <g fill="#FFF">
            <g>
                <g>
                    <path d="M1.34 13.387c.741 0 1.342.6 1.342 1.34 0 .74-.6 1.34-1.341 1.34-.74 0-1.341-.6-1.341-1.34 0-.74.6-1.34 1.34-1.34zM1.109 4.52c2.88 0 5.495 1.17 7.382 3.057 1.887 1.886 3.057 4.501 3.057 7.381h-1.93c0-2.353-.951-4.474-2.493-6.016-1.543-1.541-3.662-2.49-6.016-2.492zm0 4.4c1.666 0 3.18.677 4.27 1.768 1.092 1.09 1.769 2.605 1.769 4.27h-1.93c0-1.138-.458-2.159-1.203-2.904-.747-.746-1.768-1.204-2.906-1.204zm0-8.921c2.136 0 4.167.451 6.007 1.259 1.716.753 3.266 1.816 4.572 3.122.302.302.59.616.865.944.082.099.163.2.242.3l.118.148c.677.882 1.246 1.834 1.708 2.835.14.302.273.607.392.917.614 1.604.953 3.313.988 5.053-.003.13-.007.256-.012.38h-1.916c.01-1.63-.287-3.237-.863-4.741-.38-.99-.881-1.933-1.491-2.806l.175.253-.038-.058c-.07-.104-.142-.208-.215-.31l-.226-.304c-.062-.082-.127-.161-.192-.242-.035-.045-.07-.09-.107-.133-.252-.302-.516-.592-.794-.87C7.961 3.386 4.71 1.93 1.11 1.93z" transform="translate(-1338 -546) translate(1338 546) translate(7.5 8)"/>
                </g>
            </g>
        </g>
    </g>
</svg>
