<?xml version="1.0" encoding="UTF-8"?>
<svg width="30px" height="30px" viewBox="0 0 30 30" version="1.1" xmlns="http://www.w3.org/2000/svg" xmlns:xlink="http://www.w3.org/1999/xlink">
    <title>DE9B5282-2259-4958-87BA-388B83AC6539</title>
    <g id="Page-1" stroke="none" stroke-width="1" fill="none" fill-rule="evenodd">
        <g id="Add-Source_202201" transform="translate(-175.000000, -4591.000000)">
            <g id="Group-12" transform="translate(70.000000, 4381.000000)">
                <g id="Group-10" transform="translate(50.000000, 50.000000)">
                    <g id="icon-source-prismcamera-select-normal" transform="translate(55.000000, 160.000000)">
                        <rect id="area" x="0" y="0" width="30" height="30"></rect>
                        <g id="icon_path" transform="translate(7.000000, 5.000000)" fill="#EFFC35" fill-rule="nonzero">
                            <path d="M8,2 C8.38659932,2 8.7,2.31340068 8.7,2.7 C8.7,3.05438271 8.43665638,3.34725823 8.09498585,3.39360983 L8,3.4 L3,3.4 C2.16543638,3.4 1.48011021,4.03896152 1.40653868,4.85436739 L1.4,5 L1.4,15 C1.4,15.8345636 2.03896152,16.5198898 2.85436739,16.5934613 L3,16.6 L13,16.6 C13.8345636,16.6 14.5198898,15.9610385 14.5934613,15.1456326 L14.6,15 L14.6,10.013 L14.6,10 C14.6,9.64561729 14.8633436,9.35274177 15.2050141,9.30639017 L15.3,9.3 C15.6543827,9.3 15.9472582,9.56334362 15.9936098,9.90501415 L16,10 L16,10 L16,15 C16,16.6568542 14.6568542,18 13,18 L3,18 C1.34314575,18 0,16.6568542 0,15 L0,5 C0,3.34314575 1.34314575,2 3,2 L8,2 Z M8,6 C10.209139,6 12,7.790861 12,10 C12,12.209139 10.209139,14 8,14 C5.790861,14 4,12.209139 4,10 C4,7.790861 5.790861,6 8,6 Z M8,7.4 C6.56405965,7.4 5.4,8.56405965 5.4,10 C5.4,11.4359403 6.56405965,12.6 8,12.6 C9.43594035,12.6 10.6,11.4359403 10.6,10 C10.6,8.56405965 9.43594035,7.4 8,7.4 Z M15.6998678,4.6 C15.8455783,4.6 15.9709263,4.70234114 16.00028,4.84487828 L16.0814653,5.2418138 C16.1515439,5.58268647 16.4170491,5.84819165 16.7579218,5.91800576 L17.1548573,5.99972 C17.2976589,6.02880921 17.4,6.15415727 17.4,6.29986778 C17.4,6.44557828 17.2976589,6.57092634 17.1548573,6.60028 L16.7579218,6.68146535 C16.4170491,6.75127946 16.1515439,7.01678463 16.0814653,7.35792175 L16.00028,7.75485728 C15.9709263,7.89739442 15.8455783,7.99973555 15.6998678,7.99973555 C15.5544217,7.99973555 15.4288092,7.89739442 15.39972,7.75485728 L15.3182702,7.35792175 C15.2481916,7.01678463 14.9829509,6.75127946 14.6418138,6.68146535 L14.2451427,6.60028 C14.1023411,6.57092634 14,6.44531384 14,6.29986778 C14,6.15415727 14.1023411,6.02880921 14.2451427,5.99972 L14.6418138,5.91800576 C14.9829509,5.84819165 15.2481916,5.58268647 15.3182702,5.2418138 L15.39972,4.84487828 C15.4288092,4.70234114 15.5544217,4.6 15.6998678,4.6 Z M12.6,0 C12.8225765,0 13.0147597,0.156571024 13.059275,0.374542449 L13.1836108,0.981485417 C13.2907545,1.50308183 13.6966112,1.90924548 14.2182076,2.01608218 L14.8254576,2.140725 C15.043429,2.18524029 15.2,2.37711654 15.2,2.6 C15.2,2.82257646 15.043429,3.01445271 14.8254576,3.059275 L14.2182076,3.18361082 C13.6966112,3.29044751 13.2907545,3.69661117 13.1836108,4.21820758 L13.059275,4.82515055 C13.0147597,5.04342898 12.8225765,5.2 12.6,5.2 C12.3774235,5.2 12.1855473,5.04342898 12.140725,4.82515055 L12.0163892,4.21820758 C11.9092455,3.69661117 11.5033888,3.29044751 10.9817924,3.18361082 L10.3745424,3.059275 C10.156571,3.01445271 10,2.82257646 10,2.6 C10,2.37742354 10.156571,2.18524029 10.3745424,2.140725 L10.9817924,2.01608218 C11.5033888,1.90924548 11.9092455,1.50308183 12.0163892,0.981485417 L12.140725,0.374542449 C12.1855473,0.156571024 12.3774235,0 12.6,0 Z" id="Combined-Shape"></path>
                        </g>
                    </g>
                </g>
            </g>
        </g>
    </g>
</svg>