<svg width="30" height="30" viewBox="0 0 30 30" xmlns="http://www.w3.org/2000/svg">
    <g fill="none" fill-rule="evenodd">
        <path d="M0 0h30v30H0z"/>
        <path d="M20.81 6.371a.75.75 0 0 1 .368.915l-.04.094-1.194 2.345a3.135 3.135 0 0 1-.905 6.033 9.687 9.687 0 0 0-1.776-.763l-.641 1.26c2.682.78 4.35 2.586 4.443 4.518l.005.172v.855a1.2 1.2 0 0 1-1.078 1.194L19.87 23l-6.681-.001-.886 1.741a.75.75 0 0 1-1.377-.586l.04-.094L19.801 6.7a.75.75 0 0 1 1.009-.329zm.12 10.842c2.457.59 4.007 2.168 4.11 3.87l.006.183v.534a1.2 1.2 0 0 1-1.077 1.194l-.123.006-1.67.001c.156-.3.256-.633.285-.987l.009-.214v-.855l-.006-.233c-.056-1.27-.575-2.43-1.44-3.396l-.095-.103zm-7.577-1.359-.737 1.447c-2.93.292-4.898 1.83-5.01 3.493l-.006.15v.655l2.829-.001-.685 1.348L9.72 23 7.4 23a1.2 1.2 0 0 1-1.194-1.077L6.2 21.8v-.855c0-2.583 2.822-4.988 7.144-5.091h.009zm2.62 1.676-2.071 4.068 5.767.001v-.654c0-1.456-1.43-2.84-3.695-3.415zM13.636 7c1.4 0 2.617.772 3.252 1.913l-.935 1.836v-.034A2.315 2.315 0 0 0 13.635 8.4a2.315 2.315 0 1 0 1.393 4.166l-.935 1.836c-.086.01-.173.018-.26.023l-.198.005a3.715 3.715 0 0 1-.198-7.425L13.635 7z" fill="#FFF" fill-rule="nonzero"/>
    </g>
</svg>
