<svg width="18" height="18" viewBox="0 0 18 18" xmlns="http://www.w3.org/2000/svg" xmlns:xlink="http://www.w3.org/1999/xlink">
    <defs>
        <path id="er3cf85fra" d="M0 0h17.182v17.182H0z"/>
    </defs>
    <g transform="translate(.818)" fill="none" fill-rule="evenodd">
        <mask id="gt30o1q1jb" fill="#fff">
            <use xlink:href="#er3cf85fra"/>
        </mask>
        <path d="M11.74 6.328c0 .712-.27 1.39-.762 1.906L9.463 9.75v1.2a.574.574 0 0 1-.574.574h-.572a.574.574 0 0 1-.573-.573V9.394a.86.86 0 0 1 .252-.607l1.752-1.753c.173-.18.275-.436.275-.706V6.13c0-.576-.469-1.046-1.046-1.046h-.772c-.576 0-1.046.47-1.046 1.046v.447a.574.574 0 0 1-.573.573h-.572a.574.574 0 0 1-.573-.573V6.13a2.767 2.767 0 0 1 2.764-2.764h.772A2.767 2.767 0 0 1 11.74 6.13v.198zm-2.29 6.914a.574.574 0 0 1-.573.573h-.573a.574.574 0 0 1-.572-.573v-.572c0-.315.258-.574.572-.574h.573c.315 0 .573.259.573.574v.572zM8.591 0a8.59 8.59 0 0 0-8.59 8.59A8.591 8.591 0 1 0 8.59 0z" fill="#444" mask="url(#gt30o1q1jb)"/>
    </g>
</svg>
