<svg width="30" height="30" viewBox="0 0 30 30" xmlns="http://www.w3.org/2000/svg">
    <g fill="none" fill-rule="evenodd">
        <path d="M0 0h30v30H0z"/>
        <path d="M20.93 17.213c2.457.59 4.007 2.168 4.11 3.87l.006.183v.534a1.2 1.2 0 0 1-1.077 1.194l-.123.006-1.67.001c.156-.3.256-.633.285-.987l.009-.214v-.855l-.006-.233c-.056-1.27-.575-2.43-1.44-3.396l-.095-.103zm-7.295-1.362c4.388 0 7.306 2.348 7.43 4.922l.005.172v.855a1.2 1.2 0 0 1-1.078 1.194L19.87 23H7.4a1.2 1.2 0 0 1-1.194-1.077L6.2 21.8v-.855c0-2.583 2.822-4.988 7.144-5.091l.29-.003zm0 1.4c-3.484 0-5.905 1.693-6.03 3.543l-.005.15v.655h12.069v-.654c0-1.858-2.329-3.6-5.754-3.69l-.28-.004zM18.773 9.5a3.135 3.135 0 0 1 .266 6.258 9.95 9.95 0 0 0-2.36-.931 5.106 5.106 0 0 0 2.073-4.112c0-.418-.05-.823-.144-1.212l.165-.003zM13.635 7a3.715 3.715 0 0 1 .197 7.425l-.197.005a3.715 3.715 0 0 1-.198-7.425L13.635 7zm0 1.4a2.315 2.315 0 1 0 0 4.63 2.315 2.315 0 1 0 0-4.63z" fill="#EFFC35" fill-rule="nonzero"/>
    </g>
</svg>
