<svg width="30" height="30" viewBox="0 0 30 30" xmlns="http://www.w3.org/2000/svg">
    <g fill="none" fill-rule="evenodd">
        <path d="M0 0h30v30H0z"/>
        <path d="M9.854 20.593 10 20.6h4a.7.7 0 0 1 .694.605l.006.095a.7.7 0 0 1-.605.694L14 22h-4a2.99 2.99 0 0 1-1.158-.232l-.706 1.13a.75.75 0 0 1-1.324-.697l.052-.098 10-16a.75.75 0 0 1 1.324.696l-.052.098-.064.103H20a3 3 0 0 1 3 3v1a.7.7 0 0 1-1.394.095L21.6 11v-1a1.6 1.6 0 0 0-1.454-1.593L20 8.4h-2.803L9.603 20.55c.081.021.165.036.251.043zm11.072-7.66.093.015-.041.163.044-.163a4.696 4.696 0 0 1 3.51 4.332l.006.22a4.697 4.697 0 0 1-3.518 4.553.579.579 0 0 1-.286-1.122 3.537 3.537 0 0 0 2.647-3.43 3.537 3.537 0 0 0-2.647-3.431.58.58 0 0 1-.415-.705.58.58 0 0 1 .607-.432zm-2.295.096a.376.376 0 0 1 .226.275l.007.075v8.243a.377.377 0 0 1-.588.315l-.057-.048-2.494-2.501h-1.348a.379.379 0 0 1-.37-.303L14 19.009v-3.017a.38.38 0 0 1 .301-.372l.076-.007h1.348l2.494-2.502a.376.376 0 0 1 .412-.082zm2.477 2.305a2.644 2.644 0 0 1 0 4.333.576.576 0 0 1-.9-.576.575.575 0 0 1 .169-.316l.197-.156a1.486 1.486 0 0 0-.127-2.336.58.58 0 0 1 .661-.95zM14.678 7l-.875 1.4H10a1.6 1.6 0 0 0-1.593 1.454L8.4 10v7.046l-1.388 2.22A3.039 3.039 0 0 1 7 19v-9a3 3 0 0 1 3-3h4.678z" fill="#7A7F34" fill-rule="nonzero"/>
    </g>
</svg>
