<svg width="22" height="22" viewBox="0 0 22 22" fill="none" xmlns="http://www.w3.org/2000/svg">
<path fill-rule="evenodd" clip-rule="evenodd" d="M16.5901 4.55177C17.6517 4.98252 18.4004 6.02387 18.4004 7.24009V12.0151C18.4004 13.6167 17.102 14.9151 15.5004 14.9151H11.9004V15.8452H14.5756C15.0726 15.8452 15.4756 16.2481 15.4756 16.7452C15.4756 17.2422 15.0726 17.6452 14.5756 17.6452H7.42558C6.92853 17.6452 6.52558 17.2422 6.52558 16.7452C6.52558 16.2481 6.92853 15.8452 7.42558 15.8452H10.1004V14.9151H7.35805L8.98331 13.1151H10.9921L11.0004 13.1151L11.0087 13.1151H15.5004C16.1079 13.1151 16.6004 12.6226 16.6004 12.0151V7.24009C16.6004 6.63258 16.1079 6.14009 15.5004 6.14009H15.2812L16.3765 4.92694C16.4775 4.81515 16.5485 4.68682 16.5901 4.55177ZM12.5865 6.14009L14.2118 4.34009H6.50039C4.89877 4.34009 3.60039 5.63846 3.60039 7.24009V12.0151C3.60039 13.0786 4.17283 14.0083 5.0264 14.5131L6.30439 13.0977C5.79039 13.0052 5.40039 12.5557 5.40039 12.0151V7.24009C5.40039 6.63257 5.89288 6.14009 6.50039 6.14009H12.5865Z" fill="#555555"/>
<path fill-rule="evenodd" clip-rule="evenodd" d="M18.1614 4.42657C18.5699 4.79829 18.5996 5.43076 18.2279 5.83921L7.42761 17.7066C7.05588 18.115 6.42342 18.1448 6.01496 17.7731C5.60651 17.4014 5.57673 16.7689 5.94846 16.3604L16.7488 4.49307C17.1205 4.08461 17.7529 4.05484 18.1614 4.42657Z" fill="#555555"/>
</svg>
