<svg width="22" height="22" viewBox="0 0 22 22" fill="none" xmlns="http://www.w3.org/2000/svg">
<path fill-rule="evenodd" clip-rule="evenodd" d="M8.50838 3.5C7.06776 3.5 5.8999 4.66785 5.8999 6.10847V15.7441C5.8999 17.1847 7.06776 18.3525 8.50838 18.3525H13.4914C14.932 18.3525 16.0999 17.1847 16.0999 15.7441V6.10847C16.0999 4.66785 14.932 3.5 13.4914 3.5H8.50838ZM7.79482 15.7441V6.10847C7.79482 5.71439 8.11429 5.39492 8.50838 5.39492H13.4914C13.8855 5.39492 14.205 5.71439 14.205 6.10847V15.7441C14.205 16.1382 13.8855 16.4576 13.4914 16.4576H8.50838C8.11429 16.4576 7.79482 16.1382 7.79482 15.7441ZM10.1673 6.82373C9.644 6.82373 9.2198 7.24792 9.2198 7.77119C9.2198 8.29445 9.644 8.71865 10.1673 8.71865H11.8283C12.3515 8.71865 12.7757 8.29445 12.7757 7.77119C12.7757 7.24792 12.3515 6.82373 11.8283 6.82373H10.1673ZM14.0897 18.0776C15.1304 17.8116 15.8999 16.8677 15.8999 15.7441V6.10849C15.8999 4.77832 14.8215 3.70001 13.4914 3.70001H8.50833C8.30699 3.70001 8.11143 3.72472 7.9245 3.77126C8.11144 3.72471 8.30703 3.7 8.50838 3.7H13.4914C14.8216 3.7 15.8999 4.77831 15.8999 6.10847V15.7441C15.8999 16.8677 15.1304 17.8116 14.0897 18.0776ZM13.717 16.6296C13.6448 16.6479 13.5692 16.6576 13.4914 16.6576H8.50833C8.00378 16.6576 7.59477 16.2486 7.59477 15.7441V6.10849C7.59477 5.67981 7.89002 5.3201 8.28826 5.22161C7.89005 5.32011 7.59482 5.67982 7.59482 6.10847V15.7441C7.59482 16.2486 8.00383 16.6576 8.50838 16.6576H13.4914C13.5693 16.6576 13.6448 16.6479 13.717 16.6296ZM10.0166 7.03892C10.0653 7.02897 10.1156 7.02374 10.1672 7.02374H11.8282C12.241 7.02374 12.5757 7.35839 12.5757 7.7712C12.5757 8.12031 12.3364 8.41351 12.0128 8.49569C12.3364 8.41353 12.5757 8.12031 12.5757 7.77119C12.5757 7.35838 12.2411 7.02373 11.8283 7.02373H10.1673C10.1157 7.02373 10.0653 7.02896 10.0166 7.03892Z" fill="white"/>
</svg>
