<svg width="22" height="22" viewBox="0 0 22 22" fill="none" xmlns="http://www.w3.org/2000/svg">
<path d="M16.1278 8.50073C16.3381 8.50073 16.508 8.67063 16.508 8.88098V15.8391C16.508 16.9435 15.61 17.8415 14.5057 17.8415H7.49458C6.39104 17.8415 5.49219 16.9435 5.49219 15.8391V8.88098C5.49219 8.67063 5.66209 8.50073 5.87244 8.50073C6.08279 8.50073 6.25269 8.67063 6.25269 8.88098V15.8391C6.25269 16.5244 6.80932 17.0818 7.49458 17.0818H14.5057C15.1909 17.0818 15.7484 16.5236 15.7484 15.8391V8.88098C15.7484 8.67063 15.9183 8.50073 16.1278 8.50073Z" fill="#BABABA"/>
<path fill-rule="evenodd" clip-rule="evenodd" d="M5 8.88111C5 8.399 5.39021 8.00879 5.87232 8.00879C6.35444 8.00879 6.74464 8.399 6.74464 8.88111V15.8393C6.74464 16.2532 7.08138 16.5899 7.49446 16.5899H14.5055C14.9188 16.5899 15.2562 16.2522 15.2562 15.8393V8.88111C15.2562 8.39968 15.6457 8.00879 16.1277 8.00879C16.6098 8.00879 17 8.399 17 8.88111V15.8393C17 17.2154 15.8816 18.3337 14.5055 18.3337H7.49446C6.11929 18.3337 5 17.2155 5 15.8393V8.88111Z" fill="#BABABA"/>
<path d="M9.72535 9.57198V14.4052C9.72535 14.6156 9.55545 14.7855 9.3451 14.7855C9.13555 14.7855 8.96484 14.6156 8.96484 14.4052V9.57117C8.96484 9.36163 9.13555 9.19092 9.3451 9.19092C9.55545 9.19173 9.72535 9.36163 9.72535 9.57198Z" fill="#BABABA"/>
<path fill-rule="evenodd" clip-rule="evenodd" d="M8.47266 9.57105C8.47266 9.08975 8.86367 8.69873 9.34498 8.69873H9.34687V8.69873C9.82714 8.70058 10.2173 9.08939 10.2173 9.57186V14.4051C10.2173 14.8872 9.82709 15.2774 9.34498 15.2774C8.86435 15.2774 8.47266 14.8879 8.47266 14.4051V9.57105Z" fill="#BABABA"/>
<path d="M13.0496 9.57198V14.4052C13.0496 14.6156 12.8789 14.7855 12.6693 14.7855C12.459 14.7855 12.2891 14.6156 12.2891 14.4052V9.57117C12.2891 9.36163 12.459 9.19092 12.6693 9.19092C12.8789 9.19173 13.0496 9.36163 13.0496 9.57198Z" fill="#BABABA"/>
<path fill-rule="evenodd" clip-rule="evenodd" d="M11.7969 9.57105C11.7969 9.09043 12.1864 8.69873 12.6692 8.69873H12.6711V8.69873C13.1499 8.70058 13.5415 9.0887 13.5415 9.57186V14.4051C13.5415 14.8879 13.1498 15.2774 12.6692 15.2774C12.1871 15.2774 11.7969 14.8872 11.7969 14.4051V9.57105Z" fill="#BABABA"/>
<path d="M4.38638 6.67524C4.17264 6.67524 4 6.5026 4 6.28886C4 6.07676 4.17264 5.9033 4.38638 5.9033H10.7272L10.7281 3.88638C10.7281 3.67264 10.9007 3.5 11.1144 3.5C11.3274 3.5 11.5 3.67264 11.5 3.88638V5.9033H17.6144C17.8274 5.9033 18 6.07594 18 6.28968C18 6.50343 17.8274 6.67606 17.6136 6.67606L4.38638 6.67524Z" fill="#BABABA"/>
<path fill-rule="evenodd" clip-rule="evenodd" d="M10.2281 3.88618C10.2282 3.39639 10.6246 3 11.1144 3C11.6042 3 12 3.39719 12 3.88638V5.40331H17.6144C18.1042 5.40331 18.5 5.8005 18.5 6.28969C18.5 6.77958 18.1035 7.17607 17.6136 7.17607L4.38638 7.17525C3.89651 7.17524 3.5 6.77875 3.5 6.28887C3.5 5.80063 3.8965 5.40331 4.38638 5.40331H10.2274L10.2281 3.88618Z" fill="#BABABA"/>
</svg>
