<svg width="22" height="22" viewBox="0 0 22 22" fill="none" xmlns="http://www.w3.org/2000/svg">
<path fill-rule="evenodd" clip-rule="evenodd" d="M14.1469 3.58318C13.9373 3.52889 13.7175 3.5 13.4909 3.5H8.50789C7.06727 3.5 5.89941 4.66785 5.89941 6.10847V12.6386L7.59428 10.7615V6.10849C7.59428 5.67981 7.88953 5.3201 8.28778 5.22161C7.88956 5.32011 7.59433 5.67982 7.59433 6.10847V10.7614L7.79433 10.5399V6.10847C7.79433 5.71439 8.1138 5.39492 8.50789 5.39492H12.4398L13.8921 3.78651C13.9063 3.77079 13.9209 3.75563 13.9358 3.74103C13.7916 3.7141 13.6429 3.70001 13.4909 3.70001H8.50784C8.33644 3.70001 8.16923 3.71792 8.00796 3.75195C8.16924 3.71791 8.33648 3.7 8.50789 3.7H13.4909C13.6429 3.7 13.7916 3.71408 13.9358 3.74101C14.0003 3.678 14.0714 3.62535 14.1469 3.58318ZM15.6169 4.97582C15.7972 5.31344 15.8994 5.69903 15.8994 6.10849V15.7441C15.8994 16.7624 15.2674 17.633 14.3744 17.9854C15.2675 17.6331 15.8994 16.7624 15.8994 15.7441V6.10847C15.8994 5.69901 15.7972 5.31342 15.617 4.97579C15.6786 4.93138 15.7307 4.88808 15.774 4.84582C15.9814 5.21995 16.0994 5.65043 16.0994 6.10847V15.7441C16.0994 17.1847 14.9316 18.3525 13.4909 18.3525H8.50789C7.06727 18.3525 5.89941 17.1847 5.89941 15.7441V15.6229L7.59428 13.7458V15.7441C7.59428 16.2486 8.0033 16.6576 8.50784 16.6576H13.4909C13.5298 16.6576 13.5682 16.6552 13.6058 16.6505C13.5682 16.6552 13.5299 16.6576 13.4909 16.6576H8.50789C8.00334 16.6576 7.59433 16.2486 7.59433 15.7441V13.7458L7.79433 13.5243V15.7441C7.79433 16.1382 8.1138 16.4576 8.50789 16.4576H13.4909C13.885 16.4576 14.2045 16.1382 14.2045 15.7441V6.42489L15.3765 5.12683C15.4693 5.07508 15.549 5.02478 15.6169 4.97582ZM11.1497 6.82373H10.1668C9.64351 6.82373 9.21932 7.24792 9.21932 7.77119C9.21932 8.08425 9.37115 8.36184 9.60519 8.53435L10.9691 7.02374H10.1667C10.128 7.02374 10.09 7.02668 10.0529 7.03235C10.0901 7.02668 10.1281 7.02373 10.1668 7.02373H10.9692L11.1497 6.82373ZM12.7317 8.05608L12.2032 8.64136C12.4541 8.53299 12.6488 8.31933 12.7317 8.05608Z" fill="#1E1E1E"/>
<path fill-rule="evenodd" clip-rule="evenodd" d="M17.1619 4.62652C17.5703 4.99825 17.6001 5.63071 17.2284 6.03917L6.4281 17.9065C6.05637 18.315 5.42391 18.3448 5.01545 17.973C4.60699 17.6013 4.57722 16.9688 4.94895 16.5604L15.7492 4.69302C16.121 4.28456 16.7534 4.25479 17.1619 4.62652Z" fill="#1E1E1E"/>
</svg>
