<svg width="22" height="22" viewBox="0 0 22 22" fill="none" xmlns="http://www.w3.org/2000/svg">
<path fill-rule="evenodd" clip-rule="evenodd" d="M18.3999 7.24009C18.3999 5.63846 17.1015 4.34009 15.4999 4.34009H6.4999C4.89828 4.34009 3.5999 5.63846 3.5999 7.24009V12.0151C3.5999 13.6167 4.89828 14.9151 6.4999 14.9151H10.0999V15.8452H7.4251C6.92804 15.8452 6.5251 16.2481 6.5251 16.7452C6.5251 17.2422 6.92804 17.6452 7.4251 17.6452H14.5751C15.0722 17.6452 15.4751 17.2422 15.4751 16.7452C15.4751 16.2481 15.0722 15.8452 14.5751 15.8452H11.8999V14.9151H15.4999C17.1015 14.9151 18.3999 13.6167 18.3999 12.0151V7.24009ZM10.9916 13.1151C10.9944 13.1151 10.9971 13.1151 10.9999 13.1151C11.0027 13.1151 11.0054 13.1151 11.0082 13.1151H15.4999C16.1074 13.1151 16.5999 12.6226 16.5999 12.0151V7.24009C16.5999 6.63258 16.1074 6.14009 15.4999 6.14009H6.4999C5.89239 6.14009 5.3999 6.63257 5.3999 7.24009V12.0151C5.3999 12.6226 5.89239 13.1151 6.4999 13.1151H10.9916Z" fill="#1E1E1E"/>
</svg>
