<svg xmlns="http://www.w3.org/2000/svg" width="15" height="15" viewBox="0 0 15 15">
    <g fill="none" fill-rule="evenodd">
        <g fill="#333333">
            <g>
                <g>
                    <path d="M7.153 0c1.91 0 3.707.744 5.059 2.095 2.316 2.319 2.762 5.848 1.118 8.658l.964 2.922c.056.17.012.358-.114.485-.127.127-.315.173-.485.118l-2.94-.95c-1.094.639-2.337.975-3.61.975-1.908 0-3.701-.743-5.05-2.092C.745 10.86 0 9.064 0 7.153c0-1.91.745-3.707 2.095-5.058S5.243 0 7.153 0zm.108 3h-.018c-.186.01-.337.129-.388.283l-.81 2.463H3.42c-.179.003-.346.098-.399.26-.017.048-.023.099-.022.134v.022c.01.127.072.244.176.315l2.117 1.516-.822 2.448c-.016.045-.022.092-.021.13-.003.127.062.257.17.335.075.053.164.08.244.08.093.002.18-.024.255-.076L7.24 9.394l1.93 1.394.182.132c.068.05.147.075.219.08h.038c.08 0 .165-.028.234-.074.117-.083.18-.208.182-.337v-.024l-.003-.01c-.002-.032-.008-.062-.018-.095l-.81-2.456L11.322 6.5c.111-.08.176-.206.178-.334-.002-.045-.006-.09-.027-.143l-.005-.018c-.064-.15-.204-.25-.364-.26H8.456l-.795-2.454C7.607 3.12 7.44 3 7.261 3z" transform="translate(-1713 -251) translate(1703 245) translate(10 6)"/>
                </g>
            </g>
        </g>
    </g>
</svg>
