<svg xmlns="http://www.w3.org/2000/svg" xmlns:xlink="http://www.w3.org/1999/xlink" width="22" height="22" viewBox="0 0 22 22">
    <defs>
        <path id="prefix__a" d="M0 0L20 0 20 20 0 20z"/>
    </defs>
    <g fill="none" fill-rule="evenodd" transform="translate(1 1)">
        <mask id="prefix__b" fill="#fff">
            <use xlink:href="#prefix__a"/>
        </mask>
        <path fill="#666" d="M13.453 19.595l6.475-18.458.01-.028c.12-.301.067-.65-.166-.881-.232-.233-.579-.286-.882-.166l-.028.01L.405 6.547c-.07.034-.135.077-.193.135-.27.272-.284.7-.03.953.054.054.116.093.18.122l7.023 3.503 6.221-5.372.017-.012c.148-.1.343-.09.467.034.124.123.134.32.034.468l-.012.015-5.372 6.222 3.503 7.023c.03.064.069.125.12.18.255.254.682.24.955-.03.057-.059.1-.124.135-.193" mask="url(#prefix__b)"/>
    </g>
</svg>
