<svg xmlns="http://www.w3.org/2000/svg" xmlns:xlink="http://www.w3.org/1999/xlink" width="45" height="14" viewBox="0 0 45 14">
    <defs>
        <linearGradient id="prefix__b" x1="99.352%" x2=".426%" y1="45.223%" y2="54.798%">
            <stop offset="0%" stop-color="#F763A5"/>
            <stop offset="22.595%" stop-color="#FF44D4"/>
            <stop offset="100%" stop-color="#6E26FD"/>
        </linearGradient>
        <rect id="prefix__a" width="45" height="14" x="0" y="0" rx="2"/>
    </defs>
    <g fill="none" fill-rule="evenodd">
        <mask id="prefix__c" fill="#fff">
            <use xlink:href="#prefix__a"/>
        </mask>
        <use fill="#D8D8D8" xlink:href="#prefix__a"/>
        <path fill="url(#prefix__b)" fill-rule="nonzero" d="M0 0L45 0 45 14 0 14z" mask="url(#prefix__c)"/>
        <path fill="#FFF" fill-rule="nonzero" d="M6.239 9.8H4.5V3.882h4.159v1.381h-2.42V6.4h2.19v1.304H6.24V9.8zm6.94 0l-.308-1.177h-1.805L10.758 9.8h-1.77l1.931-5.918h2.183L15.034 9.8h-1.855zm-1.226-4.553l-.57 2.15h1.173l-.57-2.15h-.033zM17.206 9.8h-1.64V3.882h1.35L19.2 6.95h.033V3.882h1.64V9.8H19.54l-2.3-3.117h-.034V9.8zm4.324-1.743h1.644c.05.336.46.558.927.558.52 0 .84-.21.84-.497 0-.274-.217-.394-.852-.509l-.784-.14c-1.087-.187-1.677-.812-1.677-1.737 0-1.199 1.025-1.953 2.436-1.953 1.575 0 2.457.722 2.465 1.87h-1.587c-.012-.37-.377-.587-.845-.587-.455 0-.743.189-.743.485 0 .283.243.43.805.529l.812.14c1.148.2 1.685.746 1.685 1.705 0 1.21-1.012 1.982-2.588 1.982-1.586 0-2.535-.665-2.538-1.846zM32.874 9.8h-1.738V7.511h-2.084V9.8h-1.739V3.882h1.74v2.247h2.083V3.882h1.74V9.8h-.002zm2.56 0h-1.74V3.882h1.74V9.8zm.82-5.918h2.703c1.316 0 2.202.84 2.202 2.157 0 1.304-.938 2.145-2.32 2.145h-.846V9.8h-1.74V3.882h.002zm1.739 1.308V6.9h.488c.578 0 .924-.291.924-.857 0-.562-.346-.853-.911-.853h-.501z" mask="url(#prefix__c)"/>
    </g>
</svg>
