<svg xmlns="http://www.w3.org/2000/svg" width="22" height="22" viewBox="0 0 22 22">
    <path fill="#BABABA" fill-rule="evenodd" stroke="#BABABA" stroke-width=".3" d="M18.78 10.608c-.292-.288-.766-.288-1.06 0l-.553.545C16.987 7.73 14.112 5 10.592 5 6.958 5 4 7.912 4 11.491c0 3.58 2.958 6.49 6.592 6.49.415 0 .75-.33.75-.738s-.335-.738-.75-.738c-2.808 0-5.092-2.25-5.092-5.014 0-2.765 2.284-5.015 5.092-5.015 2.68 0 4.878 2.05 5.074 4.64l-.517-.508c-.293-.288-.767-.288-1.06 0-.293.288-.293.756 0 1.045l1.815 1.787c.146.145.339.217.53.217.192 0 .384-.072.53-.217l1.816-1.787c.293-.29.293-.757 0-1.045"/>
</svg>
