<svg xmlns="http://www.w3.org/2000/svg" width="22" height="22" viewBox="0 0 22 22">
    <g fill="none" fill-rule="evenodd" stroke="#C34151">
        <path d="M7.5 15C3.364 15 0 11.636 0 7.5S3.364 0 7.5 0C11.635 0 15 3.364 15 7.5S11.635 15 7.5 15" transform="translate(4 3)"/>
        <path fill="#C34151" stroke-width=".5" d="M8.226 7.92c0 .248-.218.45-.484.45h-.484c-.266 0-.484-.202-.484-.45v-3.6c0-.247.218-.45.484-.45h.484c.266 0 .484.203.484.45v3.6zM8.226 10.968c0 .266-.218.484-.484.484h-.484c-.266 0-.484-.218-.484-.484v-.484c0-.266.218-.484.484-.484h.484c.266 0 .484.218.484.484v.484z" transform="translate(4 3)"/>
    </g>
</svg>
