<svg xmlns="http://www.w3.org/2000/svg" width="30" height="30" viewBox="0 0 30 30">
    <g fill="none" fill-rule="evenodd">
        <g fill="#7A7F34">
            <g>
                <g>
                    <path d="M13.333 1.144c.251-.33.721-.392 1.052-.14.33.252.391.722.14 1.05l-.925 1.21V14.8c0 1.547-1.254 2.8-2.8 2.8h-8c-.055 0-.107-.01-.159-.012l-.8 1.046c-.149.193-.372.294-.598.294-.158 0-.318-.05-.455-.154-.329-.252-.392-.723-.14-1.051zM12 5.354L3.854 16H10.8c.662 0 1.2-.537 1.2-1.2V5.355zM10.8 0c.478 0 .921.13 1.315.342l-1.01 1.32c-.1-.027-.197-.062-.305-.062l-1-.001v1.2c0 .277-.223.5-.5.5h-5c-.276 0-.5-.223-.5-.5V1.6h-1c-.622 0-1.133.473-1.194 1.078L1.6 2.8v11.283L.219 15.888C.079 15.553 0 15.186 0 14.8v-12C0 1.254 1.253 0 2.8 0z" transform="translate(-1088 -1234) translate(1088 1234) translate(8.2 7.2)"/>
                </g>
            </g>
        </g>
    </g>
</svg>
