<svg xmlns="http://www.w3.org/2000/svg" width="90" height="33" viewBox="0 0 90 33">
    <defs>
        <linearGradient id="q6qbtydyya" x1="49.833%" x2="49.833%" y1="77.168%" y2="12.74%">
            <stop offset="0%" stop-color="#FFF"/>
            <stop offset="100%" stop-color="#FFF" stop-opacity=".7"/>
        </linearGradient>
        <linearGradient id="i4clfrjzfb" x1="81.047%" x2="62.286%" y1="-3.465%" y2="28.719%">
            <stop offset="0%"/>
            <stop offset="100%" stop-opacity="0"/>
        </linearGradient>
        <linearGradient id="clw6jp6tmc" x1="64.005%" x2="56.546%" y1="86.388%" y2="67.031%">
            <stop offset="0%"/>
            <stop offset="100%" stop-opacity="0"/>
        </linearGradient>
    </defs>
    <g fill="none" fill-rule="evenodd">
        <g>
            <g>
                <g>
                    <g fill="#BABABA">
                        <path d="M6.807.252C6.169.252 5.65.77 5.65 1.403v3.559L2.547.907C2.304.595 1.977.276 1.395.276h-.191C.549.276.035.787.035 1.439v6.706c0 .635.52 1.151 1.157 1.151.638 0 1.157-.516 1.157-1.151V4.443l3.234 4.222c.244.312.57.631 1.152.631h.06c.655 0 1.168-.511 1.168-1.163v-6.73c0-.634-.518-1.15-1.156-1.15M24.77.252c-.61 0-1.046.402-1.207.803l-1.719 4.428-1.696-4.37c-.21-.538-.678-.86-1.253-.86-.71 0-1.266.548-1.266 1.248 0 .222.067.413.133.57l2.646 6.3v-.003c.255.601.736.928 1.354.928h.117c.619 0 1.1-.327 1.354-.929L25.9 2.02c.046-.105.125-.313.125-.542 0-.687-.552-1.225-1.255-1.225M33.023 6.777h-3.312v-.91h2.73c.646 0 1.172-.45 1.172-1.087 0-.644-.526-1.098-1.173-1.098h-2.729v-.91h3.253c.648 0 1.174-.541 1.174-1.178 0-.644-.526-1.19-1.174-1.19h-4.522c-.71 0-1.109.502-1.109 1.208v6.335c0 .707.399 1.197 1.109 1.197h4.581c.647 0 1.173-.54 1.173-1.178 0-.643-.526-1.189-1.173-1.189M39.538 4.554h-1.431V2.55h1.43c.356 0 1.113.12 1.113 1.002 0 .881-.757 1.002-1.112 1.002m3.691-1.213v-.023c0-.859-.307-1.564-.836-2.09-.611-.61-1.552-.905-2.667-.905h-2.832c-.71 0-1.349.502-1.349 1.208v6.434c0 .707.571 1.26 1.28 1.26.71 0 1.282-.553 1.282-1.26V6.514h.94l1.668 2.104c.32.406.705.607 1.177.607.672 0 1.22-.532 1.22-1.188 0-.41-.184-.675-.376-.917l-.955-1.184c.931-.539 1.448-1.427 1.448-2.595M13.662 5.527H12.61l1.053-2.496 1.054 2.496h-1.054zm4.254 2.039l-2.844-6.392c-.265-.589-.77-.927-1.386-.927h-.047c-.616 0-1.121.338-1.386.927L9.409 7.566c-.068.149-.137.329-.137.533 0 .674.525 1.202 1.197 1.202.517 0 .953-.23 1.167-.72l.475-1.05h3.103l.475 1.05c.213.49.65.72 1.167.72.672 0 1.197-.528 1.197-1.202 0-.204-.07-.384-.137-.533zM60.767.442c-.64-.297-1.403-.021-1.702.617L57.253 4.93 55.44 1.06C55.221.59 54.754.32 54.268.325V.322h-7.536c-.657 0-1.19.53-1.19 1.184 0 .654.533 1.183 1.19 1.183h2.042v5.262c0 .703.574 1.274 1.28 1.274.708 0 1.282-.57 1.282-1.274V2.689h2.042l2.715 5.8c.216.464.678.733 1.16.733.481 0 .943-.269 1.16-.732l2.974-6.354c.298-.638.02-1.396-.62-1.694" transform="translate(-428 -476) translate(428 476) translate(8 9) translate(16.467 2.604)"/>
                    </g>
                    <g opacity=".7">
                        <path fill="url(#q6qbtydyya)" fill-rule="nonzero" d="M0 1.553L3.792 1.553 3.792 12.427 0 12.427z" transform="translate(-428 -476) translate(428 476) translate(8 9)"/>
                        <path fill="#FFF" fill-rule="nonzero" d="M11.828 6.378c-.567-.944-1.766-1.22-2.681-.635L.912 11.05c-.915.586-1.183 1.823-.615 2.766.568.944 1.767 1.221 2.682.635l8.25-5.322c.9-.585 1.183-1.822.6-2.75z" transform="translate(-428 -476) translate(428 476) translate(8 9)"/>
                        <path fill="#FFF" fill-rule="nonzero" d="M11.21 5.602L2.962.306C2.063-.279.865-.003.297.94c-.568.942-.3 2.177.615 2.762L9.16 9.014c.914.585 2.113.309 2.68-.634.568-.942.285-2.177-.63-2.778z" transform="translate(-428 -476) translate(428 476) translate(8 9)"/>
                        <path d="M9.1 9.32L6.825 7.767z" transform="translate(-428 -476) translate(428 476) translate(8 9)"/>
                        <path fill="url(#i4clfrjzfb)" fill-rule="nonzero" d="M8.866 9.398L6.302 7.767l-5.42 3.45c-.884.559-1.144 1.74-.594 2.641.55.901 1.71 1.165 2.595.606l6.975-4.444-.992-.622z" opacity=".5" transform="translate(-428 -476) translate(428 476) translate(8 9)"/>
                        <path fill="url(#clw6jp6tmc)" fill-rule="nonzero" d="M3.792 2.33L0 2.33 0 11.65 3.792 9.197z" opacity=".2" transform="translate(-428 -476) translate(428 476) translate(8 9)"/>
                    </g>
                </g>
            </g>
        </g>
    </g>
</svg>
