<svg xmlns="http://www.w3.org/2000/svg" xmlns:xlink="http://www.w3.org/1999/xlink" width="90" height="33" viewBox="0 0 90 33">
    <defs>
        <path id="ttwch6fbga" d="M0.059 0.222L25.833 0.222 25.833 17.567 0.059 17.567z"/>
        <path id="mugdrrcjvc" d="M0 0.268L9.587 0.268 9.587 9.855 0 9.855z"/>
        <path id="nlesv4rele" d="M0 17.862L62 17.862 62 0.517 0 0.517z"/>
    </defs>
    <g fill="none" fill-rule="evenodd">
        <g>
            <g>
                <g transform="translate(-338 -476) translate(338 476) translate(14 8)">
                    <g transform="translate(36.167 .295)">
                        <mask id="n8jszmzq1b" fill="#fff">
                            <use xlink:href="#ttwch6fbga"/>
                        </mask>
                        <path fill="#BABABA" d="M22.668 5.81h-2.921v1.254h2.442v1.49h-2.442v1.354h2.92v1.49h-4.424v-7.08h4.425V5.81zm-7.24 5.589h-1.814L11.68 4.318h1.586l1.257 5.288 1.256-5.288h1.585l-1.934 7.08zm-6.306 0h1.504V4.318H9.122v7.08zm-1.271 0H3.658V4.318h1.505v5.59H7.85v1.49zM25.146.223L.668 1.712c-.342.02-.609.304-.609.647v11.172c0 .343.267.626.61.648l2.99.181v3.077c0 .106.12.167.206.104l3.957-2.927 17.324 1.054c.373.022.687-.274.687-.648V.87c0-.373-.314-.67-.687-.647z" mask="url(#n8jszmzq1b)"/>
                    </g>
                    <g transform="translate(0 3.395)">
                        <mask id="awv9q4gk4d" fill="#fff">
                            <use xlink:href="#mugdrrcjvc"/>
                        </mask>
                        <path fill="#BABABA" d="M2.397 2.665H3.87L5.647 5.23V2.665H7.19v4.793H5.717L3.939 4.893v2.565H2.397V2.665zM0 9.855h9.587V.268H0v9.587z" mask="url(#awv9q4gk4d)"/>
                    </g>
                    <path fill="#BABABA" d="M22.98 11.368h-2.942v-2.33c0-.077-.062-.139-.139-.139h-1.623c-.076 0-.138.062-.138.139v2.33h-1.654v-2.33c0-.077-.061-.139-.138-.139h-1.623c-.077 0-.139.062-.139.139v2.33h-2.942c-.076 0-.138.061-.138.138v1.364c0 .077.062.139.138.139H22.98c.076 0 .139-.062.139-.139v-1.364c0-.077-.063-.138-.139-.138"/>
                    <path fill="#BABABA" d="M13.138 9.106c.047.062.135.074.196.027l3.977-3.077 3.977 3.077c.062.047.149.035.195-.027l.901-1.204c.045-.06.034-.146-.025-.192l-3.652-2.824c-.256-.198-.407-.504-.407-.828V2.714c0-.076-.062-.138-.138-.138H16.46c-.077 0-.139.062-.139.138v1.344c0 .324-.15.63-.406.828L12.264 7.71c-.06.046-.072.132-.026.192l.9 1.204zM33.692 2.056h-1.636c-.077 0-.14.062-.14.14v6.447c0 .076.063.139.14.139h1.636c.076 0 .138-.063.138-.14V2.196c0-.077-.062-.139-.138-.139"/>
                    <mask id="clwqtzrjvf" fill="#fff">
                        <use xlink:href="#nlesv4rele"/>
                    </mask>
                    <path fill="#BABABA" d="M26.192 6.876h1.789V3.923h-1.789v2.953zm4.63 1.447V7.014c0-.076-.063-.138-.14-.138h-.95V3.923h.95c.077 0 .14-.062.14-.138v-1.31c0-.076-.063-.138-.14-.138h-7.24c-.076 0-.138.062-.138.138v1.31c0 .076.062.138.138.138h.992v2.953h-.992c-.076 0-.138.062-.138.138v1.31c0 .076.062.138.138.138h7.24c.077 0 .14-.062.14-.139zM29.845 13.955c-.9 0-1.634-.7-1.634-1.558 0-.86.733-1.559 1.634-1.559.9 0 1.633.7 1.633 1.559s-.733 1.558-1.633 1.558m0-4.848c-1.91 0-3.463 1.476-3.463 3.29s1.554 3.29 3.463 3.29 3.462-1.476 3.462-3.29-1.553-3.29-3.462-3.29" mask="url(#clwqtzrjvf)"/>
                </g>
            </g>
        </g>
    </g>
</svg>
