<svg xmlns="http://www.w3.org/2000/svg" width="90" height="33" viewBox="0 0 90 33">
    <g fill="none" fill-rule="evenodd">
        <g fill="#BABABA">
            <g>
                <g>
                    <path d="M41.612 0l-2.258 3.132H35.34l-1.342 1.342V3.132h-3.134V0h-9.839v3.132H7.18L4.923 0H0v10.738L6.263 17h6.263v-1.79l1.79 1.79h12.077v-1.79l1.79 1.79h5.815v-1.79l1.79 1.79h11.184L51 12.973V5.37l-2.24-2.237h-2.237V0h-4.91zm.434.897h3.581v3.13h2.685l1.79 1.79v6.264h-3.58V7.606h-.895v4.475h-3.581V.897zm-15.654 9.396V.897h3.58v3.13h3.134l-.003 3.58H29.97v.896h3.133v3.58h-4.92l-1.79-1.79zm-4.474-7.161h3.58V.897h-3.58v2.235zM.895 10.292V.898h3.58v3.13h3.133l-.004 3.58H4.476v.896h3.132v3.58H2.685l-1.79-1.79zm33.102 0V5.817l1.79-1.79h5.368v3.58h-3.58v.897h3.58v3.58h-5.369l-1.789-1.79zm-12.079 1.789h3.58V4.027h-3.58v8.054zM17.45 8.5V4.027h3.58l-.007 8.054H10.289l-1.79-1.79V4.026h3.58V8.5h.895V4.027h3.58V8.5h.896z" transform="translate(-68 -476) translate(68 476) translate(20 8)"/>
                </g>
            </g>
        </g>
    </g>
</svg>
