<svg xmlns="http://www.w3.org/2000/svg" xmlns:xlink="http://www.w3.org/1999/xlink" width="90" height="33" viewBox="0 0 90 33">
    <defs>
        <path id="ex2kfw9g4a" d="M0.089 0.006L5.445 0.006 5.445 2.033 0.089 2.033z"/>
        <path id="jnle4qruoc" d="M0 0.016L11.551 0.016 11.551 11.117 0 11.117z"/>
    </defs>
    <g fill="none" fill-rule="evenodd">
        <g>
            <g>
                <g>
                    <g fill="#BABABA">
                        <path d="M8.468 2.584S8.437.242 11.118.217h2.512c.538 0 .994.376.994.836 0 .471-.456.849-.994.849h-1.163c-.77.004-.704.56-.704.56v1.092h1.403c.556 0 1.012.358 1.012.816 0 .47-.396.83-.938.83h-1.477v5.549c0 .78-.674 1.475-1.614 1.475-.935 0-1.68-.632-1.68-1.424V2.584zM17.805 10.738c0 .844-.676 1.487-1.613 1.487-.924 0-1.685-.643-1.685-1.424V5.803s0-2.205 2.723-2.205h2.16c1.13 0 1.13.865 1.13.865s0 .832-1.058.832h-.953c-.704 0-.704.546-.704.546v4.897zM33.293 5.305c-.731 0-.731.533-.731.533v1.457h2.079v-1.42s0-.57-.66-.57h-.688zm.54-1.766c2.817 0 2.817 2.262 2.817 2.262v2.343c0 .472-.457.818-1.013.818L32.53 8.96v1.006s.032.53.748.53l1.743.003c.559 0 .999.373.999.844 0 .47-.455.882-1 .882h-3.06c-2.684 0-2.684-2.234-2.684-2.234v-4.19s.02-2.238 2.705-2.262h1.852zM43.708 10.54c.559-.014 1.058.42 1.058.892 0 .471-.5.793-1.058.793h-4.387c-.923 0-1.59-.558-1.59-1.35V4.964c0-.783.762-1.425 1.686-1.425h4.461c.562 0 1 .371 1 .84 0 .471-.438.82-1 .82h-2.381c-.408 0-.408.347-.408.347l-.002 4.632s-.028.36.41.36l2.211.002zM47.709 10.513h1.334v-1.99l-1.334.002c-.727 0-.657.993-.657.993s-.077.995.657.995m4.688-4.73v4.99c0 .794-.768 1.452-1.706 1.452h-2.847c-2.804 0-2.804-2.26-2.804-2.26V8.848s.176-2.041 2.804-2.031h1.204V5.794s0-.527-.66-.527H46.86c-.558 0-1.1-.328-1.1-.8 0-.472.513-.924 1.07-.924h2.88c2.686.012 2.686 2.24 2.686 2.24M60.23 1.349s0-.761-1.01-.761h-7.01c-1.01 0-1.01.739-1.01.739s0 .732.946.732h1.466c.63 0 .63.48.63.48v4.518c0 .742.603 1.308 1.443 1.308.825 0 1.507-.566 1.507-1.253V2.531c.01-.103.09-.45.626-.45h1.466c.946 0 .946-.732.946-.732M2.671 10.511h1.333V8.523H2.671c-.755 0-.658.994-.658.994s-.076.994.658.994m4.69-4.732v4.993c0 .795-.767 1.452-1.707 1.452H2.807C0 12.224 0 9.964 0 9.964V8.847s.177-2.043 2.807-2.033h1.202V5.79s0-.527-.66-.527H1.822c-.558 0-1.102-.328-1.102-.8 0-.473.516-.926 1.073-.926h2.881c2.687.014 2.687 2.242 2.687 2.242M24.849 5.305c-.732 0-.732.533-.732.533v1.457h2.08v-1.42s0-.57-.66-.57h-.688zm.54-1.766c2.818 0 2.818 2.262 2.818 2.262v2.343c0 .472-.459.818-1.014.818l-3.106-.002v1.006s.03.53.747.53l1.743.003c.56 0 .999.373.999.844 0 .47-.455.882-1 .882h-3.06c-2.685 0-2.685-2.234-2.685-2.234v-4.19s.02-2.238 2.705-2.262h1.853z" transform="translate(-698 -476) translate(698 476) translate(1 9) translate(0 .976)"/>
                        <path d="M66.392.837c-.659-.443-1.589-.212-2.077.514l-2.658 3.56-.955-2.06c-.177-.388-.939-.573-1.344-.385-.407.186-.656.769-.476 1.155l1.751 4.026c.138.292.448.536.942.655.445.107 1.28-.01 1.768-.737l3.363-4.612c.488-.727.347-1.674-.314-2.116" transform="translate(-698 -476) translate(698 476) translate(1 9) translate(0 .976)"/>
                    </g>
                    <g>
                        <g transform="translate(-698 -476) translate(698 476) translate(1 9) translate(68.293) translate(3.48 .312)">
                            <mask id="z9pz8wcdpb" fill="#fff">
                                <use xlink:href="#ex2kfw9g4a"/>
                            </mask>
                            <path fill="#B7B7B7" d="M.285 1.161l1.611.766c.281.125.48.15.773.017L5.16.807C5.4.724 5.514.46 5.4.231c-.107-.218-.374-.287-.584-.167L2.541 1.532c-.061.034-.1.054-.144.065-.112.025-.253.02-.387-.092L.77.504C.599.342.328.37.177.55c-.143.18-.115.486.108.611" mask="url(#z9pz8wcdpb)"/>
                        </g>
                        <g transform="translate(-698 -476) translate(698 476) translate(1 9) translate(68.293) translate(0 2.535)">
                            <mask id="3ewljbm03d" fill="#fff">
                                <use xlink:href="#jnle4qruoc"/>
                            </mask>
                            <path fill="#B7B7B7" d="M8.79 7.72c-1.486 1.39-4.593 1.387-6.045-.002-.1-.097-.105-.26-.006-.36.095-.101.257-.106.357-.008 1.257 1.206 4.059 1.205 5.35-.001.104-.098.263-.091.36.012.094.103.089.264-.016.36M4.127 5.337l.002-.032.002-.023.002-.022.086-.949.087-.95.009-.102c.005-.033.011-.066.02-.098.023-.095.06-.185.11-.267.098-.164.243-.298.416-.381.086-.042.18-.072.278-.087.046-.007.094-.01.142-.01h.978c.051 0 .1.005.15.013l.014.001c.287.05.531.226.675.47.048.08.085.168.108.262.01.04.017.081.022.123l.005.054.157 1.737.016.174.007.076v.048c0 .429-.27.793-.65.93-.054.019-.111.034-.169.043-.052.009-.106.014-.16.014H5.106c-.043 0-.085-.003-.127-.008-.041-.006-.082-.014-.122-.025-.105-.028-.203-.073-.292-.131-.088-.06-.166-.132-.231-.216-.065-.083-.117-.178-.153-.28-.036-.102-.055-.212-.055-.327l.001-.037m7.398-.834l-.39.29c-.178.132-.357.263-.552.395-.157.106-.299.199-.425.278-.376.237-.6.35-.6.35-.04.025-.086.048-.133.069l-.047.018c-.034.013-.07.026-.108.037-.018.006-.037.01-.055.015-.04.01-.08.018-.121.025l-.05.008c-.057.008-.115.013-.173.013h-.004c-.044 0-.086-.003-.129-.007l-.035-.005c-.033-.005-.066-.011-.098-.02l-.037-.008c-.043-.013-.084-.027-.123-.045-.065-.03-.123-.066-.174-.106-.05-.04-.095-.084-.134-.13-.039-.045-.072-.093-.1-.14l-.039-.072c-.035-.07-.06-.139-.077-.199-.012-.04-.02-.077-.027-.107-.003-.015-.006-.029-.007-.041-.005-.024-.006-.042-.007-.051l-.001-.007-.011-.09-.013-.107-.007-.068-.017-.163-.02-.197c-.016-.177-.033-.386-.048-.62-.03-.451-.053-.898-.061-1.347-.003-.153.022-.284.061-.394.02-.055.043-.104.068-.15.012-.022.025-.043.038-.063.052-.08.109-.14.155-.182.058-.053.1-.079.1-.079.04-.026.082-.048.126-.07.014-.005.029-.01.043-.017l.094-.035.051-.014c.031-.008.063-.015.095-.02l.052-.008c.035-.005.07-.007.106-.008l.034-.002h.013l.037.002c.03.002.058.003.087.007l.043.006c.03.005.058.01.087.018l.038.009c.04.011.082.024.122.04l.206.086c.105.044.213.091.316.137.24.108.46.21.59.271l.116.056c.199.098.382.189.569.286.124.066.253.137.385.213-.008-.056-.014-.113-.023-.17-.027-.184-.102-.44-.111-.47-.237-.829-1.135-1.183-1.135-1.183-.288-.129-.91-.299-.91-.299C8.087.168 6.968.02 5.816.016h-.08S3.985.004 2.352.436c-.6.159-.87.293-.87.293C1.01.945.629 1.281.427 1.752c.019-.01.038-.022.057-.034.043-.024.087-.047.132-.07l.047-.023c.06-.028.121-.055.184-.079l.043-.015c.049-.018.098-.034.148-.049l.068-.018c.044-.012.088-.022.132-.031l.072-.014c.047-.009.095-.015.143-.02l.061-.008c.068-.005.136-.01.204-.01h.004l.017.001c.063.001.126.005.19.01l.063.008c.051.006.102.013.154.023l.062.012c.07.014.141.032.212.054.665.205 1.09.586 1.301 1.075.211.49.209 1.086.019 1.723-.022.074-.047.146-.075.216l-.028.067-.06.136-.04.074c-.02.04-.042.078-.065.116-.014.025-.03.048-.045.072-.023.036-.048.071-.073.105-.016.023-.032.045-.05.067-.026.034-.054.067-.082.099l-.051.058-.101.1-.044.041c-.05.045-.102.087-.155.127-.007.006-.016.01-.023.015-.046.034-.094.066-.143.096l-.06.034c-.038.022-.076.043-.115.062-.023.012-.047.022-.071.033-.037.017-.075.033-.113.048l-.076.028c-.039.013-.078.026-.117.037l-.078.021c-.041.01-.084.02-.126.028l-.074.015c-.05.008-.1.014-.15.019-.02.002-.037.005-.056.006-.067.005-.135.008-.204.008h-.006c-.05 0-.1-.004-.152-.006l-.078-.004c-.078-.007-.156-.017-.235-.031C.67 5.918.37 5.76.11 5.54.072 5.508.037 5.47 0 5.436v.007C0 6.771.131 8.068.386 9.32c.102.497.33.738.33.738.249.325.606.562 1.017.655l.089.017c1.279.254 2.6.387 3.953.387 1.36 0 2.687-.134 3.97-.39l.064-.013c.678-.149 1.211-.689 1.352-1.373l.002-.008c.255-1.257.389-2.557.389-3.89 0-.315-.011-.628-.027-.94" mask="url(#3ewljbm03d)"/>
                        </g>
                        <path fill="#B7B7B7" d="M9.568 7.05c-.458 0-.829-.372-.829-.832 0-.46.371-.831.829-.831.457 0 .828.372.828.831 0 .46-.37.832-.828.832m1.779-1.43l-.01-.005-.017-.008-.016-.01c-.39-.234-.697-.388-1.121-.597-.004-.002-.683-.329-1.198-.536-.083-.033-.17-.05-.26-.05-.13 0-.256.036-.357.102l-.013.009c-.037.027-.211.168-.206.474.007.404.027.826.06 1.326.048.72.113 1.21.113 1.215l.002.013v.013c.002.01.039.353.31.48.06.028.14.042.233.042.184 0 .362-.059.458-.118l.015-.01.016-.007c.003-.002.384-.199.977-.6.243-.166.46-.329.691-.501.128-.095.256-.192.39-.29.03-.02.054-.045.077-.07-.021-.278-.048-.556-.081-.831-.011-.008-.021-.017-.033-.024l-.03-.017M4.971 8.43c.045.012.09.018.136.018H6.43c.033 0 .062-.003.092-.007.258-.044.446-.267.446-.53v-.02l-.001-.003-.006-.061-.172-1.911-.004-.047c-.003-.021-.007-.042-.012-.062-.051-.205-.218-.362-.426-.398-.03-.005-.06-.008-.089-.008h-.976c-.024 0-.05.002-.075.006-.21.032-.386.192-.438.4l-.009.043-.008.089-.173 1.898-.003.038-.001.015v.02c0 .244.163.458.397.52M1.797 5.387c.457 0 .828.372.828.831 0 .46-.37.832-.828.832-.458 0-.829-.373-.829-.832 0-.46.371-.831.829-.831m-.728 2.68c.133.023.266.034.395.034.893 0 1.583-.526 1.846-1.407.197-.659.325-1.825-1.022-2.24-.188-.059-.38-.088-.571-.088-.54 0-1.077.237-1.49.631C.103 5.745.037 6.51.012 7.285c.275.42.66.713 1.058.782" transform="translate(-698 -476) translate(698 476) translate(1 9) translate(68.293)"/>
                    </g>
                </g>
            </g>
        </g>
    </g>
</svg>
