<svg xmlns="http://www.w3.org/2000/svg" width="90" height="33" viewBox="0 0 90 33">
    <g fill="none" fill-rule="evenodd">
        <g fill="#A8A8A8" fill-rule="nonzero">
            <g>
                <g>
                    <path d="M4.773 9.153c1.03 0 1.864-.155 2.502-.464v-1.8c-.638.374-1.342.56-2.111.56-.806 0-1.447-.25-1.923-.753s-.714-1.177-.714-2.023c0-.883.252-1.583.757-2.1.504-.517 1.167-.775 1.99-.775.748 0 1.415.175 2.001.525V.425C6.69.209 5.97.1 5.115.1c-1.38 0-2.502.435-3.366 1.306C.884 2.278.452 3.413.452 4.813c0 1.314.384 2.366 1.153 3.156.77.789 1.825 1.184 3.168 1.184zm5.914 0c.798 0 1.435-.369 1.91-1.105h.031V9h1.923V2.75h-1.923v3.577c0 .415-.104.743-.311.985-.208.242-.484.364-.83.364-.7 0-1.05-.442-1.05-1.325V2.75H8.514v3.772c0 1.754.725 2.63 2.173 2.63zm6.989 0c.374 0 .735-.038 1.083-.113.348-.076.655-.196.922-.36.266-.165.48-.379.64-.641.161-.263.242-.58.242-.95 0-.264-.04-.492-.12-.683-.079-.191-.193-.358-.341-.5-.149-.143-.327-.267-.534-.373-.208-.106-.44-.203-.696-.293-.142-.049-.286-.096-.43-.143-.145-.047-.276-.1-.394-.159s-.214-.13-.287-.21c-.073-.082-.11-.18-.11-.293 0-.086.025-.162.074-.23.048-.066.116-.121.201-.164.085-.043.184-.075.296-.098.112-.022.231-.033.357-.033.269 0 .542.035.821.106.279.072.54.178.784.32V2.849c-.276-.082-.557-.144-.842-.187-.285-.042-.566-.064-.842-.064-.354 0-.695.038-1.023.113-.327.076-.618.194-.872.354-.255.161-.458.368-.61.62-.153.252-.23.553-.23.903 0 .257.034.478.101.665.067.188.165.352.293.495.128.142.287.267.476.375.19.108.408.209.656.302.155.061.316.116.482.165.167.049.32.104.461.165.14.06.256.132.345.214.09.08.134.183.134.305 0 .19-.098.333-.296.427-.197.094-.467.14-.808.14-.281 0-.58-.046-.895-.14-.315-.094-.631-.236-.949-.427v1.562c.586.212 1.223.318 1.91.318zm6.488 0c.574 0 1.003-.076 1.288-.226V7.499c-.216.118-.426.177-.629.177-.517 0-.775-.326-.775-.977V4.172h1.404V2.75h-1.404V.852l-1.923.55V2.75h-1.013v1.422h1.013v2.863c0 1.412.68 2.118 2.039 2.118zm5.304 0c1.058 0 1.89-.302 2.5-.904.607-.602.912-1.422.912-2.46 0-.96-.295-1.732-.885-2.316-.59-.584-1.404-.876-2.442-.876-1.054 0-1.89.292-2.508.876-.619.584-.928 1.393-.928 2.426 0 1.001.298 1.794.894 2.378.596.584 1.415.876 2.457.876zm.06-1.477c-.968 0-1.452-.6-1.452-1.801 0-.574.126-1.017.379-1.33.252-.314.606-.47 1.062-.47.931 0 1.397.583 1.397 1.751 0 1.233-.462 1.85-1.385 1.85zM36.06 9V5.527c0-.447.098-.801.296-1.062.197-.26.46-.39.79-.39.655 0 .983.441.983 1.324V9h1.928V5.503c0-.407.1-.747.3-1.02.199-.272.457-.409.775-.409.667 0 1 .454 1 1.362V9h1.923V5.112c0-1.676-.68-2.515-2.038-2.515-.924 0-1.624.389-2.1 1.166-.326-.777-.93-1.166-1.813-1.166-.427 0-.82.105-1.18.315-.36.21-.64.48-.84.815h-.024V2.75h-1.93V9h1.93zm15.13 0V5.65h.531c.122 0 .235.025.339.075.104.051.203.125.299.22.096.096.19.21.284.345.093.134.191.287.293.458L54.296 9h2.265l-1.654-2.588c-.085-.134-.18-.271-.284-.412-.103-.14-.212-.271-.326-.394-.114-.122-.232-.228-.354-.32-.122-.092-.248-.158-.379-.198v-.025c.297-.085.567-.203.81-.354.241-.15.448-.33.619-.537.17-.207.303-.44.396-.699.094-.258.14-.54.14-.845 0-1.587-1.061-2.38-3.185-2.38h-3.125V9h1.971zm.855-4.84h-.855V1.725h.891c.916 0 1.374.382 1.374 1.147 0 .366-.13.673-.391.922-.256.244-.596.366-1.02.366zM60.779 9V1.853h2.496V.248h-6.958v1.605h2.484V9h1.978zm5.45 0V4.16c0-.651-.026-1.408-.08-2.27h.056c.126.655.218 1.061.274 1.22L68.567 9h1.611l2.051-5.95c.081-.237.173-.623.275-1.16h.048c-.048.683-.073 1.308-.073 1.873V9h1.947V.248h-2.813l-1.789 5.175c-.122.358-.238.78-.348 1.264h-.036c-.065-.42-.17-.836-.312-1.251L67.34.248h-2.887V9h1.776zm12.158 0V5.985h.94c1.058 0 1.904-.272 2.536-.815.633-.543.95-1.254.95-2.133 0-1.86-1.103-2.79-3.309-2.79h-3.088V9h1.971zm.776-4.51h-.776V1.76h.776c1.05 0 1.574.45 1.574 1.35 0 .919-.525 1.379-1.574 1.379z" transform="translate(-788 -476) translate(788 476) translate(6 12)"/>
                </g>
            </g>
        </g>
    </g>
</svg>
