<svg xmlns="http://www.w3.org/2000/svg" width="100" height="33" viewBox="0 0 100 33">
    <defs>
        <linearGradient id="prefix__a" x1="49.833%" x2="49.833%" y1="77.168%" y2="12.74%">
            <stop offset="0%" stop-color="#FFF"/>
            <stop offset="100%" stop-color="#FFF" stop-opacity=".7"/>
        </linearGradient>
        <linearGradient id="prefix__b" x1="81.047%" x2="62.286%" y1="-3.465%" y2="28.719%">
            <stop offset="0%"/>
            <stop offset="100%" stop-opacity="0"/>
        </linearGradient>
        <linearGradient id="prefix__c" x1="64.005%" x2="56.546%" y1="86.388%" y2="67.031%">
            <stop offset="0%"/>
            <stop offset="100%" stop-opacity="0"/>
        </linearGradient>
    </defs>
    <g fill="none" fill-rule="evenodd">
        <g fill="#BABABA">
            <path d="M6.458.24C5.853.24 5.36.73 5.36 1.33v3.376L2.417.86C2.185.565 1.875.262 1.324.262h-.182C.52.262.033.747.033 1.365v6.362c0 .602.493 1.093 1.098 1.093.605 0 1.097-.49 1.097-1.093V4.216L5.296 8.22c.232.296.542.599 1.094.599h.056c.622 0 1.109-.486 1.109-1.104V1.331C7.555.73 7.063.24 6.458.24M23.5.24c-.58 0-.992.38-1.145.761l-1.631 4.2-1.609-4.144c-.199-.512-.643-.818-1.189-.818-.674 0-1.201.52-1.201 1.185 0 .21.063.392.126.542l2.51 5.976.001-.003c.241.57.697.88 1.284.88h.111c.587 0 1.043-.31 1.285-.88l2.53-6.023c.044-.1.118-.298.118-.515C24.69.75 24.167.24 23.5.24M31.33 6.43h-3.142v-.864h2.588c.614 0 1.113-.426 1.113-1.03 0-.612-.499-1.043-1.113-1.043h-2.588V2.63h3.086c.614 0 1.113-.512 1.113-1.117 0-.61-.5-1.128-1.113-1.128h-4.29c-.674 0-1.053.476-1.053 1.146v6.01c0 .67.379 1.135 1.052 1.135h4.347c.613 0 1.112-.512 1.112-1.117 0-.61-.499-1.128-1.112-1.128M37.51 4.32h-1.358v-1.9h1.358c.337 0 1.056.114 1.056.95s-.719.95-1.056.95m3.502-1.15v-.022c0-.815-.291-1.484-.793-1.983-.58-.578-1.473-.859-2.53-.859h-2.687c-.674 0-1.28.476-1.28 1.146v6.105c0 .67.542 1.195 1.215 1.195.674 0 1.215-.525 1.215-1.195V6.18h.892l1.583 1.996c.304.385.669.576 1.116.576.638 0 1.157-.505 1.157-1.127 0-.39-.173-.64-.356-.87l-.906-1.124c.884-.51 1.374-1.353 1.374-2.461M12.962 5.244h-1l1-2.368 1 2.368h-1zm4.035 1.934l-2.698-6.064c-.251-.559-.73-.88-1.315-.88h-.044c-.585 0-1.064.321-1.316.88L8.927 7.178c-.065.141-.13.312-.13.506 0 .64.498 1.14 1.135 1.14.491 0 .905-.219 1.107-.683l.451-.997h2.944l.45.997c.203.464.616.683 1.108.683.637 0 1.135-.5 1.135-1.14 0-.194-.066-.365-.13-.506zM57.65.42c-.607-.283-1.33-.02-1.614.584l-1.72 3.675-1.719-3.675c-.207-.443-.65-.699-1.112-.695V.306h-7.15c-.623 0-1.128.503-1.128 1.123s.505 1.123 1.128 1.123h1.938v4.991c0 .668.544 1.21 1.215 1.21s1.215-.542 1.215-1.21V2.552h1.938l2.575 5.502c.206.44.644.695 1.1.695.458 0 .895-.255 1.101-.695l2.822-6.028c.283-.605.02-1.324-.588-1.606" transform="translate(13 10) translate(15.622 2.47)"/>
        </g>
        <g opacity=".7">
            <path fill="url(#prefix__a)" fill-rule="nonzero" d="M0 1.474L3.597 1.474 3.597 11.789 0 11.789z" transform="translate(13 10)"/>
            <path fill="#FFF" fill-rule="nonzero" d="M11.222 6.05c-.539-.895-1.676-1.157-2.544-.601L.866 10.482c-.868.556-1.123 1.73-.584 2.625s1.676 1.158 2.544.602l7.827-5.049c.853-.556 1.123-1.729.569-2.61z" transform="translate(13 10)"/>
            <path fill="#FFF" fill-rule="nonzero" d="M10.635 5.315L2.81.29C1.958-.265.82-.002.282.891c-.539.894-.284 2.066.583 2.62l7.825 5.04c.868.556 2.005.294 2.543-.6.54-.894.27-2.066-.598-2.636z" transform="translate(13 10)"/>
            <path d="M8.633 8.842L6.475 7.368z" transform="translate(13 10)"/>
            <path fill="url(#prefix__b)" fill-rule="nonzero" d="M8.411 8.916L5.98 7.368.838 10.641c-.84.53-1.087 1.651-.565 2.506.521.855 1.622 1.106 2.462.575l6.618-4.216-.942-.59z" opacity=".5" transform="translate(13 10)"/>
            <path fill="url(#prefix__c)" fill-rule="nonzero" d="M3.597 2.211L0 2.211 0 11.053 3.597 8.725z" opacity=".2" transform="translate(13 10)"/>
        </g>
    </g>
</svg>
