<svg xmlns="http://www.w3.org/2000/svg" width="100" height="33" viewBox="0 0 100 33">
    <path fill="#BABABA" fill-rule="evenodd" d="M56.056 11.43c-.606 0-1.08.49-1.08 1.116v5.983l-3.427-6.175c-.337-.587-.89-.897-1.523-.897-.974 0-1.654.715-1.654 1.737v7.45c0 .612.502 1.13 1.094 1.13.598 0 1.066-.496 1.066-1.13v-6.165l3.538 6.343c.438.764 1.106.924 1.553.924.861 0 1.513-.691 1.513-1.61v-7.59c0-.625-.475-1.117-1.08-1.117zm8.725 5.782c-.1 1.546-.955 2.329-2.536 2.329h-1.517v-5.906h1.517c1.628 0 2.462.798 2.55 2.437.016.38.011.796-.014 1.14zm-2.578-5.727h-2.136c-.919 0-1.513.583-1.513 1.483v7.225c0 .882.622 1.497 1.513 1.497h2.136c2.88 0 4.572-1.558 4.765-4.39.021-.356.035-.913-.016-1.538-.188-2.758-1.875-4.277-4.75-4.277zm-20.558 5.38l1.088-3.199c.007-.02.032-.087.113-.087.05 0 .084.043.1.094l1.071 3.192h-2.372zm3.18-4.068c-.334-.923-1.054-1.452-1.98-1.452-.916 0-1.632.53-1.965 1.452l-2.653 7.437c-.2.571.078 1.222.605 1.419.126.05.259.076.393.076.444 0 .853-.281 1.02-.704l.74-2.18h3.707l.737 2.18c.142.414.547.692 1.01.692.14 0 .277-.026.403-.078.521-.2.804-.858.607-1.405l-2.624-7.437zm-10.753 6.785h-2.299v-2.13h2.326c.553 0 1.211.184 1.211 1.065 0 .727-.394 1.065-1.238 1.065zm-2.299-5.961h2.159c.79 0 1.126.276 1.126.925 0 .641-.368.953-1.126.953h-2.159v-1.878zm4.402 2.758c.693-.44 1.056-1.17 1.056-2.129 0-1.332-.932-2.765-2.977-2.765h-3.142c-.89 0-1.512.622-1.512 1.512v7.196c0 .896.607 1.497 1.512 1.497h3.183c2.004 0 3.202-1.122 3.202-3.004 0-1.078-.49-1.921-1.322-2.307zm27.674 7.944h-31.96c-4.224 0-7.661-3.456-7.661-7.703 0-4.298 3.437-7.793 7.661-7.793h31.96c4.225 0 7.663 3.495 7.663 7.793 0 4.247-3.438 7.703-7.663 7.703zm.207-16.748H31.683c-4.86 0-8.813 4.057-8.813 9.045 0 5.021 3.871 8.955 8.813 8.955h32.373c4.942 0 8.814-3.934 8.814-8.955 0-4.988-3.954-9.045-8.814-9.045z"/>
</svg>
