<svg xmlns="http://www.w3.org/2000/svg" xmlns:xlink="http://www.w3.org/1999/xlink" width="100" height="33" viewBox="0 0 100 33">
    <defs>
        <path id="prefix__a" d="M0 0.654L19.581 0.654 19.581 14.25 0 14.25z"/>
    </defs>
    <g fill="none" fill-rule="evenodd">
        <g transform="translate(19 9) translate(0 .096)">
            <mask id="prefix__b" fill="#fff">
                <use xlink:href="#prefix__a"/>
            </mask>
            <path fill="#BABABA" d="M7.832 10.365V4.54l5.087 2.913-5.087 2.913zm11.34-7.588c-.226-.836-.889-1.493-1.732-1.717C15.913.654 9.79.654 9.79.654s-6.123 0-7.65.406C1.298 1.284.634 1.941.41 2.777c-.41 1.515-.41 4.675-.41 4.675s0 3.16.41 4.675c.225.836.89 1.493 1.731 1.717 1.527.406 7.65.406 7.65.406s6.123 0 7.65-.406c.843-.224 1.506-.881 1.731-1.717.41-1.515.41-4.675.41-4.675s0-3.16-.41-4.675z" mask="url(#prefix__b)"/>
        </g>
        <path fill="#BABABA" d="M30.592 11.785c.107-.277.16-.731.16-1.361V7.771c0-.611-.053-1.057-.16-1.34-.108-.283-.297-.424-.567-.424-.262 0-.446.141-.554.424-.107.283-.16.729-.16 1.34v2.653c0 .63.05 1.084.153 1.361.103.278.29.417.56.417.271 0 .46-.14.568-.417M28.42 13.12c-.387-.26-.662-.662-.826-1.208-.163-.547-.245-1.274-.245-2.181V8.494c0-.917.093-1.653.28-2.21.187-.554.479-.96.876-1.214.396-.255.917-.382 1.56-.382.635 0 1.144.13 1.527.389.382.259.663.664.84 1.215.177.55.266 1.285.266 2.202V9.73c0 .907-.086 1.637-.259 2.187-.173.552-.453.954-.84 1.209-.388.255-.913.381-1.575.381-.682 0-1.216-.13-1.604-.388M58.407 6.166c-.098.121-.163.318-.196.59-.033.274-.05.688-.05 1.244v.61h1.415V8c0-.547-.018-.96-.056-1.243-.037-.282-.104-.482-.203-.597-.098-.117-.25-.174-.455-.174-.206 0-.357.06-.455.18zm-.245 3.584v.43c0 .547.016.957.049 1.23s.1.472.203.597c.103.125.261.188.476.188.289 0 .488-.112.595-.334.107-.222.166-.592.175-1.111l1.666.097c.01.074.015.176.015.306 0 .787-.217 1.375-.651 1.764-.434.389-1.048.583-1.842.583-.952 0-1.62-.296-2.002-.889-.383-.592-.574-1.509-.574-2.75V8.375c0-1.278.198-2.21.595-2.799.397-.588 1.076-.882 2.037-.882.663 0 1.172.12 1.526.36.355.242.604.617.75 1.126.144.51.216 1.213.216 2.111V9.75h-3.234zM23.716 9.59l-2.199-7.875h1.92l.769 3.57c.196.88.34 1.63.434 2.25h.056c.066-.445.21-1.19.434-2.237l.798-3.583h1.918L25.621 9.59v3.779h-1.905V9.59zM38.938 4.854v8.514h-1.512l-.168-1.041h-.042c-.41.787-1.027 1.18-1.849 1.18-.57 0-.989-.184-1.26-.555-.271-.37-.406-.95-.406-1.736V4.854h1.932v6.25c0 .38.043.651.127.813.083.162.223.243.42.243.168 0 .329-.05.483-.153.154-.101.268-.23.343-.388V4.854h1.932zM48.85 4.854v8.514h-1.512l-.168-1.041h-.042c-.411.787-1.027 1.18-1.85 1.18-.568 0-.988-.184-1.259-.555-.271-.37-.406-.95-.406-1.736V4.854h1.932v6.25c0 .38.042.651.126.813.084.162.224.243.42.243.169 0 .33-.05.484-.153.153-.101.268-.23.342-.388V4.854h1.933z" transform="translate(19 9)"/>
        <path fill="#BABABA" d="M44.189 3.257L42.271 3.257 42.271 13.368 40.381 13.368 40.381 3.257 38.462 3.257 38.462 1.715 44.189 1.715zM53.474 9.688c0 .62-.026 1.107-.077 1.459-.052.352-.138.602-.26.75-.12.148-.284.222-.49.222-.158 0-.305-.037-.44-.111-.136-.074-.245-.185-.33-.334V6.841c.066-.231.178-.421.337-.57.158-.147.33-.222.518-.222.196 0 .347.077.455.229.107.153.182.41.224.771.042.362.063.875.063 1.542v1.097zm1.772-3.473c-.118-.536-.307-.925-.568-1.166-.261-.241-.621-.362-1.078-.362-.355 0-.686.1-.994.299-.308.2-.547.461-.714.785h-.014V1.285h-1.862v12.084h1.596l.196-.806h.042c.149.287.373.514.672.68.299.168.63.25.994.25.654 0 1.135-.298 1.442-.895.308-.597.462-1.53.462-2.8V8.453c0-.954-.058-1.7-.174-2.237z" transform="translate(19 9)"/>
    </g>
</svg>
