<svg xmlns="http://www.w3.org/2000/svg" width="100" height="33" viewBox="0 0 100 33">
    <path fill="#BABABA" fill-rule="evenodd" d="M66.612 8l-2.258 3.132H60.34l-1.342 1.342v-1.342h-3.134V8h-9.839v3.132H32.18L29.923 8H25v10.738L31.263 25h6.263v-1.79l1.79 1.79h12.077v-1.79l1.79 1.79h5.815v-1.79l1.79 1.79h11.184L76 20.973V13.37l-2.24-2.237h-2.237V8h-4.91zm.434.897h3.581v3.13h2.685l1.79 1.79v6.264h-3.58v-4.475h-.895v4.475h-3.581V8.897zm-15.654 9.396V8.897h3.58v3.13h3.134l-.003 3.58H54.97v.896h3.133v3.58h-4.92l-1.79-1.79zm-4.474-7.161h3.58V8.897h-3.58v2.235zm-21.023 7.16V8.898h3.58v3.13h3.133l-.004 3.58h-3.128v.896h3.132v3.58h-4.923l-1.79-1.79zm33.102 0v-4.476l1.79-1.79h5.368v3.58h-3.58v.897h3.58v3.58h-5.369l-1.789-1.79zm-12.079 1.789h3.58v-8.054h-3.58v8.054zM42.45 16.5v-4.474h3.58l-.007 8.054H35.289l-1.79-1.79v-6.264h3.58V16.5h.895v-4.474h3.58V16.5h.896z"/>
</svg>
