<svg xmlns="http://www.w3.org/2000/svg" xmlns:xlink="http://www.w3.org/1999/xlink" width="100" height="33" viewBox="0 0 100 33">
    <defs>
        <path id="prefix__a" d="M0.091 0.006L5.581 0.006 5.581 2.083 0.091 2.083z"/>
        <path id="prefix__c" d="M0 0.017L11.84 0.017 11.84 11.395 0 11.395z"/>
    </defs>
    <g fill="none" fill-rule="evenodd">
        <g fill="#BABABA">
            <path d="M8.68 2.648S8.648.248 11.396.222h2.575c.551 0 1.019.386 1.019.858 0 .483-.468.87-1.02.87H12.78c-.79.004-.722.573-.722.573v1.12h1.438c.57 0 1.037.367 1.037.836 0 .482-.406.852-.96.852h-1.515v5.687c0 .8-.69 1.512-1.654 1.512-.958 0-1.723-.648-1.723-1.46V2.648zM18.25 11.007c0 .865-.693 1.523-1.653 1.523-.947 0-1.728-.658-1.728-1.46V5.949s0-2.26 2.792-2.26h2.213c1.158 0 1.158.887 1.158.887s0 .853-1.083.853h-.977c-.722 0-.722.559-.722.559v5.02zM34.125 5.438c-.75 0-.75.545-.75.545v1.495h2.132V6.022s0-.584-.676-.584h-.706zm.554-1.811c2.887 0 2.887 2.32 2.887 2.32v2.4c0 .484-.468.84-1.039.84l-3.184-.003.001 1.032s.032.542.766.542l1.786.003c.574 0 1.024.382 1.024.866 0 .48-.466.903-1.024.903H32.76c-2.752 0-2.752-2.289-2.752-2.289V5.946s.021-2.294 2.773-2.319h1.9zM44.801 10.804c.573-.015 1.084.43 1.084.913 0 .484-.511.813-1.084.813h-4.497c-.946 0-1.63-.572-1.63-1.383V5.088c0-.803.781-1.46 1.728-1.46h4.573c.576 0 1.025.38 1.025.86 0 .484-.45.84-1.025.84h-2.44c-.419 0-.419.357-.419.357l-.002 4.748s-.028.369.421.369l2.266.002zM48.902 10.775h1.367v-2.04l-1.367.003c-.746 0-.674 1.018-.674 1.018s-.079 1.02.674 1.02m4.805-4.848v5.114c0 .814-.787 1.488-1.749 1.488H49.04c-2.874 0-2.874-2.316-2.874-2.316V9.07s.18-2.092 2.874-2.082h1.234V5.94s0-.54-.677-.54h-1.564c-.573 0-1.127-.337-1.127-.82 0-.484.525-.948 1.097-.948h2.95c2.754.013 2.754 2.297 2.754 2.297M61.736 1.383s0-.78-1.036-.78h-7.185c-1.036 0-1.036.757-1.036.757s0 .751.97.751h1.503c.645 0 .645.49.645.49v4.632c0 .761.62 1.341 1.48 1.341.845 0 1.544-.58 1.544-1.284V2.594c.012-.106.093-.46.642-.46h1.503c.97 0 .97-.751.97-.751M2.738 10.774h1.367V8.736H2.738c-.774 0-.674 1.019-.674 1.019s-.079 1.02.674 1.02m4.807-4.851v5.118c0 .814-.786 1.488-1.75 1.488H2.878C0 12.53 0 10.213 0 10.213V9.068s.182-2.094 2.877-2.084h1.232V5.935s0-.54-.676-.54H1.867c-.572 0-1.129-.336-1.129-.821 0-.485.53-.949 1.1-.949H4.79c2.754.014 2.754 2.299 2.754 2.299M25.47 5.438c-.75 0-.75.545-.75.545v1.495h2.131V6.022s0-.584-.675-.584h-.706zm.554-1.811c2.888 0 2.888 2.32 2.888 2.32v2.4c0 .484-.47.84-1.04.84l-3.183-.003v1.032s.031.542.766.542l1.786.003c.574 0 1.024.382 1.024.866 0 .48-.466.903-1.024.903h-3.136c-2.753 0-2.753-2.289-2.753-2.289V5.946s.02-2.294 2.773-2.319h1.899z" transform="translate(9 10) translate(0 1)"/>
            <path d="M68.052.858c-.676-.454-1.629-.218-2.13.527L63.2 5.035l-.98-2.114c-.18-.396-.962-.586-1.377-.393-.417.19-.672.788-.488 1.184l1.795 4.126c.141.3.46.55.966.671.455.11 1.312-.01 1.812-.754l3.447-4.728c.5-.745.355-1.716-.322-2.17" transform="translate(9 10) translate(0 1)"/>
        </g>
        <g>
            <g transform="translate(9 10) translate(70) translate(3.568 .32)">
                <mask id="prefix__b" fill="#fff">
                    <use xlink:href="#prefix__a"/>
                </mask>
                <path fill="#B7B7B7" d="M.292 1.19l1.652.785c.288.128.49.154.791.017L5.29.828c.246-.085.362-.357.247-.591-.11-.223-.384-.294-.6-.171L2.605 1.57c-.062.035-.101.056-.148.067-.114.025-.258.02-.396-.095L.789.516C.614.351.336.38.18.564c-.146.184-.118.498.111.626" mask="url(#prefix__b)"/>
            </g>
            <g transform="translate(9 10) translate(70) translate(0 2.599)">
                <mask id="prefix__d" fill="#fff">
                    <use xlink:href="#prefix__c"/>
                </mask>
                <path fill="#B7B7B7" d="M9.01 7.913c-1.523 1.424-4.708 1.422-6.196-.002-.102-.1-.108-.266-.007-.368.098-.105.264-.11.367-.01 1.288 1.237 4.16 1.236 5.484 0 .106-.1.269-.094.368.012.096.105.091.27-.017.368M4.23 5.471l.002-.033.002-.023.002-.022.089-.973.088-.973.01-.105c.005-.034.011-.068.02-.101.024-.098.062-.19.113-.274.1-.168.25-.305.427-.39.088-.043.184-.074.285-.089.047-.007.096-.01.145-.011h1.003c.052 0 .103.006.153.014l.014.001c.295.052.545.232.693.48.049.084.086.174.11.27.01.042.018.084.023.127l.005.055.16 1.78.017.178.007.078v.011l.001.039c0 .439-.278.812-.667.952-.056.02-.114.035-.173.045-.054.009-.108.014-.164.014H5.234c-.044 0-.088-.003-.13-.009-.043-.006-.085-.014-.125-.024-.108-.03-.209-.075-.3-.136-.09-.06-.17-.135-.237-.22-.067-.086-.12-.183-.156-.287-.037-.105-.057-.218-.057-.335l.001-.039m7.583-.855l-.4.298c-.182.135-.366.27-.565.405-.16.109-.307.204-.436.285-.386.242-.614.36-.614.36-.042.024-.089.048-.138.07l-.047.017c-.036.014-.073.027-.111.039l-.057.015c-.04.01-.082.019-.124.026l-.05.008c-.06.008-.119.013-.178.013h-.004c-.045 0-.088-.003-.132-.008-.012 0-.024-.003-.036-.004-.035-.005-.068-.012-.101-.02l-.038-.01c-.043-.012-.086-.026-.125-.045-.067-.03-.127-.068-.179-.109-.052-.04-.098-.086-.138-.133-.04-.046-.073-.095-.102-.144-.014-.024-.028-.049-.04-.073-.035-.073-.061-.143-.08-.204-.012-.041-.02-.079-.026-.11l-.008-.042-.007-.052-.001-.007s-.005-.032-.011-.092l-.013-.11-.008-.07-.018-.167-.02-.202c-.016-.182-.033-.396-.05-.635-.03-.463-.053-.92-.062-1.381-.002-.157.023-.291.063-.404.02-.056.044-.107.07-.153.012-.023.025-.045.039-.065.053-.082.111-.144.159-.187.059-.055.102-.08.102-.08.041-.027.085-.05.13-.072.014-.006.029-.011.043-.018.032-.013.064-.025.097-.035.017-.006.035-.01.052-.015.032-.009.064-.015.097-.02l.054-.01c.036-.004.071-.006.108-.007l.035-.002h.014l.037.002c.03.001.06.003.09.007l.044.006c.03.005.06.011.089.018l.039.01c.042.011.084.025.124.041.069.028.14.057.212.088.108.045.218.094.324.14.247.11.472.216.604.278l.12.058c.203.1.392.193.582.293.128.067.26.14.396.218-.009-.057-.015-.116-.024-.174-.028-.19-.105-.45-.114-.482-.243-.85-1.163-1.213-1.163-1.213C10.021.624 9.385.45 9.385.45 8.288.172 7.142.02 5.96.017H5.88s-1.795-.013-3.47.43c-.615.163-.89.3-.89.3-.485.221-.876.566-1.083 1.05l.06-.036c.043-.025.088-.048.134-.07l.048-.025c.062-.03.125-.057.189-.081.014-.006.03-.01.044-.015.05-.019.1-.036.152-.05.023-.008.046-.013.07-.02l.135-.032.073-.014c.049-.008.098-.015.147-.02l.063-.008c.07-.006.139-.01.209-.01h.004l.017.001c.065 0 .13.005.195.01l.065.008c.052.006.105.014.157.023l.064.012c.073.016.145.034.217.056.682.21 1.118.6 1.334 1.102.217.502.214 1.114.02 1.766-.023.076-.05.15-.077.222l-.03.068-.061.14-.04.075-.067.12c-.015.025-.03.05-.047.073-.023.037-.048.073-.074.108l-.05.068c-.028.035-.057.069-.086.102l-.052.06c-.033.035-.068.068-.103.101l-.045.043c-.052.046-.105.09-.16.13l-.022.016c-.048.034-.097.067-.147.098l-.062.034c-.039.023-.078.045-.118.065l-.073.033-.116.05-.078.028-.12.038-.08.022c-.042.01-.085.02-.128.028l-.076.015c-.051.009-.103.014-.154.02l-.057.006c-.07.006-.139.009-.21.009h-.005c-.052 0-.104-.004-.156-.007l-.08-.004c-.08-.007-.16-.018-.241-.032-.331-.057-.64-.218-.905-.444C.073 5.645.038 5.608 0 5.57v.009c0 1.36.134 2.69.396 3.973.104.51.339.756.339.756.254.334.62.576 1.042.672l.09.018c1.311.26 2.666.396 4.053.396 1.393 0 2.753-.138 4.07-.4l.064-.013c.695-.153 1.242-.706 1.386-1.408l.002-.008c.261-1.288.398-2.62.398-3.986 0-.323-.011-.644-.027-.964" mask="url(#prefix__d)"/>
            </g>
            <path fill="#B7B7B7" d="M9.807 7.226c-.469 0-.85-.382-.85-.852 0-.471.381-.853.85-.853s.849.382.849.853c0 .47-.38.852-.85.852m1.825-1.465l-.01-.005-.018-.009-.017-.01c-.4-.24-.714-.398-1.149-.612-.003-.002-.7-.337-1.227-.55-.085-.033-.175-.05-.267-.05-.132 0-.262.036-.366.104l-.013.009c-.039.027-.217.172-.211.486.007.415.027.847.061 1.36.05.737.116 1.24.116 1.244l.002.014v.013c.002.01.04.362.318.491.061.03.144.045.239.045.188 0 .371-.061.469-.122l.015-.01.017-.007c.003-.002.393-.204 1.001-.616.25-.17.473-.336.71-.513.13-.097.261-.196.4-.296.03-.022.053-.047.077-.072-.022-.286-.05-.57-.083-.853-.011-.008-.021-.017-.033-.024l-.031-.017M5.096 8.64c.045.013.092.02.14.02H6.59c.033 0 .063-.003.094-.008.264-.045.457-.273.457-.543v-.024l-.007-.063-.177-1.958-.004-.048c-.003-.022-.007-.044-.012-.064-.052-.21-.223-.37-.437-.408-.03-.005-.06-.008-.09-.008H5.413c-.025 0-.051.002-.077.006-.215.033-.396.197-.449.41l-.009.044-.008.091-.177 1.946-.004.039v.015l-.001.022c0 .25.168.468.408.532M1.842 5.521c.469 0 .849.382.849.853 0 .47-.38.852-.85.852-.468 0-.848-.382-.848-.852 0-.471.38-.853.849-.853m-.746 2.747c.136.024.272.036.404.036.916 0 1.623-.54 1.893-1.443.201-.675.333-1.87-1.048-2.296-.192-.06-.389-.09-.585-.09-.554 0-1.104.243-1.527.647-.128.766-.196 1.55-.221 2.345.282.432.676.73 1.084.801" transform="translate(9 10) translate(70)"/>
        </g>
    </g>
</svg>
