<svg xmlns="http://www.w3.org/2000/svg" xmlns:xlink="http://www.w3.org/1999/xlink" width="100" height="33" viewBox="0 0 100 33">
    <defs>
        <path id="prefix__a" d="M0 0.211L17.256 0.211 17.256 19 0 19z"/>
    </defs>
    <g fill="none" fill-rule="evenodd" transform="translate(19 7)">
        <path fill="#BABABA" d="M31.486 4.957L31.486 14.043 37.286 14.043 37.286 11.01 34.699 11.01 34.699 4.957zM38.114 14.043L41.429 14.043 41.429 4.957 38.114 4.957zM52.2 4.957L52.206 14.043 58 14.043 58 11.439 55.351 11.439 55.351 10.734 57.696 10.734 57.69 8.239 55.351 8.239 55.351 7.56 57.926 7.56 57.926 4.957zM26.264 4.957L25.035 9.217 24.9 9.684 24.851 9.684 24.707 9.217 23.444 4.957 19.886 4.957 23.416 14.043 26.312 14.043 29.829 4.957zM47.811 4.957L46.574 9.217 46.439 9.684 46.39 9.684 46.252 9.217 44.989 4.957 41.429 4.957 44.96 14.043 47.853 14.043 51.371 4.957z"/>
        <mask id="prefix__b" fill="#fff">
            <use xlink:href="#prefix__a"/>
        </mask>
        <path fill="#BABABA" d="M11.854 7.182c.763.17.91.84.785 1.265l-1 3.283c-.165.54-.717.878-1.257.767-.285-.058-.602-.262-.75-.6.62-.372 1.048-1.035 1.077-1.792.016-.435-.126-.854-.401-1.206l.289-.95c.144-.471.655-.9 1.257-.767M3.005 2.198c.6-.122 1.207.242 1.384.827l1.19 3.843c.227.659.868.641.868.641s.636.028.868-.64l1.19-3.844c.177-.586.787-.953 1.384-.827.896.189 1.008.997.88 1.378L9.374 8.21c-.264-.102-.547-.157-.834-.157H3.472L2.124 3.575c-.165-.551.158-1.231.881-1.377M2.55 12.521v-2.49c0-.568.5-.959 1.019-.959H8.54c.191 0 1.087.114 1.087 1.062 0 .949-.897 1.062-1.124 1.062H5.66c-.3 0-.542.229-.542.51 0 .282.242.51.542.51h.302c.774 0 1.38.594 1.38 1.352v.534c0 .281.242.51.541.51.3 0 .542-.229.542-.51v-.534c0-.506-.157-.97-.428-1.352h.608c.299.769.968 1.152 1.548 1.277.9.194 1.721-.23 2.133-.728.222.247.507.404.828.517-.458 2.195-2.554 3.757-5.244 3.757-3.582 0-5.319-2.65-5.319-4.518m11.083-.155c-.643-.138-.84-.755-.73-1.09.007-.018.548-1.804.558-1.828.15-.389.566-.736 1.112-.628.697.138.832.83.713 1.147l-.519 1.701c-.111.366-.541.826-1.134.698m3.258-4.202c-.615-.968-1.507-1.39-2.722-1.283-.206-.492-.737-1.229-1.802-1.425l.397-1.317c.26-.762.145-1.66-.308-2.4-.46-.753-1.214-1.27-2.125-1.457C8.66-.061 6.979.909 6.5 2.49l-.054.23-.054-.232C5.91.902 4.227-.067 2.559.282 1.663.47.919.972.462 1.698.006 2.423-.122 3.326.12 4.111L1.303 8.04C.77 8.576.467 9.29.467 10.03v2.523C.574 16.229 3.763 19 7.886 19c1.73 0 3.342-.499 4.663-1.44 1.246-.89 2.142-2.142 2.537-3.54.748-.32 1.232-.91 1.515-1.838l.518-1.702c.194-.643.236-1.589-.227-2.316" mask="url(#prefix__b)"/>
    </g>
</svg>
