<svg xmlns="http://www.w3.org/2000/svg" width="30" height="30" viewBox="0 0 30 30">
    <g fill="none" fill-rule="evenodd">
        <g fill="#EFFC35">
            <g>
                <path d="M21.533 8.344c.251-.33.721-.392 1.052-.14.33.252.391.722.14 1.05l-.925 1.21V22c0 1.547-1.254 2.8-2.8 2.8h-8c-.055 0-.107-.01-.159-.012l-.8 1.046c-.149.193-.372.294-.598.294-.158 0-.318-.05-.455-.154-.329-.252-.392-.723-.14-1.051zm-1.333 4.21L12.054 23.2H19c.662 0 1.2-.537 1.2-1.2v-9.445zM19 7.2c.478 0 .921.13 1.315.342l-1.01 1.32c-.1-.027-.197-.062-.305-.062l-1-.001v1.2c0 .277-.223.5-.5.5h-5c-.276 0-.5-.223-.5-.5V8.8h-1c-.622 0-1.133.473-1.194 1.078L9.8 10v11.283l-1.381 1.805c-.14-.335-.219-.702-.219-1.088V10c0-1.546 1.253-2.8 2.8-2.8z" transform="translate(-1088 -1194) translate(1088 1194)"/>
            </g>
        </g>
    </g>
</svg>
