<svg width="30" height="30" viewBox="0 0 30 30" fill="none" xmlns="http://www.w3.org/2000/svg">
<path fill-rule="evenodd" clip-rule="evenodd" d="M11 7.19995H19C20.5463 7.19995 21.8 8.45355 21.8 9.99995V22C21.8 23.5463 20.5463 24.8 19 24.8H11C9.45355 24.8 8.19995 23.5463 8.19995 22V9.99995C8.19995 8.45355 9.45355 7.19995 11 7.19995ZM19 8.79995H11C10.3372 8.79995 9.79995 9.33721 9.79995 9.99995V22C9.79995 22.6627 10.3372 23.2 11 23.2H19C19.6627 23.2 20.2 22.6627 20.2 22V9.99995C20.2 9.33721 19.6627 8.79995 19 8.79995Z" fill="#7A7F34"/>
<rect x="12" y="8" width="6" height="2.5" rx="0.5" fill="#7A7F34"/>
</svg>
