<svg width="30" height="30" viewBox="0 0 30 30" fill="none" xmlns="http://www.w3.org/2000/svg">
<path fill-rule="evenodd" clip-rule="evenodd" d="M19 7.19995H11C9.45355 7.19995 8.19995 8.45355 8.19995 9.99995V22C8.19995 23.5463 9.45355 24.8 11 24.8H19C20.5463 24.8 21.8 23.5463 21.8 22V9.99995C21.8 8.45355 20.5463 7.19995 19 7.19995ZM18 8.79995H19C19.6627 8.79995 20.2 9.33721 20.2 9.99995V22C20.2 22.6627 19.6627 23.2 19 23.2H11C10.3372 23.2 9.79995 22.6627 9.79995 22V9.99995C9.79995 9.33721 10.3372 8.79995 11 8.79995H12V9.99995C12 10.2761 12.2238 10.5 12.5 10.5H17.5C17.7761 10.5 18 10.2761 18 9.99995V8.79995Z" fill="#EFFC35"/>
</svg>
