<svg xmlns="http://www.w3.org/2000/svg" width="24" height="18" viewBox="0 0 24 18">
    <g fill="none" fill-rule="evenodd">
        <g fill="#444">
            <g>
                <path d="M20.139 13.615c.316 0 .575.259.575.575v.23c0 .316-.26.575-.575.575h-5.75c-.317 0-.575-.259-.575-.575v-.23c0-.083.02-.16.05-.231.09-.201.291-.344.525-.344zM11.322 1.15l2.88 2.185.19.145c.176.134.281.342.281.564 0 .222-.105.43-.28.564l-.19.144-2.881 2.185-.858-1.128 1.395-1.057H7.612c-2.148 0-3.896 1.748-3.896 3.895 0 2.147 1.748 3.895 3.896 3.895h5.302c.086.143.19.272.311.383-.288.266-.483.627-.538 1.034H7.612c-2.922 0-5.312-2.39-5.312-5.312 0-2.92 2.39-5.312 5.312-5.312h4.246l-1.394-1.057.858-1.128zm8.816 9.706c.025 0 .045.011.07.013.282.036.505.27.505.562v.23c0 .316-.257.575-.575.575h-5.75c-.316 0-.575-.26-.575-.575v-.23c0-.317.259-.575.575-.575zm0-2.76c.313 0 .57.255.574.567l.002.008v.23c0 .08-.019.158-.05.229-.088.202-.29.346-.525.346h-5.75c-.317 0-.575-.26-.575-.575v-.23c0-.317.258-.575.575-.575zm-4.176-4.73c2.09.221 3.811 1.675 4.46 3.608-.092-.015-.186-.029-.283-.029h-1.252c-.558-1.138-1.646-1.972-2.95-2.152.09-.238.151-.49.151-.749 0-.235-.051-.46-.126-.677z" transform="translate(-1004 -2748) translate(1004 2748)"/>
            </g>
        </g>
    </g>
</svg>
