<svg xmlns="http://www.w3.org/2000/svg" width="30" height="30" viewBox="0 0 30 30">
    <path fill="#7A7F34" fill-rule="evenodd" d="M22.135 7.8c.179 0 .353.064.482.175h.004l.037.037c.14.14.219.329.217.527 0 .198-.078.385-.22.525L8.304 23.42c-.143.14-.331.217-.528.217-.2 0-.385-.077-.525-.217-.141-.14-.22-.327-.22-.527.002-.055.022-.106.033-.16.032-.136.087-.265.189-.365L21.605 8.012c.117-.115.278-.177.446-.196.028-.003.053-.016.082-.016zm-.292 3.464v8.282c0 1.647-1.34 2.987-2.986 2.987-1.646 0-2.986-1.34-2.986-2.987 0-1.646 1.34-2.986 2.986-2.986.53 0 1.045.139 1.5.405V12.75l1.486-1.487zM19.71 8.035l-1.487 1.487h-6.25v2.095h4.156l-1.488 1.487h-2.667v2.667l-2.407 2.407c-.184-.079-.38-.132-.58-.132-.827 0-1.5.673-1.5 1.5 0 .2.054.395.133.58L6.523 21.22C6.183 20.724 6 20.147 6 19.546 6 17.9 7.34 16.56 8.988 16.56c.529 0 1.043.14 1.498.408V8.778c0-.409.334-.743.744-.743h8.48zm-.853 10.01c-.826 0-1.5.674-1.5 1.5 0 .828.674 1.5 1.5 1.5s1.5-.672 1.5-1.5c0-.826-.674-1.5-1.5-1.5z"/>
</svg>
