<svg xmlns="http://www.w3.org/2000/svg" width="90" height="90" viewBox="0 0 90 90">
    <path fill="#666" fill-rule="evenodd" d="M22.002 58C25.858 58 29 61.142 29 65.002 29 68.858 25.858 72 22.002 72 18.142 72 15 68.858 15 65.002 15 61.142 18.142 58 22.002 58zM36 28h39V18H36v10zm32.002 30C71.858 58 75 61.142 75 65.002 75 68.858 71.858 72 68.002 72 64.142 72 61 68.858 61 65.002 61 61.142 64.142 58 68.002 58zM78.53 11H32.428c-1.915 0-3.475 1.562-3.475 3.485v38.398c-2.13-1.248-4.53-1.9-7.001-1.9C14.259 50.983 8 57.268 8 64.993 8 72.716 14.259 79 21.952 79c7.688 0 13.947-6.285 13.947-14.01V34.776h39.155v18.106c-2.13-1.248-4.53-1.9-7.001-1.9-7.693 0-13.952 6.285-13.952 14.01C54.101 72.716 60.36 79 68.053 79S82 72.715 82 64.99V14.484C82 12.562 80.445 11 78.53 11z"/>
</svg>
