<svg xmlns="http://www.w3.org/2000/svg" width="26" height="25" viewBox="0 0 26 25">
    <path fill="#444" fill-rule="evenodd" d="M5.148 15.902c1.147 0 2.081.934 2.081 2.082 0 1.147-.934 2.082-2.081 2.082-1.149 0-2.083-.935-2.083-2.082 0-1.148.934-2.082 2.083-2.082zm4.146-8.928h11.641v-2.91H9.295v2.91zm9.56 8.928c1.147 0 2.081.934 2.081 2.082 0 1.147-.934 2.082-2.081 2.082-1.149 0-2.083-.935-2.083-2.082 0-1.148.934-2.082 2.083-2.082zM21.968 2H8.263c-.57 0-1.034.462-1.034 1.032v11.367c-.633-.37-1.347-.562-2.081-.562C2.86 13.837 1 15.697 1 17.984c0 2.286 1.86 4.147 4.148 4.147 2.286 0 4.146-1.86 4.146-4.148V9.04h11.641v5.36c-.633-.37-1.347-.562-2.081-.562-2.288 0-4.148 1.86-4.148 4.147 0 2.286 1.86 4.147 4.148 4.147 2.287 0 4.146-1.86 4.146-4.148V3.032C23 2.462 22.538 2 21.968 2z"/>
</svg>
