<svg xmlns="http://www.w3.org/2000/svg" width="90" height="90" viewBox="0 0 90 90">
    <path fill="#666" fill-rule="evenodd" d="M49.535 70.932c0 2.58-2.088 4.668-4.667 4.668-2.575 0-4.667-2.088-4.667-4.668 0-2.575 2.092-4.666 4.667-4.666 2.58 0 4.667 2.091 4.667 4.666zM16.62 14.977l54.71 54.709c1.303 1.303 1.303 3.413 0 4.714-.65.65-1.503.977-2.356.977s-1.705-.326-2.357-.977l-54.71-54.71c-1.303-1.3-1.303-3.411 0-4.713.65-.652 1.504-.977 2.357-.977.851 0 1.704.325 2.356.977zM37.87 51.31l5.692 5.693c-4.162.306-8.034 2.069-11.015 5.049-1.303 1.302-3.414 1.3-4.715-.001-1.301-1.302-1.301-3.413 0-4.714 2.85-2.847 6.287-4.894 10.037-6.027zM25.536 38.978l4.888 4.888c-2.656 1.417-5.118 3.235-7.307 5.423-1.3 1.302-3.412 1.302-4.715 0-1.3-1.302-1.3-3.412.002-4.714 2.174-2.174 4.569-4.044 7.132-5.597zm22.177 1.435L41.1 33.8c1.243-.124 2.5-.187 3.767-.187 9.996 0 19.394 3.893 26.463 10.962 1.302 1.3 1.302 3.41 0 4.713-.65.651-1.505.977-2.357.977-.853 0-1.706-.326-2.357-.977-5.133-5.134-11.762-8.225-18.903-8.876zm33.045-8.603c1.302 1.3 1.302 3.411 0 4.713-1.3 1.302-3.412 1.302-4.714 0-8.328-8.328-19.4-12.914-31.177-12.914-4.2 0-8.307.594-12.236 1.723l-5.288-5.287c5.539-2.034 11.449-3.102 17.524-3.102 13.557 0 26.305 5.28 35.89 14.867zm-66.774-4.384l4.753 4.753c-1.773 1.308-3.46 2.758-5.048 4.344-.65.652-1.504.977-2.357.977-.853 0-1.706-.325-2.357-.977-1.302-1.302-1.302-3.412 0-4.713 1.584-1.585 3.263-3.039 5.01-4.384z"/>
</svg>
