<?xml version="1.0" encoding="UTF-8"?>
<svg width="27px" height="14px" viewBox="0 0 27 14" version="1.1" xmlns="http://www.w3.org/2000/svg" xmlns:xlink="http://www.w3.org/1999/xlink">
    <title>02A73981-0E68-45A5-8602-6160F0C25DB5</title>
    <g id="Page-1" stroke="none" stroke-width="1" fill="none" fill-rule="evenodd">
        <g id="GUIDE_MusicPlaylist" transform="translate(-788.000000, -2848.000000)" fill-rule="nonzero">
            <g id="img_free" transform="translate(788.000000, 2848.000000)">
                <path d="M25,0 C26.1045695,0 27,0.8954305 27,2 L27,12 C27,13.1045695 26.1045695,14 25,14 L2,14 C0.8954305,14 0,13.1045695 0,12 L0,2 C0,0.8954305 0.8954305,0 2,0 L25,0 Z M25,1 L2,1 C1.48716416,1 1.06449284,1.38604019 1.00672773,1.88337887 L1,2 L1,12 C1,12.5128358 1.38604019,12.9355072 1.88337887,12.9932723 L2,13 L25,13 C25.5128358,13 25.9355072,12.6139598 25.9932723,12.1166211 L26,12 L26,2 C26,1.48716416 25.6139598,1.06449284 25.1166211,1.00672773 L25,1 Z" id="Rectangle" fill="#444444"></path>
                <path d="M5.86767578,10 L5.86767578,7.46875 L8.46484375,7.46875 L8.46484375,6.49316406 L5.86767578,6.49316406 L5.86767578,4.58154297 L8.96142578,4.58154297 L8.96142578,3.60595703 L4.78222656,3.60595703 L4.78222656,10 L5.86767578,10 Z M11.0180664,10 L11.0180664,7.91699219 C11.0180664,7.67675779 11.064209,7.4621582 11.1564941,7.27319336 C11.2487793,7.08422852 11.3864746,6.93408201 11.5695801,6.82275391 C11.7526856,6.7114258 11.96875,6.65576172 12.2177734,6.65576172 C12.3056641,6.65576172 12.4067383,6.66015625 12.5209961,6.66894531 L12.5209961,5.54833984 C12.4975586,5.54541013 12.4565429,5.54394531 12.3979492,5.54394531 C12.1313476,5.54394531 11.880127,5.60620119 11.6442871,5.73071289 C11.4084472,5.85522459 11.2041015,6.03466799 11.03125,6.26904297 L11.0180664,6.26904297 L11.0180664,5.60986328 L10.0117188,5.60986328 L10.0117188,10 L11.0180664,10 Z M15.3466797,10.0703125 C15.7568359,10.0703125 16.1179199,9.99560547 16.4299316,9.84619141 C16.7419434,9.69677734 16.9975586,9.49462891 17.1967773,9.23974609 L16.4936523,8.63769531 C16.2182617,8.98339846 15.8535156,9.15625 15.3994141,9.15625 C15.0771485,9.15625 14.8039551,9.06689455 14.579834,8.88818359 C14.3557129,8.70947263 14.2114258,8.46484377 14.1469727,8.15429688 L17.3461914,8.15429688 C17.3637695,8.04882812 17.3725586,7.91552737 17.3725586,7.75439453 C17.3725586,7.32958982 17.2861328,6.95019531 17.1132812,6.61621094 C16.9404297,6.28222656 16.6914062,6.02001951 16.3662109,5.82958984 C16.0410156,5.63916018 15.6660156,5.54394531 15.2412109,5.54394531 C14.9394531,5.54394531 14.6567383,5.59887695 14.3930664,5.70874023 C14.1293945,5.81860352 13.9023437,5.97167967 13.7119141,6.16796875 C13.5214844,6.36425783 13.3720703,6.60302734 13.2636719,6.88427734 C13.1552734,7.16552734 13.1010742,7.47167971 13.1010742,7.80273438 C13.1010742,8.25097656 13.1992187,8.64868164 13.3955078,8.99584961 C13.5917969,9.34301758 13.8598633,9.60888672 14.199707,9.79345703 C14.5395508,9.97802734 14.921875,10.0703125 15.3466797,10.0703125 Z M16.3618164,7.34130859 L14.1645508,7.34130859 C14.2348633,7.06005859 14.3710938,6.8425293 14.5732422,6.6887207 C14.7753906,6.53491211 15.015625,6.45800781 15.2939453,6.45800781 C15.4814453,6.45800781 15.6491699,6.49536133 15.7971191,6.57006836 C15.9450684,6.64477539 16.0651855,6.74731443 16.1574707,6.87768555 C16.2497559,7.00805666 16.3178711,7.16259763 16.3618164,7.34130859 Z M20.4003906,10.0703125 C20.8105469,10.0703125 21.1716309,9.99560547 21.4836426,9.84619141 C21.7956543,9.69677734 22.0512696,9.49462891 22.2504883,9.23974609 L21.5473633,8.63769531 C21.2719726,8.98339846 20.9072265,9.15625 20.453125,9.15625 C20.1308594,9.15625 19.857666,9.06689455 19.6335449,8.88818359 C19.4094238,8.70947263 19.2651367,8.46484377 19.2006836,8.15429688 L22.3999023,8.15429688 C22.4174805,8.04882812 22.4262695,7.91552737 22.4262695,7.75439453 C22.4262695,7.32958982 22.3398437,6.95019531 22.1669922,6.61621094 C21.9941406,6.28222656 21.7451172,6.02001951 21.4199219,5.82958984 C21.0947266,5.63916018 20.7197266,5.54394531 20.2949219,5.54394531 C19.993164,5.54394531 19.7104492,5.59887695 19.4467773,5.70874023 C19.1831055,5.81860352 18.9560547,5.97167967 18.765625,6.16796875 C18.5751953,6.36425783 18.4257813,6.60302734 18.3173828,6.88427734 C18.2089844,7.16552734 18.1547852,7.47167971 18.1547852,7.80273438 C18.1547852,8.25097656 18.2529297,8.64868164 18.4492188,8.99584961 C18.6455078,9.34301758 18.9135742,9.60888672 19.253418,9.79345703 C19.5932617,9.97802734 19.9755859,10.0703125 20.4003906,10.0703125 Z M21.4155273,7.34130859 L19.2182617,7.34130859 C19.2885742,7.06005859 19.4248047,6.8425293 19.6269531,6.6887207 C19.8291016,6.53491211 20.069336,6.45800781 20.3476562,6.45800781 C20.5351563,6.45800781 20.7028808,6.49536133 20.8508301,6.57006836 C20.9987793,6.64477539 21.1188965,6.74731443 21.2111816,6.87768555 C21.3034668,7.00805666 21.371582,7.16259763 21.4155273,7.34130859 Z" id="Free" fill="#666666"></path>
            </g>
        </g>
    </g>
</svg>