<svg xmlns="http://www.w3.org/2000/svg" width="86" height="35" viewBox="0 0 86 35">
    <g fill="none" fill-rule="evenodd">
        <rect width="86" height="35" fill="#444" rx="17.5"/>
        <path fill="#FFF" fill-rule="nonzero" d="M17.298 22v-3.161h1.441c.512 0 .975-.061 1.387-.184.413-.123.768-.307 1.067-.552.298-.246.528-.56.688-.94.161-.38.242-.82.242-1.32 0-.453-.064-.864-.19-1.232-.128-.368-.318-.692-.572-.97-.254-.28-.59-.496-1.006-.648-.417-.153-.898-.229-1.444-.229h-3.415V22h1.802zm1.213-4.78h-1.213v-2.83h1.289c.525 0 .93.126 1.215.38.286.254.429.599.429 1.035 0 .436-.147.78-.441 1.034-.294.254-.72.381-1.28.381zM29.543 22v-1.631h-4.107v-7.605h-1.828V22h5.935zm2.558 0l.628-1.847h3.542L36.9 22h1.91l-3.434-9.236h-1.764L30.19 22h1.911zm3.637-3.409h-2.482l1.232-3.624h.012l1.238 3.624zM44.048 22v-4.056l3.072-5.18h-2.114l-1.86 3.37h-.025l-1.88-3.37h-2.094l3.053 5.18V22h1.847zm6.017 0v-3.498h3.605v-1.63h-3.605v-2.47h4.323v-1.638h-6.126V22h1.803zm9.445.108c.783 0 1.457-.16 2.022-.483.565-.321.994-.776 1.289-1.364.294-.588.44-1.282.44-2.082v-5.415h-1.827v5.294c0 .724-.178 1.294-.534 1.71-.355.418-.818.626-1.39.626-.393 0-.735-.103-1.025-.308-.29-.205-.507-.482-.65-.831-.144-.35-.216-.748-.216-1.197v-5.294h-1.835v5.415c0 .622.09 1.18.27 1.675.18.496.433.907.758 1.235.326.328.719.58 1.178.755.46.176.966.264 1.52.264zM71.114 22v-1.631h-4.107v-7.605h-1.828V22h5.935z"/>
    </g>
</svg>
