<svg xmlns="http://www.w3.org/2000/svg" width="56" height="35" viewBox="0 0 56 35">
    <g fill="none" fill-rule="evenodd">
        <rect width="56" height="35" fill="#444" rx="17.5"/>
        <path fill="#EFFC35" fill-rule="nonzero" d="M16.933 22v-3.605h3.777V22h1.84v-9.236h-1.84v4h-3.777v-4h-1.835V22h1.835zm11.972.108c.672 0 1.298-.115 1.875-.346.578-.23 1.074-.55 1.489-.959.415-.408.74-.907.977-1.498.237-.59.356-1.232.356-1.926s-.119-1.335-.356-1.923c-.237-.589-.562-1.087-.977-1.495-.415-.409-.911-.728-1.489-.959-.577-.23-1.203-.346-1.875-.346-.686 0-1.323.119-1.911.356-.588.237-1.087.563-1.495.977-.408.415-.728.914-.958 1.498-.231.584-.346 1.215-.346 1.892 0 .677.115 1.309.346 1.895.23.586.55 1.086.958 1.5.408.416.906.741 1.492.978s1.224.356 1.914.356zm.006-1.701c-.542 0-1.028-.136-1.46-.407-.432-.27-.765-.635-1-1.094-.235-.46-.352-.968-.352-1.527 0-.554.117-1.061.352-1.52.235-.46.568-.823 1-1.092.432-.269.918-.403 1.46-.403.525 0 1 .129 1.425.387.425.258.76.618 1.003 1.08.243.46.365.977.365 1.548 0 .427-.071.83-.213 1.206-.142.377-.336.698-.584.965-.247.266-.544.476-.888.628-.345.153-.715.229-1.108.229zM38.985 22v-7.598h2.558v-1.638h-6.926v1.638h2.546V22h1.822z"/>
    </g>
</svg>
