<svg xmlns="http://www.w3.org/2000/svg" xmlns:xlink="http://www.w3.org/1999/xlink" width="26" height="25" viewBox="0 0 26 25">
    <defs>
        <path id="prefix__a" d="M12.054 0c5.471 0 10.228 3.562 11.639 8.624.175.628.119.978-.266 1.39-.035.037-.071.072-.108.104L10.603 22.383c-.03.039-.064.074-.102.106l-.07.058-.008.009c-.044.042-.094.082-.148.118-.425.319-.777.42-1.335.277C3.716 21.6 0 17.003 0 11.672 0 5.21 5.412 0 12.054 0zm0 1.428c-5.71 0-10.51 4.748-10.51 10.244 0 4.585 3.398 8.791 7.782 9.948l.037-.035.012.048c-.322-1.024-.435-2.377-.435-3.565 0-5.216 4.17-9.565 9.597-9.565 1.342 0 2.37 0 3.759.295-1.183-4.243-5.461-7.37-10.242-7.37zm6.483 8.585c-4.476.297-7.839 3.154-8.036 7.635-.059 1.344-.007 2.233.163 2.683l10.47-10.22c-.79-.17-1.679-.158-2.597-.098z"/>
    </defs>
    <g fill="none" fill-rule="evenodd" transform="translate(1 1)">
        <use fill="#444" stroke="#444" stroke-linejoin="round" stroke-width=".5" xlink:href="#prefix__a"/>
    </g>
</svg>
