<svg xmlns="http://www.w3.org/2000/svg" width="91" height="90" viewBox="0 0 91 90">
    <path fill="#666" fill-rule="evenodd" d="M18.558 51.784c-9.294-9.295-9.294-24.416 0-33.709 4.504-4.506 10.494-6.983 16.86-6.983 6.368 0 12.358 2.477 16.863 6.983 9.293 9.29 9.293 24.412 0 33.71-4.505 4.5-10.495 6.98-16.865 6.98-6.369 0-12.354-2.48-16.858-6.98zM85.5 80.692L58.632 53.828c9.578-11.746 8.897-29.122-2.044-40.06C50.931 8.115 43.416 5 35.418 5c-7.996 0-15.512 3.114-21.167 8.769-11.668 11.665-11.668 30.65 0 42.322 5.652 5.652 13.17 8.766 21.165 8.766 6.974 0 13.579-2.371 18.907-6.722L81.193 85l4.307-4.308z"/>
</svg>
