<svg xmlns="http://www.w3.org/2000/svg" xmlns:xlink="http://www.w3.org/1999/xlink" width="30" height="30" viewBox="0 0 30 30">
    <defs>
        <path id="prefix__a" d="M9.038.7c3.787 0 7.08 2.494 8.057 6.037.121.44.082.684-.184.972l-.037.036-.003.004-8.851 8.635c-.018.021-.037.04-.058.059l-.04.032-.014.014c-.031.03-.067.06-.106.086-.293.22-.536.29-.92.19-3.617-.944-6.19-4.163-6.19-7.895C.692 4.347 4.44.7 9.038.7zm0 1c-3.953 0-7.276 3.323-7.276 7.17 0 3.21 2.353 6.155 5.389 6.964l.023-.024.009.033c-.223-.717-.301-1.664-.301-2.495 0-3.652 2.887-6.696 6.644-6.696.929 0 1.64 0 2.602.206-.819-2.97-3.78-5.158-7.09-5.158zm4.488 6.01c-3.099.207-5.427 2.207-5.564 5.344-.04.94-.005 1.563.113 1.878l7.249-7.154c-.547-.12-1.163-.111-1.798-.069z"/>
    </defs>
    <g fill="none" fill-rule="evenodd" transform="translate(6 6)">
        <use fill="#FFF" stroke="#FFF" stroke-linejoin="round" stroke-width=".5" xlink:href="#prefix__a"/>
    </g>
</svg>
