<svg xmlns="http://www.w3.org/2000/svg" width="76" height="34" viewBox="0 0 76 34">
    <g fill="none" fill-rule="evenodd">
        <g fill="#FFF" fill-rule="nonzero">
            <path d="M35.374 3.197L37.228.3 39.969.3 39.969.409 36.55 5.375 36.55 8.736 34.117 8.736 34.117 5.375 30.846.397 30.846.3 33.587.3zM27.698 8.748L27.698 5.556 24.599 5.556 24.599 8.748 22.166 8.748 22.166.312 24.599.312 24.599 3.516 27.698 3.516 27.698.312 30.107.312 30.107 8.748zM16.061 6.461v2.275h-2.433V.3h4.183c2.31 0 3.456 1.424 3.456 3.072 0 1.725-1.158 3.059-3.456 3.083h-1.75v.006zm0-2.015h1.75c.677 0 1.022-.483 1.022-1.038s-.357-1.062-1.022-1.062h-1.75v2.1zM9.704 8.736L9.704.3 12.125.3 12.125 8.736 9.704 8.736zM6.79 2.798c-.628-.579-1.392-.736-1.965-.736-1.405 0-2.31.82-2.31 2.468 0 1.086.579 2.42 2.31 2.42.456 0 1.17-.084 1.663-.434V5.429H4.314V3.565H8.52v3.747C7.98 8.386 6.482 8.966 4.82 8.966c-3.407 0-4.7-2.227-4.7-4.436C.119 2.328 1.597.06 4.83.06 6.026.059 7.08.3 8.213 1.422L6.79 2.798z" transform="translate(8 6.5) translate(16 8.5)"/>
        </g>
        <g>
            <path fill="#93F" d="M0 0H1.802V8.827H0z" transform="translate(8 6.5) translate(0 1.5) translate(10.811 5.296)"/>
            <path fill="#0CF" d="M0 0H12.613V1.765H0z" transform="translate(8 6.5) translate(0 1.5) translate(0 14.123)"/>
            <path fill="#0F9" d="M0 0H1.802V12.358H0z" transform="translate(8 6.5) translate(0 1.5) translate(0 1.765)"/>
            <path fill="#FFF35C" d="M0 0H7.207V1.765H0z" transform="translate(8 6.5) translate(0 1.5)"/>
            <path fill="#F66" d="M3.604 3.531L3.604 1.765 1.802 1.765 1.802 0 0 0 0 1.774 0 1.783 0 3.54 0 3.54 0 5.296 1.802 5.296 3.604 5.296 3.604 5.296 5.406 5.296 5.406 3.531z" transform="translate(8 6.5) translate(0 1.5) translate(7.207)"/>
            <path fill="#0F0F0F" d="M1.802 0L1.802 1.765 0 1.765z" opacity=".4" transform="translate(8 6.5) translate(0 1.5) translate(5.406)"/>
            <path fill="#0F0F0F" d="M0 1.783L0 0 1.802 0z" opacity=".4" transform="translate(8 6.5) translate(0 1.5) translate(10.811 5.296)"/>
        </g>
        <path fill="#FFF" fill-opacity=".5" fill-rule="nonzero" d="M17.243 5.5V4.092h.908c.245 0 .454-.036.627-.107.172-.072.312-.166.42-.284.108-.117.187-.252.237-.404.05-.152.074-.307.074-.465 0-.16-.025-.317-.074-.467-.05-.15-.129-.284-.237-.402-.108-.117-.248-.211-.42-.283-.173-.071-.382-.107-.627-.107H16.38V5.5h.863zm.671-2.079h-.671V2.244h.671c.099 0 .194.007.286.022.092.015.172.043.242.085.07.042.126.102.168.179.042.077.063.178.063.303 0 .124-.021.225-.063.302-.042.077-.098.137-.168.179-.07.042-.15.07-.242.085s-.187.022-.286.022zm4.094 2.167c.304 0 .576-.052.814-.157.238-.104.44-.248.605-.431.165-.184.291-.4.38-.647.088-.247.132-.514.132-.8 0-.293-.044-.566-.133-.817-.088-.25-.214-.47-.379-.657-.165-.187-.367-.334-.605-.44-.238-.106-.51-.16-.814-.16-.3 0-.571.054-.811.16-.24.106-.443.253-.608.44-.165.187-.291.406-.38.657-.087.251-.131.524-.131.817 0 .286.044.553.131.8.088.248.215.463.38.647.165.183.368.327.608.431.24.105.51.157.811.157zm0-.72c-.194 0-.36-.038-.495-.113-.136-.075-.246-.175-.33-.3-.084-.125-.146-.265-.184-.42-.039-.157-.058-.317-.058-.482 0-.172.02-.34.058-.5.038-.162.1-.306.184-.432.084-.127.194-.228.33-.303.136-.075.3-.113.495-.113.194 0 .36.038.495.113.136.075.246.176.33.303.084.126.146.27.184.432.039.16.058.328.058.5 0 .165-.02.325-.058.481-.038.156-.1.296-.184.421-.084.125-.194.225-.33.3-.136.075-.3.112-.495.112zm4.27.632l.655-2.673h.01L27.61 5.5h.858l1.056-3.927h-.847l-.643 2.706h-.012l-.67-2.706h-.809l-.682 2.673h-.011l-.622-2.673h-.863l1.04 3.927h.874zm6.822 0v-.726h-2.117v-.962h1.902V3.14h-1.902v-.842h2.073v-.726h-2.937V5.5H33.1zm1.646 0V3.966h.864c.216 0 .372.047.468.143.095.095.157.245.186.45.022.158.039.323.05.495.011.173.04.321.088.446h.864c-.04-.055-.071-.122-.091-.2-.02-.08-.035-.163-.044-.251-.01-.088-.016-.174-.02-.259l-.01-.22c-.008-.099-.022-.198-.042-.296-.02-.1-.052-.19-.096-.273-.044-.082-.1-.154-.17-.214s-.158-.106-.264-.135v-.011c.22-.088.378-.216.475-.385.097-.169.146-.368.146-.6 0-.15-.027-.29-.08-.42-.053-.13-.13-.245-.23-.344-.102-.099-.223-.177-.364-.234-.14-.057-.3-.085-.475-.085h-2.118V5.5h.863zm.947-2.15h-.947V2.244h.947c.198 0 .346.043.445.13.099.085.148.224.148.414 0 .199-.049.342-.148.43-.099.087-.247.131-.445.131zm5.342 2.15v-.726h-2.117v-.962h1.903V3.14h-1.904v-.842h2.074v-.726h-2.937V5.5h2.981zm2.477 0c.3 0 .562-.05.784-.151.222-.101.407-.24.555-.415.149-.176.26-.386.333-.628.073-.242.11-.506.11-.792 0-.326-.045-.61-.135-.852-.09-.242-.214-.444-.374-.605-.16-.161-.348-.282-.566-.363-.218-.08-.454-.121-.707-.121h-1.694V5.5h1.694zm-.06-.726h-.77V2.299h.615c.213 0 .392.03.537.09.145.061.261.148.349.262.088.114.151.25.19.41.038.16.058.338.058.536 0 .216-.028.4-.083.55-.055.15-.128.272-.22.366-.092.093-.196.16-.313.2-.118.04-.239.061-.363.061zm6.273.726c.176 0 .348-.022.515-.066.167-.044.315-.112.445-.204.13-.091.234-.21.311-.354.077-.145.115-.317.115-.514 0-.246-.06-.456-.178-.63-.12-.174-.3-.296-.542-.366.176-.084.309-.192.399-.325.09-.131.135-.296.135-.494 0-.184-.03-.338-.091-.463-.06-.124-.146-.224-.256-.3-.11-.074-.242-.129-.396-.161-.154-.034-.325-.05-.512-.05h-1.848V5.5h1.903zm-.165-2.337h-.874v-.919h.809c.077 0 .15.006.222.02.072.012.135.035.19.068.055.033.099.079.132.138.033.058.05.133.05.225 0 .165-.05.284-.149.358-.099.073-.225.11-.38.11zm.05 1.666h-.924V3.751h.94c.188 0 .338.043.452.13.113.085.17.23.17.431 0 .103-.017.187-.052.253-.035.066-.082.118-.14.157-.06.038-.127.066-.204.082-.077.017-.158.025-.242.025zm4.166.671V3.993l1.457-2.42h-.962l-.913 1.551-.919-1.551h-.968l1.441 2.398V5.5h.864z" transform="translate(8 6.5)"/>
    </g>
</svg>
