<svg width="16" height="16" viewBox="0 0 16 16" fill="none" xmlns="http://www.w3.org/2000/svg">
<path fill-rule="evenodd" clip-rule="evenodd" d="M4.5 2C3.11929 2 2 3.11929 2 4.5V11.5C2 12.8807 3.11929 14 4.5 14H11.5C12.8807 14 14 12.8807 14 11.5V4.5C14 3.11929 12.8807 2 11.5 2H4.5ZM6.64998 5.09998C6.29099 5.09998 5.99998 5.39099 5.99998 5.74998C5.99998 6.10896 6.29099 6.39998 6.64998 6.39998H8.68074L5.29036 9.79036C5.03652 10.0442 5.03652 10.4558 5.29036 10.7096C5.5442 10.9634 5.95575 10.9634 6.20959 10.7096L9.59998 7.31921V9.34998C9.59998 9.70896 9.89099 9.99998 10.25 9.99998C10.609 9.99998 10.9 9.70896 10.9 9.34998V5.74998C10.9 5.39099 10.609 5.09998 10.25 5.09998H6.64998Z" fill="white"/>
</svg>
