<svg xmlns="http://www.w3.org/2000/svg" width="36" height="36" viewBox="0 0 36 36">
    <path fill="#FFF" fill-rule="evenodd" d="M17.742 10.006c1.911-.088 3.708.744 5.171 1.914-.624.71-1.271 1.395-1.962 2.035-1.76-1.218-4.262-1.565-6.022-.16-2.517 1.743-2.631 5.858-.21 7.734 2.354 2.139 6.805 1.076 7.455-2.198-1.475-.022-2.953 0-4.428-.048-.004-.88-.007-1.762-.004-2.642 2.466-.008 4.931-.011 7.4.007.148 2.072-.125 4.278-1.397 5.99-1.926 2.713-5.792 3.505-8.808 2.343-3.027-1.154-5.171-4.355-4.916-7.619.066-3.992 3.733-7.489 7.721-7.356z"/>
</svg>
