<svg xmlns="http://www.w3.org/2000/svg" width="34" height="34" viewBox="0 0 34 34">
    <path fill="#FFF" fill-rule="evenodd" d="M14.197 23.611c5.702 0 8.82-4.724 8.82-8.82 0-.135-.002-.269-.008-.402.605-.437 1.131-.983 1.547-1.605-.556.247-1.154.413-1.78.488.64-.384 1.13-.991 1.362-1.715-.599.355-1.262.614-1.968.753-.566-.603-1.372-.98-2.263-.98-1.712 0-3.101 1.389-3.101 3.1 0 .244.027.48.08.707-2.576-.13-4.86-1.363-6.39-3.24-.266.459-.42.991-.42 1.56 0 1.075.548 2.024 1.38 2.58-.509-.016-.986-.156-1.404-.388v.04c0 1.501 1.068 2.755 2.486 3.039-.26.07-.534.109-.817.109-.2 0-.394-.02-.583-.056.395 1.232 1.54 2.128 2.897 2.153-1.062.832-2.398 1.328-3.851 1.328-.25 0-.497-.015-.74-.043 1.373.879 3.002 1.392 4.753 1.392"/>
</svg>
