<svg width="292" height="11" viewBox="0 0 292 11" fill="none" xmlns="http://www.w3.org/2000/svg">
<rect y="5" width="92" height="1" fill="#363636"/>
<rect x="200" y="5" width="92" height="1" fill="#363636"/>
<path fill-rule="evenodd" clip-rule="evenodd" d="M105.497 9.06994C105.769 9.06994 106.032 9.0404 106.286 8.98132C106.54 8.92224 106.778 8.83093 106.998 8.70739C107.218 8.58386 107.41 8.43615 107.575 8.26428C107.74 8.0924 107.87 7.88562 107.965 7.64392C108.059 7.40222 108.107 7.14172 108.107 6.86242C108.107 6.55806 108.059 6.28951 107.962 6.05676C107.797 5.66646 107.466 5.33882 106.968 5.07385C106.761 4.96285 106.334 4.78202 105.69 4.53137L105.685 4.526H105.674L105.668 4.52063H105.663L105.658 4.51526C105.096 4.30041 104.72 4.12854 104.53 3.99963C104.186 3.77405 104.016 3.4858 104.02 3.13489C104.02 2.89856 104.086 2.69356 104.218 2.51989C104.351 2.34623 104.52 2.21732 104.726 2.13318C104.932 2.04903 105.158 2.00696 105.405 2.00696C105.706 2.00696 106.022 2.07141 106.353 2.20031C106.684 2.32922 107.002 2.519 107.307 2.76965L107.881 2.02844C107.509 1.73124 107.111 1.50386 106.689 1.34631C106.266 1.18876 105.84 1.11177 105.411 1.11535C104.97 1.11535 104.567 1.20577 104.202 1.38659C103.837 1.56742 103.55 1.81628 103.34 2.13318C103.131 2.45007 103.026 2.80009 103.026 3.18322C103.026 3.36942 103.05 3.54577 103.098 3.71228C103.147 3.87878 103.208 4.0247 103.281 4.15002C103.354 4.27535 103.455 4.3962 103.582 4.51257C103.709 4.62894 103.832 4.72741 103.95 4.80798C104.068 4.88855 104.216 4.9718 104.393 5.05774C104.57 5.14367 104.726 5.2135 104.86 5.26721C104.994 5.32092 105.16 5.38537 105.357 5.46057L105.368 5.46594H105.378L105.384 5.47131H105.389L105.395 5.47668H105.405L105.411 5.48205H105.421L105.427 5.48742H105.432L105.438 5.49279H105.448L105.454 5.49817H105.459L105.464 5.50354H105.475L105.48 5.50891H105.491L105.497 5.51428H105.502L105.507 5.51965H105.518L105.523 5.52502C106.064 5.72554 106.429 5.89384 106.619 6.0299C106.945 6.25907 107.108 6.57238 107.108 6.96985C107.108 7.33866 106.962 7.6296 106.67 7.84265C106.378 8.0557 105.991 8.16223 105.507 8.16223C105.11 8.16223 104.718 8.07361 104.331 7.89636C103.944 7.71911 103.613 7.4622 103.337 7.12561L102.73 7.86145C103.106 8.26607 103.534 8.56864 104.014 8.76916C104.494 8.96968 104.988 9.06994 105.497 9.06994ZM111.68 9.00012V1.18518H110.718V9.00012H111.68ZM119.968 8.79602C119.438 8.97147 118.874 9.0592 118.276 9.0592C117.718 9.0592 117.199 8.9661 116.721 8.7799C116.243 8.59371 115.832 8.33142 115.486 7.99304C115.141 7.65466 114.869 7.23751 114.672 6.74157C114.475 6.24564 114.377 5.70048 114.377 5.10608C114.377 4.53316 114.469 4.00053 114.654 3.50818C114.838 3.01583 115.096 2.5933 115.427 2.2406C115.758 1.8879 116.166 1.61218 116.652 1.41345C117.137 1.21472 117.668 1.11535 118.244 1.11535C118.803 1.11535 119.34 1.21561 119.855 1.41613C120.371 1.61666 120.828 1.9246 121.225 2.33996L120.543 2.93078C119.924 2.32922 119.155 2.02844 118.239 2.02844C117.831 2.02844 117.45 2.10184 117.097 2.24865C116.745 2.39546 116.442 2.60046 116.19 2.86364C115.937 3.12683 115.739 3.45178 115.594 3.8385C115.448 4.22522 115.376 4.64774 115.376 5.10608C115.376 5.68974 115.495 6.21342 115.733 6.67712C115.971 7.14083 116.311 7.50427 116.754 7.76745C117.196 8.03064 117.703 8.16223 118.276 8.16223C119.125 8.16223 119.82 7.9635 120.36 7.56604V5.85266H118.094V4.9718H121.316V8.06018C120.948 8.37528 120.498 8.62056 119.968 8.79602ZM125.072 9.00012V2.83947H125.093L129.471 9.00012H130.443V1.18518H129.487V7.41028H129.465L125.061 1.18518H124.116V9.00012H125.072ZM142.581 8.19714C142.035 8.77901 141.296 9.06994 140.365 9.06994C139.918 9.06994 139.509 8.99654 139.138 8.84973C138.767 8.70292 138.45 8.49345 138.185 8.22131C137.92 7.94918 137.714 7.60811 137.567 7.19812C137.42 6.78812 137.347 6.3289 137.347 5.82043V1.18518H138.303V5.75061C138.303 6.4775 138.49 7.06026 138.864 7.4989C139.238 7.93754 139.739 8.15686 140.365 8.15686C140.985 8.15686 141.486 7.94201 141.869 7.51233C142.252 7.08264 142.444 6.4954 142.444 5.75061V1.18518H143.4V5.82043C143.4 6.82304 143.127 7.61527 142.581 8.19714ZM147.236 9.00012V6.01916H148.847C149.263 6.01916 149.636 5.97082 149.967 5.87414C150.298 5.77746 150.587 5.63155 150.832 5.4364C151.077 5.24125 151.266 4.98881 151.398 4.67907C151.531 4.36934 151.597 4.01216 151.597 3.60754C151.597 3.25305 151.547 2.93168 151.447 2.64343C151.347 2.35518 151.195 2.10095 150.993 1.88073C150.791 1.66052 150.521 1.48954 150.185 1.3678C149.848 1.24605 149.458 1.18518 149.014 1.18518H146.28V9.00012H147.236ZM147.236 5.1383H148.761C149.08 5.1383 149.359 5.09981 149.599 5.02282C149.839 4.94584 150.031 4.83663 150.174 4.69519C150.317 4.55375 150.424 4.39083 150.496 4.20642C150.568 4.02201 150.604 3.81522 150.604 3.58606C150.604 3.09908 150.454 2.724 150.155 2.46081C149.856 2.19763 149.442 2.06604 148.912 2.06604H147.236V5.1383ZM160.913 9.00012L162.744 2.59778H162.766L164.57 9.00012H165.494L167.992 1.18518H166.971L165.043 7.4425H165.021L163.265 1.18518H162.229L160.461 7.42639H160.44L158.517 1.18518H157.491L159.989 9.00012H160.913ZM171.382 1.18518V9.00012H170.42V1.18518H171.382ZM177.065 9.00012V2.06604H179.429V1.18518H173.773V2.06604H176.109V9.00012H177.065ZM182.722 5.72912V9.00012H181.766V1.18518H182.722V4.84826H186.81V1.18518H187.766V9.00012H186.81V5.72912H182.722Z" fill="#535353"/>
</svg>
