<svg width="342" height="9" viewBox="0 0 342 9" fill="none" xmlns="http://www.w3.org/2000/svg">
<rect y="4" width="117" height="1" fill="#363636"/>
<path fill-rule="evenodd" clip-rule="evenodd" d="M130.497 8.06994C130.769 8.06994 131.032 8.0404 131.286 7.98132C131.54 7.92224 131.778 7.83093 131.998 7.70739C132.218 7.58386 132.41 7.43615 132.575 7.26428C132.74 7.0924 132.87 6.88562 132.965 6.64392C133.059 6.40222 133.107 6.14172 133.107 5.86242C133.107 5.55806 133.059 5.28951 132.962 5.05676C132.797 4.66646 132.466 4.33882 131.968 4.07385C131.761 3.96285 131.334 3.78202 130.69 3.53137L130.685 3.526H130.674L130.668 3.52063H130.663L130.658 3.51526C130.096 3.30041 129.72 3.12854 129.53 2.99963C129.186 2.77405 129.016 2.4858 129.02 2.13489C129.02 1.89856 129.086 1.69356 129.218 1.51989C129.351 1.34623 129.52 1.21732 129.726 1.13318C129.932 1.04903 130.158 1.00696 130.405 1.00696C130.706 1.00696 131.022 1.07141 131.353 1.20031C131.684 1.32922 132.002 1.519 132.307 1.76965L132.881 1.02844C132.509 0.731239 132.111 0.503863 131.689 0.346311C131.266 0.188759 130.84 0.111773 130.411 0.115354C129.97 0.115354 129.567 0.205767 129.202 0.386594C128.837 0.567421 128.55 0.816281 128.34 1.13318C128.131 1.45007 128.026 1.80009 128.026 2.18322C128.026 2.36942 128.05 2.54577 128.098 2.71228C128.147 2.87878 128.208 3.0247 128.281 3.15002C128.354 3.27535 128.455 3.3962 128.582 3.51257C128.709 3.62894 128.832 3.72741 128.95 3.80798C129.068 3.88855 129.216 3.9718 129.393 4.05774C129.57 4.14367 129.726 4.2135 129.86 4.26721C129.994 4.32092 130.16 4.38537 130.357 4.46057L130.368 4.46594H130.378L130.384 4.47131H130.389L130.395 4.47668H130.405L130.411 4.48205H130.421L130.427 4.48742H130.432L130.438 4.49279H130.448L130.454 4.49817H130.459L130.464 4.50354H130.475L130.48 4.50891H130.491L130.497 4.51428H130.502L130.507 4.51965H130.518L130.523 4.52502C131.064 4.72554 131.429 4.89384 131.619 5.0299C131.945 5.25907 132.108 5.57238 132.108 5.96985C132.108 6.33866 131.962 6.6296 131.67 6.84265C131.378 7.0557 130.991 7.16223 130.507 7.16223C130.11 7.16223 129.718 7.07361 129.331 6.89636C128.944 6.71911 128.613 6.4622 128.337 6.12561L127.73 6.86145C128.106 7.26607 128.534 7.56864 129.014 7.76916C129.494 7.96968 129.988 8.06994 130.497 8.06994ZM136.68 8.00012V0.185178H135.718V8.00012H136.68ZM144.968 7.79602C144.438 7.97147 143.874 8.0592 143.276 8.0592C142.718 8.0592 142.199 7.9661 141.721 7.7799C141.243 7.59371 140.832 7.33142 140.486 6.99304C140.141 6.65466 139.869 6.23751 139.672 5.74157C139.475 5.24564 139.377 4.70048 139.377 4.10608C139.377 3.53316 139.469 3.00053 139.654 2.50818C139.838 2.01583 140.096 1.5933 140.427 1.2406C140.758 0.887896 141.166 0.61218 141.652 0.413449C142.137 0.214719 142.668 0.115354 143.244 0.115354C143.803 0.115354 144.34 0.215614 144.855 0.416135C145.371 0.616656 145.828 0.924599 146.225 1.33996L145.543 1.93078C144.924 1.32922 144.155 1.02844 143.239 1.02844C142.831 1.02844 142.45 1.10184 142.097 1.24865C141.745 1.39546 141.442 1.60046 141.19 1.86364C140.937 2.12683 140.739 2.45178 140.594 2.8385C140.448 3.22522 140.376 3.64774 140.376 4.10608C140.376 4.68974 140.495 5.21342 140.733 5.67712C140.971 6.14083 141.311 6.50427 141.754 6.76745C142.196 7.03064 142.703 7.16223 143.276 7.16223C144.125 7.16223 144.82 6.9635 145.36 6.56604V4.85266H143.094V3.9718H146.316V7.06018C145.948 7.37528 145.498 7.62056 144.968 7.79602ZM150.072 8.00012V1.83947H150.093L154.471 8.00012H155.443V0.185178H154.487V6.41028H154.465L150.061 0.185178H149.116V8.00012H150.072ZM167.581 7.19714C167.035 7.77901 166.296 8.06994 165.365 8.06994C164.918 8.06994 164.509 7.99654 164.138 7.84973C163.767 7.70292 163.45 7.49345 163.185 7.22131C162.92 6.94918 162.714 6.60811 162.567 6.19812C162.42 5.78812 162.347 5.3289 162.347 4.82043V0.185178H163.303V4.75061C163.303 5.4775 163.49 6.06026 163.864 6.4989C164.238 6.93754 164.739 7.15686 165.365 7.15686C165.985 7.15686 166.486 6.94201 166.869 6.51233C167.252 6.08264 167.444 5.4954 167.444 4.75061V0.185178H168.4V4.82043C168.4 5.82304 168.127 6.61527 167.581 7.19714ZM172.236 8.00012V5.01916H173.847C174.263 5.01916 174.636 4.97082 174.967 4.87414C175.298 4.77746 175.587 4.63155 175.832 4.4364C176.077 4.24125 176.266 3.98881 176.398 3.67907C176.531 3.36934 176.597 3.01216 176.597 2.60754C176.597 2.25305 176.547 1.93168 176.447 1.64343C176.347 1.35518 176.195 1.10095 175.993 0.880735C175.791 0.66052 175.521 0.48954 175.185 0.367795C174.848 0.24605 174.458 0.185178 174.014 0.185178H171.28V8.00012H172.236ZM172.236 4.1383H173.761C174.08 4.1383 174.359 4.09981 174.599 4.02282C174.839 3.94584 175.031 3.83663 175.174 3.69519C175.317 3.55375 175.424 3.39083 175.496 3.20642C175.568 3.02201 175.604 2.81522 175.604 2.58606C175.604 2.09908 175.454 1.724 175.155 1.46081C174.856 1.19763 174.442 1.06604 173.912 1.06604H172.236V4.1383ZM185.913 8.00012L187.744 1.59778H187.766L189.57 8.00012H190.494L192.992 0.185178H191.971L190.043 6.4425H190.021L188.265 0.185178H187.229L185.461 6.42639H185.44L183.517 0.185178H182.491L184.989 8.00012H185.913ZM196.382 0.185178V8.00012H195.42V0.185178H196.382ZM202.065 8.00012V1.06604H204.429V0.185178H198.773V1.06604H201.109V8.00012H202.065ZM207.722 4.72912V8.00012H206.766V0.185178H207.722V3.84826H211.81V0.185178H212.766V8.00012H211.81V4.72912H207.722Z" fill="#535353"/>
<rect x="225" y="4" width="117" height="1" fill="#363636"/>
</svg>
