<svg xmlns="http://www.w3.org/2000/svg" xmlns:xlink="http://www.w3.org/1999/xlink" width="34" height="34" viewBox="0 0 34 34">
    <defs>
        <path id="prefix__a" d="M17 34c9.389 0 17-7.611 17-17S26.389 0 17 0 0 7.611 0 17s7.611 17 17 17z"/>
        <path id="prefix__c" d="M6.42.47S3.552.793 2.032 1.51C.512 2.23.34 3.914.139 7.325c-.2 3.411.245 6.977.415 7.818.173.842.574 2.035 2.453 2.402 1.88.367 4.092.499 5.897.47 1.805-.027 4.63-.15 6.308-.547 1.678-.398 2.066-2.005 2.237-3.457.173-1.454.535-7.517.003-9.522-.384-1.45-.217-3.252-3.86-3.864-1.67-.28-3.06-.371-4.193-.371C8.06.253 7.08.379 6.42.47"/>
        <path id="prefix__e" d="M6.42.47S3.552.793 2.032 1.51C.512 2.23.34 3.914.139 7.325c-.2 3.411.245 6.977.415 7.818.173.842.574 2.035 2.453 2.402 1.88.367 4.092.499 5.897.47 1.805-.027 4.63-.15 6.308-.547 1.678-.398 2.066-2.005 2.237-3.457.173-1.454.535-7.517.003-9.522-.384-1.45-.217-3.252-3.86-3.864-1.67-.28-3.06-.371-4.193-.371C8.06.253 7.08.379 6.42.47"/>
        <path id="prefix__g" d="M6.42.47S3.552.793 2.032 1.51C.512 2.23.34 3.914.139 7.325c-.2 3.411.245 6.977.415 7.818.173.842.574 2.035 2.453 2.402 1.88.367 4.092.499 5.897.47 1.805-.027 4.63-.15 6.308-.547 1.678-.398 2.066-2.005 2.237-3.457.173-1.454.535-7.517.003-9.522-.384-1.45-.217-3.252-3.86-3.864-1.67-.28-3.06-.371-4.193-.371C8.06.253 7.08.379 6.42.47"/>
        <path id="prefix__i" d="M6.42.47S3.552.793 2.032 1.51C.512 2.23.34 3.914.139 7.325c-.2 3.411.245 6.977.415 7.818.173.842.574 2.035 2.453 2.402 1.88.367 4.092.499 5.897.47 1.805-.027 4.63-.15 6.308-.547 1.678-.398 2.066-2.005 2.237-3.457.173-1.454.535-7.517.003-9.522-.384-1.45-.217-3.252-3.86-3.864-1.67-.28-3.06-.371-4.193-.371C8.06.253 7.08.379 6.42.47"/>
        <path id="prefix__k" d="M6.42.47S3.552.793 2.032 1.51C.512 2.23.34 3.914.139 7.325c-.2 3.411.245 6.977.415 7.818.173.842.574 2.035 2.453 2.402 1.88.367 4.092.499 5.897.47 1.805-.027 4.63-.15 6.308-.547 1.678-.398 2.066-2.005 2.237-3.457.173-1.454.535-7.517.003-9.522-.384-1.45-.217-3.252-3.86-3.864-1.67-.28-3.06-.371-4.193-.371C8.06.253 7.08.379 6.42.47"/>
        <path id="prefix__m" d="M6.42.47S3.552.793 2.032 1.51C.512 2.23.34 3.914.139 7.325c-.2 3.411.245 6.977.415 7.818.173.842.574 2.035 2.453 2.402 1.88.367 4.092.499 5.897.47 1.805-.027 4.63-.15 6.308-.547 1.678-.398 2.066-2.005 2.237-3.457.173-1.454.535-7.517.003-9.522-.384-1.45-.217-3.252-3.86-3.864-1.67-.28-3.06-.371-4.193-.371C8.06.253 7.08.379 6.42.47"/>
        <path id="prefix__o" d="M6.42.47S3.552.793 2.032 1.51C.512 2.23.34 3.914.139 7.325c-.2 3.411.245 6.977.415 7.818.173.842.574 2.035 2.453 2.402 1.88.367 4.092.499 5.897.47 1.805-.027 4.63-.15 6.308-.547 1.678-.398 2.066-2.005 2.237-3.457.173-1.454.535-7.517.003-9.522-.384-1.45-.217-3.252-3.86-3.864-1.67-.28-3.06-.371-4.193-.371C8.06.253 7.08.379 6.42.47"/>
    </defs>
    <g fill="none" fill-rule="evenodd">
        <mask id="prefix__b" fill="#fff">
            <use xlink:href="#prefix__a"/>
        </mask>
        <use fill="#FFF" xlink:href="#prefix__a"/>
        <g mask="url(#prefix__b)">
            <g>
                <g transform="translate(8 5) translate(0 3.103)">
                    <mask id="prefix__d" fill="#fff">
                        <use xlink:href="#prefix__c"/>
                    </mask>
                    <path fill="#264CA0" d="M6.42.47S3.553.793 2.032 1.51C.512 2.23.34 3.914.139 7.325c-.2 3.411.245 6.977.415 7.818.173.842.574 2.035 2.453 2.402 1.88.367 4.092.499 5.897.47 1.805-.027 4.63-.15 6.308-.547 1.679-.398 2.066-2.005 2.237-3.457.173-1.454.535-7.517.003-9.522-.384-1.45-.217-3.252-3.86-3.864C9.949.012 7.639.302 6.42.471" mask="url(#prefix__d)"/>
                </g>
                <g transform="translate(8 5) translate(0 3.103)">
                    <mask id="prefix__f" fill="#fff">
                        <use xlink:href="#prefix__e"/>
                    </mask>
                    <path fill="#FEFEFE" d="M13.178 12.829c-2.152 2.135-6.818 2.137-8.912.002-.167-.172-.437-.164-.596.016-.163.178-.155.465.011.636 2.418 2.459 7.594 2.463 10.069.005.174-.17.183-.455.026-.637-.16-.182-.426-.193-.598-.022" mask="url(#prefix__f)"/>
                </g>
                <g transform="translate(8 5) translate(0 3.103)">
                    <mask id="prefix__h" fill="#fff">
                        <use xlink:href="#prefix__g"/>
                    </mask>
                    <path fill="#ED368A" d="M5.205 5.902c-.153 1.912-1.626 3.146-3.42 2.981-1.792-.164-3.405-2.53-2.74-4.29.57-1.509 2.054-2.633 3.847-2.468 1.793.165 2.469 1.863 2.313 3.777" mask="url(#prefix__h)"/>
                </g>
                <g transform="translate(8 5) translate(0 3.103)">
                    <mask id="prefix__j" fill="#fff">
                        <use xlink:href="#prefix__i"/>
                    </mask>
                    <path fill="#1A1919" d="M2.279 4.257C1.605 4.196 1.009 4.73.95 5.45c-.059.719.443 1.355 1.117 1.417.675.063 1.272-.474 1.329-1.193.058-.719-.443-1.355-1.118-1.417" mask="url(#prefix__j)"/>
                </g>
                <g transform="translate(8 5) translate(0 3.103)">
                    <mask id="prefix__l" fill="#fff">
                        <use xlink:href="#prefix__k"/>
                    </mask>
                    <path fill="#43B549" d="M5.765 8.74l.512-3.73s.155-1.41 1.86-1.294c1.727.12 2.1.255 2.1.255s1.083.28 1.097 1.69c.02 2.025-.052 4.015-.052 4.015s-.02 1.63-1.74 1.472c-1.813-.167-2.3-.207-2.3-.207s-1.75-.146-1.477-2.202" mask="url(#prefix__l)"/>
                </g>
                <g transform="translate(8 5) translate(0 3.103)">
                    <mask id="prefix__n" fill="#fff">
                        <use xlink:href="#prefix__m"/>
                    </mask>
                    <path fill="#11BAEC" d="M13.474 3.067s.673-.368 1.581.173c.853.509 2.985 2.113 3.477 2.72.493.61.396 1.08.396 1.08s.037.628-.611 1.072c-.655.45-2.86 1.669-3.78 1.921-.718.196-1.042.2-1.42-.068-.361-.257-.519-.792-.507-1.384.027-1.184.198-4.146.198-4.146s.007-1 .666-1.368" mask="url(#prefix__n)"/>
                </g>
                <g transform="translate(8 5) translate(0 3.103)">
                    <mask id="prefix__p" fill="#fff">
                        <use xlink:href="#prefix__o"/>
                    </mask>
                    <path fill="#1A1919" d="M15.333 5.315c-.672-.061-1.27.474-1.327 1.191-.058.72.443 1.357 1.118 1.418.674.063 1.27-.472 1.328-1.192.057-.719-.443-1.354-1.119-1.417" mask="url(#prefix__p)"/>
                </g>
                <path fill="#264CA0" d="M6.224 1.32c-.34-.158-.68-.35-.786-.61-.085-.21.165-.4.598-.467.549-.083.88.126 1.007.365.13.238.388.449.475.554.089.106.203.212.377.37.172.158.691.586.907.743.214.159.584.413.584.413s1.753-.734 2.353-.998c.604-.262.682-.288 1.133-.51.382-.19.947-.398 1.202-.503.265-.104.482-.257.694-.396.243-.157.458-.211.95-.157.601.068.714.383.438.667-.18.183-.55.297-1.023.429-.475.13-1.139.355-1.746.59-.603.24-.88.272-1.569.589-.69.316-1.64.558-2.008.688-.607.21-.708.199-1.2-.135-.746-.51-1.311-.87-1.616-1.08-.3-.212-.77-.552-.77-.552" transform="translate(8 5)"/>
            </g>
        </g>
    </g>
</svg>
