<svg xmlns="http://www.w3.org/2000/svg" xmlns:xlink="http://www.w3.org/1999/xlink" width="110" height="40" viewBox="0 0 110 40">
    <defs>
        <path id="a" d="M0 .873h25.897V19H0z"/>
    </defs>
    <g fill="none" fill-rule="evenodd">
        <g transform="translate(14 10.128)">
            <mask id="b" fill="#fff">
                <use xlink:href="#a"/>
            </mask>
            <path fill="#FFF" d="M10.359 13.82V6.053l6.728 3.885-6.728 3.884zM25.356 3.704a3.243 3.243 0 0 0-2.29-2.29c-2.02-.54-10.117-.54-10.117-.54s-8.1 0-10.118.54a3.245 3.245 0 0 0-2.29 2.29C0 5.723 0 9.936 0 9.936s0 4.214.54 6.234a3.245 3.245 0 0 0 2.29 2.289c2.02.54 10.119.54 10.119.54s8.098 0 10.117-.54a3.243 3.243 0 0 0 2.29-2.29c.54-2.02.54-6.233.54-6.233s0-4.213-.54-6.233z" mask="url(#b)"/>
        </g>
        <path fill="#FFF" d="M54.46 25.714c.142-.37.213-.975.213-1.815v-3.537c0-.815-.071-1.41-.213-1.787-.142-.377-.392-.565-.75-.565-.346 0-.59.188-.732.565-.142.377-.213.972-.213 1.787v3.537c0 .84.068 1.445.204 1.815.136.37.383.556.741.556s.608-.186.75-.556m-2.871 1.778c-.512-.346-.876-.883-1.092-1.611-.216-.73-.324-1.698-.324-2.908v-1.648c0-1.222.123-2.204.37-2.945.247-.74.633-1.28 1.158-1.62.524-.34 1.213-.51 2.064-.51.84 0 1.513.174 2.019.519.506.346.877.886 1.111 1.62.235.735.352 1.714.352 2.936v1.648c0 1.21-.114 2.183-.342 2.917-.229.735-.599 1.272-1.112 1.61-.512.34-1.207.51-2.083.51-.901 0-1.608-.173-2.121-.518M91.248 18.222c-.13.16-.216.423-.26.787-.043.364-.064.917-.064 1.658v.814h1.87v-.814c0-.73-.024-1.281-.074-1.658-.05-.376-.138-.642-.268-.796-.13-.155-.331-.232-.602-.232-.272 0-.472.08-.602.24zM90.924 23v.574c0 .729.02 1.275.065 1.639.043.365.132.63.268.797.136.166.346.25.63.25.382 0 .645-.15.787-.445.142-.296.219-.79.232-1.482l2.203.13c.013.099.019.235.019.408 0 1.049-.287 1.833-.861 2.352-.574.518-1.386.777-2.436.777-1.26 0-2.142-.395-2.648-1.185-.506-.79-.76-2.012-.76-3.667v-1.981c0-1.704.263-2.948.788-3.732.525-.784 1.423-1.176 2.695-1.176.876 0 1.549.16 2.018.48.469.323.799.823.99 1.5.192.68.288 1.619.288 2.816V23h-4.278zM45.366 22.787l-2.908-10.5h2.538l1.018 4.76a45.01 45.01 0 0 1 .574 3h.074c.087-.594.278-1.587.574-2.983l1.056-4.778h2.537l-2.944 10.501v5.038h-2.519v-5.038zM65.499 16.472v11.352h-2l-.222-1.389h-.056c-.543 1.05-1.358 1.575-2.445 1.575-.753 0-1.308-.247-1.666-.74-.36-.495-.537-1.267-.537-2.316v-8.482h2.555v8.334c0 .506.056.867.167 1.083.11.216.296.324.556.324.222 0 .435-.067.639-.204a1.26 1.26 0 0 0 .453-.518v-9.019h2.556zM78.608 16.472v11.352h-2l-.222-1.389h-.056c-.543 1.05-1.358 1.575-2.445 1.575-.753 0-1.308-.247-1.666-.74-.359-.495-.537-1.267-.537-2.316v-8.482h2.555v8.334c0 .506.056.867.167 1.083.111.216.296.324.556.324.222 0 .435-.067.639-.204a1.26 1.26 0 0 0 .453-.518v-9.019h2.556z"/>
        <path fill="#FFF" d="M72.444 14.343h-2.537v13.482h-2.5V14.343H64.87v-2.056h7.574zM84.724 22.918c0 .827-.034 1.476-.102 1.945-.068.469-.182.802-.343 1a.791.791 0 0 1-.648.296c-.21 0-.404-.05-.583-.148a1.117 1.117 0 0 1-.435-.445V19.12c.086-.308.234-.561.444-.76.21-.196.438-.295.685-.295.26 0 .46.102.602.305.142.204.24.547.297 1.028.055.482.083 1.167.083 2.056v1.463zm2.343-4.631c-.155-.715-.405-1.234-.75-1.555-.346-.321-.822-.482-1.426-.482-.47 0-.908.133-1.315.398a2.707 2.707 0 0 0-.945 1.047h-.018v-5.982H80.15v16.112h2.11l.26-1.074h.056c.197.383.493.685.889.907.395.223.833.334 1.315.334.864 0 1.5-.398 1.907-1.195.407-.796.61-2.04.61-3.732v-1.796c0-1.271-.076-2.265-.23-2.982z"/>
    </g>
</svg>
