<svg xmlns="http://www.w3.org/2000/svg" xmlns:xlink="http://www.w3.org/1999/xlink" width="34" height="34" viewBox="0 0 34 34">
    <defs>
        <path id="prefix__a" d="M17 34c9.389 0 17-7.611 17-17S26.389 0 17 0 0 7.611 0 17s7.611 17 17 17z"/>
    </defs>
    <g fill="none" fill-rule="evenodd">
        <mask id="prefix__b" fill="#fff">
            <use xlink:href="#prefix__a"/>
        </mask>
        <use fill="#CA3C2D" xlink:href="#prefix__a"/>
        <path fill="#FFF" d="M14.966 19.958v-5.975l5.174 2.987-5.174 2.988zM26.5 12.177c-.229-.857-.904-1.532-1.76-1.76C23.186 10 16.958 10 16.958 10s-6.228 0-7.781.416c-.857.23-1.532.904-1.76 1.76C7 13.73 7 16.97 7 16.97s0 3.24.416 4.794c.23.857.904 1.532 1.76 1.76 1.554.417 7.782.417 7.782.417s6.228 0 7.78-.416c.857-.23 1.532-.904 1.761-1.76.417-1.554.417-4.795.417-4.795s0-3.24-.417-4.793z" mask="url(#prefix__b)"/>
    </g>
</svg>
