<svg xmlns="http://www.w3.org/2000/svg" width="26" height="26" viewBox="0 0 26 26">
    <g fill="none" fill-rule="evenodd">
        <g fill="#BABABA" fill-rule="nonzero">
            <g>
                <g>
                    <path d="M19 .59c2.414 0 4.384 1.902 4.495 4.29l.005.21v13.5c0 2.415-1.901 4.385-4.288 4.496l-.212.005H5c-2.414 0-4.384-1.901-4.495-4.288L.5 18.59V5.09C.5 2.677 2.401.706 4.788.596L5 .59h14zm-3.671 12.821c-.877.756-2.016 1.218-3.262 1.218s-2.384-.461-3.26-1.218c-2.382.539-4.162 2.664-4.162 5.208V21.6H19.49V18.62l-.005-.237c-.106-2.439-1.849-4.45-4.156-4.97zM12.067 4.7c-2.269 0-4.11 1.84-4.11 4.11 0 2.27 1.841 4.11 4.11 4.11 2.27 0 4.111-1.84 4.111-4.11 0-2.27-1.84-4.11-4.11-4.11z" transform="translate(-1332 -433) translate(1332 433) translate(1)"/>
                </g>
            </g>
        </g>
    </g>
</svg>
