<svg xmlns="http://www.w3.org/2000/svg" xmlns:xlink="http://www.w3.org/1999/xlink" width="128" height="72" viewBox="0 0 128 72">
    <defs>
        <radialGradient id="s2tvl934ob" gradientUnits="userSpaceOnUse" cx="64" cy="36" r="64">
            <stop offset="0%" stop-color="#69727E"/>
            <stop offset="100%" stop-color="#3F444A"/>
        </radialGradient>
        <rect id="lnbkk7otra" width="128" height="72" x="0" y="0" rx="3"/>
    </defs>
    <g fill="none" fill-rule="evenodd">
        <g>
            <g>
                <g transform="translate(-1035 -2276) translate(1035 2276)">
                    <mask id="2ry55p5x6c" fill="#fff">
                        <use xlink:href="#lnbkk7otra"/>
                    </mask>
                    <use fill="url(#s2tvl934ob)" xlink:href="#lnbkk7otra"/>
                    <path fill="#FFF" fill-rule="nonzero" d="M61.81 40.172V29.435h-1.846v8.298h-2.732v1.421h2.732v1.018h1.846zm-7.17-5.295c1.069 0 1.944-.236 2.625-.707.682-.471 1.022-1.1 1.022-1.886 0-.796-.333-1.424-1-1.886-.666-.461-1.549-.692-2.647-.692-1.07 0-1.947.234-2.633.703-.686.469-1.03 1.094-1.03 1.875 0 .781.339 1.409 1.015 1.883.676.473 1.559.71 2.648.71zm0-1.42c-.577 0-1.026-.113-1.348-.338-.322-.224-.483-.503-.483-.835 0-.322.164-.596.494-.82.33-.225.775-.337 1.337-.337.59 0 1.043.106 1.358.319.315.212.473.491.473.838 0 .322-.164.598-.491.828-.327.23-.774.344-1.34.344zm1.399 6.496v-2.945c1.074-.044 2.148-.102 3.222-.175l-.124-1.517c-2.652.181-5.701.271-9.148.271l.256 1.59c1.065 0 2.4-.032 4.006-.095v2.87h1.788zm6.115 3.164V41.57h-8.247v-2.82h-1.83v4.366h10.077zm15.901-4.908v-1.545h-5.64v-1.392h3.663V29.78h-1.831v1.348h-5.494v-1.348h-1.83v5.493h3.647v1.392h-5.625v1.545h13.11zm-3.808-4.467h-5.494v-1.114h5.494v1.114zm2.065 9.433V41.63h-7.588v-2.637h-1.846v4.182h9.434z" mask="url(#2ry55p5x6c)" opacity=".5"/>
                </g>
            </g>
        </g>
    </g>
</svg>
