<svg xmlns="http://www.w3.org/2000/svg" xmlns:xlink="http://www.w3.org/1999/xlink" width="128" height="72" viewBox="0 0 128 72">
    <defs>
        <rect id="jdsomclbra" width="128" height="72" x="0" y="0" rx="3"/>
    </defs>
    <g fill="none" fill-rule="evenodd">
        <g>
            <g>
                <g transform="translate(-895 -2275) translate(895 2275)">
                    <mask id="guyvvzqdkb" fill="#fff">
                        <use xlink:href="#jdsomclbra"/>
                    </mask>
                    <use fill="#CCC" xlink:href="#jdsomclbra"/>
                    <path fill="#FFF" d="M5.571 94.714v5.572H0v-5.572h5.571zm11.143 0v5.572h-5.571v-5.572h5.571zm11.143 0v5.572h-5.571v-5.572h5.571zm11.143 0v5.572h-5.571v-5.572H39zm11.143 0v5.572H44.57v-5.572h5.572zm11.143 0v5.572h-5.572v-5.572h5.572zm11.143 0v5.572h-5.572v-5.572h5.572zm11.142 0v5.572H78v-5.572h5.571zm11.143 0v5.572h-5.571v-5.572h5.571zm11.143 0v5.572h-5.571v-5.572h5.571zm11.143 0v5.572h-5.571v-5.572H117zm11.143 0v5.572h-5.572v-5.572h5.572zm11.143 0v5.572h-5.572v-5.572h5.572zm11.143 0v5.572h-5.572v-5.572h5.572zM11.143 89.143v5.571H5.57v-5.571h5.572zm11.143 0v5.571h-5.572v-5.571h5.572zm11.143 0v5.571h-5.572v-5.571h5.572zm11.142 0v5.571H39v-5.571h5.571zm11.143 0v5.571h-5.571v-5.571h5.571zm11.143 0v5.571h-5.571v-5.571h5.571zm11.143 0v5.571h-5.571v-5.571H78zm11.143 0v5.571H83.57v-5.571h5.572zm11.143 0v5.571h-5.572v-5.571h5.572zm11.143 0v5.571h-5.572v-5.571h5.572zm11.142 0v5.571H117v-5.571h5.571zm11.143 0v5.571h-5.571v-5.571h5.571zm11.143 0v5.571h-5.571v-5.571h5.571zm11.143 0v5.571h-5.571v-5.571H156zM5.571 83.57v5.572H0V83.57h5.571zm11.143 0v5.572h-5.571V83.57h5.571zm11.143 0v5.572h-5.571V83.57h5.571zm11.143 0v5.572h-5.571V83.57H39zm11.143 0v5.572H44.57V83.57h5.572zm11.143 0v5.572h-5.572V83.57h5.572zm11.143 0v5.572h-5.572V83.57h5.572zm11.142 0v5.572H78V83.57h5.571zm11.143 0v5.572h-5.571V83.57h5.571zm11.143 0v5.572h-5.571V83.57h5.571zm11.143 0v5.572h-5.571V83.57H117zm11.143 0v5.572h-5.572V83.57h5.572zm11.143 0v5.572h-5.572V83.57h5.572zm11.143 0v5.572h-5.572V83.57h5.572zM55.714 78v5.571h-5.571V78h5.571zm11.143 0v5.571h-5.571V78h5.571zm78 0v5.571h-5.571V78h5.571zM156 78v5.571h-5.571V78H156zM11.143 78v5.571H5.57V78h5.572zm11.143 0v5.571h-5.572V78h5.572zm11.143 0v5.571h-5.572V78h5.572zm11.142 0v5.571H39V78h5.571zm55.715 0v5.571h-5.572V78h5.572zm11.143 0v5.571h-5.572V78h5.572zm11.142 0v5.571H117V78h5.571zm11.143 0v5.571h-5.571V78h5.571zM78 78v5.571h-5.571V78H78zm11.143 0v5.571H83.57V78h5.572zM5.57 72.429V78H0v-5.571h5.571zm11.143 0V78h-5.571v-5.571h5.571zm11.143 0V78h-5.571v-5.571h5.571zm11.143 0V78h-5.571v-5.571H39zm11.143 0V78H44.57v-5.571h5.572zm11.143 0V78h-5.572v-5.571h5.572zm11.143 0V78h-5.572v-5.571h5.572zm11.142 0V78H78v-5.571h5.571zm11.143 0V78h-5.571v-5.571h5.571zm11.143 0V78h-5.571v-5.571h5.571zm11.143 0V78h-5.571v-5.571H117zm11.143 0V78h-5.572v-5.571h5.572zm11.143 0V78h-5.572v-5.571h5.572zm11.143 0V78h-5.572v-5.571h5.572zm-117-5.572v5.572h-5.572v-5.572h5.572zm22.285 0v5.572h-5.571v-5.572h5.571zm11.143 0v5.572h-5.571v-5.572h5.571zm78 0v5.572h-5.571v-5.572h5.571zm11.143 0v5.572h-5.571v-5.572H156zm-144.857 0v5.572H5.57v-5.572h5.572zm11.143 0v5.572h-5.572v-5.572h5.572zm55.714 0v5.572h-5.571v-5.572H78zm11.143 0v5.572H83.57v-5.572h5.572zm11.143 0v5.572h-5.572v-5.572h5.572zm11.143 0v5.572h-5.572v-5.572h5.572zm11.142 0v5.572H117v-5.572h5.571zm11.143 0v5.572h-5.571v-5.572h5.571zm-89.143 0v5.572H39v-5.572h5.571zm27.858-5.571v5.571h-5.572v-5.571h5.572zm33.428 0v5.571h-5.571v-5.571h5.571zm-22.286 0v5.571H78v-5.571h5.571zm-78 0v5.571H0v-5.571h5.571zm11.143 0v5.571h-5.571v-5.571h5.571zm11.143 0v5.571h-5.571v-5.571h5.571zm11.143 0v5.571h-5.571v-5.571H39zm11.143 0v5.571H44.57v-5.571h5.572zm11.143 0v5.571h-5.572v-5.571h5.572zm55.714 0v5.571h-5.571v-5.571H117zm11.143 0v5.571h-5.572v-5.571h5.572zm11.143 0v5.571h-5.572v-5.571h5.572zm11.143 0v5.571h-5.572v-5.571h5.572zm-55.715 0v5.571h-5.571v-5.571h5.571zm50.143-5.572v5.572h-5.571v-5.572h5.571zm11.143 0v5.572h-5.571v-5.572H156zm-144.857 0v5.572H5.57v-5.572h5.572zm11.143 0v5.572h-5.572v-5.572h5.572zm11.143 0v5.572h-5.572v-5.572h5.572zm11.142 0v5.572H39v-5.572h5.571zm11.143 0v5.572h-5.571v-5.572h5.571zm11.143 0v5.572h-5.571v-5.572h5.571zm11.143 0v5.572h-5.571v-5.572H78zm11.143 0v5.572H83.57v-5.572h5.572zm11.143 0v5.572h-5.572v-5.572h5.572zm11.143 0v5.572h-5.572v-5.572h5.572zm11.142 0v5.572H117v-5.572h5.571zm11.143 0v5.572h-5.571v-5.572h5.571zm-117-5.571v5.571h-5.571v-5.571h5.571zm22.286 0v5.571h-5.571v-5.571H39zm55.714 0v5.571h-5.571v-5.571h5.571zm-44.571 0v5.571H44.57v-5.571h5.572zm22.286 0v5.571h-5.572v-5.571h5.572zm11.142 0v5.571H78v-5.571h5.571zm-78 0v5.571H0v-5.571h5.571zm100.286 0v5.571h-5.571v-5.571h5.571zm11.143 0v5.571h-5.571v-5.571H117zm11.143 0v5.571h-5.572v-5.571h5.572zm11.143 0v5.571h-5.572v-5.571h5.572zm11.143 0v5.571h-5.572v-5.571h5.572zm-89.143 0v5.571h-5.572v-5.571h5.572zm-33.429 0v5.571h-5.571v-5.571h5.571zm105.857-5.572v5.572h-5.571V44.57h5.571zm11.143 0v5.572h-5.571V44.57h5.571zm-122.571 0v5.572h-5.572V44.57h5.572zm78 0v5.572h-5.572V44.57h5.572zm-33.429 0v5.572h-5.571V44.57h5.571zm-55.714 0v5.572H5.57V44.57h5.572zm100.286 0v5.572h-5.572V44.57h5.572zm-22.286 0v5.572H83.57V44.57h5.572zm-44.572 0v5.572H39V44.57h5.571zm78 0v5.572H117V44.57h5.571zm33.429 0v5.572h-5.571V44.57H156zm-122.571 0v5.572h-5.572V44.57h5.572zm22.285 0v5.572h-5.571V44.57h5.571zm22.286 0v5.572h-5.571V44.57H78zM5.571 39v5.571H0V39h5.571zm55.715 0v5.571h-5.572V39h5.572zm89.143 0v5.571h-5.572V39h5.572zM50.143 39v5.571H44.57V39h5.572zm33.428 0v5.571H78V39h5.571zm11.143 0v5.571h-5.571V39h5.571zM39 39v5.571h-5.571V39H39zm100.286 0v5.571h-5.572V39h5.572zm-33.429 0v5.571h-5.571V39h5.571zM72.43 39v5.571h-5.572V39h5.572zm-55.715 0v5.571h-5.571V39h5.571zm11.143 0v5.571h-5.571V39h5.571zm100.286 0v5.571h-5.572V39h5.572zM117 39v5.571h-5.571V39H117zm-50.143-5.571V39h-5.571v-5.571h5.571zm-44.571 0V39h-5.572v-5.571h5.572zm78 0V39h-5.572v-5.571h5.572zm11.143 0V39h-5.572v-5.571h5.572zm-100.286 0V39H5.57v-5.571h5.572zm144.857 0V39h-5.571v-5.571H156zm-100.286 0V39h-5.571v-5.571h5.571zm-22.285 0V39h-5.572v-5.571h5.572zm44.571 0V39h-5.571v-5.571H78zm11.143 0V39H83.57v-5.571h5.572zm55.714 0V39h-5.571v-5.571h5.571zm-11.143 0V39h-5.571v-5.571h5.571zm-11.143 0V39H117v-5.571h5.571zm-78 0V39H39v-5.571h5.571zm61.286-5.572v5.572h-5.571v-5.572h5.571zm-78 0v5.572h-5.571v-5.572h5.571zm33.429 0v5.572h-5.572v-5.572h5.572zm55.714 0v5.572h-5.571v-5.572H117zm-100.286 0v5.572h-5.571v-5.572h5.571zm78 0v5.572h-5.571v-5.572h5.571zm-22.285 0v5.572h-5.572v-5.572h5.572zm-33.429 0v5.572h-5.571v-5.572H39zm44.571 0v5.572H78v-5.572h5.571zm-78 0v5.572H0v-5.572h5.571zm144.858 0v5.572h-5.572v-5.572h5.572zm-11.143 0v5.572h-5.572v-5.572h5.572zm-11.143 0v5.572h-5.572v-5.572h5.572zm-78 0v5.572H44.57v-5.572h5.572zM156 22.286v5.571h-5.571v-5.571H156zm-100.286 0v5.571h-5.571v-5.571h5.571zm33.429 0v5.571H83.57v-5.571h5.572zm11.143 0v5.571h-5.572v-5.571h5.572zm-55.715 0v5.571H39v-5.571h5.571zm100.286 0v5.571h-5.571v-5.571h5.571zm-133.714 0v5.571H5.57v-5.571h5.572zm55.714 0v5.571h-5.571v-5.571h5.571zm-44.571 0v5.571h-5.572v-5.571h5.572zm11.143 0v5.571h-5.572v-5.571h5.572zm100.285 0v5.571h-5.571v-5.571h5.571zm-11.143 0v5.571H117v-5.571h5.571zm-11.142 0v5.571h-5.572v-5.571h5.572zm-33.429 0v5.571h-5.571v-5.571H78zm72.429-5.572v5.572h-5.572v-5.572h5.572zm-100.286 0v5.572H44.57v-5.572h5.572zm33.428 0v5.572H78v-5.572h5.571zm11.143 0v5.572h-5.571v-5.572h5.571zm-55.714 0v5.572h-5.571v-5.572H39zm100.286 0v5.572h-5.572v-5.572h5.572zm-133.715 0v5.572H0v-5.572h5.571zm55.715 0v5.572h-5.572v-5.572h5.572zm-44.572 0v5.572h-5.571v-5.572h5.571zm11.143 0v5.572h-5.571v-5.572h5.571zm100.286 0v5.572h-5.572v-5.572h5.572zm-11.143 0v5.572h-5.571v-5.572H117zm-11.143 0v5.572h-5.571v-5.572h5.571zm-33.428 0v5.572h-5.572v-5.572h5.572zM156 11.143v5.571h-5.571v-5.571H156zm-100.286 0v5.571h-5.571v-5.571h5.571zm33.429 0v5.571H83.57v-5.571h5.572zm11.143 0v5.571h-5.572v-5.571h5.572zm-55.715 0v5.571H39v-5.571h5.571zm100.286 0v5.571h-5.571v-5.571h5.571zm-33.428 0v5.571h-5.572v-5.571h5.572zm-33.429 0v5.571h-5.571v-5.571H78zm-55.714 0v5.571h-5.572v-5.571h5.572zm11.143 0v5.571h-5.572v-5.571h5.572zm100.285 0v5.571h-5.571v-5.571h5.571zm-11.143 0v5.571H117v-5.571h5.571zm-111.428 0v5.571H5.57v-5.571h5.572zm55.714 0v5.571h-5.571v-5.571h5.571zM5.571 5.57v5.572H0V5.57h5.571zm55.715 0v5.572h-5.572V5.57h5.572zm89.143 0v5.572h-5.572V5.57h5.572zm-100.286 0v5.572H44.57V5.57h5.572zm33.428 0v5.572H78V5.57h5.571zm11.143 0v5.572h-5.571V5.57h5.571zM39 5.571v5.572h-5.571V5.57H39zm100.286 0v5.572h-5.572V5.57h5.572zm-11.143 0v5.572h-5.572V5.57h5.572zm-11.143 0v5.572h-5.571V5.57H117zm-11.143 0v5.572h-5.571V5.57h5.571zm-33.428 0v5.572h-5.572V5.57h5.572zm-55.715 0v5.572h-5.571V5.57h5.571zm11.143 0v5.572h-5.571V5.57h5.571zM11.143 0v5.571H5.57V0h5.572zm11.143 0v5.571h-5.572V0h5.572zm11.143 0v5.571h-5.572V0h5.572zM44.57 0v5.571H39V0h5.571zm11.143 0v5.571h-5.571V0h5.571zm11.143 0v5.571h-5.571V0h5.571zM78 0v5.571h-5.571V0H78zm11.143 0v5.571H83.57V0h5.572zm11.143 0v5.571h-5.572V0h5.572zm11.143 0v5.571h-5.572V0h5.572zm11.142 0v5.571H117V0h5.571zm11.143 0v5.571h-5.571V0h5.571zm11.143 0v5.571h-5.571V0h5.571zM156 0v5.571h-5.571V0H156z" mask="url(#guyvvzqdkb)"/>
                    <path fill="#000" fill-rule="nonzero" d="M26.252 41v-3.647h1.223L29.863 41h2.497l-2.629-3.867v-.03c.459-.15.848-.368 1.168-.651.32-.284.569-.641.747-1.073.178-.432.268-.927.268-1.483 0-.523-.075-.997-.224-1.421-.149-.425-.37-.799-.666-1.121-.296-.322-.684-.571-1.165-.747-.48-.176-1.034-.264-1.659-.264h-4.028V41h2.08zm1.48-5.508h-1.48v-3.274h1.567c.606 0 1.076.147 1.41.44.335.293.502.69.502 1.194 0 .502-.173.902-.52 1.197-.347.295-.84.443-1.48.443zm9.492 5.633c.703 0 1.323-.126 1.86-.378.537-.251.972-.587 1.304-1.007l-1.275-1.186c-.459.556-1.042.832-1.75.827-.469-.005-.868-.131-1.198-.38-.33-.25-.553-.591-.67-1.026h5.134c.035-.122.052-.356.052-.703 0-.713-.15-1.351-.447-1.915-.298-.564-.72-1.006-1.267-1.326-.547-.32-1.175-.48-1.883-.48-.512 0-.993.093-1.442.279-.45.185-.834.443-1.154.772-.32.33-.572.73-.758 1.201-.186.472-.278.98-.278 1.528 0 .747.164 1.41.494 1.992.33.58.78 1.026 1.351 1.336.572.31 1.214.466 1.927.466zm1.508-4.563h-3.23c.113-.416.314-.733.605-.953.29-.22.638-.33 1.043-.33.415 0 .757.114 1.026.341.268.227.454.541.556.942zm10.276 4.445v-3.67c0-.424.067-.791.202-1.101.134-.31.313-.541.538-.693.225-.15.476-.227.754-.227.855 0 1.282.635 1.282 1.905v3.786h1.963v-4.262c0-1.084-.226-1.888-.677-2.41-.452-.523-1.088-.784-1.908-.784-.528 0-1.01.102-1.447.304-.437.203-.804.495-1.102.875h-.022c-.43-.786-1.155-1.179-2.175-1.179-.41 0-.806.094-1.187.282-.38.188-.715.458-1.003.81h-.022v-.967H42.24V41h1.963v-3.662c0-.425.068-.792.205-1.102.136-.31.32-.541.549-.693.23-.15.493-.227.791-.227.864 0 1.296.635 1.296 1.905v3.786h1.963zm10.115.118c.752 0 1.423-.158 2.014-.473.591-.315 1.052-.76 1.384-1.337.333-.576.499-1.232.499-1.97 0-.556-.097-1.07-.29-1.542-.193-.47-.46-.871-.802-1.2-.342-.33-.754-.588-1.238-.773-.483-.186-1.005-.279-1.567-.279-.571 0-1.101.095-1.59.286-.488.19-.9.453-1.237.787-.337.335-.6.736-.787 1.205-.188.469-.282.974-.282 1.516 0 .435.06.845.179 1.23.12.386.294.734.524 1.044.23.31.501.578.816.802.315.225.675.398 1.08.52.406.122.838.184 1.297.184zm0-1.758c-.557 0-1.014-.194-1.373-.583-.36-.388-.539-.867-.539-1.439 0-.586.177-1.07.531-1.454.354-.383.815-.575 1.381-.575.547 0 1.001.19 1.362.568.362.378.542.866.542 1.461 0 .586-.183 1.07-.549 1.45-.366.381-.818.572-1.355.572zM68.579 41l2.878-7.324h-2.095l-1.684 4.922h-.022l-1.721-4.922h-2.073L66.748 41h1.83zm7.492.125c.703 0 1.324-.126 1.86-.378.538-.251.972-.587 1.304-1.007l-1.274-1.186c-.459.556-1.043.832-1.75.827-.47-.005-.868-.131-1.198-.38-.33-.25-.553-.591-.67-1.026h5.134c.034-.122.051-.356.051-.703 0-.713-.149-1.351-.446-1.915-.298-.564-.72-1.006-1.268-1.326-.546-.32-1.174-.48-1.882-.48-.513 0-.994.093-1.443.279-.449.185-.833.443-1.153.772-.32.33-.573.73-.758 1.201-.186.472-.279.98-.279 1.528 0 .747.165 1.41.495 1.992.33.58.78 1.026 1.351 1.336.571.31 1.213.466 1.926.466zm1.51-4.563h-3.23c.111-.416.313-.733.603-.953.29-.22.639-.33 1.044-.33.415 0 .757.114 1.025.341.269.227.455.541.557.942zM89.627 41c.572 0 1.078-.073 1.52-.22.442-.146.803-.351 1.084-.615.28-.264.493-.574.637-.93.144-.357.216-.75.216-1.18 0-.698-.185-1.28-.556-1.746-.371-.466-.899-.785-1.582-.956v-.03c.37-.14.678-.342.923-.604.244-.26.417-.54.52-.834.102-.296.153-.61.153-.942 0-.844-.296-1.489-.89-1.933-.593-.445-1.456-.667-2.589-.667H85.22V41h4.41zm-.827-6.292h-1.509v-2.497h1.37c.4 0 .732.052.996.157.263.105.454.248.571.429.117.18.176.398.176.652 0 .283-.077.521-.23.714-.155.193-.349.332-.583.417-.235.086-.498.128-.791.128zm.19 4.439h-1.699v-2.74h1.721c.61 0 1.076.124 1.395.37.32.247.48.585.48 1.015 0 .298-.08.548-.242.75-.16.203-.382.355-.662.455-.281.1-.612.15-.993.15zm10.891 1.956c.806 0 1.584-.12 2.333-.36.75-.239 1.37-.558 1.864-.959v-4.592h-4.431V37h2.395v1.567c-.65.406-1.37.608-2.16.608-.65 0-1.223-.155-1.718-.465-.496-.31-.873-.727-1.132-1.252-.259-.525-.388-1.115-.388-1.77 0-.531.082-1.018.245-1.46.164-.442.389-.81.674-1.103.286-.293.62-.52 1-.68.38-.162.791-.242 1.23-.242 1.065 0 1.978.368 2.74 1.106l1.494-1.268c-.532-.595-1.174-1.048-1.926-1.358-.752-.31-1.521-.465-2.308-.465-.815 0-1.56.139-2.233.417-.674.279-1.237.662-1.689 1.15-.451.488-.802 1.067-1.05 1.736-.25.669-.374 1.392-.374 2.168 0 .835.139 1.595.417 2.281.279.686.662 1.257 1.15 1.71.488.455 1.063.805 1.725 1.052.662.246 1.376.37 2.142.37z" mask="url(#guyvvzqdkb)" opacity=".772"/>
                </g>
            </g>
        </g>
    </g>
</svg>
