<svg xmlns="http://www.w3.org/2000/svg" xmlns:xlink="http://www.w3.org/1999/xlink" width="128" height="72" viewBox="0 0 128 72">
    <defs>
        <radialGradient id="ge89xndlkb" gradientUnits="userSpaceOnUse" cx="64" cy="36" r="64">
            <stop offset="0%" stop-color="#69727E"/>
            <stop offset="100%" stop-color="#3F444A"/>
        </radialGradient>
        <rect id="1w25n9xh5a" width="128" height="72" x="0" y="0" rx="3"/>
    </defs>
    <g fill="none" fill-rule="evenodd">
        <g>
            <g>
                <g transform="translate(-755 -2275) translate(755 2275)">
                    <mask id="iks6z76rmc" fill="#fff">
                        <use xlink:href="#1w25n9xh5a"/>
                    </mask>
                    <use fill="url(#ge89xndlkb)" xlink:href="#1w25n9xh5a"/>
                    <path fill="#FFF" fill-rule="nonzero" d="M41.167 41.125c.776 0 1.498-.134 2.164-.4.667-.266 1.24-.634 1.718-1.106.478-.47.854-1.047 1.128-1.728.273-.681.41-1.422.41-2.223 0-.8-.137-1.54-.41-2.22-.274-.678-.65-1.253-1.128-1.724-.479-.471-1.051-.84-1.718-1.106-.666-.266-1.388-.4-2.164-.4-.791 0-1.526.137-2.205.41-.678.274-1.253.65-1.724 1.129-.472.478-.84 1.055-1.106 1.728-.267.674-.4 1.402-.4 2.183 0 .781.133 1.51.4 2.186.266.677.634 1.254 1.106 1.732.47.479 1.044.855 1.72 1.128.677.274 1.413.41 2.209.41zm.007-1.963c-.625 0-1.186-.157-1.684-.47-.498-.312-.883-.733-1.154-1.263-.27-.53-.406-1.117-.406-1.761 0-.64.135-1.224.406-1.754s.656-.95 1.154-1.26c.498-.31 1.06-.465 1.684-.465.606 0 1.154.149 1.645.447.49.298.876.713 1.157 1.245.28.532.421 1.128.421 1.787 0 .493-.082.957-.245 1.392-.164.434-.389.805-.674 1.113-.286.307-.628.55-1.026.725-.398.176-.824.264-1.278.264zM50.278 41v-3.398c0-.562.165-1.02.495-1.377.33-.357.787-.535 1.373-.535.151 0 .325.007.52.022v-2.153c-.03-.005-.08-.008-.154-.008-.434 0-.842.104-1.223.312-.38.207-.71.504-.989.89h-.022v-1.077h-1.963V41h1.963zm4.732-8.357c.332 0 .617-.117.857-.351.239-.235.359-.518.359-.85 0-.327-.12-.608-.36-.842-.239-.235-.524-.352-.856-.352-.337 0-.624.117-.86.352-.238.234-.356.515-.356.842 0 .22.054.421.161.604.108.183.255.329.443.436.188.107.392.161.612.161zM55.99 41v-7.324h-1.963V41h1.963zm5.413 3.09c.552 0 1.044-.063 1.476-.19.432-.127.794-.305 1.087-.534.293-.23.535-.51.725-.839.19-.33.328-.69.41-1.08.084-.39.125-.82.125-1.29v-6.481h-1.963v.754h-.036c-.284-.288-.614-.506-.993-.655-.378-.15-.777-.224-1.197-.224-.645 0-1.226.159-1.744.476-.517.318-.921.76-1.212 1.326-.29.566-.436 1.204-.436 1.912 0 .698.15 1.322.45 1.871.301.55.716.975 1.246 1.278.53.303 1.13.454 1.798.454.879 0 1.59-.285 2.131-.857h.037v.74c0 .469-.18.857-.542 1.165-.361.307-.871.461-1.53.461-.435 0-.84-.059-1.216-.176-.376-.117-.765-.285-1.165-.505l-.454 1.655c.86.493 1.86.74 3.003.74zm.095-5.002c-.21 0-.409-.028-.597-.084-.188-.056-.359-.138-.513-.245-.153-.108-.286-.237-.399-.388-.112-.152-.199-.326-.26-.524-.06-.198-.091-.411-.091-.64 0-.553.173-1.002.52-1.349.346-.346.793-.52 1.34-.52.527 0 .968.171 1.322.513.354.342.531.789.531 1.34 0 .552-.173 1.006-.52 1.363-.347.356-.791.534-1.333.534zm6.716-6.445c.332 0 .618-.117.857-.351.24-.235.36-.518.36-.85 0-.327-.12-.608-.36-.842-.239-.235-.525-.352-.857-.352-.337 0-.623.117-.86.352-.237.234-.355.515-.355.842 0 .22.053.421.16.604.108.183.256.329.444.436.188.107.392.161.611.161zM69.197 41v-7.324h-1.963V41h1.963zm9.074.007v-4.35c0-.552-.063-1.03-.19-1.436-.127-.405-.311-.727-.553-.967-.242-.239-.52-.416-.835-.53-.315-.115-.675-.173-1.08-.173-.454 0-.885.092-1.293.275-.408.183-.76.448-1.058.795h-.022v-.945h-1.963V41h1.963v-3.684c0-.64.15-1.133.45-1.48.3-.346.705-.52 1.212-.52.479 0 .833.137 1.062.41.23.274.345.748.345 1.421v3.86h1.962zm4.974.118c.937 0 1.667-.337 2.19-1.011h.036V41h1.868v-7.324h-1.963v.827h-.03c-.546-.634-1.266-.952-2.16-.952-.483 0-.939.095-1.366.286-.427.19-.793.452-1.099.784-.305.332-.545.734-.721 1.208-.176.474-.264.984-.264 1.53 0 .558.088 1.071.264 1.543.176.47.419.869.729 1.193.31.325.68.578 1.113.759.432.18.9.27 1.403.27zm.359-1.758c-.552 0-1.003-.186-1.352-.557-.349-.371-.523-.852-.523-1.443 0-.615.179-1.11.538-1.487.359-.376.807-.564 1.344-.564.532 0 .973.196 1.322.586.349.391.524.88.524 1.465 0 .591-.179 1.072-.535 1.443-.357.371-.796.557-1.318.557zM91.316 41V29.955h-1.963V41h1.963z" mask="url(#iks6z76rmc)" opacity=".5"/>
                </g>
            </g>
        </g>
    </g>
</svg>
