<svg xmlns="http://www.w3.org/2000/svg" width="81" height="35" viewBox="0 0 81 35">
    <g fill="none" fill-rule="evenodd">
        <g fill="#FFF" fill-rule="nonzero">
            <g>
                <path d="M17.818 22v-3.161h1.06L20.948 22h2.164l-2.279-3.352v-.025c.398-.131.736-.32 1.013-.565.277-.245.493-.555.647-.93.155-.374.232-.803.232-1.285 0-.453-.064-.864-.194-1.232-.129-.368-.321-.692-.577-.97-.256-.28-.593-.496-1.01-.648-.416-.153-.895-.229-1.437-.229h-3.491V22h1.802zm1.283-4.773h-1.283v-2.838h1.359c.524 0 .932.127 1.222.381.29.254.434.599.434 1.035 0 .436-.15.782-.45 1.038-.3.256-.728.384-1.282.384zM30.679 22v-1.631h-4.374v-2.14h3.288v-1.612h-3.288v-2.215h4.1v-1.638h-5.903V22h6.177zm5.655.095c.775 0 1.475-.16 2.102-.479.626-.32 1.15-.744 1.574-1.273l-1.34-1.149c-.283.356-.628.64-1.034.85-.407.213-.84.318-1.302.318-.541 0-1.025-.126-1.45-.377-.425-.252-.755-.602-.99-1.05-.235-.45-.352-.957-.352-1.524 0-.263.023-.512.07-.75.046-.236.114-.455.202-.656.09-.201.196-.387.321-.556.125-.17.267-.318.425-.447.159-.13.331-.24.518-.33.186-.091.385-.16.596-.207.212-.046.432-.07.66-.07.458 0 .89.11 1.295.327.407.218.754.5 1.041.848l1.34-1.143c-.326-.402-.7-.738-1.12-1.009-.422-.27-.844-.466-1.267-.584-.423-.119-.853-.178-1.289-.178-.592 0-1.141.08-1.647.241-.505.161-.943.387-1.314.676-.37.29-.687.632-.952 1.026-.264.393-.462.828-.593 1.304-.132.476-.197.979-.197 1.508 0 .596.082 1.149.247 1.656.165.508.393.945.683 1.311.29.366.631.68 1.025.943.393.262.823.457 1.289.584.465.127.952.19 1.46.19zM47.608 22v-1.631h-4.374v-2.14h3.288v-1.612h-3.288v-2.215h4.101v-1.638h-5.903V22h6.176zm3.447 0v-6.12h.025L55.143 22h1.872v-9.236h-1.828v6.24h-.025l-4.107-6.24h-1.822V22h1.822zm11.724 0v-7.598h2.558v-1.638h-6.925v1.638h2.545V22h1.822z" transform="translate(-185 -695) translate(185 695)"/>
            </g>
        </g>
    </g>
</svg>
