<svg width="22" height="22" viewBox="0 0 22 22" fill="none" xmlns="http://www.w3.org/2000/svg">
<path fill-rule="evenodd" clip-rule="evenodd" d="M10.3032 4.04555C10.0782 3.95255 9.82424 4.00455 9.65424 4.17455L5.72124 8.10755H3.59524C3.26724 8.10755 3.00024 8.37555 3.00024 8.70355V13.4475C3.00024 13.7755 3.26724 14.0435 3.59524 14.0435H5.72124L9.65424 17.9765C9.76624 18.0885 9.91524 18.1505 10.0752 18.1505C10.1542 18.1505 10.2322 18.1345 10.3032 18.1055C10.5272 18.0135 10.6712 17.7975 10.6712 17.5555V4.59555C10.6712 4.35355 10.5272 4.13755 10.3032 4.04555Z" fill="#C34151"/>
<path fill-rule="evenodd" clip-rule="evenodd" d="M16 6C15.4477 6 15 6.44772 15 7V11.5C15 12.0523 15.4477 12.5 16 12.5C16.5523 12.5 17 12.0523 17 11.5V7C17 6.44772 16.5523 6 16 6ZM16 14C15.4477 14 15 14.4477 15 15C15 15.5523 15.4477 16 16 16C16.5523 16 17 15.5523 17 15C17 14.4477 16.5523 14 16 14Z" fill="#C34151"/>
</svg>
