<svg xmlns="http://www.w3.org/2000/svg" xmlns:xlink="http://www.w3.org/1999/xlink" width="28" height="27" viewBox="0 0 28 27">
    <defs>
        <path id="prefix__a" d="M0.76 0.684L20.24 0.684 20.24 14.988 0.76 14.988z"/>
        <path id="prefix__c" d="M0 0.234L4.767 0.234 4.767 5 0 5z"/>
        <path id="prefix__e" d="M0.233 0.234L5 0.234 5 5 0.233 5z"/>
    </defs>
    <g fill="none" fill-rule="evenodd">
        <g>
            <g transform="translate(1.5 3) translate(2 .316)">
                <mask id="prefix__b" fill="#fff">
                    <use xlink:href="#prefix__a"/>
                </mask>
                <path fill="#666" d="M10.5 14.988c-.786 0-1.571-.185-2.287-.554C5.935 13.26 1.969 10.393.999 4.388.821 3.29.742 2.198.763 1.143.769.885.975.677 1.241.685c.258.005.463.219.458.477-.02.999.055 2.034.223 3.077.905 5.599 4.599 8.27 6.72 9.363 1.163.6 2.553.6 3.716 0 2.121-1.093 5.815-3.764 6.719-9.363.169-1.043.244-2.078.224-3.077-.005-.258.2-.472.458-.477.26-.018.472.2.478.458.021 1.055-.058 2.147-.236 3.245-.97 6.004-4.936 8.87-7.214 10.046-.716.369-1.502.554-2.287.554" mask="url(#prefix__b)"/>
            </g>
            <g transform="translate(1.5 3) translate(0 14.316)">
                <mask id="prefix__d" fill="#fff">
                    <use xlink:href="#prefix__c"/>
                </mask>
                <path fill="#666" d="M.468 5c-.12 0-.24-.046-.331-.137-.183-.183-.183-.479 0-.662L3.967.37c.184-.182.48-.182.663 0 .183.183.183.479 0 .662L.799 4.863C.707 4.954.588 5 .468 5" mask="url(#prefix__d)"/>
            </g>
            <path fill="#666" d="M4.299 18.16c-.258 0-.468-.21-.468-.469v-2.206H1.625c-.258 0-.468-.209-.468-.468 0-.258.21-.468.468-.468h2.674c.258 0 .468.21.468.468v2.674c0 .258-.21.468-.468.468" transform="translate(1.5 3)"/>
            <g transform="translate(1.5 3) translate(20 14.316)">
                <mask id="prefix__f" fill="#fff">
                    <use xlink:href="#prefix__e"/>
                </mask>
                <path fill="#666" d="M4.532 5c-.12 0-.239-.046-.33-.137L.37 1.032C.187.849.187.553.37.37c.183-.182.48-.182.662 0l3.831 3.831c.183.183.183.479 0 .662-.092.091-.21.137-.33.137" mask="url(#prefix__f)"/>
            </g>
            <path fill="#666" d="M20.701 18.16c-.258 0-.468-.21-.468-.469v-2.674c0-.258.21-.468.468-.468h2.674c.258 0 .468.21.468.468 0 .26-.21.468-.468.468H21.17v2.206c0 .258-.21.468-.468.468" transform="translate(1.5 3)"/>
        </g>
    </g>
</svg>
