<svg xmlns="http://www.w3.org/2000/svg" width="28" height="27" viewBox="0 0 28 27">
    <g fill="none" fill-rule="evenodd">
        <path fill="#000" d="M0 0H2039V1975H0z" transform="translate(-100 -751)"/>
        <g>
            <path fill="#1E1E1F" d="M0 0L300 0 300 802 0 802z" transform="translate(-100 -751) translate(80 149)"/>
            <g>
                <path fill="#1E1E1F" d="M0 1H300V311H0z" transform="translate(-100 -751) translate(80 149) translate(0 336)"/>
                <g fill="#FFF">
                    <path d="M8.782 22.238c-.711 0-1.423-.167-2.072-.502-2.05-1.057-5.62-3.637-6.492-9.04-.635-3.933.13-7.41 2.157-9.791C3.97 1.032 6.245 0 8.782 0c.98 0 1.927.153 2.813.454.244.083.374.348.292.59-.083.245-.348.375-.592.293-.79-.27-1.635-.405-2.513-.405-2.26 0-4.282.916-5.697 2.578C1.238 5.679.547 8.888 1.138 12.547c.808 4.999 4.106 7.384 5.999 8.36 1.03.532 2.26.532 3.29 0 1.882-.97 4.37-2.876 5.538-6.446.08-.245.344-.378.588-.298.245.08.378.343.298.587-1.266 3.87-3.96 5.936-5.997 6.986-.65.335-1.36.502-2.072.502M18.104 11.688c-.258 0-.466-.21-.466-.466V8.354c0-.257.208-.466.465-.466s.466.209.466.466v2.868c0 .257-.209.466-.465.466" transform="translate(-100 -751) translate(80 149) translate(0 336) translate(24 268)"/>
                    <path d="M19.534 10.254h-2.861c-.257 0-.466-.209-.466-.466s.209-.466.466-.466h2.86c.258 0 .467.209.467.466s-.21.466-.466.466M15.473 7.425c-.258 0-.466-.209-.466-.466V1.995c0-.257.209-.466.466-.466.256 0 .465.21.465.466V6.96c0 .257-.209.466-.466.466" transform="translate(-100 -751) translate(80 149) translate(0 336) translate(24 268)"/>
                    <path d="M17.954 4.943h-4.963c-.258 0-.466-.209-.466-.466s.208-.466.466-.466h4.963c.258 0 .466.21.466.466 0 .257-.209.466-.466.466" transform="translate(-100 -751) translate(80 149) translate(0 336) translate(24 268)"/>
                </g>
            </g>
            <path stroke="#111" d="M.5.5v801h299V.5H.5z" transform="translate(-100 -751) translate(80 149)"/>
        </g>
    </g>
</svg>
