<svg xmlns="http://www.w3.org/2000/svg" xmlns:xlink="http://www.w3.org/1999/xlink" width="28" height="27" viewBox="0 0 28 27">
    <defs>
        <path id="prefix__a" d="M0.392 0.5L7 0.5 7 1.5 0.392 1.5z"/>
    </defs>
    <g fill="none" fill-rule="evenodd">
        <g>
            <path fill="#666" d="M6.121 10.706H.486c-.268 0-.486-.218-.486-.487 0-.268.218-.486.486-.486h5.635c.27 0 .487.218.487.486 0 .269-.218.487-.487.487" transform="translate(1.5 1)"/>
            <path fill="#666" d="M4.155 12.672c-.125 0-.249-.048-.344-.143-.19-.19-.19-.498 0-.688l1.622-1.622-1.622-1.622c-.19-.19-.19-.498 0-.688.19-.19.498-.19.688 0l1.966 1.966c.19.19.19.498 0 .688L4.5 12.529c-.095.095-.219.143-.344.143" transform="translate(1.5 1)"/>
            <g transform="translate(1.5 1) translate(19 9.22)">
                <mask id="prefix__b" fill="#fff">
                    <use xlink:href="#prefix__a"/>
                </mask>
                <path fill="#666" d="M6.513 1.487H.88C.61 1.487.392 1.269.392 1 .392.732.61.514.88.514h5.634C6.783.514 7 .732 7 1c0 .269-.218.487-.487.487" mask="url(#prefix__b)"/>
            </g>
            <path fill="#666" d="M21.845 12.672c-.125 0-.249-.048-.344-.143l-1.966-1.966c-.19-.19-.19-.498 0-.688l1.966-1.966c.19-.19.498-.19.688 0 .19.19.19.498 0 .688l-1.622 1.622 1.622 1.622c.19.19.19.498 0 .688-.095.095-.219.143-.344.143M8.723 23.22c-.02 0-.04-.002-.062-.005-1.332-.169-3.852-1.203-3.852-3.909 0-2.488 1.151-4.152 2.37-5.914 1.302-1.883 2.65-3.83 2.65-7.032V.486c0-.268.217-.486.486-.486.27 0 .487.218.487.486V6.36c0 3.505-1.5 5.673-2.823 7.586-1.178 1.704-2.197 3.176-2.197 5.36 0 2.534 2.88 2.928 3.002 2.944.266.033.455.277.421.544-.03.245-.24.425-.482.425" transform="translate(1.5 1)"/>
            <path fill="#666" d="M13 23.22c-1.194 0-1.731-.792-2.204-1.49-.477-.702-.889-1.309-1.967-1.309-.269 0-.487-.218-.487-.487s.218-.487.487-.487c1.594 0 2.247.963 2.772 1.737.46.678.752 1.062 1.399 1.062.269 0 .487.218.487.486 0 .27-.218.487-.487.487M17.277 23.22c-.242 0-.451-.18-.482-.426-.034-.267.155-.51.42-.544.13-.018 3.003-.427 3.003-2.944 0-2.184-1.018-3.656-2.197-5.36-1.323-1.913-2.823-4.08-2.823-7.586V.486c0-.268.218-.486.487-.486s.487.218.487.486V6.36c0 3.202 1.347 5.15 2.649 7.032 1.219 1.762 2.37 3.426 2.37 5.914 0 2.706-2.52 3.74-3.852 3.91l-.062.003" transform="translate(1.5 1)"/>
            <path fill="#666" d="M13 23.22c-.269 0-.487-.219-.487-.488 0-.268.218-.486.487-.486.647 0 .939-.384 1.399-1.062.525-.774 1.178-1.737 2.772-1.737.269 0 .487.218.487.487 0 .27-.218.487-.487.487-1.078 0-1.49.607-1.967 1.31-.473.697-1.01 1.488-2.204 1.488" transform="translate(1.5 1)"/>
        </g>
    </g>
</svg>
