<svg xmlns="http://www.w3.org/2000/svg" width="28" height="27" viewBox="0 0 28 27">
    <g fill="none" fill-rule="evenodd">
        <g fill="#FFF">
            <path d="M5.829 2.46l.011-.02c.011-.018.021-.036.029-.056.004-.009.006-.018.009-.028.006-.017.013-.035.017-.054.005-.028.008-.057.008-.087 0-.029-.003-.058-.008-.087-.004-.017-.01-.034-.016-.05-.003-.01-.005-.022-.01-.032-.007-.018-.018-.036-.028-.053-.004-.007-.007-.015-.012-.022-.016-.024-.034-.046-.055-.066L3.998.128c-.171-.17-.45-.17-.621 0-.172.172-.172.45 0 .622l1.025 1.026H.44c-.243 0-.44.197-.44.44 0 .242.197.44.44.44h3.962L3.377 3.68c-.172.172-.172.45 0 .622.085.086.198.128.31.128.113 0 .225-.042.311-.128l1.776-1.777c.021-.02.039-.042.055-.066M25.56 1.776h-3.963L22.623.75c.172-.17.172-.45 0-.62-.172-.173-.45-.173-.622 0l-1.776 1.775c-.02.02-.038.042-.054.066l-.012.021c-.01.018-.02.035-.029.055l-.009.03c-.006.016-.012.033-.016.052-.006.028-.009.057-.009.087 0 .03.003.058.01.087.003.018.01.036.016.054.003.01.004.02.008.028.008.02.02.038.03.056l.011.02c.016.023.034.045.054.066l1.776 1.776c.086.086.2.13.311.13.113 0 .225-.044.311-.13.172-.172.172-.45 0-.622l-1.026-1.026h3.963c.243 0 .44-.197.44-.439 0-.243-.197-.44-.44-.44M21.563 6.008c-.24-.04-.465.124-.504.364-.85 5.26-4.32 7.769-6.313 8.797-1.093.564-2.4.564-3.492 0-1.992-1.028-5.462-3.537-6.313-8.797-.038-.24-.262-.403-.504-.364-.24.039-.402.264-.363.504.91 5.64 4.637 8.335 6.777 9.438.673.347 1.41.52 2.149.52.738 0 1.476-.173 2.149-.52 2.14-1.103 5.866-3.797 6.778-9.438.039-.24-.124-.465-.364-.504" transform="translate(1 5)"/>
        </g>
    </g>
</svg>
