<svg xmlns="http://www.w3.org/2000/svg" width="28" height="27" viewBox="0 0 28 27">
    <g fill="none" fill-rule="evenodd">
        <g fill="#FFF">
            <path d="M13 14.245c-.782 0-1.565-.184-2.278-.552-2.268-1.17-6.218-4.024-7.184-10.005-.177-1.094-.256-2.182-.235-3.232C3.31.2 3.521-.007 3.78 0c.257.005.462.218.456.475-.02.994.055 2.026.223 3.065.901 5.575 4.58 8.235 6.691 9.324 1.16.598 2.543.598 3.702 0 2.112-1.089 5.79-3.748 6.691-9.325.168-1.038.243-2.069.223-3.064-.005-.256.2-.47.456-.474h.01c.253 0 .46.202.466.456.021 1.05-.058 2.137-.235 3.231-.966 5.98-4.916 8.835-7.184 10.005-.713.367-1.496.552-2.278.552M2.349 18.24c-.257 0-.466-.209-.466-.466V12.38c0-.258.209-.466.466-.466s.466.208.466.466v5.395c0 .257-.21.466-.466.466" transform="translate(1 4)"/>
            <path d="M4.232 14.728c-.12 0-.238-.046-.33-.137L2.35 13.038.796 14.59c-.182.183-.477.183-.66 0-.181-.181-.181-.477 0-.658L2.02 12.05c.087-.088.206-.137.329-.137.124 0 .242.049.33.137l1.882 1.883c.183.182.183.477 0 .658-.091.09-.21.137-.33.137M23.651 18.24c-.257 0-.466-.209-.466-.466V12.38c0-.258.21-.466.466-.466.257 0 .466.208.466.466v5.395c0 .257-.209.466-.466.466" transform="translate(1 4)"/>
            <path d="M25.534 14.728c-.119 0-.238-.046-.329-.137l-1.554-1.553-1.553 1.553c-.182.183-.477.183-.659 0-.182-.181-.182-.477 0-.658l1.883-1.883c.087-.088.206-.137.329-.137.124 0 .242.049.33.137l1.882 1.883c.182.182.182.477 0 .658-.091.09-.21.137-.329.137" transform="translate(1 4)"/>
        </g>
    </g>
</svg>
