<svg xmlns="http://www.w3.org/2000/svg" width="28" height="27" viewBox="0 0 28 27">
    <g fill="none" fill-rule="evenodd">
        <g fill="#FFF">
            <path d="M12.5 14.304c-.786 0-1.571-.185-2.287-.554-2.278-1.174-6.244-4.04-7.214-10.046-.178-1.098-.257-2.19-.236-3.245.006-.258.212-.466.478-.458.258.005.463.22.458.477-.02 1 .055 2.034.223 3.077.905 5.6 4.599 8.27 6.72 9.363 1.163.6 2.553.6 3.716 0 2.121-1.093 5.815-3.764 6.719-9.363.169-1.043.244-2.078.224-3.077-.005-.258.2-.472.458-.477.26-.018.472.2.478.458.021 1.055-.058 2.147-.236 3.245-.97 6.004-4.936 8.871-7.214 10.046-.716.37-1.502.554-2.287.554M.468 18.316c-.12 0-.24-.046-.331-.137-.183-.183-.183-.479 0-.662l3.83-3.83c.184-.183.48-.183.663 0 .183.182.183.478 0 .661L.799 18.18c-.092.091-.211.137-.331.137" transform="translate(1.5 4)"/>
            <path d="M4.299 17.16c-.258 0-.468-.21-.468-.469v-2.206H1.625c-.258 0-.468-.209-.468-.468 0-.258.21-.468.468-.468h2.674c.258 0 .468.21.468.468v2.674c0 .258-.21.468-.468.468M24.532 18.316c-.12 0-.239-.046-.33-.137l-3.832-3.83c-.183-.184-.183-.48 0-.663.183-.182.48-.182.662 0l3.831 3.831c.183.183.183.48 0 .662-.092.091-.21.137-.33.137" transform="translate(1.5 4)"/>
            <path d="M20.701 17.16c-.258 0-.468-.21-.468-.469v-2.674c0-.258.21-.468.468-.468h2.674c.258 0 .468.21.468.468 0 .26-.21.468-.468.468H21.17v2.206c0 .258-.21.468-.468.468" transform="translate(1.5 4)"/>
        </g>
    </g>
</svg>
