<svg xmlns="http://www.w3.org/2000/svg" width="170" height="59" viewBox="0 0 170 59">
    <g fill="#A8A8A8" fill-rule="evenodd">
        <path d="M9.008 3.672c-1.355 0-1.748.588-1.748 1.88v2.145h3.616l-.36 3.47H7.26v10.52H2.922v-10.52H0v-3.47h2.922V5.611c0-3.496 1.446-5.348 5.484-5.348.874 0 1.897.059 2.53.146v3.263M15.516 15.191c0 2.087.784 3.467 2.802 3.467 1.778 0 2.682-1.263 2.682-3.26v-1.412c0-1.998-.904-3.262-2.682-3.262-2.018 0-2.802 1.382-2.802 3.469v.998zm-4.338-.94c0-3.908 1.897-6.848 5.874-6.848 2.17 0 3.495 1.089 4.128 2.44V7.696h4.158v13.988H21.18v-2.114c-.603 1.351-1.958 2.408-4.128 2.408-3.977 0-5.874-2.937-5.874-6.846v-.882zM34.375 7.403c1.686 0 3.285.353 4.157.94l-.964 2.998c-.663-.323-1.747-.646-2.892-.646-2.35 0-3.374 1.322-3.374 3.585v.822c0 2.264 1.023 3.586 3.374 3.586 1.145 0 2.23-.324 2.892-.647l.964 2.998c-.872.588-2.47.94-4.157.94-5.091 0-7.412-2.674-7.412-6.964v-.647c0-4.29 2.32-6.965 7.412-6.965M43.443 13.399h5.242v-.352c0-1.529-.632-2.733-2.53-2.733-1.96 0-2.712 1.204-2.712 3.085m-4.338 1.822v-1.234c0-3.967 2.318-6.584 7.05-6.584 4.458 0 6.416 2.646 6.416 6.525v2.233h-9.128c.09 1.911.964 2.762 3.375 2.762 1.626 0 3.344-.323 4.61-.85l.782 2.907c-1.144.589-3.495 1.028-5.574 1.028-5.482 0-7.531-2.672-7.531-6.787M64.321 14.162c0-1.97-.784-3.438-2.862-3.438-1.778 0-2.741 1.234-2.741 3.232v1.47c0 1.998.963 3.232 2.741 3.232 2.078 0 2.862-1.47 2.862-3.439v-1.057zm4.339.97c0 3.908-1.928 6.847-5.905 6.847-2.17 0-3.676-1.059-4.279-2.41v2.116H54.38V.672l4.339-.381v9.345c.632-1.234 2.017-2.233 4.037-2.233 3.977 0 5.905 2.938 5.905 6.847v.881zM80.047 14.045c0-1.851-.784-3.32-2.802-3.32-2.02 0-2.802 1.469-2.802 3.32v1.293c0 1.85.783 3.32 2.802 3.32 2.018 0 2.802-1.47 2.802-3.32v-1.293zm-9.942.999v-.705c0-4.025 2.349-6.936 7.14-6.936 4.79 0 7.14 2.91 7.14 6.936v.705c0 4.027-2.35 6.935-7.14 6.935-4.791 0-7.14-2.908-7.14-6.935zM95.773 14.045c0-1.851-.785-3.32-2.802-3.32-2.02 0-2.802 1.469-2.802 3.32v1.293c0 1.85.782 3.32 2.802 3.32 2.017 0 2.802-1.47 2.802-3.32v-1.293zm-9.943.999v-.705c0-4.025 2.35-6.936 7.14-6.936 4.79 0 7.14 2.91 7.14 6.936v.705c0 4.027-2.35 6.935-7.14 6.935-4.79 0-7.14-2.908-7.14-6.935zM106.074 14.368L110.353 7.697 114.963 7.697 110.472 14.604 115.142 21.685 110.534 21.685 106.074 14.839 106.074 21.685 101.736 21.685 101.736.674 106.074.291" transform="translate(28.087 19.175)"/>
    </g>
</svg>
