<svg xmlns="http://www.w3.org/2000/svg" width="170" height="59" viewBox="0 0 170 59">
    <path fill="#BABABA" fill-rule="evenodd" d="M113.653 14.75l-4.083 5.636h-7.255l-2.426 2.415v-2.415h-5.665V14.75H76.44v5.636H51.412l-4.078-5.636h-8.9v19.324l11.321 11.269h11.32v-3.22l3.237 3.22h21.83v-3.22l3.237 3.22h10.51v-3.22l3.236 3.22h20.217l7.28-7.247V24.411l-4.047-4.025h-4.046V14.75h-8.876zm.784 1.614h6.473v5.633h4.853l3.237 3.22V36.49h-6.473v-8.052h-1.617v8.052h-6.473V16.364zM86.14 33.273v-16.91h6.472v5.634h5.665l-.006 6.441h-5.663v1.614h5.663v6.441h-8.895l-3.236-3.22zm-8.087-12.887h6.471v-4.022h-6.471v4.022zM40.052 33.273v-16.91h6.473v5.634h5.662l-.007 6.441h-5.655v1.614h5.662v6.441h-8.9l-3.235-3.22zm59.836 0v-8.056l3.234-3.22h9.705v6.441h-6.472v1.614h6.472v6.441h-9.705l-3.234-3.22zM78.054 36.49h6.471V21.997h-6.471V36.49zm-8.076-6.441v-8.052h6.47l-.013 14.493H57.033l-3.236-3.221V21.997h6.472v8.052h1.618v-8.052h6.472v8.052h1.619z"/>
</svg>
