<?xml version="1.0" encoding="UTF-8"?>
<svg width="115px" height="40px" viewBox="0 0 115 40" version="1.1" xmlns="http://www.w3.org/2000/svg" xmlns:xlink="http://www.w3.org/1999/xlink">
    <title>D52AF3A0-A604-4AAE-B3AC-6AA355B94841</title>
    <g id="Page-1" stroke="none" stroke-width="1" fill="none" fill-rule="evenodd">
        <g id="0525_Release-_Image-Resource" transform="translate(-100.000000, -611.000000)" fill="#9148FF">
            <g id="btn_addch_twitch_on" transform="translate(100.000000, 611.000000)">
                <path d="M76.883,10 L74.121,13.821 L69.213,13.821 L67.572,15.458 L67.572,13.821 L63.74,13.821 L63.74,10 L51.709,10 L51.709,13.821 L34.779,13.821 L32.02,10 L26,10 L26,23.101 L33.658,30.741 L41.316,30.741 L41.316,28.558 L43.505,30.741 L58.273,30.741 L58.273,28.558 L60.462,30.741 L67.572,30.741 L67.572,28.558 L69.761,30.741 L83.437,30.741 L88.362,25.828 L88.362,16.55 L85.624,13.821 L82.887,13.821 L82.887,10 L76.883,10 Z M77.413,11.094 L81.792,11.094 L81.792,14.913 L85.075,14.913 L87.265,17.096 L87.265,24.739 L82.886,24.739 L82.886,19.28 L81.792,19.28 L81.792,24.739 L77.413,24.739 L77.413,11.094 Z M58.272,22.558 L58.272,11.094 L62.65,11.094 L62.65,14.913 L66.482,14.913 L66.478,19.28 L62.647,19.28 L62.647,20.374 L66.478,20.374 L66.478,24.741 L60.461,24.741 L58.272,22.558 Z M52.801,13.821 L57.179,13.821 L57.179,11.094 L52.801,11.094 L52.801,13.821 Z M27.094,22.558 L27.094,11.094 L31.473,11.094 L31.473,14.913 L35.303,14.913 L35.298,19.28 L31.473,19.28 L31.473,20.374 L35.303,20.374 L35.303,24.741 L29.283,24.741 L27.094,22.558 Z M67.571,22.558 L67.571,17.096 L69.759,14.913 L76.324,14.913 L76.324,19.28 L71.946,19.28 L71.946,20.374 L76.324,20.374 L76.324,24.741 L69.759,24.741 L67.571,22.558 Z M52.801,24.739 L57.179,24.739 L57.179,14.913 L52.801,14.913 L52.801,24.739 Z M47.338,20.372 L47.338,14.913 L51.715,14.913 L51.706,24.739 L38.581,24.739 L36.392,22.555 L36.392,14.913 L40.77,14.913 L40.77,20.372 L41.865,20.372 L41.865,14.913 L46.243,14.913 L46.243,20.372 L47.338,20.372 Z" id="Fill-1"></path>
            </g>
        </g>
    </g>
</svg>