<svg xmlns="http://www.w3.org/2000/svg" width="170" height="59" viewBox="0 0 170 59">
    <defs>
        <linearGradient id="prefix__a" x1="49.833%" x2="49.833%" y1="77.168%" y2="12.74%">
            <stop offset="0%" stop-color="#FFF"/>
            <stop offset="100%" stop-color="#FFF" stop-opacity=".7"/>
        </linearGradient>
        <linearGradient id="prefix__b" x1="81.047%" x2="62.286%" y1="-3.06%" y2="28.88%">
            <stop offset="0%"/>
            <stop offset="100%" stop-opacity="0"/>
        </linearGradient>
        <linearGradient id="prefix__c" x1="64.111%" x2="56.596%" y1="86.388%" y2="67.031%">
            <stop offset="0%"/>
            <stop offset="100%" stop-opacity="0"/>
        </linearGradient>
    </defs>
    <g fill="none" fill-rule="evenodd">
        <g fill="#BABABA">
            <path d="M11.61.429c-1.088 0-1.973.877-1.973 1.956V8.43l-5.292-6.89C3.93 1.01 3.371.468 2.38.468h-.326C.936.469.06 1.337.06 2.446V13.84c0 1.079.885 1.957 1.973 1.957s1.973-.878 1.973-1.957V7.55l5.516 7.175c.416.53.974 1.072 1.966 1.072h.101c1.118 0 1.994-.87 1.994-1.977V2.385c0-1.08-.885-1.956-1.973-1.956M42.25.429c-1.042 0-1.784.682-2.058 1.364l-2.933 7.524-2.893-7.425C34.01.976 33.21.43 32.23.43c-1.212 0-2.16.932-2.16 2.122 0 .377.114.701.227.97l4.513 10.704.002-.006c.433 1.022 1.253 1.577 2.309 1.577h.199c1.055 0 1.875-.555 2.31-1.578L44.177 3.43c.08-.178.213-.532.213-.921 0-1.168-.94-2.081-2.14-2.081M56.327 11.516h-5.649V9.97h4.655c1.103 0 2-.763 2-1.846 0-1.094-.897-1.867-2-1.867h-4.655V4.71h5.549c1.104 0 2.001-.918 2.001-2 0-1.095-.897-2.022-2.001-2.022h-7.714c-1.211 0-1.891.852-1.891 2.053v10.764c0 1.2.68 2.034 1.89 2.034h7.815c1.104 0 2-.918 2-2.002 0-1.093-.896-2.02-2-2.02M67.439 7.737h-2.441V4.334h2.44c.607 0 1.899.204 1.899 1.702 0 1.497-1.292 1.701-1.898 1.701m6.297-2.06v-.04c0-1.458-.525-2.657-1.426-3.55C71.266 1.052 69.662.549 67.76.549h-4.83c-1.212 0-2.3.852-2.3 2.052v10.934c0 1.2.973 2.141 2.183 2.141 1.211 0 2.185-.94 2.185-2.141v-2.467H66.6l2.846 3.575c.546.691 1.202 1.033 2.007 1.033 1.147 0 2.08-.905 2.08-2.02 0-.697-.312-1.147-.64-1.558l-1.63-2.012c1.59-.915 2.472-2.424 2.472-4.41M23.304 9.392h-1.797l1.797-4.242L25.1 9.392h-1.797zm7.254 3.464l-4.85-10.861c-.452-1-1.313-1.576-2.365-1.576h-.08c-1.05 0-1.912.576-2.364 1.576l-4.85 10.86c-.116.254-.234.56-.234.908 0 1.144.896 2.042 2.041 2.042.883 0 1.627-.392 1.99-1.223l.812-1.786h5.292l.811 1.786c.364.831 1.107 1.223 1.99 1.223 1.145 0 2.041-.898 2.041-2.042 0-.348-.117-.654-.234-.907zM103.65.752c-1.094-.506-2.394-.037-2.904 1.047l-3.091 6.58-3.091-6.58c-.374-.794-1.171-1.253-2-1.246V.548H79.71c-1.12 0-2.029.9-2.029 2.01 0 1.112.909 2.012 2.029 2.012h3.484v8.94c0 1.196.978 2.166 2.184 2.166 1.206 0 2.184-.97 2.184-2.166V4.57h3.484l4.63 9.856c.37.787 1.157 1.244 1.979 1.245.822-.001 1.609-.458 1.979-1.245l5.072-10.796c.51-1.085.036-2.373-1.057-2.878" transform="translate(19.217 17.7) translate(28.087 4.425)"/>
        </g>
        <g opacity=".7">
            <path fill="url(#prefix__a)" fill-rule="nonzero" d="M0 2.639L6.467 2.639 6.467 21.116 0 21.116z" transform="translate(19.217 17.7)"/>
            <path fill="#FFF" fill-rule="nonzero" d="M20.176 10.838c-.969-1.604-3.014-2.074-4.574-1.079L1.556 18.774c-1.56.996-2.018 3.098-1.05 4.702.97 1.603 3.014 2.074 4.575 1.078l14.072-9.043c1.534-.995 2.018-3.097 1.023-4.673z" transform="translate(19.217 17.7)"/>
            <path fill="#FFF" fill-rule="nonzero" d="M19.12 9.52L5.054.52C3.519-.474 1.475-.004.507 1.597c-.969 1.6-.511 3.699 1.049 4.693l14.068 9.027c1.56.994 3.604.524 4.573-1.077.968-1.601.484-3.699-1.076-4.72z" transform="translate(19.217 17.7)"/>
            <path d="M15.522 15.837L11.641 13.197z" transform="translate(19.217 17.7)"/>
            <path fill="url(#prefix__b)" fill-rule="nonzero" d="M15.123 15.97l-4.374-2.773-9.243 5.862c-1.51.95-1.953 2.957-1.016 4.489.938 1.531 2.917 1.98 4.427 1.03l11.898-7.552-1.692-1.056z" opacity=".5" transform="translate(19.217 17.7)"/>
            <path fill="url(#prefix__c)" fill-rule="nonzero" d="M6.467 3.959L0 3.959 0 19.796 6.467 15.627z" opacity=".2" transform="translate(19.217 17.7)"/>
        </g>
    </g>
</svg>
