<?xml version="1.0" encoding="UTF-8"?>
<svg width="115px" height="40px" viewBox="0 0 115 40" version="1.1" xmlns="http://www.w3.org/2000/svg" xmlns:xlink="http://www.w3.org/1999/xlink">
    <title>040986B8-8778-4A96-B3E5-162A4AF6719E</title>
    <defs>
        <polygon id="path-1" points="1.20641671e-05 0.255552278 20.8258519 0.255552278 20.8258519 23 1.20641671e-05 23"></polygon>
    </defs>
    <g id="Page-1" stroke="none" stroke-width="1" fill="none" fill-rule="evenodd">
        <g id="0525_Release-_Image-Resource" transform="translate(-598.000000, -611.000000)">
            <g id="btn_addch_vlive_on" transform="translate(598.000000, 611.000000)">
                <g id="Group-9" transform="translate(23.000000, 8.000000)">
                    <polygon id="Fill-1" fill="#54F7FF" points="38 6 38 17 45 17 45 13.3282437 41.8782665 13.3282437 41.8782665 6"></polygon>
                    <polygon id="Fill-2" fill="#54F7FF" points="46 17 50 17 50 6 46 6"></polygon>
                    <polygon id="Fill-3" fill="#54F7FF" points="63 6 63.0073661 17 70 17 70 13.8473846 66.8023782 13.8473846 66.8023782 12.9939363 69.6331685 12.9939363 69.6258024 9.97311514 66.8023782 9.97311514 66.8023782 9.15181181 69.9101336 9.15181181 69.9101336 6"></polygon>
                    <polygon id="Fill-4" fill="#54F7FF" points="31.697528 6 30.2143283 11.1576563 30.0520909 11.7226037 29.9924448 11.7226037 29.8182782 11.1568527 28.2945192 6 24 6 28.2603221 17 31.7563788 17 36 6"></polygon>
                    <polygon id="Fill-5" fill="#54F7FF" points="57.7028587 6 56.2105193 11.1576563 56.0473569 11.7226037 55.9884592 11.7226037 55.8213172 11.1568527 54.2971413 6 50 6 54.2621211 17 57.7537972 17 62 6"></polygon>
                    <g id="Group-8">
                        <mask id="mask-2" fill="white">
                            <use xlink:href="#path-1"></use>
                        </mask>
                        <g id="Clip-7"></g>
                        <path d="M14.306208,8.69407931 C15.227688,8.8994931 15.405768,9.71083793 15.253728,10.224769 L14.046648,14.1990103 C13.847568,14.8541138 13.182288,15.2625621 12.529608,15.1277345 C12.186048,15.0571483 11.803848,14.8112862 11.625768,14.4020448 C12.372528,13.950769 12.889968,13.1481483 12.924408,12.2329069 C12.943728,11.7054931 12.772368,11.1987 12.440568,10.7720103 L12.789168,9.62280345 C12.963048,9.05176897 13.579608,8.53228621 14.306208,8.69407931 M3.627288,2.66094138 C4.350528,2.51342414 5.083848,2.95359655 5.297208,3.66183793 L6.733608,8.31418276 C7.007448,9.11125172 7.781088,9.08983793 7.781088,9.08983793 C7.781088,9.08983793 8.548848,9.12314828 8.828568,8.31418276 L10.264128,3.66183793 C10.478328,2.95280345 11.215008,2.50787241 11.934888,2.66094138 C13.016808,2.88935517 13.151208,3.86725172 12.996648,4.32883793 L11.313288,9.93845862 C10.994928,9.81552759 10.653048,9.74811379 10.306968,9.74811379 L4.190928,9.74811379 L2.563848,4.32804483 C2.364768,3.66025172 2.754528,2.83701034 3.627288,2.66094138 M3.077928,15.1570793 L3.077928,12.1432862 C3.077928,11.4556655 3.681048,10.9821828 4.306848,10.9821828 L10.306968,10.9821828 C10.537968,10.9821828 11.618208,11.1201828 11.618208,12.2678034 C11.618208,13.4162172 10.536288,13.5534241 10.262448,13.5534241 L6.829368,13.5534241 C6.468168,13.5534241 6.175848,13.8302172 6.175848,14.1704586 C6.175848,14.5114931 6.468168,14.7874931 6.829368,14.7874931 L7.194768,14.7874931 C8.128848,14.7874931 8.859648,15.5068379 8.859648,16.4244586 L8.859648,17.0708379 C8.859648,17.4110793 9.151968,17.6870793 9.513168,17.6870793 C9.874368,17.6870793 10.166688,17.4110793 10.166688,17.0708379 L10.166688,16.4244586 C10.166688,15.8113897 9.977688,15.2490793 9.650928,14.7874931 L10.384248,14.7874931 C10.744608,15.7185966 11.552688,16.1825621 12.252408,16.3340448 C13.338528,16.5688034 14.329728,16.0556655 14.826168,15.4529069 C15.094128,15.7511138 15.438528,15.9414586 15.826608,16.0778724 C15.273048,18.7355621 12.743808,20.6263207 9.497208,20.6263207 C5.173728,20.6263207 3.077928,17.4174241 3.077928,15.1570793 M16.454088,14.9699069 C15.677928,14.801769 15.440208,14.0554586 15.572928,13.6509759 C15.580488,13.6279759 16.234008,11.4659759 16.245768,11.4374241 C16.427208,10.9663207 16.928688,10.5459759 17.588088,10.6768379 C18.429768,10.8441828 18.592728,11.6824931 18.448248,12.0655621 L17.822448,14.1244586 C17.688048,14.5670103 17.168928,15.123769 16.454088,14.9699069 M20.386128,9.88294138 C19.643568,8.71073448 18.566688,8.19918276 17.100048,8.32925172 C16.851408,7.73442414 16.210488,6.84218276 14.925288,6.60425172 L15.404928,5.01011379 C15.718248,4.08773448 15.579648,3.00197586 15.033648,2.10418276 C14.478408,1.1937 13.567848,0.567148276 12.468288,0.341113793 C10.453128,-0.0736793103 8.422848,1.1009069 7.845768,3.01387241 L7.781088,3.29225172 L7.715568,3.01228621 C7.134288,1.09138966 5.101488,-0.0816103448 3.088008,0.341906897 C2.006928,0.568734483 1.108128,1.17704483 0.557088,2.05580345 C0.006888,2.93297586 -0.146832,4.02587241 0.145488,4.97680345 L1.572648,9.73225172 C0.929208,10.3818034 0.563808,11.2470793 0.563808,12.1432862 L0.564648,15.1872172 L0.564648,15.1967345 C0.691488,19.6460448 4.540368,23.0000793 9.516528,23.0000793 C11.604768,23.0000793 13.550208,22.3965276 15.143688,21.2568379 C16.648128,20.1790103 17.729208,18.6641828 18.205488,16.9724931 C19.108488,16.5838724 19.693128,15.8708724 20.035008,14.7470448 L20.659968,12.6865621 C20.893488,11.9085276 20.943888,10.7632862 20.386128,9.88294138" id="Fill-6" fill="#54F7FF" mask="url(#mask-2)"></path>
                    </g>
                </g>
            </g>
        </g>
    </g>
</svg>