<svg xmlns="http://www.w3.org/2000/svg" width="22" height="22" viewBox="0 0 22 22">
    <path fill="#FFF" fill-rule="evenodd" d="M6.426 12.695C4.7 10.967 4.7 8.157 6.426 6.43c.837-.838 1.95-1.298 3.133-1.298s2.296.46 3.133 1.298c1.727 1.726 1.727 4.537 0 6.265-.837.836-1.95 1.297-3.133 1.297-1.184 0-2.296-.461-3.133-1.297zm12.438 5.372l-4.992-4.993c1.78-2.183 1.653-5.412-.38-7.444C12.443 4.579 11.046 4 9.56 4c-1.486 0-2.882.579-3.933 1.63-2.168 2.167-2.168 5.696 0 7.865 1.05 1.05 2.447 1.629 3.933 1.629 1.295 0 2.523-.44 3.513-1.25l4.992 4.993.8-.8z"/>
</svg>
