<?xml version="1.0" encoding="UTF-8"?>
<svg width="115px" height="40px" viewBox="0 0 115 40" version="1.1" xmlns="http://www.w3.org/2000/svg" xmlns:xlink="http://www.w3.org/1999/xlink">
    <title>A14C6D3B-FE80-4C24-8402-44B803F375F2</title>
    <defs>
        <linearGradient x1="49.8327935%" y1="77.168147%" x2="49.8327935%" y2="12.7398162%" id="linearGradient-1">
            <stop stop-color="#FFFFFF" offset="0%"></stop>
            <stop stop-color="#FFFFFF" stop-opacity="0.7" offset="100%"></stop>
        </linearGradient>
        <linearGradient x1="81.0468274%" y1="-3.29499617%" x2="62.285808%" y2="28.7865543%" id="linearGradient-2">
            <stop stop-color="#000000" offset="0%"></stop>
            <stop stop-color="#000000" stop-opacity="0" offset="100%"></stop>
        </linearGradient>
        <linearGradient x1="64.0490987%" y1="86.3883761%" x2="56.5671396%" y2="67.0312821%" id="linearGradient-3">
            <stop stop-color="#000000" offset="0%"></stop>
            <stop stop-color="#000000" stop-opacity="0" offset="100%"></stop>
        </linearGradient>
    </defs>
    <g id="Page-1" stroke="none" stroke-width="1" fill="none" fill-rule="evenodd">
        <g id="0525_Release-_Image-Resource" transform="translate(-473.000000, -551.000000)">
            <g id="btn_addch_navertv" transform="translate(473.000000, 551.000000)">
                <g id="Group-2" transform="translate(13.000000, 12.000000)">
                    <g id="Group-13" transform="translate(19.000000, 3.000000)" fill="#BABABA">
                        <path d="M7.85397419,0.290627586 C7.1180172,0.290627586 6.51909785,0.885386207 6.51909785,1.61669655 L6.51909785,5.71590345 L2.93932366,1.04431724 C2.6579957,0.685489655 2.28009247,0.317937931 1.6097914,0.317937931 L1.38915699,0.317937931 C0.632968817,0.317937931 0.0405387097,0.906627586 0.0405387097,1.65804138 L0.0405387097,9.38307586 C0.0405387097,10.1143862 0.639458065,10.7095241 1.37503333,10.7095241 C2.11137204,10.7095241 2.70990968,10.1143862 2.70990968,9.38307586 L2.70990968,5.11886897 L6.4416086,9.98276552 C6.72293656,10.3419724 7.10045806,10.7095241 7.77114086,10.7095241 L7.83985054,10.7095241 C8.59603871,10.7095241 9.18846882,10.1204552 9.18846882,9.36942069 L9.18846882,1.61669655 C9.18846882,0.885386207 8.58993118,0.290627586 7.85397419,0.290627586" id="Fill-1"></path>
                        <path d="M28.5805538,0.290627586 C27.8758978,0.290627586 27.3743172,0.753386207 27.1884194,1.21576552 L25.2046183,6.31635172 L23.2479194,1.28290345 C23.0059086,0.661972414 22.4653925,0.290627586 21.8019624,0.290627586 C20.9824086,0.290627586 20.3407366,0.922558621 20.3407366,1.72935172 C20.3407366,1.9850069 20.4182258,2.2050069 20.4945699,2.38669655 L23.5475699,9.64404138 L23.5483333,9.63986897 C23.8414946,10.332869 24.3965161,10.7091448 25.1103333,10.7091448 L25.2450806,10.7091448 C25.9588978,10.7091448 26.5139194,10.332869 26.8078441,9.63911034 L29.884129,2.3260069 C29.9379516,2.20538621 30.0284194,1.96528276 30.0284194,1.70166207 C30.0284194,0.909662069 29.3924731,0.290627586 28.5805538,0.290627586" id="Fill-3"></path>
                        <path d="M38.1034478,7.80757241 L34.2824263,7.80757241 L34.2824263,6.7584 L37.4308565,6.7584 C38.1775016,6.7584 38.7844371,6.24102069 38.7844371,5.50705517 C38.7844371,4.76512414 38.1775016,4.24167586 37.4308565,4.24167586 L34.2824263,4.24167586 L34.2824263,3.19250345 L38.0358833,3.19250345 C38.7825285,3.19250345 39.3898457,2.57005517 39.3898457,1.83608966 C39.3898457,1.09415862 38.7825285,0.46602069 38.0358833,0.46602069 L32.8173833,0.46602069 C31.9982113,0.46602069 31.5382382,1.04371034 31.5382382,1.85733103 L31.5382382,9.15526207 C31.5382382,9.96926207 31.9982113,10.5340552 32.8173833,10.5340552 L38.1034478,10.5340552 C38.850093,10.5340552 39.4570285,9.91198621 39.4570285,9.17726207 C39.4570285,8.43571034 38.850093,7.80757241 38.1034478,7.80757241" id="Fill-5"></path>
                        <path d="M45.6204392,5.24574828 L43.9691167,5.24574828 L43.9691167,2.93802414 L45.6204392,2.93802414 C46.030407,2.93802414 46.9041651,3.07685172 46.9041651,4.09188621 C46.9041651,5.10692069 46.030407,5.24574828 45.6204392,5.24574828 M49.8800575,3.84874828 L49.8800575,3.82219655 C49.8800575,2.83333448 49.5250575,2.02047241 48.91545,1.41471379 C48.2096489,0.712989655 47.124036,0.371989655 45.8380199,0.371989655 L42.5697296,0.371989655 C41.7505575,0.371989655 41.0138371,0.950058621 41.0138371,1.76367931 L41.0138371,9.17616207 C41.0138371,9.99016207 41.6723048,10.6277828 42.4914769,10.6277828 C43.3106489,10.6277828 43.9691167,9.99016207 43.9691167,9.17616207 L43.9691167,7.50378276 L45.0535844,7.50378276 L46.9789823,9.92757586 C47.3481059,10.3960241 47.7920468,10.6277828 48.3363801,10.6277828 C49.1124177,10.6277828 49.7437833,10.0144379 49.7437833,9.25847241 C49.7437833,8.78547241 49.5323102,8.48088621 49.3105306,8.2020931 L48.2085038,6.8380931 C49.2834285,6.21754138 49.8800575,5.19454138 49.8800575,3.84874828" id="Fill-7"></path>
                        <path d="M15.7644048,6.36774828 L14.549007,6.36774828 L15.7644048,3.49181724 L16.9798027,6.36774828 L15.7644048,6.36774828 Z M20.6718027,8.71567931 L17.3909156,1.3525069 C17.0851575,0.6743 16.5026522,0.284368966 15.7911253,0.284368966 L15.7644048,0.284368966 L15.7373027,0.284368966 C15.0261575,0.284368966 14.4432704,0.6743 14.1375124,1.3525069 L10.857007,8.71567931 C10.7783726,8.8875069 10.698593,9.09498966 10.698593,9.33054138 C10.698593,10.1066103 11.3047651,10.7154034 12.0792758,10.7154034 C12.6766683,10.7154034 13.1797758,10.4495069 13.4256038,9.88585172 L13.9745177,8.6750931 L17.5542919,8.6750931 L18.1032059,9.88585172 C18.3490339,10.4495069 18.8517597,10.7154034 19.4495339,10.7154034 C20.2240446,10.7154034 20.8302167,10.1066103 20.8302167,9.33054138 C20.8302167,9.09498966 20.7504371,8.8875069 20.6718027,8.71567931 L20.6718027,8.71567931 Z" id="Fill-9"></path>
                        <path d="M70.1157828,0.509527586 C69.3763903,0.166631034 68.4969065,0.484872414 68.1518312,1.21959655 L66.0607667,5.68104483 L63.9697022,1.21959655 C63.7170032,0.681355172 63.1776323,0.37032069 62.6165032,0.374872414 L62.6165032,0.371458621 L53.9212935,0.371458621 C53.1635785,0.371458621 52.5490086,0.981768966 52.5490086,1.7347 C52.5490086,2.48801034 53.1635785,3.09832069 53.9212935,3.09832069 L56.2780355,3.09832069 L56.2780355,9.15932069 C56.2780355,9.9699069 56.939557,10.627631 57.7556753,10.627631 C58.5717935,10.627631 59.2333151,9.9699069 59.2333151,9.15932069 L59.2333151,3.09832069 L61.590057,3.09832069 L64.7224548,9.78025172 C64.9724817,10.3139414 65.5049817,10.6234586 66.0607667,10.6242172 C66.6165516,10.6234586 67.1490516,10.3139414 67.3994602,9.78025172 L70.8307452,2.4607 C71.1754387,1.72559655 70.8551753,0.852044828 70.1157828,0.509527586" id="Fill-11"></path>
                    </g>
                    <g id="Group" opacity="0.699999988">
                        <polygon id="Rectangle-path" fill="url(#linearGradient-1)" fill-rule="nonzero" points="0 1.78947368 4.375 1.78947368 4.375 14.3157895 0 14.3157895"></polygon>
                        <path d="M13.6482241,7.3475528 C12.9929688,6.26014135 11.609652,5.94141731 10.5539628,6.61636234 L1.0527606,12.7283646 C-0.00292854264,13.4033097 -0.312354669,14.8281936 0.342900658,15.9156051 C0.998155984,17.0030165 2.38147279,17.3217406 3.43716192,16.6467955 L12.9565657,10.5160448 C13.9940533,9.84109975 14.321681,8.41621578 13.6482241,7.3475528 Z" id="Shape" fill="#FFFFFF" fill-rule="nonzero"></path>
                        <path d="M12.9345192,6.453937 L3.41794435,0.352588766 C2.38076507,-0.32117975 0.997859356,-0.00301128392 0.342798756,1.08250466 C-0.312261845,2.1680206 -0.00292767235,3.5904208 1.05244774,4.26418932 L10.5690226,10.3842533 C11.624398,11.0580219 13.0073037,10.7398534 13.6623643,9.65433745 C14.3174249,8.5688215 13.9898946,7.1464213 12.9345192,6.453937 Z" id="Shape" fill="#FFFFFF" fill-rule="nonzero"></path>
                        <polygon id="Shape" points="10.5 10.7368421 7.875 8.94736842"></polygon>
                        <path d="M10.2301715,10.8269878 L7.27123022,8.94736842 L1.01870545,12.9214209 C-0.0028338089,13.5658618 -0.302250488,14.9263483 0.331808362,15.9646142 C0.965867212,17.0028802 2.3044359,17.3071995 3.32597515,16.6627586 L11.375,11.5430333 L10.2301715,10.8269878 L10.2301715,10.8269878 Z" id="Shape" fill="url(#linearGradient-2)" fill-rule="nonzero" opacity="0.5"></path>
                        <polygon id="Shape" fill="url(#linearGradient-3)" fill-rule="nonzero" opacity="0.2" points="4.375 2.68421053 0 2.68421053 0 13.4210526 4.375 10.5946019"></polygon>
                    </g>
                </g>
            </g>
        </g>
    </g>
</svg>