<svg xmlns="http://www.w3.org/2000/svg" xmlns:xlink="http://www.w3.org/1999/xlink" width="115" height="40" viewBox="0 0 115 40">
    <defs>
        <path id="prefix__a" d="M0.055 0.12L14.274 0.12 14.274 16.292 0.055 16.292z"/>
        <path id="prefix__c" d="M2.71.627c-.658.174-.952.32-.952.32C1.18 1.212.724 1.64.53 2.257c0 0-.09.267-.137.536C.209 3.869.136 4.978.136 6.106c0 1.452.144 2.871.423 4.241.111.544.362.808.362.808.271.356.662.615 1.113.716l.096.02c1.4.277 2.848.423 4.328.423 1.487 0 2.94-.147 4.346-.427l.07-.014c.742-.164 1.325-.754 1.48-1.503l.001-.009c.28-1.374.426-2.797.426-4.255 0-1.136-.098-2.25-.263-3.34-.03-.202-.112-.481-.122-.515-.26-.906-1.242-1.294-1.242-1.294-.316-.141-.996-.327-.996-.327C8.988.333 7.763.17 6.501.167h-.087-.017C6.205.167 4.4.18 2.71.627"/>
        <path id="prefix__e" d="M2.71.627c-.658.174-.952.32-.952.32C1.18 1.212.724 1.64.53 2.257c0 0-.09.267-.137.536C.209 3.869.136 4.978.136 6.106c0 1.452.144 2.871.423 4.241.111.544.362.808.362.808.271.356.662.615 1.113.716l.096.02c1.4.277 2.848.423 4.328.423 1.487 0 2.94-.147 4.346-.427l.07-.014c.742-.164 1.325-.754 1.48-1.503l.001-.009c.28-1.374.426-2.797.426-4.255 0-1.136-.098-2.25-.263-3.34-.03-.202-.112-.481-.122-.515-.26-.906-1.242-1.294-1.242-1.294-.316-.141-.996-.327-.996-.327C8.988.333 7.763.17 6.501.167h-.087-.017C6.205.167 4.4.18 2.71.627"/>
        <path id="prefix__g" d="M2.71.627c-.658.174-.952.32-.952.32C1.18 1.212.724 1.64.53 2.257c0 0-.09.267-.137.536C.209 3.869.136 4.978.136 6.106c0 1.452.144 2.871.423 4.241.111.544.362.808.362.808.271.356.662.615 1.113.716l.096.02c1.4.277 2.848.423 4.328.423 1.487 0 2.94-.147 4.346-.427l.07-.014c.742-.164 1.325-.754 1.48-1.503l.001-.009c.28-1.374.426-2.797.426-4.255 0-1.136-.098-2.25-.263-3.34-.03-.202-.112-.481-.122-.515-.26-.906-1.242-1.294-1.242-1.294-.316-.141-.996-.327-.996-.327C8.988.333 7.763.17 6.501.167h-.087-.017C6.205.167 4.4.18 2.71.627"/>
        <path id="prefix__i" d="M2.71.627c-.658.174-.952.32-.952.32C1.18 1.212.724 1.64.53 2.257c0 0-.09.267-.137.536C.209 3.869.136 4.978.136 6.106c0 1.452.144 2.871.423 4.241.111.544.362.808.362.808.271.356.662.615 1.113.716l.096.02c1.4.277 2.848.423 4.328.423 1.487 0 2.94-.147 4.346-.427l.07-.014c.742-.164 1.325-.754 1.48-1.503l.001-.009c.28-1.374.426-2.797.426-4.255 0-1.136-.098-2.25-.263-3.34-.03-.202-.112-.481-.122-.515-.26-.906-1.242-1.294-1.242-1.294-.316-.141-.996-.327-.996-.327C8.988.333 7.763.17 6.501.167h-.087-.017C6.205.167 4.4.18 2.71.627"/>
        <path id="prefix__k" d="M2.71.627c-.658.174-.952.32-.952.32C1.18 1.212.724 1.64.53 2.257c0 0-.09.267-.137.536C.209 3.869.136 4.978.136 6.106c0 1.452.144 2.871.423 4.241.111.544.362.808.362.808.271.356.662.615 1.113.716l.096.02c1.4.277 2.848.423 4.328.423 1.487 0 2.94-.147 4.346-.427l.07-.014c.742-.164 1.325-.754 1.48-1.503l.001-.009c.28-1.374.426-2.797.426-4.255 0-1.136-.098-2.25-.263-3.34-.03-.202-.112-.481-.122-.515-.26-.906-1.242-1.294-1.242-1.294-.316-.141-.996-.327-.996-.327C8.988.333 7.763.17 6.501.167h-.087-.017C6.205.167 4.4.18 2.71.627"/>
        <path id="prefix__m" d="M2.71.627c-.658.174-.952.32-.952.32C1.18 1.212.724 1.64.53 2.257c0 0-.09.267-.137.536C.209 3.869.136 4.978.136 6.106c0 1.452.144 2.871.423 4.241.111.544.362.808.362.808.271.356.662.615 1.113.716l.096.02c1.4.277 2.848.423 4.328.423 1.487 0 2.94-.147 4.346-.427l.07-.014c.742-.164 1.325-.754 1.48-1.503l.001-.009c.28-1.374.426-2.797.426-4.255 0-1.136-.098-2.25-.263-3.34-.03-.202-.112-.481-.122-.515-.26-.906-1.242-1.294-1.242-1.294-.316-.141-.996-.327-.996-.327C8.988.333 7.763.17 6.501.167h-.087-.017C6.205.167 4.4.18 2.71.627"/>
        <path id="prefix__o" d="M2.71.627c-.658.174-.952.32-.952.32C1.18 1.212.724 1.64.53 2.257c0 0-.09.267-.137.536C.209 3.869.136 4.978.136 6.106c0 1.452.144 2.871.423 4.241.111.544.362.808.362.808.271.356.662.615 1.113.716l.096.02c1.4.277 2.848.423 4.328.423 1.487 0 2.94-.147 4.346-.427l.07-.014c.742-.164 1.325-.754 1.48-1.503l.001-.009c.28-1.374.426-2.797.426-4.255 0-1.136-.098-2.25-.263-3.34-.03-.202-.112-.481-.122-.515-.26-.906-1.242-1.294-1.242-1.294-.316-.141-.996-.327-.996-.327C8.988.333 7.763.17 6.501.167h-.087-.017C6.205.167 4.4.18 2.71.627"/>
    </defs>
    <g fill="none" fill-rule="evenodd">
        <g>
            <path fill="#FFF" d="M9.415 3.947s-.035-2.612 2.946-2.64h2.793c.598 0 1.105.419 1.105.933 0 .525-.507.946-1.105.946H13.86c-.857.006-.783.625-.783.625V5.03h1.56c.619 0 1.125.398 1.125.91 0 .525-.44.926-1.042.926h-1.643v6.19c0 .871-.749 1.646-1.793 1.646-1.04 0-1.87-.705-1.87-1.59V3.948zM19.795 13.044c0 .942-.752 1.658-1.794 1.658-1.026 0-1.873-.716-1.873-1.588V7.538s0-2.46 3.028-2.46h2.4c1.257 0 1.257.966 1.257.966s0 .928-1.176.928h-1.06c-.782 0-.782.609-.782.609v5.463zM37.014 6.983c-.813 0-.813.594-.813.594v1.627h2.312V7.618s0-.635-.734-.635h-.765zm.6-1.97c3.132 0 3.132 2.524 3.132 2.524v2.613c0 .527-.508.913-1.127.913l-3.453-.002v1.123s.035.59.831.59l1.938.004c.622 0 1.11.415 1.11.941 0 .523-.505.983-1.11.983h-3.403c-2.984 0-2.984-2.49-2.984-2.49V7.536s.022-2.497 3.007-2.525h2.06zM48.594 12.824c.62-.017 1.175.469 1.175.994 0 .526-.555.884-1.175.884h-4.878c-1.027 0-1.768-.622-1.768-1.505V6.602c0-.873.847-1.59 1.875-1.59h4.96c.624 0 1.11.415 1.11.937 0 .527-.486.915-1.11.915h-2.648c-.454 0-.454.388-.454.388l-.002 5.168s-.03.402.457.402l2.458.002zM53.041 12.793h1.483v-2.22l-1.483.002c-.808 0-.73 1.108-.73 1.108s-.086 1.11.73 1.11m5.212-5.276v5.566c0 .886-.853 1.62-1.897 1.62h-3.164c-3.118 0-3.118-2.521-3.118-2.521v-1.246s.195-2.278 3.118-2.266h1.338V7.529s0-.588-.735-.588h-1.697c-.62 0-1.222-.366-1.222-.893s.57-1.03 1.19-1.03h3.2c2.987.013 2.987 2.499 2.987 2.499M66.962 2.57s0-.85-1.123-.85h-7.794c-1.123 0-1.123.825-1.123.825s0 .817 1.052.817h1.63c.7 0 .7.534.7.534v5.041c0 .828.67 1.46 1.604 1.46.918 0 1.676-.632 1.676-1.398v-5.11c.012-.116.1-.503.696-.503h1.63c1.052 0 1.052-.816 1.052-.816M2.97 12.791h1.482v-2.218H2.97c-.84 0-.732 1.109-.732 1.109s-.085 1.11.732 1.11m5.214-5.28v5.57c0 .887-.853 1.62-1.898 1.62H3.12C0 14.703 0 12.18 0 12.18v-1.246s.197-2.279 3.12-2.268h1.337V7.524s0-.588-.734-.588H2.026C1.406 6.936.8 6.57.8 6.043S1.374 5.01 1.993 5.01h3.203c2.988.015 2.988 2.501 2.988 2.501M27.626 6.983c-.813 0-.813.594-.813.594v1.627h2.311V7.618s0-.635-.732-.635h-.766zm.6-1.97c3.133 0 3.133 2.524 3.133 2.524v2.613c0 .527-.51.913-1.127.913l-3.453-.002v1.123s.034.59.83.59l1.938.004c.622 0 1.11.415 1.11.941 0 .523-.505.983-1.11.983h-3.402c-2.985 0-2.985-2.49-2.985-2.49V7.536s.022-2.497 3.007-2.525h2.06z" transform="translate(13 11) translate(0 .234)"/>
            <path fill="#FFF" d="M73.812 1.998c-.732-.494-1.766-.236-2.31.574L68.55 6.544l-1.063-2.3c-.196-.432-1.043-.638-1.493-.428-.453.208-.73.857-.53 1.289l1.947 4.49c.153.327.498.598 1.047.73.495.121 1.424-.01 1.966-.82l3.739-5.146c.542-.81.385-1.867-.35-2.36" transform="translate(13 11) translate(0 .234)"/>
            <g transform="translate(13 11) translate(0 .234) translate(75.53)">
                <mask id="prefix__b" fill="#fff">
                    <use xlink:href="#prefix__a"/>
                </mask>
                <path fill="#FFF" d="M14.246 8.223c-.036-.711-.11-1.45-.216-2.196l-.028-.191c-.03-.203-.094-.444-.142-.61-.349-1.22-1.557-1.753-1.689-1.808-.348-.154-.977-.329-1.113-.366-.367-.093-.738-.17-1.11-.236l.645-.294c.324-.123.585-.376.715-.694.134-.329.12-.701-.038-1.022-.208-.423-.632-.686-1.105-.686-.22 0-.437.058-.63.168L7.182 1.803 6.012.86C5.788.659 5.5.549 5.2.549c-.37 0-.72.164-.97.464-.224.28-.315.663-.245 1.023.06.305.234.566.488.751-.41.066-.837.152-1.26.263-.659.175-.998.328-1.082.369-.728.333-1.262.86-1.546 1.522-.03.068-.067.157-.097.254-.018.055-.114.345-.166.65-.18 1.05-.268 2.177-.268 3.443 0 1.498.148 2.98.439 4.405.132.649.416 1.028.523 1.15.387.498.938.848 1.567.99l.1.02c1.467.291 2.975.439 4.48.439 1.513 0 3.026-.149 4.525-.447l.059-.013c1.048-.23 1.865-1.06 2.085-2.126.293-1.442.44-2.927.44-4.412 0-.344-.008-.694-.027-1.07" mask="url(#prefix__b)"/>
            </g>
            <path fill="#0545B1" d="M86.094 1.157c.123.25 0 .54-.263.63l-2.729 1.244c-.32.146-.537.118-.845-.018l-1.763-.838c-.245-.137-.275-.473-.119-.668.165-.198.462-.228.649-.052l1.357 1.096c.148.122.302.128.424.1.05-.011.09-.033.158-.07L85.455.974c.23-.131.522-.056.64.182" transform="translate(13 11) translate(0 .234)"/>
        </g>
        <g transform="translate(13 11) translate(76.235 3.421)">
            <mask id="prefix__d" fill="#fff">
                <use xlink:href="#prefix__c"/>
            </mask>
            <path fill="#0545B1" d="M13.345 3.037c-.193-1.436-.523-2.256-2.386-2.68-1.68-.382-2.898-.456-3.894-.501-.213-.01-.424-.01-.637 0-.996.045-2.214.12-3.894.501C.672.781.341 1.601.148 3.037c-.19 1.415-.175 3.115-.174 3.166 0 .05-.015 1.75.174 3.165.193 1.437.524 2.256 2.386 2.68 1.68.382 2.898.356 3.894.4.213.01.424.01.637 0 .996-.044 2.214-.018 3.894-.4 1.863-.424 2.193-1.243 2.386-2.68.19-1.415.175-3.115.174-3.165 0-.05.015-1.75-.174-3.166" mask="url(#prefix__d)"/>
            <mask id="prefix__f" fill="#fff">
                <use xlink:href="#prefix__e"/>
            </mask>
            <path fill="#00BBED" d="M8.631 4.261c-.019-.495-.029-.984-.024-1.476.007-.67.49-.935.49-.935.32-.197.748-.234 1.127-.068.578.252 1.326.64 1.326.64.43.227.792.42 1.243.709l.006.003c.023.012.046.025.068.04.481.3.656.925.388 1.436-.087.166-.21.3-.355.398l-.004.002c-.42.288-.787.562-1.221.838-.7.446-1.141.655-1.141.655-.313.18-.85.261-1.222.074-.563-.282-.593-.95-.593-.95s-.057-.548-.088-1.366" mask="url(#prefix__f)"/>
            <mask id="prefix__h" fill="#fff">
                <use xlink:href="#prefix__g"/>
            </mask>
            <path fill="#FFF" d="M9.382 8.19c-1.414 1.32-4.48 1.321-5.856.001-.11-.106-.288-.101-.392.01-.107.11-.102.287.007.394 1.59 1.52 4.99 1.522 6.616.002.116-.104.12-.281.018-.393-.105-.113-.28-.12-.393-.014" mask="url(#prefix__h)"/>
            <g>
                <mask id="prefix__j" fill="#fff">
                    <use xlink:href="#prefix__i"/>
                </mask>
                <path fill="#1AC62F" d="M8.25 5.99v-.012l-.007-.083-.19-2.09-.004-.06c-.006-.045-.014-.09-.025-.134-.102-.41-.438-.728-.857-.801-.059-.01-.118-.016-.18-.016H5.918c-.053 0-.104.004-.155.012-.43.065-.777.386-.881.803-.009.036-.016.072-.021.108l-.01.112-.19 2.077-.004.049-.002.035-.001.041c0 .5.34.922.8 1.044.087.023.179.036.273.036H7.179c.06 0 .118-.006.175-.015.51-.085.898-.53.898-1.065l-.001-.04" mask="url(#prefix__j)"/>
            </g>
            <g>
                <mask id="prefix__l" fill="#fff">
                    <use xlink:href="#prefix__k"/>
                </mask>
                <path fill="#F2338A" d="M4.23 4.84c-.413 1.38-1.644 2.083-3.007 1.846-1.414-.245-2.435-2.251-1.73-3.488.603-1.06 1.919-1.843 3.292-1.42 1.454.45 1.86 1.669 1.444 3.063" mask="url(#prefix__l)"/>
            </g>
            <g>
                <mask id="prefix__n" fill="#fff">
                    <use xlink:href="#prefix__m"/>
                </mask>
                <path fill="#1A1919" d="M11.516 4.18c0 .502-.405.91-.906.91s-.907-.408-.907-.91c0-.503.406-.91.907-.91.5 0 .906.407.906.91" mask="url(#prefix__n)"/>
            </g>
            <g>
                <mask id="prefix__p" fill="#fff">
                    <use xlink:href="#prefix__o"/>
                </mask>
                <path fill="#1A1919" d="M3.076 4.18c0 .502-.406.91-.906.91-.501 0-.908-.408-.908-.91 0-.503.407-.91.908-.91.5 0 .906.407.906.91" mask="url(#prefix__p)"/>
            </g>
        </g>
    </g>
</svg>
