<svg xmlns="http://www.w3.org/2000/svg" width="17" height="18" viewBox="0 0 17 18">
    <g fill="#666" fill-rule="evenodd" stroke="#666" stroke-width=".3">
        <path d="M12.135 17.008H4.873c-1.59 0-2.884-1.294-2.884-2.884V5.52c0-.303.246-.548.547-.548.302 0 .547.245.547.548v8.603c0 .988.803 1.79 1.79 1.79h7.262c.987 0 1.79-.802 1.79-1.79V5.52c0-.303.245-.548.547-.548.302 0 .547.245.547.548v8.603c0 1.59-1.294 2.884-2.884 2.884M16.461 3.083H.547C.245 3.083 0 2.838 0 2.536c0-.302.245-.547.547-.547h15.914c.302 0 .547.245.547.547 0 .302-.245.547-.547.547"/>
        <path d="M6.515 14.024c-.302 0-.547-.244-.547-.547V6.513c0-.301.245-.546.547-.546.302 0 .547.245.547.546v6.962c0 .303-.245.548-.547.548M10.493 14.024c-.302 0-.547-.244-.547-.547V6.513c0-.301.245-.546.547-.546.302 0 .547.245.547.546v6.962c0 .303-.245.548-.547.548M8.504 3.083c-.302 0-.547-.245-.547-.547V.547c0-.302.245-.547.547-.547.302 0 .547.245.547.547v1.99c0 .301-.245.546-.547.546"/>
    </g>
</svg>
