<svg xmlns="http://www.w3.org/2000/svg" width="170" height="59" viewBox="0 0 170 59">
    <path fill="#BABABA" fill-rule="evenodd" d="M100.26 20.223c-1.074 0-1.915.886-1.915 2.014v10.786l-6.08-11.133c-.596-1.058-1.579-1.616-2.7-1.616-1.729 0-2.934 1.288-2.934 3.131v13.43c0 1.104.89 2.038 1.94 2.038 1.061 0 1.892-.894 1.892-2.038V25.722l6.276 11.435c.777 1.377 1.96 1.665 2.754 1.665 1.528 0 2.684-1.246 2.684-2.901V22.237c0-1.128-.842-2.014-1.916-2.014zM115.74 30.65c-.179 2.786-1.695 4.197-4.5 4.197h-2.69V24.2h2.69c2.889 0 4.368 1.44 4.524 4.394.028.683.02 1.433-.024 2.055zm-4.574-10.325h-3.79c-1.629 0-2.682 1.05-2.682 2.674v13.025c0 1.589 1.103 2.698 2.683 2.698h3.79c5.108 0 8.11-2.81 8.452-7.914.038-.642.062-1.645-.027-2.772-.335-4.972-3.327-7.71-8.426-7.71zm-36.469 9.699l1.931-5.767c.012-.037.058-.158.2-.158.09 0 .15.079.177.17l1.901 5.755h-4.209zm5.642-7.334c-.592-1.664-1.87-2.618-3.511-2.618-1.626 0-2.896.954-3.486 2.618l-4.707 13.407c-.354 1.03.139 2.203 1.073 2.558.223.091.459.138.698.138.786 0 1.512-.507 1.81-1.27l1.31-3.93h6.578l1.308 3.93c.25.746.968 1.248 1.789 1.248.249 0 .492-.047.717-.14.924-.362 1.426-1.548 1.077-2.534L80.338 22.69zM61.263 34.922h-4.078V31.08h4.126c.98 0 2.149.333 2.149 1.92 0 1.311-.7 1.922-2.197 1.922zm-4.078-10.748h3.83c1.4 0 1.998.498 1.998 1.668 0 1.156-.653 1.719-1.998 1.719h-3.83v-3.387zm7.809 4.973c1.23-.792 1.873-2.109 1.873-3.838 0-2.401-1.654-4.985-5.281-4.985h-5.573c-1.58 0-2.683 1.12-2.683 2.725v12.974c0 1.614 1.077 2.698 2.683 2.698h5.647c3.554 0 5.678-2.023 5.678-5.416 0-1.942-.867-3.463-2.344-4.158zm49.091 14.321H57.392c-7.494 0-13.591-6.23-13.591-13.887 0-7.748 6.097-14.05 13.59-14.05h56.694c7.494 0 13.593 6.302 13.593 14.05 0 7.657-6.099 13.887-13.593 13.887zm.368-30.193H57.025c-8.62 0-15.634 7.315-15.634 16.306 0 9.052 6.868 16.144 15.634 16.144h57.428c8.766 0 15.634-7.092 15.634-16.144 0-8.991-7.014-16.306-15.634-16.306z"/>
</svg>
