<?xml version="1.0" encoding="UTF-8"?>
<svg width="370px" height="40px" viewBox="0 0 370 40" version="1.1" xmlns="http://www.w3.org/2000/svg" xmlns:xlink="http://www.w3.org/1999/xlink">
    <title>8D1F0922-3C29-414D-8C18-F68B87A3547E</title>
    <defs>
        <polygon id="path-1" points="0.11795 0.264677419 2.29395 0.264677419 2.29395 2.74635484 0.11795 2.74635484"></polygon>
        <polygon id="path-3" points="0 0.264677419 2.175 0.264677419 2.175 2.74635484 0 2.74635484"></polygon>
        <polygon id="path-5" points="0.3371 0.0427258065 3.293 0.0427258065 3.293 2.93627419 0.3371 2.93627419"></polygon>
        <polygon id="path-7" points="0.3371 0.233177419 3.293 0.233177419 3.293 3.12624194 0.3371 3.12624194"></polygon>
        <polygon id="path-9" points="0 0.233419355 2.95585 0.233419355 2.95585 3.12648387 0 3.12648387"></polygon>
        <polygon id="path-11" points="0 0.0425322581 2.95585 0.0425322581 2.95585 2.93608065 0 2.93608065"></polygon>
    </defs>
    <g id="Page-1" stroke="none" stroke-width="1" fill="none" fill-rule="evenodd">
        <g id="0525_Release-_Image-Resource" transform="translate(-564.000000, -1126.000000)">
            <g id="btn_language_disable" transform="translate(564.000000, 1126.000000)">
                <rect id="Rectangle-5-Copy-2" fill="#444444" x="0" y="0" width="370" height="40" rx="3"></rect>
                <g id="txt_dropbox_open_disable" transform="translate(347.000000, 17.000000)" fill="#535353" fill-rule="nonzero">
                    <path d="M9.50029982,0.575062078 C9.80918441,0.299085291 10.2833082,0.325762335 10.559285,0.634646922 C10.8352618,0.94353151 10.8085848,1.41765533 10.4997002,1.69363212 L6.18262701,5.55077498 C5.90657012,5.79742145 5.49184484,5.80575623 5.2061011,5.57040033 L0.523174268,1.71325747 C0.203450897,1.44991389 0.157746046,0.977244737 0.421089626,0.657521366 C0.684433206,0.337797995 1.15710236,0.292093144 1.47682573,0.555436724 L5.66307073,4.00348227 L9.50029982,0.575062078 Z" id="Path-2"></path>
                </g>
                <g id="ic_language_normal" transform="translate(12.000000, 13.000000)">
                    <g id="Group-39">
                        <g id="Group-3" transform="translate(4.500000, 0.219290)">
                            <mask id="mask-2" fill="white">
                                <use xlink:href="#path-1"></use>
                            </mask>
                            <g id="Clip-2"></g>
                            <path d="M2.29395,0.264580645 C1.43545,0.561193548 0.66895,1.46651613 0.11795,2.74635484 L2.29395,2.74635484 L2.29395,0.264580645 Z" id="Fill-1" fill="#BABABA" mask="url(#mask-2)"></path>
                        </g>
                        <path d="M3.75295,7.02653226 L6.79395,7.02653226 L6.79395,4.13298387 L4.20495,4.13298387 C3.95595,5.00879032 3.79695,5.99056452 3.75295,7.02653226" id="Fill-4" fill="#BABABA"></path>
                        <path d="M4.2051,11.0874677 L6.7941,11.0874677 L6.7941,8.19440323 L3.7531,8.19440323 C3.7971,9.22940323 3.9561,10.2111774 4.2051,11.0874677" id="Fill-6" fill="#BABABA"></path>
                        <g id="Group-10" transform="translate(8.000000, 0.219290)">
                            <mask id="mask-4" fill="white">
                                <use xlink:href="#path-3"></use>
                            </mask>
                            <g id="Clip-9"></g>
                            <path d="M0,2.74635484 L2.175,2.74635484 C1.624,1.46651613 0.8585,0.561193548 0,0.264580645 L0,2.74635484 Z" id="Fill-8" fill="#BABABA" mask="url(#mask-4)"></path>
                        </g>
                        <g id="Group-13" transform="translate(11.500000, 4.090258)">
                            <mask id="mask-6" fill="white">
                                <use xlink:href="#path-5"></use>
                            </mask>
                            <g id="Clip-12"></g>
                            <path d="M0.7461,2.93627419 L3.2931,2.93627419 C3.2051,1.89304839 2.8916,0.912725806 2.3916,0.0427258065 L0.3371,0.0427258065 C0.5656,0.930629032 0.7061,1.90514516 0.7461,2.93627419" id="Fill-11" fill="#BABABA" mask="url(#mask-6)"></path>
                        </g>
                        <g id="Group-16" transform="translate(11.500000, 7.961226)">
                            <mask id="mask-8" fill="white">
                                <use xlink:href="#path-7"></use>
                            </mask>
                            <g id="Clip-15"></g>
                            <path d="M2.3916,3.12624194 C2.8916,2.25575806 3.2051,1.27495161 3.2931,0.233177419 L0.7461,0.233177419 C0.7061,1.26333871 0.5656,2.23785484 0.3371,3.12624194 L2.3916,3.12624194 Z" id="Fill-14" fill="#BABABA" mask="url(#mask-8)"></path>
                        </g>
                        <path d="M6.79395,14.7354194 L6.79395,12.2555806 L4.61795,12.2555806 C5.16895,13.5344516 5.93545,14.4407419 6.79395,14.7354194" id="Fill-17" fill="#BABABA"></path>
                        <path d="M11.4717,2.96564516 L13.0537,2.96564516 C12.3567,2.1716129 11.4842,1.52903226 10.4962,1.08677419 C10.8742,1.62193548 11.2032,2.25483871 11.4717,2.96564516" id="Fill-19" fill="#BABABA"></path>
                        <g id="Group-23" transform="translate(0.000000, 7.961226)">
                            <mask id="mask-10" fill="white">
                                <use xlink:href="#path-9"></use>
                            </mask>
                            <g id="Clip-22"></g>
                            <path d="M2.54785,0.233419355 L-0.00015,0.233419355 C0.08785,1.27470968 0.40235,2.256 0.90135,3.12648387 L2.95585,3.12648387 C2.72735,2.23809677 2.58685,1.26358065 2.54785,0.233419355" id="Fill-21" fill="#BABABA" mask="url(#mask-10)"></path>
                        </g>
                        <g id="Group-26" transform="translate(0.000000, 4.090258)">
                            <mask id="mask-12" fill="white">
                                <use xlink:href="#path-11"></use>
                            </mask>
                            <g id="Clip-25"></g>
                            <path d="M0.90135,0.0425322581 C0.40235,0.913016129 0.08785,1.89285484 -0.00015,2.93608065 L2.54785,2.93608065 C2.58685,1.90543548 2.72735,0.930919355 2.95585,0.0425322581 L0.90135,0.0425322581 Z" id="Fill-24" fill="#BABABA" mask="url(#mask-12)"></path>
                        </g>
                        <path d="M3.3213,12.2555806 L1.7393,12.2555806 C2.4363,13.0496129 3.3088,13.6912258 4.2978,14.1334839 C3.9188,13.5983226 3.5898,12.9654194 3.3213,12.2555806" id="Fill-27" fill="#BABABA"></path>
                        <path d="M11.4717,12.2555806 C11.2032,12.9654194 10.8742,13.5983226 10.4952,14.1334839 C11.4842,13.6921935 12.3567,13.0496129 13.0537,12.2555806 L11.4717,12.2555806 Z" id="Fill-29" fill="#BABABA"></path>
                        <path d="M3.3213,2.96564516 C3.5898,2.25483871 3.9188,1.62193548 4.2968,1.08774194 C3.3088,1.52903226 2.4363,2.1716129 1.7393,2.96564516 L3.3213,2.96564516 Z" id="Fill-31" fill="#BABABA"></path>
                        <path d="M11.04005,8.19464516 L8.00005,8.19464516 L8.00005,11.0877097 L10.58805,11.0877097 C10.83705,10.2114194 10.99605,9.22964516 11.04005,8.19464516" id="Fill-33" fill="#BABABA"></path>
                        <path d="M8,14.7354194 C8.8585,14.4407419 9.624,13.5344516 10.175,12.2555806 L8,12.2555806 L8,14.7354194 Z" id="Fill-35" fill="#BABABA"></path>
                        <path d="M10.5879,4.13279032 L7.9999,4.13279032 L7.9999,7.02633871 L11.0399,7.02633871 C10.9959,5.99085484 10.8369,5.00908065 10.5879,4.13279032" id="Fill-37" fill="#BABABA"></path>
                    </g>
                </g>
            </g>
        </g>
    </g>
</svg>