<svg xmlns="http://www.w3.org/2000/svg" width="25" height="21" viewBox="0 0 25 21">
    <g fill="none" fill-rule="evenodd">
        <g fill="#FFF">
            <g>
                <g>
                    <g>
                        <path d="M5.275 15.5v-3.83l2.859-2.515 4.919 5.492.95-.85-1.547-1.727 1.664-1.462 4.592 5.128h-13.2c-.13 0-.237-.106-.237-.237m.237-11.224H19.09c.128 0 .236.108.236.236v10L15.035 9.72c-.447-.498-1.22-.543-1.72-.101l-1.71 1.502-2.554-2.853c-.446-.499-1.22-.544-1.722-.103L5.275 9.972v-5.46c0-.129.108-.237.237-.237M19.09 3H5.51C4.679 3 4 3.678 4 4.511V15.5c0 .834.678 1.512 1.512 1.512H19.09c.833 0 1.51-.678 1.51-1.512V4.511c0-.833-.677-1.511-1.51-1.511" transform="translate(-1296 -1108) translate(1165 762) translate(131 345) translate(0 1)"/>
                    </g>
                </g>
            </g>
        </g>
    </g>
</svg>
