<svg xmlns="http://www.w3.org/2000/svg" width="40" height="40" viewBox="0 0 40 40">
    <g fill="none" fill-rule="evenodd">
        <path fill="#FFF" d="M16.982 23.276c0-1.639 1.329-2.968 2.968-2.968s2.968 1.33 2.968 2.968c0 1.64-1.33 2.968-2.968 2.968-1.64 0-2.968-1.328-2.968-2.968M19.95 33.43c-5.608 0-10.154-4.546-10.154-10.154V9.491c0-1.488 1.207-2.695 2.695-2.695 1.488 0 2.695 1.207 2.695 2.695v13.785c0 2.632 2.133 4.764 4.764 4.764 2.63 0 4.764-2.132 4.764-4.764 0-2.631-2.133-4.764-4.764-4.764-1.123 0-2.154.388-2.968 1.037v-2.125c.891-.453 1.9-.708 2.968-.708 3.623 0 6.56 2.937 6.56 6.56 0 3.624-2.937 6.56-6.56 6.56-3.624 0-6.56-2.936-6.56-6.56V9.491c0-.496-.403-.898-.899-.898s-.898.402-.898.898v13.785c0 4.616 3.741 8.357 8.357 8.357 4.615 0 8.357-3.741 8.357-8.357 0-4.615-3.742-8.357-8.357-8.357-1.046 0-2.046.193-2.968.543v-1.898c.939-.286 1.935-.441 2.968-.441 5.607 0 10.153 4.546 10.153 10.153 0 5.608-4.546 10.154-10.153 10.154m0-22.103c-1.025 0-2.02.129-2.968.372V9.49c0-2.48-2.01-4.491-4.491-4.491C10.011 5 8 7.01 8 9.491v13.785c0 6.6 5.35 11.95 11.95 11.95s11.95-5.35 11.95-11.95-5.35-11.95-11.95-11.95"/>
    </g>
</svg>
