<svg xmlns="http://www.w3.org/2000/svg" width="40" height="40" viewBox="0 0 40 40">
    <g fill="none" fill-rule="evenodd">
        <path fill="#FFF" d="M32.542 21.38l-.909 3.166c-.161.561-.718 1.247-1.508 1.247-.105 0-.213-.012-.325-.038-.556-.128-.856-.473-1.01-.74-.21-.364-.275-.795-.173-1.125l.237-.829c.566-1.98.705-2.46.73-2.546.247-.678.908-1.3 1.808-1.111.556.116.848.456.996.72.252.45.259.954.154 1.256zm-3.86 6.41c-.425 1.893-1.475 3.53-3.036 4.731-1.648 1.27-3.719 1.94-5.987 1.94-6.276 0-9.2-4.946-9.2-8.289v-4.64c0-1.023.86-1.655 1.656-1.655h8.72c.615.004 1.775.396 1.775 1.848 0 1.826-1.764 1.847-1.84 1.847h-5.935c-.596 0-1.081.485-1.081 1.082 0 .596.485 1.081 1.081 1.081h1.004c1.283 0 2.289 1.049 2.289 2.388v.676c0 .596.485 1.082 1.081 1.082.597 0 1.082-.486 1.082-1.082v-.676c0-.766-.182-1.519-.525-2.178l-.11-.21h1.2l.037.089c.69 1.659 2.147 2.153 2.741 2.288 1.554.359 2.917-.398 3.679-1.221l.1-.11.106.105c.31.307.684.563 1.082.74l.107.049-.025.114zM9.923 7.931c.27-.449.707-.757 1.232-.87.983-.21 1.982.427 2.273 1.45l2.033 7.171c.365 1.126 1.363 1.264 1.66 1.28h.043c.219 0 1.308-.062 1.71-1.295L20.9 8.513c.294-1.03 1.29-1.669 2.272-1.451.573.128.995.422 1.256.875.301.523.312 1.148.19 1.534l-2.407 8.49-.142-.047c-.402-.133-.817-.2-1.234-.2h-8.79l-.03-.105-2.307-8.143c-.142-.502-.062-1.076.214-1.534zm16.696 8.419c.5.118.872.377 1.103.77.289.488.282 1.054.179 1.42v.002l-1.755 6.119c-.236.822-.952 1.373-1.714 1.373-.112 0-.224-.012-.337-.036-.17-.037-.755-.206-1.114-.824l-.065-.112.105-.076c1.051-.76 1.706-1.999 1.752-3.312.028-.79-.197-1.559-.652-2.224l-.038-.056.489-1.706c.24-.839 1.073-1.568 2.047-1.338zm8.353 2.216c-.653-1.093-1.698-1.843-2.94-2.113-.405-.087-.823-.116-1.24-.088l-.105.008-.039-.098c-.092-.233-.206-.464-.336-.684-.679-1.133-1.762-1.91-3.05-2.19-.14-.03-.283-.054-.427-.071l-.168-.02.844-2.98c.397-1.225.22-2.67-.47-3.871-.696-1.212-1.842-2.045-3.227-2.347-2.53-.548-5.086 1.02-5.816 3.575l-.833 2.94-.835-2.942C15.7 5.472 13.71 4 11.547 4c-.343 0-.69.037-1.037.114-1.363.303-2.494 1.113-3.185 2.28-.694 1.172-.888 2.628-.521 3.895l2.2 7.76-.065.06c-.951.88-1.497 2.127-1.497 3.422v4.686c.173 6.418 5.438 11.261 12.245 11.261 2.9 0 5.577-.866 7.743-2.505 2.12-1.604 3.56-3.805 4.166-6.366l.018-.074.07-.027c1.372-.519 2.437-1.688 2.85-3.128l.91-3.17c.35-1.225.178-2.552-.473-3.641z"/>
    </g>
</svg>
