<?xml version="1.0" encoding="UTF-8"?>
<svg width="30px" height="30px" viewBox="0 0 30 30" version="1.1" xmlns="http://www.w3.org/2000/svg" xmlns:xlink="http://www.w3.org/1999/xlink">
    <title>3835B989-A189-4BA4-A6E2-9AAEA9081456</title>
    <g id="Page-1" stroke="none" stroke-width="1" fill="none" fill-rule="evenodd">
        <g id="GUIDE_PRISMSticker_202105" transform="translate(-1445.000000, -4505.000000)" fill="#666666">
            <g id="erroricon-source-plugin-disable" transform="translate(1445.000000, 4505.000000)">
                <g id="icon_path" transform="translate(7.666664, 6.000000)">
                    <path d="M16.409153,2.89975582 C16.6662209,3.17491369 16.676259,3.59215917 16.4485564,3.87820078 L16.3731227,3.95980385 L14.333,5.865 L14.333336,8 L15.333336,8 C16.4379055,8 17.333336,8.8954305 17.333336,10 C17.333336,11.1045695 16.4379055,12 15.333336,12 L14.333336,12 L14.333336,15 C14.333336,16.1045695 13.4379055,17 12.333336,17 L9.33333604,17 L9.33333604,16 C9.33333604,14.9456382 8.51745825,14.0818349 7.48259839,14.0054857 L7.33333604,14 C6.27897425,14 5.41517092,14.8158778 5.33882178,15.8507377 L5.33333604,16 L5.33333604,17 L2.415,17 L1.26201159,18.0774509 C0.959337934,18.3602256 0.484738267,18.3440943 0.201963567,18.0414207 C-0.0551043418,17.7662628 -0.0651425033,17.3490173 0.162560105,17.0629757 L0.237993822,16.9813726 L15.3491049,2.86372556 C15.6517786,2.58095086 16.1263783,2.59708216 16.409153,2.89975582 Z M7.33333604,0 C8.43790554,-2.02906125e-16 9.33333604,0.8954305 9.33333604,2 L9.33333604,3 L12.333336,3 C12.5012971,3 12.6644223,3.02070441 12.8202988,3.05970024 L0.332554653,14.727 L0.333336042,12 L1.33333604,12 C2.38769784,12 3.25150116,11.1841222 3.32785031,10.1492623 L3.33333604,10 C3.33333604,8.9456382 2.51745825,8.08183488 1.48259839,8.00548574 L1.33333604,8 L0.333336042,8 L0.333336042,5 C0.333336042,3.8954305 1.22876654,3 2.33333604,3 L5.33333604,3 L5.33333604,2 C5.33333604,0.8954305 6.22876654,2.02906125e-16 7.33333604,0 Z" id="Combined-Shape"></path>
                </g>
            </g>
        </g>
    </g>
</svg>