<svg xmlns="http://www.w3.org/2000/svg" width="30" height="30" viewBox="0 0 30 30">
    <g fill="none" fill-rule="evenodd">
        <g fill="#FFF">
            <g>
                <g>
                    <path d="M15.058.217c.293-.291.77-.29 1.061.006.291.294.29.769-.006 1.06l-1.929 1.91.574.574c.297.298.297.78 0 1.079-.145.144-.336.224-.54.224-.204 0-.396-.08-.54-.224l-.58-.58-1.34 1.328 3 3c.297.297.297.78 0 1.079-.146.146-.337.225-.54.225s-.395-.08-.539-.224l-3.006-3.006-1.34 1.328 5.425 5.426c.297.298.297.78 0 1.079-.145.144-.336.224-.54.224-.204 0-.396-.08-.54-.224l-5.43-5.43-1.342 1.327 3.025 3.024c.143.145.223.336.223.54 0 .203-.08.395-.223.539-.145.144-.336.224-.54.224-.206 0-.398-.08-.54-.225l-3.03-3.03L4.48 12.8l.623.623c.297.298.297.78 0 1.079-.142.144-.335.224-.54.224-.204 0-.395-.08-.54-.224l-.628-.628-2.117 2.096c-.145.145-.337.217-.527.217-.194 0-.387-.074-.533-.223-.29-.294-.289-.768.006-1.06l2.111-2.09 1.085-1.074 1.342-1.328 1.085-1.074 1.34-1.327 1.085-1.074 1.341-1.328 1.085-1.074 1.341-1.328 1.086-1.074zM.804 10.203c.296-.295.782-.297 1.08 0l.433.434-1.085 1.074-.428-.428c-.297-.3-.297-.783 0-1.08zm.001-4.828c.29-.287.79-.287 1.08 0l2.86 2.86-1.086 1.074L.805 6.455c-.297-.296-.297-.782 0-1.08zm0-4.827c.296-.296.781-.298 1.079 0l5.285 5.285-1.085 1.074L.805 1.628C.508 1.33.508.845.805.548zm4.828 0c.299-.298.784-.296 1.079 0l2.884 2.884L8.51 4.506 5.63 1.628c-.296-.3-.296-.783 0-1.08zm4.827 0c.297-.298.783-.297 1.08 0l.482.482-1.085 1.074-.477-.477c-.145-.144-.225-.336-.224-.54 0-.205.08-.396.223-.54z" transform="translate(-1228 -1752) translate(1228 1752) translate(7.2 7.5)"/>
                </g>
            </g>
        </g>
    </g>
</svg>
