<svg xmlns="http://www.w3.org/2000/svg" xmlns:xlink="http://www.w3.org/1999/xlink" width="30" height="30" viewBox="0 0 30 30">
    <defs>
        <path id="prefix__a" d="M0 0.168L12.052 0.168 12.052 13.772 0 13.772z"/>
        <path id="prefix__c" d="M0.685 0.969L14.413 0.969 14.413 17 0.685 17z"/>
    </defs>
    <g fill="none" fill-rule="evenodd">
        <g transform="translate(8 6.8) translate(0 1.032)">
            <mask id="prefix__b" fill="#fff">
                <use xlink:href="#prefix__a"/>
            </mask>
            <path fill="#EFFC35" d="M1.037 1.423c0-.12.098-.218.219-.218h2.06v.682h-2.28v-.464zm3.316.465h2.279v-.683h-2.28v.683zm3.316 0h2.279v-.683h-2.28v.683zm3.509-.683l.874-1.037H1.256C.563.168 0 .731 0 1.423V12.74c0 .437.233.81.573 1.033l.687-.814h-.004c-.121 0-.22-.098-.22-.219v-.464h.8l.875-1.037H1.037V2.924h8.69l1.257-1.49.194-.229z" mask="url(#prefix__b)"/>
        </g>
        <g transform="translate(8 6.8) translate(1 .032)">
            <mask id="prefix__d" fill="#fff">
                <use xlink:href="#prefix__c"/>
            </mask>
            <path fill="#EFFC35" d="M12.263 12.239H5.791l6.472-7.691v7.69zm0 1.5c0 .12-.098.219-.218.219h-2.06v-.682h2.278v.463zm-5.595.219h2.28v-.683h-2.28v.683zm-1.036 0H4.344l.575-.682h.713v.682zm8.511-12.815c-.318-.265-.79-.223-1.056.096L.86 15.769c-.265.319-.222.792.095 1.057.14.117.31.173.476.174.217.002.432-.09.581-.27l1.461-1.735h8.573c.692 0 1.255-.563 1.255-1.256V3.316l.94-1.117c.264-.317.221-.791-.097-1.056z" mask="url(#prefix__d)"/>
        </g>
    </g>
</svg>
