<svg xmlns="http://www.w3.org/2000/svg" xmlns:xlink="http://www.w3.org/1999/xlink" width="30" height="30" viewBox="0 0 30 30">
    <defs>
        <path id="prefix__a" d="M0.55 0.149L12.244 0.149 12.244 13.999 0.55 13.999z"/>
    </defs>
    <g fill="none" fill-rule="evenodd">
        <path fill="#FFF" d="M9.132 2.236C8.656.936 7.435 0 6 0 4.155 0 2.647 1.539 2.647 3.419v3.96c0 .731.232 1.406.62 1.964l5.865-7.107z" transform="translate(9 7)"/>
        <g transform="translate(9 7) translate(0 2)">
            <mask id="prefix__b" fill="#fff">
                <use xlink:href="#prefix__a"/>
            </mask>
            <path fill="#FFF" d="M5.294 11.507v1.053H2.842l1.136-1.377c.42.159.857.273 1.316.324M6 8.799c1.844 0 3.353-1.54 3.353-3.42v-.706l2.72-3.296c.263-.32.218-.792-.1-1.056-.322-.265-.795-.219-1.058.1L.721 12.774c-.264.319-.218.792.101 1.056.136.112.301.166.465.168V14h8.949c.39 0 .705-.322.705-.719 0-.397-.316-.72-.706-.72H6.706v-1.053C9.678 11.175 12 8.575 12 5.426c0-.399-.316-.72-.706-.72-.39 0-.706.321-.706.72 0 2.58-2.03 4.678-4.526 4.678h-.125c-.334 0-.654-.05-.966-.122l.98-1.188c.016 0 .032.005.05.005" mask="url(#prefix__b)"/>
        </g>
        <path fill="#FFF" d="M2.434 10.35c-.629-.803-1.023-1.812-1.023-2.925 0-.397-.316-.72-.705-.72-.39 0-.706.323-.706.72C0 8.98.57 10.4 1.501 11.48l.933-1.13z" transform="translate(9 7)"/>
    </g>
</svg>
