<svg xmlns="http://www.w3.org/2000/svg" width="30" height="30" viewBox="0 0 30 30">
    <g fill="#FFF" fill-rule="evenodd">
        <path d="M12.5 3.998v8.519c0 .27-.229.5-.5.5H4.099l7.564-9.02h.837zM13.96.16c-.299-.247-.74-.202-.985.096L1.37 14.09c-.246.299-.203.74.096.985.159.13.359.18.548.152.166-.025.323-.108.438-.248l.389-.463H12c1.1 0 2-.9 2-2v-10c0-.358-.112-.683-.278-.973l.334-.4c.246-.298.203-.74-.096-.984zM1.5 3.998h6.836l2.92-3.481H2c-1.1 0-2 .9-2 2v10c0 .386.116.745.308 1.052L1.5 12.148v-8.15z" transform="translate(8 7.5)"/>
    </g>
</svg>
