<svg xmlns="http://www.w3.org/2000/svg" xmlns:xlink="http://www.w3.org/1999/xlink" width="30" height="30" viewBox="0 0 30 30">
    <defs>
        <path id="prefix__a" d="M0.835 0.801L15 0.801 15 16 0.835 16z"/>
    </defs>
    <g fill="none" fill-rule="evenodd">
        <path fill="#FFF" d="M4.666 9.529V8.48H2.843V7.266h1.823V5.443h1.215v1.823h.683l4.805-5.728c-.441-.104-.898-.165-1.369-.165H6c-3.3 0-6 2.7-6 6v1c0 1.738.753 3.304 1.943 4.402l2.723-3.246z" transform="translate(7 6.7)"/>
        <g transform="translate(7 6.7) translate(1)">
            <mask id="prefix__b" fill="#fff">
                <use xlink:href="#prefix__a"/>
            </mask>
            <path fill="#FFF" d="M11.157 7.605c-.552 0-1-.448-1-1s.448-1 1-1 1 .448 1 1-.448 1-1 1M9.39 10.141c-.552 0-1-.447-1-1 0-.552.448-1 1-1 .553 0 1 .448 1 1 0 .553-.447 1-1 1m3.482-7.32l.73-.875c.246-.299.203-.74-.096-.986-.3-.246-.74-.202-.985.096L.995 14.856c-.246.298-.203.74.096.984.159.132.359.18.548.152.165-.025.323-.108.437-.248l1.33-1.592c.509.142 1.042.221 1.594.221h4c3.3 0 6-2.7 6-6v-1c0-1.823-.833-3.452-2.127-4.553" mask="url(#prefix__b)"/>
        </g>
    </g>
</svg>
