<svg xmlns="http://www.w3.org/2000/svg" width="30" height="30" viewBox="0 0 30 30">
    <g fill="#FFF" fill-rule="evenodd">
        <path d="M6.02 13.56H4.054l1.965-2.342v2.343zM13.73.925c-.299-.246-.74-.202-.985.096L1.142 14.856c-.247.298-.203.739.095.985.16.13.36.18.55.152.164-.025.321-.11.437-.248l.927-1.106c.125.173.317.292.546.292h6.018c.378 0 .686-.307.686-.685 0-.378-.308-.685-.686-.685H7.39V9.583l4.702-5.606c.104.246.348.419.633.419.377 0 .686-.307.686-.685 0-.361-.105-.693-.262-.992l.678-.81c.245-.298.203-.74-.097-.985zM1.371 3.711c0-.452.367-.82.82-.82h3.828v4.036l1.372-1.635v-2.4h2.014l1.15-1.37H2.19C.982 1.521 0 2.502 0 3.711c0 .377.308.684.685.684.378 0 .686-.307.686-.685" transform="translate(8.8 7.3)"/>
    </g>
</svg>
