<svg xmlns="http://www.w3.org/2000/svg" width="30" height="30" viewBox="0 0 30 30">
    <g fill="none" fill-rule="evenodd">
        <g fill="#FFF">
            <g>
                <g>
                    <path d="M15.535 2.446c.322-.263.793-.217 1.057.102.263.32.218.793-.102 1.057l-5.091 4.197V14c0 .553-.448 1-1 1s-1-.447-1-1V9.45l-2 1.65V14c0 .553-.448 1-1 1s-1-.447-1-1v-1.251l-2.19 1.805-.454.375-1.527 1.259c-.141.115-.31.17-.478.17-.216 0-.43-.092-.58-.272-.262-.32-.217-.793.103-1.057l1.144-.943 1.982-1.634 4-3.298 2-1.648 1.975-1.63zM14.399 9c.553 0 1 .448 1 1v4c0 .553-.447 1-1 1-.552 0-1-.447-1-1v-4c0-.552.448-1 1-1zm-12-1c.552 0 1 .448 1 1v1.433l-2 1.649V9c0-.552.448-1 1-1zm4-8c.553 0 1 .448 1 1v6.136l-2 1.648V1c0-.552.447-1 1-1z" transform="translate(-1283 -1149) translate(1283 1149) translate(6.6 6)"/>
                </g>
            </g>
        </g>
    </g>
</svg>
