<svg xmlns="http://www.w3.org/2000/svg" width="30" height="30" viewBox="0 0 30 30">
    <g fill="none" fill-rule="evenodd">
        <g fill="#535353">
            <g>
                <g>
                    <path d="M10.934 2.13c.266-.32.739-.364 1.056-.102.319.264.364.737.1 1.056l-1.28 1.55c.216.226.433.451.634.691.082.1.163.2.242.3l.118.148c.676.882 1.246 1.835 1.708 2.835.14.302.273.607.39.917.616 1.604.955 3.313.99 5.053-.003.13-.008.256-.012.381h-1.916c.009-1.63-.288-3.239-.864-4.743-.381-.989-.881-1.932-1.491-2.805l.176.253-.038-.058c-.071-.104-.142-.208-.216-.31l-.226-.304c-.061-.082-.127-.16-.191-.242l-.107-.134c-.14-.166-.291-.32-.437-.479L7.906 8.154c1.573 1.827 2.532 4.205 2.532 6.805H8.507c0-2.005-.694-3.837-1.851-5.29l-1.62 1.961c.632.955 1.003 2.101 1.003 3.33h-1.93c-.001-.623-.147-1.204-.394-1.73l-2.386 2.892c-.15.18-.363.272-.578.272-.17 0-.338-.056-.478-.17-.32-.265-.364-.738-.1-1.057zM0 8.92c.949 0 1.845.227 2.646.618l-1.288 1.56C.93 10.949.48 10.852 0 10.852zm0-4.399c2.015 0 3.893.582 5.49 1.572L4.25 7.596C2.999 6.872 1.552 6.452 0 6.451zM0 0c2.135 0 4.166.452 6.006 1.259.838.367 1.635.812 2.385 1.319L7.154 4.076C5.1 2.723 2.647 1.93 0 1.93z" transform="translate(-1338 -430) translate(1338 430) translate(8.6 8)"/>
                </g>
            </g>
        </g>
    </g>
</svg>
