<svg xmlns="http://www.w3.org/2000/svg" xmlns:xlink="http://www.w3.org/1999/xlink" width="30" height="30" viewBox="0 0 30 30">
    <defs>
        <path id="prefix__a" d="M0 0L9 0 9 9 0 9z"/>
        <path id="prefix__c" d="M2 0L15 0 15 15 2 15z"/>
    </defs>
    <g fill="none" fill-rule="evenodd" transform="translate(8 8)">
        <mask id="prefix__b" fill="#fff">
            <use xlink:href="#prefix__a"/>
        </mask>
        <path fill="#535353" d="M3.035 7.048l-.818-.81c-1.032-1.02-1.032-2.684 0-3.705l.34-.337c1.034-1.022 2.714-1.022 3.747 0l1.764 1.746.932-1.1-1.675-1.658c-1.595-1.579-4.192-1.579-5.788 0l-.341.337c-1.595 1.58-1.595 4.15 0 5.729L2.963 9c-.105-.648-.08-1.31.072-1.952" mask="url(#prefix__b)"/>
        <mask id="prefix__d" fill="#fff">
            <use xlink:href="#prefix__c"/>
        </mask>
        <path fill="#535353" d="M13.794 6.996L12.017 5.2c.105.665.08 1.346-.073 2.005l.822.832c.503.508.78 1.184.78 1.904s-.277 1.396-.78 1.905l-.342.348c-1.04 1.05-2.729 1.05-3.768-.001l-1.81-1.83.625-.754.64.647c.533-.202 1.032-.516 1.46-.948l.342-.347c.428-.433.738-.938.938-1.476.135-.366.22-.747.251-1.133.028-.352.006-.706-.053-1.056l3.456-4.167c.239-.295.197-.729-.093-.971-.291-.242-.721-.199-.96.094L2.155 13.873c-.239.294-.197.729.094.97.155.129.35.177.534.15.16-.025.314-.108.425-.245l2.7-3.255 1.72 1.74c1.606 1.623 4.218 1.623 5.823 0l.001-.002.343-.347C14.573 12.097 15 11.052 15 9.939c-.001-1.112-.428-2.157-1.206-2.943M5.33 5.322c-.474.442-.818.96-1.039 1.51-.15.374-.245.764-.278 1.158-.03.337-.007.676.05 1.01L8 4.625 7.33 4c-.592.206-1.146.526-1.62.968l-.38.354z" mask="url(#prefix__d)"/>
    </g>
</svg>
