<svg xmlns="http://www.w3.org/2000/svg" width="30" height="30" viewBox="0 0 30 30">
    <g fill="none" fill-rule="evenodd">
        <g fill="#535353">
            <g>
                <path d="M21.904 8.36c.25-.329.72-.391 1.052-.14.329.252.39.723.139 1.051l-1.513 1.98c1.949 2.588 2.193 6.085.526 8.935l1.092 3.311c.063.195.014.407-.13.55-.143.145-.356.197-.55.134l-3.332-1.075c-1.238.722-2.648 1.104-4.091 1.104-1.041 0-2.044-.215-2.981-.588L10.41 25.85c-.148.194-.371.294-.597.294-.158 0-.318-.05-.455-.154-.33-.253-.391-.723-.14-1.052zM15.107 8c1.533 0 2.997.43 4.268 1.221l-3.085 4.031-.606-1.988c-.063-.215-.26-.365-.47-.364h-.022c-.218.013-.397.161-.456.354l-.954 3.079h-3.087c-.21.003-.406.122-.47.325-.02.059-.026.123-.025.167v.028c.013.159.085.305.207.394l2.49 1.894-.292.926-3.027 3.957c-.067-.062-.14-.119-.204-.185C7.844 20.308 7 18.273 7 16.107c0-2.166.844-4.202 2.374-5.732C10.904 8.843 12.942 8 15.107 8zm4.627 6.332h-.511l-3.69 4.823 1.927 1.48.215.164c.079.064.172.095.256.102h.046c.093 0 .194-.035.275-.093.137-.105.212-.261.214-.422v-.03l-.003-.012c-.002-.04-.01-.079-.022-.12l-.952-3.069 2.5-1.88c.133-.1.209-.258.21-.418-.001-.056-.006-.111-.03-.178l-.007-.023c-.074-.187-.24-.313-.428-.324z" transform="translate(-1143 -319) translate(1143 319)"/>
            </g>
        </g>
    </g>
</svg>
