<svg xmlns="http://www.w3.org/2000/svg" width="30" height="30" viewBox="0 0 30 30">
    <g fill="#535353" fill-rule="evenodd">
        <path d="M6.02 12.796H4.053l1.965-2.343v2.343zM13.73.16c-.299-.246-.74-.202-.985.096L1.14 14.091c-.246.298-.202.74.096.985.16.131.36.18.55.152.164-.025.321-.109.436-.248l.927-1.106c.125.173.317.292.546.292h6.02c.377 0 .685-.307.685-.685 0-.378-.308-.685-.686-.685H7.39V8.818l4.702-5.606c.104.246.348.42.632.42.378 0 .686-.308.686-.686 0-.36-.105-.693-.262-.992l.678-.809c.246-.299.203-.74-.096-.986zM1.371 2.947c0-.452.367-.82.819-.82h3.829v4.036l1.372-1.635V2.127h2.014l1.149-1.37H2.19C.982.757 0 1.739 0 2.947c0 .378.308.685.685.685.378 0 .686-.307.686-.685" transform="translate(8.8 8.1)"/>
    </g>
</svg>
