<svg xmlns="http://www.w3.org/2000/svg" width="30" height="30" viewBox="0 0 30 30">
    <g fill="none" fill-rule="evenodd">
        <g fill="#535353">
            <g>
                <g>
                    <path d="M14.224.16c-.299-.247-.74-.203-.985.095L1.634 14.09c-.246.3-.203.74.096.986.16.131.36.18.548.151.166-.024.323-.108.438-.247l.81-.967H5v-1.5h-.216L12.5 3.315v1.698H14v-3c0-.146-.023-.286-.053-.424l.373-.445c.246-.298.203-.74-.096-.985M1.5 2.013c0-.27.229-.5.5-.5h3v-1.5H2c-1.1 0-2 .9-2 2v3h1.5v-3zM1.5 12.013v-3H0v3c0 .508.198.97.513 1.322l1.011-1.205c-.01-.039-.024-.076-.024-.117M11.688.013L9 .013 9 1.513 10.43 1.513zM12.5 12.013c0 .271-.229.5-.5.5H9v1.5h3c1.1 0 2-.9 2-2v-3h-1.5v3z" transform="translate(-377 -316) translate(377 316) translate(8 8)"/>
                </g>
            </g>
        </g>
    </g>
</svg>
