<svg xmlns="http://www.w3.org/2000/svg" xmlns:xlink="http://www.w3.org/1999/xlink" width="30" height="30" viewBox="0 0 30 30">
    <defs>
        <path id="prefix__a" d="M1.835 0L15.999 0 15.999 15.199 1.835 15.199z"/>
    </defs>
    <g fill="none" fill-rule="evenodd" transform="translate(7 7.5)">
        <path fill="#535353" d="M4.666 8.728V7.68H2.843V6.465h1.823V4.642h1.215v1.823h.683L11.369.737C10.928.633 10.471.572 10 .572H6c-3.3 0-6 2.7-6 6v1c0 1.738.753 3.304 1.943 4.402l2.723-3.246z"/>
        <mask id="prefix__b" fill="#fff">
            <use xlink:href="#prefix__a"/>
        </mask>
        <path fill="#535353" d="M12.156 6.804c-.552 0-1-.448-1-1s.448-1 1-1 1 .448 1 1-.448 1-1 1M10.39 9.34c-.552 0-1-.447-1-1 0-.552.448-1 1-1 .553 0 1 .448 1 1 0 .553-.447 1-1 1m3.482-7.32l.73-.875c.246-.299.203-.74-.096-.986-.299-.246-.74-.202-.985.096l-11.527 13.8c-.246.298-.203.74.096.984.16.132.36.18.548.152.165-.025.323-.108.437-.248l1.331-1.592c.508.142 1.041.221 1.593.221h4c3.3 0 6-2.7 6-6v-1c0-1.823-.833-3.452-2.127-4.553" mask="url(#prefix__b)"/>
    </g>
</svg>
