<svg xmlns="http://www.w3.org/2000/svg" xmlns:xlink="http://www.w3.org/1999/xlink" width="30" height="30" viewBox="0 0 30 30">
    <defs>
        <path id="prefix__a" d="M0 0.655L11.599 0.655 11.599 13.576 0 13.576z"/>
        <path id="prefix__c" d="M0.299 0.3L15.2 0.3 15.2 17 0.299 17z"/>
    </defs>
    <g fill="none" fill-rule="evenodd">
        <path fill="#EFFC35" d="M2.95 7.465c-.21.25-.31.565-.28.89.028.323.18.617.43.826.228.191.506.284.782.284.348 0 .693-.147.934-.434.209-.249.309-.565.28-.889-.028-.324-.181-.618-.43-.827-.514-.43-1.284-.364-1.716.15M5.104 5.386c0 .672.545 1.218 1.218 1.218.671 0 1.218-.546 1.218-1.218 0-.67-.546-1.218-1.218-1.218-.673 0-1.218.547-1.218 1.218" transform="translate(7 5.6)"/>
        <g transform="translate(7 5.6) translate(0 .7)">
            <mask id="prefix__b" fill="#fff">
                <use xlink:href="#prefix__a"/>
            </mask>
            <path fill="#EFFC35" d="M1.486 13.52l.04.056.806-.976-.037-.056-.004-.005c-.704-1.06-1.06-2.338-1.06-3.797 0-3.845 3.048-6.857 6.94-6.857.878 0 1.736.15 2.55.446l.017.006.05.018.81-.982-.047-.02-.077-.032C10.413.879 9.302.655 8.17.655 3.59.655 0 4.208 0 8.742c0 1.825.488 3.417 1.45 4.73l.036.049z" mask="url(#prefix__b)"/>
        </g>
        <g transform="translate(7 5.6) translate(1 .7)">
            <mask id="prefix__d" fill="#fff">
                <use xlink:href="#prefix__c"/>
            </mask>
            <path fill="#EFFC35" d="M13.954 8.123c-.129 1.132-.66 2.09-1.495 2.695-.845.614-1.918.83-3.022.603l-.213-.044c-.763-.154-1.509.15-1.946.794-.435.645-.44 1.451-.01 2.1l.226.343c.143.217.149.48.014.702-.133.224-.369.344-.628.32-.617-.057-2.034-.284-3.437-1.103l8.782-10.618c1.097 1.092 1.745 2.498 1.745 3.905 0 .111-.005.21-.016.303M13 2.98l1.203-1.453c.264-.319.218-.79-.101-1.054-.32-.265-.793-.219-1.056.101L.47 15.775c-.264.32-.22.791.1 1.054.14.115.31.171.478.171.216 0 .43-.093.579-.272l1.038-1.255c1.74 1.071 3.514 1.334 4.102 1.387.06.006.119.01.178.01.668 0 1.274-.346 1.619-.922.376-.629.359-1.4-.045-2.013l-.226-.34c-.152-.232-.15-.506.005-.735.154-.229.405-.334.678-.277l.213.043c1.447.295 2.863.007 3.992-.812 1.117-.812 1.825-2.073 1.995-3.552.016-.137.024-.282.024-.442 0-1.789-.81-3.516-2.2-4.84" mask="url(#prefix__d)"/>
        </g>
        <path fill="#EFFC35" d="M11.676 7.315c-.249.21-.402.502-.43.827-.028.324.071.64.28.89.21.248.503.401.827.43.036.002.072.004.108.004.286 0 .56-.1.781-.285.25-.209.402-.503.43-.827.028-.324-.07-.64-.28-.889-.209-.249-.503-.402-.827-.43-.325-.03-.639.071-.889.28" transform="translate(7 5.6)"/>
    </g>
</svg>
