<svg xmlns="http://www.w3.org/2000/svg" xmlns:xlink="http://www.w3.org/1999/xlink" width="30" height="30" viewBox="0 0 30 30">
    <defs>
        <path id="prefix__a" d="M0 0.441L9.301 0.441 9.301 9.84 0 9.84z"/>
        <path id="prefix__c" d="M0.646 0.764L14 0.764 14 16 0.646 16z"/>
    </defs>
    <g fill="none" fill-rule="evenodd">
        <g transform="translate(8 6.559)">
            <mask id="prefix__b" fill="#fff">
                <use xlink:href="#prefix__a"/>
            </mask>
            <path fill="#FFF" d="M3.137 7.802l-.846-.846c-1.066-1.066-1.066-2.803 0-3.87l.352-.352c1.068-1.067 2.804-1.067 3.872 0l1.823 1.824.963-1.148-1.73-1.732C5.921.028 3.237.028 1.587 1.677l-.352.353c-1.648 1.65-1.648 4.334 0 5.982L3.062 9.84c-.108-.677-.082-1.37.075-2.038" mask="url(#prefix__b)"/>
        </g>
        <g transform="translate(8 6.559) translate(1)">
            <mask id="prefix__d" fill="#fff">
                <use xlink:href="#prefix__c"/>
            </mask>
            <path fill="#FFF" d="M12.76 7.87l-1.824-1.825c.108.676.082 1.367-.075 2.037l.844.845c.517.516.802 1.203.8 1.934.002.73-.283 1.417-.8 1.934l-.351.354c-1.068 1.067-2.803 1.067-3.871-.001l-1.86-1.86.643-.764.657.657c.548-.205 1.06-.524 1.5-.963l.352-.352c.439-.44.758-.954.963-1.5.139-.371.227-.758.258-1.15.029-.359.006-.719-.055-1.074l3.55-4.233c.246-.298.203-.74-.095-.986-.3-.246-.741-.202-.986.097L.805 14.855c-.245.298-.202.74.097.986.159.13.359.18.548.152.165-.026.323-.11.437-.248l2.774-3.307 1.767 1.766c1.649 1.65 4.332 1.65 5.98 0h.002l.352-.354C13.56 13.053 14 11.99 14 10.86c-.001-1.13-.44-2.191-1.24-2.99" mask="url(#prefix__d)"/>
        </g>
        <path fill="#FFF" d="M5.222 6.016c-.439.439-.757.954-.962 1.5-.14.373-.227.76-.258 1.152-.027.335-.006.672.046 1.004l3.648-4.35-.62-.62c-.549.205-1.062.523-1.5.962l-.354.352z" transform="translate(8 6.559)"/>
    </g>
</svg>
