<svg xmlns="http://www.w3.org/2000/svg" xmlns:xlink="http://www.w3.org/1999/xlink" width="90" height="90" viewBox="0 0 90 90">
    <defs>
        <path id="prefix__a" d="M0.001 0L74.657 0 74.657 76.84 0.001 76.84z"/>
    </defs>
    <g fill="none" fill-rule="evenodd" transform="translate(7 6)">
        <mask id="prefix__b" fill="#fff">
            <use xlink:href="#prefix__a"/>
        </mask>
        <path fill="#666" d="M14.837 34.233c0-11.653 9.51-21.135 21.195-21.135h2.593c11.686 0 21.195 9.482 21.195 21.135V61.18H14.837V34.233zM72.355 61.18H66.73V34.233c0-14.726-11.458-26.81-25.946-27.912V2.297C40.783 1.034 39.744 0 38.48 0h-2.303c-1.264 0-2.303 1.034-2.303 2.297v4.024C19.388 7.423 7.928 19.507 7.928 34.233V61.18H2.304c-1.269 0-2.303 1.038-2.303 2.297v2.296c0 1.266 1.034 2.297 2.303 2.297h31.57v6.474c0 1.26 1.039 2.296 2.303 2.296h2.303c1.264 0 2.303-1.036 2.303-2.296V68.07h31.572c1.267 0 2.303-1.031 2.303-2.297v-2.296c0-1.259-1.036-2.297-2.303-2.297z" mask="url(#prefix__b)"/>
    </g>
</svg>
