<svg xmlns="http://www.w3.org/2000/svg" width="26" height="26" viewBox="0 0 26 26">
    <g fill="#F1FA75">
        <path d="M.177 12.47C.177 5.686 5.697.168 12.48.168c1.04 0 2.074.13 3.074.388.508.13.814.648.683 1.155-.13.508-.648.813-1.156.683-.846-.217-1.721-.327-2.601-.327-5.736 0-10.403 4.666-10.403 10.401 0 5.736 4.667 10.403 10.403 10.403 4.75 0 8.892-3.207 10.075-7.801.13-.507.648-.812 1.155-.682.508.13.814.647.683 1.155-1.398 5.433-6.297 9.227-11.913 9.227C5.696 24.77.177 19.252.177 12.469z"/>
        <path d="M9.151 11.042h.169c0-.671-.544-1.215-1.215-1.215-.672 0-1.216.544-1.216 1.215s.544 1.215 1.216 1.215c.67 0 1.215-.544 1.215-1.215h-.169zM17.9 11.042h.169c0-.671-.545-1.215-1.215-1.215-.672 0-1.217.544-1.217 1.215s.545 1.215 1.217 1.215c.67 0 1.215-.544 1.215-1.215h-.17zM12.479 18.82v.168c1.777 0 3.449-.945 4.367-2.47.27-.448.126-1.032-.324-1.302-.448-.27-1.032-.125-1.303.324-.584.97-1.608 1.55-2.74 1.55-1.132 0-2.156-.579-2.74-1.55-.271-.45-.854-.594-1.304-.323-.449.27-.594.854-.323 1.303.918 1.522 2.59 2.468 4.367 2.468v-.168zM23.693 12.209v.084c.423 0 .765-.324.765-.723V8.515c0-.4-.342-.723-.765-.723-.422 0-.764.323-.764.723v3.055c0 .4.342.723.764.723v-.084z"/>
        <path d="M25.176 10.76v.089c.399 0 .723-.343.723-.765s-.324-.765-.723-.765h-3.049c-.399 0-.722.343-.722.765s.323.765.722.765h3.049v-.09zM20.814 7.38v.085c.477 0 .864-.387.864-.864V1.31c0-.477-.387-.865-.864-.865s-.865.388-.865.865v5.29c0 .477.387.864.865.864v-.084z"/>
        <path d="M23.458 4.736v.085c.477 0 .865-.387.865-.865s-.387-.865-.865-.865h-5.29c-.477 0-.864.387-.864.865s.388.865.865.865h5.29v-.085z"/>
    </g>
</svg>
