<svg xmlns="http://www.w3.org/2000/svg" width="90" height="90" viewBox="0 0 90 90">
    <g fill="#666" fill-rule="evenodd" stroke="#666">
        <path d="M36.956 71.86c-19.81 0-35.93-16.118-35.93-35.932C1.025 16.118 17.145 0 36.955 0c3.04 0 6.062.382 8.982 1.133 1.235.318 1.98 1.577 1.663 2.812-.32 1.239-1.58 1.98-2.815 1.664-2.544-.653-5.178-.986-7.83-.986-17.263 0-31.308 14.045-31.308 31.305 0 17.264 14.045 31.308 31.308 31.308 14.295 0 26.763-9.652 30.323-23.478.317-1.236 1.577-1.978 2.812-1.66 1.238.317 1.98 1.576 1.663 2.811C67.67 60.778 53.36 71.86 36.956 71.86" transform="translate(7 9)"/>
        <path d="M27.102 31.702c0 1.712-1.39 3.098-3.099 3.098-1.712 0-3.101-1.386-3.101-3.098 0-1.713 1.389-3.099 3.101-3.099 1.71 0 3.099 1.386 3.099 3.099M53.01 31.702c0 1.712-1.388 3.098-3.098 3.098-1.712 0-3.101-1.386-3.101-3.098 0-1.713 1.389-3.099 3.101-3.099 1.71 0 3.099 1.386 3.099 3.099M36.956 54.735c-5.085 0-9.877-2.71-12.504-7.069-.66-1.093-.305-2.516.788-3.172 1.093-.66 2.513-.308 3.172.785 1.824 3.028 5.018 4.833 8.544 4.833 3.527 0 6.724-1.805 8.544-4.833.66-1.093 2.082-1.444 3.173-.788 1.096.659 1.447 2.079.788 3.172-2.627 4.362-7.416 7.072-12.505 7.072" transform="translate(7 9)"/>
        <path stroke-width=".5" d="M70.045 35.157c-1.044 0-1.891-.847-1.891-1.891v-9.05c0-1.044.847-1.89 1.891-1.89s1.891.846 1.891 1.89v9.05c0 1.044-.847 1.89-1.89 1.89" transform="translate(7 9)"/>
        <path stroke-width=".5" d="M74.559 30.631H65.53c-1.044 0-1.89-.847-1.89-1.89 0-1.045.846-1.892 1.89-1.892h9.028c1.044 0 1.891.847 1.891 1.891s-.847 1.891-1.891 1.891M61.64 20.859c-1.275 0-2.31-1.035-2.31-2.31V2.884c0-1.275 1.035-2.313 2.31-2.313 1.276 0 2.31 1.038 2.31 2.313v15.665c0 1.275-1.034 2.31-2.31 2.31" transform="translate(7 9)"/>
        <path stroke-width=".5" d="M69.473 13.027H53.808c-1.275 0-2.31-1.035-2.31-2.31 0-1.278 1.035-2.313 2.31-2.313h15.665c1.275 0 2.31 1.035 2.31 2.313 0 1.275-1.035 2.31-2.31 2.31" transform="translate(7 9)"/>
    </g>
</svg>
