<?xml version="1.0" encoding="UTF-8"?>
<svg width="22px" height="22px" viewBox="0 0 22 22" version="1.1" xmlns="http://www.w3.org/2000/svg" xmlns:xlink="http://www.w3.org/1999/xlink">
    <title>AFE0749E-0D1B-4F30-AADE-244539B3CBCF</title>
    <g id="Page-1" stroke="none" stroke-width="1" fill="none" fill-rule="evenodd">
        <g id="0525_Release-_Image-Resource" transform="translate(-312.000000, -348.000000)" fill="#BABABA" stroke="#BABABA" stroke-width="0.3">
            <g id="ic_reroad_normal" transform="translate(312.000000, 348.000000)">
                <path d="M18.7803813,10.6079323 C18.4878813,10.3199323 18.0135063,10.3199323 17.7200688,10.6079323 L17.1669438,11.1525477 C16.9869438,7.73070154 14.1116313,5.00024 10.5922563,5.00024 C6.95756875,5.00024 3.99975625,7.91162462 3.99975625,11.4913169 C3.99975625,15.0700862 6.95756875,17.9814708 10.5922563,17.9814708 C11.0066313,17.9814708 11.3413188,17.6510092 11.3413188,17.2430092 C11.3413188,16.8350092 11.0066313,16.5054708 10.5922563,16.5054708 C7.78444375,16.5054708 5.49975625,14.2559323 5.49975625,11.4913169 C5.49975625,8.72577846 7.78444375,6.47624 10.5922563,6.47624 C13.2725688,6.47624 15.4700688,8.52639385 15.6660063,11.1165477 L15.1494438,10.6079323 C14.8560063,10.3199323 14.3816313,10.3199323 14.0881938,10.6079323 C13.7956938,10.8959323 13.7956938,11.3639323 14.0881938,11.6528554 L15.9041313,13.4399323 C16.0503813,13.5848554 16.2425688,13.6568554 16.4347563,13.6568554 C16.6260063,13.6568554 16.8181938,13.5848554 16.9644438,13.4399323 L18.7803813,11.6528554 C19.0728813,11.3639323 19.0728813,10.8959323 18.7803813,10.6079323" id="Fill-1"></path>
            </g>
        </g>
    </g>
</svg>