<svg xmlns="http://www.w3.org/2000/svg" width="22" height="22" viewBox="0 0 22 22">
    <g fill="none" fill-rule="evenodd">
        <g fill="#F1FA75">
            <g>
                <path d="M10.492 0c2.801 0 5.437 1.091 7.419 3.073 3.397 3.4 4.05 8.577 1.64 12.698l1.413 4.285c.082.25.018.525-.167.712-.187.187-.462.254-.71.173l-4.314-1.392c-1.603.935-3.427 1.429-5.294 1.429-2.798 0-5.428-1.09-7.407-3.068C1.092 15.927 0 13.294 0 10.49c0-2.8 1.092-5.436 3.072-7.417C5.054 1.091 7.69 0 10.492 0zM5.5 9C4.672 9 4 9.672 4 10.5S4.672 12 5.5 12 7 11.328 7 10.5 6.328 9 5.5 9zm5 0C9.672 9 9 9.672 9 10.5s.672 1.5 1.5 1.5 1.5-.672 1.5-1.5S11.328 9 10.5 9zm5 0c-.828 0-1.5.672-1.5 1.5s.672 1.5 1.5 1.5 1.5-.672 1.5-1.5S16.328 9 15.5 9z" transform="translate(-322.000000, -3869.000000) translate(322.000000, 3869.000000)"/>
            </g>
        </g>
    </g>
</svg>
