<svg xmlns="http://www.w3.org/2000/svg" width="22" height="22" viewBox="0 0 22 22">
    <g fill="none" fill-rule="evenodd">
        <g fill="#FFF">
            <g>
                <g>
                    <path d="M12.1 12.832c0 .402-.33.733-.733.733h-.734c-.402 0-.733-.331-.733-.733V5.498c0-.403.331-.733.733-.733h.734c.403 0 .733.33.733.733v7.334zm0 3.668c0 .404-.33.733-.733.733h-.734c-.402 0-.733-.329-.733-.733v-.733c0-.403.331-.734.733-.734h.734c.403 0 .733.331.733.734v.733zM11 0C4.924 0 0 4.924 0 11c0 6.074 4.924 11 11 11s11-4.926 11-11c0-6.076-4.924-11-11-11z" transform="translate(-113.000000, -3906.000000) translate(113.000000, 3906.000000) translate(0.000095, 0.000000)"/>
                </g>
            </g>
        </g>
    </g>
</svg>
