<?xml version="1.0" encoding="UTF-8"?>
<svg width="22px" height="22px" viewBox="0 0 22 22" version="1.1" xmlns="http://www.w3.org/2000/svg" xmlns:xlink="http://www.w3.org/1999/xlink">
    <title>05D439A0-7375-45C5-A0C9-28174CA63ACF</title>
    <defs>
        <polygon id="path-1" points="0 0.16430625 14.2201812 0.16430625 14.2201812 14.375 0 14.375"></polygon>
        <polygon id="path-3" points="0.1929125 0.0002875 5.75 0.0002875 5.75 5.5476 0.1929125 5.5476"></polygon>
    </defs>
    <g id="Page-1" stroke="none" stroke-width="1" fill="none" fill-rule="evenodd">
        <g id="0525_Release-_Image-Resource" transform="translate(-622.000000, -407.000000)">
            <g id="ic_edit_l_over" transform="translate(622.000000, 407.000000)">
                <g id="Page-1" transform="translate(2.875000, 1.875000)">
                    <g id="Group-3" transform="translate(0.000000, 2.875000)">
                        <mask id="mask-2" fill="white">
                            <use xlink:href="#path-1"></use>
                        </mask>
                        <g id="Clip-2"></g>
                        <path d="M0.36555625,9.96661875 C0.25055625,10.0816188 0.18155625,10.2354313 0.17293125,10.3978688 L0.00043125,13.6811188 C-0.00819375,13.8679938 0.06080625,14.0491187 0.19305625,14.1813688 C0.31668125,14.3064313 0.48486875,14.3754313 0.66024375,14.3754313 C0.67174375,14.3754313 0.68324375,14.3739938 0.69474375,14.3739938 L3.97655625,14.2014938 C4.13899375,14.1928688 4.29280625,14.1238688 4.40780625,14.0088688 L14.2201812,4.19793125 C12.8114312,2.79061875 11.1539937,1.13893125 10.1678687,0.16430625 L0.36555625,9.96661875 Z" id="Fill-1" fill="#FFFFFF" mask="url(#mask-2)"></path>
                    </g>
                    <g id="Group-6" transform="translate(11.500000, 0.000000)">
                        <mask id="mask-4" fill="white">
                            <use xlink:href="#path-3"></use>
                        </mask>
                        <g id="Clip-5"></g>
                        <path d="M5.1724125,1.8216 L3.928975,0.5781625 C3.5566625,0.20585 3.060725,0.0002875 2.5302875,0.0002875 C2.0012875,0.0002875 1.5039125,0.20585 1.1316,0.5781625 L0.1929125,1.5154125 C0.90735,2.2197875 2.1277875,3.4330375 4.2437875,5.5476 L5.1724125,4.6204125 C5.9429125,3.848475 5.9429125,2.5935375 5.1724125,1.8216" id="Fill-4" fill="#FFFFFF" mask="url(#mask-4)"></path>
                    </g>
                </g>
            </g>
        </g>
    </g>
</svg>