<svg xmlns="http://www.w3.org/2000/svg" xmlns:xlink="http://www.w3.org/1999/xlink" width="22" height="22" viewBox="0 0 22 22">
    <defs>
        <path id="prefix__a" d="M0 0L21 0 21 21 0 21z"/>
    </defs>
    <g fill="none" fill-rule="evenodd" transform="translate(1)">
        <mask id="prefix__b" fill="#fff">
            <use xlink:href="#prefix__a"/>
        </mask>
        <path fill="#7A7F34" d="M14.35 7.734c0 .87-.331 1.698-.933 2.33l-1.852 1.852v1.468c0 .387-.315.7-.7.7h-.7c-.385 0-.7-.313-.7-.7v-1.902c0-.279.111-.546.308-.743l2.142-2.142c.21-.22.335-.533.335-.863v-.241c0-.705-.573-1.28-1.278-1.28h-.943c-.705 0-1.28.575-1.28 1.28v.546c0 .385-.313.7-.7.7H7.35c-.384 0-.7-.315-.7-.7v-.546c0-1.864 1.516-3.38 3.379-3.38h.943c1.863 0 3.378 1.516 3.378 3.38v.241zm-2.8 8.45c0 .387-.315.7-.7.7h-.7c-.384 0-.7-.313-.7-.7v-.699c0-.384.316-.7.7-.7h.7c.385 0 .7.316.7.7v.7zM10.5 0C4.7 0 0 4.7 0 10.5 0 16.298 4.7 21 10.5 21S21 16.298 21 10.5C21 4.7 16.3 0 10.5 0z" mask="url(#prefix__b)"/>
    </g>
</svg>
