<svg xmlns="http://www.w3.org/2000/svg" xmlns:xlink="http://www.w3.org/1999/xlink" width="22" height="23" viewBox="0 0 22 23">
    <defs>
        <path id="prefix__a" d="M0 0L21 0 21 21 0 21z"/>
    </defs>
    <g fill="none" fill-rule="evenodd" transform="translate(1)">
        <mask id="prefix__b" fill="#fff">
            <use xlink:href="#prefix__a"/>
        </mask>
        <path fill="#EFFC35" d="M14.35 7.735c0 .87-.331 1.698-.933 2.329l-1.852 1.853v1.468c0 .386-.315.7-.7.7h-.7c-.385 0-.7-.314-.7-.7v-1.903c0-.278.111-.546.308-.742l2.142-2.142c.21-.22.335-.534.335-.863v-.242c0-.704-.573-1.279-1.278-1.279h-.943c-.705 0-1.28.575-1.28 1.28v.545c0 .386-.313.7-.7.7H7.35c-.384 0-.7-.314-.7-.7v-.546c0-1.864 1.516-3.379 3.379-3.379h.943c1.863 0 3.378 1.515 3.378 3.38v.24zm-2.8 8.45c0 .386-.315.7-.7.7h-.7c-.384 0-.7-.314-.7-.7v-.7c0-.384.316-.7.7-.7h.7c.385 0 .7.316.7.7v.7zM10.5 0C4.7 0 0 4.701 0 10.5S4.7 21 10.5 21 21 16.299 21 10.5 16.3 0 10.5 0z" mask="url(#prefix__b)"/>
    </g>
</svg>
