<?xml version="1.0" encoding="UTF-8"?>
<svg width="15px" height="15px" viewBox="0 0 15 15" version="1.1" xmlns="http://www.w3.org/2000/svg" xmlns:xlink="http://www.w3.org/1999/xlink">
    <title>013D15F7-17FA-4542-9BD4-64CD3A808255</title>
    <g id="Page-1" stroke="none" stroke-width="1" fill="none" fill-rule="evenodd">
        <g id="0525_Release-_Image-Resource" transform="translate(-104.000000, -352.000000)" fill="#BABABA">
            <g id="ic_liveend_view" transform="translate(104.000000, 352.000000)">
                <g id="Page-1" transform="translate(2.000000, 2.000000)">
                    <path d="M5.5,0.5 C6.88071187,0.5 8,1.61928813 8,3 C8,4.38071187 6.88071187,5.5 5.5,5.5 C4.11928813,5.5 3,4.38071187 3,3 C3,1.61928813 4.11928813,0.5 5.5,0.5 Z" id="Path"></path>
                    <path d="M5.50001203,7 C2.46154568,7 0.0417715634,8.72021423 0.000525413788,10.4418592 C-0.0034243417,10.606725 0.015342136,10.6407851 0.0417715634,10.8040722 C0.0644043046,10.9144386 0.173299314,10.9961135 0.302997178,11 L10.6970269,11 C10.8267248,10.9961135 10.9356198,10.9144386 10.9582525,10.8040722 C10.9846819,10.6407851 11.0033395,10.6067253 10.9994987,10.4418592 C10.9582525,8.67141469 8.53847839,7 5.50001203,7 Z" id="Path"></path>
                </g>
            </g>
        </g>
    </g>
</svg>