<?xml version="1.0" encoding="UTF-8"?>
<svg width="15px" height="15px" viewBox="0 0 15 15" version="1.1" xmlns="http://www.w3.org/2000/svg" xmlns:xlink="http://www.w3.org/1999/xlink">
    <title>217FDE0B-5001-4350-A436-CA9B5A59032C</title>
    <g id="Page-1" stroke="none" stroke-width="1" fill="none" fill-rule="evenodd">
        <g id="0525_Release-_Image-Resource" transform="translate(-264.000000, -352.000000)" fill="#666666">
            <g id="ic_like_disable" transform="translate(264.000000, 352.000000)">
                <g id="Group" transform="translate(0.000000, 2.000000)">
                    <rect id="Rectangle" x="0.781954887" y="4.22461111" width="2.78571429" height="6.41666667" rx="0.475"></rect>
                    <path d="M12.5388617,5.89611211 C12.5335835,5.99022322 12.5177489,6.08311211 12.4925308,6.17355655 C12.4825609,6.20044544 12.4696586,6.22611211 12.4538241,6.24933433 L10.9788617,9.84266766 C10.8269669,10.2105566 10.4791925,10.4507232 10.0921248,10.4568343 L5.68776391,10.4568343 C5.13941805,10.4501121 4.69429023,9.99666766 4.68021504,9.43077878 L4.68021504,4.38177878 C4.66789925,4.10922322 4.78226015,3.84644544 4.98810977,3.67411211 L8.06998947,0.501834331 C8.17062676,0.405549956 8.30120712,0.308870269 8.48256873,0.43419579 L8.88881873,0.835237456 C9.00787136,0.99657079 9.05204417,1.18614891 8.98604962,1.40261211 L8.93234551,1.57286766 L8.06998947,3.90327878 L11.1536286,3.90327878 C11.6962964,3.87527652 12.3673344,4.21902652 12.5288917,4.77533433 C12.5388617,4.81505655 12.5388617,4.87738989 12.5388617,4.87738989 L12.5388617,5.89611211 Z" id="Fill-2"></path>
                </g>
            </g>
        </g>
    </g>
</svg>