<?xml version="1.0" encoding="UTF-8"?>
<svg width="15px" height="15px" viewBox="0 0 15 15" version="1.1" xmlns="http://www.w3.org/2000/svg" xmlns:xlink="http://www.w3.org/1999/xlink">
    <title>509C70BA-E87D-4CC8-8C85-A5433C863260</title>
    <g id="Page-1" stroke="none" stroke-width="1" fill="none" fill-rule="evenodd">
        <g id="0525_Release-_Image-Resource" transform="translate(-204.000000, -352.000000)" fill="#BABABA">
            <g id="ic_like_vlive" transform="translate(204.000000, 352.000000)">
                <path d="M10.6205333,2 C9.5632,2.00070588 8.61853333,2.50258824 7.99986667,3.29035294 C7.38053333,2.50258824 6.43653333,2.00070588 5.37853333,2 C3.51253333,2.00070588 2.0012,3.89247059 1.99986667,5.82376471 C2.03253333,7.72117647 3.49786667,9.572 4.88386667,11.0691765 C6.2832,12.5522353 7.66586667,13.6195294 7.6792,13.6301176 L7.9992,13.8785882 L8.31986667,13.6301176 C8.3332,13.6195294 9.71586667,12.5522353 11.1152,11.0691765 C12.5018667,9.572 13.9672,7.72117647 13.9998667,5.82376471 C13.9992,3.89247059 12.4878667,2.00070588 10.6205333,2" id="Fill-1"></path>
            </g>
        </g>
    </g>
</svg>