<?xml version="1.0" encoding="UTF-8"?>
<svg width="22px" height="22px" viewBox="0 0 22 22" version="1.1" xmlns="http://www.w3.org/2000/svg" xmlns:xlink="http://www.w3.org/1999/xlink">
    <title>C8F408C6-676B-41A8-9DAE-FE1700739292</title>
    <g id="Page-1" stroke="none" stroke-width="1" fill="none" fill-rule="evenodd">
        <g id="0525_Release-_Image-Resource" transform="translate(-506.000000, -407.000000)" fill="#1E1E1E">
            <g id="ic_liveinfo_click" transform="translate(506.000000, 407.000000)">
                <path d="M15.3332,7.7481 L6.7002,7.7481 C6.2492,7.7481 5.8842,7.3831 5.8842,6.9321 C5.8842,6.4801 6.2492,6.1161 6.7002,6.1161 L15.3332,6.1161 C15.7842,6.1161 16.1492,6.4801 16.1492,6.9321 C16.1492,7.3831 15.7842,7.7481 15.3332,7.7481 M15.3332,12.0661 L6.7002,12.0661 C6.2492,12.0661 5.8842,11.7001 5.8842,11.2501 C5.8842,10.8001 6.2492,10.4341 6.7002,10.4341 L15.3332,10.4341 C15.7842,10.4341 16.1492,10.8001 16.1492,11.2501 C16.1492,11.7001 15.7842,12.0661 15.3332,12.0661 M15.3332,16.3851 L6.7002,16.3851 C6.2492,16.3851 5.8842,16.0191 5.8842,15.5691 C5.8842,15.1181 6.2492,14.7531 6.7002,14.7531 L15.3332,14.7531 C15.7842,14.7531 16.1492,15.1181 16.1492,15.5691 C16.1492,16.0191 15.7842,16.3851 15.3332,16.3851 M16.8562,2.0001 L5.1772,2.0001 C3.9792,2.0001 3.0002,2.9791 3.0002,4.1771 L3.0002,18.3231 C3.0002,19.5211 3.9792,20.5001 5.1772,20.5001 L16.8562,20.5001 C18.0542,20.5001 19.0332,19.5211 19.0332,18.3231 L19.0332,4.1771 C19.0332,2.9791 18.0542,2.0001 16.8562,2.0001" id="Fill-1"></path>
            </g>
        </g>
    </g>
</svg>