<svg xmlns="http://www.w3.org/2000/svg" width="15" height="15" viewBox="0 0 15 15">
    <path fill="#FFF" fill-rule="evenodd" stroke="#FFF" stroke-width=".3" d="M13.81 6.86c-.254-.25-.665-.25-.92 0l-.479.472C12.255 4.367 9.763 2 6.713 2 3.563 2 1 4.523 1 7.626c0 3.101 2.563 5.625 5.713 5.625.36 0 .65-.287.65-.64 0-.354-.29-.64-.65-.64-2.433 0-4.413-1.95-4.413-4.345 0-2.397 1.98-4.347 4.413-4.347 2.323 0 4.228 1.777 4.398 4.022l-.448-.44c-.254-.25-.666-.25-.92 0-.253.249-.253.654 0 .905l1.574 1.549c.127.125.293.188.46.188.166 0 .332-.063.459-.188l1.574-1.55c.253-.25.253-.655 0-.905"/>
</svg>
