<svg xmlns="http://www.w3.org/2000/svg" xmlns:xlink="http://www.w3.org/1999/xlink" width="22" height="22" viewBox="0 0 22 22">
    <defs>
        <path id="prefix__a" d="M0 0L14 0 14 15.065 0 15.065z"/>
    </defs>
    <g fill="none" fill-rule="evenodd" transform="translate(4 3)">
        <mask id="prefix__b" fill="#fff">
            <use xlink:href="#prefix__a"/>
        </mask>
        <path fill="#BABABA" d="M7.013 9.744c-1.157 0-2.099-.965-2.099-2.152 0-1.187.942-2.152 2.1-2.152 1.159 0 2.1.965 2.1 2.152 0 1.187-.941 2.152-2.1 2.152m6.626-.28l-1.25-.914c.061-.33.095-.67.095-1.018s-.034-.688-.095-1.018l1.25-.914c.357-.26.467-.786.247-1.168L13.12 3.1c-.22-.382-.73-.55-1.132-.37l-1.415.63c-.512-.443-1.107-.792-1.757-1.02L8.651.797C8.605.358 8.207 0 7.767 0H6.234c-.44 0-.84.359-.885.798L5.184 2.34c-.65.229-1.245.578-1.757 1.02L2.01 2.73C1.61 2.55 1.1 2.72.88 3.1L.114 4.433c-.221.382-.11.908.245 1.168l1.251.914c-.062.33-.094.67-.094 1.018 0 .349.032.688.094 1.018l-1.25.914c-.356.261-.467.787-.246 1.17l.765 1.33c.22.383.73.55 1.132.37l1.416-.63c.512.443 1.106.791 1.757 1.02l.165 1.543c.045.44.444.798.885.798h1.533c.44 0 .838-.359.884-.798l.165-1.543c.65-.229 1.245-.577 1.757-1.02l1.415.63c.402.18.913.013 1.132-.37l.767-1.33c.22-.383.11-.909-.247-1.17" mask="url(#prefix__b)"/>
    </g>
</svg>
