<svg xmlns="http://www.w3.org/2000/svg" width="22" height="22" viewBox="0 0 22 22">
    <path fill="#555" fill-rule="evenodd" d="M11 14.5c-.832 0-1.501-.673-1.5-1.5-.001-.828.668-1.5 1.5-1.5.828 0 1.499.672 1.5 1.5-.001.827-.672 1.5-1.5 1.5zM8.94 6.373c0-1.001.755-1.817 1.68-1.817h.76c.925 0 1.679.816 1.68 1.816v1.622H8.94v-1.62zM17 8.512c0-.286-.216-.52-.48-.518h-2.021V6.372C14.499 4.512 13.1 3 11.379 3h-.759C8.9 3 7.5 4.513 7.5 6.373v1.62H5.48c-.265.002-.48.234-.48.52v7.412c0 1.144.862 2.076 1.92 2.075h8.16c1.059 0 1.92-.932 1.92-2.076V8.512z"/>
</svg>
