<svg xmlns="http://www.w3.org/2000/svg" xmlns:xlink="http://www.w3.org/1999/xlink" width="22" height="23" viewBox="0 0 22 23">
    <defs>
        <path id="prefix__a" d="M0 0L20 0 20 21 0 21z"/>
    </defs>
    <g fill="none" fill-rule="evenodd" transform="translate(1 1)">
        <mask id="prefix__b" fill="#fff">
            <use xlink:href="#prefix__a"/>
        </mask>
        <path fill="#F1FA75" d="M10.02 13.583c-1.655 0-3-1.345-3-3s1.345-3 3-3 3 1.345 3 3-1.345 3-3 3m9.465-.39L17.7 11.919c.088-.46.137-.934.137-1.42 0-.485-.049-.959-.137-1.419l1.786-1.274c.51-.362.667-1.096.353-1.628l-1.095-1.856c-.314-.532-1.043-.766-1.618-.516l-2.02.878c-.732-.617-1.582-1.103-2.51-1.422l-.236-2.15C12.293.5 11.724 0 11.095 0h-2.19c-.629 0-1.199.5-1.264 1.113l-.235 2.149c-.93.32-1.779.805-2.51 1.422l-2.023-.878c-.575-.25-1.302-.016-1.618.516L.162 6.178c-.315.532-.157 1.266.351 1.628L2.3 9.08c-.089.46-.135.934-.135 1.42 0 .485.046.959.135 1.419L.513 13.193c-.508.363-.666 1.096-.35 1.63l1.092 1.854c.316.533 1.043.766 1.618.516l2.022-.878c.732.617 1.581 1.103 2.511 1.422l.235 2.15C7.706 20.5 8.276 21 8.905 21h2.19c.63 0 1.198-.5 1.264-1.113l.235-2.15c.928-.319 1.78-.805 2.51-1.422l2.021.878c.575.25 1.304.017 1.618-.516l1.095-1.855c.314-.533.157-1.266-.353-1.63" mask="url(#prefix__b)"/>
    </g>
</svg>
