<svg xmlns="http://www.w3.org/2000/svg" xmlns:xlink="http://www.w3.org/1999/xlink" width="30" height="30" viewBox="0 0 30 30">
    <defs>
        <path id="prefix__a" d="M0 0.787L16.2 0.787 16.2 17 0 17z"/>
    </defs>
    <g fill="none" fill-rule="evenodd">
        <path fill="#7A7F34" d="M11.238 5.031c0-.672-.546-1.218-1.218-1.218-.672 0-1.218.546-1.218 1.218 0 .671.546 1.218 1.218 1.218.672 0 1.218-.547 1.218-1.218M2.95 7.11c-.21.25-.31.565-.28.89.028.323.18.616.43.826.228.191.506.284.782.284.348 0 .693-.147.934-.434.432-.515.364-1.284-.15-1.716-.516-.433-1.285-.364-1.716.15M6.322 3.813c-.672 0-1.218.546-1.218 1.218 0 .672.546 1.218 1.218 1.218.67 0 1.218-.546 1.218-1.218 0-.672-.547-1.218-1.218-1.218" transform="translate(7 6)"/>
        <g transform="translate(7 6) translate(0 .213)">
            <mask id="prefix__b" fill="#fff">
                <use xlink:href="#prefix__a"/>
            </mask>
            <path fill="#7A7F34" d="M8.279 12.303c-.436.646-.44 1.45-.012 2.1l.226.343c.144.217.15.479.016.702-.134.225-.365.344-.628.319-.748-.068-2.664-.37-4.31-1.692-1.553-1.247-2.34-2.997-2.34-5.201 0-3.845 3.048-6.857 6.94-6.857 4.067 0 6.799 3.068 6.799 5.934 0 .112-.004.21-.015.304-.13 1.132-.661 2.09-1.496 2.695-.846.614-1.92.829-3.022.603l-.213-.043c-.762-.154-1.508.147-1.945.793M8.17.787C3.59.787 0 4.339 0 8.874c0 5.846 4.883 7.854 7.768 8.118.06.006.119.008.178.008.668 0 1.274-.344 1.619-.92.377-.63.36-1.4-.045-2.012l-.226-.342c-.152-.231-.15-.505.005-.734.154-.23.409-.333.678-.277l.214.044c1.444.296 2.862.007 3.99-.812 1.119-.812 1.827-2.074 1.995-3.553.017-.137.024-.282.024-.443 0-3.883-3.677-7.164-8.03-7.164" mask="url(#prefix__b)"/>
        </g>
        <path fill="#7A7F34" d="M12.354 9.107c.036.003.072.005.107.005.287 0 .56-.1.781-.286.25-.209.402-.503.43-.827.028-.323-.07-.64-.28-.888-.43-.514-1.2-.583-1.715-.15-.514.43-.582 1.2-.15 1.716.209.248.503.402.827.43" transform="translate(7 6)"/>
    </g>
</svg>
