<svg xmlns="http://www.w3.org/2000/svg" width="30" height="30" viewBox="0 0 30 30">
    <path fill="#535353" fill-rule="evenodd" stroke="#535353" stroke-width=".3" d="M20.07 9h-9.03C9.915 9 9 9.915 9 11.04c0 .296.24.536.535.536.296 0 .535-.24.535-.536 0-.534.436-.97.97-.97h3.98v10.97h-2.475c-.295 0-.535.24-.535.535 0 .296.24.535.535.535h6.02c.296 0 .535-.24.535-.535 0-.295-.24-.535-.535-.535H16.09V10.07h3.98c.535 0 .97.436.97.97 0 .296.24.536.535.536.296 0 .535-.24.535-.536 0-1.125-.915-2.04-2.04-2.04"/>
</svg>
