<?xml version="1.0" encoding="UTF-8"?>
<svg width="38px" height="36px" viewBox="0 0 38 36" version="1.1" xmlns="http://www.w3.org/2000/svg" xmlns:xlink="http://www.w3.org/1999/xlink">
    <title>ACA58FC5-46A7-4AE9-A36E-DF9B61D4C081</title>
    <defs>
        <polygon id="path-1" points="0.000138461538 0 23.9566154 0 23.9566154 20.3916084 0.000138461538 20.3916084"></polygon>
    </defs>
    <g id="Page-1" stroke="none" stroke-width="1" fill="none" fill-rule="evenodd">
        <g id="0525_Release-_Image-Resource" transform="translate(-603.000000, -739.000000)">
            <g id="Group" transform="translate(588.000000, 727.000000)">
                <g id="icon_cover_camera_small" transform="translate(15.000000, 12.000000)">
                    <g id="Group-6" transform="translate(6.666667, 7.854545)">
                        <g id="Group-3">
                            <mask id="mask-2" fill="white">
                                <use xlink:href="#path-1"></use>
                            </mask>
                            <g id="Clip-2"></g>
                            <path d="M22.5721385,18.3524476 C22.5721385,18.7272 22.2615231,19.0321678 21.8798308,19.0321678 L2.07706154,19.0321678 C1.69536923,19.0321678 1.38475385,18.7272 1.38475385,18.3524476 L1.38475385,5.15998322 C1.38475385,4.78523077 1.69536923,4.48026294 2.07706154,4.48026294 L6.57013846,4.48026294 L17.3867538,4.48026294 L21.8798308,4.48026294 C22.2615231,4.48026294 22.5721385,4.78523077 22.5721385,5.15998322 L22.5721385,18.3524476 Z M8.87136923,1.35944056 L15.0850615,1.35944056 L16.1627538,3.12082238 L7.79367692,3.12082238 L8.87136923,1.35944056 Z M21.8798308,3.12082238 L17.7781385,3.12082238 L16.0704462,0.329890909 C15.9453692,0.125068531 15.7196769,0 15.4769077,0 L8.47998462,0 C8.23675385,0 8.01152308,0.125068531 7.88644615,0.329890909 L6.17829231,3.12082238 L2.07706154,3.12082238 C0.931523077,3.12082238 0.000138461538,4.03527273 0.000138461538,5.15998322 L0.000138461538,18.3524476 C0.000138461538,19.4767049 0.931523077,20.3916084 2.07706154,20.3916084 L21.8798308,20.3916084 C23.0249077,20.3916084 23.9567538,19.4767049 23.9567538,18.3524476 L23.9567538,5.15998322 C23.9567538,4.03527273 23.0249077,3.12082238 21.8798308,3.12082238 L21.8798308,3.12082238 Z" id="Fill-1" fill="#FFFFFF" mask="url(#mask-2)"></path>
                        </g>
                        <path d="M11.9783538,14.2015317 C10.6052769,14.2015317 9.48835385,13.1044632 9.48835385,11.7563513 C9.48835385,10.4077863 10.6052769,9.31117091 11.9783538,9.31117091 C13.3518923,9.31117091 14.4688154,10.4077863 14.4688154,11.7563513 C14.4688154,13.1044632 13.3518923,14.2015317 11.9783538,14.2015317 M11.9783538,7.95173035 C9.84189231,7.95173035 8.10373846,9.6582814 8.10373846,11.7563513 C8.10373846,13.8539681 9.84189231,15.5609723 11.9783538,15.5609723 C14.1152769,15.5609723 15.8534308,13.8539681 15.8534308,11.7563513 C15.8534308,9.6582814 14.1152769,7.95173035 11.9783538,7.95173035" id="Fill-4" fill="#FFFFFF"></path>
                    </g>
                </g>
            </g>
        </g>
    </g>
</svg>