<svg xmlns="http://www.w3.org/2000/svg" xmlns:xlink="http://www.w3.org/1999/xlink" width="30" height="30" viewBox="0 0 30 30">
    <defs>
        <path id="prefix__a" d="M0.719 0.056L6.771 0.056 6.771 13.796 0.719 13.796z"/>
    </defs>
    <g fill="none" fill-rule="evenodd">
        <path fill="#7A7F34" d="M7.303.046c-.225-.093-.479-.041-.649.129L2.721 4.108H.595c-.328 0-.595.268-.595.596v4.744c0 .328.267.596.595.596h2.126l3.933 3.933c.112.112.261.174.421.174.08 0 .157-.016.228-.045.224-.092.368-.308.368-.55V.596c0-.242-.144-.458-.368-.55M10.205 9.247c-.131.091-.218.227-.246.384-.028.157.007.315.098.445.11.16.294.255.489.255.123 0 .24-.037.34-.107 1.03-.718 1.645-1.894 1.645-3.148 0-1.255-.615-2.432-1.645-3.149-.13-.09-.29-.125-.446-.098-.156.028-.293.115-.383.246-.188.27-.122.641.148.83.71.494 1.135 1.306 1.135 2.171 0 .864-.424 1.675-1.135 2.171" transform="translate(7 8)"/>
        <g transform="translate(7 8) translate(9 .15)">
            <mask id="prefix__b" fill="#fff">
                <use xlink:href="#prefix__a"/>
            </mask>
            <path fill="#7A7F34" d="M1.463.073C1.143-.003.82.183.737.5.698.656.721.816.802.953c.08.137.21.234.364.274 2.598.668 4.412 3.012 4.412 5.699s-1.814 5.03-4.412 5.698c-.318.082-.51.407-.429.725.07.264.306.447.578.447.05 0 .1-.006.148-.018 3.125-.805 5.308-3.623 5.308-6.852 0-3.23-2.183-6.048-5.308-6.853" mask="url(#prefix__b)"/>
        </g>
    </g>
</svg>
