<svg xmlns="http://www.w3.org/2000/svg" width="30" height="30" viewBox="0 0 30 30">
    <g fill="none" fill-rule="evenodd">
        <g fill="#7A7F34">
            <g>
                <path d="M15.107 8c2.165 0 4.201.843 5.733 2.375 2.625 2.627 3.13 6.627 1.268 9.812l1.092 3.31c.063.194.014.407-.13.551-.144.144-.356.196-.549.134l-3.333-1.076c-1.239.723-2.648 1.104-4.09 1.104-2.163 0-4.195-.842-5.724-2.37C7.844 20.307 7 18.272 7 16.105c0-2.164.844-4.2 2.374-5.731C10.905 8.843 12.942 8 15.107 8zm.107 2.9h-.022c-.218.013-.397.161-.456.354l-.954 3.078h-3.087c-.21.004-.406.123-.469.326-.02.059-.027.123-.026.167v.028c.012.159.085.305.207.394l2.491 1.894-.968 3.06c-.018.056-.026.115-.024.164-.003.158.073.32.2.418.088.066.193.1.287.1.109.002.212-.03.3-.096l2.496-1.895 2.27 1.743.215.165c.08.063.173.094.257.1h.046c.093 0 .193-.035.275-.092.138-.104.212-.261.213-.422v-.03l-.002-.012c-.003-.04-.01-.078-.022-.12l-.952-3.069 2.501-1.88c.132-.1.208-.257.21-.418-.002-.056-.007-.112-.032-.178l-.006-.023c-.074-.186-.24-.312-.428-.324H16.62l-.935-3.068c-.064-.215-.261-.365-.47-.364z" transform="translate(-1143 -395) translate(1143 395)"/>
            </g>
        </g>
    </g>
</svg>
