<?xml version="1.0" encoding="UTF-8"?>
<svg width="38px" height="36px" viewBox="0 0 38 36" version="1.1" xmlns="http://www.w3.org/2000/svg" xmlns:xlink="http://www.w3.org/1999/xlink">
    <title>8EF9636F-1D63-46D4-9DA3-B28030BB16A4</title>
    <g id="Page-1" stroke="none" stroke-width="1" fill="none" fill-rule="evenodd">
        <g id="0525_Release-_Image-Resource" transform="translate(-603.000000, -799.000000)" fill="#FFFFFF">
            <g id="Group" transform="translate(588.000000, 727.000000)">
                <g id="icon_cover_add" transform="translate(15.000000, 72.000000)">
                    <path d="M19,8 C19.5522847,8 20,8.44771525 20,9 L20,17 L28,17 C28.5522847,17 29,17.4477153 29,18 C29,18.5522847 28.5522847,19 28,19 L20,19 L20,27 C20,27.5522847 19.5522847,28 19,28 C18.4477153,28 18,27.5522847 18,27 L18,19 L10,19 C9.44771525,19 9,18.5522847 9,18 C9,17.4477153 9.44771525,17 10,17 L18,17 L18,9 C18,8.44771525 18.4477153,8 19,8 Z" id="Combined-Shape"></path>
                </g>
            </g>
        </g>
    </g>
</svg>