<svg xmlns="http://www.w3.org/2000/svg" width="30" height="30" viewBox="0 0 30 30">
    <g fill="none" fill-rule="evenodd">
        <g fill="#FFF">
            <g>
                <g>
                    <path d="M1 8c.553 0 1 .448 1 1v5c0 .553-.447 1-1 1-.552 0-1-.447-1-1V9c0-.552.448-1 1-1zm4-8c.553 0 1 .448 1 1v13c0 .553-.447 1-1 1-.552 0-1-.447-1-1V1c0-.552.448-1 1-1zm4 5c.553 0 1 .448 1 1v8c0 .553-.447 1-1 1-.552 0-1-.447-1-1V6c0-.552.448-1 1-1zm4 4c.553 0 1 .448 1 1v4c0 .553-.447 1-1 1-.552 0-1-.447-1-1v-4c0-.552.448-1 1-1z" transform="translate(-1283 -1305) translate(1283 1305) translate(8 6)"/>
                </g>
            </g>
        </g>
    </g>
</svg>
