<?xml version="1.0" encoding="UTF-8"?>
<svg width="69px" height="66px" viewBox="0 0 69 66" version="1.1" xmlns="http://www.w3.org/2000/svg" xmlns:xlink="http://www.w3.org/1999/xlink">
    <title>EA4391E7-A261-4C53-99F4-4C61321AD9A2</title>
    <g id="Page-1" stroke="none" stroke-width="1" fill="none" fill-rule="evenodd">
        <g id="0525_Release-_Image-Resource" transform="translate(-173.000000, -753.000000)" fill="#666666">
            <g id="icon_cover_camera_disable" transform="translate(173.000000, 753.000000)">
                <path d="M53.0915146,48.0461538 C53.0915146,48.7332 52.5275024,49.2923077 51.8344296,49.2923077 L15.8767696,49.2923077 C15.1836968,49.2923077 14.6196846,48.7332 14.6196846,48.0461538 L14.6196846,23.8599692 C14.6196846,23.1729231 15.1836968,22.6138154 15.8767696,22.6138154 L24.0352514,22.6138154 L43.6759478,22.6138154 L51.8344296,22.6138154 C52.5275024,22.6138154 53.0915146,23.1729231 53.0915146,23.8599692 L53.0915146,48.0461538 Z M28.213802,16.8923077 L39.4965591,16.8923077 L41.4534215,20.1215077 L26.2569397,20.1215077 L28.213802,16.8923077 Z M51.8344296,20.1215077 L44.3866198,20.1215077 L41.2858101,15.0048 C41.0586968,14.6292923 40.648887,14.4 40.2080692,14.4 L27.50313,14.4 C27.0614741,14.4 26.6525024,14.6292923 26.4253891,15.0048 L23.3237413,20.1215077 L15.8767696,20.1215077 C13.796713,20.1215077 12.1055146,21.798 12.1055146,23.8599692 L12.1055146,48.0461538 C12.1055146,50.1072923 13.796713,51.7846154 15.8767696,51.7846154 L51.8344296,51.7846154 C53.9136482,51.7846154 55.6056846,50.1072923 55.6056846,48.0461538 L55.6056846,23.8599692 C55.6056846,21.798 53.9136482,20.1215077 51.8344296,20.1215077 L51.8344296,20.1215077 Z" id="Fill-1"></path>
                <path d="M33.855432,40.4361415 C31.3622134,40.4361415 29.3341162,38.4248492 29.3341162,35.9533108 C29.3341162,33.4809415 31.3622134,31.47048 33.855432,31.47048 C36.3494887,31.47048 38.3775858,33.4809415 38.3775858,35.9533108 C38.3775858,38.4248492 36.3494887,40.4361415 33.855432,40.4361415 M33.855432,28.9781723 C29.9760676,28.9781723 26.8199462,32.1068492 26.8199462,35.9533108 C26.8199462,39.7989415 29.9760676,42.9284492 33.855432,42.9284492 C37.7356344,42.9284492 40.8917559,39.7989415 40.8917559,35.9533108 C40.8917559,32.1068492 37.7356344,28.9781723 33.855432,28.9781723" id="Fill-4"></path>
            </g>
        </g>
    </g>
</svg>