<?xml version="1.0" encoding="UTF-8"?>
<svg width="30px" height="30px" viewBox="0 0 30 30" version="1.1" xmlns="http://www.w3.org/2000/svg" xmlns:xlink="http://www.w3.org/1999/xlink">
    <title>B336B3FE-4CF5-479C-9075-12614D75BA5B</title>
    <g id="Page-1" stroke="none" stroke-width="1" fill="none" fill-rule="evenodd">
        <g id="GUIDE_PRISMSticker_202105" transform="translate(-1445.000000, -4625.000000)" fill="#FFFFFF">
            <g id="icon-source-plugin-normal" transform="translate(1445.000000, 4625.000000)">
                <g id="icon_path" transform="translate(8.000000, 6.000000)">
                    <path d="M7,0 C8.1045695,-2.02906125e-16 9,0.8954305 9,2 L9,3 L12,3 C13.1045695,3 14,3.8954305 14,5 L14,8 L15,8 C16.1045695,8 17,8.8954305 17,10 C17,11.1045695 16.1045695,12 15,12 L14,12 L14,15 C14,16.1045695 13.1045695,17 12,17 L9,17 L9,16 C9,14.9456382 8.18412221,14.0818349 7.14926234,14.0054857 L7,14 C5.8954305,14 5,14.8954305 5,16 L5,16 L5,17 L2,17 C0.8954305,17 8.94280938e-16,16.1045695 0,15 L0,12 L1,12 C2.0543618,12 2.91816512,11.1841222 2.99451426,10.1492623 L3,10 C3,8.8954305 2.1045695,8 1,8 L1,8 L0,8 L0,5 C-3.57315355e-16,3.8954305 0.8954305,3 2,3 L5,3 L5,2 C5,0.8954305 5.8954305,2.02906125e-16 7,0 Z" id="Combined-Shape"></path>
                </g>
            </g>
        </g>
    </g>
</svg>