<?xml version="1.0" encoding="UTF-8"?>
<svg width="69px" height="66px" viewBox="0 0 69 66" version="1.1" xmlns="http://www.w3.org/2000/svg" xmlns:xlink="http://www.w3.org/1999/xlink">
    <title>8FD06A9D-D8C3-4B2B-87FF-118AE94C06C0</title>
    <defs>
        <polygon id="path-1" points="0.000251417004 0 43.50017 0 43.50017 37.3846154 0.000251417004 37.3846154"></polygon>
    </defs>
    <g id="Page-1" stroke="none" stroke-width="1" fill="none" fill-rule="evenodd">
        <g id="0525_Release-_Image-Resource" transform="translate(-417.000000, -753.000000)">
            <g id="icon_cover_camera" transform="translate(417.000000, 753.000000)">
                <g id="Group-6" transform="translate(12.105263, 14.400000)">
                    <g id="Group-3">
                        <mask id="mask-2" fill="white">
                            <use xlink:href="#path-1"></use>
                        </mask>
                        <g id="Clip-2"></g>
                        <path d="M40.9862514,33.6461538 C40.9862514,34.3332 40.4222393,34.8923077 39.7291664,34.8923077 L3.77150648,34.8923077 C3.0784336,34.8923077 2.51442146,34.3332 2.51442146,33.6461538 L2.51442146,9.45996923 C2.51442146,8.77292308 3.0784336,8.21381538 3.77150648,8.21381538 L11.9299883,8.21381538 L31.5706846,8.21381538 L39.7291664,8.21381538 C40.4222393,8.21381538 40.9862514,8.77292308 40.9862514,9.45996923 L40.9862514,33.6461538 Z M16.1085389,2.49230769 L27.391296,2.49230769 L29.3481583,5.72150769 L14.1516765,5.72150769 L16.1085389,2.49230769 Z M39.7291664,5.72150769 L32.2813567,5.72150769 L29.180547,0.6048 C28.9534336,0.229292308 28.5436239,0 28.1028061,0 L15.3978668,0 C14.9562109,0 14.5472393,0.229292308 14.3201259,0.6048 L11.2184781,5.72150769 L3.77150648,5.72150769 C1.6914498,5.72150769 0.000251417004,7.398 0.000251417004,9.45996923 L0.000251417004,33.6461538 C0.000251417004,35.7072923 1.6914498,37.3846154 3.77150648,37.3846154 L39.7291664,37.3846154 C41.808385,37.3846154 43.5004215,35.7072923 43.5004215,33.6461538 L43.5004215,9.45996923 C43.5004215,7.398 41.808385,5.72150769 39.7291664,5.72150769 L39.7291664,5.72150769 Z" id="Fill-1" fill="#FFFFFF" mask="url(#mask-2)"></path>
                    </g>
                    <path d="M21.7501688,26.0361415 C19.2569502,26.0361415 17.228853,24.0248492 17.228853,21.5533108 C17.228853,19.0809415 19.2569502,17.07048 21.7501688,17.07048 C24.2442255,17.07048 26.2723227,19.0809415 26.2723227,21.5533108 C26.2723227,24.0248492 24.2442255,26.0361415 21.7501688,26.0361415 M21.7501688,14.5781723 C17.8708045,14.5781723 14.714683,17.7068492 14.714683,21.5533108 C14.714683,25.3989415 17.8708045,28.5284492 21.7501688,28.5284492 C25.6303713,28.5284492 28.7864927,25.3989415 28.7864927,21.5533108 C28.7864927,17.7068492 25.6303713,14.5781723 21.7501688,14.5781723" id="Fill-4" fill="#FFFFFF"></path>
                </g>
            </g>
        </g>
    </g>
</svg>