<svg xmlns="http://www.w3.org/2000/svg" xmlns:xlink="http://www.w3.org/1999/xlink" width="34" height="34" viewBox="0 0 34 34">
    <defs>
        <circle id="prefix__a" cx="17" cy="17" r="17"/>
        <path id="prefix__c" d="M0 0.115L0 19.33 20.369 19.33 20.369 0.115 0 0.115z"/>
    </defs>
    <g fill="none" fill-rule="evenodd">
        <mask id="prefix__b" fill="#fff">
            <use xlink:href="#prefix__a"/>
        </mask>
        <use fill="#52BD1E" xlink:href="#prefix__a"/>
        <g mask="url(#prefix__b)">
            <g>
                <g transform="translate(6.5 8.25) translate(0 .079)">
                    <mask id="prefix__d" fill="#fff">
                        <use xlink:href="#prefix__c"/>
                    </mask>
                    <path fill="#FFF" d="M20.369 8.298c0-4.512-4.569-8.183-10.185-8.183C4.57.115 0 3.785 0 8.298c0 4.045 3.623 7.432 8.517 8.073.332.07.784.217.898.497.102.255.067.655.033.912l-.146.863c-.044.255-.204.997.882.544 1.087-.454 5.866-3.42 8.002-5.855 1.476-1.602 2.183-3.228 2.183-5.034" mask="url(#prefix__d)"/>
                </g>
                <path fill="#56BB42" d="M8.115 6.196h-.714c-.11 0-.199.088-.199.196v4.394c0 .108.09.196.199.196h.714c.11 0 .199-.088.199-.196V6.392c0-.108-.09-.196-.199-.196M13.032 6.196h-.714c-.11 0-.199.088-.199.196v2.61l-2.033-2.719-.016-.02v-.001l-.013-.012-.004-.003-.01-.01c-.002 0-.003-.002-.005-.003l-.01-.007-.007-.004-.01-.006-.006-.003-.012-.004-.006-.003-.012-.003-.007-.002-.011-.003h-.009c-.003-.002-.007-.002-.01-.002h-.01l-.007-.001h-.714c-.11 0-.199.088-.199.196v4.394c0 .108.089.196.199.196h.714c.11 0 .198-.088.198-.196v-2.61l2.036 2.723c.014.02.032.036.05.048l.003.002.012.007.006.003.01.005.009.004.006.002.013.004.003.001c.016.004.033.007.05.007h.715c.11 0 .199-.088.199-.196V6.392c0-.108-.09-.196-.199-.196M6.393 9.882h-1.94v-3.49c0-.108-.09-.196-.2-.196H3.54c-.11 0-.198.088-.198.196v4.393c0 .053.021.101.055.136l.003.003.003.003c.036.034.084.055.137.055h2.854c.11 0 .198-.088.198-.197v-.707c0-.109-.088-.196-.198-.196M16.977 7.296c.11 0 .198-.088.198-.196v-.708c0-.108-.088-.196-.198-.196h-2.854c-.053 0-.102.021-.137.055l-.003.002c0 .002-.002.003-.003.004-.034.035-.055.083-.055.135v4.393c0 .053.021.101.056.136l.002.003.003.003c.036.034.084.055.137.055h2.854c.11 0 .198-.088.198-.197v-.707c0-.108-.088-.196-.198-.196h-1.94v-.743h1.94c.11 0 .198-.088.198-.197v-.707c0-.108-.088-.196-.198-.196h-1.94v-.743h1.94z" transform="translate(6.5 8.25)"/>
            </g>
        </g>
    </g>
</svg>
