<svg xmlns="http://www.w3.org/2000/svg" width="34" height="34" viewBox="0 0 34 34">
    <defs>
        <linearGradient id="xuw6i84wja" x1="50.019%" x2="50.019%" y1=".448%" y2="48.016%">
            <stop offset="0%" stop-color="#2032AC"/>
            <stop offset="5.473%" stop-color="#1F31A4"/>
            <stop offset="26.01%" stop-color="#1D2D8C"/>
            <stop offset="47.66%" stop-color="#1C2B7B"/>
            <stop offset="70.98%" stop-color="#1B2970"/>
            <stop offset="98.96%" stop-color="#1B296D"/>
        </linearGradient>
        <linearGradient id="cxks94pxob" x1="49.97%" x2="49.97%" y1="-.747%" y2="100.605%">
            <stop offset="0%" stop-color="#FFF"/>
            <stop offset="25.84%" stop-color="#ECF1F3"/>
            <stop offset="73.17%" stop-color="#CEDCE0"/>
            <stop offset="100%" stop-color="#C3D4D9"/>
        </linearGradient>
        <linearGradient id="vzmetdc0kc" x1="50.025%" x2="50.025%" y1="12.368%" y2="218.415%">
            <stop offset="11.46%" stop-color="#00DBB4"/>
            <stop offset="27.66%" stop-color="#06C2B4"/>
            <stop offset="77.09%" stop-color="#1978B6"/>
            <stop offset="100%" stop-color="#205BB6"/>
        </linearGradient>
        <linearGradient id="1jqbsyfjnd" x1="50.294%" x2="50.294%" y1="-206.548%" y2="388.897%">
            <stop offset="0%" stop-color="#21CCB4"/>
            <stop offset="12.91%" stop-color="#205DB6"/>
            <stop offset="19.03%" stop-color="#1F2DB7"/>
            <stop offset="23.86%" stop-color="#1E2CAA"/>
            <stop offset="37.01%" stop-color="#1C298A"/>
            <stop offset="50.76%" stop-color="#1A2672"/>
            <stop offset="65.18%" stop-color="#192461"/>
            <stop offset="80.71%" stop-color="#182356"/>
            <stop offset="99.33%" stop-color="#182353"/>
        </linearGradient>
    </defs>
    <g fill="none" fill-rule="evenodd">
        <g>
            <g>
                <g>
                    <path fill="#FFF" d="M17 34c9.389 0 17-7.611 17-17S26.389 0 17 0 0 7.611 0 17s7.611 17 17 17z" transform="translate(-594 -162) translate(594 162)"/>
                    <g fill-rule="nonzero" transform="translate(-594 -162) translate(594 162) translate(6.5 6)">
                        <path fill="url(#xuw6i84wja)" d="M9.747 12.14c-8.428 0-9.021-5.735-7.954-7.368C3.656 1.92 6.873.035 10.528.035c3.53 0 6.649 1.758 8.532 4.437 1.193 1.695-2.267 7.668-9.313 7.668z"/>
                        <g fill="#FFF" transform="translate(4.395 1.814)">
                            <path d="M6.642.042c-.133 0-.237.105-.237.237 0 .133.104.237.237.237.132 0 .237-.104.237-.237 0-.132-.105-.237-.237-.237z"/>
                            <circle cx="5.763" cy="3.195" r="1"/>
                            <path d="M2.051 4.59c-.118 0-.216.098-.216.217s.098.216.216.216c.119 0 .216-.097.216-.216.007-.119-.09-.216-.216-.216zM.174 3.495c-.062 0-.118.05-.118.119 0 .063.049.119.118.119.063 0 .119-.05.119-.119-.007-.063-.056-.119-.119-.119zM9.307.97c-.056 0-.105.049-.105.104 0 .056.05.105.105.105.056 0 .105-.049.105-.105 0-.055-.05-.104-.105-.104zM2.819 3.049c-.05 0-.084.035-.084.084 0 .048.035.083.084.083.048 0 .083-.035.083-.083 0-.05-.042-.084-.083-.084zM3.419 1.926c-.091 0-.168.076-.168.167 0 .09.077.167.168.167.09 0 .167-.076.167-.167 0-.098-.077-.167-.167-.167z"/>
                        </g>
                        <path fill="url(#cxks94pxob)" d="M19.067 4.416h-.097c-.084.014-1.926.265-3.572 1.724-1.43 1.262-2.4 3.823-2.917 5.19l-.153.405c-.468 1.228-1.102 2.91-2.107 3.949-1.681 1.744-4.054 3.167-5.198 3.62l.056.12h-.007c.454.278.928.523 1.416.725 1.242.523 2.617.816 4.047.816C16.312 20.965 21 16.27 21 10.48c-.007-2.253-.719-4.353-1.933-6.063z"/>
                        <path fill="url(#vzmetdc0kc)" d="M18.774 4.388c-.16-.014-.32-.02-.481-.028-.126-.007-.251-.007-.384-.007-.418 0-.837.028-1.242.084-.9.119-1.772.363-2.574.705-.544.23-1.326.69-1.723.963-.768.523-1.703 1.242-2.512 1.897-1.151.935-2.47 1.877-3.865 1.933-2.302.09-4.214-1.814-4.214-4.123 0-.377.049-.747.147-1.096.027-.118.07-.23.104-.342l.007-.014C.795 6.084.063 8.198.063 10.486c0 3.09 1.332 5.867 3.46 7.786-.97.97-2.149 1.723-3.46 2.205.879.32 1.967.488 2.958.488 1.22 0 2.4-.314 3.453-.816 1.089-.516 2.038-1.235 2.75-2.023.948-1.047 1.883-3.084 2.539-4.689.293-.649.537-1.304.746-1.856.489-1.27 1.48-4.04 2.965-5.35 1.64-1.452 3.566-1.815 3.58-1.822h.006l-.286-.02z"/>
                        <circle cx="10.528" cy="10.479" r="1" fill="url(#1jqbsyfjnd)"/>
                    </g>
                </g>
            </g>
        </g>
    </g>
</svg>
