<svg xmlns="http://www.w3.org/2000/svg" xmlns:xlink="http://www.w3.org/1999/xlink" width="34" height="34" viewBox="0 0 34 34">
    <defs>
        <circle id="prefix__a" cx="17" cy="17" r="17"/>
    </defs>
    <g fill="none" fill-rule="evenodd">
        <mask id="prefix__b" fill="#fff">
            <use xlink:href="#prefix__a"/>
        </mask>
        <use fill="#BF3529" xlink:href="#prefix__a"/>
        <g fill="#FFF" mask="url(#prefix__b)">
            <path d="M16.728 8.562c2.017-.093 3.913.785 5.458 2.02-.659.75-1.342 1.472-2.072 2.148-1.857-1.285-4.498-1.652-6.355-.168-2.657 1.84-2.778 6.183-.223 8.163 2.486 2.257 7.183 1.136 7.87-2.32-1.557-.024-3.117 0-4.674-.05-.004-.93-.008-1.86-.004-2.79 2.602-.008 5.205-.011 7.811.008.156 2.187-.133 4.515-1.475 6.324-2.033 2.863-6.114 3.698-9.297 2.472-3.196-1.219-5.459-4.597-5.19-8.042.07-4.214 3.941-7.905 8.151-7.765z"/>
        </g>
    </g>
</svg>
