<svg xmlns="http://www.w3.org/2000/svg" xmlns:xlink="http://www.w3.org/1999/xlink" width="34" height="34" viewBox="0 0 34 34">
    <defs>
        <path id="prefix__a" d="M17 34c9.389 0 17-7.611 17-17S26.389 0 17 0 0 7.611 0 17s7.611 17 17 17z"/>
        <path id="prefix__b" d="M17 34c9.389 0 17-7.611 17-17S26.389 0 17 0 0 7.611 0 17s7.611 17 17 17z"/>
    </defs>
    <g fill="none" fill-rule="evenodd">
        <use fill="#9148FF" xlink:href="#prefix__a"/>
        <mask id="prefix__c" fill="#fff">
            <use xlink:href="#prefix__b"/>
        </mask>
        <use fill="#9148FF" xlink:href="#prefix__b"/>
        <g mask="url(#prefix__c)">
            <g>
                <path fill="#FFF" d="M17.417 10.292L14.25 13.458 11.083 13.458 8.313 16.229 8.313 13.458 4.75 13.458 4.75 1.583 17.417 1.583z" transform="translate(8 7)"/>
                <path fill="#000" d="M3.958 0L0 3.958v14.25h4.75v3.959l3.958-3.959h3.167L19 11.083V0H3.958zm.792 1.583h12.667v8.709l-3.167 3.166h-3.167l-2.77 2.771v-2.77H4.75V1.582z" transform="translate(8 7)"/>
                <path fill="#000" d="M13.458 9.104L15.042 9.104 15.042 4.354 13.458 4.354zM9.104 9.104L10.688 9.104 10.688 4.354 9.104 4.354z" transform="translate(8 7)"/>
            </g>
        </g>
    </g>
</svg>
