<svg xmlns="http://www.w3.org/2000/svg" xmlns:xlink="http://www.w3.org/1999/xlink" width="34" height="34" viewBox="0 0 34 34">
    <defs>
        <circle id="prefix__a" cx="17" cy="17" r="17"/>
    </defs>
    <g fill="none" fill-rule="evenodd">
        <mask id="prefix__b" fill="#fff">
            <use xlink:href="#prefix__a"/>
        </mask>
        <use fill="#26B5CE" xlink:href="#prefix__a"/>
        <g mask="url(#prefix__b)">
            <path fill="#FFF" d="M13.702 24.778c6.709 0 10.378-5.558 10.378-10.378 0-.158-.003-.315-.01-.471.711-.515 1.33-1.158 1.819-1.889-.654.29-1.357.486-2.095.574.753-.451 1.331-1.166 1.604-2.017-.705.417-1.485.721-2.316.885-.665-.709-1.613-1.152-2.662-1.152-2.015 0-3.648 1.633-3.648 3.647 0 .286.032.564.094.831-3.03-.152-5.719-1.603-7.518-3.81-.313.538-.494 1.165-.494 1.833 0 1.265.644 2.382 1.624 3.036-.599-.019-1.16-.183-1.652-.456l-.001.046c0 1.767 1.257 3.241 2.926 3.576-.306.083-.629.128-.961.128-.235 0-.464-.023-.686-.066.464 1.45 1.81 2.504 3.407 2.534-1.248.978-2.82 1.561-4.53 1.561-.294 0-.584-.017-.87-.05 1.614 1.034 3.53 1.638 5.591 1.638"/>
        </g>
    </g>
</svg>
