<?xml version="1.0" encoding="UTF-8"?>
<svg width="24px" height="24px" viewBox="0 0 24 24" version="1.1" xmlns="http://www.w3.org/2000/svg" xmlns:xlink="http://www.w3.org/1999/xlink">
    <title>E0569FD1-F371-4916-81B0-F377F0DF8169</title>
    <g id="Page-1" stroke="none" stroke-width="1" fill="none" fill-rule="evenodd">
        <g id="0525_Release-_Image-Resource" transform="translate(-148.000000, -469.000000)" fill="#FFFFFF">
            <g id="loading_2" transform="translate(148.000000, 469.000000)">
                <g id="Page-1">
                    <g>
                        <path d="M13.179854,21.9093617 C13.179854,22.400383 12.7718339,22.7996596 12.2684014,22.7996596 L11.5818154,22.7996596 C11.0783829,22.7996596 10.6708423,22.400383 10.6708423,21.9093617 L10.6708423,18.5442979 C10.6708423,18.0523404 11.0783829,17.6535319 11.5818154,17.6535319 L12.2684014,17.6535319 C12.7718339,17.6535319 13.179854,18.0523404 13.179854,18.5442979 L13.179854,21.9093617 Z" id="Fill-1" opacity="0.800000012"></path>
                        <path d="M13.179854,5.72293191 C13.179854,6.21488936 12.7718339,6.61322979 12.2684014,6.61322979 L11.5818154,6.61322979 C11.0783829,6.61322979 10.6708423,6.21488936 10.6708423,5.72293191 L10.6708423,2.35786809 C10.6708423,1.86684681 11.0783829,1.4680383 11.5818154,1.4680383 L12.2684014,1.4680383 C12.7718339,1.4680383 13.179854,1.86684681 13.179854,2.35786809 L13.179854,5.72293191 Z" id="Fill-3"></path>
                        <path d="M1.91164433,13.3585702 C1.40821183,13.3585702 1.00019178,12.9597617 1.00019178,12.4692085 L1.00019178,11.7979745 C1.00019178,11.3069532 1.40821183,10.9086128 1.91164433,10.9086128 L5.35895827,10.9086128 C5.86239076,10.9086128 6.27089027,11.3069532 6.27089027,11.7979745 L6.27089027,12.4692085 C6.27089027,12.9597617 5.86239076,13.3585702 5.35895827,13.3585702 L1.91164433,13.3585702 Z" id="Fill-6"></path>
                        <path d="M18.490923,13.3585702 C17.9874905,13.3585702 17.5799499,12.9597617 17.5799499,12.4692085 L17.5799499,11.7979745 C17.5799499,11.3069532 17.9874905,10.9086128 18.490923,10.9086128 L21.9382369,10.9086128 C22.4416694,10.9086128 22.8501689,11.3069532 22.8501689,11.7979745 L22.8501689,12.4692085 C22.8501689,12.9597617 22.4416694,13.3585702 21.9382369,13.3585702 L18.490923,13.3585702 Z" id="Fill-8" opacity="0.400000006"></path>
                        <path d="M5.73183393,19.9126511 C5.37607497,20.2599702 4.79880571,20.2599702 4.44304675,19.9126511 L3.95735426,19.4389489 C3.60159529,19.0906936 3.60159529,18.5275872 3.95735426,18.1802681 L6.39540591,15.8005234 C6.75068541,15.4522681 7.32843413,15.4522681 7.68419309,15.8005234 L8.16988558,16.2742255 C8.52564455,16.6215447 8.52564455,17.1846511 8.16988558,17.5329064 L5.73183393,19.9126511 Z" id="Fill-11"></path>
                        <path d="M17.4551945,8.46651915 C17.0994355,8.81477447 16.5226457,8.81477447 16.1664073,8.46651915 L15.6811943,7.99375319 C15.3249559,7.64549787 15.3249559,7.08239149 15.6811943,6.73413617 L18.118287,4.35532766 C18.474046,4.00800851 19.0513152,4.00800851 19.4075537,4.35532766 L19.8932462,4.82809362 C20.2490051,5.17634894 20.2490051,5.73945532 19.8932462,6.08771064 L17.4551945,8.46651915 Z" id="Fill-13" opacity="0.100000001"></path>
                        <path d="M3.95730631,6.08771064 C3.60106789,5.73945532 3.60106789,5.17634894 3.95730631,4.8285617 L4.4429988,4.35439149 C4.79875776,4.00800851 5.37602702,4.00800851 5.73178599,4.35439149 L8.16983764,6.73413617 C8.5255966,7.08239149 8.5255966,7.64549787 8.16983764,7.99281702 L7.68414515,8.46651915 C7.32790672,8.81477447 6.75063746,8.81477447 6.3948785,8.46651915 L3.95730631,6.08771064 Z" id="Fill-15"></path>
                        <path d="M15.6806189,17.5329532 C15.32486,17.1846979 15.32486,16.6215915 15.6806189,16.2742723 L16.1663114,15.8005702 C16.5225499,15.4523149 17.0993397,15.4523149 17.4550986,15.8005702 L19.8931503,18.1793787 C20.2489092,18.527634 20.2489092,19.0907404 19.8931503,19.4389957 L19.4074578,19.9126979 C19.0512194,20.260017 18.4739501,20.260017 18.1181911,19.9126979 L15.6806189,17.5329532 Z" id="Fill-17" opacity="0.600000024"></path>
                    </g>
                </g>
            </g>
        </g>
    </g>
</svg>