<svg xmlns="http://www.w3.org/2000/svg" width="36" height="36" viewBox="0 0 36 36">
    <g fill="none" fill-rule="evenodd">
        <g>
            <g>
                <g>
                    <g fill="#FFF">
                        <path d="M14.769.426C15.548 1.692 16 3.191 16 4.8 16 9.329 12.417 13 7.999 13c-.76 0-1.496-.111-2.193-.315l-.002.002c-.022-.007-.042-.015-.064-.021-.103-.031-.204-.064-.305-.1l-.07-.022h.002c.596-.33 1.142-.74 1.61-1.208.094-.095.187-.192.275-.291.613-.693 1.271-1.93 2.011-3.78.203-.462.373-.917.522-1.319L9.84 5.8l.06-.164c.384-1.034 1.097-2.958 2.098-3.864C13.081.79 14.363.482 14.53.446l.24-.02zM13.643 0c.101 0 .201.003.302.007.126.005.252.013.378.025l.148.014c-.032.007-1.49.298-2.733 1.423-1.133 1.025-1.894 3.19-2.266 4.186-.16.432-.345.94-.57 1.45-.501 1.255-1.215 2.848-1.94 3.669-.547.616-1.273 1.178-2.103 1.582-.806.393-1.71.636-2.642.636-.314 0-.64-.023-.962-.069-.316-.045-.627-.111-.92-.197-.121-.036-.137-.208-.023-.266.353-.182.953-.509 1.523-.911 0 0 .835-.598.251-1.232C.767 8.882 0 6.924 0 4.797 0 3.066.525 1.46 1.418.138c-.016.05-.032.102-.041.138-.072.273-.11.56-.11.857.002 1.58 1.12 2.915 2.578 3.178.046.009.092.015.138.022.035.005.07.01.106.013.146.017.294.026.445.02 1.063-.043 2.07-.784 2.953-1.514.617-.51 1.335-1.074 1.92-1.483.303-.211.903-.571 1.319-.754.613-.27 1.276-.458 1.967-.55.31-.043.628-.065.95-.065zM7.944 4.366c-.242 0-.438.29-.438.647 0 .357.196.647.438.647s.438-.29.438-.647c0-.357-.196-.647-.438-.647z" transform="translate(-853.000000, -807.000000) translate(850.000000, 804.000000) translate(3.000000, 3.000000) translate(10.000000, 11.000000)"/>
                    </g>
                </g>
            </g>
        </g>
    </g>
</svg>
