<svg xmlns="http://www.w3.org/2000/svg" width="36" height="36" viewBox="0 0 36 36">
    <g fill="none" fill-rule="evenodd">
        <g>
            <g>
                <g fill="#FFF">
                    <path d="M8.007.032c2.692 0 5.076 1.343 6.515 3.4l.023.041.01.013c-3.904 1.423-4.476 3.116-5.82 7.104-1.053 3.132-2.926 4.369-3.765 4.787-.003 0-.003-.004-.006-.004s-.003.004-.006.004c-.135.064-.277.125-.418.18-.003.003-.007.003-.007.003-.69.276-1.442.443-2.216.446h-.055c-.084 0-.167-.003-.254-.006H1.98c-.087-.003-.173-.01-.26-.016-.01-.003-.016-.003-.026-.003-.086-.007-.176-.016-.263-.026l-.023-.003c-.09-.01-.18-.023-.266-.036-.007 0-.013-.003-.02-.003l-.266-.048-.013-.003c-.09-.016-.177-.036-.264-.058-.003 0-.006-.003-.01-.003-.09-.023-.176-.045-.26-.07l-.041-.01c-.1-.026-.09-.116-.016-.148.302-.122.594-.264.874-.421.17-.1.337-.203.5-.312.11-.074.216-.15.319-.228.064-.048.128-.1.193-.151.19-.154.37-.318.543-.488C1.047 12.537.013 10.45 0 8.125-.003 7.37.1 6.641.296 5.95c.09-.321.199-.633.327-.935C1.806 2.095 4.668.032 8.007.032zm6.84 3.926c.012.02.022.042.035.061.035.052.067.11.096.164.007.01.013.023.02.032l.025.048c.653 1.212 1.045 2.619.967 4.12-.215 4.147-3.62 7.482-7.775 7.591-.874.023-1.783-.128-2.573-.366 1.038-.63 2.686-1.98 3.646-4.832 1.37-4.061 1.806-5.481 5.559-6.818zm-6.953 3.66c-.296.003-.536.263-.533.584.003.322.244.582.54.579.298 0 .536-.264.533-.585-.003-.321-.244-.582-.54-.578zM8.007.59c-2.43 0-4.588 1.176-5.931 2.982-.103.138-.2.28-.29.42-.23.428-.465 1.154-.118 2.034l.025.048c.013.023.023.042.036.062l.041.07.039.058.045.068.042.057.048.065c.013.019.026.035.042.054.016.023.035.045.051.064.013.017.029.036.045.052.02.022.035.042.055.06.016.02.032.036.048.052l.058.058.051.048c.02.02.042.036.061.055.016.016.032.029.052.045.019.016.038.035.06.051.017.016.036.032.055.045l.064.049c.02.016.039.028.058.041l.068.045.058.039c.025.013.048.029.07.042.02.012.042.022.061.035l.071.039.064.032.074.035.064.029c.023.013.049.022.074.032.023.01.045.016.068.026l.077.029c.022.006.045.016.067.022l.077.023c.026.006.049.012.071.019l.08.02c.023.006.049.009.071.015l.08.016c.023.004.045.01.071.013.029.007.055.01.084.013l.074.01c.025.003.054.003.083.006.026.003.048.006.074.006.029.004.058.004.087.004.025.003.048.003.074.003h.082l.069-.003C5.6 7.63 6.602 6.91 7.483 6.204c.308-.247.642-.508.97-.755.244-.186.492-.366.72-.527.077-.051.15-.106.225-.154.302-.206.9-.556 1.314-.733.154-.067.311-.128.469-.183.475-.167.98-.289 1.497-.36.382-.054.765-.077 1.147-.07C12.469 1.7 10.365.592 8.007.592zM4.045 4.643c.16 0 .29.131.29.289 0 .16-.133.289-.29.289-.157 0-.286-.129-.29-.29 0-.16.133-.288.29-.288zm2.574.106c.118 0 .215.096.215.215s-.097.215-.215.215c-.12 0-.216-.096-.216-.215s.097-.215.216-.215zm2.088-2.886c.2 0 .36.161.36.36 0 .2-.16.36-.36.36-.2 0-.36-.16-.36-.36 0-.199.16-.36.36-.36z" transform="translate(-1423 -1154) translate(1423 1154) translate(10 10)"/>
                </g>
            </g>
        </g>
    </g>
</svg>
