<svg xmlns="http://www.w3.org/2000/svg" xmlns:xlink="http://www.w3.org/1999/xlink" width="36" height="36" viewBox="0 0 36 36">
    <defs>
        <path id="prefix__a" d="M0 0.101L0 16.973 17.885 16.973 17.885 0.101 0 0.101z"/>
    </defs>
    <g fill="none" fill-rule="evenodd">
        <g transform="translate(9 9) translate(0 .07)">
            <mask id="prefix__b" fill="#fff">
                <use xlink:href="#prefix__a"/>
            </mask>
            <path fill="#FFF" d="M17.885 7.286C17.885 3.324 13.874.1 8.942.1 4.012.1 0 3.324 0 7.286c0 3.552 3.181 6.526 7.479 7.089.291.062.687.19.788.436.09.224.059.575.028.8l-.127.759c-.039.223-.18.875.774.477.955-.398 5.15-3.002 7.027-5.14 1.295-1.408 1.916-2.836 1.916-4.421" mask="url(#prefix__b)"/>
        </g>
        <path fill="#2F2F2F" d="M7.126 5.44h-.628c-.096 0-.174.078-.174.172V9.47c0 .095.078.173.174.173h.628c.096 0 .174-.078.174-.173V5.612c0-.094-.078-.172-.174-.172M11.443 5.44h-.627c-.097 0-.175.078-.175.172v2.292L8.856 5.517l-.014-.018-.011-.011-.004-.003-.009-.008-.004-.003-.01-.007-.005-.003-.009-.005-.005-.002-.01-.005-.006-.002-.01-.003c-.002 0-.004 0-.006-.002l-.01-.002h-.008l-.009-.002h-.642c-.096 0-.174.077-.174.171V9.47c0 .095.078.173.174.173h.627c.096 0 .174-.078.174-.173V7.18l1.788 2.39c.012.018.028.032.044.043l.002.002.01.006.006.003.008.004.009.003.005.002.012.004h.002c.014.004.03.007.045.007h.627c.096 0 .174-.078.174-.173V5.612c0-.094-.078-.172-.174-.172M5.613 8.676H3.91V5.613c0-.096-.078-.173-.174-.173h-.627c-.096 0-.174.077-.174.173V9.47c0 .047.018.089.048.12l.003.002.002.002c.032.03.074.049.12.049h2.506c.097 0 .174-.078.174-.173v-.621c0-.095-.077-.173-.174-.173M14.907 6.406c.096 0 .174-.077.174-.172v-.621c0-.095-.078-.173-.174-.173H12.4c-.047 0-.09.019-.12.049-.002 0-.002.001-.003.002l-.003.003c-.03.03-.048.073-.048.119V9.47c0 .047.019.089.049.12l.002.002.003.002c.03.03.073.049.12.049h2.506c.096 0 .174-.078.174-.173V8.85c0-.095-.078-.173-.174-.173h-1.704v-.652h1.704c.096 0 .174-.077.174-.172V7.23c0-.095-.078-.173-.174-.173h-1.704v-.652h1.704z" transform="translate(9 9)"/>
    </g>
</svg>
