<svg xmlns="http://www.w3.org/2000/svg" width="15" height="15" viewBox="0 0 15 15">
    <path fill="#BABABA" fill-rule="evenodd" d="M11.069 8.585H5.254c-.377 0-.684-.263-.684-.585 0-.323.307-.586.684-.586h5.815c.377 0 .684.263.684.586 0 .322-.307.585-.684.585m-1.026 2.05H6.28c-.377 0-.684-.264-.684-.586 0-.323.307-.586.684-.586h3.763c.377 0 .684.263.684.586 0 .322-.307.585-.684.585M6.28 5.365h3.763c.377 0 .684.263.684.586 0 .323-.307.585-.684.585H6.28c-.377 0-.684-.262-.684-.585 0-.323.307-.586.684-.586m5.961-1.608C11.107 2.624 9.599 2 7.995 2c-1.604 0-3.112.624-4.246 1.758-1.935 1.934-2.304 4.98-.91 7.316l-.578 2.155c-.04.15.003.308.112.417.11.11.268.152.417.112l2.172-.581C5.88 13.716 6.928 14 8 14c1.602 0 3.108-.623 4.24-1.755C13.375 11.11 14 9.605 14 8c0-1.603-.625-3.11-1.759-4.244"/>
</svg>
