<svg xmlns="http://www.w3.org/2000/svg" width="333" height="11" viewBox="0 0 333 11">
    <g fill="none" fill-rule="evenodd">
        <g>
            <g>
                <path fill="#363636" d="M0 5H113V6H0zM221 5H333V6H221z" transform="translate(-458 -2291) translate(458 2291)"/>
                <path fill="#535353" fill-rule="nonzero" d="M126.496 9.07c.272 0 .535-.03.79-.089.254-.059.491-.15.711-.274.22-.123.413-.271.578-.443.164-.172.294-.379.39-.62.094-.242.141-.502.141-.782 0-.304-.048-.573-.145-.805-.164-.39-.496-.718-.993-.983-.208-.111-.634-.292-1.279-.543l-.005-.005h-.01l-.006-.005h-.005l-.006-.006c-.562-.215-.938-.387-1.128-.515-.343-.226-.514-.514-.51-.865 0-.237.066-.442.199-.615.132-.174.301-.303.507-.387.206-.084.433-.126.68-.126.3 0 .617.064.948.193.331.13.649.319.953.57l.575-.742c-.373-.297-.77-.524-1.193-.682-.422-.157-.848-.234-1.278-.23-.44 0-.843.09-1.208.27-.366.181-.653.43-.862.747-.21.317-.315.667-.315 1.05 0 .186.025.363.073.53.048.166.11.312.183.437s.173.246.3.362c.127.117.25.215.368.296.118.08.266.164.443.25.178.086.333.155.468.21.134.053.3.117.496.192l.011.006h.01l.006.005h.006l.005.006h.01l.006.005h.01l.006.005h.006l.005.006h.01l.006.005h.005l.006.005h.01l.006.006h.01l.006.005h.005l.006.006h.01l.006.005c.54.2.906.369 1.096.505.325.229.488.542.488.94 0 .369-.145.66-.437.873-.292.213-.68.32-1.163.32-.398 0-.79-.09-1.176-.267-.387-.177-.718-.434-.994-.77l-.607.735c.376.405.804.708 1.284.908.48.2.974.3 1.482.3zM132.68 9V1.185h-.961V9h.961zm6.597.06c.598 0 1.162-.089 1.692-.264.53-.176.98-.42 1.348-.736V4.972h-3.223v.88h2.267v1.714c-.54.397-1.235.596-2.084.596-.573 0-1.08-.131-1.523-.395-.442-.263-.782-.626-1.02-1.09-.238-.464-.358-.987-.358-1.571 0-.458.073-.88.218-1.268.145-.386.344-.711.596-.974.253-.264.555-.469.908-.615.353-.147.733-.22 1.141-.22.917 0 1.685.3 2.304.902l.683-.591c-.398-.416-.854-.723-1.37-.924-.516-.2-1.053-.3-1.611-.3-.577 0-1.108.099-1.593.297-.485.2-.893.475-1.224.827-.332.353-.59.776-.774 1.268-.184.492-.277 1.025-.277 1.598 0 .594.099 1.14.296 1.635.197.496.468.914.814 1.252.345.338.757.6 1.235.787.478.186.996.28 1.555.28zM146.07 9V2.84h.022L150.47 9h.972V1.185h-.956V7.41h-.021l-4.404-6.225h-.946V9h.956zm15.294.07c.93 0 1.67-.291 2.215-.873.546-.582.82-1.374.82-2.377V1.185h-.957V5.75c0 .745-.191 1.333-.574 1.762-.383.43-.885.645-1.504.645-.627 0-1.127-.22-1.501-.658-.375-.439-.562-1.022-.562-1.749V1.185h-.956V5.82c0 .509.074.968.22 1.378.147.41.353.751.618 1.023.265.272.583.482.953.629.371.146.78.22 1.228.22zm6.87-.07V6.019h1.612c.415 0 .788-.048 1.12-.145.33-.097.619-.243.864-.438.246-.195.434-.447.567-.757.132-.31.199-.667.199-1.072 0-.354-.05-.675-.15-.964-.101-.288-.252-.542-.455-.762-.202-.22-.471-.392-.808-.513-.337-.122-.727-.183-1.17-.183h-2.735V9h.956zm1.526-3.862h-1.526V2.066h1.676c.53 0 .945.132 1.244.395.299.263.448.638.448 1.125 0 .23-.036.436-.107.62-.072.185-.18.348-.323.49-.143.14-.334.25-.574.327-.24.077-.52.115-.838.115zM181.912 9l1.832-6.402h.021L185.57 9h.924l2.497-7.815h-1.02l-1.929 6.257h-.021l-1.756-6.257h-1.037l-1.767 6.241h-.022l-1.922-6.24h-1.026L180.988 9h.924zm10.47 0V1.185h-.962V9h.961zm5.683 0V2.066h2.363v-.88h-5.656v.88h2.337V9h.956zm5.657 0V5.729h4.087V9h.956V1.185h-.956v3.663h-4.087V1.185h-.956V9h.956z" transform="translate(-458 -2291) translate(458 2291)"/>
            </g>
        </g>
    </g>
</svg>
