<svg xmlns="http://www.w3.org/2000/svg" xmlns:xlink="http://www.w3.org/1999/xlink" width="22" height="22" viewBox="0 0 22 22">
    <defs>
        <path id="prefix__a" d="M0 0.362L7.672 0.362 7.672 10.468 0 10.468z"/>
    </defs>
    <g fill="none" fill-rule="evenodd">
        <g transform="translate(3 3) translate(0 .382)">
            <mask id="prefix__b" fill="#fff">
                <use xlink:href="#prefix__a"/>
            </mask>
            <path fill="#BABABA" d="M2.784 10.468l4.888-5.921V.957c0-.241-.145-.457-.368-.55-.225-.092-.48-.04-.65.13L2.722 4.47H.596c-.33 0-.596.268-.596.596V9.81c0 .328.267.596.596.596h2.126l.062.062z" mask="url(#prefix__b)"/>
        </g>
        <path fill="#BABABA" d="M13.45 2.615l1.166-1.384c.265-.318.223-.792-.096-1.057-.32-.266-.791-.223-1.056.095l-.25.298L1.68 14.274l-.737.877c-.265.318-.222.791.095 1.056.139.116.308.173.476.174.217.002.432-.09.58-.269l2.72-3.232 1.839 1.84c.112.112.262.174.422.174.078 0 .156-.016.228-.045.223-.092.368-.308.368-.55V9.485L10.6 6.002c.464.487.739 1.132.739 1.817 0 .864-.424 1.676-1.135 2.171-.27.188-.336.56-.15.83.114.16.296.254.49.254.123 0 .24-.037.34-.106 1.03-.718 1.646-1.895 1.646-3.149 0-1.039-.427-2.02-1.156-2.736l1.309-1.557c1.17 1.082 1.895 2.612 1.895 4.293 0 2.687-1.815 5.03-4.412 5.7-.32.081-.511.406-.43.724.069.263.307.447.578.447.05 0 .102-.007.149-.019 3.125-.805 5.307-3.622 5.307-6.852 0-2.04-.887-3.899-2.32-5.204M10.04 2.06l.795-.964c-.122-.046-.242-.097-.371-.13-.316-.076-.644.112-.726.43-.04.153-.016.313.065.45.055.096.14.163.237.213" transform="translate(3 3)"/>
    </g>
</svg>
