<svg xmlns="http://www.w3.org/2000/svg" xmlns:xlink="http://www.w3.org/1999/xlink" width="18" height="18" viewBox="0 0 18 18">
    <defs>
        <path id="prefix__a" d="M9 18c4.97 0 9-4.03 9-9s-4.03-9-9-9-9 4.03-9 9 4.03 9 9 9z"/>
    </defs>
    <g fill="none" fill-rule="evenodd">
        <mask id="prefix__b" fill="#fff">
            <use xlink:href="#prefix__a"/>
        </mask>
        <use fill="#1877F2" xlink:href="#prefix__a"/>
        <path fill="#FFF" d="M7 10H11V18H7z" mask="url(#prefix__b)"/>
        <path fill="#FFF" d="M4 8H14V13H4z" mask="url(#prefix__b)"/>
        <path fill="#FFF" d="M6 3H14V9H6z" mask="url(#prefix__b)"/>
        <path fill="#1877F2" d="M18 9c0-4.97-4.03-9-9-9S0 4.03 0 9c0 4.492 3.291 8.215 7.594 8.89v-6.288H5.309V9h2.285V7.017c0-2.255 1.343-3.501 3.4-3.501.984 0 2.014.175 2.014.175v2.215h-1.135c-1.118 0-1.467.694-1.467 1.406V9h2.496l-.399 2.602h-2.097v6.289C14.71 17.215 18 13.492 18 9" mask="url(#prefix__b)"/>
    </g>
</svg>
