<svg xmlns="http://www.w3.org/2000/svg" xmlns:xlink="http://www.w3.org/1999/xlink" width="18" height="18" viewBox="0 0 18 18">
    <defs>
        <path id="prefix__a" d="M9 0c4.97 0 9 4.03 9 9s-4.03 9-9 9-9-4.03-9-9 4.03-9 9-9z"/>
        <path id="prefix__c" d="M3.567.261S1.974.441 1.129.84c-.845.4-.94 1.335-1.052 3.23-.111 1.895.136 3.876.231 4.343.096.468.319 1.13 1.362 1.335 1.045.204 2.274.277 3.277.261 1.003-.015 2.572-.083 3.504-.304.933-.221 1.148-1.114 1.243-1.92.096-.808.297-4.177.002-5.29C9.482 1.687 9.576.686 7.55.346 6.623.19 5.851.14 5.221.14c-.743 0-1.287.07-1.654.121"/>
        <path id="prefix__e" d="M3.567.261S1.974.441 1.129.84c-.845.4-.94 1.335-1.052 3.23-.111 1.895.136 3.876.231 4.343.096.468.319 1.13 1.362 1.335 1.045.204 2.274.277 3.277.261 1.003-.015 2.572-.083 3.504-.304.933-.221 1.148-1.114 1.243-1.92.096-.808.297-4.177.002-5.29C9.482 1.687 9.576.686 7.55.346 6.623.19 5.851.14 5.221.14c-.743 0-1.287.07-1.654.121"/>
        <path id="prefix__g" d="M3.567.261S1.974.441 1.129.84c-.845.4-.94 1.335-1.052 3.23-.111 1.895.136 3.876.231 4.343.096.468.319 1.13 1.362 1.335 1.045.204 2.274.277 3.277.261 1.003-.015 2.572-.083 3.504-.304.933-.221 1.148-1.114 1.243-1.92.096-.808.297-4.177.002-5.29C9.482 1.687 9.576.686 7.55.346 6.623.19 5.851.14 5.221.14c-.743 0-1.287.07-1.654.121"/>
        <path id="prefix__i" d="M3.567.261S1.974.441 1.129.84c-.845.4-.94 1.335-1.052 3.23-.111 1.895.136 3.876.231 4.343.096.468.319 1.13 1.362 1.335 1.045.204 2.274.277 3.277.261 1.003-.015 2.572-.083 3.504-.304.933-.221 1.148-1.114 1.243-1.92.096-.808.297-4.177.002-5.29C9.482 1.687 9.576.686 7.55.346 6.623.19 5.851.14 5.221.14c-.743 0-1.287.07-1.654.121"/>
        <path id="prefix__k" d="M3.567.261S1.974.441 1.129.84c-.845.4-.94 1.335-1.052 3.23-.111 1.895.136 3.876.231 4.343.096.468.319 1.13 1.362 1.335 1.045.204 2.274.277 3.277.261 1.003-.015 2.572-.083 3.504-.304.933-.221 1.148-1.114 1.243-1.92.096-.808.297-4.177.002-5.29C9.482 1.687 9.576.686 7.55.346 6.623.19 5.851.14 5.221.14c-.743 0-1.287.07-1.654.121"/>
        <path id="prefix__m" d="M3.567.261S1.974.441 1.129.84c-.845.4-.94 1.335-1.052 3.23-.111 1.895.136 3.876.231 4.343.096.468.319 1.13 1.362 1.335 1.045.204 2.274.277 3.277.261 1.003-.015 2.572-.083 3.504-.304.933-.221 1.148-1.114 1.243-1.92.096-.808.297-4.177.002-5.29C9.482 1.687 9.576.686 7.55.346 6.623.19 5.851.14 5.221.14c-.743 0-1.287.07-1.654.121"/>
        <path id="prefix__o" d="M3.567.261S1.974.441 1.129.84c-.845.4-.94 1.335-1.052 3.23-.111 1.895.136 3.876.231 4.343.096.468.319 1.13 1.362 1.335 1.045.204 2.274.277 3.277.261 1.003-.015 2.572-.083 3.504-.304.933-.221 1.148-1.114 1.243-1.92.096-.808.297-4.177.002-5.29C9.482 1.687 9.576.686 7.55.346 6.623.19 5.851.14 5.221.14c-.743 0-1.287.07-1.654.121"/>
    </defs>
    <g fill="none" fill-rule="evenodd">
        <mask id="prefix__b" fill="#fff">
            <use xlink:href="#prefix__a"/>
        </mask>
        <use fill="#FFF" xlink:href="#prefix__a"/>
        <g mask="url(#prefix__b)">
            <g>
                <g transform="translate(4 2.5) translate(0 1.724)">
                    <mask id="prefix__d" fill="#fff">
                        <use xlink:href="#prefix__c"/>
                    </mask>
                    <path fill="#264CA0" d="M3.567.261S1.974.44 1.129.84c-.845.4-.94 1.335-1.052 3.23-.111 1.895.136 3.876.231 4.343.096.468.319 1.13 1.362 1.335 1.045.204 2.274.277 3.277.261 1.003-.015 2.572-.083 3.504-.304.933-.221 1.148-1.114 1.243-1.92.096-.808.297-4.177.002-5.29C9.482 1.687 9.576.686 7.55.346 5.527.007 4.244.167 3.567.26" mask="url(#prefix__d)"/>
                </g>
                <g transform="translate(4 2.5) translate(0 1.724)">
                    <mask id="prefix__f" fill="#fff">
                        <use xlink:href="#prefix__e"/>
                    </mask>
                    <path fill="#FEFEFE" d="M7.321 7.127c-1.196 1.187-3.788 1.188-4.95.001-.094-.095-.244-.091-.332.01-.09.098-.086.257.006.353 1.344 1.366 4.22 1.368 5.594.002.097-.094.101-.252.014-.354-.089-.1-.236-.107-.332-.012" mask="url(#prefix__f)"/>
                </g>
                <g transform="translate(4 2.5) translate(0 1.724)">
                    <mask id="prefix__h" fill="#fff">
                        <use xlink:href="#prefix__g"/>
                    </mask>
                    <path fill="#ED368A" d="M2.892 3.279c-.085 1.062-.904 1.748-1.9 1.656C-.004 4.844-.9 3.53-.53 2.551c.316-.838 1.14-1.462 2.137-1.37.996.091 1.371 1.034 1.285 2.098" mask="url(#prefix__h)"/>
                </g>
                <g transform="translate(4 2.5) translate(0 1.724)">
                    <mask id="prefix__j" fill="#fff">
                        <use xlink:href="#prefix__i"/>
                    </mask>
                    <path fill="#1A1919" d="M1.266 2.365c-.374-.034-.706.262-.738.663-.032.4.246.752.621.787.375.035.707-.263.738-.663.033-.4-.246-.752-.621-.787" mask="url(#prefix__j)"/>
                </g>
                <g transform="translate(4 2.5) translate(0 1.724)">
                    <mask id="prefix__l" fill="#fff">
                        <use xlink:href="#prefix__k"/>
                    </mask>
                    <path fill="#43B549" d="M3.203 4.855l.284-2.071s.086-.784 1.034-.72c.96.067 1.166.142 1.166.142s.602.156.61.94c.01 1.124-.03 2.23-.03 2.23s-.01.905-.966.817c-1.007-.093-1.278-.115-1.278-.115s-.972-.08-.82-1.223" mask="url(#prefix__l)"/>
                </g>
                <g transform="translate(4 2.5) translate(0 1.724)">
                    <mask id="prefix__n" fill="#fff">
                        <use xlink:href="#prefix__m"/>
                    </mask>
                    <path fill="#11BAEC" d="M7.485 1.704s.374-.205.879.096c.474.283 1.658 1.174 1.931 1.511.275.339.22.6.22.6s.021.349-.339.596c-.364.25-1.59.927-2.1 1.067-.399.109-.579.11-.788-.038-.201-.143-.29-.44-.282-.769.015-.657.11-2.303.11-2.303s.003-.555.37-.76" mask="url(#prefix__n)"/>
                </g>
                <g transform="translate(4 2.5) translate(0 1.724)">
                    <mask id="prefix__p" fill="#fff">
                        <use xlink:href="#prefix__o"/>
                    </mask>
                    <path fill="#1A1919" d="M8.519 2.953c-.374-.034-.706.263-.738.662-.032.4.246.754.621.787.374.035.706-.262.738-.662.032-.4-.246-.752-.621-.787" mask="url(#prefix__p)"/>
                </g>
                <path fill="#264CA0" d="M3.458.733C3.268.645 3.08.54 3.02.395c-.047-.118.092-.223.332-.26.305-.046.49.07.56.203.073.132.215.25.264.307.05.06.113.118.209.206.096.088.384.326.504.413.119.088.324.23.324.23s.974-.409 1.308-.555c.335-.146.378-.16.63-.283.211-.106.525-.221.667-.28.147-.058.268-.142.386-.22C8.34.07 8.459.04 8.733.07c.333.038.396.213.242.37-.1.102-.305.165-.568.239-.263.073-.632.197-.97.328-.335.133-.488.15-.871.327-.384.176-.911.31-1.116.382-.337.116-.393.11-.666-.075-.415-.283-.73-.483-.898-.6-.167-.118-.428-.307-.428-.307" transform="translate(4 2.5)"/>
            </g>
        </g>
    </g>
</svg>
