<svg xmlns="http://www.w3.org/2000/svg" width="40" height="34" viewBox="0 0 40 34">
    <g fill="none" fill-rule="evenodd">
        <g>
            <g>
                <g>
                    <path fill="#F74B4A" d="M31.498 11.623c-.276-1.032-1.089-1.845-2.122-2.122C27.505 9 20 9 20 9s-7.505 0-9.377.501c-1.032.277-1.845 1.09-2.122 2.122C8 13.495 8 17.4 8 17.4s0 3.905.501 5.777c.277 1.032 1.09 1.845 2.122 2.122C12.495 25.8 20 25.8 20 25.8s7.505 0 9.376-.501c1.033-.277 1.846-1.09 2.122-2.122C32 21.305 32 17.4 32 17.4s0-3.905-.502-5.777z" transform="translate(-1333 -824) translate(1228 816) translate(105 8)"/>
                    <path fill="#FFF" d="M17.6 21L17.6 13.8 23.835 17.4z" transform="translate(-1333 -824) translate(1228 816) translate(105 8)"/>
                </g>
            </g>
        </g>
    </g>
</svg>
