<svg xmlns="http://www.w3.org/2000/svg" width="77" height="32" viewBox="0 0 77 32">
    <defs>
        <linearGradient id="5ulci3h1sa" x1="50%" x2="50%" y1="4.561%" y2="105.472%">
            <stop offset="0%" stop-color="#F4361D"/>
            <stop offset="100%" stop-color="#F61C00"/>
        </linearGradient>
    </defs>
    <g fill="none" fill-rule="evenodd">
        <g>
            <g>
                <g>
                    <g>
                        <g>
                            <g>
                                <path fill="url(#5ulci3h1sa)" d="M57.528.469h-.02l-22.88 1.393c-.321.02-.57.284-.57.605v10.444c0 .32.249.585.57.604l2.794.17v2.876c0 .1.114.157.194.098l3.698-2.737 16.194.985c.341.021.63-.244.643-.583V1.054c-.012-.322-.272-.576-.59-.585h-.033z" transform="translate(-85 -2292) translate(75 2171) translate(0 74) translate(0 39) translate(10 9) translate(8.829 7.894)"/>
                                <path fill="#FFF" d="M0.195 12.372L9.156 12.372 9.156 3.411 0.195 3.411z" transform="translate(-85 -2292) translate(75 2171) translate(0 74) translate(0 39) translate(10 9) translate(8.829 7.894)"/>
                                <path fill="#1E1E1E" d="M6.916 10.132L5.539 10.132 3.878 7.734 3.878 10.132 2.436 10.132 2.436 5.651 3.812 5.651 5.474 8.049 5.474 5.651 6.916 5.651z" transform="translate(-85 -2292) translate(75 2171) translate(0 74) translate(0 39) translate(10 9) translate(8.829 7.894)"/>
                                <path fill="#FFF" d="M18.797 8.305h-1.518c-.07 0-.129.058-.129.13v2.177h-1.546V8.435c0-.072-.058-.13-.13-.13h-1.517c-.07 0-.129.058-.129.13v2.177h-2.75c-.072 0-.13.058-.13.13v1.275c0 .072.058.13.13.13h10.598c.071 0 .13-.058.13-.13v-1.275c0-.072-.059-.13-.13-.13h-2.75V8.435c0-.072-.058-.13-.13-.13" transform="translate(-85 -2292) translate(75 2171) translate(0 74) translate(0 39) translate(10 9) translate(8.829 7.894)"/>
                                <path fill="#FFF" d="M12.66 8.523l3.717-2.877 3.718 2.877c.057.044.14.033.182-.025l.843-1.125c.042-.057.031-.137-.025-.18l-3.413-2.64c-.24-.185-.38-.47-.38-.774V2.524c0-.072-.058-.13-.13-.13h-1.59c-.072 0-.13.058-.13.13v1.255c0 .303-.14.59-.38.775l-3.413 2.639c-.056.043-.067.123-.024.18l.841 1.125c.044.058.127.07.184.025M30.03 2.038v6.027c0 .072.058.13.13.13h1.53c.07 0 .129-.058.129-.13V2.038c0-.072-.058-.13-.13-.13h-1.53c-.07 0-.129.058-.129.13M24.68 6.413h1.671V3.654H24.68v2.76zm4.196 0h-.889v-2.76h.89c.071 0 .129-.057.129-.129V2.3c0-.072-.058-.13-.13-.13H22.11c-.072 0-.13.058-.13.13v1.224c0 .072.058.13.13.13h.926v2.76h-.926c-.072 0-.13.057-.13.129v1.224c0 .072.058.13.13.13h6.767c.072 0 .13-.058.13-.13V6.543c0-.072-.058-.13-.13-.13zM29.62 11.574c0 .803-.685 1.457-1.527 1.457-.842 0-1.526-.654-1.526-1.457s.684-1.457 1.526-1.457 1.526.654 1.526 1.457M28.093 8.5c-1.785 0-3.237 1.38-3.237 3.075 0 1.696 1.452 3.075 3.237 3.075 1.785 0 3.237-1.38 3.237-3.075 0-1.696-1.452-3.075-3.237-3.075M38.828 4.298L37.422 4.298 37.422 10.917 41.341 10.917 41.341 9.523 38.828 9.523zM42.53 10.917L43.936 10.917 43.936 4.298 42.53 4.298zM55.192 5.692L55.192 4.298 51.055 4.298 51.055 10.917 55.192 10.917 55.192 9.523 52.461 9.523 52.461 8.259 54.745 8.259 54.745 6.865 52.461 6.865 52.461 5.692zM48.751 4.298L47.577 9.241 46.403 4.298 44.92 4.298 46.729 10.917 48.425 10.917 50.233 4.298z" transform="translate(-85 -2292) translate(75 2171) translate(0 74) translate(0 39) translate(10 9) translate(8.829 7.894)"/>
                            </g>
                        </g>
                    </g>
                </g>
            </g>
        </g>
    </g>
</svg>
