<svg xmlns="http://www.w3.org/2000/svg" width="40" height="34" viewBox="0 0 40 34">
    <path fill="#54F7FF" fill-rule="evenodd" d="M24.306 14.439c.922.205 1.1 1.016.948 1.53l-1.207 3.974c-.2.656-.865 1.064-1.517.93-.344-.071-.726-.317-.904-.727.747-.45 1.264-1.253 1.298-2.169.02-.527-.152-1.034-.483-1.46l.348-1.15c.174-.57.79-1.09 1.517-.928M13.627 8.405c.724-.147 1.457.293 1.67 1.001l1.437 4.653c.273.797 1.047.775 1.047.775s.768.034 1.048-.775l1.435-4.653c.214-.709.951-1.154 1.67-1 1.083.228 1.217 1.206 1.063 1.667l-1.684 5.61c-.318-.123-.66-.19-1.006-.19h-6.116l-1.627-5.42c-.2-.668.19-1.492 1.063-1.668m-.55 12.497v-3.014c0-.688.604-1.161 1.23-1.161h6c.231 0 1.311.138 1.311 1.285 0 1.149-1.082 1.286-1.356 1.286H16.83c-.36 0-.653.277-.653.617 0 .34.292.617.653.617h.366c.934 0 1.665.72 1.665 1.637v.646c0 .34.292.617.653.617.361 0 .654-.276.654-.617v-.646c0-.613-.19-1.175-.516-1.637h.733c.36.931 1.169 1.395 1.868 1.546 1.087.235 2.078-.278 2.574-.88.268.298.613.488 1 .624-.553 2.658-3.082 4.549-6.329 4.549-4.323 0-6.42-3.21-6.42-5.47m13.377-.187c-.776-.168-1.014-.914-.881-1.319.007-.023.661-2.185.673-2.213.181-.471.683-.892 1.342-.76.842.167 1.005 1.005.86 1.388l-.626 2.059c-.134.442-.653 1-1.368.845m3.932-5.087c-.742-1.172-1.82-1.683-3.286-1.553-.249-.595-.89-1.487-2.175-1.725l.48-1.594c.313-.923.175-2.009-.371-2.906-.556-.91-1.466-1.537-2.566-1.763-2.015-.415-4.045.76-4.622 2.672l-.065.279-.065-.28c-.582-1.921-2.615-3.094-4.628-2.67-1.081.226-1.98.834-2.53 1.713-.551.877-.705 1.97-.413 2.921l1.428 4.756c-.644.65-1.01 1.515-1.01 2.41l.002 3.045v.01c.126 4.448 3.975 7.803 8.952 7.803 2.088 0 4.033-.604 5.627-1.744 1.504-1.078 2.585-2.592 3.061-4.284.903-.389 1.488-1.102 1.83-2.226l.625-2.06c.233-.778.284-1.923-.274-2.804"/>
</svg>
