<svg width="30" height="34" viewBox="0 0 30 34" fill="none" xmlns="http://www.w3.org/2000/svg">
<rect opacity="0.01" width="30" height="34" fill="#D8D8D8"/>
<path fill-rule="evenodd" clip-rule="evenodd" d="M7 24.0393H11.6129V10.2004H7V24.0393Z" fill="url(#paint0_linear_7183_7303)"/>
<!-- <mask id="mask0_7183_7303" style="mask-type:luminance" maskUnits="userSpaceOnUse" x="7" y="14" width="16" height="13">
<path fill-rule="evenodd" clip-rule="evenodd" d="M7 14.132H23V26.3457H7V14.132Z" fill="white"/>
</mask> -->
<g mask="url(#mask0_7183_7303)">
<path fill-rule="evenodd" clip-rule="evenodd" d="M22.6253 15.3263C21.9045 14.1367 20.3843 13.7749 19.2305 14.5181L8.15837 21.6514C7.00452 22.3945 6.65363 23.9618 7.37478 25.1514C8.09558 26.341 9.61575 26.7028 10.7696 25.9593L21.8417 18.8264C22.9956 18.0829 23.3464 16.516 22.6253 15.3263Z" fill="#444444"/>
</g>
<!-- <mask id="mask1_7183_7303" style="mask-type:luminance" maskUnits="userSpaceOnUse" x="7" y="7" width="16" height="13">
<path fill-rule="evenodd" clip-rule="evenodd" d="M7 7H23V19.2138H7V7Z" fill="white"/>
</mask> -->
<g mask="url(#mask1_7183_7303)">
<path fill-rule="evenodd" clip-rule="evenodd" d="M22.6253 18.0194C21.9045 19.2093 20.3843 19.5707 19.2305 18.8276L8.15837 11.6943C7.00452 10.9512 6.65363 9.38389 7.37478 8.19428C8.09558 7.00466 9.61575 6.64289 10.7696 7.3864L21.8417 14.5193C22.9956 15.2628 23.3464 16.8297 22.6253 18.0194Z" fill="#444444"/>
</g>
<defs>
<linearGradient id="paint0_linear_7183_7303" x1="11.3588" y1="22.2769" x2="11.3588" y2="9.96352" gradientUnits="userSpaceOnUse">
<stop stop-color="#444444"/>
<stop offset="1" stop-color="#4C4C4C"/>
</linearGradient>
</defs>
</svg>
