<svg width="30" height="34" viewBox="0 0 30 34" fill="none" xmlns="http://www.w3.org/2000/svg">
<path fill-rule="evenodd" clip-rule="evenodd" d="M25.5611 11.2954C25.3196 10.3919 24.608 9.68038 23.7044 9.43872C22.0669 9 15.4999 9 15.4999 9C15.4999 9 8.9331 9 7.29542 9.43872C6.39188 9.68038 5.68038 10.3919 5.43872 11.2954C5 12.9331 5 16.35 5 16.35C5 16.35 5 19.7668 5.43872 21.4047C5.68038 22.308 6.39188 23.0195 7.29542 23.2612C8.9331 23.7001 15.4999 23.7001 15.4999 23.7001C15.4999 23.7001 22.0669 23.7001 23.7044 23.2612C24.608 23.0195 25.3196 22.308 25.5611 21.4047C26 19.7668 26 16.35 26 16.35C26 16.35 26 12.9331 25.5611 11.2954Z" fill="#F74B4A"/>
<path fill-rule="evenodd" clip-rule="evenodd" d="M13.4004 19.5V13.2001L18.8561 16.3502L13.4004 19.5Z" fill="white"/>
</svg>
