<svg width="30" height="34" viewBox="0 0 30 34" fill="none" xmlns="http://www.w3.org/2000/svg">
<rect opacity="0.01" width="30" height="34" fill="#D8D8D8"/>
<path fill-rule="evenodd" clip-rule="evenodd" d="M11.9343 7.80932L14.4728 9.0081C14.9155 9.20359 15.2275 9.24338 15.6897 9.03496L19.616 7.25519C19.9944 7.12536 20.1729 6.71002 19.9954 6.35237C19.8264 6.01164 19.4056 5.9037 19.0746 6.09172L15.4883 8.38981C15.392 8.44353 15.3322 8.47487 15.2609 8.49128C15.0854 8.53058 14.8636 8.52163 14.6512 8.34703L12.6975 6.77966C12.4288 6.52647 12.0016 6.57024 11.7638 6.85278C11.5395 7.13332 11.5823 7.61333 11.9343 7.80932ZM19.849 21.5628C17.509 23.738 12.613 23.735 10.3258 21.5593C10.1688 21.4076 10.1608 21.1534 10.3153 20.9967C10.4654 20.837 10.7211 20.8296 10.8792 20.9823C12.8593 22.8715 17.2732 22.8695 19.3087 20.9808C19.4717 20.8286 19.7224 20.8385 19.874 21.0002C20.0225 21.1608 20.0146 21.413 19.849 21.5628ZM12.5017 17.8321C12.5022 17.8152 12.5032 17.7983 12.5042 17.7814L12.5072 17.7465L12.5102 17.7117L12.6468 16.2254L12.7829 14.7386L12.7973 14.5785C12.8053 14.5262 12.8153 14.475 12.8277 14.4243C12.8656 14.275 12.9244 14.1343 13.0027 14.0059C13.1573 13.7488 13.3856 13.5404 13.6578 13.409C13.7939 13.3439 13.9414 13.2976 14.0965 13.2742C14.1688 13.2633 14.2435 13.2573 14.3193 13.2568H14.3392H15.8403H15.8607C15.941 13.2573 16.0193 13.2658 16.0965 13.2782L16.1026 13.2789L16.1073 13.2792C16.1109 13.2795 16.1145 13.2797 16.118 13.2802C16.5711 13.3588 16.956 13.6339 17.1823 14.0144C17.2581 14.1412 17.3159 14.2795 17.3523 14.4268C17.3678 14.4894 17.3797 14.5536 17.3872 14.6193L17.3952 14.7033L17.6424 17.4237L17.6674 17.6958L17.6778 17.8142C17.6783 17.8202 17.6783 17.8261 17.6783 17.8321C17.6793 17.852 17.6798 17.8714 17.6798 17.8908C17.6798 18.5613 17.2521 19.1314 16.6539 19.3453C16.5686 19.3756 16.4794 19.399 16.3882 19.4144C16.3059 19.4278 16.2217 19.4353 16.1359 19.4353H16.1284H14.0516H14.0441C13.9763 19.4353 13.9095 19.4308 13.8442 19.4224C13.7784 19.4134 13.7141 19.401 13.6518 19.3846C13.4858 19.3408 13.3312 19.2701 13.1917 19.1781C13.0531 19.0861 12.9299 18.9717 12.8272 18.8409C12.7245 18.7101 12.6428 18.5618 12.5869 18.4021C12.5301 18.242 12.4997 18.0699 12.4997 17.8908C12.4997 17.8719 12.5007 17.8529 12.5016 17.8336L12.5017 17.8321ZM24.1581 16.5254C23.9497 16.6786 23.7453 16.8298 23.5429 16.98C23.2633 17.1869 22.9811 17.3919 22.6745 17.5988C22.4273 17.7654 22.2029 17.9102 22.0045 18.0341C21.4118 18.4046 21.0603 18.5832 21.0603 18.5832C20.9965 18.622 20.9242 18.6573 20.8489 18.6902C20.8341 18.6965 20.8187 18.7022 20.8031 18.7079L20.8031 18.7079L20.8031 18.7079L20.7762 18.718C20.7213 18.7394 20.6645 18.7593 20.6052 18.7767C20.5763 18.7852 20.5473 18.7931 20.5179 18.8006C20.4556 18.8165 20.3923 18.8284 20.3275 18.8394L20.3031 18.8436L20.303 18.8437L20.303 18.8437C20.2852 18.8468 20.2677 18.8499 20.2502 18.8523C20.159 18.8643 20.0678 18.8712 19.9765 18.8717L19.9739 18.8719C19.9727 18.872 19.9715 18.8722 19.9701 18.8722C19.9018 18.8722 19.835 18.8677 19.7677 18.8603C19.7554 18.8589 19.7431 18.8572 19.7308 18.8554L19.7123 18.8528C19.6595 18.8454 19.6076 18.8354 19.5568 18.823C19.5368 18.8185 19.5179 18.814 19.4985 18.8085C19.4321 18.7896 19.3673 18.7678 19.306 18.7394C19.2033 18.6916 19.1121 18.6349 19.0318 18.5728C18.9511 18.5101 18.8813 18.4414 18.82 18.3698C18.7586 18.2982 18.7068 18.2236 18.6624 18.149C18.6405 18.1122 18.6201 18.0743 18.6016 18.0375C18.5468 17.9266 18.5074 17.8197 18.4795 17.7257C18.4605 17.663 18.4471 17.6058 18.4376 17.5585C18.4326 17.5341 18.4286 17.5128 18.4256 17.4939C18.4192 17.4556 18.4162 17.4278 18.4147 17.4139L18.4147 17.4138L18.4147 17.4138L18.4138 17.4065L18.4137 17.4033C18.4137 17.4033 18.4067 17.3546 18.3962 17.2631C18.3902 17.2173 18.3838 17.1611 18.3763 17.0949C18.3746 17.0785 18.3726 17.0614 18.3706 17.0438L18.3669 17.012L18.3643 16.988L18.3556 16.9058C18.3498 16.852 18.3436 16.7942 18.3374 16.7323C18.3279 16.6383 18.318 16.5353 18.3075 16.4244C18.2816 16.1468 18.2551 15.8195 18.2302 15.4544C18.1829 14.7466 18.148 14.0477 18.1345 13.3439C18.1305 13.1046 18.1699 12.8997 18.2312 12.7276C18.2616 12.641 18.2985 12.5634 18.3374 12.4933C18.3568 12.458 18.3773 12.4246 18.3977 12.3933C18.4805 12.2684 18.5692 12.1739 18.642 12.1078C18.7332 12.0247 18.7995 11.9854 18.7995 11.9854C18.8628 11.9446 18.9296 11.9088 18.9989 11.8765C19.0112 11.8709 19.0237 11.866 19.0362 11.8611L19.0362 11.8611L19.0362 11.8611L19.0363 11.8611C19.0462 11.8572 19.056 11.8533 19.0657 11.8491C19.1141 11.8292 19.1634 11.8103 19.2138 11.7944C19.2407 11.786 19.2676 11.779 19.2951 11.772C19.3439 11.7591 19.3933 11.7486 19.4436 11.7402L19.4633 11.7369C19.4842 11.7334 19.5051 11.7299 19.5264 11.7273C19.5812 11.7203 19.636 11.7173 19.6924 11.7158C19.7006 11.7156 19.7087 11.7147 19.7169 11.7139C19.7265 11.7129 19.7362 11.7118 19.7462 11.7118C19.7497 11.7118 19.7532 11.7121 19.7567 11.7123C19.7602 11.7126 19.7637 11.7128 19.7672 11.7128C19.7782 11.7128 19.7892 11.7135 19.8001 11.7141C19.8084 11.7146 19.8166 11.7151 19.825 11.7153C19.8713 11.7178 19.9172 11.7208 19.9631 11.7268C19.9855 11.7292 20.0079 11.7322 20.0309 11.7362C20.0762 11.7432 20.1216 11.7526 20.1675 11.7636L20.1794 11.7662C20.1954 11.7697 20.2113 11.7732 20.2273 11.778C20.2916 11.7954 20.3559 11.8158 20.4187 11.8412C20.5239 11.8834 20.6331 11.9282 20.7438 11.975C20.9098 12.0446 21.0788 12.1182 21.2413 12.1904C21.6212 12.3585 21.9676 12.5196 22.17 12.6147C22.2857 12.6694 22.3535 12.7022 22.3535 12.7022C22.6675 12.8554 22.9567 12.9972 23.2498 13.1504C23.4462 13.2528 23.6486 13.3648 23.8575 13.4836C23.8523 13.4466 23.8475 13.4093 23.8427 13.3719L23.8427 13.3719L23.8426 13.3718L23.8426 13.3717L23.8426 13.3716C23.836 13.3203 23.8294 13.2689 23.8216 13.218C23.7778 12.9285 23.6601 12.5286 23.6456 12.4804C23.2723 11.1836 21.8584 10.628 21.8584 10.628C21.4038 10.4265 20.4252 10.1609 20.4252 10.1609C18.7402 9.73558 16.9774 9.50279 15.1613 9.49831H15.0367C15.0367 9.49831 12.2769 9.47841 9.70401 10.1554C8.75732 10.4046 8.33457 10.615 8.33457 10.615C7.58928 10.9523 6.98907 11.479 6.67051 12.2172L6.69515 12.2027L6.69519 12.2026L6.6952 12.2026C6.7172 12.1896 6.73909 12.1767 6.76124 12.164C6.82904 12.1257 6.89833 12.0899 6.96863 12.0551L6.98949 12.0444L6.98951 12.0443C7.00701 12.0353 7.02458 12.0263 7.04241 12.0177C7.13713 11.973 7.23384 11.9317 7.33255 11.8944C7.34687 11.8885 7.36163 11.8838 7.37653 11.8789L7.37655 11.8789C7.38445 11.8763 7.3924 11.8738 7.40035 11.871C7.47762 11.8427 7.55539 11.8168 7.63415 11.7939C7.6607 11.7861 7.68724 11.7791 7.71379 11.7721L7.74034 11.7651C7.80963 11.7472 7.87893 11.7307 7.94972 11.7163C7.9871 11.7084 8.02399 11.7009 8.06188 11.6944C8.13666 11.6815 8.21194 11.6715 8.28771 11.6631L8.31019 11.6602L8.31023 11.6602L8.31024 11.6602L8.31025 11.6602C8.33469 11.6571 8.35926 11.6539 8.38443 11.6516C8.49061 11.6427 8.59779 11.6367 8.70497 11.6367H8.71096C8.71569 11.6367 8.72018 11.637 8.72467 11.6372C8.72915 11.6375 8.73364 11.6377 8.73838 11.6377C8.83708 11.6387 8.93629 11.6447 9.03699 11.6531C9.0614 11.6554 9.08609 11.6584 9.11084 11.6614L9.13669 11.6646C9.21745 11.674 9.29821 11.686 9.37897 11.7009C9.39307 11.7037 9.40717 11.7062 9.42127 11.7087C9.44007 11.712 9.45888 11.7153 9.47768 11.7193C9.58885 11.7427 9.70002 11.77 9.81119 11.8039L9.81169 11.8044C10.8591 12.1252 11.5286 12.7221 11.8616 13.4881C12.1941 14.2542 12.1901 15.1893 11.8905 16.1861C11.8561 16.3025 11.8162 16.415 11.7734 16.5244C11.7654 16.5441 11.757 16.5632 11.7487 16.5821L11.7486 16.5822L11.7486 16.5822L11.7486 16.5823C11.7418 16.5978 11.735 16.6132 11.7285 16.6288C11.6976 16.7015 11.6667 16.7731 11.6328 16.8422C11.6178 16.8718 11.6022 16.9009 11.5867 16.9298L11.5866 16.9298L11.5866 16.9299L11.5715 16.9581C11.5386 17.0198 11.5052 17.081 11.4688 17.1397C11.4463 17.1785 11.4219 17.2158 11.3975 17.2526C11.3611 17.3093 11.3227 17.364 11.2833 17.4178C11.2579 17.4531 11.232 17.4879 11.2051 17.5217C11.1627 17.5749 11.1188 17.6262 11.0744 17.6769L11.0619 17.6914L11.0619 17.6914L11.0619 17.6914L11.0618 17.6914C11.0396 17.717 11.0172 17.7428 10.9942 17.7674C10.9428 17.8217 10.889 17.8729 10.8352 17.9231C10.8254 17.9322 10.8159 17.9415 10.8064 17.9508L10.8064 17.9508L10.8064 17.9508L10.8064 17.9508C10.7931 17.9638 10.7798 17.9768 10.7659 17.9893C10.6871 18.0594 10.6053 18.1256 10.5211 18.1878C10.5156 18.192 10.5096 18.1958 10.5036 18.1997L10.5036 18.1997L10.5036 18.1997L10.5036 18.1997C10.4976 18.2036 10.4917 18.2074 10.4862 18.2116C10.4124 18.2644 10.3371 18.3146 10.2604 18.3614C10.2386 18.3747 10.2163 18.3868 10.194 18.3989L10.194 18.3989L10.1661 18.4141C10.1063 18.4484 10.046 18.4817 9.98418 18.5121C9.95689 18.5255 9.92876 18.5381 9.90062 18.5507L9.87251 18.5633C9.81368 18.5897 9.75436 18.615 9.69404 18.6384C9.65466 18.6533 9.61477 18.6678 9.57439 18.6817C9.51358 18.7026 9.45226 18.7225 9.38994 18.7404L9.36308 18.748L9.36303 18.748C9.33126 18.757 9.29958 18.766 9.26731 18.7737C9.2025 18.7901 9.1357 18.8041 9.06889 18.817L9.04387 18.8222C9.01346 18.8285 8.98316 18.8348 8.95224 18.8399C8.87397 18.8528 8.79471 18.8618 8.71544 18.8697C8.70355 18.8709 8.69183 18.8725 8.68013 18.874L8.68006 18.874C8.66285 18.8762 8.6457 18.8785 8.6282 18.8797C8.52202 18.8881 8.41483 18.8926 8.30666 18.8926H8.29768C8.23175 18.8922 8.16512 18.8883 8.09838 18.8845L8.05789 18.8822C8.04067 18.8811 8.02362 18.8805 8.00656 18.8799L8.00648 18.8799H8.00645C7.98256 18.8791 7.95867 18.8782 7.93426 18.8762C7.81163 18.8657 7.68849 18.8493 7.56436 18.8279C7.05587 18.7404 6.58227 18.4952 6.17349 18.149C6.13013 18.1121 6.08935 18.072 6.04856 18.0318L6.04854 18.0318C6.03258 18.0161 6.01662 18.0003 6.0005 17.9848L6.00026 17.9907L6 17.9972C6 20.076 6.20639 22.1069 6.60869 24.0673C6.76872 24.8457 7.12915 25.2233 7.12915 25.2233C7.51999 25.7326 8.08232 26.1032 8.7309 26.249L8.79419 26.2614L8.79499 26.2616L8.79505 26.2616L8.79517 26.2616C8.82018 26.2665 8.84526 26.2715 8.87048 26.2763C10.885 26.6738 12.9678 26.8827 15.0995 26.8827C17.2401 26.8827 19.3314 26.6718 21.3544 26.2714C21.3873 26.2649 21.4207 26.2584 21.4541 26.2515C22.523 26.0177 23.363 25.172 23.5848 24.1006C23.5851 24.0981 23.5856 24.0955 23.5862 24.0928L23.5873 24.0877C23.9891 22.1204 24.2 20.0839 24.2 17.9977C24.2 17.5038 24.1826 17.0133 24.1581 16.5254ZM19.7751 15.2404C19.7751 15.9597 20.3598 16.5426 21.0802 16.5426C21.8011 16.5426 22.3853 15.9597 22.3853 15.2404C22.3853 14.5211 21.8011 13.9381 21.0802 13.9381C20.3598 13.9381 19.7751 14.5211 19.7751 15.2404ZM23.8684 14.2963L23.8833 14.3038C23.8993 14.3122 23.9152 14.3212 23.9312 14.3301C23.9421 14.3366 23.9519 14.3442 23.9617 14.3519L23.9618 14.3519C23.9686 14.3572 23.9754 14.3625 23.9825 14.3674C24.0344 14.7992 24.0768 15.2334 24.1107 15.6702C24.0738 15.7085 24.0369 15.7468 23.9905 15.7796C23.7786 15.9325 23.5765 16.0829 23.3765 16.2319L23.3753 16.2328L23.3322 16.2647L23.3322 16.2648C22.9847 16.5226 22.6542 16.7678 22.2861 17.0162C21.3787 17.6275 20.787 17.9355 20.7481 17.9558L20.7461 17.9568L20.7212 17.9692L20.6973 17.9837C20.5472 18.0762 20.2656 18.1692 19.9759 18.1692C19.8309 18.1692 19.7037 18.1458 19.609 18.1016C19.1911 17.9079 19.1267 17.3892 19.1222 17.3531L19.122 17.3515L19.1205 17.3306L19.118 17.3097C19.117 17.3022 19.0148 16.5357 18.9395 15.4075C18.8872 14.6246 18.8567 13.9645 18.8453 13.3308C18.8363 12.8513 19.1105 12.6304 19.1693 12.5881L19.1903 12.5747C19.3488 12.4718 19.5487 12.415 19.7521 12.415C19.8937 12.415 20.0313 12.4414 20.1624 12.4936C20.9735 12.818 22.0438 13.3303 22.0493 13.3333C22.7178 13.6601 23.2014 13.9013 23.815 14.2679L23.841 14.2834L23.8684 14.2963ZM13.8336 18.7043C13.9034 18.7227 13.9752 18.7321 14.048 18.7321H16.1303C16.1817 18.7321 16.228 18.7282 16.2744 18.7207C16.6817 18.6525 16.9778 18.3039 16.9778 17.891L16.9768 17.8607L16.9763 17.8547L16.9674 17.7592L16.6952 14.7667L16.6892 14.6936C16.6847 14.6602 16.6782 14.6274 16.6707 14.5966C16.59 14.2747 16.3268 14.03 15.9992 13.9728C15.9524 13.9649 15.9055 13.9604 15.8596 13.9599H15.8422H14.3416H14.3217C14.2838 13.9604 14.2429 13.9634 14.2036 13.9693C13.8725 14.0196 13.5949 14.2708 13.5136 14.5956C13.5081 14.618 13.5031 14.6408 13.4996 14.6637L13.4867 14.8025L13.2145 17.7761L13.209 17.8348L13.2075 17.8577L13.2065 17.891C13.2065 18.2725 13.4647 18.6073 13.8336 18.7043ZM10.1429 15.2402C10.1429 14.5209 9.55865 13.9379 8.83779 13.9379C8.11692 13.9379 7.53266 14.5209 7.53266 15.2402C7.53266 15.9595 8.11692 16.5424 8.83779 16.5424C9.55865 16.5424 10.1429 15.9595 10.1429 15.2402ZM8.30806 18.1894C8.10466 18.1894 7.89528 18.1715 7.6864 18.1352C7.05976 18.0272 6.45306 17.5701 6.01985 16.9105C6.05824 15.6963 6.16292 14.499 6.36034 13.3286C7.00941 12.7103 7.8559 12.3402 8.70688 12.3397C9.00898 12.3397 9.31108 12.386 9.60671 12.4765C11.7294 13.1271 11.5265 14.9537 11.2174 15.9848C10.8027 17.3652 9.71538 18.1894 8.30806 18.1894Z" fill="white"/>
</svg>
