<svg xmlns="http://www.w3.org/2000/svg" width="40" height="34" viewBox="0 0 40 34">
    <g fill="none" fill-rule="evenodd">
        <path fill="#BABABA" d="M16.258 6.909c-.37-.207-.416-.714-.18-1.01.251-.297.702-.344.985-.077l2.061 1.654c.224.184.458.193.643.152.076-.017.139-.05.24-.107l3.783-2.424c.35-.199.793-.085.972.275.187.377-.001.815-.4.952L20.22 8.201c-.488.22-.817.178-1.284-.028L16.258 6.91zm8.35 14.507c.175-.158.183-.424.026-.593-.16-.17-.424-.181-.596-.02-2.147 1.992-6.803 1.994-8.892.001-.167-.161-.436-.153-.595.015-.163.166-.154.434.011.594 2.413 2.295 7.578 2.298 10.046.003zm-7.749-3.935l-.002.062c0 .189.032.37.092.54.06.168.145.324.254.462.108.138.238.259.384.356.147.097.31.171.486.218.065.017.133.03.203.04.068.008.139.013.21.013h2.207c.09 0 .18-.008.266-.022.096-.016.19-.04.28-.073.631-.225 1.083-.827 1.083-1.534l-.002-.062v-.019l-.012-.125-.026-.287-.26-2.87-.01-.088c-.007-.07-.02-.137-.036-.203-.038-.155-.1-.301-.18-.435-.238-.401-.644-.692-1.122-.774-.007-.002-.015-.002-.023-.003-.081-.013-.164-.022-.248-.022h-1.626c-.08 0-.16.007-.235.018-.164.025-.32.074-.463.142-.287.139-.528.359-.691.63-.083.135-.145.284-.185.441-.013.054-.023.108-.032.163l-.015.169-.144 1.568-.144 1.568-.003.037-.003.037-.003.053zm12.295-1.378c.026.514.044 1.032.044 1.553 0 2.2-.222 4.349-.646 6.424l-.003.013c-.234 1.13-1.12 2.023-2.247 2.27l-.105.02c-2.134.423-4.34.645-6.598.645-2.249 0-4.446-.22-6.571-.64l-.147-.028c-.684-.154-1.278-.545-1.69-1.082 0 0-.38-.399-.549-1.22-.424-2.068-.642-4.21-.642-6.403v-.013c.061.058.12.12.183.173.431.366.93.624 1.467.717.131.022.261.04.39.05.045.004.087.004.13.007.085.004.17.01.254.01h.01c.113 0 .226-.004.338-.013.031-.002.061-.007.092-.01.084-.009.168-.018.25-.032.042-.007.082-.016.123-.024.07-.014.141-.028.21-.046.043-.01.086-.023.129-.035.066-.019.13-.04.194-.062.043-.014.085-.03.127-.045.063-.025.126-.052.188-.08.04-.017.08-.035.118-.054.065-.032.129-.067.192-.103.033-.018.066-.036.099-.056.081-.049.16-.102.238-.158l.037-.025c.089-.065.175-.135.258-.21.025-.022.049-.046.073-.069.057-.053.114-.107.168-.164.029-.031.057-.064.085-.096.047-.053.093-.107.138-.163l.082-.11c.042-.057.082-.114.12-.174.026-.039.052-.078.076-.12.038-.061.073-.126.108-.19l.065-.123c.035-.073.068-.149.1-.225.016-.037.033-.073.048-.11.045-.116.087-.234.124-.357.316-1.052.32-2.038-.03-2.846-.352-.808-1.058-1.438-2.163-1.776-.118-.036-.235-.065-.353-.09l-.104-.02c-.085-.015-.17-.028-.255-.038l-.105-.012c-.107-.009-.211-.015-.315-.016l-.03-.001h-.006c-.113 0-.226.006-.338.016-.035.003-.068.007-.102.012-.08.009-.16.02-.238.033-.04.007-.079.014-.118.023-.075.015-.148.032-.221.051l-.112.03c-.083.025-.165.052-.247.082-.024.008-.048.015-.071.025-.104.039-.207.083-.306.13-.027.012-.052.026-.078.04-.074.036-.147.074-.219.114l-.096.056c.336-.778.97-1.334 1.756-1.69 0 0 .446-.222 1.444-.485 2.714-.714 5.625-.693 5.625-.693h.132c1.916.005 3.775.25 5.552.7 0 0 1.033.28 1.512.492 0 0 1.492.586 1.885 1.954.016.05.14.473.186.778.014.093.025.187.038.28-.22-.125-.434-.243-.641-.351-.31-.162-.614-.312-.946-.473l-.193-.093c-.214-.1-.58-.27-.98-.447-.171-.076-.35-.154-.525-.227-.116-.05-.231-.097-.342-.141-.067-.027-.135-.049-.202-.067l-.063-.015c-.049-.012-.097-.022-.145-.03l-.071-.01c-.048-.005-.097-.009-.146-.011l-.06-.003H24.5c-.02 0-.038.003-.057.003-.06.002-.117.005-.175.012l-.087.014c-.053.009-.105.02-.157.034-.029.007-.057.014-.085.023-.054.017-.106.037-.157.058-.023.01-.047.018-.07.029-.073.034-.144.072-.21.115 0 0-.07.041-.167.129-.076.07-.17.17-.257.301-.022.033-.043.068-.064.105-.04.074-.08.156-.112.248-.065.181-.106.397-.102.65.014.742.051 1.48.101 2.226.026.385.054.73.082 1.023.01.117.021.226.031.325l.028.27c.005.04.01.077.013.112l.021.178c.011.096.019.148.019.148v.01c.002.015.005.045.012.085l.013.068c.01.05.024.11.044.177.03.099.07.212.129.329.02.039.04.078.064.117.047.079.101.158.166.233.065.076.138.148.224.214.084.066.18.126.289.176.065.03.133.053.203.073.02.006.04.01.061.015.054.013.109.024.164.032l.059.008c.07.008.141.012.213.012h.007c.096 0 .193-.008.289-.02l.081-.014c.069-.012.135-.025.201-.041l.092-.026c.063-.018.123-.039.18-.061l.077-.03c.08-.034.156-.072.223-.113 0 0 .371-.188.996-.579.21-.13.446-.283.707-.459.323-.218.621-.434.916-.653l.65-.48zm-3.253.018c.76 0 1.377-.615 1.377-1.374 0-.759-.617-1.373-1.377-1.373s-1.377.614-1.377 1.373.617 1.374 1.377 1.374zm2.957-2.362l.05.028c.02.012.036.027.055.04.054.455.099.913.135 1.374-.04.04-.078.08-.127.115-.224.162-.437.32-.649.478-.383.284-.744.554-1.149.826-.986.665-1.618.99-1.624.993l-.027.013-.025.015c-.158.098-.455.196-.76.196-.154 0-.288-.025-.388-.072-.45-.209-.511-.776-.514-.791l-.001-.022-.003-.022c0-.008-.109-.816-.188-2.006-.055-.826-.087-1.523-.1-2.191-.009-.506.28-.739.342-.784l.023-.014c.167-.108.378-.168.592-.168.15 0 .295.028.433.083.856.342 1.985.882 1.99.885.706.345 1.216.6 1.863.986l.027.017.03.013.015.008zm-10.596 4.642c-.389-.102-.661-.455-.661-.858v-.035l.002-.024.006-.062.287-3.137.014-.146.015-.072c.085-.343.378-.608.727-.66.042-.007.085-.01.125-.01H20.399c.049 0 .098.005.148.013.345.06.623.319.708.658.008.033.015.067.02.102l.006.078.287 3.156.01.1v.039c0 .436-.312.804-.741.875-.05.008-.098.012-.152.012h-2.197c-.076 0-.152-.01-.226-.029zm-5.276-5.028c-.76 0-1.377.615-1.377 1.374 0 .759.617 1.374 1.377 1.374s1.377-.615 1.377-1.374c0-.759-.617-1.374-1.377-1.374zm-1.209 4.428c-.66-.114-1.3-.596-1.758-1.292.04-1.28.151-2.544.36-3.778.684-.653 1.577-1.043 2.475-1.044.318 0 .637.05.949.145 2.239.686 2.025 2.613 1.699 3.7-.438 1.457-1.585 2.326-3.07 2.326-.214 0-.435-.019-.655-.057z"/>
    </g>
</svg>
