<svg width="30" height="34" viewBox="0 0 30 34" fill="none" xmlns="http://www.w3.org/2000/svg">
<rect opacity="0.01" width="30" height="34" fill="#D8D8D8"/>
<path fill-rule="evenodd" clip-rule="evenodd" d="M20.1757 6.64755C19.8702 6.03174 19.1126 5.82357 18.5193 6.16053L15.1505 8.31824L15.1161 8.33663C15.0863 8.34416 15.0736 8.34183 15.045 8.31829L13.2188 6.85311C12.7604 6.41877 11.9821 6.48562 11.5497 6.99941C11.1061 7.55391 11.233 8.40862 11.8686 8.76254L13.1188 9.35334C12.0565 9.44805 10.9613 9.61915 9.92441 9.89198L9.59014 9.98451C9.21451 10.094 8.92384 10.1964 8.70916 10.2856L8.55278 10.3547C7.70314 10.7391 7.06028 11.3435 6.71592 12.1415C6.496 12.6511 7.0551 13.1453 7.53383 12.8644L7.61839 12.8148L7.69754 12.7722L7.8496 12.6954L7.95896 12.647L8.21167 12.554L8.30159 12.5261L8.48154 12.4797L8.65633 12.4442L8.73243 12.4333L8.9097 12.4121L9.02846 12.4049L9.17975 12.4032L9.29004 12.4075L9.44971 12.4208L9.58085 12.4386L9.76026 12.4707L9.88627 12.5005L10.0165 12.5374C10.7931 12.7755 11.3029 13.203 11.5548 13.7826C11.8009 14.3495 11.8059 15.0796 11.5584 15.9029C11.5324 15.9909 11.5018 16.0789 11.4645 16.174L11.3526 16.4269L11.2582 16.6021L11.1895 16.7162L11.118 16.823L11.041 16.9288L10.9614 17.0268L10.8408 17.1638L10.6643 17.3328L10.5548 17.4233L10.4911 17.4717L10.319 17.5874L10.1194 17.6998L9.90981 17.7959L9.74546 17.8574L9.60368 17.9016L9.51292 17.9257L9.44143 17.942L9.25752 17.9784L8.99786 18.0087L8.88419 18.0144L8.74871 18.0165L8.66633 18.0132L8.45092 18.0019L8.27461 17.9806L8.17385 17.9645C7.87133 17.9124 7.57109 17.7776 7.29002 17.5695L7.13137 17.4418L7.01716 17.331C6.68124 17.0075 6.13398 17.2004 6.05421 17.637L6.04443 17.7332C6.04398 19.7228 6.23836 21.6548 6.62302 23.5292C6.68082 23.8104 6.76639 24.065 6.87304 24.2928C7.00499 24.5748 7.14491 24.7721 7.25529 24.8877C7.66616 25.4287 8.30972 25.8439 9.03766 26.0075L9.18322 26.0362C11.1184 26.418 13.0971 26.6121 15.0993 26.6121C16.8877 26.6121 18.6583 26.4571 20.3977 26.1515L21.1284 26.0138C22.2915 25.7597 23.2096 24.89 23.5217 23.7624L23.5689 23.5659C23.9593 21.6559 24.1556 19.7191 24.1556 17.7567C24.1556 17.3261 24.1422 16.881 24.1159 16.3557C24.093 15.898 23.5695 15.6502 23.2009 15.9225L22.4492 16.4775C22.3356 16.5606 22.2318 16.6354 22.1318 16.706L21.8382 16.9089L21.5134 17.1236L21.2309 17.3034L20.8906 17.511L20.6384 17.6574L20.3886 17.7936C20.3677 17.8058 20.3491 17.8164 20.3315 17.8258L20.2284 17.8756L20.1105 17.919L20.0215 17.9453L19.9288 17.9661L19.8006 17.9875L19.714 17.9949L19.6152 17.9979L19.5621 17.9948L19.458 17.9824L19.3284 17.9528L19.261 17.9267C19.2086 17.9023 19.1599 17.8726 19.1161 17.8386C19.0762 17.8077 19.0389 17.7716 19.0032 17.73C18.971 17.6923 18.9413 17.6505 18.9137 17.6041L18.8675 17.5186C18.8532 17.489 18.8369 17.4492 18.8217 17.406L18.7806 17.268L18.7658 17.1946L18.7004 16.6339L18.6608 16.2336L18.6251 15.8193L18.5901 15.3456C18.5431 14.6419 18.5138 14.0133 18.5023 13.4082C18.5 13.2696 18.5204 13.1465 18.5592 13.0375C18.5752 12.9921 18.5947 12.9495 18.6194 12.9049L18.6651 12.8299C18.6932 12.7884 18.7397 12.7353 18.7873 12.6921L18.8477 12.643L18.914 12.6033L18.9766 12.572L19.0782 12.5321L19.1499 12.51L19.2159 12.4954L19.2892 12.4832L19.366 12.4759L19.4677 12.4722L19.5373 12.4789L19.6268 12.4909L19.7495 12.5193C19.7728 12.5261 19.81 12.5382 19.8419 12.5511L20.1413 12.6744L20.5955 12.8711L21.0178 13.0613L21.6171 13.3414L22.1685 13.6138L22.4297 13.7478C22.5122 13.7909 22.5979 13.8368 22.6887 13.8866L22.978 14.0486C23.3912 14.2837 23.8949 13.9437 23.8312 13.4725L23.7978 13.225C23.7599 12.9745 23.6842 12.6812 23.6148 12.4495C23.448 11.8703 23.0974 11.3824 22.6272 10.9833C22.317 10.7199 21.9946 10.5267 21.7048 10.3946L21.531 10.3202L21.4211 10.2773L21.1615 10.185L21.0136 10.1362L20.743 10.0514L20.2135 9.89823C19.1982 9.64192 18.1703 9.46181 17.1313 9.35984L19.5447 8.26739C20.1735 8.05439 20.4958 7.29273 20.1757 6.64755ZM14.733 10.4128L15.1581 10.409C16.7705 10.4131 18.3668 10.6165 19.9226 11.0092L20.1456 11.0723L20.4078 11.1499L20.7928 11.2727L20.914 11.3147L21.0956 11.383L21.2384 11.444C21.4289 11.531 21.6632 11.6714 21.8839 11.8588L22.011 11.9741C22.1325 12.092 22.2366 12.2176 22.321 12.3508L22.3653 12.4297L22.1146 12.306L21.4968 12.0171L21.0595 11.8202L20.5882 11.6161L20.2757 11.4873C20.1945 11.4545 20.1146 11.4284 20.0287 11.4052L19.8881 11.3723L19.7967 11.3553L19.637 11.335L19.4709 11.3249L19.2745 11.3314L19.1228 11.3472L18.9758 11.3725L18.8343 11.4063L18.6861 11.453L18.5199 11.5183C18.4934 11.5305 18.4687 11.5422 18.4453 11.5536L18.3192 11.6201L18.2056 11.6906C18.1378 11.7373 18.0773 11.785 18.0144 11.8423C17.8996 11.9466 17.7907 12.0709 17.6947 12.2157L17.6254 12.3295C17.5602 12.4464 17.514 12.5471 17.4764 12.6542C17.3923 12.8901 17.3492 13.1503 17.3539 13.4286C17.3658 14.0549 17.3959 14.7013 17.4443 15.4244L17.4621 15.6753L17.5175 16.3436L17.5588 16.7594L17.6342 17.3841L17.6653 17.5404L17.6957 17.6548C17.737 17.7942 17.7864 17.9224 17.8486 18.0482L17.916 18.1727C17.9866 18.2921 18.0542 18.3875 18.1307 18.4768C18.2155 18.5759 18.3088 18.6658 18.4123 18.7462C18.5239 18.8327 18.646 18.9073 18.7778 18.9686C18.8617 19.0074 18.9465 19.0374 19.0419 19.0646L19.1964 19.101L19.3045 19.12L19.4849 19.1399L19.621 19.1456L19.7961 19.1399L19.9584 19.1244L20.161 19.0903L20.3232 19.0528L20.4809 19.0056L20.6596 18.9397C20.7864 18.8853 20.8733 18.8417 20.9534 18.793L20.9726 18.7843C21.0402 18.7483 21.1167 18.7064 21.2019 18.6582L21.4833 18.4948L21.8342 18.2807L22.1427 18.0844L22.4764 17.8638L22.7912 17.6464L23.0051 17.4925L23.007 17.7566C23.007 19.6416 22.8185 21.5015 22.4476 23.3176L22.4096 23.4759C22.2162 24.1729 21.6297 24.7285 20.8994 24.8882L20.192 25.0213C18.525 25.3141 16.821 25.4633 15.0994 25.4633C13.3861 25.4633 11.6911 25.3157 10.0273 25.0248L9.27409 24.8834C8.87553 24.7936 8.50661 24.5742 8.22696 24.2625L8.08521 24.0927C8.03019 24.0236 7.97436 23.936 7.91342 23.8058C7.84433 23.6581 7.78753 23.4891 7.74822 23.2979L7.632 22.6966C7.41308 21.4898 7.27541 20.2588 7.22026 19.0103L7.21475 18.8541L7.35779 18.9178C7.55945 18.9997 7.76712 19.0599 7.97893 19.0963C8.11325 19.1195 8.24391 19.1366 8.37239 19.1475L8.74194 19.1646L8.92986 19.1617L9.10244 19.1518L9.43993 19.1115L9.68418 19.0644L9.79392 19.0391L9.92849 19.003L10.1239 18.9413L10.3493 18.8565L10.5669 18.7599L10.7151 18.6833L10.8696 18.5966L11.0509 18.4808L11.1565 18.4077C11.2664 18.327 11.3562 18.2542 11.4422 18.1776L11.5958 18.0319L11.6811 17.9461L11.8417 17.7643L11.9546 17.6243L12.0624 17.4763L12.1617 17.3273L12.2578 17.1673L12.3745 16.9509L12.4476 16.7944L12.527 16.61C12.5827 16.4686 12.6241 16.3499 12.6593 16.2308C12.979 15.167 12.9721 14.1628 12.6084 13.3248C12.2169 12.4242 11.4391 11.7719 10.3392 11.435L10.1695 11.3874L9.98842 11.3451L9.7541 11.3032L9.56906 11.2786L9.36713 11.2616L9.60398 11.1814L9.90424 11.0892L10.2239 11.0007C11.6825 10.617 13.3037 10.4456 14.733 10.4128Z" fill="white"/>
<rect x="10.1528" y="19.8279" width="9.71928" height="3.53428" fill="white"/>
<path fill-rule="evenodd" clip-rule="evenodd" d="M23.8957 13.7067C23.9223 13.9356 23.939 14.0799 23.8808 13.5492C23.9008 13.7112 23.9187 13.855 23.9347 13.9842C24.0683 15.0582 24.0773 15.1305 24.1609 16.3842C24.1837 16.839 24.2 17.2961 24.2 17.7565C24.2 19.7009 24.0034 21.5989 23.6289 23.4325C23.628 23.4367 23.6271 23.4408 23.6266 23.4445C23.4198 24.4432 22.6369 25.2313 21.6407 25.4492C21.6096 25.4557 21.5785 25.4617 21.5478 25.4677C19.6623 25.841 17.7132 26.0375 15.718 26.0375C15.5122 26.0375 15.3069 26.0354 15.1021 26.0313C14.8956 26.0355 14.6886 26.0376 14.481 26.0376C12.4942 26.0376 10.553 25.8429 8.67539 25.4725C8.65158 25.4679 8.62791 25.4633 8.60431 25.4586C8.5846 25.4547 8.56494 25.4508 8.54529 25.447C7.94079 25.3112 7.41668 24.9658 7.0524 24.491C7.0524 24.491 6.71647 24.1391 6.56732 23.4136C6.19236 21.5865 6 19.6936 6 17.7561C6 17.7549 6 17.4962 6.00621 17.0942C6.02111 16.129 6.0718 14.338 6.24419 13.3017C6.2544 13.2404 6.53895 12.3624 6.56732 12.3077C6.8788 11.7071 7.53926 11.1637 8.1759 10.8756C8.1759 10.8756 8.56991 10.6795 9.45226 10.4473C11.8503 9.81628 14.4225 9.83483 14.4225 9.83483H14.5387C14.7341 9.83531 14.9289 9.83863 15.123 9.84473C15.461 9.83328 15.6595 9.83471 15.6595 9.83471H15.7756C17.4683 9.83889 19.1113 10.0559 20.6817 10.4522C20.6817 10.4522 21.5938 10.6998 22.0176 10.8876C22.0176 10.8876 23.3353 11.4054 23.6833 12.6141C23.6968 12.659 23.8064 13.0318 23.8473 13.3016C23.8525 13.3358 23.8766 13.5429 23.8957 13.7067Z" fill="white"/>
<path fill-rule="evenodd" clip-rule="evenodd" d="M23.2624 13.5492C23.3624 14.4595 23.2415 13.3837 23.229 13.3016C23.1881 13.0318 23.0785 12.659 23.065 12.6141C22.717 11.4054 21.3992 10.8876 21.3992 10.8876C20.9755 10.6998 20.0634 10.4522 20.0634 10.4522C18.4929 10.0559 16.85 9.83888 15.1573 9.83471H15.0411C15.0411 9.83471 12.4689 9.81616 10.0709 10.4471C9.18856 10.6794 8.79455 10.8755 8.79455 10.8755C8.15791 11.1636 7.49745 11.707 7.18598 12.3076C7.1576 12.3623 6.87305 13.2402 6.86284 13.3016C6.69045 14.3379 6.63976 16.1289 6.62486 17.0941C6.61865 17.4961 6.61865 17.7548 6.61865 17.756C6.61865 19.6934 6.81101 21.5864 7.18598 23.4135C7.33512 24.139 7.67106 24.4909 7.67106 24.4909C8.03533 24.9656 8.55945 25.311 9.16394 25.4469C9.20715 25.4552 9.25036 25.464 9.29404 25.4724C11.1716 25.8428 13.1129 26.0375 15.0997 26.0375C17.0948 26.0375 19.044 25.8409 20.9295 25.4677C20.9602 25.4617 20.9913 25.4557 21.0224 25.4492C22.0186 25.2313 22.8015 24.4432 23.0083 23.4445C23.0088 23.4408 23.0097 23.4366 23.0106 23.4325C23.3851 21.5989 23.5817 19.7009 23.5817 17.7565C23.5817 17.2961 23.5654 16.839 23.5426 16.3842C23.4489 14.9796 23.4489 15.0579 23.2624 13.5492Z" fill="#0545B1"/>
<mask id="mask0_7183_7312" style="mask-type:luminance" maskUnits="userSpaceOnUse" x="6" y="9" width="18" height="18">
<path fill-rule="evenodd" clip-rule="evenodd" d="M23.2624 13.5492C23.3624 14.4595 23.2415 13.3837 23.229 13.3016C23.1881 13.0318 23.0785 12.659 23.065 12.6141C22.717 11.4054 21.3992 10.8876 21.3992 10.8876C20.9755 10.6998 20.0634 10.4522 20.0634 10.4522C18.4929 10.0559 16.85 9.83888 15.1573 9.83471H15.0411C15.0411 9.83471 12.4689 9.81616 10.0709 10.4471C9.18856 10.6794 8.79455 10.8755 8.79455 10.8755C8.15791 11.1636 7.49745 11.707 7.18598 12.3076C7.1576 12.3623 6.87305 13.2402 6.86284 13.3016C6.69045 14.3379 6.63976 16.1289 6.62486 17.0941C6.61865 17.4961 6.61865 17.7548 6.61865 17.756C6.61865 19.6934 6.81101 21.5864 7.18598 23.4135C7.33512 24.139 7.67106 24.4909 7.67106 24.4909C8.03533 24.9656 8.55945 25.311 9.16394 25.4469C9.20715 25.4552 9.25036 25.464 9.29404 25.4724C11.1716 25.8428 13.1129 26.0375 15.0997 26.0375C17.0948 26.0375 19.044 25.8409 20.9295 25.4677C20.9602 25.4617 20.9913 25.4557 21.0224 25.4492C22.0186 25.2313 22.8015 24.4432 23.0083 23.4445C23.0088 23.4408 23.0097 23.4366 23.0106 23.4325C23.3851 21.5989 23.5817 19.7009 23.5817 17.7565C23.5817 17.2961 23.5654 16.839 23.5426 16.3842C23.4489 14.9796 23.4489 15.0579 23.2624 13.5492Z" fill="white"/>
</mask>
<g mask="url(#mask0_7183_7312)">
<path fill-rule="evenodd" clip-rule="evenodd" d="M19.5259 21.0794C17.3449 23.1068 12.7817 23.104 10.6499 21.0762C10.5036 20.9348 10.4961 20.6979 10.6402 20.5518C10.78 20.403 11.0184 20.396 11.1657 20.5384C13.0112 22.2992 17.1251 22.2973 19.0222 20.537C19.1742 20.3951 19.4079 20.4044 19.5491 20.5551C19.6876 20.7048 19.6802 20.9399 19.5259 21.0794ZM12.6793 17.6024C12.6798 17.5867 12.6807 17.5709 12.6816 17.5551L12.6844 17.5227L12.6872 17.4902L12.8145 16.105L12.9414 14.7192L12.9549 14.5699C12.9623 14.5212 12.9716 14.4735 12.9832 14.4262C13.0185 14.2871 13.0733 14.1559 13.1463 14.0363C13.2903 13.7966 13.5031 13.6024 13.7568 13.48C13.8837 13.4192 14.0212 13.3761 14.1657 13.3543C14.2331 13.3441 14.3028 13.3386 14.3734 13.3381H14.392H15.791H15.8101C15.8849 13.3386 15.9578 13.3465 16.0298 13.358C16.0363 13.359 16.0433 13.359 16.0498 13.3599C16.4722 13.4331 16.8309 13.6895 17.0418 14.0442C17.1124 14.1624 17.1663 14.2913 17.2003 14.4285C17.2147 14.4869 17.2258 14.5467 17.2328 14.6079L17.2402 14.6863L17.4707 17.2218L17.4939 17.4754L17.5037 17.5857C17.5041 17.5913 17.5041 17.5969 17.5041 17.6024C17.5051 17.621 17.5055 17.639 17.5055 17.6571C17.5055 18.2821 17.1069 18.8134 16.5493 19.0127C16.4698 19.041 16.3867 19.0628 16.3016 19.0772C16.225 19.0897 16.1465 19.0966 16.0665 19.0966H16.0596H14.1239H14.1169C14.0537 19.0966 13.9915 19.0925 13.9306 19.0846C13.8693 19.0762 13.8093 19.0647 13.7512 19.0494C13.5965 19.0086 13.4525 18.9427 13.3224 18.857C13.1932 18.7712 13.0784 18.6646 12.9827 18.5426C12.887 18.4207 12.8108 18.2825 12.7588 18.1337C12.7058 17.9844 12.6775 17.824 12.6775 17.6571C12.6775 17.639 12.6784 17.621 12.6793 17.6024ZM23.5426 16.3844C23.3484 16.5271 23.1579 16.6681 22.9693 16.8081C22.7086 17.001 22.4456 17.192 22.1599 17.3848C21.9294 17.5401 21.7203 17.6751 21.5354 17.7905C20.9829 18.1359 20.6554 18.3023 20.6554 18.3023C20.5959 18.3385 20.5285 18.3714 20.4584 18.402C20.4365 18.4113 20.4133 18.4192 20.3905 18.428C20.3394 18.4479 20.2864 18.4664 20.2311 18.4827C20.2042 18.4906 20.1773 18.498 20.1498 18.5049C20.0918 18.5198 20.0327 18.5309 19.9723 18.5411C19.9477 18.5453 19.924 18.5499 19.9003 18.5531C19.8153 18.5643 19.7303 18.5708 19.6452 18.5712C19.6434 18.5712 19.6415 18.5717 19.6392 18.5717C19.5755 18.5717 19.5133 18.5675 19.4506 18.5606C19.4334 18.5587 19.4162 18.5559 19.399 18.5536C19.3497 18.5466 19.3014 18.5374 19.254 18.5258C19.2354 18.5216 19.2178 18.5174 19.1997 18.5123C19.1379 18.4947 19.0775 18.4743 19.0203 18.4479C18.9246 18.4034 18.8396 18.3505 18.7648 18.2926C18.6895 18.2342 18.6244 18.1702 18.5673 18.1034C18.5101 18.0367 18.4618 17.9671 18.4205 17.8976C18.4 17.8633 18.381 17.828 18.3638 17.7937C18.3127 17.6904 18.276 17.5907 18.2499 17.5031C18.2323 17.4446 18.2197 17.3913 18.2109 17.3473C18.2063 17.3246 18.2025 17.3046 18.1998 17.287C18.1937 17.2513 18.1909 17.2253 18.1895 17.2124C18.1886 17.2059 18.1886 17.2026 18.1886 17.2026C18.1886 17.2026 18.1821 17.1572 18.1723 17.0719C18.1668 17.0292 18.1607 16.9769 18.1538 16.9152C18.1505 16.8841 18.1463 16.8508 18.1426 16.8155C18.1352 16.7446 18.1263 16.6653 18.1175 16.5772C18.1087 16.4896 18.0994 16.3936 18.0896 16.2902C18.0655 16.0315 18.0408 15.7265 18.0176 15.3862C17.9735 14.7265 17.9409 14.0751 17.9284 13.4191C17.9247 13.1961 17.9614 13.0051 18.0185 12.8447C18.0469 12.764 18.0813 12.6917 18.1175 12.6263C18.1356 12.5934 18.1547 12.5623 18.1737 12.5331C18.2509 12.4168 18.3336 12.3287 18.4014 12.267C18.4864 12.1896 18.5482 12.153 18.5482 12.153C18.6072 12.1149 18.6695 12.0816 18.7341 12.0514C18.7545 12.0422 18.7759 12.0347 18.7963 12.0259C18.8414 12.0074 18.8874 11.9898 18.9343 11.9749C18.9594 11.9671 18.9845 11.9606 19.0101 11.9541C19.0556 11.942 19.1016 11.9323 19.1485 11.9244C19.1741 11.9202 19.1997 11.9156 19.2257 11.9123C19.2768 11.9059 19.3279 11.9031 19.3804 11.9017C19.3971 11.9012 19.4134 11.898 19.4306 11.898C19.4371 11.898 19.4436 11.8989 19.4501 11.8989C19.4682 11.8989 19.4859 11.9008 19.504 11.9012C19.5472 11.9035 19.5899 11.9063 19.6327 11.9119C19.6536 11.9142 19.6745 11.917 19.6959 11.9207C19.7382 11.9272 19.7805 11.936 19.8232 11.9462C19.8418 11.9504 19.8604 11.9541 19.879 11.9596C19.9389 11.9759 19.9988 11.9949 20.0574 12.0185C20.1554 12.0579 20.2572 12.0996 20.3603 12.1432C20.515 12.2081 20.6726 12.2767 20.824 12.344C21.1781 12.5007 21.501 12.6509 21.6896 12.7394C21.7974 12.7904 21.8606 12.821 21.8606 12.821C22.1534 12.9638 22.4228 13.0959 22.6961 13.2387C22.8791 13.3342 23.0678 13.4386 23.2624 13.5494C23.2508 13.4673 23.2415 13.3839 23.229 13.3018C23.1881 13.032 23.0785 12.6592 23.065 12.6143C22.717 11.4056 21.3992 10.8878 21.3992 10.8878C20.9755 10.7 20.0634 10.4524 20.0634 10.4524C18.4929 10.056 16.85 9.83907 15.1573 9.8349H15.0411C15.0411 9.8349 12.4689 9.81635 10.0709 10.4473C9.18856 10.6796 8.79455 10.8757 8.79455 10.8757C8.09992 11.19 7.54049 11.681 7.24359 12.369C7.27193 12.3523 7.29981 12.3356 7.32815 12.3194C7.39135 12.2837 7.45593 12.2503 7.52144 12.2179C7.54421 12.2063 7.56698 12.1942 7.59021 12.1831C7.67849 12.1414 7.76863 12.1029 7.86063 12.0681C7.88107 12.0598 7.90245 12.0537 7.92382 12.0463C7.99584 12.0199 8.06832 11.9958 8.14174 11.9745C8.17472 11.9647 8.20771 11.9564 8.2407 11.9476C8.30529 11.9309 8.36987 11.9156 8.43585 11.9021C8.4707 11.8947 8.50508 11.8878 8.54039 11.8817C8.61009 11.8697 8.68025 11.8604 8.75088 11.8525C8.78061 11.8488 8.81035 11.8447 8.84102 11.8419C8.93998 11.8335 9.03988 11.828 9.13978 11.828C9.14164 11.828 9.14349 11.828 9.14535 11.828C9.15418 11.828 9.16208 11.8289 9.17091 11.8289C9.26291 11.8298 9.35537 11.8354 9.44923 11.8433C9.47989 11.846 9.51102 11.8502 9.54215 11.8539C9.61743 11.8627 9.6927 11.8739 9.76797 11.8878C9.79863 11.8938 9.8293 11.8984 9.85997 11.9049C9.96358 11.9267 10.0672 11.9522 10.1708 11.9837L10.1713 11.9842C11.1475 12.2832 11.7715 12.8396 12.0819 13.5535C12.3918 14.2675 12.3881 15.1391 12.1088 16.0682C12.0768 16.1767 12.0396 16.2814 11.9996 16.3834C11.9861 16.4168 11.9713 16.4483 11.9578 16.4808C11.929 16.5485 11.9002 16.6152 11.8686 16.6797C11.85 16.7163 11.8305 16.752 11.8114 16.7877C11.7808 16.8452 11.7496 16.9022 11.7157 16.9569C11.6948 16.9931 11.6721 17.0279 11.6493 17.0622C11.6154 17.115 11.5796 17.166 11.5429 17.2161C11.5192 17.249 11.495 17.2814 11.4699 17.313C11.4304 17.3626 11.3896 17.4103 11.3482 17.4576C11.3236 17.4859 11.299 17.5146 11.2734 17.542C11.2255 17.5925 11.1754 17.6403 11.1252 17.6871C11.1033 17.7075 11.0829 17.7288 11.0606 17.7488C10.9872 17.8141 10.911 17.8758 10.8325 17.9338C10.8222 17.9416 10.8102 17.9481 10.7999 17.956C10.7312 18.0051 10.661 18.052 10.5894 18.0956C10.5606 18.1132 10.5309 18.1285 10.5016 18.1447C10.4459 18.1767 10.3897 18.2077 10.332 18.236C10.2981 18.2527 10.2628 18.268 10.228 18.2838C10.1731 18.3084 10.1178 18.332 10.0616 18.3538C10.0249 18.3677 9.98774 18.3811 9.95011 18.3941C9.89342 18.4136 9.83627 18.4321 9.77819 18.4488C9.74009 18.4595 9.70245 18.4706 9.66389 18.4799C9.60349 18.4952 9.54122 18.5082 9.47896 18.5202C9.44272 18.5276 9.40694 18.5355 9.37024 18.5415C9.29729 18.5536 9.22341 18.5619 9.14953 18.5694C9.12212 18.5721 9.09564 18.5768 9.06822 18.5786C8.96926 18.5865 8.86936 18.5907 8.76853 18.5907C8.76574 18.5907 8.76296 18.5907 8.76017 18.5907C8.68629 18.5902 8.61148 18.5851 8.53668 18.581C8.49811 18.5786 8.46048 18.5786 8.42145 18.5754C8.30715 18.5657 8.19238 18.5504 8.07669 18.5304C7.60276 18.4488 7.16135 18.2203 6.78035 17.8976C6.72413 17.8498 6.67255 17.7961 6.61912 17.7446C6.61912 17.7483 6.61865 17.752 6.61865 17.7562C6.61865 19.6936 6.81101 21.5866 7.18598 23.4137C7.33512 24.1392 7.67106 24.4911 7.67106 24.4911C8.03533 24.9658 8.55945 25.3112 9.16394 25.4471C9.20715 25.4554 9.25036 25.4642 9.29404 25.4726C11.1716 25.843 13.1129 26.0377 15.0997 26.0377C17.0948 26.0377 19.044 25.8411 20.9295 25.4679C20.9602 25.4619 20.9913 25.4559 21.0224 25.4494C22.0186 25.2315 22.8015 24.4433 23.0083 23.4447C23.0088 23.441 23.0097 23.4368 23.0106 23.4327C23.3851 21.5991 23.5817 19.701 23.5817 17.7567C23.5817 17.2963 23.5654 16.8392 23.5426 16.3844Z" fill="#0545B1"/>
<path fill-rule="evenodd" clip-rule="evenodd" d="M20.6686 16.4006C19.9972 16.4006 19.4522 15.8573 19.4522 15.1869C19.4522 14.5165 19.9972 13.9731 20.6686 13.9731C21.3404 13.9731 21.885 14.5165 21.885 15.1869C21.885 15.8573 21.3404 16.4006 20.6686 16.4006ZM23.2813 14.3137L23.2673 14.3068L23.2418 14.2947L23.2176 14.2804C22.6457 13.9387 22.195 13.7138 21.5719 13.4092C21.5668 13.4065 20.5692 12.9289 19.8132 12.6267C19.691 12.578 19.5628 12.5534 19.4308 12.5534C19.2413 12.5534 19.0549 12.6063 18.9072 12.7022L18.8877 12.7147C18.8328 12.7542 18.5773 12.96 18.5856 13.4069C18.5963 13.9976 18.6247 14.6128 18.6735 15.3425C18.7436 16.394 18.8389 17.1084 18.8398 17.1154L18.8421 17.1348L18.8435 17.1543C18.8454 17.1677 18.8993 17.6689 19.2975 17.8534C19.3858 17.8947 19.5042 17.9165 19.6394 17.9165C19.9094 17.9165 20.1719 17.8298 20.3118 17.7436L20.3341 17.7301L20.3573 17.7185C20.3624 17.7157 20.9214 17.4288 21.7926 16.8418C22.1499 16.6007 22.4691 16.3629 22.8078 16.1116C22.9946 15.9726 23.1832 15.8321 23.3812 15.6893C23.4244 15.6587 23.4588 15.623 23.4932 15.5873C23.4616 15.1802 23.4221 14.7755 23.3737 14.3731C23.3575 14.362 23.3431 14.3485 23.3259 14.3383C23.311 14.33 23.2961 14.3216 23.2813 14.3137Z" fill="#00BBED"/>
<path d="M23.2673 14.3068L23.6022 13.6357L23.5948 13.632L23.5873 13.6285L23.2673 14.3068ZM23.2418 14.2947L22.8584 14.9393L22.8893 14.9577L22.9218 14.9731L23.2418 14.2947ZM23.2176 14.2804L22.833 14.9242L22.8342 14.9249L23.2176 14.2804ZM21.5719 13.4092L21.2133 14.068L21.2278 14.0758L21.2425 14.083L21.5719 13.4092ZM19.8132 12.6267L20.0917 11.9303L20.0908 11.9299L19.8132 12.6267ZM18.9072 12.7022L19.3121 13.3335L19.3157 13.3312L18.9072 12.7022ZM18.8877 12.7147L18.4827 12.0835L18.466 12.0942L18.4499 12.1057L18.8877 12.7147ZM18.5856 13.4069L19.3355 13.3933L19.3355 13.3929L18.5856 13.4069ZM18.6735 15.3425L19.4218 15.2926L19.4218 15.2925L18.6735 15.3425ZM18.8398 17.1154L19.5846 17.0265L19.5832 17.016L18.8398 17.1154ZM18.8421 17.1348L19.5902 17.0813L19.5889 17.0636L19.5868 17.046L18.8421 17.1348ZM18.8435 17.1543L18.0954 17.2079L18.0972 17.2325L18.1006 17.257L18.8435 17.1543ZM19.2975 17.8534L19.615 17.174L19.6128 17.1729L19.2975 17.8534ZM20.3118 17.7436L19.9246 17.1012L19.9182 17.1051L20.3118 17.7436ZM20.3341 17.7301L19.9993 17.059L19.9725 17.0723L19.9469 17.0878L20.3341 17.7301ZM20.3573 17.7185L20.6921 18.3896L20.7041 18.3837L20.7158 18.3773L20.3573 17.7185ZM21.7926 16.8418L22.2116 17.4638L22.2121 17.4635L21.7926 16.8418ZM22.8078 16.1116L23.2547 16.714L23.2557 16.7132L22.8078 16.1116ZM23.3812 15.6893L22.9477 15.0772L22.9424 15.081L23.3812 15.6893ZM23.4932 15.5873L24.0333 16.1076L24.267 15.865L24.2409 15.5292L23.4932 15.5873ZM23.3737 14.3731L24.1184 14.2837L24.0779 13.9461L23.7973 13.7541L23.3737 14.3731ZM23.3259 14.3383L23.7086 13.6933L23.7008 13.6887L23.693 13.6843L23.3259 14.3383ZM20.6686 15.6506C20.4096 15.6506 20.2022 15.4413 20.2022 15.1869H18.7022C18.7022 16.2732 19.5847 17.1506 20.6686 17.1506V15.6506ZM20.2022 15.1869C20.2022 14.9325 20.4096 14.7231 20.6686 14.7231V13.2231C19.5847 13.2231 18.7022 14.1005 18.7022 15.1869H20.2022ZM20.6686 14.7231C20.9278 14.7231 21.135 14.9323 21.135 15.1869H22.635C22.635 14.1007 21.7531 13.2231 20.6686 13.2231V14.7231ZM21.135 15.1869C21.135 15.4415 20.9278 15.6506 20.6686 15.6506V17.1506C21.7531 17.1506 22.635 16.273 22.635 15.1869H21.135ZM23.6161 13.6426L23.6022 13.6357L22.9325 14.9779L22.9465 14.9849L23.6161 13.6426ZM23.5873 13.6285L23.5617 13.6164L22.9218 14.9731L22.9474 14.9851L23.5873 13.6285ZM23.6252 13.6502L23.6011 13.6358L22.8342 14.9249L22.8584 14.9393L23.6252 13.6502ZM23.6023 13.6365C23.0018 13.2778 22.5274 13.0415 21.9013 12.7354L21.2425 14.083C21.8625 14.3861 22.2895 14.5996 22.833 14.9242L23.6023 13.6365ZM21.9304 12.7505C21.8909 12.729 20.8643 12.2392 20.0917 11.9303L19.5348 13.323C20.2741 13.6187 21.2426 14.0839 21.2133 14.068L21.9304 12.7505ZM20.0908 11.9299C19.88 11.8459 19.6576 11.8034 19.4308 11.8034V13.3034C19.468 13.3034 19.502 13.31 19.5357 13.3234L20.0908 11.9299ZM19.4308 11.8034C19.1082 11.8034 18.7777 11.892 18.4987 12.0733L19.3157 13.3312C19.3322 13.3205 19.3743 13.3034 19.4308 13.3034V11.8034ZM18.5022 12.0709L18.4827 12.0835L19.2926 13.346L19.3121 13.3335L18.5022 12.0709ZM18.4499 12.1057C18.2858 12.2237 17.8211 12.6338 17.8358 13.4209L19.3355 13.3929C19.3348 13.3549 19.3397 13.3324 19.3428 13.3217C19.3459 13.3107 19.3491 13.3053 19.3501 13.3036C19.3534 13.2984 19.3518 13.3048 19.3254 13.3238L18.4499 12.1057ZM17.8358 13.4205C17.8467 14.0262 17.8758 14.6539 17.9251 15.3925L19.4218 15.2925C19.3736 14.5716 19.3459 13.9689 19.3355 13.3933L17.8358 13.4205ZM17.9251 15.3924C17.9967 16.4651 18.094 17.1967 18.0964 17.2147L19.5832 17.016C19.5837 17.0201 19.4905 16.3229 19.4218 15.2926L17.9251 15.3924ZM18.0951 17.2042L18.0974 17.2237L19.5868 17.046L19.5845 17.0265L18.0951 17.2042ZM18.094 17.1884L18.0954 17.2079L19.5916 17.1007L19.5902 17.0813L18.094 17.1884ZM18.1006 17.257C18.1002 17.2539 18.1078 17.3192 18.1272 17.4064C18.1461 17.491 18.1778 17.6057 18.2312 17.732C18.334 17.9749 18.55 18.3337 18.9821 18.5339L19.6128 17.1729C19.628 17.18 19.6354 17.1886 19.6345 17.1875C19.6317 17.1842 19.6229 17.1719 19.6126 17.1475C19.6025 17.1236 19.5955 17.099 19.5913 17.0801C19.5893 17.0713 19.5883 17.0654 19.588 17.0634C19.5879 17.0625 19.5879 17.0624 19.588 17.0632C19.588 17.0636 19.5881 17.0639 19.5881 17.0639C19.5879 17.0624 19.5882 17.0649 19.5879 17.0624C19.5878 17.0619 19.5877 17.0608 19.5875 17.0595C19.5874 17.0585 19.587 17.0554 19.5865 17.0516L18.1006 17.257ZM18.9799 18.5329C19.1986 18.6351 19.4348 18.6665 19.6394 18.6665V17.1665C19.6112 17.1665 19.5938 17.1641 19.5868 17.1628C19.5836 17.1623 19.5843 17.1622 19.5886 17.1635C19.5928 17.1648 19.602 17.1679 19.615 17.174L18.9799 18.5329ZM19.6394 18.6665C20.0428 18.6665 20.4425 18.544 20.7054 18.382L19.9182 17.1051C19.9213 17.1032 19.8892 17.1215 19.8237 17.1397C19.7623 17.1568 19.697 17.1665 19.6394 17.1665V18.6665ZM20.699 18.3859L20.7213 18.3724L19.9469 17.0878L19.9246 17.1012L20.699 18.3859ZM20.6689 18.4012L20.6921 18.3896L20.0225 17.0474L19.9993 17.059L20.6689 18.4012ZM20.7158 18.3773C20.7082 18.3814 20.8661 18.2999 21.1282 18.147C21.3901 17.9942 21.7614 17.7671 22.2116 17.4638L21.3735 16.2198C20.5337 16.7856 20.0013 17.0584 19.9988 17.0598L20.7158 18.3773ZM22.2121 17.4635C22.5858 17.2114 22.9188 16.9631 23.2547 16.714L22.361 15.5093C22.0194 15.7627 21.714 15.9901 21.3731 16.2201L22.2121 17.4635ZM23.2557 16.7132C23.4432 16.5736 23.6273 16.4365 23.82 16.2975L22.9424 15.081C22.7391 15.2277 22.546 15.3715 22.3599 15.5101L23.2557 16.7132ZM23.8146 16.3014C23.9242 16.2238 24.0049 16.1371 24.0333 16.1076L22.953 15.067C22.9438 15.0765 22.9385 15.082 22.9336 15.087C22.929 15.0916 22.927 15.0935 22.9266 15.0939C22.9259 15.0946 22.9336 15.0872 22.9478 15.0772L23.8146 16.3014ZM24.2409 15.5292C24.2085 15.1124 24.168 14.6972 24.1184 14.2837L22.6291 14.4625C22.6761 14.8539 22.7146 15.2481 22.7454 15.6453L24.2409 15.5292ZM23.7973 13.7541C23.8082 13.7616 23.8157 13.7673 23.8172 13.7685C23.818 13.7691 23.8182 13.7692 23.8167 13.7681C23.816 13.7676 23.8123 13.7646 23.8094 13.7624C23.7981 13.7536 23.7595 13.7235 23.7086 13.6933L22.9432 14.9833C22.9251 14.9726 22.9112 14.9631 22.9028 14.9571C22.8986 14.9541 22.8953 14.9517 22.8934 14.9502C22.8916 14.9488 22.8905 14.948 22.891 14.9483C22.8911 14.9485 22.8915 14.9488 22.8923 14.9494C22.8924 14.9495 22.8946 14.9512 22.8953 14.9517C22.8977 14.9536 22.9018 14.9567 22.9065 14.9603C22.9157 14.9674 22.9311 14.979 22.9502 14.9921L23.7973 13.7541ZM23.693 13.6843C23.6795 13.6767 23.6567 13.6639 23.6325 13.6511L22.93 14.9764C22.9356 14.9793 22.9425 14.9832 22.9588 14.9923L23.693 13.6843Z" fill="#00BBED"/>
<path fill-rule="evenodd" clip-rule="evenodd" d="M13.9185 18.4152C13.9835 18.4323 14.0505 18.4411 14.1183 18.4411H16.0591C16.1069 18.4411 16.1502 18.4374 16.1934 18.4305C16.573 18.367 16.849 18.042 16.849 17.6572L16.848 17.6289L16.8476 17.6233L16.8392 17.5343L16.5855 14.7452L16.5799 14.6771C16.5758 14.646 16.5697 14.6154 16.5628 14.5866C16.4875 14.2867 16.2422 14.0586 15.9369 14.0053C15.8932 13.9979 15.8495 13.9937 15.8068 13.9932H15.7905H14.392H14.3734C14.3381 13.9937 14.3 13.9965 14.2633 14.002C13.9547 14.0489 13.6959 14.283 13.6202 14.5857C13.6151 14.6066 13.6104 14.6279 13.6072 14.6492L13.5951 14.7786L13.3414 17.5501L13.3363 17.6048L13.3349 17.6261L13.334 17.6572C13.334 18.0127 13.5747 18.3248 13.9185 18.4152Z" fill="#1AC62F"/>
<path d="M13.9185 18.4152C13.9835 18.4323 14.0505 18.4411 14.1183 18.4411H16.0591C16.1069 18.4411 16.1502 18.4374 16.1934 18.4305C16.573 18.367 16.849 18.042 16.849 17.6572L16.848 17.6289L16.8476 17.6233L16.8392 17.5343L16.5855 14.7452L16.5799 14.6771C16.5758 14.646 16.5697 14.6154 16.5628 14.5866C16.4875 14.2867 16.2422 14.0586 15.9369 14.0053C15.8932 13.9979 15.8495 13.9937 15.8068 13.9932H15.7905H14.392H14.3734C14.3381 13.9937 14.3 13.9965 14.2633 14.002C13.9547 14.0489 13.6959 14.283 13.6202 14.5857C13.6151 14.6066 13.6104 14.6279 13.6072 14.6492L13.5951 14.7786L13.3414 17.5501L13.3363 17.6048L13.3349 17.6261L13.334 17.6572C13.334 18.0127 13.5747 18.3248 13.9185 18.4152" stroke="#1AC62F" stroke-width="1.5"/>
<path fill-rule="evenodd" clip-rule="evenodd" d="M9.25702 13.973C9.92888 13.973 10.4734 14.5163 10.4734 15.1867C10.4734 15.8571 9.92888 16.4004 9.25702 16.4004C8.58515 16.4004 8.0406 15.8571 8.0406 15.1867C8.0406 14.5163 8.58515 13.973 9.25702 13.973ZM8.76794 17.9352C10.0796 17.9352 11.093 17.167 11.4796 15.8805C11.7676 14.9194 11.9568 13.2171 9.97832 12.6106C9.70279 12.5263 9.42122 12.4832 9.13965 12.4832C8.34652 12.4836 7.55756 12.8285 6.9526 13.4048C6.7686 14.4957 6.67103 15.6116 6.63525 16.7433C7.03902 17.358 7.60449 17.7841 8.18854 17.8847C8.38322 17.9186 8.57837 17.9352 8.76794 17.9352Z" fill="#F2338A"/>
<path d="M11.4796 15.8805L12.2457 16.1107L12.2459 16.1102L11.4796 15.8805ZM9.97832 12.6106L10.2128 11.8458L10.2126 11.8457L9.97832 12.6106ZM9.13965 12.4832V11.6832L9.13918 11.6832L9.13965 12.4832ZM6.9526 13.4048L6.40082 12.8256L6.20803 13.0092L6.16374 13.2718L6.9526 13.4048ZM6.63525 16.7433L5.83565 16.718L5.82766 16.971L5.96659 17.1825L6.63525 16.7433ZM8.18854 17.8847L8.32556 17.0965L8.32434 17.0963L8.18854 17.8847ZM9.25702 14.773C9.48872 14.773 9.67344 14.9598 9.67344 15.1867H11.2734C11.2734 14.0728 10.369 13.173 9.25702 13.173V14.773ZM9.67344 15.1867C9.67344 15.4136 9.48872 15.6004 9.25702 15.6004V17.2004C10.369 17.2004 11.2734 16.3006 11.2734 15.1867H9.67344ZM9.25702 15.6004C9.02531 15.6004 8.8406 15.4136 8.8406 15.1867H7.2406C7.2406 16.3006 8.14499 17.2004 9.25702 17.2004V15.6004ZM8.8406 15.1867C8.8406 14.9598 9.02531 14.773 9.25702 14.773V13.173C8.14499 13.173 7.2406 14.0728 7.2406 15.1867H8.8406ZM8.76794 18.7352C10.4447 18.7352 11.761 17.7239 12.2457 16.1107L10.7134 15.6503C10.425 16.6102 9.7145 17.1352 8.76794 17.1352V18.7352ZM12.2459 16.1102C12.406 15.5759 12.572 14.7405 12.3524 13.9085C12.114 13.0052 11.4522 12.2257 10.2128 11.8458L9.74388 13.3755C10.4828 13.602 10.7157 13.9769 10.8054 14.3167C10.9138 14.7277 10.8412 15.224 10.7133 15.6508L12.2459 16.1102ZM10.2126 11.8457C9.86379 11.7389 9.50334 11.6832 9.13965 11.6832V13.2832C9.3391 13.2832 9.5418 13.3136 9.74407 13.3756L10.2126 11.8457ZM9.13918 11.6832C8.1167 11.6838 7.13603 12.1252 6.40082 12.8256L7.50439 13.9841C7.97909 13.5319 8.57633 13.2835 9.14012 13.2832L9.13918 11.6832ZM6.16374 13.2718C5.97264 14.4048 5.87234 15.5575 5.83565 16.718L7.43485 16.7686C7.46972 15.6658 7.56457 14.5866 7.74146 13.5379L6.16374 13.2718ZM5.96659 17.1825C6.45333 17.9236 7.18955 18.5244 8.05274 18.6731L8.32434 17.0963C8.01943 17.0438 7.62472 16.7925 7.30392 16.3041L5.96659 17.1825ZM8.05152 18.6729C8.29091 18.7145 8.5319 18.7352 8.76794 18.7352V17.1352C8.62484 17.1352 8.47553 17.1226 8.32556 17.0965L8.05152 18.6729Z" fill="#F2338A"/>
<ellipse cx="9.22503" cy="15.1891" rx="1.28118" ry="1.28118" fill="#1E1E1E"/>
<ellipse cx="20.7114" cy="15.1891" rx="1.28118" ry="1.28118" fill="#1E1E1E"/>
<path fill-rule="evenodd" clip-rule="evenodd" d="M19.5255 21.0792C17.3445 23.1066 12.7813 23.1038 10.6495 21.076C10.5032 20.9346 10.4957 20.6977 10.6398 20.5516C10.7796 20.4028 11.018 20.3959 11.1653 20.5382C13.0108 22.299 17.1247 22.2971 19.0218 20.5368C19.1738 20.3949 19.4075 20.4042 19.5487 20.5549C19.6872 20.7046 19.6798 20.9397 19.5255 21.0792Z" fill="white"/>
</g>
<path fill-rule="evenodd" clip-rule="evenodd" d="M12.1482 8.26087L14.5141 9.37818C14.9267 9.56038 15.2176 9.59747 15.6483 9.40321L19.3078 7.7444C19.6604 7.6234 19.8268 7.23628 19.6614 6.90295C19.5038 6.58537 19.1117 6.48477 18.8032 6.66001L15.4606 8.80191C15.3709 8.85198 15.3151 8.88118 15.2487 8.89648C15.0851 8.93311 14.8784 8.92476 14.6804 8.76203L12.8595 7.30119C12.6091 7.06521 12.2109 7.10601 11.9893 7.36934C11.7802 7.63082 11.8201 8.07821 12.1482 8.26087Z" fill="#0545B1"/>
</svg>
