<svg width="30" height="34" viewBox="0 0 30 34" fill="none" xmlns="http://www.w3.org/2000/svg">
<rect opacity="0.01" width="30" height="34" fill="#D8D8D8"/>
<path d="M20.1817 10C18.1624 10 16.3477 10.8782 15.0995 12.2734C15.0463 12.3336 14.9537 12.3336 14.9005 12.2734C13.6517 10.8782 11.8376 10 9.81831 10C6.05275 10 3 13.0527 3 16.8183C3 20.5839 6.05275 23.6366 9.81831 23.6366C11.8376 23.6366 13.6523 22.7584 14.9005 21.3632C14.9537 21.303 15.0463 21.303 15.0995 21.3632C16.3477 22.7584 18.1624 23.6366 20.1817 23.6366C23.9473 23.6366 27 20.5839 27 16.8183C27 13.0527 23.9473 10 20.1817 10ZM20.1817 20.3634C19.0906 20.3634 18.1795 19.8375 17.62 19.2438C17.4419 19.0543 17.2214 18.7946 16.9781 18.5741C16.8622 18.4689 16.7469 18.3751 16.6366 18.2902C16.1804 17.9652 15.6146 17.7719 15 17.7719C14.3854 17.7719 13.8196 17.9652 13.3634 18.2902C13.2525 18.3745 13.1378 18.4689 13.0219 18.5741C12.7786 18.7946 12.5581 19.0543 12.38 19.2438C11.8212 19.8375 10.9094 20.3634 9.81831 20.3634C9.79043 20.3634 9.76319 20.3621 9.73531 20.3615C9.68842 20.3602 9.64153 20.3589 9.59465 20.3558C9.56233 20.3539 9.53065 20.3507 9.49897 20.3482C9.47996 20.3469 9.46095 20.345 9.44258 20.3431C7.66086 20.1556 6.27261 18.6488 6.27261 16.8177V16.8329V16.8031V16.8183C6.27261 14.9878 7.66086 13.4811 9.44195 13.2929C9.46159 13.291 9.48186 13.2897 9.50214 13.2872C9.53255 13.2847 9.5636 13.2821 9.59401 13.2802C9.6409 13.2777 9.68779 13.2764 9.73594 13.2745C9.76319 13.2745 9.79043 13.2726 9.81768 13.2726C10.9088 13.2726 11.8199 13.7985 12.3794 14.3922C12.5574 14.5817 12.7779 14.8414 13.0212 15.0619C13.1372 15.1671 13.2525 15.2609 13.3627 15.3458C13.8189 15.6708 14.3848 15.8641 14.9994 15.8641C15.614 15.8641 16.1798 15.6708 16.636 15.3458C16.7469 15.2615 16.8616 15.1671 16.9775 15.0619C17.2208 14.8414 17.4413 14.5817 17.6194 14.3922C18.1782 13.7985 19.09 13.2726 20.1811 13.2726C20.2083 13.2726 20.2349 13.2739 20.2622 13.2745C20.3097 13.2758 20.3578 13.277 20.4047 13.2802C20.4345 13.2821 20.4649 13.284 20.4947 13.2872C20.5156 13.2885 20.5371 13.2904 20.5581 13.2929C22.2707 13.4741 23.6197 14.8744 23.7198 16.6105C23.7198 16.6219 23.7211 16.6333 23.7217 16.6441C23.723 16.6764 23.7236 16.7087 23.7242 16.741C23.7249 16.7892 23.7255 16.8373 23.7242 16.8855C23.7236 16.9216 23.7236 16.9583 23.7217 16.9945C23.7217 17.0021 23.7204 17.0097 23.7204 17.0173C23.6241 18.7565 22.2739 20.1619 20.5581 20.3431C20.5365 20.345 20.515 20.3469 20.4934 20.3488C20.4643 20.3513 20.4345 20.3539 20.4054 20.3558C20.3585 20.3583 20.3097 20.3596 20.2622 20.3615C20.2349 20.3615 20.2083 20.3634 20.1811 20.3634V20.3646L20.1817 20.3634Z" fill="#0545B1"/>
</svg>
