<svg width="30" height="34" viewBox="0 0 30 34" fill="none" xmlns="http://www.w3.org/2000/svg">
<rect opacity="0.01" width="30" height="34" fill="#D8D8D8"/>
<path fill-rule="evenodd" clip-rule="evenodd" d="M25 17.0611C25 11.5045 20.5229 7 15 7C9.47715 7 5 11.5045 5 17.0611C5 22.083 8.65686 26.2453 13.4375 27V19.9694H10.8984V17.0611H13.4375V14.8445C13.4375 12.323 14.9304 10.9301 17.2146 10.9301C18.3087 10.9301 19.4531 11.1266 19.4531 11.1266V13.6026H18.1921C16.9499 13.6026 16.5625 14.3782 16.5625 15.1738V17.0611H19.3359L18.8926 19.9694H16.5625V27C21.3431 26.2453 25 22.083 25 17.0611Z" fill="white"/>
</svg>
