<svg width="30" height="34" viewBox="0 0 30 34" fill="none" xmlns="http://www.w3.org/2000/svg">
<rect opacity="0.01" width="30" height="34" fill="#D8D8D8"/>
<path fill-rule="evenodd" clip-rule="evenodd" d="M20.1757 6.64755C19.8702 6.03174 19.1126 5.82357 18.5193 6.16053L15.1505 8.31824L15.1161 8.33663C15.0863 8.34416 15.0736 8.34183 15.045 8.31829L13.2188 6.85311C12.7604 6.41877 11.9821 6.48562 11.5497 6.99941C11.1061 7.55391 11.233 8.40862 11.8686 8.76254L13.1188 9.35334C12.0565 9.44805 10.9613 9.61915 9.92441 9.89198L9.59014 9.98451C9.21451 10.094 8.92384 10.1964 8.70916 10.2856L8.55278 10.3547C7.70314 10.7391 7.06028 11.3435 6.71592 12.1415C6.496 12.6511 7.0551 13.1453 7.53383 12.8644L7.61839 12.8148L7.69754 12.7722L7.8496 12.6954L7.95896 12.647L8.21167 12.554L8.30159 12.5261L8.48154 12.4797L8.65633 12.4442L8.73243 12.4333L8.9097 12.4121L9.02846 12.4049L9.17975 12.4032L9.29004 12.4075L9.44971 12.4208L9.58085 12.4386L9.76026 12.4707L9.88627 12.5005L10.0165 12.5374C10.7931 12.7755 11.3029 13.203 11.5548 13.7826C11.8009 14.3495 11.8059 15.0796 11.5584 15.9029C11.5324 15.9909 11.5018 16.0789 11.4645 16.174L11.3526 16.4269L11.2582 16.6021L11.1895 16.7162L11.118 16.823L11.041 16.9288L10.9614 17.0268L10.8408 17.1638L10.6643 17.3328L10.5548 17.4233L10.4911 17.4717L10.319 17.5874L10.1194 17.6998L9.90981 17.7959L9.74546 17.8574L9.60368 17.9016L9.51292 17.9257L9.44143 17.942L9.25752 17.9784L8.99786 18.0087L8.88419 18.0144L8.74871 18.0165L8.66633 18.0132L8.45092 18.0019L8.27461 17.9806L8.17385 17.9645C7.87133 17.9124 7.57109 17.7776 7.29002 17.5695L7.13137 17.4418L7.01716 17.331C6.68124 17.0075 6.13398 17.2004 6.05421 17.637L6.04443 17.7332C6.04398 19.7228 6.23836 21.6548 6.62302 23.5292C6.68082 23.8104 6.76639 24.065 6.87304 24.2928C7.00499 24.5748 7.14491 24.7721 7.25529 24.8877C7.66616 25.4287 8.30972 25.8439 9.03766 26.0075L9.18322 26.0362C11.1184 26.418 13.0971 26.6121 15.0993 26.6121C16.8877 26.6121 18.6583 26.4571 20.3977 26.1515L21.1284 26.0138C22.2915 25.7597 23.2096 24.89 23.5217 23.7624L23.5689 23.5659C23.9593 21.6559 24.1556 19.7191 24.1556 17.7567C24.1556 17.3261 24.1422 16.881 24.1159 16.3557C24.093 15.898 23.5695 15.6502 23.2009 15.9225L22.4492 16.4775C22.3356 16.5606 22.2318 16.6354 22.1318 16.706L21.8382 16.9089L21.5134 17.1236L21.2309 17.3034L20.8906 17.511L20.6384 17.6574L20.3886 17.7936C20.3677 17.8058 20.3491 17.8164 20.3315 17.8258L20.2284 17.8756L20.1105 17.919L20.0215 17.9453L19.9288 17.9661L19.8006 17.9875L19.714 17.9949L19.6152 17.9979L19.5621 17.9948L19.458 17.9824L19.3284 17.9528L19.261 17.9267C19.2086 17.9023 19.1599 17.8726 19.1161 17.8386C19.0762 17.8077 19.0389 17.7716 19.0032 17.73C18.971 17.6923 18.9413 17.6505 18.9137 17.6041L18.8675 17.5186C18.8532 17.489 18.8369 17.4492 18.8217 17.406L18.7806 17.268L18.7658 17.1946L18.7004 16.6339L18.6608 16.2336L18.6251 15.8193L18.5901 15.3456C18.5431 14.6419 18.5138 14.0133 18.5023 13.4082C18.5 13.2696 18.5204 13.1465 18.5592 13.0375C18.5752 12.9921 18.5947 12.9495 18.6194 12.9049L18.6651 12.8299C18.6932 12.7884 18.7397 12.7353 18.7873 12.6921L18.8477 12.643L18.914 12.6033L18.9766 12.572L19.0782 12.5321L19.1499 12.51L19.2159 12.4954L19.2892 12.4832L19.366 12.4759L19.4677 12.4722L19.5373 12.4789L19.6268 12.4909L19.7495 12.5193C19.7728 12.5261 19.81 12.5382 19.8419 12.5511L20.1413 12.6744L20.5955 12.8711L21.0178 13.0613L21.6171 13.3414L22.1685 13.6138L22.4297 13.7478C22.5122 13.7909 22.5979 13.8368 22.6887 13.8866L22.978 14.0486C23.3912 14.2837 23.8949 13.9437 23.8312 13.4725L23.7978 13.225C23.7599 12.9745 23.6842 12.6812 23.6148 12.4495C23.448 11.8703 23.0974 11.3824 22.6272 10.9833C22.317 10.7199 21.9946 10.5267 21.7048 10.3946L21.531 10.3202L21.4211 10.2773L21.1615 10.185L21.0136 10.1362L20.743 10.0514L20.2135 9.89823C19.1982 9.64192 18.1703 9.46181 17.1313 9.35984L19.5447 8.26739C20.1735 8.05439 20.4958 7.29273 20.1757 6.64755ZM14.7329 10.4128L15.158 10.409C16.7704 10.4132 18.3667 10.6166 19.9225 11.0092L20.1455 11.0723L20.4077 11.15L20.7928 11.2728L20.9139 11.3147L21.0955 11.383L21.2383 11.4441C21.4288 11.531 21.6631 11.6715 21.8838 11.8588L22.011 11.9741C22.1324 12.092 22.2365 12.2176 22.3209 12.3508L22.3653 12.4297L22.1145 12.306L21.4967 12.0172L21.0594 11.8202L20.5881 11.6161L20.2756 11.4874C20.1944 11.4546 20.1145 11.4285 20.0286 11.4052L19.8881 11.3724L19.7966 11.3553L19.6369 11.3351L19.4708 11.3249L19.2744 11.3314L19.1227 11.3472L18.9757 11.3726L18.8342 11.4063L18.686 11.453L18.5198 11.5184C18.4933 11.5305 18.4686 11.5422 18.4452 11.5537L18.3191 11.6201L18.2055 11.6906C18.1377 11.7374 18.0772 11.7851 18.0143 11.8423C17.8995 11.9467 17.7906 12.071 17.6946 12.2158L17.6254 12.3296C17.5601 12.4465 17.5139 12.5472 17.4763 12.6543C17.3922 12.8902 17.3491 13.1503 17.3538 13.4286C17.3657 14.055 17.3958 14.7013 17.4442 15.4245L17.462 15.6753L17.5174 16.3436L17.5587 16.7595L17.6341 17.3841L17.6652 17.5405L17.6956 17.6548C17.7369 17.7942 17.7864 17.9225 17.8485 18.0482L17.9159 18.1727C17.9865 18.2922 18.0541 18.3875 18.1306 18.4769C18.2154 18.576 18.3087 18.6659 18.4122 18.7463C18.5238 18.8327 18.6459 18.9073 18.7778 18.9686C18.8616 19.0074 18.9464 19.0374 19.0418 19.0646L19.1963 19.101L19.3044 19.1201L19.4848 19.1399L19.6209 19.1457L19.796 19.14L19.9583 19.1244L20.1609 19.0904L20.3231 19.0528L20.4808 19.0056L20.6595 18.9397C20.7863 18.8853 20.8732 18.8417 20.9533 18.793L20.9725 18.7843C21.0402 18.7483 21.1166 18.7064 21.2018 18.6582L21.4832 18.4948L21.8341 18.2807L22.1426 18.0844L22.4763 17.8638L22.7911 17.6465L23.005 17.4926L23.0069 17.7566C23.0069 19.6417 22.8185 21.5015 22.4475 23.3177L22.4095 23.476C22.2162 24.1729 21.6296 24.7285 20.8993 24.8883L20.1919 25.0213C18.5249 25.3142 16.8209 25.4633 15.0993 25.4633C13.386 25.4633 11.691 25.3158 10.0272 25.0249L9.27401 24.8834C8.87544 24.7937 8.50652 24.5742 8.22687 24.2626L8.08512 24.0927C8.0301 24.0236 7.97427 23.936 7.91334 23.8058C7.84424 23.6582 7.78744 23.4892 7.74814 23.298L7.63191 22.6966C7.41299 21.4898 7.27533 20.2589 7.22018 19.0103L7.21467 18.8542L7.35771 18.9179C7.55936 18.9998 7.76703 19.0599 7.97884 19.0964C8.11317 19.1195 8.24383 19.1367 8.37231 19.1476L8.74185 19.1647L8.92978 19.1618L9.10235 19.1519L9.43985 19.1115L9.68409 19.0645L9.79383 19.0392L9.92841 19.003L10.1239 18.9414L10.3492 18.8565L10.5668 18.76L10.715 18.6834L10.8695 18.5967L11.0508 18.4808L11.1564 18.4077C11.2663 18.327 11.3561 18.2543 11.4421 18.1777L11.5957 18.0319L11.6811 17.9461L11.8416 17.7643L11.9545 17.6244L12.0623 17.4764L12.1616 17.3274L12.2577 17.1674L12.3744 16.9509L12.4476 16.7944L12.5269 16.61C12.5826 16.4687 12.624 16.3499 12.6592 16.2309C12.9789 15.1671 12.972 14.1628 12.6083 13.3248C12.2168 12.4242 11.4391 11.772 10.3391 11.435L10.1694 11.3875L9.98833 11.3452L9.75401 11.3032L9.56898 11.2787L9.36705 11.2617L9.6039 11.1814L9.90416 11.0893L10.2238 11.0008C11.6824 10.617 13.3036 10.4457 14.7329 10.4128Z" fill="white"/>
<rect x="10.1528" y="19.8281" width="9.71928" height="3.53428" fill="white"/>
<path fill-rule="evenodd" clip-rule="evenodd" d="M23.8956 13.7068C23.9222 13.9357 23.939 14.08 23.8807 13.5493C23.9007 13.7113 23.9186 13.8551 23.9347 13.9843C24.0682 15.0583 24.0772 15.1306 24.1609 16.3843C24.1837 16.8391 24.1999 17.2962 24.1999 17.7566C24.1999 19.701 24.0034 21.599 23.6289 23.4326L23.6289 23.4327C23.6279 23.4368 23.627 23.441 23.6266 23.4447C23.4198 24.4433 22.6369 25.2314 21.6407 25.4493C21.6147 25.4547 21.5886 25.4599 21.5629 25.4649L21.5478 25.4679C19.6623 25.8411 17.7131 26.0376 15.7179 26.0376C15.5113 26.0376 15.3051 26.0355 15.0994 26.0313C14.8938 26.0355 14.6877 26.0376 14.481 26.0376C12.4942 26.0376 10.553 25.8429 8.67539 25.4725C8.65158 25.468 8.62791 25.4633 8.60431 25.4586C8.5846 25.4547 8.56494 25.4508 8.54529 25.447C7.94079 25.3112 7.41668 24.9658 7.0524 24.491C7.0524 24.491 6.71647 24.1392 6.56732 23.4136C6.19236 21.5865 6 19.6936 6 17.7561C6 17.7549 6 17.4962 6.00621 17.0942C6.02111 16.1291 6.0718 14.338 6.24419 13.3017C6.2544 13.2404 6.53895 12.3624 6.56732 12.3077C6.8788 11.7072 7.53926 11.1637 8.1759 10.8756C8.1759 10.8756 8.56991 10.6795 9.45226 10.4473C11.8503 9.81629 14.4225 9.83484 14.4225 9.83484H14.5387C14.7347 9.83532 14.93 9.83866 15.1247 9.8448C15.4617 9.83341 15.6594 9.83483 15.6594 9.83483H15.7756C17.4682 9.83901 19.1112 10.056 20.6817 10.4524C20.6817 10.4524 21.5938 10.6999 22.0175 10.8877C22.0175 10.8877 23.3352 11.4056 23.6832 12.6142C23.6967 12.6592 23.8064 13.0319 23.8473 13.3017C23.8525 13.336 23.8766 13.543 23.8956 13.7068Z" fill="white"/>
<path fill-rule="evenodd" clip-rule="evenodd" d="M23.2624 13.5494C23.3624 14.4598 23.2415 13.3839 23.229 13.3019C23.1881 13.032 23.0785 12.6593 23.065 12.6143C22.717 11.4057 21.3992 10.8878 21.3992 10.8878C20.9755 10.7001 20.0634 10.4525 20.0634 10.4525C18.4929 10.0561 16.85 9.83913 15.1573 9.83495H15.0411C15.0411 9.83495 12.4689 9.81641 10.0709 10.4474C9.18856 10.6797 8.79455 10.8758 8.79455 10.8758C8.15791 11.1639 7.49745 11.7073 7.18598 12.3078C7.1576 12.3625 6.87305 13.2405 6.86284 13.3019C6.69045 14.3381 6.63976 16.1292 6.62486 17.0943C6.61865 17.4963 6.61865 17.755 6.61865 17.7562C6.61865 19.6937 6.81101 21.5866 7.18598 23.4137C7.33512 24.1393 7.67106 24.4911 7.67106 24.4911C8.03533 24.9659 8.55945 25.3113 9.16394 25.4471C9.20715 25.4555 9.25036 25.4643 9.29404 25.4726C11.1716 25.843 13.1129 26.0378 15.0997 26.0378C17.0948 26.0378 19.044 25.8412 20.9295 25.468C20.9602 25.462 20.9913 25.4559 21.0224 25.4494C22.0186 25.2315 22.8015 24.4434 23.0083 23.4448C23.0088 23.4411 23.0097 23.4369 23.0106 23.4327C23.3851 21.5991 23.5817 19.7011 23.5817 17.7567C23.5817 17.2963 23.5654 16.8392 23.5426 16.3844C23.4489 14.9799 23.4489 15.0582 23.2624 13.5494Z" fill="#0545B1"/>
<mask id="mask0_7183_7317" style="mask-type:luminance" maskUnits="userSpaceOnUse" x="6" y="9" width="18" height="18">
<path fill-rule="evenodd" clip-rule="evenodd" d="M23.2624 13.5494C23.3624 14.4598 23.2415 13.3839 23.229 13.3019C23.1881 13.032 23.0785 12.6593 23.065 12.6143C22.717 11.4057 21.3992 10.8878 21.3992 10.8878C20.9755 10.7001 20.0634 10.4525 20.0634 10.4525C18.4929 10.0561 16.85 9.83913 15.1573 9.83495H15.0411C15.0411 9.83495 12.4689 9.81641 10.0709 10.4474C9.18856 10.6797 8.79455 10.8758 8.79455 10.8758C8.15791 11.1639 7.49745 11.7073 7.18598 12.3078C7.1576 12.3625 6.87305 13.2405 6.86284 13.3019C6.69045 14.3381 6.63976 16.1292 6.62486 17.0943C6.61865 17.4963 6.61865 17.755 6.61865 17.7562C6.61865 19.6937 6.81101 21.5866 7.18598 23.4137C7.33512 24.1393 7.67106 24.4911 7.67106 24.4911C8.03533 24.9659 8.55945 25.3113 9.16394 25.4471C9.20715 25.4555 9.25036 25.4643 9.29404 25.4726C11.1716 25.843 13.1129 26.0378 15.0997 26.0378C17.0948 26.0378 19.044 25.8412 20.9295 25.468C20.9602 25.462 20.9913 25.4559 21.0224 25.4494C22.0186 25.2315 22.8015 24.4434 23.0083 23.4448C23.0088 23.4411 23.0097 23.4369 23.0106 23.4327C23.3851 21.5991 23.5817 19.7011 23.5817 17.7567C23.5817 17.2963 23.5654 16.8392 23.5426 16.3844C23.4489 14.9799 23.4489 15.0582 23.2624 13.5494Z" fill="white"/>
</mask>
<g mask="url(#mask0_7183_7317)">
<path fill-rule="evenodd" clip-rule="evenodd" d="M19.5259 21.0797C17.3449 23.107 12.7817 23.1043 10.65 21.0764C10.5036 20.935 10.4962 20.6981 10.6402 20.5521C10.7801 20.4032 11.0184 20.3963 11.1657 20.5386C13.0113 22.2994 17.1252 22.2976 19.0223 20.5372C19.1742 20.3954 19.4079 20.4046 19.5492 20.5553C19.6876 20.7051 19.6802 20.9401 19.5259 21.0797ZM12.6794 17.6026C12.6798 17.5869 12.6808 17.5711 12.6817 17.5554L12.6845 17.5229L12.6873 17.4905L12.8146 16.1052L12.9414 14.7194L12.9549 14.5702C12.9623 14.5215 12.9716 14.4737 12.9832 14.4264C13.0186 14.2874 13.0734 14.1561 13.1463 14.0365C13.2904 13.7968 13.5032 13.6026 13.7569 13.4802C13.8837 13.4195 14.0212 13.3764 14.1657 13.3546C14.2331 13.3444 14.3028 13.3388 14.3734 13.3383H14.392H15.791H15.8101C15.8849 13.3388 15.9578 13.3467 16.0299 13.3583C16.0364 13.3592 16.0433 13.3592 16.0498 13.3601C16.4722 13.4334 16.8309 13.6898 17.0419 14.0444C17.1125 14.1626 17.1664 14.2915 17.2003 14.4288C17.2147 14.4872 17.2258 14.547 17.2328 14.6082L17.2402 14.6865L17.4707 17.222L17.4939 17.4756L17.5037 17.586C17.5042 17.5915 17.5042 17.5971 17.5042 17.6026C17.5051 17.6212 17.5056 17.6393 17.5056 17.6574C17.5056 18.2823 17.1069 18.8136 16.5493 19.013C16.4699 19.0412 16.3867 19.063 16.3017 19.0774C16.225 19.0899 16.1465 19.0969 16.0666 19.0969H16.0596H14.1239H14.117C14.0538 19.0969 13.9915 19.0927 13.9306 19.0848C13.8693 19.0765 13.8094 19.0649 13.7513 19.0496C13.5966 19.0088 13.4525 18.943 13.3224 18.8572C13.1933 18.7714 13.0785 18.6648 12.9828 18.5429C12.8871 18.4209 12.8109 18.2828 12.7588 18.1339C12.7058 17.9847 12.6775 17.8243 12.6775 17.6574C12.6775 17.6393 12.6784 17.6212 12.6794 17.6026ZM23.5426 16.3846C23.3484 16.5274 23.1579 16.6683 22.9693 16.8083C22.7086 17.0012 22.4456 17.1922 22.1599 17.3851C21.9294 17.5404 21.7203 17.6753 21.5354 17.7907C20.9829 18.1361 20.6554 18.3026 20.6554 18.3026C20.5959 18.3387 20.5285 18.3716 20.4584 18.4022C20.4365 18.4115 20.4133 18.4194 20.3905 18.4282C20.3394 18.4481 20.2864 18.4667 20.2311 18.4829C20.2042 18.4908 20.1773 18.4982 20.1498 18.5052C20.0918 18.52 20.0327 18.5311 19.9723 18.5413C19.9477 18.5455 19.924 18.5501 19.9003 18.5534C19.8153 18.5645 19.7303 18.571 19.6452 18.5715C19.6434 18.5715 19.6415 18.5719 19.6392 18.5719C19.5755 18.5719 19.5133 18.5678 19.4506 18.5608C19.4334 18.5589 19.4162 18.5562 19.399 18.5538C19.3497 18.5469 19.3014 18.5376 19.254 18.526C19.2354 18.5219 19.2178 18.5177 19.1997 18.5126C19.1379 18.495 19.0775 18.4746 19.0203 18.4481C18.9246 18.4036 18.8396 18.3508 18.7648 18.2928C18.6895 18.2344 18.6244 18.1704 18.5673 18.1037C18.5101 18.0369 18.4618 17.9674 18.4205 17.8978C18.4 17.8635 18.381 17.8283 18.3638 17.794C18.3127 17.6906 18.276 17.5909 18.2499 17.5033C18.2323 17.4449 18.2197 17.3916 18.2109 17.3475C18.2063 17.3248 18.2025 17.3049 18.1998 17.2873C18.1937 17.2516 18.1909 17.2256 18.1895 17.2126C18.1886 17.2061 18.1886 17.2029 18.1886 17.2029C18.1886 17.2029 18.1821 17.1574 18.1723 17.0721C18.1668 17.0295 18.1607 16.9771 18.1538 16.9154C18.1505 16.8844 18.1463 16.851 18.1426 16.8158C18.1352 16.7448 18.1263 16.6655 18.1175 16.5775C18.1087 16.4898 18.0994 16.3939 18.0896 16.2905C18.0655 16.0318 18.0408 15.7267 18.0176 15.3864C17.9735 14.7267 17.9409 14.0753 17.9284 13.4193C17.9247 13.1963 17.9614 13.0053 18.0185 12.8449C18.0469 12.7642 18.0813 12.6919 18.1175 12.6266C18.1356 12.5936 18.1547 12.5626 18.1737 12.5334C18.2509 12.417 18.3336 12.3289 18.4014 12.2673C18.4864 12.1898 18.5482 12.1532 18.5482 12.1532C18.6072 12.1152 18.6695 12.0818 18.7341 12.0517C18.7545 12.0424 18.7759 12.035 18.7963 12.0262C18.8414 12.0076 18.8874 11.99 18.9343 11.9752C18.9594 11.9673 18.9845 11.9608 19.0101 11.9543C19.0556 11.9423 19.1016 11.9325 19.1485 11.9246C19.1741 11.9205 19.1997 11.9158 19.2257 11.9126C19.2768 11.9061 19.3279 11.9033 19.3804 11.9019C19.3971 11.9015 19.4134 11.8982 19.4306 11.8982C19.4371 11.8982 19.4436 11.8991 19.4501 11.8991C19.4682 11.8991 19.4859 11.901 19.504 11.9015C19.5472 11.9038 19.5899 11.9066 19.6327 11.9121C19.6536 11.9144 19.6745 11.9172 19.6959 11.9209C19.7382 11.9274 19.7805 11.9362 19.8232 11.9464C19.8418 11.9506 19.8604 11.9543 19.879 11.9599C19.9389 11.9761 19.9988 11.9951 20.0574 12.0188C20.1554 12.0582 20.2572 12.0999 20.3603 12.1435C20.515 12.2084 20.6726 12.277 20.824 12.3442C21.1781 12.5009 21.501 12.6511 21.6896 12.7397C21.7974 12.7907 21.8606 12.8213 21.8606 12.8213C22.1534 12.9641 22.4228 13.0962 22.6961 13.239C22.8791 13.3345 23.0678 13.4388 23.2624 13.5496C23.2508 13.4675 23.2415 13.3841 23.229 13.302C23.1881 13.0322 23.0785 12.6595 23.065 12.6145C22.717 11.4059 21.3992 10.888 21.3992 10.888C20.9755 10.7002 20.0634 10.4527 20.0634 10.4527C18.4929 10.0563 16.85 9.83931 15.1573 9.83514H15.0411C15.0411 9.83514 12.4689 9.8166 10.0709 10.4476C9.18856 10.6798 8.79455 10.876 8.79455 10.876C8.09992 11.1903 7.54049 11.6812 7.24359 12.3692C7.27193 12.3526 7.29981 12.3359 7.32815 12.3196C7.39135 12.2839 7.45593 12.2506 7.52144 12.2181C7.54421 12.2065 7.56698 12.1945 7.59021 12.1833C7.67849 12.1416 7.76863 12.1031 7.86063 12.0684C7.88107 12.06 7.90245 12.054 7.92382 12.0466C7.99584 12.0201 8.06832 11.996 8.14174 11.9747C8.17472 11.965 8.20771 11.9566 8.2407 11.9478C8.30529 11.9311 8.36987 11.9158 8.43585 11.9024C8.4707 11.895 8.50508 11.888 8.54039 11.882C8.61009 11.8699 8.68025 11.8607 8.75088 11.8528C8.78061 11.8491 8.81035 11.8449 8.84102 11.8421C8.93998 11.8338 9.03988 11.8282 9.13978 11.8282C9.14164 11.8282 9.14349 11.8282 9.14535 11.8282C9.15418 11.8282 9.16208 11.8291 9.17091 11.8291C9.26291 11.8301 9.35537 11.8356 9.44923 11.8435C9.47989 11.8463 9.51102 11.8505 9.54215 11.8542C9.61743 11.863 9.6927 11.8741 9.76797 11.888C9.79863 11.894 9.8293 11.8987 9.85997 11.9052C9.96358 11.927 10.0672 11.9525 10.1708 11.984L10.1713 11.9844C11.1475 12.2835 11.7715 12.8398 12.0819 13.5538C12.3918 14.2677 12.3881 15.1393 12.1088 16.0684C12.0768 16.1769 12.0396 16.2817 11.9996 16.3837C11.9861 16.4171 11.9713 16.4486 11.9578 16.481C11.929 16.5487 11.9002 16.6155 11.8686 16.6799C11.85 16.7165 11.8305 16.7522 11.8114 16.7879C11.7808 16.8454 11.7496 16.9025 11.7157 16.9572C11.6948 16.9933 11.6721 17.0281 11.6493 17.0624C11.6154 17.1153 11.5796 17.1663 11.5429 17.2163C11.5192 17.2492 11.495 17.2817 11.4699 17.3132C11.4304 17.3628 11.3896 17.4106 11.3482 17.4579C11.3236 17.4861 11.299 17.5149 11.2734 17.5422C11.2255 17.5928 11.1754 17.6405 11.1252 17.6874C11.1033 17.7078 11.0829 17.7291 11.0606 17.749C10.9872 17.8144 10.911 17.876 10.8325 17.934C10.8222 17.9419 10.8102 17.9484 10.7999 17.9562C10.7312 18.0054 10.661 18.0522 10.5894 18.0958C10.5606 18.1134 10.5309 18.1287 10.5016 18.1449C10.4459 18.1769 10.3897 18.208 10.332 18.2363C10.2981 18.253 10.2628 18.2683 10.228 18.284C10.1731 18.3086 10.1178 18.3322 10.0616 18.354C10.0249 18.3679 9.98774 18.3814 9.95011 18.3944C9.89342 18.4138 9.83627 18.4324 9.77819 18.4491C9.74009 18.4597 9.70245 18.4709 9.66389 18.4801C9.60349 18.4954 9.54122 18.5084 9.47896 18.5205C9.44272 18.5279 9.40694 18.5358 9.37024 18.5418C9.29729 18.5538 9.22341 18.5622 9.14953 18.5696C9.12212 18.5724 9.09564 18.577 9.06822 18.5789C8.96926 18.5868 8.86936 18.5909 8.76853 18.5909C8.76574 18.5909 8.76296 18.5909 8.76017 18.5909C8.68629 18.5905 8.61148 18.5854 8.53668 18.5812C8.49811 18.5789 8.46048 18.5789 8.42145 18.5756C8.30715 18.5659 8.19238 18.5506 8.07669 18.5307C7.60276 18.4491 7.16135 18.2205 6.78035 17.8978C6.72413 17.8501 6.67255 17.7963 6.61912 17.7448C6.61912 17.7485 6.61865 17.7523 6.61865 17.7564C6.61865 19.6939 6.81101 21.5868 7.18598 23.4139C7.33512 24.1395 7.67106 24.4913 7.67106 24.4913C8.03533 24.9661 8.55945 25.3115 9.16394 25.4473C9.20715 25.4557 9.25036 25.4645 9.29404 25.4728C11.1716 25.8432 13.1129 26.0379 15.0997 26.0379C17.0948 26.0379 19.044 25.8414 20.9295 25.4682C20.9602 25.4621 20.9913 25.4561 21.0224 25.4496C22.0186 25.2317 22.8015 24.4436 23.0083 23.445C23.0088 23.4413 23.0097 23.4371 23.0106 23.4329C23.3851 21.5993 23.5817 19.7013 23.5817 17.7569C23.5817 17.2965 23.5654 16.8394 23.5426 16.3846Z" fill="#1C5DCC"/>
<path fill-rule="evenodd" clip-rule="evenodd" d="M20.6682 16.4006C19.9968 16.4006 19.4518 15.8572 19.4518 15.1869C19.4518 14.5165 19.9968 13.9731 20.6682 13.9731C21.3401 13.9731 21.8847 14.5165 21.8847 15.1869C21.8847 15.8572 21.3401 16.4006 20.6682 16.4006ZM23.2808 14.3139L23.2669 14.3069L23.2413 14.2949L23.2171 14.2805C22.6452 13.9388 22.1945 13.714 21.5714 13.4094C21.5663 13.4066 20.5687 12.9291 19.8127 12.6268C19.6905 12.5781 19.5623 12.5535 19.4303 12.5535C19.2408 12.5535 19.0544 12.6064 18.9067 12.7023L18.8872 12.7149C18.8323 12.7543 18.5768 12.9601 18.5852 13.407C18.5958 13.9977 18.6242 14.6129 18.673 15.3426C18.7431 16.3941 18.8384 17.1085 18.8393 17.1155L18.8416 17.135L18.843 17.1544C18.8449 17.1679 18.8988 17.669 19.297 17.8536C19.3853 17.8948 19.5038 17.9166 19.639 17.9166C19.9089 17.9166 20.1714 17.8299 20.3113 17.7437L20.3336 17.7302L20.3568 17.7186C20.3619 17.7159 20.9209 17.4289 21.7921 16.8419C22.1494 16.6009 22.4686 16.363 22.8073 16.1118C22.9941 15.9727 23.1828 15.8322 23.3807 15.6894C23.4239 15.6588 23.4583 15.6231 23.4927 15.5874C23.4611 15.1804 23.4216 14.7756 23.3733 14.3732C23.357 14.3621 23.3426 14.3486 23.3254 14.3384C23.3105 14.3301 23.2957 14.3217 23.2808 14.3139Z" fill="#00BBED"/>
<path d="M23.2669 14.3069L23.6017 13.6358L23.5943 13.6321L23.5868 13.6286L23.2669 14.3069ZM23.2413 14.2949L22.8579 14.9394L22.8888 14.9578L22.9213 14.9732L23.2413 14.2949ZM23.2171 14.2805L22.8325 14.9244L22.8337 14.9251L23.2171 14.2805ZM21.5714 13.4094L21.2129 14.0681L21.2273 14.076L21.242 14.0832L21.5714 13.4094ZM19.8127 12.6268L20.0912 11.9304L20.0903 11.93L19.8127 12.6268ZM18.9067 12.7023L19.3116 13.3336L19.3152 13.3313L18.9067 12.7023ZM18.8872 12.7149L18.4822 12.0836L18.4656 12.0943L18.4494 12.1059L18.8872 12.7149ZM18.5852 13.407L19.335 13.3935L19.335 13.393L18.5852 13.407ZM18.673 15.3426L19.4213 15.2927L19.4213 15.2926L18.673 15.3426ZM18.8393 17.1155L19.5841 17.0266L19.5827 17.0161L18.8393 17.1155ZM18.8416 17.135L19.5897 17.0814L19.5885 17.0637L19.5864 17.0461L18.8416 17.135ZM18.843 17.1544L18.095 17.208L18.0967 17.2326L18.1001 17.2571L18.843 17.1544ZM19.297 17.8536L19.6146 17.1741L19.6123 17.1731L19.297 17.8536ZM20.3113 17.7437L19.9241 17.1013L19.9177 17.1053L20.3113 17.7437ZM20.3336 17.7302L19.9988 17.0591L19.972 17.0725L19.9464 17.0879L20.3336 17.7302ZM20.3568 17.7186L20.6916 18.3898L20.7036 18.3838L20.7154 18.3774L20.3568 17.7186ZM21.7921 16.8419L22.2111 17.464L22.2116 17.4637L21.7921 16.8419ZM22.8073 16.1118L23.2542 16.7141L23.2553 16.7133L22.8073 16.1118ZM23.3807 15.6894L22.9472 15.0773L22.9419 15.0812L23.3807 15.6894ZM23.4927 15.5874L24.0329 16.1077L24.2665 15.8651L24.2404 15.5294L23.4927 15.5874ZM23.3733 14.3732L24.1179 14.2838L24.0774 13.9462L23.7968 13.7542L23.3733 14.3732ZM23.3254 14.3384L23.7081 13.6934L23.7003 13.6888L23.6925 13.6844L23.3254 14.3384ZM20.6682 15.6506C20.4093 15.6506 20.2018 15.4413 20.2018 15.1869H18.7018C18.7018 16.2732 19.5844 17.1506 20.6682 17.1506V15.6506ZM20.2018 15.1869C20.2018 14.9324 20.4093 14.7231 20.6682 14.7231V13.2231C19.5844 13.2231 18.7018 14.1005 18.7018 15.1869H20.2018ZM20.6682 14.7231C20.9274 14.7231 21.1347 14.9323 21.1347 15.1869H22.6347C22.6347 14.1007 21.7528 13.2231 20.6682 13.2231V14.7231ZM21.1347 15.1869C21.1347 15.4415 20.9274 15.6506 20.6682 15.6506V17.1506C21.7528 17.1506 22.6347 16.273 22.6347 15.1869H21.1347ZM23.6156 13.6427L23.6017 13.6358L22.932 14.978L22.946 14.985L23.6156 13.6427ZM23.5868 13.6286L23.5613 13.6165L22.9213 14.9732L22.9469 14.9852L23.5868 13.6286ZM23.6247 13.6503L23.6006 13.6359L22.8337 14.9251L22.8579 14.9394L23.6247 13.6503ZM23.6018 13.6366C23.0013 13.2779 22.5269 13.0417 21.9008 12.7356L21.242 14.0832C21.862 14.3863 22.289 14.5997 22.8325 14.9243L23.6018 13.6366ZM21.9299 12.7506C21.8904 12.7291 20.8638 12.2393 20.0912 11.9304L19.5343 13.3232C20.2736 13.6188 21.2422 14.0841 21.2129 14.0681L21.9299 12.7506ZM20.0903 11.93C19.8795 11.8461 19.6571 11.8035 19.4303 11.8035V13.3035C19.4675 13.3035 19.5015 13.3101 19.5352 13.3235L20.0903 11.93ZM19.4303 11.8035C19.1077 11.8035 18.7772 11.8922 18.4982 12.0734L19.3152 13.3313C19.3317 13.3206 19.3738 13.3035 19.4303 13.3035V11.8035ZM18.5018 12.0711L18.4822 12.0836L19.2921 13.3462L19.3116 13.3336L18.5018 12.0711ZM18.4494 12.1059C18.2853 12.2238 17.8206 12.6339 17.8353 13.4211L19.335 13.393C19.3343 13.355 19.3392 13.3325 19.3423 13.3219C19.3454 13.3109 19.3486 13.3054 19.3496 13.3037C19.3529 13.2985 19.3513 13.3049 19.3249 13.3239L18.4494 12.1059ZM17.8353 13.4206C17.8462 14.0263 17.8753 14.6541 17.9246 15.3927L19.4213 15.2926C19.3731 14.5717 19.3455 13.9691 19.335 13.3935L17.8353 13.4206ZM17.9246 15.3926C17.9962 16.4652 18.0935 17.1968 18.0959 17.2148L19.5827 17.0161C19.5833 17.0202 19.4901 16.323 19.4213 15.2927L17.9246 15.3926ZM18.0946 17.2043L18.0969 17.2238L19.5864 17.0461L19.584 17.0266L18.0946 17.2043ZM18.0936 17.1885L18.095 17.208L19.5911 17.1009L19.5897 17.0814L18.0936 17.1885ZM18.1001 17.2571C18.0997 17.2541 18.1073 17.3194 18.1267 17.4065C18.1456 17.4911 18.1773 17.6059 18.2307 17.7321C18.3335 17.9751 18.5495 18.3338 18.9817 18.534L19.6123 17.1731C19.6275 17.1801 19.6349 17.1888 19.634 17.1876C19.6312 17.1843 19.6224 17.172 19.6121 17.1476C19.602 17.1238 19.595 17.0992 19.5908 17.0802C19.5888 17.0714 19.5878 17.0655 19.5875 17.0635C19.5874 17.0626 19.5874 17.0625 19.5875 17.0633C19.5875 17.0637 19.5876 17.064 19.5876 17.064C19.5874 17.0625 19.5877 17.065 19.5874 17.0625C19.5873 17.0621 19.5872 17.061 19.587 17.0596C19.5869 17.0586 19.5865 17.0556 19.586 17.0517L18.1001 17.2571ZM18.9794 18.533C19.1981 18.6352 19.4343 18.6666 19.639 18.6666V17.1666C19.6107 17.1666 19.5933 17.1643 19.5863 17.163C19.5831 17.1624 19.5838 17.1623 19.5881 17.1636C19.5923 17.1649 19.6015 17.168 19.6146 17.1741L18.9794 18.533ZM19.639 18.6666C20.0423 18.6666 20.442 18.5442 20.7049 18.3821L19.9177 17.1053C19.9208 17.1033 19.8887 17.1217 19.8232 17.1398C19.7618 17.1569 19.6965 17.1666 19.639 17.1666V18.6666ZM20.6985 18.386L20.7208 18.3725L19.9464 17.0879L19.9241 17.1014L20.6985 18.386ZM20.6684 18.4013L20.6916 18.3898L20.022 17.0475L19.9988 17.0591L20.6684 18.4013ZM20.7154 18.3774C20.7077 18.3816 20.8656 18.3001 21.1277 18.1471C21.3896 17.9943 21.7609 17.7673 22.2111 17.464L21.373 16.2199C20.5332 16.7857 20.0008 17.0585 19.9983 17.0599L20.7154 18.3774ZM22.2116 17.4637C22.5853 17.2115 22.9183 16.9633 23.2542 16.7141L22.3605 15.5094C22.0189 15.7628 21.7135 15.9902 21.3726 16.2202L22.2116 17.4637ZM23.2553 16.7133C23.4427 16.5738 23.6269 16.4366 23.8195 16.2976L22.9419 15.0812C22.7386 15.2278 22.5456 15.3716 22.3594 15.5102L23.2553 16.7133ZM23.8141 16.3015C23.9237 16.2239 24.0044 16.1372 24.0329 16.1077L22.9525 15.0671C22.9434 15.0766 22.938 15.0822 22.9331 15.0871C22.9285 15.0917 22.9265 15.0936 22.9261 15.0941C22.9254 15.0947 22.9331 15.0874 22.9473 15.0773L23.8141 16.3015ZM24.2404 15.5294C24.2081 15.1125 24.1676 14.6973 24.1179 14.2838L22.6286 14.4626C22.6756 14.854 22.7141 15.2482 22.7449 15.6455L24.2404 15.5294ZM23.7968 13.7542C23.8077 13.7617 23.8152 13.7675 23.8167 13.7686C23.8175 13.7692 23.8177 13.7693 23.8162 13.7682C23.8155 13.7677 23.8118 13.7648 23.8089 13.7625C23.7976 13.7537 23.759 13.7236 23.7081 13.6934L22.9427 14.9835C22.9246 14.9727 22.9107 14.9632 22.9023 14.9572C22.8981 14.9542 22.8949 14.9518 22.8929 14.9503C22.8911 14.9489 22.89 14.9481 22.8905 14.9485C22.8907 14.9486 22.891 14.9489 22.8918 14.9495C22.8919 14.9496 22.8941 14.9513 22.8948 14.9518C22.8972 14.9537 22.9013 14.9569 22.906 14.9605C22.9153 14.9675 22.9307 14.9791 22.9497 14.9922L23.7968 13.7542ZM23.6925 13.6844C23.679 13.6768 23.6562 13.664 23.6321 13.6512L22.9295 14.9765C22.9351 14.9795 22.9421 14.9833 22.9583 14.9925L23.6925 13.6844Z" fill="#00BBED"/>
<path fill-rule="evenodd" clip-rule="evenodd" d="M13.9185 18.4153C13.9835 18.4325 14.0505 18.4413 14.1183 18.4413H16.0591C16.1069 18.4413 16.1502 18.4376 16.1934 18.4306C16.573 18.3671 16.849 18.0421 16.849 17.6573L16.848 17.6291L16.8476 17.6235L16.8392 17.5345L16.5855 14.7454L16.5799 14.6772C16.5758 14.6462 16.5697 14.6156 16.5628 14.5868C16.4875 14.2869 16.2422 14.0588 15.9369 14.0055C15.8932 13.998 15.8495 13.9939 15.8068 13.9934H15.7905H14.392H14.3734C14.3381 13.9939 14.3 13.9967 14.2633 14.0022C13.9547 14.049 13.6959 14.2832 13.6202 14.5859C13.6151 14.6068 13.6104 14.6281 13.6072 14.6494L13.5951 14.7788L13.3414 17.5502L13.3363 17.605L13.3349 17.6263L13.334 17.6573C13.334 18.0129 13.5747 18.3249 13.9185 18.4153Z" fill="#1AC62F"/>
<path d="M13.9185 18.4153C13.9835 18.4325 14.0505 18.4413 14.1183 18.4413H16.0591C16.1069 18.4413 16.1502 18.4376 16.1934 18.4306C16.573 18.3671 16.849 18.0421 16.849 17.6573L16.848 17.6291L16.8476 17.6235L16.8392 17.5345L16.5855 14.7454L16.5799 14.6772C16.5758 14.6462 16.5697 14.6156 16.5628 14.5868C16.4875 14.2869 16.2422 14.0588 15.9369 14.0055C15.8932 13.998 15.8495 13.9939 15.8068 13.9934H15.7905H14.392H14.3734C14.3381 13.9939 14.3 13.9967 14.2633 14.0022C13.9547 14.049 13.6959 14.2832 13.6202 14.5859C13.6151 14.6068 13.6104 14.6281 13.6072 14.6494L13.5951 14.7788L13.3414 17.5502L13.3363 17.605L13.3349 17.6263L13.334 17.6573C13.334 18.0129 13.5747 18.3249 13.9185 18.4153" stroke="#1AC62F" stroke-width="1.5"/>
<path fill-rule="evenodd" clip-rule="evenodd" d="M9.25734 13.9728C9.9292 13.9728 10.4738 14.5162 10.4738 15.1866C10.4738 15.857 9.9292 16.4003 9.25734 16.4003C8.58547 16.4003 8.04091 15.857 8.04091 15.1866C8.04091 14.5162 8.58547 13.9728 9.25734 13.9728ZM8.76843 17.9355C10.0801 17.9355 11.0935 17.1673 11.4801 15.8808C11.7681 14.9197 11.9572 13.2173 9.97881 12.6109C9.70328 12.5265 9.42171 12.4834 9.14014 12.4834C8.347 12.4839 7.55805 12.8288 6.95309 13.4051C6.76909 14.4959 6.67152 15.6119 6.63574 16.7435C7.03951 17.3583 7.60498 17.7843 8.18903 17.885C8.38371 17.9188 8.57886 17.9355 8.76843 17.9355Z" fill="#F2338A"/>
<path d="M11.4801 15.8808L12.2462 16.111L12.2464 16.1105L11.4801 15.8808ZM9.97881 12.6109L10.2133 11.846L10.2131 11.846L9.97881 12.6109ZM9.14014 12.4834V11.6834L9.13967 11.6834L9.14014 12.4834ZM6.95309 13.4051L6.40131 12.8258L6.20852 13.0095L6.16423 13.272L6.95309 13.4051ZM6.63574 16.7435L5.83614 16.7183L5.82815 16.9712L5.96707 17.1827L6.63574 16.7435ZM8.18903 17.885L8.32604 17.0968L8.32483 17.0966L8.18903 17.885ZM9.25734 14.7728C9.48904 14.7728 9.67376 14.9597 9.67376 15.1866H11.2738C11.2738 14.0727 10.3694 13.1728 9.25734 13.1728V14.7728ZM9.67376 15.1866C9.67376 15.4135 9.48904 15.6003 9.25734 15.6003V17.2003C10.3694 17.2003 11.2738 16.3005 11.2738 15.1866H9.67376ZM9.25734 15.6003C9.02563 15.6003 8.84091 15.4135 8.84091 15.1866H7.24091C7.24091 16.3005 8.14531 17.2003 9.25734 17.2003V15.6003ZM8.84091 15.1866C8.84091 14.9597 9.02563 14.7728 9.25734 14.7728V13.1728C8.14531 13.1728 7.24091 14.0727 7.24091 15.1866H8.84091ZM8.76843 18.7355C10.4452 18.7355 11.7615 17.7241 12.2462 16.111L10.7139 15.6505C10.4255 16.6104 9.71499 17.1355 8.76843 17.1355V18.7355ZM12.2464 16.1105C12.4065 15.5762 12.5725 14.7407 12.3529 13.9087C12.1145 13.0054 11.4527 12.2259 10.2133 11.846L9.74437 13.3758C10.4833 13.6023 10.7162 13.9772 10.8059 14.3169C10.9143 14.728 10.8417 15.2243 10.7137 15.6511L12.2464 16.1105ZM10.2131 11.846C9.86428 11.7391 9.50383 11.6834 9.14014 11.6834V13.2834C9.33959 13.2834 9.54229 13.3139 9.74456 13.3758L10.2131 11.846ZM9.13967 11.6834C8.11718 11.684 7.13652 12.1255 6.40131 12.8258L7.50487 13.9843C7.97958 13.5321 8.57682 13.2837 9.14061 13.2834L9.13967 11.6834ZM6.16423 13.272C5.97313 14.405 5.87283 15.5577 5.83614 16.7183L7.43534 16.7688C7.47021 15.666 7.56506 14.5869 7.74195 13.5381L6.16423 13.272ZM5.96707 17.1827C6.45382 17.9238 7.19003 18.5247 8.05322 18.6733L8.32483 17.0966C8.01992 17.044 7.6252 16.7928 7.30441 16.3044L5.96707 17.1827ZM8.05201 18.6731C8.2914 18.7147 8.53238 18.7355 8.76843 18.7355V17.1355C8.62533 17.1355 8.47602 17.1228 8.32604 17.0968L8.05201 18.6731Z" fill="#F2338A"/>
<ellipse cx="9.22503" cy="15.1894" rx="1.28118" ry="1.28118" fill="#1E1E1E"/>
<ellipse cx="20.7114" cy="15.1894" rx="1.28118" ry="1.28118" fill="#1E1E1E"/>
<path fill-rule="evenodd" clip-rule="evenodd" d="M19.5255 21.0794C17.3445 23.1067 12.7813 23.104 10.6495 21.0761C10.5032 20.9347 10.4957 20.6978 10.6398 20.5518C10.7796 20.4029 11.018 20.396 11.1653 20.5383C13.0108 22.2991 17.1247 22.2973 19.0218 20.5369C19.1738 20.3951 19.4075 20.4043 19.5487 20.555C19.6872 20.7048 19.6798 20.9398 19.5255 21.0794Z" fill="white"/>
</g>
<path fill-rule="evenodd" clip-rule="evenodd" d="M12.1482 8.26081L14.5141 9.37811C14.9267 9.56031 15.2176 9.5974 15.6483 9.40315L19.3078 7.74434C19.6604 7.62334 19.8268 7.23622 19.6614 6.90289C19.5038 6.58531 19.1117 6.48471 18.8032 6.65995L15.4606 8.80184C15.3709 8.85191 15.3151 8.88112 15.2487 8.89642C15.0851 8.93305 14.8784 8.9247 14.6804 8.76197L12.8595 7.30113C12.6091 7.06515 12.2109 7.10595 11.9893 7.36928C11.7802 7.63076 11.8201 8.07814 12.1482 8.26081Z" fill="#1C5DCC"/>
</svg>
