<svg width="45" height="30" viewBox="0 0 45 30" fill="none" xmlns="http://www.w3.org/2000/svg">
<path d="M36.2516 19.875C35.516 19.875 34.8399 19.7578 34.2169 19.5168C33.5939 19.2823 33.0637 18.9502 32.6262 18.5203C32.1888 18.0969 31.8441 17.5824 31.5989 16.9767C31.3537 16.3775 31.2344 15.7197 31.2344 15.0033C31.2344 14.2933 31.3537 13.6355 31.5989 13.0298C31.8441 12.4241 32.1888 11.9096 32.6262 11.4797C33.0637 11.0564 33.5939 10.7242 34.2169 10.4832C34.8399 10.2487 35.516 10.125 36.2516 10.125C36.9741 10.125 37.6435 10.2487 38.2665 10.4832C38.8829 10.7177 39.4131 11.0498 39.8506 11.4732C40.288 11.8965 40.626 12.4111 40.8779 13.0168C41.1231 13.629 41.249 14.2868 41.249 15.0033C41.249 15.7197 41.1231 16.384 40.8779 16.9897C40.626 17.5954 40.288 18.11 39.8506 18.5333C39.4131 18.9567 38.8829 19.2888 38.2665 19.5233C37.6435 19.7578 36.9741 19.875 36.2516 19.875ZM36.245 17.5108C36.6891 17.5108 37.0867 17.4 37.4446 17.1786C37.8026 16.9572 38.0743 16.6511 38.2665 16.2733C38.4587 15.8955 38.5581 15.4722 38.5581 15.0033C38.5581 14.5408 38.4587 14.1175 38.2665 13.7397C38.0743 13.362 37.8026 13.0559 37.4446 12.8344C37.0867 12.613 36.6891 12.4957 36.245 12.4957C35.7943 12.4957 35.3967 12.6065 35.0454 12.8279C34.6875 13.0493 34.4157 13.3555 34.2169 13.7332C34.0181 14.1175 33.9253 14.5408 33.9253 15.0033C33.9253 15.4722 34.0181 15.8955 34.2169 16.2733C34.4157 16.6511 34.6875 16.9572 35.0454 17.1786C35.4033 17.4 35.8009 17.5108 36.245 17.5108Z" fill="white"/>
<path d="M26.4231 19.8555C25.8597 19.8555 25.3295 19.7903 24.8258 19.6536C24.3221 19.5233 23.8648 19.3214 23.4472 19.0478C23.023 18.7808 22.6651 18.4552 22.3602 18.0774C22.0554 17.6996 21.8168 17.2437 21.6444 16.7227C21.4721 16.2017 21.3926 15.635 21.3926 15.0228C21.3926 14.4757 21.4589 13.9612 21.598 13.4662C21.7372 12.9712 21.9427 12.5218 22.2211 12.118C22.4994 11.7142 22.8308 11.3625 23.2219 11.0629C23.6129 10.7698 24.0702 10.5418 24.6004 10.3725C25.1307 10.2097 25.7007 10.125 26.3171 10.125C26.7943 10.125 27.2715 10.1901 27.7553 10.3204C28.2325 10.4507 28.6964 10.6526 29.1471 10.9196C29.5912 11.1866 29.9756 11.5058 30.2937 11.877L28.4645 13.3945C27.8348 12.8084 27.119 12.5088 26.3104 12.5088C26.0718 12.5088 25.8465 12.5478 25.6278 12.613C25.409 12.6846 25.2036 12.7888 25.018 12.9321C24.8324 13.0754 24.6667 13.2447 24.5275 13.4401C24.3884 13.6355 24.2823 13.87 24.2028 14.1435C24.1232 14.4171 24.0835 14.7102 24.0835 15.0228C24.0835 15.3615 24.1365 15.6871 24.2425 15.9867C24.3486 16.2863 24.4944 16.5534 24.6866 16.7878C24.8788 17.0223 25.124 17.2047 25.4289 17.3349C25.7272 17.4717 26.0586 17.5368 26.4231 17.5368C26.9268 17.5368 27.404 17.4326 27.868 17.2242V16.3515H26.2243V14.3064H30.2871V18.7157C29.8364 19.0478 29.2664 19.3214 28.5639 19.5363C27.8613 19.7513 27.1455 19.8555 26.4231 19.8555Z" fill="white"/>
<path d="M15.5739 19.875C14.8382 19.875 14.1622 19.7578 13.5392 19.5168C12.9161 19.2823 12.3859 18.9502 11.9485 18.5203C11.511 18.0969 11.1664 17.5824 10.9212 16.9767C10.6759 16.3775 10.5566 15.7197 10.5566 15.0033C10.5566 14.2933 10.6759 13.6355 10.9212 13.0298C11.1664 12.4241 11.511 11.9096 11.9485 11.4797C12.3859 11.0564 12.9161 10.7242 13.5392 10.4832C14.1622 10.2487 14.8382 10.125 15.5739 10.125C16.2963 10.125 16.9658 10.2487 17.5888 10.4832C18.2052 10.7177 18.7354 11.0498 19.1728 11.4732C19.6103 11.8965 19.9483 12.4111 20.2001 13.0168C20.4454 13.629 20.5713 14.2868 20.5713 15.0033C20.5713 15.7197 20.4454 16.384 20.2001 16.9897C19.9483 17.5954 19.6103 18.11 19.1728 18.5333C18.7354 18.9567 18.2052 19.2888 17.5888 19.5233C16.9658 19.7578 16.2963 19.875 15.5739 19.875ZM15.5673 17.5108C16.0113 17.5108 16.409 17.4 16.7669 17.1786C17.1248 16.9572 17.3966 16.6511 17.5888 16.2733C17.781 15.8955 17.8804 15.4722 17.8804 15.0033C17.8804 14.5408 17.781 14.1175 17.5888 13.7397C17.3966 13.362 17.1248 13.0559 16.7669 12.8344C16.409 12.613 16.0113 12.4957 15.5673 12.4957C15.1166 12.4957 14.7189 12.6065 14.3676 12.8279C14.0097 13.0493 13.738 13.3555 13.5392 13.7332C13.3403 14.1175 13.2475 14.5408 13.2475 15.0033C13.2475 15.4722 13.3403 15.8955 13.5392 16.2733C13.738 16.6511 14.0097 16.9572 14.3676 17.1786C14.7255 17.4 15.1232 17.5108 15.5673 17.5108Z" fill="white"/>
<path d="M3.75 19.7383V10.2618H6.34811V17.4848H10.179V19.7383H3.75Z" fill="white"/>
</svg>
