<svg xmlns="http://www.w3.org/2000/svg" width="40" height="34" viewBox="0 0 40 34">
    <g fill="none" fill-rule="evenodd">
        <path fill="#FFF" d="M15 12H25V22H15z"/>
        <path fill="#CA1F1E" d="M17.6 21v-7.2l6.235 3.6L17.6 21zm13.898-9.377c-.276-1.032-1.089-1.845-2.122-2.122C27.505 9 20 9 20 9s-7.505 0-9.377.501c-1.032.277-1.845 1.09-2.122 2.122C8 13.495 8 17.4 8 17.4s0 3.905.501 5.777c.277 1.032 1.09 1.845 2.122 2.122C12.495 25.8 20 25.8 20 25.8s7.505 0 9.376-.501c1.033-.277 1.846-1.09 2.122-2.122C32 21.305 32 17.4 32 17.4s0-3.905-.502-5.777z"/>
    </g>
</svg>
