<svg xmlns="http://www.w3.org/2000/svg" xmlns:xlink="http://www.w3.org/1999/xlink" width="90" height="90" viewBox="0 0 90 90">
    <defs>
        <path id="prefix__a" d="M0 0L80 0 80 80 0 80z"/>
    </defs>
    <g fill="none" fill-rule="evenodd" transform="translate(5 5)">
        <mask id="prefix__b" fill="#fff">
            <use xlink:href="#prefix__a"/>
        </mask>
        <path fill="#666" d="M39.967 5.334c-9.254 0-17.948 3.612-24.495 10.16C8.932 22.042 5.33 30.747 5.33 40.008c0 9.263 3.602 17.972 10.143 24.52 6.531 6.537 15.212 10.138 24.447 10.138 6.538 0 12.901-1.827 18.414-5.287.666-.421 1.487-.523 2.23-.28l12.6 4.073-4.127-12.525c-.25-.755-.15-1.58.272-2.251 8.622-13.768 6.629-31.407-4.847-42.902-6.546-6.548-15.24-10.16-24.494-10.16M39.919 80C29.26 80 19.24 75.845 11.705 68.299 4.159 60.74 0 50.699 0 40.008c0-10.685 4.16-20.732 11.705-28.286C19.256 4.163 29.293 0 39.967 0s20.71 4.163 28.262 11.722c12.944 12.966 15.435 32.703 6.25 48.42l5.388 16.343c.312.952.067 2.003-.642 2.712-.706.715-1.759.974-2.705.662L60.086 74.55C53.982 78.12 47.033 80 39.92 80" mask="url(#prefix__b)"/>
        <circle cx="22.979" cy="40.851" r="4.255" fill="#666" mask="url(#prefix__b)"/>
        <circle cx="40.851" cy="40.851" r="4.255" fill="#666" mask="url(#prefix__b)"/>
        <circle cx="57.872" cy="40.851" r="4.255" fill="#666" mask="url(#prefix__b)"/>
    </g>
</svg>
