<svg width="29" height="27" viewBox="0 0 29 27" xmlns="http://www.w3.org/2000/svg">
    <g fill="#666" fill-rule="nonzero">
        <path d="M12.304 14.892h-.992v3.728c0 .064-.01.105-.028.124-.019.019-.057.028-.116.028h-.808c-.059 0-.1-.01-.124-.028-.024-.019-.036-.06-.036-.124v-7.368c0-.059.012-.099.036-.12.024-.021.065-.032.124-.032h.808c.059 0 .097.01.116.032.019.021.028.061.028.12v2.728h.992c.048 0 .087.007.116.02.03.013.044.057.044.132v.608c0 .064-.015.105-.044.124a.213.213 0 0 1-.116.028zM6 17.124a.393.393 0 0 1-.172.064c-.04 0-.081-.03-.124-.088l-.376-.56c-.037-.053-.05-.104-.036-.152a.181.181 0 0 1 .092-.112c.805-.453 1.44-.976 1.904-1.568a3.976 3.976 0 0 0 .84-1.936c.016-.112-.024-.168-.12-.168H5.776c-.07 0-.112-.012-.128-.036-.016-.024-.024-.065-.024-.124v-.6c0-.064.01-.105.032-.124.021-.019.061-.028.12-.028h2.912c.267 0 .443.055.528.164.085.11.12.281.104.516-.032.48-.13.947-.292 1.4a5.396 5.396 0 0 1-.672 1.288 6.54 6.54 0 0 1-1.02 1.132c-.395.35-.84.66-1.336.932zM19.552 9.949a7.317 7.317 0 0 1-1.315 3.685 8.67 8.67 0 0 1-1.39 1.54c-.543.477-1.156.902-1.838 1.276a.353.353 0 0 1-.181.039.182.182 0 0 1-.149-.094l-.44-.616a.221.221 0 0 1-.033-.176.244.244 0 0 1 .1-.143c1.092-.58 1.976-1.294 2.65-2.145.675-.85 1.086-1.775 1.232-2.772.022-.147.013-.244-.027-.291-.04-.048-.127-.072-.259-.072H14.8c-.095 0-.143-.051-.143-.154v-.77c0-.088.048-.132.143-.132h3.971c.33 0 .548.068.655.203.106.136.148.343.126.622zm4.455 3.267c0 .044-.016.08-.05.11a.168.168 0 0 1-.115.044h-1.485v5.225c0 .095-.047.143-.143.143h-.979c-.095 0-.143-.048-.143-.143V8.442c0-.095.048-.143.143-.143h.98c.095 0 .142.048.142.143v3.872h1.485c.044 0 .083.013.116.038.033.026.05.057.05.094v.77z"/>
    </g>
</svg>
