<svg width="29" height="27" viewBox="0 0 29 27" xmlns="http://www.w3.org/2000/svg">
    <g fill="#333" fill-rule="nonzero">
        <path d="M11.51 18.54a.411.411 0 0 1-.153-.023c-.036-.015-.069-.058-.099-.13l-.567-1.485H7.892l-.567 1.485c-.03.072-.061.115-.094.13a.375.375 0 0 1-.149.023H6.21c-.096 0-.159-.017-.189-.05-.03-.032-.027-.091.01-.175l2.618-6.552c.042-.102.114-.153.216-.153h.873c.078 0 .13.01.153.032a.409.409 0 0 1 .081.13l2.601 6.543c.036.09.041.15.014.18-.027.03-.092.045-.194.045h-.882zm-3.195-2.745h1.953l-.972-2.547-.98 2.547zM21.985 18.552a.313.313 0 0 1-.13-.02c-.027-.012-.052-.05-.079-.11l-.936-2.34h-4.238l-.936 2.34c-.017.06-.039.098-.065.11a.313.313 0 0 1-.13.02h-1.196c-.155 0-.207-.06-.155-.182l3.796-9.477a.458.458 0 0 1 .058-.123c.013-.013.063-.02.15-.02h1.209c.078 0 .125.007.143.02.017.013.038.054.065.123l3.796 9.477c.043.121-.01.182-.157.182h-1.195zm-4.85-3.835h3.16l-1.574-4.004-1.585 4.004z"/>
    </g>
</svg>
