<svg xmlns="http://www.w3.org/2000/svg" xmlns:xlink="http://www.w3.org/1999/xlink" width="21" height="20" viewBox="0 0 21 20">
    <defs>
        <path id="22vlf4j5va" d="M0 0L20 0 20 20 0 20z"/>
    </defs>
    <g fill="none" fill-rule="evenodd">
        <g>
            <g>
                <g transform="translate(-972 -2007) translate(972 2007)">
                    <mask id="vv2t3cof2b" fill="#fff">
                        <use xlink:href="#22vlf4j5va"/>
                    </mask>
                    <path fill="#BABABA" d="M14.987 14.065l-.923.922c-.497.497-1.16.77-1.862.77-.703 0-1.365-.274-1.86-.77l-2.269-2.268c-.135-.135-.25-.283-.35-.44-.273-.42-.422-.91-.422-1.422 0-.33.066-.649.18-.947.128-.331.321-.638.578-.9l.013-.016.936-.936 1.11 1.107-.937.938c-.201.2-.313.469-.313.754 0 .083.014.164.031.242.045.193.14.369.282.51l2.268 2.269c.201.2.47.312.753.312.285 0 .553-.111.754-.312l.922-.922c.201-.201.313-.47.313-.753 0-.285-.112-.553-.313-.754l-.57-.57c.297-.556.44-1.171.431-1.786l1.248 1.247c.497.497.77 1.159.77 1.863 0 .703-.273 1.364-.77 1.862M6.121 8.55l.57.57c-.284.528-.436 1.12-.435 1.737l.003.047L5.013 9.66c-1.026-1.027-1.026-2.698 0-3.725l.922-.922c1.027-1.027 2.698-1.027 3.724 0l2.268 2.27c.137.135.252.284.352.44.457.71.536 1.595.24 2.368-.125.328-.317.634-.578.9l-.014.016-.92.922c-.005.004-.011.006-.015.01L9.883 10.83c.005-.005.01-.008.015-.01l.921-.923c.27-.27.363-.65.28-.998-.044-.187-.135-.364-.28-.509L8.552 6.121c-.417-.416-1.093-.416-1.508 0l-.923.922c-.415.416-.415 1.092 0 1.507M10 0C4.487 0 0 4.486 0 10s4.487 10 10 10c5.514 0 10-4.486 10-10S15.514 0 10 0" mask="url(#vv2t3cof2b)"/>
                </g>
            </g>
        </g>
    </g>
</svg>
