<?xml version="1.0" encoding="UTF-8"?>
<svg width="230px" height="66px" viewBox="0 0 230 66" version="1.1" xmlns="http://www.w3.org/2000/svg" xmlns:xlink="http://www.w3.org/1999/xlink">
    <title>CD02BF2A-7518-498D-91DE-AFF347DB17FD</title>
    <defs>
        <linearGradient x1="49.9997829%" y1="4.56122866%" x2="49.9997829%" y2="105.471957%" id="linearGradient-1">
            <stop stop-color="#F4361D" offset="0%"></stop>
            <stop stop-color="#F61C00" offset="100%"></stop>
        </linearGradient>
    </defs>
    <g id="Page-1" stroke="none" stroke-width="1" fill="none" fill-rule="evenodd">
        <g id="NShoppingLive_Login_202111" transform="translate(-580.000000, -1132.000000)">
            <g id="btn_login_nshoppiglive" transform="translate(580.000000, 1132.000000)">
                <g id="Group-31" transform="translate(39.266082, 14.403257)">
                    <path d="M149.849574,0 C149.831902,0.00129385246 149.81423,0.00129385246 149.796557,0.00258770492 L149.796557,0.00258770492 L89.9940656,3.73276434 C89.1571639,3.78451844 88.5058197,4.49354959 88.5058197,5.35396148 L88.5058197,5.35396148 L88.5058197,33.3309332 C88.5058197,34.1887574 89.1571639,34.8990824 89.9940656,34.9508365 L89.9940656,34.9508365 L97.2989672,35.4075664 L97.2989672,43.1098701 C97.2989672,43.3764037 97.5956066,43.5303721 97.8051475,43.3725221 L97.8051475,43.3725221 L107.471803,36.0402602 L149.796557,38.6797193 C150.687738,38.7353549 151.445115,38.0250299 151.476672,37.1180393 L151.476672,37.1180393 L151.476672,1.56556148 C151.446377,0.70514959 150.766,0.0232893443 149.93541,0 L149.93541,0 L149.849574,0 Z" id="Fill-16" fill="url(#linearGradient-1)"></path>
                    <polygon id="Fill-19" fill="#FFFFFF" points="0 31.8869939 23.4218852 31.8869939 23.4218852 7.88085533 0 7.88085533"></polygon>
                    <polygon id="Fill-21" fill="#272727" points="17.5667295 25.8858474 13.9679262 25.8858474 9.62689344 19.4618699 9.62689344 25.8858474 5.85768033 25.8858474 5.85768033 13.8827781 9.45522131 13.8827781 13.7975164 20.3067556 13.7975164 13.8827781 17.5667295 13.8827781"></polygon>
                    <path d="M48.6186836,20.9928855 L44.6525525,20.9928855 C44.4669951,20.9928855 44.3155197,21.1481478 44.3155197,21.339638 L44.3155197,27.1736187 L40.2749131,27.1736187 L40.2749131,21.339638 C40.2749131,21.1481478 40.1234377,20.9928855 39.936618,20.9928855 L35.9704869,20.9928855 C35.7849295,20.9928855 35.6334541,21.1481478 35.6334541,21.339638 L35.6334541,27.1736187 L28.4459459,27.1736187 C28.2578639,27.1736187 28.1063885,27.328881 28.1063885,27.5203712 L28.1063885,30.9374355 C28.1063885,31.1289257 28.2578639,31.284188 28.4459459,31.284188 L56.1444869,31.284188 C56.3313066,31.284188 56.482782,31.1289257 56.482782,30.9374355 L56.482782,27.5203712 C56.482782,27.328881 56.3313066,27.1736187 56.1444869,27.1736187 L48.9569787,27.1736187 L48.9569787,21.339638 C48.9569787,21.1481478 48.804241,20.9928855 48.6186836,20.9928855" id="Fill-22" fill="#FFFFFF"></path>
                    <path d="M32.5787,21.5766718 L42.2945852,13.8704865 L52.0117328,21.5766718 C52.1606836,21.6957062 52.3765361,21.6646537 52.4888803,21.5106853 L54.690323,18.4947152 C54.8001426,18.3433345 54.7723721,18.128555 54.6259459,18.0134021 L45.7053066,10.9424984 C45.0792082,10.4456591 44.7118803,9.6796984 44.7118803,8.86715906 L44.7118803,5.50443652 C44.7118803,5.31294635 44.5604049,5.15768406 44.3735852,5.15768406 L40.2168475,5.15768406 C40.0287656,5.15768406 39.8772902,5.31294635 39.8772902,5.50443652 L39.8772902,8.86715906 C39.8772902,9.6796984 39.5099623,10.4456591 38.8838639,10.9424984 L29.9644869,18.0134021 C29.8167984,18.128555 29.7890279,18.3433345 29.9001098,18.4947152 L32.1002902,21.5106853 C32.2138967,21.6646537 32.4297492,21.6957062 32.5787,21.5766718" id="Fill-23" fill="#FFFFFF"></path>
                    <path d="M77.9792885,4.20307971 L77.9792885,20.3503584 C77.9792885,20.5418486 78.1307639,20.6984047 78.3175836,20.6984047 L82.3152721,20.6984047 C82.5020918,20.6984047 82.6535672,20.5418486 82.6535672,20.3503584 L82.6535672,4.20307971 C82.6535672,4.01158955 82.5020918,3.85632725 82.3152721,3.85632725 L78.3175836,3.85632725 C78.1307639,3.85632725 77.9792885,4.01158955 77.9792885,4.20307971" id="Fill-24" fill="#FFFFFF"></path>
                    <path d="M63.9945738,15.9247361 L68.363377,15.9247361 L68.363377,8.53295697 L63.9945738,8.53295697 L63.9945738,15.9247361 Z M74.963918,15.9247361 L72.6400328,15.9247361 L72.6400328,8.53166311 L74.963918,8.53166311 C75.1507377,8.53166311 75.3022131,8.37640082 75.3022131,8.18491066 L75.3022131,4.90499467 C75.3022131,4.71350451 75.1507377,4.55824221 74.963918,4.55824221 L57.275377,4.55824221 C57.0872951,4.55824221 56.9358197,4.71350451 56.9358197,4.90499467 L56.9358197,8.18491066 C56.9358197,8.37640082 57.0872951,8.53166311 57.275377,8.53166311 L59.696459,8.53166311 L59.696459,15.9247361 L57.275377,15.9247361 C57.0872951,15.9247361 56.9358197,16.0799984 56.9358197,16.2714885 L56.9358197,19.5514045 C56.9358197,19.7428947 57.0872951,19.898157 57.275377,19.898157 L74.963918,19.898157 C75.1507377,19.898157 75.3022131,19.7428947 75.3022131,19.5514045 L75.3022131,16.2714885 C75.3022131,16.0799984 75.1507377,15.9247361 74.963918,15.9247361 L74.963918,15.9247361 Z" id="Fill-25" fill="#FFFFFF"></path>
                    <path d="M76.9057066,29.7503259 C76.9057066,31.9020025 75.1157721,33.6525849 72.9168541,33.6525849 C70.7166738,33.6525849 68.9267393,31.9020025 68.9267393,29.7503259 C68.9267393,27.5986493 70.7166738,25.8480669 72.9168541,25.8480669 C75.1157721,25.8480669 76.9057066,27.5986493 76.9057066,29.7503259 M72.9168541,21.5123673 C68.2514115,21.5123673 64.4569525,25.2076099 64.4569525,29.7503259 C64.4569525,34.2930419 68.2514115,37.9882845 72.9168541,37.9882845 C77.5810344,37.9882845 81.3767557,34.2930419 81.3767557,29.7503259 C81.3767557,25.2076099 77.5810344,21.5123673 72.9168541,21.5123673" id="Fill-26" fill="#FFFFFF"></path>
                    <polygon id="Fill-27" fill="#FFFFFF" points="100.974266 10.2592149 97.2997246 10.2592149 97.2997246 27.990169 107.541987 27.990169 107.541987 24.2561108 100.974266 24.2561108"></polygon>
                    <polygon id="Fill-28" fill="#FFFFFF" points="110.650262 27.9899102 114.323541 27.9899102 114.323541 10.2589561 110.650262 10.2589561"></polygon>
                    <polygon id="Fill-29" fill="#FFFFFF" points="143.741959 13.992885 143.741959 10.2588268 132.931664 10.2588268 132.931664 27.9897809 143.741959 27.9897809 143.741959 24.2557227 136.606205 24.2557227 136.606205 20.8684169 142.574336 20.8684169 142.574336 17.1343587 136.606205 17.1343587 136.606205 13.992885"></polygon>
                    <polygon id="Fill-30" fill="#FFFFFF" points="126.909254 10.2592149 123.839352 23.4992071 120.770713 10.2592149 116.895467 10.2592149 121.624025 27.990169 126.055943 27.990169 130.783238 10.2592149"></polygon>
                </g>
            </g>
        </g>
    </g>
</svg>