<svg width="22" height="22" viewBox="0 0 22 22" fill="none" xmlns="http://www.w3.org/2000/svg">
<path fill-rule="evenodd" clip-rule="evenodd" d="M15.2232 4.01009C14.1774 2.96606 12.4806 3.01353 11.4416 4.05415L11.4415 4.05426L9.06195 6.43382C8.79634 6.69943 8.42943 6.91423 7.97419 7.10944C7.63839 7.25343 7.29848 7.36986 6.94153 7.49213C6.80478 7.53897 6.66552 7.58667 6.52304 7.6371L4.53646 8.32345C4.29216 8.40785 4.10854 8.6121 4.05052 8.86397C3.99249 9.11584 4.06825 9.37984 4.251 9.56262L7.71044 13.0226L4.06945 16.6636C3.71798 17.0151 3.71798 17.5849 4.06945 17.9364C4.42092 18.2878 4.99077 18.2878 5.34224 17.9364L8.98313 14.2955L12.4283 17.7412C12.6103 17.9233 12.8731 17.9992 13.1242 17.9424C13.3753 17.8855 13.5798 17.7038 13.6657 17.4611L14.3657 15.4833C14.3714 15.467 14.3766 15.4506 14.3812 15.4341C14.4534 15.2265 14.5215 15.0097 14.5866 14.8025L14.6185 14.7012C14.7001 14.4419 14.7796 14.1953 14.8684 13.96C15.0489 13.4814 15.2447 13.1159 15.494 12.8662L17.8748 10.4854C18.9109 9.44928 18.9655 7.75232 17.9181 6.70491L15.2237 4.01055L15.2232 4.01009ZM12.5031 5.11404C12.9862 4.63011 13.7328 4.64191 14.1633 5.07148L14.1635 5.07167L16.8574 7.76557C17.2864 8.19453 17.2977 8.94121 16.8141 9.42473L14.4329 11.806L14.4324 11.8065C13.9587 12.281 13.6716 12.8827 13.4649 13.4306C13.3601 13.7085 13.2698 13.99 13.1878 14.2505L13.1547 14.3556C13.0839 14.581 13.0192 14.787 12.9503 14.9817C12.9448 14.9973 12.9398 15.013 12.9354 15.0287L12.6483 15.8398L6.15933 9.34976L7.01556 9.05395L7.01557 9.05397L7.021 9.05204C7.13329 9.01228 7.25398 8.97095 7.38012 8.92776C7.75293 8.80009 8.17336 8.65612 8.56533 8.48804C9.09996 8.2588 9.66404 7.95305 10.1226 7.49448L12.5026 5.11448L12.5031 5.11404Z" fill="#7A7F34"/>
</svg>
