<svg xmlns="http://www.w3.org/2000/svg" width="56" height="53" viewBox="0 0 56 53">
    <g fill="none" fill-rule="evenodd">
        <g fill="#FFF" stroke="#FFF" stroke-width=".5">
            <g>
                <g>
                    <g>
                        <g>
                            <g>
                                <g>
                                    <path d="M22.4 0c.352 0 .679.184.86.485h0l2.472 4.107h5.936c1.658 0 3.006 1.346 3.006 3h0v19.412c0 1.654-1.348 3-3.006 3h0H3.006c-1.658 0-3.006-1.346-3.006-3h0V7.592c0-1.654 1.348-3 3.006-3h5.936L11.415.485c.18-.301.507-.485.859-.485h0zm9.268 6.592H3.006c-.552 0-1.002.45-1.002 1h0v19.412c0 .552.45 1 1.002 1h28.662c.553 0 1.002-.448 1.002-1h0V7.592c0-.55-.45-1-1.002-1h0zM17.338 11.7c3.092 0 5.608 2.511 5.608 5.598 0 3.087-2.516 5.599-5.609 5.599-3.092 0-5.608-2.512-5.608-5.599s2.516-5.598 5.608-5.598zm0 2c-1.988 0-3.605 1.614-3.605 3.598 0 1.984 1.617 3.598 3.604 3.598 1.988 0 3.605-1.614 3.605-3.598 0-1.984-1.617-3.597-3.605-3.597zM21.833 2H12.84l-1.56 2.592h12.113L21.833 2z" transform="translate(-411 -2963) translate(74 2708) translate(0 80) translate(300 115) translate(38 60) translate(9.65 11.557)"/>
                                </g>
                            </g>
                        </g>
                    </g>
                </g>
            </g>
        </g>
    </g>
</svg>
