<svg xmlns="http://www.w3.org/2000/svg" width="24" height="24" viewBox="0 0 24 24">
    <g fill="none" fill-rule="evenodd">
        <g>
            <g>
                <g>
                    <path fill="#666" d="M3.481 19.997c.052.372.37.647.745.65h12.63c.374-.003.692-.278.745-.65l2.536-11.77c.031-.215-.035-.433-.177-.597-.144-.164-.35-.258-.569-.258H1.728c-.218 0-.425.094-.568.258-.143.164-.208.382-.178.598l2.5 11.77zM.425 6.99c.328-.377.803-.593 1.303-.593h17.663c.5 0 .975.216 1.303.593.328.377.477.877.408 1.372l-2.536 11.77c-.122.852-.85 1.486-1.71 1.49H4.225c-.86-.004-1.59-.638-1.71-1.49l-2.5-11.77c-.068-.495.08-.995.41-1.372z" transform="translate(-101 -7588) translate(101 7588) translate(1.15 1.2)"/>
                    <path stroke="#666" stroke-width=".6" d="M3.481 19.997c.052.372.37.647.745.65h12.63c.374-.003.692-.278.745-.65l2.536-11.77c.031-.215-.035-.433-.177-.597-.144-.164-.35-.258-.569-.258H1.728c-.218 0-.425.094-.568.258-.143.164-.208.382-.178.598l2.5 11.77h0zM.425 6.99c.328-.377.803-.593 1.303-.593h17.663c.5 0 .975.216 1.303.593.328.377.477.877.408 1.372l-2.536 11.77c-.122.852-.85 1.486-1.71 1.49H4.225c-.86-.004-1.59-.638-1.71-1.49l-2.5-11.77c-.068-.495.08-.995.41-1.372h0z" transform="translate(-101 -7588) translate(101 7588) translate(1.15 1.2)"/>
                    <path fill="#666" d="M13.938 10.195c.13 0 .253-.051.344-.142.092-.092.143-.216.143-.345V3.884C14.425 1.74 12.685 0 10.54 0 8.395 0 6.656 1.74 6.656 3.884v5.824c0 .27.218.487.487.487.27 0 .487-.218.487-.487V3.884c0-1.04.555-2 1.455-2.52s2.01-.52 2.91 0c.9.52 1.455 1.48 1.455 2.52v5.824c0 .13.052.253.143.345.091.091.345.142.345.142" transform="translate(-101 -7588) translate(101 7588) translate(1.15 1.2)"/>
                    <path stroke="#666" stroke-width=".6" d="M13.938 10.195c.13 0 .253-.051.344-.142.092-.092.143-.216.143-.345V3.884C14.425 1.74 12.685 0 10.54 0 8.395 0 6.656 1.74 6.656 3.884v5.824c0 .27.218.487.487.487.27 0 .487-.218.487-.487V3.884c0-1.04.555-2 1.455-2.52s2.01-.52 2.91 0c.9.52 1.455 1.48 1.455 2.52v5.824c0 .13.052.253.143.345.091.091.345.142.345.142z" transform="translate(-101 -7588) translate(101 7588) translate(1.15 1.2)"/>
                </g>
            </g>
        </g>
    </g>
</svg>
