<svg width="22" height="22" viewBox="0 0 22 22" xmlns="http://www.w3.org/2000/svg">
    <path d="M6.426 12.695a4.435 4.435 0 0 1 0-6.265A4.4 4.4 0 0 1 9.56 5.132a4.4 4.4 0 0 1 3.133 1.298 4.436 4.436 0 0 1 0 6.265 4.405 4.405 0 0 1-3.133 1.297 4.402 4.402 0 0 1-3.133-1.297zm12.438 5.372-4.992-4.993a5.57 5.57 0 0 0-.38-7.444A5.527 5.527 0 0 0 9.56 4a5.525 5.525 0 0 0-3.933 1.63 5.569 5.569 0 0 0 0 7.865 5.525 5.525 0 0 0 3.933 1.629c1.295 0 2.523-.44 3.513-1.25l4.992 4.993.8-.8z" fill="#BABABA" stroke="#BABABA" stroke-width=".5" fill-rule="evenodd"/>
</svg>
