<svg xmlns="http://www.w3.org/2000/svg" width="22" height="22" viewBox="0 0 22 22">
    <path fill="#666" fill-rule="evenodd" stroke="#666" stroke-width=".3" d="M19.226 10.156c-.321-.316-.842-.316-1.164 0l-.607.598C17.257 6.997 14.1 4 10.237 4 6.247 4 3 7.196 3 11.126c0 3.928 3.247 7.125 7.237 7.125.455 0 .822-.363.822-.811 0-.448-.367-.81-.822-.81-3.082 0-5.59-2.47-5.59-5.504 0-3.036 2.508-5.506 5.59-5.506 2.942 0 5.355 2.25 5.57 5.094l-.567-.558c-.322-.316-.843-.316-1.165 0-.321.316-.321.83 0 1.147l1.993 1.962c.16.159.372.238.583.238.21 0 .42-.079.581-.238l1.994-1.962c.32-.317.32-.83 0-1.147"/>
</svg>
