<svg width="15" height="15" viewBox="0 0 15 15" xmlns="http://www.w3.org/2000/svg">
    <path d="M10.25 5.525c0 .622-.237 1.213-.666 1.663L8.26 8.512V9.56c0 .277-.225.5-.5.5h-.5a.501.501 0 0 1-.5-.5V8.202c0-.2.079-.39.22-.53l1.53-1.53a.896.896 0 0 0 .239-.617v-.173a.914.914 0 0 0-.913-.913h-.674a.915.915 0 0 0-.913.913v.39c0 .276-.225.5-.5.5h-.5a.502.502 0 0 1-.5-.5v-.39A2.416 2.416 0 0 1 7.163 2.94h.674a2.415 2.415 0 0 1 2.413 2.413v.173zm-2 6.036c0 .275-.225.5-.5.5h-.5a.501.501 0 0 1-.5-.5v-.5c0-.275.226-.5.5-.5h.5c.275 0 .5.225.5.5v.5zM7.5 0A7.5 7.5 0 0 0 0 7.5a7.5 7.5 0 1 0 15 0A7.5 7.5 0 0 0 7.5 0z" fill="#FFF" fill-rule="evenodd"/>
</svg>
