<?xml version="1.0" encoding="UTF-8"?>
<svg width="28px" height="28px" viewBox="0 0 28 28" version="1.1" xmlns="http://www.w3.org/2000/svg" xmlns:xlink="http://www.w3.org/1999/xlink">
    <title>C2434E17-8EFA-43BC-A4FC-F496DEB33625</title>
    <g id="Page-1" stroke="none" stroke-width="1" fill="none" fill-rule="evenodd">
        <g id="GUIDE-_-Drawing-_-202202" transform="translate(-184.000000, -5367.000000)">
            <g id="Group-13" transform="translate(70.000000, 5341.000000)">
                <g id="shape" transform="translate(114.000000, 26.000000)">
                    <g id="icon" transform="translate(8.000000, 4.000000)">
                        <line x1="0" y1="16" x2="11" y2="5" id="Line" stroke="#BABABA" stroke-width="2" stroke-linecap="round"></line>
                        <path d="M10.7674435,2.81110417 L14.3516107,8.38647545 C14.5009368,8.61876048 14.4336853,8.9281174 14.2014003,9.07744349 C14.1207516,9.12928906 14.0268973,9.15685425 13.9310215,9.15685425 L6.762687,9.15685425 C6.48654462,9.15685425 6.262687,8.93299662 6.262687,8.65685425 C6.262687,8.56097844 6.29025219,8.46712412 6.34209776,8.38647545 L9.92626501,2.81110417 C10.0755911,2.57881915 10.384948,2.51156765 10.617233,2.66089373 C10.6774844,2.69962673 10.7287105,2.75085285 10.7674435,2.81110417 Z" id="5" fill="#BABABA" transform="translate(10.346854, 5.656854) rotate(-315.000000) translate(-10.346854, -5.656854) "></path>
                    </g>
                </g>
            </g>
        </g>
    </g>
</svg>