<?xml version="1.0" encoding="UTF-8"?>
<svg width="20px" height="20px" viewBox="0 0 20 20" version="1.1" xmlns="http://www.w3.org/2000/svg" xmlns:xlink="http://www.w3.org/1999/xlink">
    <title>2D55EFFD-DE78-4402-A70C-E1D880D1A300</title>
    <defs>
        <rect id="path-1" x="0" y="0" width="16" height="16"></rect>
    </defs>
    <g id="Page-1" stroke="none" stroke-width="1" fill="none" fill-rule="evenodd">
        <g id="Drawing-_-202202" transform="translate(-3123.000000, -4712.000000)">
            <g id="Group-5" transform="translate(2790.000000, 4586.000000)">
                <g id="STUDIOMODE_ON" transform="translate(195.000000, 110.000000)">
                    <g id="ic_drawing_edit" transform="translate(138.000000, 16.000000)">
                        <rect id="outline" stroke="#EBFE00" opacity="0.25" x="0.5" y="0.5" width="19" height="19" rx="3"></rect>
                        <g id="icon_path" transform="translate(2.000000, 2.000000)">
                            <mask id="mask-2" fill="white">
                                <use xlink:href="#path-1"></use>
                            </mask>
                            <g id="Mask"></g>
                            <path d="M7.46508641,2.80582788 C9.42731624,1.8552377 10.8032237,2.96076384 10.2552155,4.61460298 L10.2050659,4.75365983 L10.1320612,4.92876902 L10.0461054,5.10540554 L9.97621696,5.23246721 L9.844423,5.44969886 L9.6705742,5.71411735 L9.1530563,6.45300404 L8.07772646,7.94940653 L7.8203562,8.31819932 L7.598388,8.64649204 L7.41015459,8.93744102 L7.25398869,9.19420262 L7.12822305,9.41993317 L7.0311904,9.61778901 C7.01732009,9.64861744 7.00457751,9.67841595 6.99292793,9.70725028 C6.92511107,9.87510648 6.89499643,10.0072355 6.89217385,10.0995022 L6.895,10.153 L6.91932468,10.152951 C6.97075221,10.1479586 7.05441999,10.1251903 7.15128184,10.0716269 L7.22610452,10.0254769 L7.46605808,9.8506053 L7.67947099,9.68507894 L8.57515222,8.95837615 L9.71827234,8.02156305 L10.1530107,7.67257404 L10.5374641,7.37124192 L10.8775185,7.11362668 C10.9308213,7.07411499 10.9825194,7.03626067 11.0327355,6.99998163 L11.3172275,6.80055416 C12.1730057,6.22135648 12.9402977,6.11580315 13.2877032,6.91336924 C13.4679353,7.32714219 13.392606,7.87491394 13.1358218,8.61290873 L12.91102,9.21274753 L12.4375511,10.4486698 L12.362756,10.6722458 L12.329,10.779 L13.2009052,10.1523923 L13.7914018,9.71172801 C13.8628637,9.6576869 13.9362725,9.60195518 14.0116247,9.54453502 C14.2971564,9.32695298 14.7050106,9.38203706 14.9225927,9.66756876 C15.1401747,9.95310045 15.0850906,10.3609547 14.7995589,10.5785368 L14.1575672,11.0619658 L13.6194176,11.4546426 L12.9652583,11.9220966 L12.8060579,12.0269356 L12.6678189,12.1060809 L12.5253143,12.1746439 C12.1016033,12.3637586 11.6742993,12.3662914 11.3021615,12.08423 C10.872223,11.7583586 10.8489544,11.3077825 11.0189832,10.6448494 L11.1404071,10.2248061 L11.2099306,10.0196725 L11.4498913,9.38332054 L11.8437418,8.36348431 L11.8943675,8.22345449 L11.9770761,7.96945542 L11.993,7.913 L11.7844364,8.06071886 L11.4839195,8.28394861 L11.1397509,8.54991455 L10.5316375,9.03571256 L8.74868355,10.4951202 L8.23635077,10.8980222 L7.95877285,11.099347 C7.38076454,11.4937042 6.67126636,11.5762982 6.15223598,11.2334541 C5.55127116,10.8364884 5.44339844,10.0721812 5.7875853,9.22027065 C5.87943911,8.99291966 6.00619764,8.74589737 6.17978574,8.45558215 L6.36942534,8.14996107 L6.59293461,7.81022877 L6.85296351,7.431136 L8.4370342,5.21186878 L8.73413581,4.7684924 L8.81619699,4.63522947 L8.90938728,4.46801728 L8.95601553,4.37153848 L8.99379345,4.28162278 C9.22693871,3.6833595 9.01303593,3.50044669 8.03185864,3.975772 C6.38775288,4.77224893 4.25544858,6.50764254 2.70391208,8.36021541 C2.47341878,8.63543011 2.06346144,8.67168396 1.78824674,8.44119065 C1.51303205,8.21069734 1.4767782,7.80074001 1.7072715,7.52552531 C3.37151707,5.53837504 5.64659212,3.68678626 7.46508641,2.80582788 Z" id="Path-3" fill="#EFFC35" fill-rule="nonzero" mask="url(#mask-2)" transform="translate(8.305601, 7.381198) rotate(11.000000) translate(-8.305601, -7.381198) "></path>
                        </g>
                    </g>
                </g>
            </g>
        </g>
    </g>
</svg>