<?xml version="1.0" encoding="UTF-8"?>
<svg width="26px" height="25px" viewBox="0 0 26 25" version="1.1" xmlns="http://www.w3.org/2000/svg" xmlns:xlink="http://www.w3.org/1999/xlink">
    <title>50DEC7C2-1F0F-4C13-BEB5-A309379E55D0</title>
    <defs>
        <rect id="path-1" x="0" y="0" width="26" height="25"></rect>
    </defs>
    <g id="Page-1" stroke="none" stroke-width="1" fill="none" fill-rule="evenodd">
        <g id="GUIDE-_-Drawing-_-202202" transform="translate(-1189.000000, -5623.000000)">
            <g id="Group-14" transform="translate(890.000000, 5367.000000)">
                <g id="icon_path" transform="translate(299.000000, 256.000000)">
                    <mask id="mask-2" fill="white">
                        <use xlink:href="#path-1"></use>
                    </mask>
                    <g id="Mask"></g>
                    <path d="M12.0675156,2.45004287 C15.9357321,0.576109171 18.4970179,2.76631898 17.2281873,6.02220647 L17.1088708,6.31112821 C16.9621782,6.64486243 16.7807565,6.98023017 16.4752045,7.45717061 L16.1721363,7.91678282 L15.7530898,8.52563459 L14.5686496,10.1885598 L13.1055622,12.2199461 C13.0405896,12.3112242 12.9770013,12.4008576 12.9147761,12.4888867 L12.3707032,13.2683928 L12.0262476,13.7755907 L11.7197364,14.2406645 L11.4497211,14.6663799 C11.323596,14.8698589 11.2106137,15.0596155 11.1099594,15.2372055 L10.9248468,15.5766242 L10.7711603,15.8863641 C10.7250083,15.9849716 10.6838525,16.0790935 10.6474516,16.1691908 C10.3137628,16.9951171 10.367512,17.3759445 10.5178055,17.4752204 C10.6956298,17.5926818 11.151522,17.5396105 11.6201618,17.2198721 L11.8200468,17.0789505 L12.1889494,16.8033167 L12.8201441,16.3085333 L13.4961395,15.7630387 L16.5689942,13.2432006 L17.4227748,12.5549509 L18.1833612,11.9541879 L18.8604163,11.4344418 L19.270152,11.1297588 L19.6499205,10.8562909 L20.0025848,10.612121 C21.605884,9.52699498 22.9576746,9.34103449 23.5500287,10.7009482 C23.8847603,11.4694178 23.7186013,12.5704709 23.1841063,14.0709027 L22.935069,14.7391544 L21.885944,17.4627379 L21.7237083,17.9199846 L21.5809909,18.3744299 L21.5351692,18.5330415 C21.4692346,18.7642636 21.4219901,18.9640061 21.3929629,19.1296325 L21.378,19.218 L21.4905151,19.152361 L21.7754818,18.9694228 L22.1800531,18.6909577 L23.5498549,17.7092948 L24.6160995,16.9218086 L25.5390288,16.2241548 C25.9783084,15.8894132 26.6057765,15.9741579 26.9405181,16.4134375 C27.2752597,16.852717 27.1905149,17.4801851 26.7512354,17.8149267 L26.4261313,18.0620221 L25.5206451,18.7423854 L24.9750646,19.145261 L24.2435866,19.6736628 L23.7821222,20.0017205 L23.2857782,20.3593866 L22.9244683,20.6091255 L22.593372,20.8240587 C21.4829802,21.5150458 20.8580176,21.5606627 19.9861674,20.8998448 C19.2375233,20.3324109 19.2123999,19.4826082 19.5519346,18.2020331 L19.6855016,17.7308989 L19.7837162,17.4141997 L19.9699519,16.8772344 L20.2019841,16.2586636 L21.138291,13.837203 L21.2063663,13.6562314 C21.4478396,13.0106801 21.600342,12.4670855 21.6760306,12.0834654 L21.705,11.917 L21.6713511,11.9349855 C21.5556732,11.9957815 21.4232667,12.0731685 21.2758895,12.1678947 L21.1235871,12.2684283 C21.0183205,12.3396736 20.9085318,12.4157554 20.7938255,12.496939 L20.2431205,12.8975967 L19.8351499,13.2056159 L19.1560142,13.7329929 L18.1126462,14.5664967 L14.4505566,17.5642107 L13.5322943,18.2932361 L13.1013612,18.6196696 L12.8574651,18.7956522 C12.8194881,18.8223601 12.782803,18.8477873 12.7473438,18.8719801 C11.6647988,19.610567 10.352979,19.7632784 9.41548488,19.1440192 C8.33791266,18.4322317 8.14067822,17.0347728 8.7930783,15.4199914 C8.85262773,15.2725982 8.91990337,15.1205105 8.99571337,14.9621331 L9.15895194,14.6365195 C9.1881347,14.5806954 9.21832559,14.5240542 9.24955454,14.466537 L9.4496243,14.1104483 C9.48512518,14.0491906 9.52172398,13.9869386 9.55945063,13.9236333 L9.79958413,13.5306896 L10.0682226,13.1096313 L10.3668028,12.6576231 L10.6967614,12.1718293 L11.2536765,11.3735879 L13.8744973,7.71818399 L14.3864132,6.9820434 L14.6985572,6.51509514 L14.8847771,6.22231359 L15.080124,5.89174691 L15.1943593,5.67724833 L15.2873032,5.48160373 L15.3402696,5.35729411 L15.3646912,5.29599561 C15.9550612,3.78107441 15.2145218,3.14782344 12.9394729,4.24995689 C9.52587197,5.90365488 5.11993809,9.48946085 1.9117787,13.3200823 C1.55717361,13.7434896 0.926470021,13.7992647 0.503062796,13.4446596 C0.0796555717,13.0900545 0.0238804186,12.459351 0.378485505,12.0359437 C3.76004346,7.99828008 8.38562464,4.23371232 12.0675156,2.45004287 Z" id="Path-3" fill="#7A7F34" fill-rule="nonzero" mask="url(#mask-2)" transform="translate(13.645147, 11.564737) rotate(11.000000) translate(-13.645147, -11.564737) "></path>
                </g>
            </g>
        </g>
    </g>
</svg>