<svg width="28" height="28" viewBox="0 0 28 28" xmlns="http://www.w3.org/2000/svg">
    <g transform="translate(5.5 5)" fill="#666" fill-rule="evenodd">
        <path d="M11.5 13a1 1 0 0 1 1 1v3.25c-1.24.484-2.589.75-4 .75-1.412 0-2.761-.266-4.001-.75L4.5 14a1 1 0 0 1 1-1h6z"/>
        <circle cx="8.5" cy="1.5" r="1.5"/>
        <circle cx="3.5" cy="3.5" r="1.5"/>
        <circle cx="1.5" cy="8.5" r="1.5"/>
        <circle cx="13.5" cy="3.5" r="1.5"/>
        <circle cx="15.5" cy="8.5" r="1.5"/>
        <path d="M8.499 5.5c1.14 0 2.438 1.793 2.864 3.778.08.375.125.778.135 1.21a.5.5 0 0 1-.499.512H6.004a.5.5 0 0 1-.5-.515c.01-.43.055-.832.131-1.207C6.034 7.333 7.36 5.5 8.5 5.5z"/>
    </g>
</svg>
