<?xml version="1.0" encoding="UTF-8"?>
<svg width="28px" height="28px" viewBox="0 0 28 28" version="1.1" xmlns="http://www.w3.org/2000/svg" xmlns:xlink="http://www.w3.org/1999/xlink">
    <title>902E5A9D-702C-4BCC-ADAB-BC167593CF3A</title>
    <g id="Page-1" stroke="none" stroke-width="1" fill="none" fill-rule="evenodd">
        <g id="GUIDE-_-Drawing-_-202202" transform="translate(-632.000000, -3887.000000)" fill="#BABABA">
            <g id="Group-8" transform="translate(70.000000, 3701.000000)">
                <g id="Drawing_toolbar" transform="translate(0.000000, 180.000000)">
                    <g id="icon" transform="translate(46.000000, 6.000000)">
                        <g id="Combined-Shape" transform="translate(516.000000, 0.000000)">
                            <path d="M19.9492727,7.79320788 C20.3943636,8.19793516 20.4270909,8.88848061 20.0223636,9.33357152 L19.0966216,10.3530677 C21.4181067,12.1138757 22.7274909,14.497717 22.7274909,14.497717 C22.7274909,14.497717 19.4514909,20.497717 14.0536727,20.497717 C12.7845626,20.497717 11.6354496,20.1783826 10.6174933,19.6874008 L9.29,21.148117 C9.07509091,21.3859352 8.77836364,21.5059352 8.48272727,21.5059352 C8.22090909,21.5059352 7.95909091,21.412117 7.74854545,21.2222988 C7.30345455,20.8175715 7.27072727,20.1270261 7.67545455,19.6819352 L18.4078182,7.8673897 C18.8147273,7.42011697 19.5030909,7.38957152 19.9492727,7.79320788 Z M17.5064946,12.1038756 L16.0157307,13.7451855 C16.1187156,13.9763031 16.1753818,14.2300079 16.1753818,14.4972806 C16.1753818,15.6045533 15.2077455,16.4892806 14.0001091,16.4892806 C13.8489689,16.4892806 13.7018404,16.4753531 13.5600705,16.448818 L12.0662234,18.0928812 C12.6515791,18.357605 13.3090251,18.505717 14.0002182,18.505717 C16.4165818,18.505717 18.3769455,16.7111715 18.3769455,14.497717 C18.3769455,13.5993202 18.0529306,12.7711048 17.5064946,12.1038756 Z M14.0529091,8.4973897 C14.3365455,8.4973897 14.6114545,8.52357152 14.882,8.55411697 L14.882,8.55411697 L13.0263636,10.5984806 C11.1401818,10.9966624 9.73072727,12.5162988 9.64236364,14.3239352 L9.64236364,14.3239352 L7.16927273,17.0457533 C5.93981818,15.7115715 5.27327273,14.4973897 5.27327273,14.4973897 C5.27327273,14.4973897 8.54927273,8.4973897 14.0529091,8.4973897 Z"></path>
                        </g>
                    </g>
                </g>
            </g>
        </g>
    </g>
</svg>