<?xml version="1.0" encoding="UTF-8"?>
<svg width="28px" height="28px" viewBox="0 0 28 28" version="1.1" xmlns="http://www.w3.org/2000/svg" xmlns:xlink="http://www.w3.org/1999/xlink">
    <title>DB50D1C5-E4B5-4F4D-9B58-9AE7CD810B22</title>
    <g id="Page-1" stroke="none" stroke-width="1" fill="none" fill-rule="evenodd">
        <g id="GUIDE-_-Drawing-_-202202" transform="translate(-500.000000, -5367.000000)" fill="#BABABA">
            <g id="Group-13" transform="translate(70.000000, 5341.000000)">
                <g id="Fill-1" transform="translate(430.000000, 26.000000)">
                    <path d="M16.1751049,14.5 C16.1751049,15.6065574 15.2083916,16.4918033 14,16.4918033 C12.7916084,16.4918033 11.8248951,15.6065574 11.8248951,14.5 C11.8248951,13.3934426 12.7916084,12.5081967 14,12.5081967 C15.2083916,12.5081967 16.1751049,13.3934426 16.1751049,14.5 M14,18.5081967 C11.6100699,18.5081967 9.62320559,16.7377049 9.62320559,14.5 C9.62320559,12.3114754 11.5832168,10.4918033 14,10.4918033 C16.4167832,10.4918033 18.3770629,12.2868852 18.3770629,14.5 C18.3770629,16.7131148 16.4167832,18.5081967 14,18.5081967 M14.0539748,8.5 C8.54907972,8.5 5.27272727,14.5 5.27272727,14.5 C5.27272727,14.5 8.54907972,20.5 14.0539748,20.5 C19.4511888,20.5 22.7272727,14.5 22.7272727,14.5 C22.7272727,14.5 19.4511888,8.5 14.0539748,8.5"></path>
                </g>
            </g>
        </g>
    </g>
</svg>