<svg width="28" height="28" viewBox="0 0 28 28" xmlns="http://www.w3.org/2000/svg">
    <path d="M19.95 7.793c.444.405.477 1.095.072 1.54l-.925 1.02c2.321 1.76 3.63 4.145 3.63 4.145s-3.276 6-8.673 6c-1.27 0-2.419-.32-3.437-.81l-1.327 1.46a1.092 1.092 0 0 1-1.541.074 1.091 1.091 0 0 1-.074-1.54L18.408 7.867a1.092 1.092 0 0 1 1.541-.074zm-2.444 4.31-1.49 1.642c.103.231.16.485.16.752 0 1.108-.968 1.992-2.176 1.992a2.39 2.39 0 0 1-.44-.04l-1.494 1.644a4.69 4.69 0 0 0 1.934.413c2.417 0 4.377-1.795 4.377-4.008a3.76 3.76 0 0 0-.87-2.394zm-3.453-3.606c.284 0 .558.027.829.057l-1.856 2.044c-1.886.399-3.295 1.918-3.384 3.726L7.17 17.046c-1.23-1.334-1.896-2.549-1.896-2.549s3.276-6 8.78-6z" fill="#FFF" fill-rule="evenodd"/>
</svg>
