<?xml version="1.0" encoding="UTF-8"?>
<svg width="28px" height="28px" viewBox="0 0 28 28" version="1.1" xmlns="http://www.w3.org/2000/svg" xmlns:xlink="http://www.w3.org/1999/xlink">
    <title>01104C51-AE59-4043-B394-3276BEC6FA54</title>
    <g id="Page-1" stroke="none" stroke-width="1" fill="none" fill-rule="evenodd">
        <g id="GUIDE-_-Drawing-_-202202" transform="translate(-108.000000, -6410.000000)" fill="#7A7F34">
            <g id="Group-13" transform="translate(70.000000, 5341.000000)">
                <g id="Group-3" transform="translate(0.000000, 1069.000000)">
                    <g id="ic_highlighter_on_disable" transform="translate(38.000000, 0.000000)">
                        <g id="icon" transform="translate(8.499134, 5.500000)">
                            <path d="M10.0008664,12.5 C10.5531512,12.5 11.0008664,12.9477153 11.0008664,13.5 L11.000953,16.0283457 C9.38297994,16.9643123 7.50448146,17.5 5.50086642,17.5 C3.49683928,17.5 1.61798017,16.9640919 -0.000218507441,16.0277682 L0.000866418687,13.5 C0.000866418687,12.9477153 0.448581669,12.5 1.00086642,12.5 L10.0008664,12.5 Z" id="Combined-Shape"></path>
                            <path d="M5.50086642,5 C8.50097431,5 10.2932374,6.55641472 10.8776556,9.66924417 C10.9500934,10.0489965 10.7007707,10.4154364 10.32098,10.4876721 C10.2786298,10.495727 10.235626,10.4998526 10.1925168,10.5 L0.809216028,10.5 C0.422618866,10.4987087 0.110263613,10.1842661 0.111551055,9.79766889 C0.111694617,9.7545597 0.115820167,9.71155594 0.124077273,9.66924417 C0.708495481,6.55641472 2.50075853,5 5.50086642,5 Z" id="Rectangle"></path>
                            <path d="M2.64974298,2.38167129 L8.05508003,0.354669897 C8.41706425,0.218925814 8.82055276,0.402329684 8.95629684,0.764313906 C8.98576957,0.842907845 9.00086642,0.926161946 9.00086642,1.01010031 L9.00086642,7 C9.00086642,7.27614237 8.77700879,7.5 8.50086642,7.5 L2.50086642,7.5 C2.22472404,7.5 2.00086642,7.27614237 2.00086642,7 L2.00086642,3.31800047 C2.00086642,2.90115591 2.25943925,2.52803519 2.64974298,2.38167129 Z" id="Rectangle"></path>
                        </g>
                    </g>
                </g>
            </g>
        </g>
    </g>
</svg>