<svg width="28" height="28" viewBox="0 0 28 28" xmlns="http://www.w3.org/2000/svg">
    <g fill="#666" fill-rule="evenodd">
        <path d="M18.5 18a1 1 0 0 1 1 1v2.528A10.95 10.95 0 0 1 14 23a10.95 10.95 0 0 1-5.501-1.472L8.5 19a1 1 0 0 1 1-1h9zM14 10.5c3 0 4.792 1.556 5.377 4.67a.7.7 0 0 1-.685.83H9.308a.7.7 0 0 1-.685-.83C9.208 12.055 11 10.5 14 10.5z"/>
        <path d="m11.149 7.882 5.405-2.027a.7.7 0 0 1 .946.655v5.99a.5.5 0 0 1-.5.5h-6a.5.5 0 0 1-.5-.5V8.818a1 1 0 0 1 .649-.936z"/>
    </g>
</svg>
