<?xml version="1.0" encoding="UTF-8"?>
<svg width="28px" height="28px" viewBox="0 0 28 28" version="1.1" xmlns="http://www.w3.org/2000/svg" xmlns:xlink="http://www.w3.org/1999/xlink">
    <title>F53FA911-1044-43CE-8B7D-AC2C0C94D664</title>
    <g id="Page-1" stroke="none" stroke-width="1" fill="none" fill-rule="evenodd">
        <g id="GUIDE-_-Drawing-_-202202" transform="translate(-462.000000, -5367.000000)" fill="#BABABA" fill-rule="nonzero" stroke="#BABABA" stroke-width="0.5">
            <g id="Group-13" transform="translate(70.000000, 5341.000000)">
                <g id="ic_trash_normal" transform="translate(392.000000, 26.000000)">
                    <g id="icon" transform="translate(6.500000, 6.500000)">
                        <path d="M12.7628965,4.38583271 C13.0300747,4.38583271 13.2458724,4.60163047 13.2458724,4.86880866 L13.2458724,12.4566692 C13.2458724,13.8593547 12.1052271,15 10.7025416,15 L4.29745838,15 C2.89580051,15 1.75412756,13.8593547 1.75412756,12.4566692 L1.75412756,4.86880866 C1.75412756,4.60163047 1.96992533,4.38583271 2.23710351,4.38583271 C2.5042817,4.38583271 2.72007947,4.60163047 2.72007947,4.86880866 L2.72007947,12.4566692 C2.72007947,13.3270535 3.42707406,14.0350757 4.29745838,14.0350757 L10.7025416,14.0350757 C11.5729259,14.0350757 12.2809481,13.3260259 12.2809481,12.4566692 L12.2809481,4.86880866 C12.2809481,4.60163047 12.4967459,4.38583271 12.7628965,4.38583271 L12.7628965,4.38583271 Z M6.22833459,5.74638624 L6.22833459,11.8853189 C6.22833459,12.1524971 6.01253682,12.3682949 5.74535864,12.3682949 C5.47920806,12.3682949 5.26238268,12.1524971 5.26238268,11.8853189 L5.26238268,5.74535864 C5.26238268,5.47920806 5.47920806,5.26238268 5.74535864,5.26238268 C6.01253682,5.26341029 6.22833459,5.47920806 6.22833459,5.74638624 Z M9.73761732,5.74638624 L9.73761732,11.8853189 C9.73761732,12.1524971 9.52079194,12.3682949 9.25464136,12.3682949 C8.98746318,12.3682949 8.77166541,12.1524971 8.77166541,11.8853189 L8.77166541,5.74535864 C8.77166541,5.47920806 8.98746318,5.26238268 9.25464136,5.26238268 C9.52079194,5.26341029 9.73761732,5.47920806 9.73761732,5.74638624 Z M0.482975954,2.71905186 C0.215797767,2.71905186 0,2.50325409 0,2.23607591 C0,1.97095294 0.215797767,1.75412756 0.482975954,1.75412756 L7.01651024,1.75412756 L7.01753785,0.482975954 C7.01753785,0.215797767 7.23333562,0 7.5005138,0 C7.76666438,0 7.98246215,0.215797767 7.98246215,0.482975954 L7.98246215,1.75412756 L14.5180517,1.75412756 C14.7842022,1.75412756 15,1.96992533 15,2.23710351 C15,2.5042817 14.7842022,2.72007947 14.517024,2.72007947 L0.482975954,2.71905186 Z" id="Shape"></path>
                    </g>
                </g>
            </g>
        </g>
    </g>
</svg>