<?xml version="1.0" encoding="UTF-8"?>
<svg width="28px" height="28px" viewBox="0 0 28 28" version="1.1" xmlns="http://www.w3.org/2000/svg" xmlns:xlink="http://www.w3.org/1999/xlink">
    <title>86BCA00D-57BC-44AA-B79E-870EDF299C5D</title>
    <g id="Page-1" stroke="none" stroke-width="1" fill="none" fill-rule="evenodd">
        <g id="GUIDE-_-Drawing-_-202202" transform="translate(-386.000000, -5367.000000)">
            <g id="Group-13" transform="translate(70.000000, 5341.000000)">
                <g id="ic_undo_normal" transform="translate(316.000000, 26.000000)">
                    <g id="icon_path" transform="translate(6.000000, 4.250000)">
                        <g id="icon_arrow1" transform="translate(3.000000, 5.500000) rotate(-270.000000) translate(-3.000000, -5.500000) translate(-2.500000, 2.500000)" stroke="#BABABA" stroke-linecap="round" stroke-linejoin="round" stroke-width="1.5">
                            <polyline id="Path-3" transform="translate(5.531250, 3.150000) rotate(-270.000000) translate(-5.531250, -3.150000) " points="4.18125 0.61875 6.88125 3.15 4.18125 5.68125"></polyline>
                        </g>
                        <path d="M10,4.75 C13.0375661,4.75 15.5,7.21243388 15.5,10.25 C15.5,13.2875661 13.0375661,15.75 10,15.75 L4.29966587,15.75 L4.29966587,14.25 L10,14.25 C12.209139,14.25 14,12.459139 14,10.25 C14,8.10780461 12.3160315,6.35892112 10.1996403,6.25489531 L10,6.25 L3,6.25 C2.83038641,6.25 2.66323852,6.26055692 2.49917755,6.28104952 L2.49938789,4.7724767 C2.66426775,4.7576001 2.83124633,4.75 3,4.75 L10,4.75 Z" id="Combined-Shape" fill="#BABABA" fill-rule="nonzero"></path>
                        <circle id="Oval" fill="#BABABA" cx="4.25" cy="15" r="1"></circle>
                    </g>
                </g>
            </g>
        </g>
    </g>
</svg>