<svg width="28" height="28" viewBox="0 0 28 28" fill="none" xmlns="http://www.w3.org/2000/svg">
<path fill-rule="evenodd" clip-rule="evenodd" d="M10.1117 17.8919C7.96345 17.8919 6.21545 16.1439 6.21545 13.9969C6.21545 11.8498 7.96345 10.1018 10.1117 10.1018H12.0138H14.3586L12.9637 11.1586L13.8216 12.2868L16.7023 10.1018L16.8921 9.95805C17.068 9.82465 17.1727 9.61535 17.1727 9.3934C17.1727 9.17145 17.068 8.9633 16.8921 8.8299L16.7012 8.685L13.8216 6.5L12.9637 7.62815L14.3575 8.685H12.0138H10.1117C7.1895 8.685 4.7998 11.0759 4.7998 13.9969C4.7998 16.9179 7.1895 19.3087 10.1117 19.3087H15.1866C15.2418 18.9016 15.4362 18.5405 15.7248 18.2748C15.6029 18.1633 15.4994 18.0345 15.4132 17.8919H10.1117ZM21.3874 12.2952H22.6386C22.7364 12.2952 22.8295 12.309 22.9227 12.324C22.2729 10.3908 20.5514 8.93723 18.4618 8.71643C18.5366 8.93378 18.5883 9.15918 18.5883 9.39378C18.5883 9.65368 18.5274 9.90438 18.4365 10.1424C19.7406 10.323 20.8285 11.1567 21.3874 12.2952ZM22.6385 13.4454C22.9513 13.4454 23.2077 13.7007 23.2123 14.0124C23.2123 14.0134 23.2126 14.0145 23.2128 14.0156C23.2131 14.017 23.2135 14.0185 23.2135 14.0204V14.2504C23.2135 14.3309 23.1951 14.4091 23.164 14.4793C23.0755 14.6817 22.8731 14.8254 22.6385 14.8254H21.7035H16.8885C16.5722 14.8254 16.3135 14.5667 16.3135 14.2504V14.0204C16.3135 13.7042 16.5722 13.4454 16.8885 13.4454H21.7461H22.6385ZM22.7067 16.2191C22.696 16.2181 22.6861 16.2152 22.6763 16.2124C22.664 16.2089 22.6517 16.2053 22.6377 16.2053H21.1036H16.8877C16.5714 16.2053 16.3127 16.4641 16.3127 16.7803V17.0103C16.3127 17.3266 16.5714 17.5853 16.8877 17.5853H19.4177H21.7878H22.6377C22.9551 17.5853 23.2127 17.3266 23.2127 17.0103V16.7803C23.2127 16.4882 22.9896 16.2548 22.7067 16.2191ZM19.7209 18.965H22.6385C22.9547 18.965 23.2135 19.2237 23.2135 19.54V19.77C23.2135 20.0862 22.9547 20.345 22.6385 20.345H16.8885C16.5722 20.345 16.3135 20.0862 16.3135 19.77V19.54C16.3135 19.4572 16.333 19.3801 16.3641 19.3088C16.4538 19.1076 16.655 18.965 16.8885 18.965H19.7209Z" fill="#666666"/>
</svg>