<svg width="28" height="28" viewBox="0 0 28 28" fill="none" xmlns="http://www.w3.org/2000/svg">
<path fill-rule="evenodd" clip-rule="evenodd" d="M16.8795 11.6851C17.029 11.5368 17.19 11.4057 17.3602 11.2918C17.7029 11.063 18.0824 10.9065 18.4837 10.8261C18.6827 10.787 18.8885 10.7662 19.0967 10.7662H20.1926L19.0139 11.6586L19.4118 12.1831L19.8718 12.7868L20.6687 12.1831L22.9412 10.4592C22.9555 10.4483 22.9653 10.4337 22.9751 10.4194C22.9818 10.4095 22.9884 10.3998 22.9964 10.3914C23.1321 10.2591 23.2218 10.0855 23.2218 9.89455C23.2218 9.7025 23.1321 9.52885 22.9964 9.3966C22.9885 9.38827 22.9819 9.37881 22.9753 9.36929L22.9753 9.36928C22.9655 9.35516 22.9556 9.34089 22.9412 9.3299L20.6917 7.6233L19.8718 7L19.398 7.6233L19.0139 8.1293L20.2156 9.0401H19.0967C18.1295 9.0401 17.2004 9.323 16.408 9.852C16.1424 10.0291 15.894 10.2327 15.6616 10.4627L13.2892 12.8351L12.1622 13.9621L9.7909 16.3334C9.6414 16.4817 9.4804 16.614 9.3102 16.7278C8.7973 17.0694 8.19815 17.2522 7.5737 17.2522H5.08855V18.9784H7.5737C8.05785 18.9784 8.53165 18.9083 8.9836 18.7714C9.43555 18.6334 9.86565 18.431 10.2636 18.1665C10.3958 18.078 10.5246 17.9837 10.6488 17.8813C10.773 17.7801 10.8938 17.672 11.0099 17.557L13.3823 15.1834L14.5082 14.0564L16.8795 11.6851ZM9.83575 11.6358L11.1606 12.9606L12.2875 11.8336L10.9616 10.5065C10.0508 9.60371 8.84905 9.10577 7.5737 9.10577H5V10.6997H7.5737C8.42355 10.6997 9.22855 11.032 9.83575 11.6358ZM18.8898 16.2728L19.7466 15.1446L22.8171 17.4745C22.993 17.6091 23.0977 17.8172 23.0977 18.0392C23.0977 18.26 22.993 18.4693 22.8171 18.6027L19.7466 20.9314L18.8898 19.8033L20.0651 18.912H19.0968C17.8238 18.912 16.622 18.4152 15.7101 17.5125L14.3841 16.1842L15.51 15.0572L16.8359 16.3832C17.4443 16.9869 18.247 17.3193 19.0968 17.3193H20.2687L18.8898 16.2728Z" fill="#EFFC35"/>
</svg>
