<svg width="26" height="26" viewBox="0 0 26 26" fill="none" xmlns="http://www.w3.org/2000/svg">
<mask id="path-1-outside-1_431_15826" maskUnits="userSpaceOnUse" x="5.19922" y="5.40039" width="17" height="15" fill="black">
<rect fill="white" x="5.19922" y="5.40039" width="17" height="15"/>
<path fill-rule="evenodd" clip-rule="evenodd" d="M21.5711 12.2324C21.2669 11.9329 20.7735 11.9329 20.4683 12.2324L19.8931 12.7988C19.7059 9.24007 16.7156 6.40039 13.0554 6.40039C9.27534 6.40039 6.19922 9.42823 6.19922 13.1511C6.19922 16.873 9.27534 19.9009 13.0554 19.9009C13.4864 19.9009 13.8344 19.5572 13.8344 19.1329C13.8344 18.7086 13.4864 18.3658 13.0554 18.3658C10.1353 18.3658 7.75922 16.0263 7.75922 13.1511C7.75922 10.275 10.1353 7.93543 13.0554 7.93543C15.8429 7.93543 18.1283 10.0676 18.3321 12.7614L17.7949 12.2324C17.4897 11.9329 16.9964 11.9329 16.6912 12.2324C16.387 12.5319 16.387 13.0186 16.6912 13.3191L18.5798 15.1777C18.7319 15.3284 18.9317 15.4033 19.1316 15.4033C19.3305 15.4033 19.5304 15.3284 19.6825 15.1777L21.5711 13.3191C21.8753 13.0186 21.8753 12.5319 21.5711 12.2324Z"/>
</mask>
<path fill-rule="evenodd" clip-rule="evenodd" d="M21.5711 12.2324C21.2669 11.9329 20.7735 11.9329 20.4683 12.2324L19.8931 12.7988C19.7059 9.24007 16.7156 6.40039 13.0554 6.40039C9.27534 6.40039 6.19922 9.42823 6.19922 13.1511C6.19922 16.873 9.27534 19.9009 13.0554 19.9009C13.4864 19.9009 13.8344 19.5572 13.8344 19.1329C13.8344 18.7086 13.4864 18.3658 13.0554 18.3658C10.1353 18.3658 7.75922 16.0263 7.75922 13.1511C7.75922 10.275 10.1353 7.93543 13.0554 7.93543C15.8429 7.93543 18.1283 10.0676 18.3321 12.7614L17.7949 12.2324C17.4897 11.9329 16.9964 11.9329 16.6912 12.2324C16.387 12.5319 16.387 13.0186 16.6912 13.3191L18.5798 15.1777C18.7319 15.3284 18.9317 15.4033 19.1316 15.4033C19.3305 15.4033 19.5304 15.3284 19.6825 15.1777L21.5711 13.3191C21.8753 13.0186 21.8753 12.5319 21.5711 12.2324Z" fill="#666666"/>
<path d="M20.4683 12.2324L20.3983 12.161L20.3982 12.1611L20.4683 12.2324ZM19.8931 12.7988L19.7932 12.804L19.8049 13.026L19.9633 12.87L19.8931 12.7988ZM18.3321 12.7614L18.262 12.8326L18.4519 13.0197L18.4318 12.7538L18.3321 12.7614ZM17.7949 12.2324L17.8651 12.1611L17.8649 12.161L17.7949 12.2324ZM16.6912 12.2324L16.6211 12.161L16.621 12.1611L16.6912 12.2324ZM16.6912 13.3191L16.6209 13.3903L16.6211 13.3904L16.6912 13.3191ZM18.5798 15.1777L18.6502 15.1066L18.6499 15.1064L18.5798 15.1777ZM19.6825 15.1777L19.6124 15.1064L19.6121 15.1066L19.6825 15.1777ZM21.5711 13.3191L21.6412 13.3904L21.6413 13.3903L21.5711 13.3191ZM21.6412 12.1611C21.298 11.8232 20.7423 11.8234 20.3983 12.161L20.5384 12.3038C20.8047 12.0424 21.2357 12.0425 21.5009 12.3036L21.6412 12.1611ZM20.3982 12.1611L19.8229 12.7275L19.9633 12.87L20.5385 12.3036L20.3982 12.1611ZM19.993 12.7935C19.8029 9.18085 16.7679 6.30039 13.0554 6.30039V6.50039C16.6632 6.50039 19.6089 9.29929 19.7932 12.804L19.993 12.7935ZM13.0554 6.30039C9.22159 6.30039 6.09922 9.37154 6.09922 13.1511H6.29922C6.29922 9.48492 9.3291 6.50039 13.0554 6.50039V6.30039ZM6.09922 13.1511C6.09922 16.9297 9.2216 20.0009 13.0554 20.0009V19.8009C9.32909 19.8009 6.29922 16.8163 6.29922 13.1511H6.09922ZM13.0554 20.0009C13.5403 20.0009 13.9344 19.6137 13.9344 19.1329H13.7344C13.7344 19.5007 13.4324 19.8009 13.0554 19.8009V20.0009ZM13.9344 19.1329C13.9344 18.6519 13.5401 18.2658 13.0554 18.2658V18.4658C13.4326 18.4658 13.7344 18.7652 13.7344 19.1329H13.9344ZM13.0554 18.2658C10.1891 18.2658 7.85922 15.9696 7.85922 13.1511H7.65922C7.65922 16.083 10.0815 18.4658 13.0554 18.4658V18.2658ZM7.85922 13.1511C7.85922 10.3316 10.1891 8.03543 13.0554 8.03543V7.83543C10.0815 7.83543 7.65922 10.2183 7.65922 13.1511H7.85922ZM13.0554 8.03543C15.7913 8.03543 18.0326 10.128 18.2324 12.7689L18.4318 12.7538C18.2241 10.0072 15.8946 7.83543 13.0554 7.83543V8.03543ZM18.4023 12.6901L17.8651 12.1611L17.7247 12.3036L18.262 12.8326L18.4023 12.6901ZM17.8649 12.161C17.5209 11.8233 16.9652 11.8233 16.6211 12.161L16.7612 12.3038C17.0275 12.0424 17.4586 12.0424 17.7248 12.3038L17.8649 12.161ZM16.621 12.1611C16.277 12.4999 16.2771 13.0507 16.6209 13.3903L16.7615 13.248C16.4968 12.9866 16.497 12.5639 16.7614 12.3036L16.621 12.1611ZM16.6211 13.3904L18.5096 15.2489L18.6499 15.1064L16.7613 13.2478L16.6211 13.3904ZM18.5094 15.2487C18.6812 15.419 18.9069 15.5033 19.1316 15.5033V15.3033C18.9566 15.3033 18.7825 15.2378 18.6502 15.1066L18.5094 15.2487ZM19.1316 15.5033C19.3555 15.5033 19.5811 15.419 19.7529 15.2487L19.6121 15.1066C19.4797 15.2378 19.3056 15.3033 19.1316 15.3033V15.5033ZM19.7526 15.2489L21.6412 13.3904L21.5009 13.2478L19.6124 15.1064L19.7526 15.2489ZM21.6413 13.3903C21.9851 13.0507 21.9853 12.4999 21.6412 12.1611L21.5009 12.3036C21.7653 12.5639 21.7654 12.9866 21.5008 13.248L21.6413 13.3903Z" fill="#666666" mask="url(#path-1-outside-1_431_15826)"/>
</svg>
