<svg width="28" height="28" viewBox="0 0 28 28" fill="none" xmlns="http://www.w3.org/2000/svg">
<mask id="path-1-outside-1_448_17381" maskUnits="userSpaceOnUse" x="6.19922" y="6.40039" width="17" height="15" fill="black">
<rect fill="white" x="6.19922" y="6.40039" width="17" height="15"/>
<path fill-rule="evenodd" clip-rule="evenodd" d="M22.5711 13.2324C22.2669 12.9329 21.7735 12.9329 21.4683 13.2324L20.8931 13.7988C20.7059 10.2401 17.7156 7.40039 14.0554 7.40039C10.2753 7.40039 7.19922 10.4282 7.19922 14.1511C7.19922 17.873 10.2753 20.9009 14.0554 20.9009C14.4864 20.9009 14.8344 20.5572 14.8344 20.1329C14.8344 19.7086 14.4864 19.3658 14.0554 19.3658C11.1353 19.3658 8.75922 17.0263 8.75922 14.1511C8.75922 11.275 11.1353 8.93543 14.0554 8.93543C16.8429 8.93543 19.1283 11.0676 19.3321 13.7614L18.7949 13.2324C18.4897 12.9329 17.9964 12.9329 17.6912 13.2324C17.387 13.5319 17.387 14.0186 17.6912 14.3191L19.5798 16.1777C19.7319 16.3284 19.9317 16.4033 20.1316 16.4033C20.3305 16.4033 20.5304 16.3284 20.6825 16.1777L22.5711 14.3191C22.8753 14.0186 22.8753 13.5319 22.5711 13.2324"/>
</mask>
<path fill-rule="evenodd" clip-rule="evenodd" d="M22.5711 13.2324C22.2669 12.9329 21.7735 12.9329 21.4683 13.2324L20.8931 13.7988C20.7059 10.2401 17.7156 7.40039 14.0554 7.40039C10.2753 7.40039 7.19922 10.4282 7.19922 14.1511C7.19922 17.873 10.2753 20.9009 14.0554 20.9009C14.4864 20.9009 14.8344 20.5572 14.8344 20.1329C14.8344 19.7086 14.4864 19.3658 14.0554 19.3658C11.1353 19.3658 8.75922 17.0263 8.75922 14.1511C8.75922 11.275 11.1353 8.93543 14.0554 8.93543C16.8429 8.93543 19.1283 11.0676 19.3321 13.7614L18.7949 13.2324C18.4897 12.9329 17.9964 12.9329 17.6912 13.2324C17.387 13.5319 17.387 14.0186 17.6912 14.3191L19.5798 16.1777C19.7319 16.3284 19.9317 16.4033 20.1316 16.4033C20.3305 16.4033 20.5304 16.3284 20.6825 16.1777L22.5711 14.3191C22.8753 14.0186 22.8753 13.5319 22.5711 13.2324" fill="white"/>
<path d="M21.4683 13.2324L21.3983 13.161L21.3982 13.1611L21.4683 13.2324ZM20.8931 13.7988L20.7932 13.804L20.8049 14.026L20.9633 13.87L20.8931 13.7988ZM19.3321 13.7614L19.262 13.8326L19.4519 14.0197L19.4318 13.7538L19.3321 13.7614ZM18.7949 13.2324L18.8651 13.1611L18.8649 13.161L18.7949 13.2324ZM17.6912 13.2324L17.6211 13.161L17.621 13.1611L17.6912 13.2324ZM17.6912 14.3191L17.6209 14.3903L17.6211 14.3904L17.6912 14.3191ZM19.5798 16.1777L19.6502 16.1066L19.6499 16.1064L19.5798 16.1777ZM20.6825 16.1777L20.6124 16.1064L20.6121 16.1066L20.6825 16.1777ZM22.5711 14.3191L22.6412 14.3904L22.6413 14.3903L22.5711 14.3191ZM22.6412 13.1611C22.298 12.8232 21.7423 12.8234 21.3983 13.161L21.5384 13.3038C21.8047 13.0424 22.2357 13.0425 22.5009 13.3036L22.6412 13.1611ZM21.3982 13.1611L20.8229 13.7275L20.9633 13.87L21.5385 13.3036L21.3982 13.1611ZM20.993 13.7935C20.8029 10.1809 17.7679 7.30039 14.0554 7.30039V7.50039C17.6632 7.50039 20.6089 10.2993 20.7932 13.804L20.993 13.7935ZM14.0554 7.30039C10.2216 7.30039 7.09922 10.3715 7.09922 14.1511H7.29922C7.29922 10.4849 10.3291 7.50039 14.0554 7.50039V7.30039ZM7.09922 14.1511C7.09922 17.9297 10.2216 21.0009 14.0554 21.0009V20.8009C10.3291 20.8009 7.29922 17.8163 7.29922 14.1511H7.09922ZM14.0554 21.0009C14.5403 21.0009 14.9344 20.6137 14.9344 20.1329H14.7344C14.7344 20.5007 14.4324 20.8009 14.0554 20.8009V21.0009ZM14.9344 20.1329C14.9344 19.6519 14.5401 19.2658 14.0554 19.2658V19.4658C14.4326 19.4658 14.7344 19.7652 14.7344 20.1329H14.9344ZM14.0554 19.2658C11.1891 19.2658 8.85922 16.9696 8.85922 14.1511H8.65922C8.65922 17.083 11.0815 19.4658 14.0554 19.4658V19.2658ZM8.85922 14.1511C8.85922 11.3316 11.1891 9.03543 14.0554 9.03543V8.83543C11.0815 8.83543 8.65922 11.2183 8.65922 14.1511H8.85922ZM14.0554 9.03543C16.7913 9.03543 19.0326 11.128 19.2324 13.7689L19.4318 13.7538C19.2241 11.0072 16.8946 8.83543 14.0554 8.83543V9.03543ZM19.4023 13.6901L18.8651 13.1611L18.7247 13.3036L19.262 13.8326L19.4023 13.6901ZM18.8649 13.161C18.5209 12.8233 17.9652 12.8233 17.6211 13.161L17.7612 13.3038C18.0275 13.0424 18.4586 13.0424 18.7248 13.3038L18.8649 13.161ZM17.621 13.1611C17.277 13.4999 17.2771 14.0507 17.6209 14.3903L17.7615 14.248C17.4968 13.9866 17.497 13.5639 17.7614 13.3036L17.621 13.1611ZM17.6211 14.3904L19.5096 16.2489L19.6499 16.1064L17.7613 14.2478L17.6211 14.3904ZM19.5094 16.2487C19.6812 16.419 19.9069 16.5033 20.1316 16.5033V16.3033C19.9566 16.3033 19.7825 16.2378 19.6502 16.1066L19.5094 16.2487ZM20.1316 16.5033C20.3555 16.5033 20.5811 16.419 20.7529 16.2487L20.6121 16.1066C20.4797 16.2378 20.3056 16.3033 20.1316 16.3033V16.5033ZM20.7526 16.2489L22.6412 14.3904L22.5009 14.2478L20.6124 16.1064L20.7526 16.2489ZM22.6413 14.3903C22.9851 14.0507 22.9853 13.4999 22.6412 13.1611L22.5009 13.3036C22.7653 13.5639 22.7654 13.9866 22.5008 14.248L22.6413 14.3903Z" fill="white" mask="url(#path-1-outside-1_448_17381)"/>
</svg>
