<svg width="28" height="28" viewBox="0 0 28 28" fill="none" xmlns="http://www.w3.org/2000/svg">
<path fill-rule="evenodd" clip-rule="evenodd" d="M10.4935 9.74555C8.28325 9.74555 6.4858 11.543 6.4858 13.7522C6.4858 15.3449 7.42765 16.7559 8.86055 17.3965C8.66275 17.7288 8.542 18.106 8.542 18.5016C8.542 18.6245 8.56293 18.7432 8.58383 18.8617C8.58483 18.8674 8.58584 18.8731 8.58685 18.8788C6.4605 18.0854 5 16.0464 5 13.7522C5 10.7231 7.46445 8.25975 10.4935 8.25975H15.097L13.6583 7.19485L14.5438 6L17.7949 8.4058C17.9835 8.54495 18.0962 8.7692 18.0962 9.0038C18.0962 9.2384 17.9835 9.4615 17.7949 9.60065L14.5438 12.0041L13.6583 10.8093L15.097 9.74555H10.4935ZM19.51 8.4771L19.7872 8.57485C21.9848 9.34995 23.4614 11.4303 23.4614 13.7522C23.4614 16.7812 20.997 19.2446 17.9679 19.2446H12.9562L14.396 20.3095L13.5116 21.5043L10.2606 19.0996C10.0708 18.9593 9.95811 18.7362 9.95811 18.5016C9.95811 18.2671 10.0708 18.0428 10.2606 17.9048L13.5105 15.499L14.396 16.6938L12.9562 17.7587H17.9679C20.177 17.7587 21.9745 15.9613 21.9745 13.7522C21.9745 12.1042 20.982 10.6437 19.4456 10.0319L19.2524 9.95485L19.3594 9.7766C19.5054 9.5305 19.5825 9.26255 19.5825 9.0038C19.5825 8.94875 19.574 8.89558 19.5656 8.8426C19.5647 8.83691 19.5638 8.83123 19.5629 8.82555L19.51 8.4771Z" fill="#BABABA"/>
</svg>
