<svg width="28" height="28" viewBox="0 0 28 28" fill="none" xmlns="http://www.w3.org/2000/svg">
<path fill-rule="evenodd" clip-rule="evenodd" d="M6.5 8.73608C6.5 9.00325 6.7158 9.21905 6.98298 9.21905L21.017 9.22008C21.2842 9.22008 21.5 9.00428 21.5 8.7371C21.5 8.46993 21.2842 8.25413 21.0181 8.25413H14.4825V6.98298C14.4825 6.7158 14.2667 6.5 14.0005 6.5C13.7333 6.5 13.5175 6.7158 13.5175 6.98298L13.5165 8.25413H6.98298C6.7158 8.25413 6.5 8.47095 6.5 8.73608ZM19.7459 11.3688C19.7459 11.1016 19.5301 10.8858 19.2629 10.8858C18.9967 10.8858 18.7809 11.1016 18.7809 11.3688V18.9567C18.7809 19.826 18.0729 20.5351 17.2025 20.5351H10.7975C9.92707 20.5351 9.22008 19.8271 9.22008 18.9567V11.3688C9.22008 11.1016 9.00428 10.8858 8.7371 10.8858C8.46993 10.8858 8.25413 11.1016 8.25413 11.3688V18.9567C8.25413 20.3594 9.3958 21.5 10.7975 21.5H17.2025C18.6052 21.5 19.7459 20.3594 19.7459 18.9567V11.3688ZM12.7283 18.3853V12.2464C12.7283 11.9792 12.5125 11.7634 12.2454 11.7624C11.9792 11.7624 11.7624 11.9792 11.7624 12.2454V18.3853C11.7624 18.6525 11.9792 18.8683 12.2454 18.8683C12.5125 18.8683 12.7283 18.6525 12.7283 18.3853ZM16.2376 12.2464V18.3853C16.2376 18.6525 16.0208 18.8683 15.7546 18.8683C15.4875 18.8683 15.2717 18.6525 15.2717 18.3853V12.2454C15.2717 11.9792 15.4875 11.7624 15.7546 11.7624C16.0208 11.7634 16.2376 11.9792 16.2376 12.2464Z" fill="#BABABA"/>
<path d="M6.98298 9.21905L6.98299 8.96905H6.98298V9.21905ZM21.017 9.22008L21.017 9.47008H21.017V9.22008ZM14.4825 8.25413H14.2325V8.50413H14.4825V8.25413ZM13.5175 6.98298L13.7675 6.98318V6.98298H13.5175ZM13.5165 8.25413V8.50413H13.7663L13.7665 8.25433L13.5165 8.25413ZM12.2454 11.7624L12.2463 11.5124H12.2454V11.7624ZM15.7546 11.7624L15.7556 11.5124H15.7546V11.7624ZM6.98298 8.96905C6.85387 8.96905 6.75 8.86518 6.75 8.73608H6.25C6.25 9.14132 6.57773 9.46905 6.98298 9.46905V8.96905ZM21.017 8.97008L6.98299 8.96905L6.98296 9.46905L21.017 9.47008L21.017 8.97008ZM21.25 8.7371C21.25 8.86621 21.1461 8.97008 21.017 8.97008V9.47008C21.4223 9.47008 21.75 9.14235 21.75 8.7371H21.25ZM21.0181 8.50413C21.1458 8.50413 21.25 8.60765 21.25 8.7371H21.75C21.75 8.3322 21.4226 8.00413 21.0181 8.00413V8.50413ZM14.4825 8.50413H21.0181V8.00413H14.4825V8.50413ZM14.2325 6.98298V8.25413H14.7325V6.98298H14.2325ZM14.0005 6.75C14.1282 6.75 14.2325 6.85352 14.2325 6.98298H14.7325C14.7325 6.57807 14.4051 6.25 14.0005 6.25V6.75ZM13.7675 6.98298C13.7675 6.85387 13.8714 6.75 14.0005 6.75V6.25C13.5953 6.25 13.2675 6.57773 13.2675 6.98298H13.7675ZM13.7665 8.25433L13.7675 6.98318L13.2675 6.98277L13.2665 8.25393L13.7665 8.25433ZM6.98298 8.50413H13.5165V8.00413H6.98298V8.50413ZM6.75 8.73608C6.75 8.60902 6.85387 8.50413 6.98298 8.50413V8.00413C6.57773 8.00413 6.25 8.33288 6.25 8.73608H6.75ZM19.2629 11.1358C19.392 11.1358 19.4959 11.2397 19.4959 11.3688H19.9959C19.9959 10.9636 19.6681 10.6358 19.2629 10.6358V11.1358ZM19.0309 11.3688C19.0309 11.2394 19.1352 11.1358 19.2629 11.1358V10.6358C18.8583 10.6358 18.5309 10.9639 18.5309 11.3688H19.0309ZM19.0309 18.9567V11.3688H18.5309V18.9567H19.0309ZM17.2025 20.7851C18.2111 20.7851 19.0309 19.964 19.0309 18.9567H18.5309C18.5309 19.6881 17.9347 20.2851 17.2025 20.2851V20.7851ZM10.7975 20.7851H17.2025V20.2851H10.7975V20.7851ZM8.97008 18.9567C8.97008 19.9649 9.78879 20.7851 10.7975 20.7851V20.2851C10.0654 20.2851 9.47008 19.6892 9.47008 18.9567H8.97008ZM8.97008 11.3688V18.9567H9.47008V11.3688H8.97008ZM8.7371 11.1358C8.86621 11.1358 8.97008 11.2397 8.97008 11.3688H9.47008C9.47008 10.9636 9.14235 10.6358 8.7371 10.6358V11.1358ZM8.50413 11.3688C8.50413 11.2397 8.608 11.1358 8.7371 11.1358V10.6358C8.33185 10.6358 8.00413 10.9636 8.00413 11.3688H8.50413ZM8.50413 18.9567V11.3688H8.00413V18.9567H8.50413ZM10.7975 21.25C9.53381 21.25 8.50413 20.2212 8.50413 18.9567H8.00413C8.00413 20.4975 9.2578 21.75 10.7975 21.75V21.25ZM17.2025 21.25H10.7975V21.75H17.2025V21.25ZM19.4959 18.9567C19.4959 20.2213 18.4672 21.25 17.2025 21.25V21.75C18.7433 21.75 19.9959 20.4974 19.9959 18.9567H19.4959ZM19.4959 11.3688V18.9567H19.9959V11.3688H19.4959ZM12.4783 12.2464V18.3853H12.9783V12.2464H12.4783ZM12.2444 12.0124C12.3744 12.0129 12.4783 12.1175 12.4783 12.2464H12.9783C12.9783 11.841 12.6506 11.5139 12.2463 11.5124L12.2444 12.0124ZM12.0124 12.2454C12.0124 12.1173 12.1173 12.0124 12.2454 12.0124V11.5124C11.8411 11.5124 11.5124 11.8411 11.5124 12.2454H12.0124ZM12.0124 18.3853V12.2454H11.5124V18.3853H12.0124ZM12.2454 18.6183C12.1169 18.6183 12.0124 18.5141 12.0124 18.3853H11.5124C11.5124 18.7909 11.8415 19.1183 12.2454 19.1183V18.6183ZM12.4783 18.3853C12.4783 18.5144 12.3745 18.6183 12.2454 18.6183V19.1183C12.6506 19.1183 12.9783 18.7906 12.9783 18.3853H12.4783ZM16.4876 18.3853V12.2464H15.9876V18.3853H16.4876ZM15.7546 19.1183C16.1585 19.1183 16.4876 18.7909 16.4876 18.3853H15.9876C15.9876 18.5141 15.8831 18.6183 15.7546 18.6183V19.1183ZM15.0217 18.3853C15.0217 18.7906 15.3494 19.1183 15.7546 19.1183V18.6183C15.6255 18.6183 15.5217 18.5144 15.5217 18.3853H15.0217ZM15.0217 12.2454V18.3853H15.5217V12.2454H15.0217ZM15.7546 11.5124C15.349 11.5124 15.0217 11.8415 15.0217 12.2454H15.5217C15.5217 12.1169 15.6259 12.0124 15.7546 12.0124V11.5124ZM16.4876 12.2464C16.4876 11.8406 16.1585 11.5139 15.7556 11.5124L15.7537 12.0124C15.883 12.0129 15.9876 12.1178 15.9876 12.2464H16.4876Z" fill="#BABABA"/>
</svg>
