<svg width="34" height="34" viewBox="0 0 34 34" fill="none" xmlns="http://www.w3.org/2000/svg">
<rect width="34" height="34" rx="3" fill="#303031"/>
<path d="M16.9322 24.6135C17.1663 24.6047 17.4368 24.5118 17.6075 24.3572L23.6951 18.6576C24.0141 18.3155 24.1457 17.6595 23.7769 17.2771C23.4137 16.9005 22.7092 16.9117 22.3446 17.2869L17.9144 21.4877L17.2566 22.1274C17.2566 22.1274 17.1339 22.2929 16.9322 22.2955C16.7305 22.2981 16.6087 22.1274 16.6087 22.1274L15.95 21.4877L11.6589 17.5637C11.3231 17.2407 10.5939 17.181 10.2265 17.554C9.85914 17.9268 9.97651 18.6064 10.3084 18.9344L16.2569 24.3572C16.4474 24.5299 16.6709 24.6141 16.9322 24.6135Z" fill="#BABABA"/>
<path d="M17 22L17 11" stroke="#BABABA" stroke-width="2" stroke-linecap="round" stroke-linejoin="round"/>
</svg>
