<svg width="40" height="40" viewBox="0 0 40 40" fill="none" xmlns="http://www.w3.org/2000/svg">
<path fill-rule="evenodd" clip-rule="evenodd" d="M20.8857 27.432C20.8857 27.8003 20.5796 28.0997 20.2021 28.0997H19.6871C19.3096 28.0997 19.0039 27.8003 19.0039 27.432V24.9082C19.0039 24.5392 19.3096 24.2401 19.6871 24.2401H20.2021C20.5796 24.2401 20.8857 24.5392 20.8857 24.9082V27.432Z" fill="white"/>
<path opacity="0.4" fill-rule="evenodd" clip-rule="evenodd" d="M20.8857 15.2922C20.8857 15.6612 20.5796 15.9599 20.2021 15.9599H19.6871C19.3096 15.9599 19.0039 15.6612 19.0039 15.2922V12.7684C19.0039 12.4002 19.3096 12.101 19.6871 12.101H20.2021C20.5796 12.101 20.8857 12.4002 20.8857 12.7684V15.2922Z" fill="white"/>
<path fill-rule="evenodd" clip-rule="evenodd" d="M12.4336 21.0189C12.056 21.0189 11.75 20.7198 11.75 20.3519V19.8485C11.75 19.4802 12.056 19.1815 12.4336 19.1815H15.0191C15.3966 19.1815 15.703 19.4802 15.703 19.8485V20.3519C15.703 20.7198 15.3966 21.0189 15.0191 21.0189H12.4336Z" fill="white"/>
<path opacity="0.8" fill-rule="evenodd" clip-rule="evenodd" d="M24.8688 21.0189C24.4912 21.0189 24.1855 20.7198 24.1855 20.3519V19.8485C24.1855 19.4802 24.4912 19.1815 24.8688 19.1815H27.4543C27.8318 19.1815 28.1382 19.4802 28.1382 19.8485V20.3519C28.1382 20.7198 27.8318 21.0189 27.4543 21.0189H24.8688Z" fill="white"/>
<path fill-rule="evenodd" clip-rule="evenodd" d="M15.2986 25.9345C15.0317 26.195 14.5988 26.195 14.332 25.9345L13.9677 25.5792C13.7009 25.318 13.7009 24.8957 13.9677 24.6352L15.7962 22.8504C16.0627 22.5892 16.496 22.5892 16.7628 22.8504L17.1271 23.2057C17.3939 23.4662 17.3939 23.8885 17.1271 24.1497L15.2986 25.9345Z" fill="white"/>
<path opacity="0.6" fill-rule="evenodd" clip-rule="evenodd" d="M24.0914 17.3499C23.8246 17.6111 23.392 17.6111 23.1248 17.3499L22.7609 16.9953C22.4938 16.7341 22.4938 16.3118 22.7609 16.0506L24.5888 14.2665C24.8556 14.006 25.2885 14.006 25.5557 14.2665L25.92 14.6211C26.1868 14.8823 26.1868 15.3046 25.92 15.5658L24.0914 17.3499Z" fill="white"/>
<path opacity="0.1" fill-rule="evenodd" clip-rule="evenodd" d="M13.968 15.5658C13.7008 15.3046 13.7008 14.8823 13.968 14.6214L14.3322 14.2658C14.5991 14.006 15.032 14.006 15.2988 14.2658L17.1274 16.0506C17.3942 16.3118 17.3942 16.7341 17.1274 16.9946L16.7631 17.3499C16.4959 17.6111 16.063 17.6111 15.7961 17.3499L13.968 15.5658Z" fill="white"/>
<path fill-rule="evenodd" clip-rule="evenodd" d="M22.7607 24.1497C22.4938 23.8885 22.4938 23.4662 22.7607 23.2057L23.1249 22.8504C23.3921 22.5892 23.8247 22.5892 24.0915 22.8504L25.9201 24.6345C26.1869 24.8957 26.1869 25.3181 25.9201 25.5793L25.5558 25.9345C25.2886 26.195 24.8557 26.195 24.5888 25.9345L22.7607 24.1497Z" fill="white"/>
</svg>
