<svg width="26" height="25" viewBox="0 0 26 25" xmlns="http://www.w3.org/2000/svg">
    <g fill="#F1FA75" fill-rule="nonzero">
        <path d="M.177 12.47C.177 5.686 5.697.168 12.48.168c1.04 0 2.074.13 3.074.388a.95.95 0 1 1-.473 1.838 10.471 10.471 0 0 0-2.601-.327c-5.736 0-10.403 4.666-10.403 10.401 0 5.736 4.667 10.403 10.403 10.403 4.75 0 8.892-3.207 10.075-7.801a.949.949 0 0 1 1.838.473 12.294 12.294 0 0 1-11.913 9.227C5.696 24.77.177 19.252.177 12.469z"/>
        <path d="M9.151 11.042h.169a1.215 1.215 0 1 0-2.43 0 1.215 1.215 0 0 0 2.43 0h-.169zM17.9 11.042h.169a1.215 1.215 0 1 0-2.43 0 1.215 1.215 0 0 0 2.43 0h-.17zM12.479 18.82v.168c1.777 0 3.449-.945 4.367-2.47a.948.948 0 1 0-1.627-.978 3.172 3.172 0 0 1-2.74 1.55 3.173 3.173 0 0 1-2.74-1.55.949.949 0 0 0-1.627.98 5.127 5.127 0 0 0 4.367 2.468v-.168zM23.693 12.209v.084c.423 0 .765-.324.765-.723V8.515c0-.4-.342-.723-.765-.723-.422 0-.764.323-.764.723v3.055c0 .4.342.723.764.723v-.084z"/>
        <path d="M25.176 10.76v.089c.399 0 .723-.343.723-.765s-.324-.765-.723-.765h-3.049c-.399 0-.722.343-.722.765s.323.765.722.765h3.049v-.09zM20.814 7.38v.085a.865.865 0 0 0 .864-.864V1.31a.866.866 0 0 0-1.729 0v5.29c0 .477.387.864.865.864v-.084z"/>
        <path d="M23.458 4.736v.085a.865.865 0 0 0 0-1.73h-5.29a.865.865 0 0 0 0 1.73h5.29v-.085z"/>
    </g>
</svg>
