<?xml version="1.0" encoding="UTF-8"?>
<svg width="73px" height="64px" viewBox="0 0 73 64" version="1.1" xmlns="http://www.w3.org/2000/svg" xmlns:xlink="http://www.w3.org/1999/xlink">
    <title>6AF85F4F-5213-489A-AE7F-258876627B81</title>
    <g id="Page-1" stroke="none" stroke-width="1" fill="none" fill-rule="evenodd">
        <g id="0525_Release-_Image-Resource" transform="translate(-842.000000, -723.000000)" fill="#666666">
            <g id="ic_cover_camera_large" transform="translate(842.000000, 723.000000)">
                <g id="Group-6" transform="translate(0.175439, 0.218182)">
                    <path d="M68.310419,56.5867133 C68.310419,57.7422 67.3703988,58.6825175 66.2152773,58.6825175 L6.28584413,58.6825175 C5.13072267,58.6825175 4.19070243,57.7422 4.19070243,56.5867133 L4.19070243,15.9099483 C4.19070243,14.7544615 5.13072267,13.8141441 6.28584413,13.8141441 L19.8833138,13.8141441 L52.6178077,13.8141441 L66.2152773,13.8141441 C67.3703988,13.8141441 68.310419,14.7544615 68.310419,15.9099483 L68.310419,56.5867133 Z M26.8475648,4.19160839 L45.6521599,4.19160839 L48.9135972,9.62253566 L23.5861275,9.62253566 L26.8475648,4.19160839 Z M66.2152773,9.62253566 L53.8022611,9.62253566 L48.6342449,1.01716364 C48.2557227,0.385627972 47.5727065,0 46.8380101,0 L25.6631113,0 C24.9270182,0 24.2453988,0.385627972 23.8668765,1.01716364 L18.6974636,9.62253566 L6.28584413,9.62253566 C2.819083,9.62253566 0.00041902834,12.4420909 0.00041902834,15.9099483 L0.00041902834,56.5867133 C0.00041902834,60.0531734 2.819083,62.8741259 6.28584413,62.8741259 L66.2152773,62.8741259 C69.6806417,62.8741259 72.5007024,60.0531734 72.5007024,56.5867133 L72.5007024,15.9099483 C72.5007024,12.4420909 69.6806417,9.62253566 66.2152773,9.62253566 L66.2152773,9.62253566 Z" id="Fill-1"></path>
                    <path d="M36.2502814,43.7880562 C32.094917,43.7880562 28.7147551,40.4054283 28.7147551,36.2487499 C28.7147551,32.0906744 32.094917,28.7094436 36.2502814,28.7094436 C40.4070425,28.7094436 43.7872045,32.0906744 43.7872045,36.2487499 C43.7872045,40.4054283 40.4070425,43.7880562 36.2502814,43.7880562 M36.2502814,24.5178352 C29.7846741,24.5178352 24.5244717,29.779701 24.5244717,36.2487499 C24.5244717,42.7164017 29.7846741,47.9796646 36.2502814,47.9796646 C42.7172854,47.9796646 47.9774879,42.7164017 47.9774879,36.2487499 C47.9774879,29.779701 42.7172854,24.5178352 36.2502814,24.5178352" id="Fill-4"></path>
                </g>
            </g>
        </g>
    </g>
</svg>