<svg width="22" height="22" viewBox="0 0 22 22" fill="none" xmlns="http://www.w3.org/2000/svg">
<path fill-rule="evenodd" clip-rule="evenodd" d="M3.793 17.2817C5.59137 19.0801 7.98251 20.0709 10.5264 20.0709C12.2236 20.0709 13.8816 19.6223 15.3392 18.7718L19.2605 20.0375C19.4867 20.111 19.7368 20.0499 19.9067 19.88C20.0747 19.7101 20.1329 19.46 20.0585 19.2328L18.7737 15.3373C20.9653 11.5907 20.3706 6.88478 17.2827 3.79396C15.4805 1.99177 13.0846 1 10.5378 1C7.99015 1 5.59423 1.99177 3.793 3.79396C1.99273 5.59423 1 7.99015 1 10.5369C1 13.0855 1.99273 15.4795 3.793 17.2817ZM6 11.9091C6.75312 11.9091 7.36364 11.2986 7.36364 10.5455C7.36364 9.79234 6.75312 9.18182 6 9.18182C5.24688 9.18182 4.63636 9.79234 4.63636 10.5455C4.63636 11.2986 5.24688 11.9091 6 11.9091ZM11.9091 10.5455C11.9091 11.2986 11.2986 11.9091 10.5455 11.9091C9.79234 11.9091 9.18182 11.2986 9.18182 10.5455C9.18182 9.79234 9.79234 9.18182 10.5455 9.18182C11.2986 9.18182 11.9091 9.79234 11.9091 10.5455ZM15.0909 11.9091C15.844 11.9091 16.4545 11.2986 16.4545 10.5455C16.4545 9.79234 15.844 9.18182 15.0909 9.18182C14.3378 9.18182 13.7273 9.79234 13.7273 10.5455C13.7273 11.2986 14.3378 11.9091 15.0909 11.9091Z" fill="#F1FA75"/>
</svg>
