<svg width="22" height="22" viewBox="0 0 22 22" fill="none" xmlns="http://www.w3.org/2000/svg">
<path fill-rule="evenodd" clip-rule="evenodd" d="M12 12.6655C12 13.0309 11.7 13.3318 11.3336 13.3318H10.6664C10.3009 13.3318 9.99999 13.0309 9.99999 12.6655V5.99818C9.99999 5.63182 10.3009 5.33182 10.6664 5.33182H11.3336C11.7 5.33182 12 5.63182 12 5.99818V12.6655ZM12 16C12 16.3673 11.7 16.6664 11.3336 16.6664H10.6664C10.3009 16.6664 9.99999 16.3673 9.99999 16V15.3336C9.99999 14.9673 10.3009 14.6664 10.6664 14.6664H11.3336C11.7 14.6664 12 14.9673 12 15.3336V16ZM11 1C5.47636 1 1 5.47636 1 11C1 16.5218 5.47636 21 11 21C16.5236 21 21 16.5218 21 11C21 5.47636 16.5236 1 11 1Z" fill="#444444"/>
</svg>
