<svg width="22" height="22" viewBox="0 0 22 22" fill="none" xmlns="http://www.w3.org/2000/svg">
<g clip-path="url(#clip0_2287_35255)">
<g clip-path="url(#clip1_2287_35255)">
<path d="M13.7806 19.8824C12.9925 20.578 11.9573 21 10.8236 21C9.68982 21 8.65463 20.578 7.86655 19.8824M17.5266 12.261V8.70592C17.5266 4.99276 14.5367 2 10.8236 2C7.11041 2 4.08006 4.86517 4.08006 8.70592V12.2369C4.08006 12.7769 3.9959 13.3134 3.8308 13.8257L3.00545 16.3868C2.98285 16.4569 3.03332 16.5293 3.10478 16.5293H18.4942C18.5698 16.5293 18.6234 16.4557 18.6002 16.3838L17.7693 13.8053C17.6085 13.3063 17.5266 12.7852 17.5266 12.261Z" stroke="#1E1E1F" stroke-width="1.6" stroke-linecap="round"/>
<path d="M3.97579 16.2462H18.0216C18.4119 16.2462 18.6331 15.6267 18.4033 15.2717C17.8712 14.4497 17.3543 13.238 17.3543 11.7768L17.3772 9.77823C17.3772 5.81379 14.5212 2.59998 10.9982 2.59998C7.52637 2.59998 4.71187 5.76714 4.71187 9.67402L4.68899 11.7768C4.68899 13.228 4.15362 14.4331 3.59895 15.2548C3.35991 15.6089 3.58063 16.2462 3.97579 16.2462Z" fill="#1E1E1F"/>
<path d="M3.59895 15.2548L2.89445 14.7792L2.89445 14.7792L3.59895 15.2548ZM4.68899 11.7768L3.83899 11.7676V11.7768H4.68899ZM4.71187 9.67402L5.56187 9.68327V9.67402H4.71187ZM18.4033 15.2717L19.1169 14.8098L19.1169 14.8098L18.4033 15.2717ZM17.3543 11.7768L16.5043 11.7671V11.7768H17.3543ZM17.3772 9.77823L18.2272 9.78796V9.77823H17.3772ZM8.49883 18.5454C8.02938 18.5454 7.64883 18.926 7.64883 19.3954C7.64883 19.8649 8.02938 20.2454 8.49883 20.2454V18.5454ZM13.4977 20.2454C13.9671 20.2454 14.3477 19.8649 14.3477 19.3954C14.3477 18.926 13.9671 18.5454 13.4977 18.5454V20.2454ZM3.59895 15.2548L4.30346 15.7304C4.92681 14.807 5.53899 13.4389 5.53899 11.7768H4.68899H3.83899C3.83899 13.0172 3.38044 14.0593 2.89445 14.7792L3.59895 15.2548ZM4.68899 11.7768L5.53894 11.7861L5.56182 9.68327L4.71187 9.67402L3.86192 9.66478L3.83904 11.7676L4.68899 11.7768ZM18.4033 15.2717L19.1169 14.8098C18.6508 14.0898 18.2043 13.0363 18.2043 11.7768H17.3543H16.5043C16.5043 13.4397 17.0917 14.8096 17.6898 15.7336L18.4033 15.2717ZM17.3543 11.7768L18.2043 11.7866L18.2272 9.78796L17.3772 9.77823L16.5273 9.7685L16.5044 11.7671L17.3543 11.7768ZM17.3772 9.77823H18.2272C18.2272 5.44146 15.0822 1.74998 10.9982 1.74998V2.59998V3.44998C13.9603 3.44998 16.5272 6.18612 16.5272 9.77823H17.3772ZM18.0216 16.2462V17.0962C18.7195 17.0962 19.1024 16.5566 19.24 16.1928C19.3845 15.8107 19.415 15.2703 19.1169 14.8098L18.4033 15.2717L17.6898 15.7336C17.6522 15.6755 17.6473 15.6299 17.6466 15.6167C17.6459 15.6036 17.6477 15.5974 17.65 15.5913C17.6514 15.5875 17.665 15.5515 17.7155 15.5068C17.7726 15.4564 17.8794 15.3962 18.0216 15.3962V16.2462ZM4.71187 9.67402H5.56187C5.56187 6.13947 8.08737 3.44998 10.9982 3.44998V2.59998V1.74998C6.96538 1.74998 3.86187 5.3948 3.86187 9.67402H4.71187ZM3.97579 16.2462V15.3962C4.12105 15.3962 4.22898 15.4587 4.28525 15.5094C4.33478 15.5539 4.34694 15.5889 4.34754 15.5905C4.34902 15.5946 4.35057 15.599 4.34981 15.6114C4.34905 15.6236 4.34376 15.6707 4.30346 15.7304L3.59895 15.2548L2.89445 14.7792C2.58228 15.2417 2.61046 15.7915 2.75156 16.1761C2.88532 16.5407 3.2667 17.0962 3.97579 17.0962V16.2462ZM18.0216 16.2462V15.3962H3.97579V16.2462V17.0962H18.0216V16.2462ZM8.49883 19.3954V20.2454H13.4977V19.3954V18.5454H8.49883V19.3954Z" fill="#1E1E1F"/>
</g>
</g>
<defs>
<clipPath id="clip0_2287_35255">
<rect width="22" height="22" fill="white"/>
</clipPath>
<clipPath id="clip1_2287_35255">
<rect width="22" height="22" fill="white"/>
</clipPath>
</defs>
</svg>
