<svg xmlns="http://www.w3.org/2000/svg" width="16" height="16" viewBox="0 0 16 16">
    <g fill="#A3A3A3" fill-rule="evenodd">
        <path d="M5.974 14.364l-.35-.35 6.733-6.73c.496-.496.77-1.155.77-1.857a2.61 2.61 0 0 0-.77-1.858 2.63 2.63 0 0 0-3.716 0L3.307 8.904c-.326.326-.506.76-.506 1.221 0 .462.18.896.506 1.221.326.327.76.507 1.222.507.461 0 .895-.18 1.221-.506l5.336-5.336a.832.832 0 0 0 0-1.174.832.832 0 0 0-1.175 0L5.846 8.902l-.35-.35 4.065-4.065a1.328 1.328 0 0 1 1.875 0 1.329 1.329 0 0 1 0 1.875L6.1 11.697c-.42.42-.978.65-1.571.65a2.207 2.207 0 0 1-1.572-.65c-.42-.42-.651-.978-.651-1.572 0-.593.23-1.152.65-1.572l5.335-5.335a3.127 3.127 0 0 1 4.416 0c.59.59.915 1.375.915 2.209 0 .834-.325 1.618-.915 2.207l-6.733 6.73z"/>
        <path fill-rule="nonzero" d="M5.974 14.539l-.526-.525.088-.088 6.734-6.73c.473-.472.733-1.1.733-1.77 0-.668-.26-1.297-.733-1.77a2.507 2.507 0 0 0-3.541 0L3.394 8.991c-.303.303-.47.706-.47 1.134 0 .43.167.831.47 1.134.303.303.706.47 1.135.47.429 0 .83-.167 1.134-.47l5.335-5.335a.709.709 0 0 0 0-1 .708.708 0 0 0-1 0L5.847 9.077l-.525-.525.088-.088L9.474 4.4a1.452 1.452 0 0 1 2.05 0 1.452 1.452 0 0 1 0 2.05l-5.336 5.336a2.332 2.332 0 0 1-1.66.687 2.33 2.33 0 0 1-1.659-.688 2.332 2.332 0 0 1-.687-1.659c0-.626.244-1.216.687-1.66l5.335-5.334a3.25 3.25 0 0 1 4.59 0c.614.613.952 1.429.952 2.296 0 .867-.338 1.682-.951 2.295l-6.821 6.817zm0-.35l6.646-6.642a2.975 2.975 0 0 0 .878-2.12c0-.802-.312-1.554-.878-2.12a3.003 3.003 0 0 0-4.241-.001L3.044 8.64a2.084 2.084 0 0 0-.615 1.484c0 .561.219 1.088.615 1.484.396.397.923.615 1.485.615.56 0 1.088-.218 1.484-.614l5.336-5.336a1.205 1.205 0 0 0 0-1.7 1.205 1.205 0 0 0-1.7 0L5.67 8.552l.175.175 3.978-3.978a.956.956 0 0 1 1.35 0 .956.956 0 0 1 0 1.35l-5.336 5.335c-.35.35-.815.542-1.31.542a1.84 1.84 0 0 1-1.309-.542 1.838 1.838 0 0 1-.542-1.309c0-.494.193-.96.542-1.309l5.335-5.335a2.755 2.755 0 0 1 3.89 0c.52.52.807 1.21.807 1.946 0 .735-.287 1.426-.806 1.945l-6.646 6.642.175.175z"/>
    </g>
</svg>
