<svg width="22" height="22" viewBox="0 0 22 22" fill="none" xmlns="http://www.w3.org/2000/svg">
<mask id="mask0_2182_39066" style="mask-type:luminance" maskUnits="userSpaceOnUse" x="2" y="1" width="18" height="20">
<path fill-rule="evenodd" clip-rule="evenodd" d="M2.36963 1.86951H19.7609V20.1304H2.36963V1.86951Z" fill="white"/>
</mask>
<g mask="url(#mask0_2182_39066)">
<path fill-rule="evenodd" clip-rule="evenodd" d="M11.082 13.6808C9.64373 13.6808 8.47419 12.5113 8.47419 11.0721C8.47419 9.63294 9.64373 8.4634 11.082 8.4634C12.522 8.4634 13.6916 9.63294 13.6916 11.0721C13.6916 12.5113 12.522 13.6808 11.082 13.6808ZM17.7603 12.2335C17.8369 11.8335 17.8795 11.4216 17.8795 10.9995C17.8795 10.5774 17.8369 10.1655 17.7603 9.7655L19.3134 8.65744C19.7569 8.34255 19.8934 7.70427 19.6203 7.2413L18.6682 5.62772C18.3951 5.16475 17.7612 4.96135 17.2612 5.17922L15.5038 5.94261C14.8681 5.40645 14.129 4.98348 13.3212 4.70604L13.1168 2.83714C13.0594 2.30439 12.5646 1.86951 12.0177 1.86951H10.1133C9.56637 1.86951 9.07071 2.30439 9.01419 2.83714L8.80984 4.70604C8.00114 4.98348 7.26288 5.40645 6.62635 5.94261L4.86808 5.17922C4.36808 4.96135 3.7359 5.16475 3.46111 5.62772L2.51067 7.2413C2.23676 7.70427 2.37415 8.34255 2.81589 8.65744L4.36981 9.7655C4.29242 10.1655 4.25242 10.5774 4.25242 10.9995C4.25242 11.4216 4.29242 11.8335 4.36981 12.2335L2.81589 13.3416C2.37415 13.6573 2.23676 14.2948 2.51067 14.7586L3.46111 16.3713C3.7359 16.8351 4.36808 17.0377 4.86808 16.8198L6.62635 16.0564C7.26288 16.5926 8.00114 17.0156 8.80984 17.293L9.01419 19.1627C9.07071 19.6955 9.56637 20.1304 10.1133 20.1304H12.0177C12.5646 20.1304 13.0594 19.6955 13.1168 19.1627L13.3212 17.293C14.1281 17.0156 14.8681 16.5926 15.5038 16.0564L17.2612 16.8198C17.7612 17.0377 18.3951 16.8351 18.6682 16.3713L19.6203 14.7586C19.8934 14.2948 19.7569 13.6573 19.3134 13.3416L17.7603 12.2335Z" fill="#F1FA75"/>
</g>
</svg>
