<svg xmlns="http://www.w3.org/2000/svg" width="22" height="22" viewBox="0 0 22 22">
    <path fill="#FFF" fill-rule="evenodd" d="M13.024 6c-.16-.823-.837-1.444-1.644-1.444h-.76c-.925 0-1.68.816-1.68 1.817v1.62H13V8h1.5v-.006h2.02c.264-.001.48.232.48.518v7.412C17 17.068 16.139 18 15.08 18H6.92C5.863 18 5 17.07 5 15.925V8.513c0-.286.215-.518.48-.52H7.5v-1.62C7.5 4.513 8.9 3 10.62 3h.76c1.604 0 2.928 1.315 3.1 3h-1.456zM11 14.5c.828 0 1.499-.673 1.5-1.5-.001-.828-.672-1.5-1.5-1.5-.832 0-1.501.672-1.5 1.5-.001.827.668 1.5 1.5 1.5z"/>
</svg>
