<svg xmlns="http://www.w3.org/2000/svg" width="22" height="22" viewBox="0 0 22 22">
    <path fill="#FFF" fill-rule="evenodd" stroke="#FFF" stroke-width=".4" d="M5 16.356V4.644c0-.26.157-.495.398-.595.24-.1.517-.045.701.14L16.712 14.8V6.199l-2.414 2.414c-.252.252-.66.252-.911 0-.252-.251-.252-.66 0-.91l3.514-3.514c.184-.185.46-.24.701-.14.241.1.398.335.398.595v11.712c0 .26-.157.495-.398.595-.24.1-.517.045-.701-.14L6.288 6.2v8.602l2.414-2.414c.252-.252.66-.252.911 0 .252.251.252.66 0 .91l-3.514 3.514c-.184.185-.46.24-.701.14-.241-.1-.398-.335-.398-.595"/>
</svg>
