<svg width="22" height="22" viewBox="0 0 22 22" fill="none" xmlns="http://www.w3.org/2000/svg">
<path fill-rule="evenodd" clip-rule="evenodd" d="M8.46158 1.34619L8.31864 1.35222C7.75131 1.4002 7.24201 1.73157 6.97002 2.23902L6.2295 3.62083C6.14245 3.78327 5.97309 3.88465 5.78879 3.88465H4.23081C2.36154 3.88465 0.846191 5.4 0.846191 7.26927V16.577C0.846191 18.4462 2.36154 19.9616 4.23081 19.9616H17.7693C19.6385 19.9616 21.1539 18.4462 21.1539 16.577V7.26927L21.1497 7.10034C21.0617 5.30955 19.5819 3.88465 17.7693 3.88465H16.2106C16.0262 3.88465 15.8568 3.78319 15.7698 3.62065L15.0303 2.23941C14.7357 1.68946 14.1624 1.34619 13.5385 1.34619H8.46158ZM12.9397 3.0385C13.3084 3.0385 13.6472 3.24134 13.8212 3.56631L14.6155 5.04915C14.7896 5.37412 15.1284 5.57696 15.497 5.57696H17.7693C18.7039 5.57696 19.4616 6.33463 19.4616 7.26927V16.577C19.4616 17.5116 18.7039 18.2693 17.7693 18.2693H4.23081C3.29617 18.2693 2.5385 17.5116 2.5385 16.577V7.26927C2.5385 6.33463 3.29617 5.57696 4.23081 5.57696H6.50237C6.87094 5.57696 7.20963 5.37422 7.38375 5.04938L8.17879 3.56608C8.35291 3.24124 8.6916 3.0385 9.06017 3.0385H12.9397ZM11 7.26927C13.3366 7.26927 15.2308 9.16345 15.2308 11.5C15.2308 13.8366 13.3366 15.7308 11 15.7308C8.66345 15.7308 6.76927 13.8366 6.76927 11.5C6.76927 9.16345 8.66345 7.26927 11 7.26927ZM11 8.96158C9.59808 8.96158 8.46158 10.0981 8.46158 11.5C8.46158 12.902 9.59808 14.0385 11 14.0385C12.402 14.0385 13.5385 12.902 13.5385 11.5C13.5385 10.0981 12.402 8.96158 11 8.96158Z" fill="#EFFC35"/>
</svg>
