<svg width="28" height="28" viewBox="0 0 28 28" fill="none" xmlns="http://www.w3.org/2000/svg">
<path fill-rule="evenodd" clip-rule="evenodd" d="M11.9333 9.2L12.3333 9.5H12.8333H20C20.2761 9.5 20.5 9.72386 20.5 10V11.5H7.5V10V9C7.5 8.72386 7.72386 8.5 8 8.5H11L11.9333 9.2ZM6 13V11.5V10V9C6 7.89543 6.89543 7 8 7H11.1667C11.383 7 11.5936 7.07018 11.7667 7.2L12.8333 8H20C21.1046 8 22 8.89543 22 10V11.5V13V18C22 19.1046 21.1046 20 20 20H8C6.89543 20 6 19.1046 6 18V15V13ZM20.5 13V18C20.5 18.2761 20.2761 18.5 20 18.5H8C7.72386 18.5 7.5 18.2761 7.5 18V15V13H20.5Z" fill="#BABABA"/>
</svg>
