<svg width="22" height="22" viewBox="0 0 22 22" fill="none" xmlns="http://www.w3.org/2000/svg">
<path fill-rule="evenodd" clip-rule="evenodd" d="M13 3C13 1.34315 14.3431 0 16 0H19C20.6569 0 22 1.34315 22 3V6C22 7.65685 20.6569 9 19 9H16C14.3431 9 13 7.65685 13 6V3ZM17.3651 3.61434H16.2139C15.8155 3.61434 15.4925 3.29134 15.4925 2.89291C15.4925 2.49448 15.8155 2.17148 16.2139 2.17148L19.1067 2.17148C19.5052 2.17148 19.8282 2.49448 19.8282 2.89291V5.78577C19.8282 6.1842 19.5052 6.50719 19.1067 6.50719C18.7083 6.50719 18.3853 6.1842 18.3853 5.78577V4.63459L16.4026 6.61732C16.1209 6.89906 15.6641 6.89906 15.3823 6.61732C15.1006 6.33559 15.1006 5.8788 15.3823 5.59707L17.3651 3.61434ZM8.70801 6.0744C9.633 5.93502 10.5675 5.88058 11.5 5.91108V6C11.5 8.48528 13.5147 10.5 16 10.5H19C19.3644 10.5 19.7187 10.4567 20.058 10.3749C20.8516 12.6005 21.1672 15.004 20.915 17.6191C19.3855 18.75 17.6725 19.6089 15.8513 20.1581C15.4412 19.6078 15.0786 19.0236 14.7675 18.412C15.3602 18.1904 15.9324 17.9172 16.4774 17.5955C16.3358 17.4996 16.1958 17.3926 16.0589 17.2809C14.4763 18.0252 12.7489 18.4111 11 18.4111C9.25103 18.4111 7.52364 18.0252 5.94098 17.2809C5.8057 17.3847 5.6657 17.4917 5.52255 17.5955C6.06646 17.9167 6.63759 18.1894 7.22933 18.4104C6.91778 19.0224 6.55522 19.607 6.14548 20.1581C4.32582 19.6067 2.61417 18.7474 1.08493 17.6176C0.730991 13.9036 1.43887 10.1361 4.05016 6.27261C5.3655 5.67092 6.75361 5.24312 8.17946 5C8.37437 5.34862 8.55079 5.70725 8.70801 6.0744ZM7.67765 15.3335C6.69134 15.3335 5.87649 14.4384 5.87649 13.3372C5.87649 12.2361 6.66302 11.3332 7.6745 11.3332C8.68598 11.3332 9.49454 12.2361 9.47724 13.3372C9.45993 14.4384 8.68284 15.3335 7.67765 15.3335ZM14.3223 15.3335C13.3344 15.3335 12.5227 14.4384 12.5227 13.3372C12.5227 12.2361 13.3092 11.3332 14.3223 11.3332C15.3353 11.3332 16.1376 12.2361 16.1203 13.3372C16.103 14.4384 15.3275 15.3335 14.3223 15.3335Z" fill="#444444"/>
</svg>
