<svg xmlns="http://www.w3.org/2000/svg" width="54" height="52" viewBox="0 0 54 52">
    <g fill="none" fill-rule="evenodd">
        <g fill="#FFF" stroke="#FFF" stroke-width=".5">
            <g>
                <g>
                    <path d="M32.67 27.004V7.592c0-.55-.45-1-1.002-1H3.006c-.552 0-1.002.45-1.002 1v19.412c0 .552.45 1 1.002 1h28.662c.553 0 1.002-.448 1.002-1zM12.84 2l-1.56 2.592h12.113L21.833 2H12.84zm18.828 2.592c1.658 0 3.006 1.346 3.006 3v19.412c0 1.654-1.348 3-3.006 3H3.006c-1.658 0-3.006-1.346-3.006-3V7.592c0-1.654 1.348-3 3.006-3h5.936L11.415.485c.18-.301.507-.485.859-.485H22.4c.351 0 .678.184.859.485l2.472 4.107h5.936zm-14.33 16.304c1.987 0 3.604-1.614 3.604-3.598 0-1.984-1.617-3.597-3.605-3.597-1.987 0-3.604 1.613-3.604 3.597s1.617 3.598 3.604 3.598zm0-9.196c3.092 0 5.608 2.511 5.608 5.598 0 3.087-2.516 5.599-5.609 5.599-3.092 0-5.608-2.512-5.608-5.599s2.516-5.598 5.608-5.598z" transform="translate(-1532 -3229) translate(1532 3229) translate(10 11)"/>
                </g>
            </g>
        </g>
    </g>
</svg>
