<svg xmlns="http://www.w3.org/2000/svg" width="23" height="23" viewBox="0 0 23 23">
    <g fill="none" fill-rule="evenodd">
        <g fill="#FFF" stroke="#FFF" stroke-width=".5">
            <g>
                <g>
                    <path d="M17.82 14.489V4.074c0-.296-.245-.537-.546-.537H1.64c-.302 0-.547.24-.547.537v10.415c0 .296.245.536.547.536h15.634c.3 0 .546-.24.546-.536zM7.004 1.073l-.851 1.39h6.607l-.85-1.39H7.003zm10.27 1.39c.904 0 1.64.723 1.64 1.61V14.49c0 .887-.736 1.61-1.64 1.61H1.64c-.905 0-1.64-.723-1.64-1.61V4.074c0-.888.735-1.61 1.64-1.61h3.238L6.226.26C6.325.1 6.503 0 6.695 0h5.524c.191 0 .37.099.468.26l1.348 2.204h3.239zm-7.817 8.749c1.084 0 1.966-.866 1.966-1.93 0-1.065-.882-1.931-1.966-1.931S7.49 8.217 7.49 9.28c0 1.065.882 1.93 1.966 1.93zm0-4.934c1.687 0 3.059 1.347 3.059 3.003 0 1.656-1.372 3.004-3.06 3.004-1.686 0-3.058-1.348-3.058-3.004S7.77 6.278 9.457 6.278z" transform="translate(-1606 -3244) translate(1606 3244) translate(2 5)"/>
                </g>
            </g>
        </g>
    </g>
</svg>
