<svg xmlns="http://www.w3.org/2000/svg" width="15" height="15" viewBox="0 0 15 15">
    <g fill="none" fill-rule="evenodd">
        <path fill="#7D8596" d="M7.5 15C3.364 15 0 11.636 0 7.5S3.364 0 7.5 0C11.635 0 15 3.364 15 7.5S11.635 15 7.5 15"/>
        <path fill="#FFF" stroke="#FFF" stroke-width=".5" d="M10.123 4c-.061 0-.117.015-.168.04l-1.562.93H5.49c-1.1 0-1.991.887-1.991 1.98v.552c0 1.092.889 1.976 1.985 1.98v1.17c0 .192.157.348.35.348.193 0 .35-.156.35-.348v-1.17h2.208l1.562.93c.05.024.107.04.168.04.209 0 .377-.169.377-.376v-5.7c0-.208-.168-.376-.377-.376"/>
    </g>
</svg>
