<svg xmlns="http://www.w3.org/2000/svg" width="36" height="36" viewBox="0 0 36 36">
    <path fill="#CFCFCF" fill-rule="evenodd" d="M21.214 16.21l-1.367 1.505c.095.212.147.445.147.69 0 1.015-.887 1.826-1.994 1.826-.139 0-.274-.013-.404-.037l-1.37 1.507c.538.243 1.14.379 1.774.379 2.215 0 4.012-1.645 4.012-3.674 0-.824-.297-1.583-.798-2.195zm1.458-1.604C24.8 16.22 26 18.406 26 18.406s-3.003 5.5-7.95 5.5c-1.164 0-2.218-.293-3.151-.743l-1.216 1.339c-.197.218-.47.328-.74.328-.24 0-.48-.086-.673-.26-.409-.371-.438-1.004-.067-1.412l9.838-10.83c.372-.41 1.003-.438 1.412-.068.409.37.439 1.004.067 1.412l-.848.934zm-5.564.225c-1.73.365-3.022 1.758-3.103 3.415l-2.267 2.495c-1.127-1.223-1.737-2.336-1.737-2.336s3.003-5.5 8.048-5.5c.26 0 .512.024.76.052l-1.701 1.874z"/>
</svg>
