<svg xmlns="http://www.w3.org/2000/svg" xmlns:xlink="http://www.w3.org/1999/xlink" width="175" height="123" viewBox="0 0 175 123">
    <defs>
        <path id="prefix__a" d="M174.712 0.179L174.712 15.628 0 15.628 0 0.179 174.712 0.179 174.712 15.628 0 15.628 0 0.179z"/>
        <path id="prefix__b" d="M85.417 15.496h1.703V5.37h-1.703v10.127zm0-11.607c-.234-.23-.35-.508-.35-.833 0-.332.116-.613.35-.843.234-.23.523-.345.867-.345.22 0 .423.052.609.157.186.105.333.248.443.432.11.183.166.382.166.599 0 .325-.12.602-.357.833-.237.23-.524.345-.86.345-.345 0-.634-.115-.868-.345z"/>
        <path id="prefix__c" d="M99.026 5.369L94.847 15.496 93.207 15.496 89.007 5.369 90.844 5.369 94.011 13.353 94.063 13.353 97.169 5.369z"/>
        <path id="prefix__d" d="M102.454 7.548c-.588.497-.96 1.17-1.12 2.016h6.212c-.137-.84-.47-1.51-.995-2.01-.527-.502-1.192-.753-1.997-.753-.811 0-1.511.25-2.1.747m6.743 3.418h-7.903c.11.941.478 1.694 1.104 2.26.626.565 1.4.848 2.321.848.613 0 1.163-.124 1.65-.37.49-.248.906-.578 1.25-.991l1.196 1.005c-.46.59-1.044 1.055-1.749 1.397-.704.342-1.508.513-2.409.513-.722 0-1.397-.127-2.027-.381-.63-.254-1.171-.604-1.625-1.051-.454-.447-.812-.996-1.073-1.646-.261-.65-.392-1.354-.392-2.112 0-.752.127-1.451.382-2.098.254-.647.6-1.195 1.036-1.645.437-.45.958-.804 1.564-1.062.605-.257 1.252-.386 1.94-.386.942 0 1.777.217 2.507.65.729.434 1.291 1.031 1.686 1.793.396.762.594 1.624.594 2.585 0 .258-.017.488-.052.691"/>
        <path id="prefix__e" d="M118.583 15.06c-.922-.38-1.744-.952-2.466-1.717l1.166-1.392c.53.636 1.166 1.122 1.909 1.458.742.335 1.496.502 2.26.502.928 0 1.673-.201 2.233-.604.56-.403.841-.953.841-1.65 0-.752-.313-1.345-.939-1.778-.365-.257-1.066-.576-2.105-.955l-.01-.01h-.02l-.01-.01h-.011l-.01-.01H121.4l-.01-.01H121.369l-.01-.01h-.011l-.01-.01H121.317l-.01-.01h-.01l-.011-.01h-.02l-.011-.011h-.02l-.01-.01h-.01l-.011-.01h-.02l-.022-.01c-.378-.143-.696-.265-.954-.366-.258-.102-.557-.234-.898-.397-.34-.162-.624-.32-.85-.472-.228-.152-.463-.338-.708-.559-.244-.22-.437-.448-.578-.685-.14-.237-.257-.513-.35-.828-.093-.315-.14-.648-.14-1 0-.725.202-1.387.604-1.986.403-.6.955-1.07 1.656-1.412.702-.342 1.475-.513 2.322-.513.825-.007 1.643.139 2.455.437s1.576.727 2.29 1.29l-1.103 1.401c-.585-.474-1.195-.832-1.832-1.076-.636-.244-1.243-.366-1.821-.366-.474 0-.91.08-1.305.239-.395.159-.72.403-.975.731-.255.328-.382.716-.382 1.163-.006.663.32 1.209.98 1.636.365.243 1.087.568 2.167.975l.01.01h.01l.011.01h.02l.011.01c1.238.474 2.057.816 2.456 1.026.956.5 1.592 1.12 1.908 1.859.186.44.28.948.28 1.524 0 .528-.092 1.02-.274 1.477-.183.458-.432.849-.748 1.173-.317.326-.686.605-1.11.839-.423.233-.878.406-1.366.517-.489.112-.994.168-1.517.168-.977 0-1.926-.19-2.848-.569"/>
        <path id="prefix__f" d="M128.867 12.48V6.831h-1.31V5.369h1.31V1.906l1.713-.183v3.646h3.405v1.463h-3.405v5.393c0 .637.093 1.1.278 1.387.186.288.513.432.98.432.544 0 1.122-.173 1.734-.518l.454 1.472c-.22.122-.43.225-.63.31-.199.085-.464.16-.794.224s-.684.096-1.063.096c-1.781 0-2.672-1.05-2.672-3.149"/>
        <path id="prefix__g" d="M144.663 5.37v10.126h-1.713V13.82h-.03c-.407.582-.906 1.03-1.497 1.34-.592.312-1.221.468-1.888.468-1.218 0-2.165-.352-2.843-1.057-.678-.704-1.016-1.76-1.016-3.168V5.369h1.713v5.546c0 1.124.206 1.932.619 2.423.412.49 1.041.736 1.888.736.412 0 .803-.086 1.17-.259.369-.173.692-.416.971-.732.278-.314.5-.715.665-1.203.165-.488.248-1.022.248-1.605V5.37h1.713z"/>
        <path id="prefix__h" d="M153.26 13.825c.416-.173.78-.413 1.094-.72.313-.31.562-.688.748-1.139.185-.45.278-.936.278-1.457 0-.515-.087-1-.263-1.458-.175-.457-.413-.851-.712-1.183-.3-.332-.659-.594-1.078-.787-.42-.193-.866-.29-1.341-.29-.998 0-1.828.342-2.492 1.026-.664.684-.996 1.581-.996 2.692 0 1.036.32 1.89.96 2.564.64.674 1.476 1.011 2.507 1.011.447 0 .879-.086 1.295-.259zM157.031.18v15.317h-1.64V13.89h-.031c-.275.366-.592.677-.95.934-.357.258-.758.456-1.202.595-.443.138-.913.208-1.408.208-.702 0-1.362-.124-1.981-.37-.62-.248-1.154-.591-1.604-1.032-.451-.44-.807-.982-1.068-1.625s-.393-1.344-.393-2.102c0-.739.128-1.432.383-2.083.254-.65.601-1.207 1.042-1.67.44-.464.973-.83 1.599-1.098.626-.267 1.297-.401 2.012-.401.46 0 .904.061 1.331.183.426.122.824.305 1.191.549.368.243.694.541.975.893h.031V.18h1.713z"/>
        <path id="prefix__i" d="M160.03 15.496h1.703V5.37h-1.702v10.127zm0-11.607c-.233-.23-.35-.508-.35-.833 0-.332.117-.613.35-.843.235-.23.524-.345.868-.345.22 0 .423.052.608.157.186.105.334.248.444.432.11.183.165.382.165.599 0 .325-.118.602-.356.833-.237.23-.524.345-.861.345-.344 0-.633-.115-.867-.345z"/>
        <path id="prefix__j" d="M171.215 13.617c.543-.305.973-.735 1.29-1.29.316-.555.474-1.182.474-1.88 0-.703-.158-1.335-.475-1.893-.316-.559-.744-.99-1.284-1.296-.54-.304-1.14-.457-1.8-.457-.702 0-1.328.163-1.878.488-.55.325-.974.765-1.27 1.32-.295.556-.443 1.168-.443 1.839 0 .664.15 1.271.449 1.823.299.552.724.99 1.274 1.315.55.325 1.173.488 1.867.488.654 0 1.253-.153 1.796-.457m-3.973 1.61c-.666-.268-1.23-.633-1.687-1.097-.457-.464-.814-1.013-1.073-1.646-.257-.633-.387-1.312-.387-2.036 0-.725.13-1.407.387-2.047.259-.64.616-1.192 1.073-1.656.458-.463 1.02-.829 1.687-1.097.668-.267 1.393-.4 2.177-.4 1.005 0 1.91.216 2.714.65.805.433 1.436 1.047 1.893 1.843.458.795.686 1.698.686 2.707 0 1.002-.228 1.9-.686 2.692-.457.792-1.088 1.405-1.893 1.838-.804.433-1.71.65-2.714.65-.784 0-1.51-.134-2.177-.401"/>
        <path id="prefix__k" d="M4.894 7.645c.907 0 1.6-.203 2.077-.61.477-.405.715-.956.715-1.652 0-.697-.231-1.248-.695-1.654-.464-.406-1.122-.608-1.973-.608H2.926v4.524h1.968zM0 .524h5.544c.886 0 1.667.121 2.343.365.677.243 1.222.588 1.634 1.034.412.447.72.964.927 1.553.206.588.31 1.244.31 1.968 0 .797-.131 1.5-.393 2.11-.26.608-.633 1.109-1.118 1.5-.484.393-1.06.687-1.73.883-.67.196-1.42.294-2.252.294H2.926v5.052H0V.523z"/>
        <path id="prefix__l" d="M16.605 7.655h2.081c.9 0 1.594-.205 2.082-.614.488-.409.732-.962.732-1.658 0-.697-.236-1.248-.706-1.654-.47-.406-1.132-.608-1.984-.608h-2.205v4.534zm5.08 7.628l-3.359-5.052h-1.72v5.052h-2.927V.523h5.667c.88 0 1.657.122 2.334.366.677.243 1.223.588 1.638 1.034.416.447.728.964.938 1.553.21.588.314 1.244.314 1.968 0 .77-.125 1.455-.376 2.054-.25.598-.6 1.093-1.051 1.485-.45.393-.998.694-1.643.903v.04l3.7 5.357h-3.515z"/>
        <path id="prefix__m" d="M28.069 15.283L31.057 15.283 31.057 0.524 28.069 0.524z"/>
        <path id="prefix__n" d="M36.56 14.878c-.938-.386-1.791-.967-2.56-1.745l1.782-2.161c.275.311.572.585.891.822.32.237.64.43.959.578.32.149.637.26.953.334.316.075.625.112.927.112.467 0 .864-.067 1.19-.203.327-.135.568-.317.727-.547.158-.23.237-.5.237-.812 0-.216-.035-.409-.103-.578-.069-.17-.163-.318-.284-.447-.12-.128-.295-.255-.525-.38-.23-.125-.469-.237-.717-.335-.247-.097-.573-.215-.978-.35-.364-.128-.687-.247-.969-.355-.281-.107-.587-.245-.917-.41-.33-.166-.615-.332-.856-.497-.24-.166-.478-.366-.715-.6-.237-.232-.43-.48-.577-.74-.148-.26-.269-.56-.361-.902-.093-.342-.139-.705-.139-1.09 0-.779.213-1.488.639-2.131.426-.642 1.006-1.148 1.741-1.516.735-.369 1.546-.56 2.432-.573 1.813-.02 3.496.598 5.049 1.856l-1.71 2.201c-1.203-.967-2.292-1.45-3.267-1.45-.529 0-.96.131-1.293.395-.333.263-.503.625-.51 1.085 0 .183.034.349.103.497.069.15.161.283.278.401.117.119.29.24.52.365.23.126.46.237.69.335.23.098.541.221.933.37 1.25.48 2.079.829 2.484 1.045.934.5 1.555 1.12 1.865 1.857.192.46.288.994.288 1.602 0 .622-.106 1.192-.32 1.71-.212.517-.494.947-.844 1.288-.35.341-.758.632-1.221.872-.464.24-.94.413-1.427.517-.488.105-.986.158-1.494.158-.997 0-1.963-.193-2.901-.578"/>
        <path id="prefix__o" d="M63.368 0.524L63.368 15.283 60.421 15.283 60.421 6.113 60.39 6.113 56.732 12.483 54.805 12.483 51.148 6.113 51.117 6.113 51.117 15.283 48.17 15.283 48.17 0.524 51.158 0.524 55.764 8.923 55.805 8.923 60.38 0.524z"/>
        <path id="prefix__p" d="M174.712 0.179L174.712 15.628 0 15.628 0 0.179 174.712 0.179 174.712 15.628 0 15.628 0 0.179z"/>
        <path id="prefix__r" d="M95.872 85.885L0 85.885 0 0.678 98.675 0.678 98.675 85.885 95.872 85.885 0 85.885 0 0.678 95.872 0.678z"/>
    </defs>
    <g fill="none" fill-rule="evenodd">
        <g>
            <path fill="#FFF" d="M74.091 0.91L74.091 15.689 83.356 15.689 83.356 14.023 75.928 14.023 75.928 0.91z" transform="translate(0 -1) translate(0 108)"/>
            <g transform="translate(0 -1) translate(0 108) translate(0 .193)">
                <use fill="#FFF" xlink:href="#prefix__b"/>
                <use fill="#FFF" xlink:href="#prefix__c"/>
                <use fill="#FFF" xlink:href="#prefix__d"/>
                <use fill="#FFF" xlink:href="#prefix__e"/>
                <use fill="#FFF" xlink:href="#prefix__f"/>
                <use fill="#FFF" xlink:href="#prefix__g"/>
                <use fill="#FFF" xlink:href="#prefix__h"/>
                <use fill="#FFF" xlink:href="#prefix__i"/>
                <use fill="#FFF" xlink:href="#prefix__j"/>
                <use fill="#FFF" xlink:href="#prefix__k"/>
                <use fill="#FFF" xlink:href="#prefix__l"/>
                <use fill="#FFF" xlink:href="#prefix__m"/>
                <use fill="#FFF" xlink:href="#prefix__n"/>
                <use fill="#FFF" xlink:href="#prefix__o"/>
            </g>
            <g>
                <path fill="#FFF" d="M74.091 0.91L74.091 15.689 83.356 15.689 83.356 14.023 75.928 14.023 75.928 0.91z" transform="translate(0 -1) translate(0 108)"/>
                <g transform="translate(0 -1) translate(0 108) translate(0 .193)">
                    <mask id="prefix__q" fill="#fff">
                        <use xlink:href="#prefix__p"/>
                    </mask>
                    <path fill="#FFF" d="M85.417 15.496h1.703V5.37h-1.703v10.127zm0-11.607c-.234-.23-.35-.508-.35-.833 0-.332.116-.613.35-.843.234-.23.523-.345.867-.345.22 0 .423.052.609.157.186.105.333.248.443.432.11.183.166.382.166.599 0 .325-.12.602-.357.833-.237.23-.524.345-.86.345-.345 0-.634-.115-.868-.345zM99.026 5.369L94.847 15.496 93.207 15.496 89.007 5.369 90.844 5.369 94.011 13.353 94.063 13.353 97.169 5.369zM102.454 7.548c-.588.497-.96 1.17-1.12 2.016h6.212c-.137-.84-.47-1.51-.995-2.01-.527-.502-1.192-.753-1.997-.753-.811 0-1.511.25-2.1.747m6.743 3.418h-7.903c.11.941.478 1.694 1.104 2.26.626.565 1.4.848 2.321.848.613 0 1.163-.124 1.65-.37.49-.248.906-.578 1.25-.991l1.196 1.005c-.46.59-1.044 1.055-1.749 1.397-.704.342-1.508.513-2.409.513-.722 0-1.397-.127-2.027-.381-.63-.254-1.171-.604-1.625-1.051-.454-.447-.812-.996-1.073-1.646-.261-.65-.392-1.354-.392-2.112 0-.752.127-1.451.382-2.098.254-.647.6-1.195 1.036-1.645.437-.45.958-.804 1.564-1.062.605-.257 1.252-.386 1.94-.386.942 0 1.777.217 2.507.65.729.434 1.291 1.031 1.686 1.793.396.762.594 1.624.594 2.585 0 .258-.017.488-.052.691M118.583 15.06c-.922-.38-1.744-.952-2.466-1.717l1.166-1.392c.53.636 1.166 1.122 1.909 1.458.742.335 1.496.502 2.26.502.928 0 1.673-.201 2.233-.604.56-.403.841-.953.841-1.65 0-.752-.313-1.345-.939-1.778-.365-.257-1.066-.576-2.105-.955l-.01-.01h-.02l-.01-.01h-.011l-.01-.01H121.4l-.01-.01H121.369l-.01-.01h-.011l-.01-.01H121.317l-.01-.01h-.01l-.011-.01h-.02l-.011-.011h-.02l-.01-.01h-.01l-.011-.01h-.02l-.022-.01c-.378-.143-.696-.265-.954-.366-.258-.102-.557-.234-.898-.397-.34-.162-.624-.32-.85-.472-.228-.152-.463-.338-.708-.559-.244-.22-.437-.448-.578-.685-.14-.237-.257-.513-.35-.828-.093-.315-.14-.648-.14-1 0-.725.202-1.387.604-1.986.403-.6.955-1.07 1.656-1.412.702-.342 1.475-.513 2.322-.513.825-.007 1.643.139 2.455.437s1.576.727 2.29 1.29l-1.103 1.401c-.585-.474-1.195-.832-1.832-1.076-.636-.244-1.243-.366-1.821-.366-.474 0-.91.08-1.305.239-.395.159-.72.403-.975.731-.255.328-.382.716-.382 1.163-.006.663.32 1.209.98 1.636.365.243 1.087.568 2.167.975l.01.01h.01l.011.01h.02l.011.01c1.238.474 2.057.816 2.456 1.026.956.5 1.592 1.12 1.908 1.859.186.44.28.948.28 1.524 0 .528-.092 1.02-.274 1.477-.183.458-.432.849-.748 1.173-.317.326-.686.605-1.11.839-.423.233-.878.406-1.366.517-.489.112-.994.168-1.517.168-.977 0-1.926-.19-2.848-.569M128.867 12.48V6.831h-1.31V5.369h1.31V1.906l1.713-.183v3.646h3.405v1.463h-3.405v5.393c0 .637.093 1.1.278 1.387.186.288.513.432.98.432.544 0 1.122-.173 1.734-.518l.454 1.472c-.22.122-.43.225-.63.31-.199.085-.464.16-.794.224s-.684.096-1.063.096c-1.781 0-2.672-1.05-2.672-3.149M144.663 5.37v10.126h-1.713V13.82h-.03c-.407.582-.906 1.03-1.497 1.34-.592.312-1.221.468-1.888.468-1.218 0-2.165-.352-2.843-1.057-.678-.704-1.016-1.76-1.016-3.168V5.369h1.713v5.546c0 1.124.206 1.932.619 2.423.412.49 1.041.736 1.888.736.412 0 .803-.086 1.17-.259.369-.173.692-.416.971-.732.278-.314.5-.715.665-1.203.165-.488.248-1.022.248-1.605V5.37h1.713zM153.26 13.825c.416-.173.78-.413 1.094-.72.313-.31.562-.688.748-1.139.185-.45.278-.936.278-1.457 0-.515-.087-1-.263-1.458-.175-.457-.413-.851-.712-1.183-.3-.332-.659-.594-1.078-.787-.42-.193-.866-.29-1.341-.29-.998 0-1.828.342-2.492 1.026-.664.684-.996 1.581-.996 2.692 0 1.036.32 1.89.96 2.564.64.674 1.476 1.011 2.507 1.011.447 0 .879-.086 1.295-.259zM157.031.18v15.317h-1.64V13.89h-.031c-.275.366-.592.677-.95.934-.357.258-.758.456-1.202.595-.443.138-.913.208-1.408.208-.702 0-1.362-.124-1.981-.37-.62-.248-1.154-.591-1.604-1.032-.451-.44-.807-.982-1.068-1.625s-.393-1.344-.393-2.102c0-.739.128-1.432.383-2.083.254-.65.601-1.207 1.042-1.67.44-.464.973-.83 1.599-1.098.626-.267 1.297-.401 2.012-.401.46 0 .904.061 1.331.183.426.122.824.305 1.191.549.368.243.694.541.975.893h.031V.18h1.713zM160.03 15.496h1.703V5.37h-1.702v10.127zm0-11.607c-.233-.23-.35-.508-.35-.833 0-.332.117-.613.35-.843.235-.23.524-.345.868-.345.22 0 .423.052.608.157.186.105.334.248.444.432.11.183.165.382.165.599 0 .325-.118.602-.356.833-.237.23-.524.345-.861.345-.344 0-.633-.115-.867-.345zM171.215 13.617c.543-.305.973-.735 1.29-1.29.316-.555.474-1.182.474-1.88 0-.703-.158-1.335-.475-1.893-.316-.559-.744-.99-1.284-1.296-.54-.304-1.14-.457-1.8-.457-.702 0-1.328.163-1.878.488-.55.325-.974.765-1.27 1.32-.295.556-.443 1.168-.443 1.839 0 .664.15 1.271.449 1.823.299.552.724.99 1.274 1.315.55.325 1.173.488 1.867.488.654 0 1.253-.153 1.796-.457m-3.973 1.61c-.666-.268-1.23-.633-1.687-1.097-.457-.464-.814-1.013-1.073-1.646-.257-.633-.387-1.312-.387-2.036 0-.725.13-1.407.387-2.047.259-.64.616-1.192 1.073-1.656.458-.463 1.02-.829 1.687-1.097.668-.267 1.393-.4 2.177-.4 1.005 0 1.91.216 2.714.65.805.433 1.436 1.047 1.893 1.843.458.795.686 1.698.686 2.707 0 1.002-.228 1.9-.686 2.692-.457.792-1.088 1.405-1.893 1.838-.804.433-1.71.65-2.714.65-.784 0-1.51-.134-2.177-.401M4.894 7.645c.907 0 1.6-.203 2.077-.61.477-.405.715-.956.715-1.652 0-.697-.231-1.248-.695-1.654-.464-.406-1.122-.608-1.973-.608H2.926v4.524h1.968zM0 .524h5.544c.886 0 1.667.121 2.343.365.677.243 1.222.588 1.634 1.034.412.447.72.964.927 1.553.206.588.31 1.244.31 1.968 0 .797-.131 1.5-.393 2.11-.26.608-.633 1.109-1.118 1.5-.484.393-1.06.687-1.73.883-.67.196-1.42.294-2.252.294H2.926v5.052H0V.523zM16.605 7.655h2.081c.9 0 1.594-.205 2.082-.614.488-.409.732-.962.732-1.658 0-.697-.236-1.248-.706-1.654-.47-.406-1.132-.608-1.984-.608h-2.205v4.534zm5.08 7.628l-3.359-5.052h-1.72v5.052h-2.927V.523h5.667c.88 0 1.657.122 2.334.366.677.243 1.223.588 1.638 1.034.416.447.728.964.938 1.553.21.588.314 1.244.314 1.968 0 .77-.125 1.455-.376 2.054-.25.598-.6 1.093-1.051 1.485-.45.393-.998.694-1.643.903v.04l3.7 5.357h-3.515zM28.069 15.283L31.057 15.283 31.057.524 28.069.524zM36.56 14.878c-.938-.386-1.791-.967-2.56-1.745l1.782-2.161c.275.311.572.585.891.822.32.237.64.43.959.578.32.149.637.26.953.334.316.075.625.112.927.112.467 0 .864-.067 1.19-.203.327-.135.568-.317.727-.547.158-.23.237-.5.237-.812 0-.216-.035-.409-.103-.578-.069-.17-.163-.318-.284-.447-.12-.128-.295-.255-.525-.38-.23-.125-.469-.237-.717-.335-.247-.097-.573-.215-.978-.35-.364-.128-.687-.247-.969-.355-.281-.107-.587-.245-.917-.41-.33-.166-.615-.332-.856-.497-.24-.166-.478-.366-.715-.6-.237-.232-.43-.48-.577-.74-.148-.26-.269-.56-.361-.902-.093-.342-.139-.705-.139-1.09 0-.779.213-1.488.639-2.131.426-.642 1.006-1.148 1.741-1.516.735-.369 1.546-.56 2.432-.573 1.813-.02 3.496.598 5.049 1.856l-1.71 2.201c-1.203-.967-2.292-1.45-3.267-1.45-.529 0-.96.131-1.293.395-.333.263-.503.625-.51 1.085 0 .183.034.349.103.497.069.15.161.283.278.401.117.119.29.24.52.365.23.126.46.237.69.335.23.098.541.221.933.37 1.25.48 2.079.829 2.484 1.045.934.5 1.555 1.12 1.865 1.857.192.46.288.994.288 1.602 0 .622-.106 1.192-.32 1.71-.212.517-.494.947-.844 1.288-.35.341-.758.632-1.221.872-.464.24-.94.413-1.427.517-.488.105-.986.158-1.494.158-.997 0-1.963-.193-2.901-.578M63.368.524L63.368 15.283 60.421 15.283 60.421 6.113 60.39 6.113 56.732 12.483 54.805 12.483 51.148 6.113 51.117 6.113 51.117 15.283 48.17 15.283 48.17.524 51.158.524 55.764 8.923 55.805 8.923 60.38.524z" mask="url(#prefix__q)"/>
                </g>
            </g>
        </g>
        <g>
            <path fill="red" d="M97.021 85.016c-.197.342-.562.552-.956.552H2.678c-.394 0-.76-.21-.957-.552-.033-.056-.052-.116-.073-.175-.111.304-.094.643.073.929.197.342.563.552.957.552h93.387c.394 0 1.67-.17 2.038-.734.181-.276.996-1.157.216-2.397-.021.06-1.265 1.77-1.298 1.825M65.678 67.142c-.197.342-.563.552-.957.552H34.02c-.395 0-.76-.21-.957-.552-.033-.056-.05-.116-.073-.175-.112.304-.093.643.073.929.197.342.562.552.957.552H64.72c.394 0 1.541-.192 2.053-.879.377-.505.438-1.334.327-1.637-.023.059-1.39 1.154-1.423 1.21M81.35 76.078c-.197.343-.562.552-.957.552H18.35c-.395 0-.76-.21-.957-.552-.032-.055-.051-.116-.072-.175-.113.305-.094.644.072.93.197.342.562.551.957.551h62.044c.395 0 1.272-.204 1.592-.436.437-.318.813-.836.803-2-.022.06-1.405 1.075-1.438 1.13" transform="translate(0 -1) translate(39)"/>
            <path fill="red" d="M34.637 64.765h26.871L48.073 41.52 34.637 64.765zm28.786 2.208l-29.712 1.475c-1.395 0-3.315-.735-1.946-3.13l15.351-26.56c1.657-2.53 4.1-.973 4.51 0l12.755 26.56c.198.34.198.762 0 1.103-.198.342-.564.552-.958.552z" transform="translate(0 -1) translate(39)"/>
            <path fill="red" d="M18.965 73.702h58.216L48.073 23.343 18.965 73.702zm60.13 2.207l-61.288 1.476c-.74 0-3.148-.735-1.714-3.13l31.024-53.672c.652-1.235 2.818-2.453 4.509 0l28.427 53.671c.197.341.197.763 0 1.103-.198.343-.563.552-.957.552z" transform="translate(0 -1) translate(39)"/>
            <g transform="translate(0 -1) translate(39) translate(0 .438)">
                <mask id="prefix__s" fill="#fff">
                    <use xlink:href="#prefix__r"/>
                </mask>
                <path fill="red" d="M3.294 82.202h89.558L48.073 4.728 3.294 82.202zm91.472 2.207L2.678 85.885c-1.244 0-3.652-.74-2.256-3.13L47.116 1.967c1.657-2.346 4.054-.96 4.51 0l44.097 80.786c.199.341.199.763 0 1.103-.196.343-.562.552-.957.552z" mask="url(#prefix__s)"/>
            </g>
            <path fill="#00F" d="M62.807 64.154L62.807 64.766 60.72 63.4 36.37 63.4 35.935 64.154zM78.479 73.091L78.479 73.702 76.392 72.337 20.699 72.337 20.264 73.091zM94.15 82.029L94.15 82.64 92.063 81.275 5.029 81.275 4.592 82.029z" transform="translate(0 -1) translate(39)"/>
            <path fill="#00F" d="M37.233 64.765h26.871L49.372 41.52l-.002 2.247-12.137 21zm27.709 2.948l-29.624-.74c-.394 0-.76-.21-.957-.552-.198-.34-.198-.762 0-1.104l13.712-26.831c1.468-1.793 3.004-.817 3.553.272l15.351 26.56c.198.34.254.746.123 1.118-.132.382-.536 1.277-2.158 1.277z" transform="translate(0 -1) translate(39)"/>
            <path fill="#00F" d="M21.562 73.702h58.215L49.37 22.492v3.097l-27.81 48.113zm59.037 2.928l-60.952-.72c-.395 0-.76-.21-.957-.553-.198-.34-.198-.762 0-1.103l30.05-54.442c.78-.713 1.976-.648 2.886.77l31.023 53.672c.197.341.293 1.002.096 1.342-.198.342-.437 1.054-2.146 1.034z" transform="translate(0 -1) translate(39)"/>
            <path fill="#00F" d="M5.89 82.64h89.558L50.67 5.166 5.89 82.64zm90.361 2.927l-92.276-.72c-.394 0-.759-.21-.957-.552-.197-.34-.197-.762 0-1.103l44.946-80.98c1.407-1.69 3.043-.826 3.662.193L98.32 83.192c.199.34.446.847.323 1.223-.378 1.157-1.997 1.152-2.39 1.152z" transform="translate(0 -1) translate(39)"/>
            <path fill="#3FA9FF" d="M36.499 64.765H63.37L49.935 41.52 36.5 64.765zm28.3 2.945l-30.215-.737c-.394 0-.76-.21-.957-.552-.198-.34-.198-.762 0-1.104l14.787-26.56c.71-1.364 2.084-.683 2.478 0l15.352 26.56c.197.342.479 1.09.285 1.434-.425.757-1.335.959-1.73.959z" transform="translate(0 -1) translate(39)"/>
            <path fill="#3FA9FF" d="M20.828 73.702h58.215L49.935 23.343 20.828 73.702zM80.65 76.63l-61.738-.72c-.394 0-.76-.21-.957-.553-.198-.34-.198-.762 0-1.103L48.02 20.326c1.35-1.393 2.271-.685 2.665 0l31.23 53.928c.197.341.317.708.211 1.089-.209.75-1.08 1.287-1.476 1.287z" transform="translate(0 -1) translate(39)"/>
            <path fill="#3FA9FF" d="M5.157 82.64h89.558L49.935 5.166 5.158 82.64zm91.094 2.927l-93.01-.72c-.393 0-.759-.21-.956-.552-.198-.34-.198-.762 0-1.103l45.679-80.98c1.206-1.392 2.533-.491 2.929.193l46.692 80.787c.2.34.182 1.008.034 1.374-.327.8-.974 1.001-1.368 1.001z" transform="translate(0 -1) translate(39)"/>
            <path fill="#FF0" d="M35.337 64.765h26.871l-12.836-22.21v-1.633L35.336 64.765zm28.786 2.208l-29.91.74c-.395 0-3.05-.006-1.748-2.396l15.35-26.56c.61-.788 1.796-1.088 2.402-.153L65.08 65.317c.198.342.198.763-.001 1.104-.198.342-.563.552-.957.552z" transform="translate(0 -1) translate(39)"/>
            <path fill="#FF0" d="M19.665 73.702h58.216L49.37 24.377v-1.886l-29.706 51.21zm60.13 2.207l-61.446.72c-.394 0-2.704-.223-1.556-2.375l31.024-53.671c.394-.685 1.82-1.204 2.561.087l30.375 53.584c.197.341.197.763 0 1.103-.198.343-.563.552-.957.552z" transform="translate(0 -1) translate(39)"/>
            <path fill="#FF0" d="M3.994 82.64h89.558L48.773 5.166 3.994 82.64zm91.472 2.207l-92.788.72c-.395 0-2.556-.475-1.556-2.375L47.816 2.405c.622-1.117 2.051-.783 2.447-.099l46.16 80.886c.199.34.199.763 0 1.103-.197.342-.562.552-.957.552z" transform="translate(0 -1) translate(39)"/>
            <path fill="#3FA9FF" d="M63.166 64.847L63.308 65.092 61.82 64.093 36.295 64.093 35.858 64.847zM79.071 73.784L78.478 73.701 77.491 73.03 20.624 73.03 20.187 73.784zM94.509 82.722L94.15 82.639 93.163 81.968 4.952 81.968 4.516 82.722z" transform="translate(0 -1) translate(39)"/>
            <path fill="#FF0" d="M65.678 66.407c-.197.343-.563.552-.957.552H34.02c-.395 0-.76-.21-.957-.552-.033-.056-.05-.116-.073-.175-.112.305-.093.644.073.93.197.342.562.551.957.551H64.72c.394 0 .76-.21.957-.552.167-.285.184-.626.073-.929-.021.06-.04.12-.073.175M81.35 75.344c-.197.342-.562.552-.957.552H18.35c-.395 0-.76-.21-.957-.552-.032-.056-.051-.116-.072-.175-.113.304-.094.643.072.929.197.342.562.552.957.552h62.044c.395 0 .76-.21.957-.552.167-.286.185-.625.073-.93-.022.06-.04.12-.073.176M97.021 84.281c-.197.343-.562.552-.956.552H2.678c-.394 0-.76-.21-.957-.552-.033-.055-.052-.116-.073-.175-.111.305-.094.644.073.93.197.342.563.551.957.551h93.387c.394 0 .759-.21.956-.552.167-.285.185-.624.073-.929-.022.06-.04.12-.073.175" transform="translate(0 -1) translate(39)"/>
            <path fill="#FFF" d="M35.935 64.765h26.871L49.371 41.52 35.935 64.765zm28.786 2.208H34.02c-.395 0-.76-.21-.957-.552-.198-.34-.198-.762 0-1.104l15.351-26.56c.394-.683 1.52-.683 1.914 0l15.351 26.56c.198.342.198.763 0 1.104-.198.342-.564.552-.958.552z" transform="translate(0 -1) translate(39)"/>
            <path fill="#FFF" d="M20.264 73.702h58.215L49.37 23.343 20.264 73.702zm60.13 2.207H18.348c-.394 0-.759-.21-.956-.552-.198-.34-.198-.762 0-1.103l31.023-53.671c.394-.685 1.518-.685 1.913 0L81.35 74.254c.197.341.197.763 0 1.103-.198.343-.563.552-.957.552z" transform="translate(0 -1) translate(39)"/>
            <path fill="#FFF" d="M4.592 82.64H94.15L49.371 5.166 4.592 82.64zm91.472 2.207H2.677c-.394 0-.759-.21-.957-.552-.197-.34-.197-.762 0-1.103L48.414 2.405c.394-.684 1.519-.684 1.914 0l46.693 80.787c.199.34.199.763 0 1.103-.197.342-.562.552-.957.552z" transform="translate(0 -1) translate(39)"/>
        </g>
    </g>
</svg>
