<svg xmlns="http://www.w3.org/2000/svg" xmlns:xlink="http://www.w3.org/1999/xlink" width="141" height="19" viewBox="0 0 141 19">
    <defs>
        <path id="prefix__a" d="M114.515 0.112L114.515 9.783 0 9.783 0 0.112 114.515 0.112 114.515 9.784 0 9.784 0 0.112z"/>
        <path id="prefix__b" d="M55.987 9.701h1.115v-6.34h-1.115v6.34zm0-7.267c-.154-.144-.23-.318-.23-.52 0-.209.076-.385.23-.529.153-.144.342-.216.568-.216.144 0 .277.033.399.099.121.065.218.155.29.27.073.114.109.24.109.375 0 .203-.078.377-.234.521-.155.145-.343.217-.564.217-.226 0-.415-.072-.568-.217z"/>
        <path id="prefix__c" d="M64.906 3.361L62.167 9.701 61.092 9.701 58.34 3.361 59.543 3.361 61.62 8.359 61.653 8.359 63.689 3.361z"/>
        <path id="prefix__d" d="M67.154 4.725c-.386.312-.63.733-.734 1.262h4.071c-.09-.525-.308-.945-.652-1.259-.345-.313-.782-.47-1.309-.47-.532 0-.99.156-1.376.467m4.42 2.14h-5.18c.071.59.312 1.06.723 1.415.41.354.917.53 1.521.53.401 0 .762-.077 1.082-.231.32-.155.593-.362.818-.62l.785.63c-.302.368-.684.66-1.146.874-.462.214-.989.32-1.58.32-.473 0-.916-.079-1.328-.238-.413-.159-.768-.378-1.065-.658-.298-.28-.532-.623-.704-1.03-.171-.407-.257-.848-.257-1.323 0-.47.084-.908.25-1.313.167-.405.394-.748.68-1.03.286-.282.628-.503 1.025-.664.396-.162.82-.242 1.271-.242.618 0 1.165.136 1.643.407.478.271.847.645 1.106 1.122.26.477.389 1.017.389 1.618 0 .162-.011.306-.034.433"/>
        <path id="prefix__e" d="M77.725 9.427c-.604-.237-1.143-.595-1.616-1.074l.764-.872c.347.399.764.703 1.251.913.487.21.98.315 1.481.315.609 0 1.097-.126 1.464-.378.368-.253.552-.597.552-1.034 0-.47-.206-.841-.616-1.113-.24-.16-.699-.36-1.38-.597l-.006-.007h-.014l-.006-.006h-.007l-.007-.006h-.014l-.006-.007h-.014l-.007-.006h-.007l-.006-.006h-.014l-.007-.007h-.006l-.007-.006h-.014l-.007-.006H79.463l-.007-.007h-.006l-.007-.006h-.014l-.013-.006c-.248-.09-.457-.166-.626-.23-.169-.063-.365-.146-.588-.247-.223-.102-.41-.2-.558-.296-.149-.096-.303-.212-.463-.35-.16-.138-.287-.28-.38-.43-.092-.147-.168-.32-.229-.517-.06-.197-.091-.406-.091-.627 0-.453.132-.868.395-1.243.264-.375.626-.67 1.086-.884.46-.214.967-.32 1.521-.32.541-.005 1.078.086 1.61.273.532.186 1.032.455 1.501.807l-.723.878c-.383-.297-.784-.522-1.2-.674-.418-.153-.816-.23-1.195-.23-.31 0-.596.05-.855.15-.26.1-.472.252-.639.458-.167.206-.25.448-.25.728-.005.415.21.757.642 1.024.24.153.712.356 1.42.61l.007.007h.007l.007.006H79.828l.007.006c.811.297 1.348.511 1.61.643.626.313 1.043.701 1.25 1.163.122.276.183.594.183.954 0 .33-.06.64-.179.925-.12.287-.283.531-.49.735-.208.203-.45.378-.727.525-.278.145-.576.254-.896.324-.32.07-.652.104-.994.104-.64 0-1.263-.118-1.867-.356"/>
        <path id="prefix__f" d="M84.466 7.812V4.277h-.86V3.36h.86V1.193l1.122-.114V3.36h2.232v.916h-2.232v3.376c0 .399.061.688.183.868.122.18.336.27.642.27.357 0 .735-.107 1.137-.324l.297.922c-.144.077-.282.141-.412.194-.131.053-.305.1-.521.14-.216.04-.449.06-.697.06-1.167 0-1.751-.656-1.751-1.97"/>
        <path id="prefix__g" d="M94.819 3.361v6.34h-1.123V8.65h-.02c-.266.365-.593.645-.98.84-.388.195-.8.292-1.238.292-.798 0-1.42-.22-1.863-.66-.445-.442-.666-1.103-.666-1.985V3.361h1.122v3.472c0 .704.135 1.21.406 1.517.27.307.683.46 1.237.46.271 0 .527-.053.768-.161.241-.109.453-.261.636-.458.182-.197.328-.449.436-.754.108-.305.162-.64.162-1.004V3.36h1.123z"/>
        <path id="prefix__h" d="M100.454 8.655c.273-.108.512-.259.717-.452.205-.193.368-.43.49-.712s.183-.586.183-.912c0-.322-.058-.627-.173-.913-.115-.286-.27-.533-.466-.74-.197-.208-.432-.372-.707-.493-.275-.121-.568-.182-.88-.182-.653 0-1.197.215-1.632.643-.435.428-.653.99-.653 1.685 0 .648.21 1.184.629 1.605.42.422.967.633 1.643.633.293 0 .576-.054.849-.162zm2.472-8.543V9.7h-1.075V8.696h-.02c-.181.23-.388.424-.623.585-.234.161-.497.285-.788.372-.29.087-.598.13-.923.13-.46 0-.893-.077-1.298-.231-.406-.155-.757-.37-1.052-.646-.295-.275-.528-.615-.7-1.017-.171-.403-.257-.842-.257-1.317 0-.462.083-.896.25-1.303.167-.407.395-.756.683-1.046.289-.29.638-.52 1.049-.687.41-.167.85-.251 1.318-.251.302 0 .593.038.873.114.28.077.54.191.78.344.242.152.455.339.64.56h.02V.111h1.123z"/>
        <path id="prefix__i" d="M104.892 9.701h1.116v-6.34h-1.116v6.34zm0-7.267c-.153-.144-.23-.318-.23-.52 0-.209.077-.385.23-.529.153-.144.343-.216.568-.216.144 0 .278.033.4.099.12.065.218.155.29.27.072.114.108.24.108.375 0 .203-.078.377-.233.521-.156.145-.344.217-.565.217-.225 0-.415-.072-.568-.217z"/>
        <path id="prefix__j" d="M112.222 8.525c.356-.191.638-.46.846-.808.207-.348.31-.74.31-1.177 0-.44-.103-.836-.31-1.185-.208-.35-.488-.62-.842-.811-.354-.19-.748-.286-1.18-.286-.46 0-.87.101-1.231.305-.36.203-.638.48-.832.827-.194.347-.29.73-.29 1.15 0 .416.097.796.293 1.142.196.345.475.62.836.823.36.204.768.306 1.224.306.428 0 .82-.096 1.176-.286m-2.603 1.007c-.437-.167-.806-.396-1.106-.686-.3-.29-.534-.634-.703-1.03-.17-.397-.254-.822-.254-1.276 0-.453.085-.88.254-1.28.169-.401.403-.747.703-1.037.3-.29.669-.52 1.106-.687.437-.168.913-.251 1.427-.251.658 0 1.251.136 1.778.407.528.271.942.656 1.241 1.154.3.498.45 1.063.45 1.694 0 .628-.15 1.19-.45 1.686-.3.496-.713.88-1.24 1.15-.528.272-1.121.407-1.78.407-.513 0-.989-.083-1.426-.25"/>
        <path id="prefix__k" d="M3.208 4.786c.594 0 1.048-.127 1.361-.381.313-.254.469-.6.469-1.035 0-.436-.152-.782-.456-1.036-.304-.253-.735-.38-1.293-.38H1.918v2.832h1.29zM0 .328h3.634c.58 0 1.093.076 1.536.228.443.153.8.369 1.07.648.27.28.473.604.608.972s.203.779.203 1.232c0 .5-.086.94-.257 1.32-.17.381-.415.695-.733.94-.317.246-.695.43-1.134.553-.44.123-.931.184-1.476.184H1.918v3.163H0V.328z"/>
        <path id="prefix__l" d="M10.884 4.792h1.364c.59 0 1.045-.128 1.364-.384.32-.256.48-.602.48-1.038 0-.436-.154-.782-.463-1.036-.308-.253-.741-.38-1.3-.38h-1.445v2.838zm3.33 4.776l-2.202-3.163h-1.128v3.163H8.966V.328h3.714c.577 0 1.087.076 1.53.228.444.153.801.369 1.074.648.272.28.477.604.615.972.137.368.205.779.205 1.232 0 .482-.082.911-.246 1.286-.164.374-.394.684-.689.93-.295.246-.654.434-1.077.565v.025l2.425 3.354h-2.303z"/>
        <path id="prefix__m" d="M18.398 9.568L20.357 9.568 20.357 0.328 18.398 0.328z"/>
        <path id="prefix__n" d="M23.963 9.314c-.614-.242-1.174-.606-1.678-1.093l1.168-1.352c.18.195.375.366.584.514.21.149.42.269.629.362.209.093.417.163.624.21.208.046.41.07.608.07.306 0 .566-.043.78-.127.214-.085.373-.2.476-.343.104-.144.156-.314.156-.508 0-.136-.023-.256-.068-.362-.045-.106-.107-.2-.185-.28-.08-.08-.194-.16-.345-.238-.15-.078-.307-.148-.47-.21-.162-.06-.375-.134-.64-.218-.24-.081-.451-.155-.636-.223-.184-.067-.385-.153-.6-.257-.217-.104-.404-.208-.562-.311-.157-.104-.314-.229-.469-.375-.155-.146-.281-.3-.378-.463-.097-.163-.176-.352-.237-.566-.06-.213-.09-.441-.09-.682 0-.487.139-.931.418-1.334.28-.402.66-.718 1.141-.95.482-.23 1.013-.35 1.594-.358 1.189-.013 2.292.375 3.31 1.162L27.97 2.76c-.788-.605-1.501-.908-2.14-.908-.347 0-.63.082-.848.248-.218.165-.33.391-.334.68 0 .114.022.217.067.31.045.094.106.177.183.251.076.074.19.15.34.229.152.078.302.148.453.21.15.06.355.138.611.231.82.3 1.363.519 1.628.654.612.314 1.02.7 1.222 1.162.127.288.19.623.19 1.004 0 .39-.07.746-.21 1.07-.14.324-.324.593-.554.806-.23.214-.496.396-.8.546-.304.15-.616.259-.935.324-.32.066-.647.099-.98.099-.653 0-1.286-.12-1.901-.362"/>
        <path id="prefix__o" d="M41.535 0.328L41.535 9.568 39.603 9.568 39.603 3.827 39.583 3.827 37.185 7.815 35.922 7.815 33.525 3.827 33.505 3.827 33.505 9.568 31.573 9.568 31.573 0.328 33.531 0.328 36.55 5.586 36.577 5.586 39.576 0.328z"/>
        <path id="prefix__p" d="M19.13 16.18L0 16.18 0 0.128 19.69 0.128 19.69 16.18 19.13 16.18 0 16.18 0 0.128 19.13 0.128z"/>
    </defs>
    <g fill="none" fill-rule="evenodd">
        <path fill="#000" d="M0 0H2140V7367H0z" transform="translate(-288 -276)"/>
        <g>
            <path fill="#1E1E1F" stroke="#111" d="M.5.5v801h1309V.5H.5z" transform="translate(-288 -276) translate(238 265)"/>
            <path fill="#272727" d="M0 0H1310V40H0z" transform="translate(-288 -276) translate(238 265)"/>
            <g>
                <g>
                    <path fill="#FFF" d="M48.563 0.57L48.563 9.822 54.636 9.822 54.636 8.779 49.767 8.779 49.767 0.57z" transform="translate(-288 -276) translate(238 265) translate(50 11) translate(25.103 3.642)"/>
                    <g transform="translate(-288 -276) translate(238 265) translate(50 11) translate(25.103 3.642) translate(0 .121)">
                        <use fill="#FFF" xlink:href="#prefix__b"/>
                        <use fill="#FFF" xlink:href="#prefix__c"/>
                        <use fill="#FFF" xlink:href="#prefix__d"/>
                        <use fill="#FFF" xlink:href="#prefix__e"/>
                        <use fill="#FFF" xlink:href="#prefix__f"/>
                        <use fill="#FFF" xlink:href="#prefix__g"/>
                        <use fill="#FFF" xlink:href="#prefix__h"/>
                        <use fill="#FFF" xlink:href="#prefix__i"/>
                        <use fill="#FFF" xlink:href="#prefix__j"/>
                        <use fill="#FFF" xlink:href="#prefix__k"/>
                        <use fill="#FFF" xlink:href="#prefix__l"/>
                        <use fill="#FFF" xlink:href="#prefix__m"/>
                        <use fill="#FFF" xlink:href="#prefix__n"/>
                        <use fill="#FFF" xlink:href="#prefix__o"/>
                    </g>
                </g>
                <path fill="red" d="M19.36 16.017c-.04.064-.113.104-.191.104H.534c-.078 0-.151-.04-.19-.104-.007-.01-.01-.022-.015-.033-.022.057-.019.12.014.175.04.064.113.104.191.104H19.17c.078 0 .333-.032.407-.139.036-.052.198-.217.043-.451-.005.011-.253.333-.26.344M13.105 12.65c-.039.064-.112.103-.19.103H6.787c-.078 0-.151-.04-.19-.104-.007-.01-.01-.022-.015-.033-.022.058-.019.122.014.175.04.065.113.104.191.104h6.126c.08 0 .308-.036.41-.165.075-.095.088-.252.065-.309-.004.011-.277.218-.284.228M16.233 14.34c-.04.066-.113.107-.191.107H3.662c-.08 0-.152-.04-.192-.107-.006-.011-.01-.023-.014-.034-.023.059-.019.125.014.18.04.067.113.108.191.108h12.38c.08 0 .255-.04.318-.085.088-.062.162-.163.16-.389-.004.011-.28.209-.286.22" transform="translate(-288 -276) translate(238 265) translate(50 11)"/>
                <path fill="red" d="M6.911 12.202h5.362l-2.68-4.38-2.682 4.38zm5.744.415l-5.928.278c-.279 0-.662-.138-.389-.59l3.064-5.003c.33-.477.818-.183.9 0l2.545 5.004c.04.064.04.143 0 .207-.04.065-.113.104-.192.104z" transform="translate(-288 -276) translate(238 265) translate(50 11)"/>
                <path fill="red" d="M3.784 13.885h11.617L9.592 4.398l-5.808 9.487zm11.999.416l-12.23.278c-.148 0-.628-.138-.342-.59l6.19-10.111c.13-.233.563-.462.9 0l5.673 10.111c.04.064.04.144 0 .208-.04.065-.113.104-.191.104z" transform="translate(-288 -276) translate(238 265) translate(50 11)"/>
                <g transform="translate(-288 -276) translate(238 265) translate(50 11) translate(0 .082)">
                    <mask id="prefix__q" fill="#fff">
                        <use xlink:href="#prefix__p"/>
                    </mask>
                    <path fill="red" d="M.657 15.487h17.87L9.594.89.657 15.487zm18.253.415L.534 16.18c-.248 0-.728-.14-.45-.59L9.402.37c.33-.441.808-.18.9 0L19.1 15.59c.04.065.04.144 0 .208-.04.065-.112.104-.191.104z" mask="url(#prefix__q)"/>
                </g>
                <path fill="#00F" d="M12.532 12.206L12.532 12.418 12.116 11.944 7.257 11.944 7.17 12.206zM15.66 13.89L15.66 14.102 15.243 13.628 4.13 13.628 4.043 13.89zM18.787 15.573L18.787 15.786 18.37 15.312 1.003 15.312.916 15.573z" transform="translate(-288 -276) translate(238 265) translate(50 11)"/>
                <path fill="#00F" d="M7.43 12.202h5.361l-2.94-4.38v.423L7.43 12.202zm5.529.555l-5.912-.14c-.078 0-.151-.04-.19-.104-.04-.064-.04-.143 0-.207L9.591 7.25c.293-.338.6-.154.71.05l3.063 5.005c.04.064.05.14.024.21-.026.072-.107.24-.43.24z" transform="translate(-288 -276) translate(238 265) translate(50 11)"/>
                <path fill="#00F" d="M4.302 13.885H15.92L9.852 4.237v.584l-5.55 9.064zm11.78.552L3.92 14.3c-.078 0-.151-.04-.19-.104-.04-.064-.04-.144 0-.208L9.725 3.733c.155-.135.394-.123.575.145l6.19 10.111c.04.064.06.189.02.253-.04.064-.087.199-.428.195z" transform="translate(-288 -276) translate(238 265) translate(50 11)"/>
                <path fill="#00F" d="M1.175 15.569h17.87L10.112.973 1.175 15.57zm18.031.552L.793 15.985c-.078 0-.151-.04-.19-.104-.04-.064-.04-.144 0-.208L9.57.417c.28-.319.607-.156.73.036l9.318 15.22c.04.064.089.16.064.23-.075.218-.398.218-.477.218z" transform="translate(-288 -276) translate(238 265) translate(50 11)"/>
                <path fill="#3FA9FF" d="M7.283 12.202h5.362l-2.68-4.38-2.682 4.38zm5.647.554l-6.03-.139c-.078 0-.15-.04-.19-.104-.04-.064-.04-.143 0-.207l2.95-5.004c.142-.257.416-.129.495 0l3.063 5.004c.04.064.096.205.057.27-.085.142-.266.18-.345.18z" transform="translate(-288 -276) translate(238 265) translate(50 11)"/>
                <path fill="#3FA9FF" d="M4.156 13.885h11.616L9.964 4.398l-5.808 9.487zm11.937.552L3.773 14.3c-.078 0-.15-.04-.19-.104-.04-.064-.04-.144 0-.208l6-10.16c.269-.262.452-.129.531 0l6.231 10.16c.04.064.064.134.043.205-.042.142-.216.243-.295.243z" transform="translate(-288 -276) translate(238 265) translate(50 11)"/>
                <path fill="#3FA9FF" d="M1.029 15.569h17.87L9.964.973 1.03 15.57zm18.177.552l-18.56-.136c-.078 0-.15-.04-.19-.104-.04-.064-.04-.144 0-.208L9.57.417c.24-.262.505-.093.584.036l9.317 15.22c.04.064.037.19.007.259-.065.15-.194.189-.273.189z" transform="translate(-288 -276) translate(238 265) translate(50 11)"/>
                <path fill="#FF0" d="M7.051 12.202h5.362L9.852 8.017V7.71l-2.8 4.492zm5.744.415l-5.968.14c-.079 0-.609-.001-.349-.451l3.063-5.004c.122-.149.358-.205.48-.03l2.965 5.034c.04.064.04.143 0 .207-.04.065-.112.104-.19.104z" transform="translate(-288 -276) translate(238 265) translate(50 11)"/>
                <path fill="#FF0" d="M3.924 13.885H15.54L9.851 4.593v-.356l-5.927 9.648zm11.998.416l-12.26.136c-.08 0-.54-.042-.311-.448l6.19-10.111c.079-.13.364-.227.511.016l6.061 10.095c.04.064.04.144 0 .208-.04.065-.112.104-.19.104z" transform="translate(-288 -276) translate(238 265) translate(50 11)"/>
                <path fill="#FF0" d="M.797 15.569h17.87L9.732.973.797 15.57zm18.252.416L.534 16.12c-.078 0-.51-.09-.31-.448L9.54.453c.124-.21.41-.147.488-.019l9.211 15.239c.04.064.04.144 0 .208-.039.064-.112.104-.19.104z" transform="translate(-288 -276) translate(238 265) translate(50 11)"/>
                <path fill="#3FA9FF" d="M12.604 12.395L12.633 12.499 12.336 12.075 7.242 12.075 7.155 12.395zM15.778 14.079L15.66 14.044 15.463 13.759 4.115 13.759 4.028 14.079zM18.858 15.763L18.787 15.728 18.59 15.442.988 15.442.901 15.763z" transform="translate(-288 -276) translate(238 265) translate(50 11)"/>
                <path fill="#FF0" d="M13.105 12.534c-.039.11-.112.176-.19.176H6.787c-.078 0-.151-.067-.19-.176-.007-.018-.01-.037-.015-.056-.022.097-.019.206.014.297.04.11.113.177.191.177h6.126c.08 0 .152-.068.191-.177.034-.091.037-.2.015-.297-.004.019-.008.038-.015.056M16.233 14.217c-.04.11-.113.177-.191.177H3.662c-.08 0-.152-.067-.192-.177-.006-.017-.01-.037-.014-.056-.023.098-.019.206.014.298.04.11.113.176.191.176h12.38c.08 0 .152-.067.192-.176.033-.092.036-.2.014-.298-.004.02-.008.039-.014.056M19.36 15.901c-.04.11-.113.177-.191.177H.534c-.078 0-.151-.067-.19-.177-.007-.018-.01-.037-.015-.056-.022.098-.019.206.014.297.04.11.113.177.191.177H19.17c.078 0 .151-.067.19-.177.034-.09.037-.2.015-.297-.004.02-.008.038-.014.056" transform="translate(-288 -276) translate(238 265) translate(50 11)"/>
                <path fill="#FFF" d="M7.17 12.202h5.362l-2.68-4.38-2.682 4.38zm5.744.415H6.788c-.078 0-.151-.04-.19-.104-.04-.064-.04-.143 0-.207L9.66 7.302c.078-.129.303-.129.381 0l3.064 5.004c.04.064.04.143 0 .207-.04.065-.113.104-.192.104z" transform="translate(-288 -276) translate(238 265) translate(50 11)"/>
                <path fill="#FFF" d="M4.043 13.885H15.66L9.85 4.398l-5.808 9.487zm11.999.416H3.662c-.08 0-.152-.04-.192-.104-.04-.064-.04-.144 0-.208L9.66 3.878c.08-.13.304-.13.382 0l6.19 10.111c.04.064.04.144 0 .208-.039.065-.112.104-.19.104z" transform="translate(-288 -276) translate(238 265) translate(50 11)"/>
                <path fill="#FFF" d="M.916 15.569h17.87L9.853.973.916 15.57zm18.253.416H.534c-.078 0-.151-.04-.19-.104-.04-.064-.04-.144 0-.208L9.66.453c.078-.129.303-.129.382 0l9.317 15.22c.04.064.04.144 0 .208s-.112.104-.191.104z" transform="translate(-288 -276) translate(238 265) translate(50 11)"/>
            </g>
            <path stroke="#111" d="M.5.5v801h1309V.5H.5z" transform="translate(-288 -276) translate(238 265)"/>
        </g>
    </g>
</svg>
