<svg width="19" height="19" viewBox="0 0 19 19" fill="none" xmlns="http://www.w3.org/2000/svg">
<path fill-rule="evenodd" clip-rule="evenodd" d="M10.0468 2.71595H17.4532C17.7552 2.71595 18 2.96071 18 3.26274C18 3.56476 17.7552 3.80952 17.4532 3.80952H1.54678C1.24476 3.80952 1 3.56476 1 3.26274C1 2.96071 1.24476 2.71595 1.54678 2.71595H8.95324V1.27432C8.95324 0.972299 9.198 0.727539 9.50003 0.727539C9.80205 0.727539 10.0468 0.972299 10.0468 1.27432V2.71595ZM13.129 17.7278H5.86972C4.28067 17.7278 2.98768 16.4348 2.98768 14.8458V6.24536C2.98768 5.94334 3.23264 5.69858 3.53446 5.69858C3.83648 5.69858 4.08124 5.94334 4.08124 6.24536V14.8458C4.08124 15.832 4.88353 16.6342 5.86972 16.6342H13.129C14.1152 16.6342 14.9175 15.832 14.9175 14.8458V6.24536C14.9175 5.94334 15.1625 5.69858 15.4643 5.69858C15.7663 5.69858 16.0111 5.94334 16.0111 6.24536V14.8458C16.0111 16.4348 14.7181 17.7278 13.129 17.7278ZM6.96507 14.1982C6.96507 14.5002 7.20983 14.7449 7.51185 14.7449C7.81387 14.7449 8.05863 14.5002 8.05863 14.1982V7.23909C8.05863 6.93707 7.81387 6.69231 7.51185 6.69231C7.20983 6.69231 6.96507 6.93707 6.96507 7.23909V14.1982ZM11.4887 14.7449C11.1867 14.7449 10.9419 14.5002 10.9419 14.1982V7.23909C10.9419 6.93707 11.1867 6.69231 11.4887 6.69231C11.7907 6.69231 12.0355 6.93707 12.0355 7.23909V14.1982C12.0355 14.5002 11.7907 14.7449 11.4887 14.7449Z" fill="white"/>
<path d="M10.0468 2.71595H9.69681V3.06595H10.0468V2.71595ZM8.95324 2.71595V3.06595H9.30324V2.71595H8.95324ZM17.4532 2.36595H10.0468V3.06595H17.4532V2.36595ZM18.35 3.26274C18.35 2.76741 17.9485 2.36595 17.4532 2.36595V3.06595C17.5619 3.06595 17.65 3.15401 17.65 3.26274H18.35ZM17.4532 4.15952C17.9485 4.15952 18.35 3.75806 18.35 3.26274H17.65C17.65 3.37146 17.5619 3.45952 17.4532 3.45952V4.15952ZM1.54678 4.15952H17.4532V3.45952H1.54678V4.15952ZM0.65 3.26274C0.65 3.75806 1.05146 4.15952 1.54678 4.15952V3.45952C1.43806 3.45952 1.35 3.37146 1.35 3.26274H0.65ZM1.54678 2.36595C1.05146 2.36595 0.65 2.76741 0.65 3.26274H1.35C1.35 3.15401 1.43806 3.06595 1.54678 3.06595V2.36595ZM8.95324 2.36595H1.54678V3.06595H8.95324V2.36595ZM9.30324 2.71595V1.27432H8.60324V2.71595H9.30324ZM9.30324 1.27432C9.30324 1.1656 9.3913 1.07754 9.50003 1.07754V0.377539C9.00471 0.377539 8.60324 0.779 8.60324 1.27432H9.30324ZM9.50003 1.07754C9.60875 1.07754 9.69681 1.1656 9.69681 1.27432H10.3968C10.3968 0.779 9.99535 0.377539 9.50003 0.377539V1.07754ZM9.69681 1.27432V2.71595H10.3968V1.27432H9.69681ZM5.86972 18.0778H13.129V17.3778H5.86972V18.0778ZM2.63768 14.8458C2.63768 16.6281 4.08737 18.0778 5.86972 18.0778V17.3778C4.47397 17.3778 3.33768 16.2415 3.33768 14.8458H2.63768ZM2.63768 6.24536V14.8458H3.33768V6.24536H2.63768ZM3.53446 5.34858C3.03942 5.34858 2.63768 5.74995 2.63768 6.24536H3.33768C3.33768 6.13672 3.42585 6.04857 3.53446 6.04857V5.34858ZM4.43124 6.24536C4.43124 5.75004 4.02978 5.34858 3.53446 5.34858V6.04857C3.64318 6.04857 3.73124 6.13663 3.73124 6.24536H4.43124ZM4.43124 14.8458V6.24536H3.73124V14.8458H4.43124ZM5.86972 16.2842C5.07683 16.2842 4.43124 15.6387 4.43124 14.8458H3.73124C3.73124 16.0253 4.69023 16.9842 5.86972 16.9842V16.2842ZM13.129 16.2842H5.86972V16.9842H13.129V16.2842ZM14.5675 14.8458C14.5675 15.6387 13.9219 16.2842 13.129 16.2842V16.9842C14.3085 16.9842 15.2675 16.0253 15.2675 14.8458H14.5675ZM14.5675 6.24536V14.8458H15.2675V6.24536H14.5675ZM15.4643 5.34858C14.9692 5.34858 14.5675 5.74995 14.5675 6.24536H15.2675C15.2675 6.13672 15.3557 6.04857 15.4643 6.04857V5.34858ZM16.3611 6.24536C16.3611 5.75004 15.9596 5.34858 15.4643 5.34858V6.04857C15.573 6.04857 15.6611 6.13663 15.6611 6.24536H16.3611ZM16.3611 14.8458V6.24536H15.6611V14.8458H16.3611ZM13.129 18.0778C14.9114 18.0778 16.3611 16.6281 16.3611 14.8458H15.6611C15.6611 16.2415 14.5248 17.3778 13.129 17.3778V18.0778ZM7.51185 14.3949C7.40313 14.3949 7.31507 14.3069 7.31507 14.1982H6.61507C6.61507 14.6935 7.01653 15.0949 7.51185 15.0949V14.3949ZM7.70863 14.1982C7.70863 14.3069 7.62057 14.3949 7.51185 14.3949V15.0949C8.00717 15.0949 8.40863 14.6935 8.40863 14.1982H7.70863ZM7.70863 7.23909V14.1982H8.40863V7.23909H7.70863ZM7.51185 7.04231C7.62057 7.04231 7.70863 7.13037 7.70863 7.23909H8.40863C8.40863 6.74377 8.00717 6.34231 7.51185 6.34231V7.04231ZM7.31507 7.23909C7.31507 7.13037 7.40313 7.04231 7.51185 7.04231V6.34231C7.01653 6.34231 6.61507 6.74377 6.61507 7.23909H7.31507ZM7.31507 14.1982V7.23909H6.61507V14.1982H7.31507ZM10.5919 14.1982C10.5919 14.6935 10.9934 15.0949 11.4887 15.0949V14.3949C11.38 14.3949 11.2919 14.3069 11.2919 14.1982H10.5919ZM10.5919 7.23909V14.1982H11.2919V7.23909H10.5919ZM11.4887 6.34231C10.9934 6.34231 10.5919 6.74377 10.5919 7.23909H11.2919C11.2919 7.13037 11.38 7.04231 11.4887 7.04231V6.34231ZM12.3855 7.23909C12.3855 6.74377 11.984 6.34231 11.4887 6.34231V7.04231C11.5974 7.04231 11.6855 7.13037 11.6855 7.23909H12.3855ZM12.3855 14.1982V7.23909H11.6855V14.1982H12.3855ZM11.4887 15.0949C11.984 15.0949 12.3855 14.6935 12.3855 14.1982H11.6855C11.6855 14.3069 11.5974 14.3949 11.4887 14.3949V15.0949Z" fill="white"/>
</svg>
