<svg xmlns="http://www.w3.org/2000/svg" width="22" height="22" viewBox="0 0 22 22">
    <path fill="#BABABA" fill-rule="evenodd" stroke="#BABABA" stroke-width=".5" d="M9.907 3.977V2.544c0-.3.243-.544.544-.544.3 0 .543.243.543.544v1.433h7.364c.3 0 .543.243.543.543 0 .3-.243.544-.543.544H2.544c-.3 0-.544-.243-.544-.544 0-.3.243-.543.544-.543h7.363zM14.059 18.9H6.842c-1.58 0-2.865-1.285-2.865-2.865v-8.55c0-.3.243-.544.543-.544.3 0 .544.243.544.543v8.55c0 .981.798 1.779 1.778 1.779h7.217c.98 0 1.778-.798 1.778-1.778v-8.55c0-.3.244-.544.544-.544.3 0 .543.243.543.543v8.55c0 1.58-1.285 2.866-2.865 2.866zm-5.585-2.965c-.3 0-.544-.243-.544-.544V8.474c0-.3.244-.544.544-.544.3 0 .543.244.543.544v6.918c0 .3-.243.544-.543.544zm3.953 0c-.3 0-.543-.243-.543-.544V8.474c0-.3.243-.544.543-.544.3 0 .544.244.544.544v6.918c0 .3-.243.544-.544.544z"/>
</svg>
