<svg width="32" height="32" viewBox="0 0 32 32" fill="none" xmlns="http://www.w3.org/2000/svg">
<circle opacity="0.603945" cx="16" cy="16" r="15.5" stroke="#595D25"/>
<path d="M8.771 18.7646C9.31527 19.1943 9.92399 19.4092 10.5972 19.4092C11.1486 19.4092 11.5926 19.2695 11.9292 18.9902C12.2694 18.7109 12.4395 18.3332 12.4395 17.8569C12.4395 16.8006 11.6965 16.2725 10.2104 16.2725H9.55518V15.5474H10.1782C11.4995 15.5474 12.1602 15.0532 12.1602 14.0649C12.1602 13.1519 11.6571 12.6953 10.6509 12.6953C10.0923 12.6953 9.56771 12.8869 9.07715 13.27V12.416C9.57845 12.1152 10.1746 11.9648 10.8657 11.9648C11.4959 11.9648 12.0133 12.1385 12.418 12.4858C12.8262 12.8332 13.0303 13.2861 13.0303 13.8447C13.0303 14.8796 12.5021 15.5509 11.4458 15.8589V15.875C12.0151 15.9251 12.4681 16.1239 12.8047 16.4712C13.1449 16.8185 13.3149 17.25 13.3149 17.7656C13.3149 18.4854 13.0535 19.0601 12.5308 19.4897C12.0116 19.9194 11.3509 20.1343 10.5488 20.1343C9.8112 20.1343 9.21859 19.9928 8.771 19.71V18.7646ZM14.5933 16.208C14.5933 14.8115 14.8206 13.7552 15.2754 13.0391C15.7301 12.3229 16.3854 11.9648 17.2412 11.9648C18.8848 11.9648 19.7065 13.3148 19.7065 16.0146C19.7065 17.3467 19.4774 18.3672 19.019 19.0762C18.5643 19.7816 17.9126 20.1343 17.064 20.1343C16.2619 20.1343 15.6496 19.7923 15.2271 19.1084C14.8045 18.4209 14.5933 17.4541 14.5933 16.208ZM15.4634 16.165C15.4634 18.3278 16.0273 19.4092 17.1553 19.4092C18.276 19.4092 18.8364 18.3117 18.8364 16.1167C18.8364 13.8358 18.2904 12.6953 17.1982 12.6953C16.0417 12.6953 15.4634 13.8519 15.4634 16.165ZM20.7432 18.8506C21.2373 19.2158 21.7798 19.3984 22.3706 19.3984C23.1727 19.3984 23.5737 19.1281 23.5737 18.5874C23.5737 18.3547 23.486 18.1631 23.3105 18.0127C23.1351 17.8587 22.7896 17.6851 22.2739 17.4917C21.6795 17.2554 21.2767 17.0155 21.0654 16.772C20.8577 16.5285 20.7539 16.2205 20.7539 15.8481C20.7539 15.3683 20.9616 14.978 21.377 14.6772C21.7923 14.3765 22.299 14.2261 22.897 14.2261C23.3768 14.2261 23.8101 14.3102 24.1968 14.4785V15.3647C23.7778 15.0926 23.2998 14.9565 22.7627 14.9565C22.4118 14.9565 22.1361 15.0353 21.9355 15.1929C21.735 15.3468 21.6348 15.5402 21.6348 15.7729C21.6348 16.0236 21.7082 16.2152 21.855 16.3477C22.0054 16.4801 22.3294 16.6449 22.8271 16.8418C23.5003 17.1032 23.939 17.3592 24.1431 17.6099C24.3472 17.8605 24.4492 18.1595 24.4492 18.5068C24.4492 19.0081 24.2415 19.4056 23.8262 19.6992C23.4144 19.9893 22.8862 20.1343 22.2417 20.1343C21.658 20.1343 21.1585 20.0197 20.7432 19.7905V18.8506Z" fill="#7A7F34"/>
</svg>
