<svg xmlns="http://www.w3.org/2000/svg" width="23" height="18" viewBox="0 0 23 18">
    <g fill="none" fill-rule="evenodd">
        <g fill="#666">
            <g>
                <path d="M16.81 3.627l.277.098c2.198.775 3.674 2.855 3.674 5.177 0 3.03-2.464 5.493-5.493 5.493h-5.012l1.44 1.064-.884 1.195L7.56 14.25c-.19-.14-.303-.364-.303-.598 0-.235.113-.46.303-.597l3.25-2.406.885 1.195-1.44 1.065h5.012c2.209 0 4.006-1.798 4.006-4.007 0-1.648-.992-3.108-2.528-3.72l-.194-.077.107-.178c.146-.246.223-.514.223-.773 0-.061-.01-.12-.02-.178l-.052-.349zM11.844 1.15l3.25 2.406c.19.139.302.363.302.598 0 .234-.113.458-.301.597l-3.251 2.403-.886-1.195 1.439-1.063H7.794c-2.21 0-4.008 1.797-4.008 4.006 0 1.593.942 3.004 2.375 3.645-.198.332-.319.709-.319 1.105 0 .128.023.253.045.377C3.76 13.235 2.3 11.196 2.3 8.902c0-3.029 2.464-5.492 5.494-5.492h4.603l-1.439-1.065.886-1.195z" transform="translate(-743 -2747) translate(743 2747)"/>
            </g>
        </g>
    </g>
</svg>
