<svg xmlns="http://www.w3.org/2000/svg" width="22" height="22" viewBox="0 0 22 22">
    <path fill="#666" fill-rule="evenodd" stroke="#666" stroke-width=".5" d="M16.38 6.942c.301 0 .544.243.544.543v8.55c0 1.58-1.285 2.866-2.865 2.866H6.842c-1.58 0-2.865-1.285-2.865-2.865v-8.55c0-.3.243-.544.543-.544.3 0 .544.243.544.543v8.55c0 .981.798 1.779 1.778 1.779h7.217c.98 0 1.778-.798 1.778-1.778v-8.55c0-.3.244-.544.544-.544zm-7.906.988c.3 0 .543.244.543.544v6.918c0 .3-.243.544-.543.544-.3 0-.544-.243-.544-.544V8.474c0-.3.244-.544.544-.544zm3.953 0c.3 0 .544.244.544.544v6.918c0 .3-.243.544-.544.544-.3 0-.543-.243-.543-.544V8.474c0-.3.243-.544.543-.544zM2.544 5.064c-.3 0-.544-.243-.544-.544 0-.3.243-.543.544-.543l7.362-.001.001-1.432c0-.3.243-.544.544-.544.3 0 .543.243.543.544v1.432h7.364c.3 0 .543.244.543.544 0 .3-.243.544-.543.544H2.544z"/>
</svg>
