<svg width="32" height="32" viewBox="0 0 32 32" fill="none" xmlns="http://www.w3.org/2000/svg">
<circle cx="16" cy="16" r="15.5" stroke="#444444"/>
<path d="M12.0308 12.3999C11.8553 12.3032 11.6548 12.2549 11.4292 12.2549C10.7918 12.2549 10.4731 12.6595 10.4731 13.4688V14.355H11.7944V15.0908H10.4731V20H9.63525V15.0908H8.66846V14.355H9.63525V13.4258C9.63525 12.835 9.80176 12.3713 10.1348 12.0347C10.4714 11.6945 10.8885 11.5244 11.3862 11.5244C11.6619 11.5244 11.8768 11.5566 12.0308 11.6211V12.3999ZM17.2944 20H16.4404V19.1084H16.4189C16.0465 19.7923 15.4665 20.1343 14.6787 20.1343C13.3324 20.1343 12.6592 19.3322 12.6592 17.728V14.355H13.5024V17.5884C13.5024 18.8022 13.9644 19.4092 14.8882 19.4092C15.3394 19.4092 15.71 19.2427 16 18.9097C16.2936 18.5731 16.4404 18.138 16.4404 17.6045V14.355H17.2944V20ZM19.1421 20V11.6479H19.9907V20H19.1421ZM21.8491 20V11.6479H22.6978V20H21.8491Z" fill="#444444"/>
</svg>
