<svg xmlns="http://www.w3.org/2000/svg" width="24" height="18" viewBox="0 0 24 18">
    <g fill="none" fill-rule="evenodd">
        <g fill="#666">
            <g>
                <path d="M20.14 13.615c.316 0 .574.259.574.575v.23c0 .316-.258.575-.575.575h-5.75c-.316 0-.575-.259-.575-.575v-.23c0-.083.02-.16.05-.231.09-.201.292-.344.525-.344zM11.322 1.15l2.88 2.185.19.145c.176.134.28.342.28.564 0 .222-.104.43-.28.564l-.19.144-2.88 2.185-.858-1.128 1.395-1.057H7.613c-2.148 0-3.896 1.748-3.896 3.895 0 2.147 1.748 3.895 3.896 3.895h5.301c.087.143.19.272.312.383-.289.266-.483.627-.538 1.034H7.613c-2.922 0-5.312-2.39-5.312-5.312 0-2.92 2.39-5.312 5.312-5.312h4.246l-1.394-1.057.858-1.128zm8.816 9.706c.025 0 .045.011.069.013.283.036.506.27.506.562v.23c0 .316-.258.575-.575.575h-5.75c-.316 0-.575-.26-.575-.575v-.23c0-.317.259-.575.575-.575zm0-2.76c.313 0 .57.255.574.567l.001.008v.23c0 .08-.018.158-.05.229-.088.202-.29.346-.525.346h-5.75c-.316 0-.575-.26-.575-.575v-.23c0-.317.259-.575.575-.575zm-4.176-4.73c2.09.221 3.81 1.675 4.46 3.608-.093-.015-.186-.029-.284-.029h-1.25c-.56-1.138-1.648-1.972-2.952-2.152.091-.238.152-.49.152-.749 0-.235-.052-.46-.126-.677z" transform="translate(-938 -2748) translate(938 2748)"/>
            </g>
        </g>
    </g>
</svg>
