<svg width="32" height="32" viewBox="0 0 32 32" fill="none" xmlns="http://www.w3.org/2000/svg">
<circle opacity="0.603945" cx="16" cy="16" r="15.5" stroke="#E4F133"/>
<path d="M10.8916 20H10.0376V13.1733C9.87288 13.3381 9.60433 13.5171 9.23193 13.7104C8.85954 13.9002 8.51937 14.0327 8.21143 14.1079V13.1948C8.60531 13.0838 9.02783 12.903 9.479 12.6523C9.93018 12.4017 10.2865 12.1582 10.5479 11.9219H10.8916V20ZM18.395 17.5884C18.395 18.369 18.1444 18.9884 17.6431 19.4468C17.1453 19.9051 16.4775 20.1343 15.6396 20.1343C14.9056 20.1343 14.3595 20.0251 14.0015 19.8066V18.8828C14.5493 19.2337 15.099 19.4092 15.6504 19.4092C16.2161 19.4092 16.6709 19.2463 17.0146 18.9204C17.362 18.591 17.5356 18.1649 17.5356 17.6421C17.5356 17.1086 17.3602 16.6968 17.0093 16.4067C16.6584 16.1131 16.1517 15.9663 15.4893 15.9663C15.0452 15.9663 14.5994 15.9932 14.1519 16.0469L14.4204 12.0938H18.0459V12.8726H15.1885L15.0166 15.252C15.2923 15.2269 15.5448 15.2144 15.7739 15.2144C16.5939 15.2144 17.2349 15.4274 17.6968 15.8535C18.1623 16.276 18.395 16.8543 18.395 17.5884ZM19.7432 18.8506C20.2373 19.2158 20.7798 19.3984 21.3706 19.3984C22.1727 19.3984 22.5737 19.1281 22.5737 18.5874C22.5737 18.3547 22.486 18.1631 22.3105 18.0127C22.1351 17.8587 21.7896 17.6851 21.2739 17.4917C20.6795 17.2554 20.2767 17.0155 20.0654 16.772C19.8577 16.5285 19.7539 16.2205 19.7539 15.8481C19.7539 15.3683 19.9616 14.978 20.377 14.6772C20.7923 14.3765 21.299 14.2261 21.897 14.2261C22.3768 14.2261 22.8101 14.3102 23.1968 14.4785V15.3647C22.7778 15.0926 22.2998 14.9565 21.7627 14.9565C21.4118 14.9565 21.1361 15.0353 20.9355 15.1929C20.735 15.3468 20.6348 15.5402 20.6348 15.7729C20.6348 16.0236 20.7082 16.2152 20.855 16.3477C21.0054 16.4801 21.3294 16.6449 21.8271 16.8418C22.5003 17.1032 22.939 17.3592 23.1431 17.6099C23.3472 17.8605 23.4492 18.1595 23.4492 18.5068C23.4492 19.0081 23.2415 19.4056 22.8262 19.6992C22.4144 19.9893 21.8862 20.1343 21.2417 20.1343C20.658 20.1343 20.1585 20.0197 19.7432 19.7905V18.8506Z" fill="#EFFC35"/>
</svg>
