<svg xmlns="http://www.w3.org/2000/svg" width="20" height="20" viewBox="0 0 20 20">
    <g fill="none" fill-rule="evenodd">
        <g fill="#FFF">
            <g>
                <path d="M18.403 16.529c0 1.1-.888 1.996-1.98 1.996h-.852c-1.091 0-1.98-.896-1.98-1.996v-2.78c0-1.101.889-1.997 1.98-1.997h.852c.096 0 .19.007.283.02V9.943c0-3.515-2.836-6.375-6.323-6.375h-.363c-3.487 0-6.324 2.86-6.324 6.375v1.83c.093-.014.188-.021.284-.021h.851c1.092 0 1.98.896 1.98 1.996v2.78c0 1.101-.888 1.997-1.98 1.997H3.98C2.888 18.525 2 17.63 2 16.53V9.943c0-4.458 3.598-8.086 8.02-8.086h.363c4.423 0 8.02 3.628 8.02 8.086v6.586zM4.831 13.464H3.98c-.154 0-.283.13-.283.284v2.78c0 .155.129.285.283.285h.851c.154 0 .283-.13.283-.284v-2.78c0-.155-.129-.285-.283-.285zm11.592 0h-.852c-.153 0-.282.13-.282.284v2.78c0 .155.129.285.282.285h.852c.153 0 .283-.13.283-.284v-2.78c0-.155-.13-.285-.283-.285z" transform="translate(-2311 -2939) translate(2311 2939)"/>
            </g>
        </g>
    </g>
</svg>
