<svg xmlns="http://www.w3.org/2000/svg" width="23" height="18" viewBox="0 0 23 18">
    <g fill="none" fill-rule="evenodd">
        <g fill="#666">
            <g>
                <path d="M12.81 10.357l1.326 1.326c.608.604 1.411.936 2.26.936h1.173l-1.38-1.046.858-1.128 3.07 2.33c.176.134.28.342.28.564 0 .221-.104.43-.28.564l-3.07 2.328-.857-1.128 1.175-.891h-.968c-1.273 0-2.475-.497-3.387-1.4l-1.326-1.328 1.126-1.127zM17.172 2.3l.82.623 2.25 1.707c.023.018.035.046.054.067.136.132.226.306.226.498 0 .19-.09.364-.226.496-.02.021-.03.05-.055.068L17.97 7.483l-.797.604-.46-.604-.398-.524 1.179-.893h-1.096c-.208 0-.414.021-.613.06-.402.08-.781.237-1.124.466-.17.114-.331.245-.48.393l-2.372 2.371-1.126 1.127-2.372 2.374c-.116.115-.237.223-.361.324-.124.103-.253.197-.385.286-.398.264-.828.466-1.28.604-.452.137-.926.207-1.41.207H2.389v-1.726h2.485c.624 0 1.223-.183 1.736-.524.17-.114.331-.246.48-.395l2.372-2.37 1.127-1.128 2.373-2.372c.232-.23.48-.434.746-.611.792-.529 1.722-.812 2.689-.812h1.119l-1.202-.91.384-.507.474-.623zM4.874 4.406c1.275 0 2.477.498 3.388 1.4l1.326 1.328L8.46 8.26 7.136 6.936C6.529 6.332 5.724 6 4.874 6H2.3V4.406z" transform="translate(-890 -2747) translate(890 2747)"/>
            </g>
        </g>
    </g>
</svg>
