<svg width="32" height="32" viewBox="0 0 32 32" fill="none" xmlns="http://www.w3.org/2000/svg">
<circle cx="16" cy="16" r="15.5" stroke="#666666"/>
<path d="M13.1807 13.0068C12.7653 12.7992 12.3338 12.6953 11.8862 12.6953C11.1558 12.6953 10.5828 13.0176 10.1675 13.6621C9.75212 14.3031 9.54622 15.1481 9.5498 16.1973H9.57666C9.94189 15.4417 10.5452 15.064 11.3867 15.064C12.085 15.064 12.6382 15.2896 13.0464 15.7407C13.4546 16.1919 13.6587 16.7809 13.6587 17.5078C13.6587 18.2562 13.4277 18.881 12.9658 19.3823C12.5075 19.8836 11.9167 20.1343 11.1934 20.1343C10.3805 20.1343 9.7557 19.8156 9.31885 19.1782C8.88558 18.5409 8.66895 17.6582 8.66895 16.5303C8.66895 15.1982 8.95003 14.1043 9.51221 13.2485C10.0744 12.3927 10.8621 11.9648 11.8755 11.9648C12.4233 11.9648 12.8584 12.04 13.1807 12.1904V13.0068ZM9.61426 17.4111C9.61426 17.9661 9.76286 18.4388 10.0601 18.8291C10.3573 19.2158 10.7458 19.4092 11.2256 19.4092C11.6875 19.4092 12.0617 19.2373 12.3481 18.8936C12.6382 18.5462 12.7832 18.1201 12.7832 17.6152C12.7832 17.0423 12.6453 16.5965 12.3696 16.2778C12.0939 15.9556 11.709 15.7944 11.2148 15.7944C10.7637 15.7944 10.3841 15.952 10.0762 16.2671C9.76823 16.5786 9.61426 16.96 9.61426 17.4111ZM14.5933 16.208C14.5933 14.8115 14.8206 13.7552 15.2754 13.0391C15.7301 12.3229 16.3854 11.9648 17.2412 11.9648C18.8848 11.9648 19.7065 13.3148 19.7065 16.0146C19.7065 17.3467 19.4774 18.3672 19.019 19.0762C18.5643 19.7816 17.9126 20.1343 17.064 20.1343C16.2619 20.1343 15.6496 19.7923 15.2271 19.1084C14.8045 18.4209 14.5933 17.4541 14.5933 16.208ZM15.4634 16.165C15.4634 18.3278 16.0273 19.4092 17.1553 19.4092C18.276 19.4092 18.8364 18.3117 18.8364 16.1167C18.8364 13.8358 18.2904 12.6953 17.1982 12.6953C16.0417 12.6953 15.4634 13.8519 15.4634 16.165ZM20.7432 18.8506C21.2373 19.2158 21.7798 19.3984 22.3706 19.3984C23.1727 19.3984 23.5737 19.1281 23.5737 18.5874C23.5737 18.3547 23.486 18.1631 23.3105 18.0127C23.1351 17.8587 22.7896 17.6851 22.2739 17.4917C21.6795 17.2554 21.2767 17.0155 21.0654 16.772C20.8577 16.5285 20.7539 16.2205 20.7539 15.8481C20.7539 15.3683 20.9616 14.978 21.377 14.6772C21.7923 14.3765 22.299 14.2261 22.897 14.2261C23.3768 14.2261 23.8101 14.3102 24.1968 14.4785V15.3647C23.7778 15.0926 23.2998 14.9565 22.7627 14.9565C22.4118 14.9565 22.1361 15.0353 21.9355 15.1929C21.735 15.3468 21.6348 15.5402 21.6348 15.7729C21.6348 16.0236 21.7082 16.2152 21.855 16.3477C22.0054 16.4801 22.3294 16.6449 22.8271 16.8418C23.5003 17.1032 23.939 17.3592 24.1431 17.6099C24.3472 17.8605 24.4492 18.1595 24.4492 18.5068C24.4492 19.0081 24.2415 19.4056 23.8262 19.6992C23.4144 19.9893 22.8862 20.1343 22.2417 20.1343C21.658 20.1343 21.1585 20.0197 20.7432 19.7905V18.8506Z" fill="#BABABA"/>
</svg>
