<svg width="22" height="22" viewBox="0 0 22 22" fill="none" xmlns="http://www.w3.org/2000/svg">
<path fill-rule="evenodd" clip-rule="evenodd" d="M6.1172 15.7176C6.1172 16.6881 5.32643 17.4789 4.35589 17.4789C3.38417 17.4789 2.5934 16.6881 2.5934 15.7176C2.5934 14.7459 3.38417 13.9551 4.35589 13.9551C5.32643 13.9551 6.1172 14.7459 6.1172 15.7176ZM7.86441 6.40108H17.7144V3.93947H7.86441V6.40108ZM17.7144 15.7176C17.7144 16.6881 16.9236 17.4789 15.9531 17.4789C14.9813 17.4789 14.1906 16.6881 14.1906 15.7176C14.1906 14.7459 14.9813 13.9551 15.9531 13.9551C16.9236 13.9551 17.7144 14.7459 17.7144 15.7176ZM6.9914 2.19226C6.50965 2.19226 6.1172 2.58353 6.1172 3.06528V12.6838C5.58141 12.3712 4.97746 12.2079 4.35589 12.2079C2.42068 12.2079 0.846191 13.7824 0.846191 15.7176C0.846191 17.6516 2.42068 19.2261 4.35589 19.2261C6.28993 19.2261 7.86441 17.6516 7.86441 15.7164V8.14829H17.7144V12.6838C17.1786 12.3712 16.5746 12.2079 15.9531 12.2079C14.0178 12.2079 12.4434 13.7824 12.4434 15.7176C12.4434 17.6516 14.0178 19.2261 15.9531 19.2261C17.8883 19.2261 19.4616 17.6516 19.4616 15.7164V3.06528C19.4616 2.58353 19.0703 2.19226 18.5886 2.19226H6.9914Z" fill="#F1FA75"/>
</svg>
