<svg xmlns="http://www.w3.org/2000/svg" width="30" height="30" viewBox="0 0 30 30">
    <path fill="#535353" fill-rule="evenodd" d="M8.987 18.011c.826 0 1.499.673 1.499 1.5 0 .826-.673 1.499-1.499 1.499-.827 0-1.5-.673-1.5-1.499 0-.827.673-1.5 1.5-1.5zm2.986-6.429h8.383V9.487h-8.383v2.095zm6.884 6.429c.826 0 1.499.673 1.499 1.5 0 .826-.673 1.499-1.499 1.499-.827 0-1.5-.673-1.5-1.499 0-.827.673-1.5 1.5-1.5zM21.1 8h-9.87c-.41 0-.744.333-.744.743v8.186c-.456-.266-.97-.405-1.499-.405C7.34 16.524 6 17.864 6 19.511c0 1.646 1.34 2.986 2.987 2.986 1.646 0 2.986-1.34 2.986-2.987v-6.441h8.383v3.86c-.456-.266-.97-.405-1.499-.405-1.647 0-2.987 1.34-2.987 2.987 0 1.646 1.34 2.986 2.987 2.986s2.986-1.34 2.986-2.987V8.743c0-.41-.333-.743-.743-.743z"/>
</svg>
