<?xml version="1.0" encoding="UTF-8"?>
<svg width="100px" height="100px" viewBox="0 0 100 100" version="1.1" xmlns="http://www.w3.org/2000/svg" xmlns:xlink="http://www.w3.org/1999/xlink">
    <title>E9D570A5-54A5-4E62-A07A-0516DE7A0FD3</title>
    <g id="가이드" stroke="none" stroke-width="1" fill="none" fill-rule="evenodd">
        <g id="GUIDE_AddSource_202105" transform="translate(-310.000000, -5694.000000)" fill="#444444">
            <g id="ic-addsource-camera" transform="translate(310.000000, 5694.000000)">
                <path d="M89.3187991,28.9025361 C88.7596861,28.9025361 88.2005731,29.0121333 87.6579046,29.2313277 L73.4388937,37.3992044 L73.4388937,27.4316261 C73.4388937,23.8841372 70.6981438,21 67.3270213,21 L12.1118724,21 C8.74074997,21 6,23.8841372 6,27.4316261 L6,72.5683739 C6,76.1158628 8.74074997,79 12.1118724,79 L67.3270213,79 C70.6981438,79 73.4388937,76.1158628 73.4388937,72.5683739 L73.4388937,62.6123322 L87.4276816,70.6590751 L87.6579046,70.7744406 C88.2005731,70.9878667 88.7596861,71.1032322 89.3187991,71.1032322 C91.9005855,71.1032322 94,68.8939831 94,66.1771258 L94,33.8286425 C94,31.1117852 91.9005855,28.9025361 89.3187991,28.9025361" id="Fill-1"></path>
            </g>
        </g>
    </g>
</svg>