<?xml version="1.0" encoding="UTF-8"?>
<svg width="100px" height="100px" viewBox="0 0 100 100" version="1.1" xmlns="http://www.w3.org/2000/svg" xmlns:xlink="http://www.w3.org/1999/xlink">
    <title>CA414CA0-4B50-4112-A151-CB3F3A6C8258</title>
    <defs>
        <polygon id="path-1" points="97.5050045 3.52314607 0 3.52314607 1.69652058e-14 -1.67186526e-14 97.5050045 -1.67186526e-14"></polygon>
        <polygon id="path-3" points="96.4705618 85.7808989 0 85.7808989 0 3.90101894e-15 96.4705618 3.90101894e-15"></polygon>
        <polygon id="path-5" points="96.2286517 84.9325991 96.2286517 1.80570841e-14 0 2.08983158e-15 0 84.9325991"></polygon>
    </defs>
    <g id="가이드" stroke="none" stroke-width="1" fill="none" fill-rule="evenodd" opacity="0.302128">
        <g id="GUIDE_AddSource_202105" transform="translate(-70.000000, -5694.000000)">
            <g id="ic-addsource-default" transform="translate(70.000000, 5694.000000)">
                <g id="txt_thumb_BI" transform="translate(-5.500000, -5.000000)">
                    <g id="bi" transform="translate(6.000000, 9.123820)">
                        <g id="Group-3" transform="translate(1.587102, 82.257753)">
                            <mask id="mask-2" fill="white">
                                <use xlink:href="#path-1"></use>
                            </mask>
                            <g id="Clip-2"></g>
                            <path d="M96.0402014,2.20674157 C95.841325,2.55280899 95.0177295,2.78314607 94.6211003,2.78314607 L1.10761716,2.76292135 C0.709864351,2.76292135 0.343572217,2.55280899 0.144695812,2.20674157 C0.112111542,2.15168539 0.0930104189,2.08988764 0.0716621043,2.03146067 C-0.0418210418,2.33707865 -0.0227199182,2.67977528 0.144695812,2.96741573 C0.343572217,3.31123596 0.709864351,3.52359551 1.10761716,3.52359551 L94.394134,3.52359551 C95.1727857,3.52359551 96.2739093,3.34494382 96.7514374,2.85505618 C96.9840217,2.61685393 98.0637969,1.66629213 97.1323363,-1.67186526e-14 C97.1109879,0.0595505618 96.0727857,2.15168539 96.0402014,2.20674157" id="Fill-1" fill="#FF0000" mask="url(#mask-2)"></path>
                        </g>
                        <path d="M66.0882022,66.4595506 C65.8893258,66.8044944 65.5230337,67.0146067 65.1252809,67.0146067 L34.2320225,67.0146067 C33.8353933,67.0146067 33.4679775,66.8044944 33.2702247,66.4595506 C33.2365169,66.4033708 33.2185393,66.3426966 33.1960674,66.2831461 C33.0837079,66.588764 33.102809,66.9314607 33.2702247,67.2191011 C33.4679775,67.5629213 33.8353933,67.7752809 34.2320225,67.7752809 L64.4230337,67.7752809 C64.8196629,67.7752809 66.191573,67.6853933 66.7578652,67.0359551 C67.2342697,66.488764 67.3331461,66.1550562 67.3870787,65.5910112 C67.3646067,65.6505618 66.1207865,66.4033708 66.0882022,66.4595506" id="Fill-4" fill="#FF0000"></path>
                        <path d="M81.8580899,75.4614607 C81.6592135,75.8064045 81.2929213,76.0176404 80.8951685,76.0176404 L18.4637079,76.0176404 C18.0670787,76.0176404 17.6985393,75.8064045 17.5007865,75.4614607 C17.4682022,75.4052809 17.4491011,75.3446067 17.4277528,75.2861798 C17.3153933,75.5917978 17.3333708,75.9333708 17.5007865,76.2221348 C17.6985393,76.5659551 18.0670787,76.777191 18.4637079,76.777191 L79.9041573,76.777191 C80.6670787,76.777191 81.524382,76.7491011 82.2120225,76.3794382 C82.7839326,76.0726966 83.1682022,75.5389888 83.2974157,74.9075281 C83.3210112,74.7917978 83.3097753,74.641236 83.3502247,74.5322472 C83.3288764,74.5929213 81.8906742,75.4052809 81.8580899,75.4614607" id="Fill-6" fill="#FF0000"></path>
                        <path d="M34.8530337,64.0652809 L61.8923596,64.0652809 L48.3732584,40.6473034 L34.8530337,64.0652809 Z M63.8193258,66.2888764 L33.921573,67.7753933 C32.5182022,67.7753933 30.585618,67.0360674 31.9631461,64.6214607 L47.4103371,37.8675281 C49.0766292,35.3180899 51.5361798,36.8866292 51.9485393,37.8675281 L64.7833708,64.6214607 C64.9811236,64.9652809 64.9811236,65.39 64.7822472,65.7326966 C64.5833708,66.0776404 64.2159551,66.2888764 63.8193258,66.2888764 L63.8193258,66.2888764 Z" id="Fill-8" fill="#FF0000"></path>
                        <path d="M19.0837079,73.0683146 L77.6623596,73.0683146 L48.3724719,22.3391011 L19.0837079,73.0683146 Z M79.5893258,75.2919101 L17.9185393,76.7773034 C17.1724719,76.7773034 14.75,76.0379775 16.1938202,73.6233708 L47.2646067,19.8110112 C48.044382,18.2357303 50.2870787,17.3874157 52.0308989,19.7121348 L80.5522472,73.6233708 C80.7511236,73.967191 80.7511236,74.3919101 80.5522472,74.7357303 C80.3533708,75.0806742 79.9859551,75.2919101 79.5893258,75.2919101 L79.5893258,75.2919101 Z" id="Fill-10" fill="#FF0000"></path>
                        <g id="Group-14">
                            <mask id="mask-4" fill="white">
                                <use xlink:href="#path-3"></use>
                            </mask>
                            <g id="Clip-13"></g>
                            <path d="M3.31494382,82.0713483 L93.4317978,82.0713483 L48.3733708,4.02752809 L3.31494382,82.0713483 Z M95.3576404,84.2949438 L2.6947191,85.7814607 C1.44191011,85.7814607 -0.980561798,85.0353933 0.42505618,82.6275281 L47.2947191,1.5005618 C48.8464045,-0.962359551 51.3014607,0.0882022472 51.9486517,1.24550562 L96.3205618,82.6275281 C96.5205618,82.9713483 96.5205618,83.3960674 96.3205618,83.738764 C96.122809,84.0837079 95.7542697,84.2949438 95.3576404,84.2949438 L95.3576404,84.2949438 Z" id="Fill-12" fill="#FF0000" mask="url(#mask-4)"></path>
                        </g>
                        <polygon id="Fill-15" fill="#0000FF" points="63.1985393 63.6879055 63.1985393 64.4966763 61.0985393 62.6902247 36.5974157 62.6902247 36.1592135 63.6879055"></polygon>
                        <polygon id="Fill-17" fill="#0000FF" points="78.968427 72.6904758 78.968427 73.4985864 76.868427 71.6921348 20.8291011 71.6921348 20.3897753 72.6904758"></polygon>
                        <polygon id="Fill-19" fill="#0000FF" points="94.7135955 81.7175545 94.7821348 82.5256651 92.6517978 80.7192135 5.03606742 80.7192135 4.59674157 81.7175545"></polygon>
                        <path d="M37.4650562,64.0652809 L64.504382,64.0652809 L49.6796629,40.6473034 L49.6785393,42.9113483 L37.4650562,64.0652809 Z M65.3470787,67.0360674 L35.5380899,66.2888764 C35.1414607,66.2888764 34.7740449,66.0776404 34.5751685,65.7326966 C34.3762921,65.39 34.3762921,64.9652809 34.5751685,64.6214607 L48.3729213,37.5911236 C49.8504494,35.7866292 51.3953933,36.7697753 51.9482022,37.8675281 L67.1796629,64.248427 C67.3785393,64.5922472 67.4965169,65.331573 67.3661798,65.7068539 C67.2324719,66.0911236 66.9796629,67.0360674 65.3470787,67.0360674 L65.3470787,67.0360674 Z" id="Fill-21" fill="#0000FF"></path>
                        <path d="M21.6962921,73.0683146 L80.2749438,73.0683146 L49.6783146,21.4806742 L49.6794382,24.6008989 L21.6962921,73.0683146 Z M81.1019101,76.0181719 L19.7693258,75.2919101 C19.3726966,75.2919101 19.0052809,75.0806742 18.8064045,74.7357303 C18.6064045,74.3919101 18.6064045,73.967191 18.8064045,73.6233708 L48.6479775,18.972809 C49.4491011,18.1020225 51.0974157,18.2334831 52.1019101,19.8222472 L83.1648315,73.6233708 C83.3637079,73.967191 83.4603371,74.6323596 83.2603371,74.9761798 C83.0625843,75.3211236 82.8210112,76.0379775 81.1019101,76.0181719 L81.1019101,76.0181719 Z" id="Fill-23" fill="#0000FF"></path>
                        <g id="Group-27" transform="translate(2.888202, 0.088187)">
                            <mask id="mask-6" fill="white">
                                <use xlink:href="#path-5"></use>
                            </mask>
                            <g id="Clip-26"></g>
                            <path d="M3.03876404,81.9831609 L93.155618,81.9831609 L48.097191,3.93934071 L46.7904494,4.92361037 L46.7904494,6.20226205 L3.03876404,81.9831609 Z M93.9634831,84.9325991 L1.11292135,84.2067564 C0.715168539,84.2067564 0.347752809,83.9955205 0.15,83.6505767 C-0.05,83.30788 -0.05,82.8831609 0.15,82.5393407 L45.3747191,0.964059808 C46.7904494,-0.739310979 48.4365169,0.130351943 49.0601124,1.15731823 L95.8511236,82.2022621 C96.05,82.5460823 96.3601124,83.2370935 96.1691011,83.7281048 C95.7398876,84.8292283 94.3601124,84.9325991 93.9634831,84.9325991 L93.9634831,84.9325991 Z" id="Fill-25" fill="#0000FF" mask="url(#mask-6)"></path>
                        </g>
                        <path d="M36.7266292,64.0652809 L63.7659551,64.0652809 L50.2468539,40.6473034 L36.7266292,64.0652809 Z M65.2041573,67.031573 L34.8007865,66.2888764 C34.4030337,66.2888764 34.035618,66.0776404 33.8378652,65.7326966 C33.6378652,65.39 33.6378652,64.9652809 33.8378652,64.6214607 L48.7165169,37.8675281 C49.43,36.4911236 50.8131461,37.1776404 51.2097753,37.8675281 L66.6569663,64.6214607 C66.8558427,64.9652809 67.0052809,65.6888764 66.7322472,66.1293258 C66.2704494,66.8731461 65.6007865,67.031573 65.2041573,67.031573 L65.2041573,67.031573 Z" id="Fill-28" fill="#3FA9FF"></path>
                        <path d="M20.9578652,73.0683146 L79.5365169,73.0683146 L50.2466292,22.3391011 L20.9578652,73.0683146 Z M80.9882022,76.0177528 L19.0308989,75.2919101 C18.6342697,75.2919101 18.2668539,75.0806742 18.0679775,74.7357303 C17.8691011,74.3919101 17.8691011,73.967191 18.0679775,73.6233708 L48.3219101,19.2986517 C49.291573,17.925618 50.7713483,18.8952809 51.1679775,19.5840449 L82.4264045,73.6233708 C82.6252809,73.967191 82.7073034,74.4626966 82.6005618,74.8458427 C82.3893258,75.6020225 81.75,76.0177528 80.9882022,76.0177528 L80.9882022,76.0177528 Z" id="Fill-30" fill="#3FA9FF"></path>
                        <path d="M5.18910112,82.0713483 L95.3059551,82.0713483 L50.2475281,4.02752809 L5.18910112,82.0713483 Z M96.27,85.038764 L3.26213483,84.2949438 C2.86550562,84.2949438 2.49808989,84.0837079 2.29921348,83.738764 C2.09921348,83.3960674 2.09921348,82.9713483 2.29921348,82.6275281 L48.2621348,1.05224719 C49.4767416,-0.35 50.8126966,0.556741573 51.2104494,1.24550562 L98.1947191,82.6275281 C98.3947191,82.9713483 98.5149438,83.6769663 98.3430337,84.0342697 C97.8823596,84.991573 96.6666292,85.038764 96.27,85.038764 L96.27,85.038764 Z" id="Fill-32" fill="#3FA9FF"></path>
                        <path d="M35.5568539,64.0652809 L62.5961798,64.0652809 L49.6804494,41.6922472 L49.6793258,40.0461798 L35.5568539,64.0652809 Z M64.5231461,66.2888764 L34.4265169,67.0360674 C34.028764,67.0360674 31.3579775,67.0293258 32.6680899,64.6214607 L48.1141573,37.8675281 C48.7276404,37.0731461 49.9208989,36.7697753 50.5310112,37.7113483 L65.487191,64.6214607 C65.6860674,64.9652809 65.6860674,65.39 65.4860674,65.7326966 C65.287191,66.0776404 64.9208989,66.2888764 64.5231461,66.2888764 L64.5231461,66.2888764 Z" id="Fill-34" fill="#FFFF00"></path>
                        <path d="M19.7882022,73.0683146 L78.3668539,73.0683146 L49.6792135,23.3795506 L49.6792135,21.4806742 L19.7882022,73.0683146 Z M80.2938202,75.2919101 L18.4634831,76.0177528 C18.0668539,76.0177528 15.7432584,75.7907865 16.8983146,73.6233708 L48.0219101,19.7177528 C48.5601124,18.708764 50.0758427,18.4537079 50.6926966,19.6447191 L81.2567416,73.6233708 C81.455618,73.967191 81.455618,74.3919101 81.2567416,74.7357303 C81.0578652,75.0806742 80.6904494,75.2919101 80.2938202,75.2919101 L80.2938202,75.2919101 Z" id="Fill-36" fill="#FFFF00"></path>
                        <path d="M4.0194382,82.0713483 L93.9958427,81.9174157 L49.6789888,5.01179775 L49.6789888,4.02752809 L49.0778652,4.02752809 L4.0194382,82.0713483 Z M96.0621348,84.2949438 L2.77561798,85.0657303 C2.14977528,85.0657303 0.122808989,84.5421348 1.12955056,82.6275281 L48.1149438,1.24550562 C48.7407865,0.119662921 50.1789888,0.456741573 50.5767416,1.14662921 L97.0250562,82.6275281 C97.2250562,82.9713483 97.2250562,83.3960674 97.0250562,83.738764 C96.8273034,84.0837079 96.458764,84.2949438 96.0621348,84.2949438 L96.0621348,84.2949438 Z" id="Fill-38" fill="#FFFF00"></path>
                        <path d="M36.158764,64.0652809 L63.1980899,64.0652809 L49.6789888,40.6473034 L36.158764,64.0652809 Z M65.1250562,66.2888764 L34.2329213,66.2888764 C33.8351685,66.2888764 33.4677528,66.0776404 33.27,65.7326966 C33.07,65.39 33.07,64.9652809 33.27,64.6214607 L48.7160674,37.8675281 C49.1138202,37.1776404 50.2452809,37.1776404 50.6419101,37.8675281 L66.0891011,64.6214607 C66.2879775,64.9652809 66.2879775,65.39 66.0879775,65.7326966 C65.8891011,66.0776404 65.522809,66.2888764 65.1250562,66.2888764 L65.1250562,66.2888764 Z" id="Fill-40" fill="#FFFFFF"></path>
                        <path d="M20.39,73.0683146 L78.9686517,73.0683146 L49.678764,22.3391011 L20.39,73.0683146 Z M80.895618,75.2919101 L18.4630337,75.2919101 C18.0664045,75.2919101 17.6989888,75.0806742 17.5001124,74.7357303 C17.301236,74.3919101 17.301236,73.967191 17.5001124,73.6233708 L48.7158427,19.5570787 C49.1135955,18.8683146 50.2450562,18.8683146 50.6416854,19.5570787 L81.8585393,73.6233708 C82.0574157,73.967191 82.0574157,74.3919101 81.8585393,74.7357303 C81.6596629,75.0806742 81.2922472,75.2919101 80.895618,75.2919101 L80.895618,75.2919101 Z" id="Fill-42" fill="#FFFFFF"></path>
                        <path d="M4.62123596,82.0713483 L94.7380899,82.0713483 L49.6796629,4.02752809 L4.62123596,82.0713483 Z M96.4706742,84.2949438 L2.69426966,84.2949438 C2.29764045,84.2949438 1.93022472,84.0837079 1.73134831,83.738764 C1.53134831,83.3960674 1.53134831,82.9713483 1.73134831,82.6275281 L48.7167416,1.24550562 C49.1133708,0.556741573 50.2448315,0.556741573 50.6425843,1.24550562 L97.6268539,82.6275281 C97.8268539,82.9713483 97.8268539,83.3960674 97.6268539,83.738764 C97.4291011,84.0837079 96.8673034,84.2949438 96.4706742,84.2949438 L96.4706742,84.2949438 Z" id="Fill-44" fill="#FFFFFF"></path>
                    </g>
                </g>
            </g>
        </g>
    </g>
</svg>