<?xml version="1.0" encoding="UTF-8"?>
<svg width="100px" height="100px" viewBox="0 0 100 100" version="1.1" xmlns="http://www.w3.org/2000/svg" xmlns:xlink="http://www.w3.org/1999/xlink">
    <title>AE1E92F4-29E0-49A5-A247-8FAE1C1AD20B</title>
    <g id="가이드" stroke="none" stroke-width="1" fill="none" fill-rule="evenodd">
        <g id="GUIDE_AddSource_202105" transform="translate(-1510.000000, -5694.000000)" fill="#444444">
            <g id="ic-addsource-image" transform="translate(1510.000000, 5694.000000)">
                <g id="icon_path" transform="translate(9.600000, 12.600000)">
                    <path d="M62.8328571,23.7258462 C62.8328571,26.9587692 60.2147143,29.572 56.9757143,29.572 C53.7425714,29.572 51.1185714,26.9587692 51.1185714,23.7258462 C51.1185714,20.4987692 53.7425714,17.8796923 56.9757143,17.8796923 C60.2147143,17.8796923 62.8328571,20.4987692 62.8328571,23.7258462" id="Fill-1"></path>
                    <path d="M74.5471429,0 L74.776148,0.00408719647 C78.1201435,0.123634394 80.8,2.85052258 80.8,6.18738462 L80.8,6.18738462 L80.8,68.6067692 L80.7958691,68.8334036 C80.6750448,72.1428928 77.9190311,74.8 74.5471429,74.8 L74.5471429,74.8 L6.25285714,74.8 L6.02393373,74.7959061 C2.68108286,74.676164 -1.42108547e-14,71.9448767 -1.42108547e-14,68.6067692 L-1.42108547e-14,68.6067692 L-1.42108547e-14,6.18738462 L0.00412900717,5.96083995 C0.124899492,2.65273569 2.87971476,0 6.25285714,0 L6.25285714,0 L74.5471429,0 Z M75.1472593,5.58738462 L5.65285714,5.58738462 L5.65285714,44.2485603 L16.7036006,34.6254062 L16.8458233,34.5094678 C17.9590427,33.6633832 19.5805375,33.8001518 20.5261587,34.8493799 L20.5261587,34.8493799 L50.1992852,67.6355416 L50.3183372,67.7582279 C51.1770886,68.5797182 52.5533125,68.6167941 53.4599445,67.8174384 L53.4599445,67.8174384 L54.7384553,66.6818212 L54.8627715,66.5636864 C55.6951606,65.7111062 55.7323918,64.335968 54.9205024,63.4347196 L54.9205024,63.4347196 L41.143,48.201 L48.0687712,42.1667961 L48.2109735,42.0508754 C49.3240427,41.2049217 50.9455375,41.3416903 51.8911587,42.3909184 L51.8911587,42.3909184 L75.1351262,68.1010785 L75.1472593,5.58738462 Z" id="Combined-Shape"></path>
                </g>
            </g>
        </g>
    </g>
</svg>