<?xml version="1.0" encoding="UTF-8"?>
<svg width="100px" height="100px" viewBox="0 0 100 100" version="1.1" xmlns="http://www.w3.org/2000/svg" xmlns:xlink="http://www.w3.org/1999/xlink">
    <title>C70B888D-310F-4E02-A4B5-D1A9D185BC5E</title>
    <g id="가이드" stroke="none" stroke-width="1" fill="none" fill-rule="evenodd">
        <g id="GUIDE_AddSource_202105" transform="translate(-790.000000, -5694.000000)" fill="#444444">
            <g id="ic-addsource-game" transform="translate(790.000000, 5694.000000)">
                <g id="Page-1" transform="translate(4.998312, 13.998877)">
                    <path d="M56.2510547,0 C74.8139028,0 90.0016875,15.1617717 90.0016875,33.692826 L90.0016875,33.692826 L90.0016875,39.3082971 C90.0016875,57.8393514 74.8139028,73.0011231 56.2510547,73.0011231 L56.2510547,73.0011231 L33.7506328,73.0011231 C15.1877848,73.0011231 0,57.8393514 0,39.3082971 L0,39.3082971 L0,33.692826 C0,15.1617717 15.1877848,0 33.7506328,0 L33.7506328,0 Z M32.3016875,22.5011231 L26.7016875,22.5011231 L26.7016875,33.7011231 L15.5016875,33.7011231 L15.5016875,39.3011231 L26.7016875,39.3001231 L26.7016875,50.5011231 L32.3016875,50.5011231 L32.3006875,39.3001231 L43.5016875,39.3011231 L43.5016875,33.7011231 L32.3006875,33.7011231 L32.3016875,22.5011231 Z M58.5016875,38.5011231 C55.7416875,38.5011231 53.5016875,40.7411231 53.5016875,43.5011231 C53.5016875,46.2661231 55.7416875,48.5011231 58.5016875,48.5011231 C61.2666875,48.5011231 63.5016875,46.2661231 63.5016875,43.5011231 C63.5016875,40.7411231 61.2666875,38.5011231 58.5016875,38.5011231 Z M68.5016875,24.5011231 C65.7416875,24.5011231 63.5016875,26.7411231 63.5016875,29.5011231 C63.5016875,32.2611231 65.7416875,34.5011231 68.5016875,34.5011231 C71.2616875,34.5011231 73.5016875,32.2611231 73.5016875,29.5011231 C73.5016875,26.7411231 71.2616875,24.5011231 68.5016875,24.5011231 Z" id="Combined-Shape"></path>
                </g>
            </g>
        </g>
    </g>
</svg>