<?xml version="1.0" encoding="UTF-8"?>
<svg width="100px" height="100px" viewBox="0 0 100 100" version="1.1" xmlns="http://www.w3.org/2000/svg" xmlns:xlink="http://www.w3.org/1999/xlink">
    <title>245BE5B0-E8F9-4208-9658-7FB63109ED7E</title>
    <g id="가이드" stroke="none" stroke-width="1" fill="none" fill-rule="evenodd">
        <g id="GUIDE_AddSource_202105" transform="translate(-430.000000, -5694.000000)" fill="#444444" fill-rule="nonzero">
            <g id="ic-addsource-micAudio" transform="translate(430.000000, 5694.000000)">
                <g id="icon_path" transform="translate(18.150000, 6.000000)">
                    <path d="M50.2915,40.5845 L50.2915,18.81 C50.2915,8.47 41.9865,0 31.85,0 C21.708,0 13.4085,8.47 13.4085,18.81 L13.4085,40.59 C13.4085,50.93 21.708,59.389 31.85,59.389 C41.992,59.389 50.2915,50.9245 50.2915,40.5845 Z" id="Path" stroke="#444444" stroke-width="2"></path>
                    <path d="M2.733,38.0275 C4.23341904,38.0275 5.4605,39.2798196 5.4605,40.8375 C5.4605,55.6530058 17.1359788,67.722 31.5035,67.722 L32.191,67.722 C46.5630976,67.722 58.234,55.6594566 58.234,40.843 C58.234,39.2813399 59.4595556,38.033 60.967,38.033 C62.4744444,38.033 63.7,39.2813399 63.7,40.843 C63.7,57.4554944 51.492387,71.365377 35.6053285,73.1401089 L34.583,73.2543125 L34.583,81.23 L55.1425,81.23 C56.6478267,81.23 57.8755,82.4816982 57.8755,84.04 C57.8755,85.5949429 56.6457125,86.85 55.1425,86.85 L8.552,86.85 C7.05369359,86.85 5.8245,85.5943204 5.8245,84.04 C5.8245,82.4823196 7.05158096,81.23 8.552,81.23 L29.117,81.23 L29.117,73.2539685 L28.0942917,73.1400666 C12.2105634,71.3710511 1.42108547e-14,57.4529968 1.42108547e-14,40.8375 C1.42108547e-14,39.2791982 1.22767332,38.0275 2.733,38.0275 Z" id="Combined-Shape"></path>
                </g>
            </g>
        </g>
    </g>
</svg>