<svg xmlns="http://www.w3.org/2000/svg" width="30" height="30" viewBox="0 0 30 30">
    <g fill="none" fill-rule="evenodd">
        <g fill="#FFF" fill-rule="nonzero">
            <g>
                <g>
                    <g>
                        <path d="M12.7 0H1.3C.6 0 0 .59 0 1.28v10.44C0 12.41.6 13 1.3 13h11.4c.7 0 1.3-.59 1.3-1.28V1.28C14 .59 13.4 0 12.7 0zM9 7.19L6.2 9.16c-.1 0-.2.098-.4.098-.3 0-.6-.197-.6-.69V4.432c0-.493.3-.69.6-.69.2 0 .3.099.5.197l2.8 1.97c.2.197.4.394.4.69 0 .295-.2.393-.5.59z" transform="translate(-430.000000, -5906.000000) translate(70.000000, 5906.000000) translate(360.000000, 0.000000) translate(8.000000, 8.000000)"/>
                    </g>
                </g>
            </g>
        </g>
    </g>
</svg>
