<svg xmlns="http://www.w3.org/2000/svg" width="30" height="30" viewBox="0 0 30 30">
    <g fill="none" fill-rule="evenodd">
        <g fill="#FFF">
            <g>
                <g>
                    <g transform="translate(-710.000000, -5906.000000) translate(70.000000, 5906.000000) translate(640.000000, 0.000000) translate(9.000000, 8.000000)">
                        <path fill-rule="nonzero" d="M10-.8H2C.454-.8-.8.454-.8 2v12c0 1.546 1.254 2.8 2.8 2.8h8c1.546 0 2.8-1.254 2.8-2.8V2C12.8.454 11.546-.8 10-.8zM2 .8h8c.663 0 1.2.537 1.2 1.2v12c0 .663-.537 1.2-1.2 1.2H2c-.663 0-1.2-.537-1.2-1.2V2C.8 1.337 1.337.8 2 .8z"/>
                        <rect width="6" height="2.5" x="3" rx=".5"/>
                    </g>
                </g>
            </g>
        </g>
    </g>
</svg>
