<svg xmlns="http://www.w3.org/2000/svg" width="30" height="30" viewBox="0 0 30 30">
    <g fill="none" fill-rule="evenodd">
        <g fill="#FFF">
            <g>
                <g>
                    <path d="M7 0c1.105 0 2 .895 2 2v1h3c1.105 0 2 .895 2 2v3h1c1.105 0 2 .895 2 2s-.895 2-2 2h-1v3c0 1.105-.895 2-2 2H9v-1c0-1.054-.816-1.918-1.85-1.995L7 14c-1.105 0-2 .895-2 2v1H2c-1.105 0-2-.895-2-2v-3h1c1.054 0 1.918-.816 1.995-1.85L3 10c0-1.105-.895-2-2-2H0V5c0-1.105.895-2 2-2h3V2c0-1.105.895-2 2-2z" transform="translate(-1030.000000, -5906.000000) translate(1030.000000, 5906.000000) translate(8.000000, 6.000000)"/>
                </g>
            </g>
        </g>
    </g>
</svg>
