<svg xmlns="http://www.w3.org/2000/svg" xmlns:xlink="http://www.w3.org/1999/xlink" width="30" height="30" viewBox="0 0 30 30">
    <defs>
        <path id="gx6yrerwya" d="M0 0L15 0 15 10 0 10z"/>
    </defs>
    <g fill="none" fill-rule="evenodd">
        <g>
            <g>
                <g>
                    <g transform="translate(-70.000000, -5946.000000) translate(70.000000, 5906.000000) translate(0.000000, 40.000000) translate(8.000000, 10.000000)">
                        <mask id="pa9khfh6jb" fill="#fff">
                            <use xlink:href="#gx6yrerwya"/>
                        </mask>
                        <path fill="#EFFC35" d="M14.202 1.362c-.095 0-.19.02-.283.057l-2.423 1.408V1.11c0-.612-.468-1.11-1.042-1.11H1.042C.468 0 0 .498 0 1.11V8.89C0 9.503.468 10 1.042 10h9.412c.574 0 1.042-.497 1.042-1.109V7.174l2.384 1.388.04.02c.092.037.187.056.282.056.44 0 .798-.38.798-.849V2.212c0-.469-.358-.85-.798-.85" mask="url(#pa9khfh6jb)"/>
                    </g>
                </g>
            </g>
        </g>
    </g>
</svg>
