<svg xmlns="http://www.w3.org/2000/svg" width="30" height="30" viewBox="0 0 30 30">
    <g fill="none" fill-rule="evenodd">
        <g fill="#EFFC35" fill-rule="nonzero">
            <g>
                <g>
                    <g>
                        <path d="M11 .2c1.546 0 2.8 1.254 2.8 2.8v12c0 1.546-1.254 2.8-2.8 2.8H3C1.454 17.8.2 16.546.2 15V3C.2 1.454 1.454.2 3 .2zm0 1.6l-1-.001V3c0 .276-.224.5-.5.5h-5c-.276 0-.5-.224-.5-.5V1.799L3 1.8c-.621 0-1.132.472-1.194 1.077L1.8 3v12c0 .663.537 1.2 1.2 1.2h8c.663 0 1.2-.537 1.2-1.2V3c0-.663-.537-1.2-1.2-1.2z" transform="translate(-710.000000, -5946.000000) translate(70.000000, 5906.000000) translate(640.000000, 40.000000) translate(8.000000, 7.000000)"/>
                    </g>
                </g>
            </g>
        </g>
    </g>
</svg>
