<?xml version="1.0" standalone="no"?><!DOCTYPE svg PUBLIC "-//W3C//DTD SVG 1.1//EN" "http://www.w3.org/Graphics/SVG/1.1/DTD/svg11.dtd"><svg t="1682055918443" class="icon" viewBox="0 0 1024 1024" version="1.1" xmlns="http://www.w3.org/2000/svg" p-id="25411" xmlns:xlink="http://www.w3.org/1999/xlink" width="200" height="200"><path d="M512 512m-512 0a512 512 0 1 0 1024 0 512 512 0 1 0-1024 0Z" fill="#2CCD42" p-id="25412"></path><path d="M853.333333 512l-341.333333 341.333333V554.666667a42.666667 42.666667 0 0 1 42.666667-42.666667H853.333333zM512 170.666667v298.666666a42.666667 42.666667 0 0 1-42.666667 42.666667H170.666667l341.333333-341.333333z" fill="#036102" p-id="25413"></path><path d="M512 0a512 512 0 1 1 0 1024A512 512 0 0 1 512 0z m0 25.6a486.4 486.4 0 1 0 0 972.8A486.4 486.4 0 0 0 512 25.6z" fill="#29A92B" p-id="25414"></path></svg>