<?xml version="1.0" standalone="no"?><!DOCTYPE svg PUBLIC "-//W3C//DTD SVG 1.1//EN" "http://www.w3.org/Graphics/SVG/1.1/DTD/svg11.dtd"><svg t="1682055563093" class="icon" viewBox="0 0 1024 1024" version="1.1" xmlns="http://www.w3.org/2000/svg" p-id="2187" xmlns:xlink="http://www.w3.org/1999/xlink" width="200" height="200"><path d="M512 512m-512 0a512 512 0 1 0 1024 0 512 512 0 1 0-1024 0Z" fill="#FF5F57" p-id="2188"></path><path d="M753.322667 270.677333a42.666667 42.666667 0 0 1 0 60.330667L572.416 512l180.906667 180.992a42.666667 42.666667 0 0 1-60.330667 60.330667L512 572.416l-180.992 180.906667a42.666667 42.666667 0 0 1-60.330667-60.330667L451.584 512l-180.906667-180.992a42.666667 42.666667 0 0 1 60.330667-60.330667L512 451.584l180.992-180.906667a42.666667 42.666667 0 0 1 60.330667 0z" fill="#730000" p-id="2189"></path></svg>