<?xml version="1.0" encoding="UTF-8"?>
<svg width="30px" height="30px" viewBox="0 0 30 30" version="1.1" xmlns="http://www.w3.org/2000/svg" xmlns:xlink="http://www.w3.org/1999/xlink">
    <title>0375A762-947E-411A-890E-EFE7BE367297</title>
    <g id="Page-1" stroke="none" stroke-width="1" fill="none" fill-rule="evenodd">
        <g id="GUIDE_PRISMSticker_202105" transform="translate(-1390.000000, -4465.000000)">
            <g id="Group-3" transform="translate(70.000000, 4385.000000)">
                <g id="erroricon-source-prismsticker-normal" transform="translate(1320.000000, 80.000000)">
                    <rect id="Rectangle" x="0" y="0" width="30" height="30"></rect>
                    <g id="icon_path" transform="translate(5.298163, 5.249990)" fill="#FFFFFF" fill-rule="nonzero">
                        <path d="M17.6957153,0.185577755 C17.9791039,0.433542791 18.0309724,0.847673467 17.8331312,1.15512612 L17.7662693,1.24388873 L16.8091813,2.33697731 C18.7263921,3.45588357 19.8758694,5.69291364 19.2214723,8.51530418 C18.6059874,11.310303 15.0415575,15.2840707 10.7437115,17.5289777 L10.4029245,17.7025624 L10.0358963,17.8801358 C9.84595398,17.9720326 9.62469263,17.9733462 9.43367249,17.8837112 C8.00129233,17.2115758 6.63399867,16.3391109 5.40833761,15.3662911 L3.76626933,17.2438887 C3.49350779,17.5556162 3.01968583,17.5872043 2.70795835,17.3144428 C2.42456974,17.0664778 2.37270125,16.6523471 2.57054245,16.3448944 L2.63740429,16.2561318 L16.6374043,0.25613182 C16.9101658,-0.0555956532 17.3839878,-0.0871837842 17.6957153,0.185577755 Z M15.8641499,3.41716962 L13.1084335,6.56749 C13.3229091,6.7209897 13.4714424,6.96027628 13.5034626,7.23510886 L13.5099368,7.34699463 L13.5034626,7.4588804 C13.4478747,7.93599658 13.0411418,8.30598488 12.5478501,8.30598488 C12.2728864,8.30598488 12.024597,8.19075135 11.8491459,8.00602992 L9.25888826,10.9679829 C9.39786194,11.0026927 9.54275626,11.0207363 9.69111388,11.0207363 C10.3107067,11.0207363 10.869918,10.7059599 11.1894503,10.1773024 C11.393869,9.84032875 11.8333607,9.73128946 12.1717141,9.9338779 C12.5109143,10.1373731 12.6203973,10.5763214 12.4162706,10.9144789 C11.8785396,11.8024723 10.9284451,12.3744848 9.89874295,12.4425177 L9.69183967,12.448626 C9.18874783,12.448626 8.69911434,12.327658 8.26083171,12.1070525 L6.33169068,14.3115261 C7.160192,14.9642575 8.05930813,15.5703925 9.00045675,16.0909088 L9.34670942,16.2775068 L9.72983681,16.4720103 L10.1264369,16.2720689 C13.8448198,14.3216086 16.9668842,10.9650441 17.7424106,8.61643515 L17.8064,8.40576916 L17.8559395,8.20666206 C18.376018,5.96350958 17.4310781,4.21359047 15.8641499,3.41716962 Z M9.40920246,2.70151431 L9.60448505,2.82722235 L9.72683681,2.91101028 L9.84722025,2.82899099 C10.9678897,2.07699779 12.1443508,1.67794701 13.2737912,1.57897469 L11.6615336,3.420997 C11.1578027,3.64118699 10.6545625,3.94160044 10.1647752,4.3293142 C9.91144977,4.52984564 9.55378897,4.5309485 9.29923168,4.33198316 C5.3754052,1.26506841 0.654858704,3.65009452 1.50420948,8.00590801 L1.54738842,8.20833226 L1.6004943,8.40237281 C1.93111712,9.50976544 2.7950296,10.848761 4.00733724,12.1669298 L3.08279824,13.2250623 C1.66097486,11.6995057 0.63969958,10.1105547 0.244568124,8.75285343 L0.185520051,8.53273259 L0.13763563,8.31114242 C-0.952445397,2.87688807 4.6454296,-0.273238711 9.40920246,2.70151431 Z M6.83510342,6.38800438 C7.32839514,6.38800438 7.73512798,6.75799268 7.79071587,7.23510886 L7.79719008,7.34699463 L7.79071587,7.4588804 C7.73512798,7.93599658 7.32839514,8.30598488 6.83510342,8.30598488 C6.30386619,8.30598488 5.87301677,7.87688603 5.87301677,7.34699463 C5.87301677,6.81710323 6.30386619,6.38800438 6.83510342,6.38800438 Z" id="Combined-Shape"></path>
                    </g>
                </g>
            </g>
        </g>
    </g>
</svg>