<?xml version="1.0" encoding="UTF-8"?>
<svg width="90px" height="90px" viewBox="0 0 90 90" version="1.1" xmlns="http://www.w3.org/2000/svg" xmlns:xlink="http://www.w3.org/1999/xlink">
    <title>A8CE9315-EEFF-46CE-94B5-3800A2A8A15F</title>
    <g id="Page-1" stroke="none" stroke-width="1" fill="none" fill-rule="evenodd">
        <g id="GUIDE_PRISMSticker_202105" transform="translate(-70.000000, -3682.000000)" fill="#666666" fill-rule="nonzero">
            <g id="ic_prism" transform="translate(70.000000, 3682.000000)">
                <g id="icon_path" transform="translate(2.236910, 9.266812)">
                    <path d="M43.1360521,5.95718422 C64.4044954,-8.86347808 90.4743347,5.69426679 84.7205362,30.6343557 C81.8855671,43.5726971 64.8513354,62.1917159 44.7299567,71.9020812 L44.7299567,71.9020812 L44.0744285,72.2145682 C43.3295157,72.5696645 42.4645134,72.5714699 41.7181247,72.2194863 C35.0113695,69.0566999 28.6269598,64.8959047 22.9667668,60.2652306 L22.9667668,60.2652306 L21.9457107,59.4182297 C20.2575492,57.9983239 18.6381271,56.5382095 17.0986272,55.0525826 L17.0986272,55.0525826 L16.1846074,54.1582625 C8.19706341,46.2334686 2.51735614,37.674589 0.810327341,30.6695186 C-4.94774246,5.67279528 21.131757,-8.84025604 42.6098451,5.94972295 L42.6098451,5.94972295 L42.8790902,6.13918819 Z M79.3546478,29.4275739 C84.0542077,9.05653887 62.3245561,-2.37823582 44.6016951,11.7212601 C43.6045066,12.5145776 42.1929404,12.5189353 41.1908728,11.7317899 C23.2331001,-2.37442327 1.47074837,9.03483117 6.16195158,29.4010905 C7.28114411,33.9935568 10.5647416,39.5636853 15.3195828,45.1632237 L15.3195828,45.1632237 L16.0258354,45.9827682 C16.503565,46.5291244 16.9949762,47.0753203 17.4994254,47.6204753 L17.4994254,47.6204753 L18.2657973,48.437317 C18.653792,48.8452375 19.0489396,49.2523248 19.4509685,49.6582074 L19.4509685,49.6582074 L20.2641209,50.4682565 C20.8122319,51.0070717 21.3722545,51.543305 21.943545,52.076076 L21.943545,52.076076 L22.8088513,52.8725255 C23.5368482,53.533886 24.2819483,54.1891486 25.0428946,54.8365935 L25.0428946,54.8365935 L25.9635557,55.6096647 L26.8989464,56.3745705 C27.2131445,56.6281048 27.5297171,56.8801682 27.8485837,57.1306505 L27.8485837,57.1306505 L28.8119851,57.8772442 C29.7821076,58.6188746 30.7721519,59.345285 31.7799456,60.0535036 L31.7799456,60.0535036 L32.7935755,60.7555482 C35.8517316,62.8428296 39.0631159,64.7574689 42.3690739,66.4192263 L42.3690739,66.4192263 L42.8910902,66.6791882 L43.4586142,66.3973727 C46.0079455,65.1149874 48.4999415,63.6815114 50.9072769,62.1343805 L50.9072769,62.1343805 L51.9337291,61.464475 C52.274099,61.2389264 52.6126614,61.0111675 52.9493368,60.7813074 L52.9493368,60.7813074 L53.9536218,60.0855326 C54.7856756,59.5006492 55.605437,58.9033153 56.4116615,58.2952364 L56.4116615,58.2952364 L57.3725533,57.5604932 C57.5315925,57.4372128 57.6900702,57.3135298 57.8479766,57.189458 L57.8479766,57.189458 L58.7884789,56.4404697 C59.5663846,55.812606 60.3295084,55.1757025 61.0766057,54.5314646 L61.0766057,54.5314646 L61.96535,53.7549677 C71.0679031,45.697044 77.6296545,36.6162673 79.2772999,29.7640727 L79.2772999,29.7640727 Z M53.5412029,37.3923227 C54.8635153,38.1895793 55.2897272,39.9069282 54.4951598,41.2297954 C52.0756192,45.2453326 47.7216038,47.7744147 43.0602575,47.8925708 L42.7186585,47.8969003 C37.926844,47.8936715 33.4161022,45.3411797 30.9423596,41.2301309 C30.1450625,39.9092571 30.5719467,38.1904167 31.8923256,37.3958913 C33.1628931,36.6275531 34.7999843,36.9920439 35.6290312,38.1984557 L35.724563,38.3472477 C37.2168132,40.8264711 39.8273242,42.3024311 42.7154328,42.3024311 C45.6046133,42.3024311 48.2160867,40.8250999 49.7066265,38.3467102 C50.5040207,37.0256756 52.2205958,36.5976584 53.5412029,37.3923227 Z M30.022053,21.6095619 C32.1021412,21.6095619 33.7999655,23.24388 33.9040482,25.2995117 L33.9091048,25.4997183 L33.9040482,25.6999249 C33.7999655,27.7555566 32.1021412,29.3898748 30.022053,29.3898748 C27.8748651,29.3898748 26.1350012,27.648416 26.1350012,25.4997183 C26.1350012,23.3510206 27.8748651,21.6095619 30.022053,21.6095619 Z M55.4120383,21.6095619 C57.4921266,21.6095619 59.1899508,23.24388 59.2940335,25.2995117 L59.2990901,25.4997183 L59.2940335,25.6999249 C59.1899508,27.7555566 57.4921266,29.3898748 55.4120383,29.3898748 C53.2670357,29.3898748 51.5249865,27.6473751 51.5249865,25.4997183 C51.5249865,23.3520615 53.2670357,21.6095619 55.4120383,21.6095619 Z" id="Combined-Shape"></path>
                </g>
            </g>
        </g>
    </g>
</svg>