<?xml version="1.0" encoding="UTF-8"?>
<svg width="26px" height="25px" viewBox="0 0 26 25" version="1.1" xmlns="http://www.w3.org/2000/svg" xmlns:xlink="http://www.w3.org/1999/xlink">
    <title>A152EE26-B1CC-4AEF-B410-C5F27AEA3877</title>
    <g id="Page-1" stroke="none" stroke-width="1" fill="none" fill-rule="evenodd">
        <g id="GUIDE_PRISMSticker_202105" transform="translate(-361.000000, -4158.000000)" fill="#7A7F34" fill-rule="nonzero">
            <g id="ic_priemsticker_on_click" transform="translate(361.000000, 4158.000000)">
                <g id="icon_path" transform="translate(0.045459, 2.055717)">
                    <path d="M13.217455,1.65031561 C19.6439904,-2.58426612 27.3984702,1.81944568 25.6636649,9.30159271 C24.7925166,13.2575928 19.5534777,18.9141285 13.3961584,21.8042604 C13.1404549,21.9242829 12.8446024,21.9242912 12.5888922,21.8042832 C6.45998095,18.9279078 1.22393691,13.3020409 0.247135753,9.31347914 C-1.50787451,1.73259676 6.43552998,-2.6712328 12.9636612,1.78731479 L12.9636612,1.78731479 L12.9885409,1.80428323 Z M23.8104418,8.88272127 C25.1906797,2.92961272 18.8121146,-0.410274326 13.5821365,3.72975634 C13.2383378,4.00190615 12.752941,4.0034029 12.4074704,3.73337849 C7.10688009,-0.409633066 0.717999908,2.9231736 2.09538568,8.87322155 C2.88582688,12.1005612 7.34919082,16.9974157 12.6803872,19.7327214 L12.6803872,19.7327214 L12.9915409,19.8882832 L13.3067953,19.7315365 C18.5348098,17.0478559 22.90913,12.291771 23.7580548,9.09801381 L23.7580548,9.09801381 Z M16.213414,11.2705918 C16.6340665,11.5229524 16.7698044,12.0671643 16.51676,12.4863594 C15.8036816,13.6639165 14.5377164,14.4182139 13.1700246,14.4943517 L12.9412114,14.4997545 C11.4863546,14.4997545 10.1169619,13.728712 9.36574418,12.4864937 C9.11182361,12.067919 9.2477891,11.5231805 9.66781612,11.2716908 C10.0876677,11.0190611 10.6334232,11.1537908 10.8855934,11.5727822 C11.3241334,12.2977473 12.0911158,12.729235 12.9402436,12.729235 C13.7290112,12.729235 14.4469234,12.3568406 14.896203,11.723343 L14.9950243,11.572567 C15.248567,11.154615 15.7937908,11.0193433 16.213414,11.2705918 Z M9.13222971,6.44428323 C9.76181529,6.44428323 10.2797795,6.92095366 10.3420657,7.53230545 L10.3483452,7.65627023 L10.3420657,7.78023501 C10.2797795,8.3915868 9.76181529,8.86825723 9.13222971,8.86825723 C8.46067176,8.86825723 7.91611418,8.32591221 7.91611418,7.65627023 C7.91611418,6.98662825 8.46067176,6.44428323 9.13222971,6.44428323 Z M16.7492253,6.44428323 C17.3788109,6.44428323 17.8967751,6.92095366 17.9590613,7.53230545 L17.9653408,7.65627023 L17.9590613,7.78023501 C17.8967751,8.3915868 17.3788109,8.86825723 16.7492253,8.86825723 C16.0783301,8.86825723 15.5331098,8.32560913 15.5331098,7.65627023 C15.5331098,6.98693133 16.0783301,6.44428323 16.7492253,6.44428323 Z" id="Combined-Shape"></path>
                </g>
            </g>
        </g>
    </g>
</svg>