<?xml version="1.0" encoding="UTF-8"?>
<svg width="30px" height="30px" viewBox="0 0 30 30" version="1.1" xmlns="http://www.w3.org/2000/svg" xmlns:xlink="http://www.w3.org/1999/xlink">
    <title>94EC9AC3-36F1-45CA-94F0-0B2B3E67B79D</title>
    <g id="Page-1" stroke="none" stroke-width="1" fill="none" fill-rule="evenodd">
        <g id="GUIDE_PRISMSticker_202105" transform="translate(-1390.000000, -4585.000000)">
            <g id="Group-3" transform="translate(70.000000, 4385.000000)">
                <g id="icon-source-prismsticker-select-disable" transform="translate(1320.000000, 200.000000)">
                    <rect id="Rectangle" x="0" y="0" width="30" height="30"></rect>
                    <g id="icon_path" transform="translate(5.298163, 6.804240)" fill="#7A7F34" fill-rule="nonzero">
                        <path d="M9.84722025,1.2747411 C14.6696352,-1.96120251 20.5251501,1.33834054 19.2214723,6.96105429 C18.5897904,9.82960568 14.8519137,13.9397828 10.4029245,16.1483125 L10.4029245,16.1483125 L10.0358963,16.3258859 C9.84595398,16.4177827 9.62469263,16.4190964 9.43367249,16.3294614 C4.83961622,14.1737292 0.915085157,9.95726776 0.185520051,6.9784827 L0.185520051,6.9784827 L0.13763563,6.75689253 C-0.967378013,1.24819634 4.80005105,-1.91336482 9.60448505,1.27297247 L9.60448505,1.27297247 L9.72683681,1.35676039 Z M17.8559395,6.65241218 C18.8939528,2.17535331 14.0960224,-0.336895998 10.1647752,2.77506432 C9.91144977,2.97559575 9.55378897,2.97669862 9.29923168,2.77773327 C5.31503864,-0.336364779 0.509422547,2.17052045 1.54738842,6.65408237 L1.54738842,6.65408237 L1.6004943,6.84812293 C2.31481007,9.24066206 5.51843028,12.7142837 9.34670942,14.7232569 L9.34670942,14.7232569 L9.72983681,14.9177604 L10.1264369,14.717819 C13.9574981,12.7082539 17.1555526,9.20607484 17.8064,6.85151928 L17.8064,6.85151928 Z M12.1717141,8.37962801 C12.5109143,8.58312318 12.6203973,9.02207151 12.4162706,9.36022905 C11.8785396,10.2482225 10.9284451,10.8202349 9.89874295,10.8882678 L9.69183967,10.8943761 C8.583208,10.8943761 7.53993032,10.306954 6.96749021,9.3603634 C6.76265026,9.02269553 6.87232923,8.58327252 7.21101454,8.38048599 C7.51875695,8.19531372 7.91041076,8.26826022 8.13183997,8.53687548 L8.19290786,8.62326767 C8.51274647,9.15200363 9.07174915,9.46648641 9.69111388,9.46648641 C10.2590739,9.46648641 10.7762968,9.20198677 11.1046776,8.75070261 L11.1894503,8.62305247 C11.393869,8.28607886 11.8333607,8.17703958 12.1717141,8.37962801 Z M6.83510342,4.83375449 C7.32839514,4.83375449 7.73512798,5.20374279 7.79071587,5.68085898 L7.79719008,5.79274474 L7.79071587,5.90463051 C7.73512798,6.3817467 7.32839514,6.75173499 6.83510342,6.75173499 C6.30386619,6.75173499 5.87301677,6.32263614 5.87301677,5.79274474 C5.87301677,5.26285335 6.30386619,4.83375449 6.83510342,4.83375449 Z M12.5478501,4.83375449 C13.0411418,4.83375449 13.4478747,5.20374279 13.5034626,5.68085898 L13.5099368,5.79274474 L13.5034626,5.90463051 C13.4478747,6.3817467 13.0411418,6.75173499 12.5478501,6.75173499 C12.0171173,6.75173499 11.5857635,6.32241622 11.5857635,5.79274474 C11.5857635,5.26307326 12.0171173,4.83375449 12.5478501,4.83375449 Z" id="Combined-Shape"></path>
                    </g>
                </g>
            </g>
        </g>
    </g>
</svg>