<svg width="98" height="44" viewBox="0 0 98 44" fill="none" xmlns="http://www.w3.org/2000/svg">
<path opacity="0.2" fill-rule="evenodd" clip-rule="evenodd" d="M4 1C1.79086 1 0 2.79086 0 5V13C0 13.2949 0.0319214 13.5824 0.0924978 13.8592C0.031645 14.2304 0 14.6115 0 15V37C0 40.866 3.13401 44 7 44H91C94.866 44 98 40.866 98 37V15C98 11.134 94.866 8 91 8H45V5C45 2.79086 43.2091 1 41 1H4ZM2 16.4649C2.58835 16.8052 3.27143 17 4 17H41C43.2091 17 45 15.2091 45 13V10H91C93.7614 10 96 12.2386 96 15V37C96 39.7614 93.7614 42 91 42H7C4.23858 42 2 39.7614 2 37V16.4649Z" fill="white"/>
<g opacity="0.3">
<path fill-rule="evenodd" clip-rule="evenodd" d="M9.05202 12.9121C7.8988 12.9121 6.81482 12.4629 5.99956 11.6476C5.18344 10.8307 4.7334 9.74537 4.7334 8.58999C4.7334 7.43547 5.18344 6.34932 5.99956 5.5332C6.81612 4.71621 7.90226 4.2666 9.05722 4.2666C10.2117 4.2666 11.2979 4.71621 12.1149 5.5332C13.5147 6.93437 13.7843 9.06772 12.7908 10.7662L13.3732 12.5321C13.407 12.6351 13.3806 12.7485 13.3044 12.8255C13.2274 12.9026 13.114 12.9302 13.0115 12.8969L11.2338 12.3231C10.5731 12.7087 9.82141 12.9121 9.05202 12.9121ZM11.7565 7.82864L11.7532 7.8167C11.7134 7.71702 11.6251 7.64984 11.5251 7.64387H9.86348L9.36472 6.00743C9.33096 5.89264 9.22567 5.81251 9.11394 5.81327H9.10241C8.98594 5.82026 8.89073 5.89911 8.85904 6.00223L8.35044 7.64387H6.70405C6.59196 7.64565 6.48728 7.70914 6.45412 7.81772C6.44295 7.84895 6.43943 7.88324 6.44016 7.90673V7.92133C6.44671 8.00616 6.48545 8.08413 6.55043 8.13149L7.87912 9.1419L7.36275 10.7738C7.35328 10.8039 7.34903 10.8351 7.34976 10.8611C7.3483 10.9455 7.38886 11.0321 7.45699 11.0841C7.5035 11.1196 7.55937 11.1377 7.60989 11.1377C7.66781 11.1389 7.72283 11.1213 7.76934 11.0865L9.10095 10.0759L10.3118 11.0055L10.4264 11.0933C10.4686 11.1268 10.5187 11.1432 10.5635 11.1466H10.5855H10.5876C10.6374 11.1466 10.6909 11.1282 10.7345 11.0975C10.8078 11.042 10.8474 10.9583 10.8483 10.8723V10.8564L10.8469 10.8502C10.8455 10.8284 10.8415 10.8083 10.8355 10.7865L10.3274 9.14952L11.6614 8.14686C11.7316 8.09327 11.7724 8.00946 11.7734 7.92387C11.7724 7.89365 11.7698 7.86406 11.7565 7.82864Z" fill="white"/>
</g>
<rect opacity="0.3" x="18" y="6" width="22" height="5" rx="2" fill="white"/>
<path opacity="0.8" d="M73.9814 31.1162C73.3115 31.1162 72.71 30.9727 72.1768 30.6787C71.6436 30.3848 71.2197 29.9678 70.9189 29.4277C70.6182 28.8945 70.4678 28.2793 70.4678 27.5889C70.4678 26.8984 70.6182 26.2832 70.9258 25.7432C71.2266 25.21 71.6572 24.793 72.2041 24.4922C72.751 24.1982 73.373 24.0479 74.0703 24.0479C74.6309 24.0479 75.1709 24.1641 75.6904 24.3896C76.21 24.6152 76.6338 24.9365 76.9756 25.3604L75.7383 26.4268C75.3145 25.9414 74.7881 25.6953 74.1455 25.6953C73.8721 25.6953 73.626 25.7432 73.4004 25.8389C73.168 25.9346 72.9766 26.0576 72.8193 26.2217C72.6621 26.3857 72.5391 26.584 72.457 26.8164C72.3682 27.0488 72.3271 27.3018 72.3271 27.5752C72.3271 28.1357 72.4912 28.5938 72.833 28.9424C73.1748 29.2979 73.6123 29.4688 74.1592 29.4688C74.4941 29.4688 74.7949 29.4072 75.0684 29.2773C75.3418 29.1475 75.5674 28.9834 75.7451 28.7783L77.0029 29.8857C76.6885 30.2549 76.2646 30.5488 75.7451 30.7744C75.2256 31.0068 74.6377 31.1162 73.9814 31.1162Z" fill="white"/>
<path opacity="0.8" d="M67.9863 23.2002C67.7812 23.2002 67.5898 23.1523 67.4121 23.0498C67.2344 22.9541 67.0977 22.8174 67.002 22.6465C66.8994 22.4756 66.8516 22.2842 66.8516 22.0791C66.8516 21.7783 66.9609 21.5117 67.1797 21.293C67.3984 21.0742 67.6719 20.9648 67.9863 20.9648C68.2939 20.9648 68.5605 21.0742 68.7861 21.293C69.0049 21.5117 69.1211 21.7783 69.1211 22.0791C69.1211 22.3936 69.0049 22.6533 68.7861 22.8721C68.5605 23.0908 68.2939 23.2002 67.9863 23.2002ZM67.0703 31V24.1641H68.9023V31H67.0703Z" fill="white"/>
<path opacity="0.8" d="M62.8115 24.0479C63.5771 24.0479 64.165 24.2939 64.5889 24.7793C65.0127 25.2715 65.2246 26.0166 65.2246 27.0283V31.0068H63.3926V27.4727C63.3926 26.29 62.9893 25.6953 62.1963 25.6953C61.9365 25.6953 61.6973 25.7705 61.4922 25.9072C61.2803 26.0508 61.1094 26.2695 60.9863 26.5566C60.8633 26.8438 60.8018 27.1855 60.8018 27.582V31.0068H58.9697V27.4727C58.9697 26.29 58.5664 25.6953 57.7598 25.6953C57.4795 25.6953 57.2334 25.7705 57.0215 25.9072C56.8027 26.0508 56.6318 26.2695 56.5088 26.5566C56.3789 26.8438 56.3174 27.1855 56.3174 27.582V31H54.4854V24.1641H56.3174V25.0664H56.3379C56.6045 24.7383 56.9189 24.4922 57.2744 24.3145C57.6299 24.1367 57.999 24.0479 58.3818 24.0479C59.332 24.0479 60.0088 24.417 60.4121 25.1484H60.4326C60.7061 24.793 61.0479 24.5264 61.458 24.335C61.8682 24.1436 62.3193 24.0479 62.8115 24.0479Z" fill="white"/>
<path opacity="0.8" d="M50.8623 24.1641H52.6943V31H50.9512V30.1729H50.917C50.4248 30.8018 49.748 31.1162 48.873 31.1162C48.4014 31.1162 47.9639 31.0342 47.5605 30.8633C47.1572 30.6992 46.8086 30.46 46.5215 30.1592C46.2344 29.8584 46.0088 29.4824 45.8447 29.0449C45.6807 28.6074 45.5986 28.1221 45.5986 27.6025C45.5986 27.0967 45.6807 26.6182 45.8447 26.1738C46.0088 25.7363 46.2275 25.3604 46.5146 25.0459C46.8018 24.7383 47.1436 24.4922 47.54 24.3145C47.9365 24.1367 48.3672 24.0479 48.8184 24.0479C49.6523 24.0479 50.3223 24.3486 50.835 24.9365H50.8623V24.1641ZM49.208 29.4756C49.6934 29.4756 50.1035 29.3047 50.4385 28.9561C50.7666 28.6143 50.9375 28.1631 50.9375 27.6094C50.9375 27.0625 50.7734 26.6113 50.4453 26.2422C50.1172 25.8799 49.707 25.6953 49.2148 25.6953C48.709 25.6953 48.292 25.873 47.957 26.2217C47.6221 26.5771 47.458 27.0352 47.458 27.6094C47.458 28.1631 47.6152 28.6143 47.9434 28.9561C48.2715 29.3047 48.6885 29.4756 49.208 29.4756Z" fill="white"/>
<path opacity="0.8" d="M41.75 24.0479C42.126 24.0479 42.4609 24.1025 42.7549 24.2119C43.0488 24.3213 43.3086 24.4854 43.5342 24.7041C43.7598 24.9297 43.9307 25.2305 44.0537 25.6064C44.1699 25.9893 44.2314 26.4336 44.2314 26.9463V31.0068H42.3994V27.4043C42.3994 26.7754 42.29 26.3379 42.0781 26.0781C41.8594 25.8252 41.5312 25.6953 41.0869 25.6953C40.6084 25.6953 40.2324 25.8594 39.9521 26.1807C39.6719 26.5088 39.5352 26.9668 39.5352 27.5615V31H37.7031V24.1641H39.5352V25.0459H39.5557C39.8291 24.7246 40.1572 24.4785 40.54 24.3076C40.9229 24.1367 41.3262 24.0479 41.75 24.0479Z" fill="white"/>
<path opacity="0.8" d="M34.6338 24.1641H36.5342L32.8496 33.7686H30.9766L32.1934 30.5762L29.459 24.1641H31.373L33.0479 28.3955H33.0684L34.6338 24.1641Z" fill="white"/>
<path opacity="0.8" d="M20.0938 31V21.0537H23.3818C24.1543 21.0537 24.8652 21.1768 25.5078 21.4229C26.1504 21.6689 26.6973 22.0107 27.1416 22.4482C27.5859 22.8857 27.9277 23.4121 28.1738 24.0273C28.4199 24.6426 28.543 25.3193 28.543 26.0439C28.543 26.7754 28.4199 27.4453 28.1875 28.0537C27.9551 28.6689 27.6201 29.1885 27.1826 29.626C26.7451 30.0635 26.2119 30.3984 25.5693 30.6377C24.9268 30.8838 24.209 31 23.4229 31H20.0938ZM22.0352 29.2432H23.2998C23.7715 29.2432 24.209 29.1611 24.6123 28.9971C25.0088 28.833 25.3506 28.6143 25.624 28.3271C25.8975 28.04 26.1162 27.7051 26.2666 27.3086C26.417 26.9189 26.499 26.4951 26.499 26.0439C26.499 25.4287 26.3623 24.875 26.1025 24.3828C25.8428 23.8906 25.4736 23.5078 25.0088 23.2344C24.5371 22.9609 24.0107 22.8174 23.4229 22.8174H22.0352V29.2432Z" fill="white"/>
</svg>
