<svg width="98" height="43" viewBox="0 0 98 43" fill="none" xmlns="http://www.w3.org/2000/svg">
<rect opacity="0.2" y="6" width="98" height="31" rx="7" fill="white"/>
<g opacity="0.8">
<path fill-rule="evenodd" clip-rule="evenodd" d="M16.0908 28.5964C14.0727 28.5964 12.1757 27.8103 10.749 26.3836C9.32077 24.9539 8.5332 23.0546 8.5332 21.0327C8.5332 19.0123 9.32077 17.1116 10.749 15.6833C12.178 14.2536 14.0787 13.4668 16.0999 13.4668C18.1203 13.4668 20.021 14.2536 21.4508 15.6833C23.9006 18.1354 24.3723 21.8687 22.6336 24.841L23.6529 27.9315C23.712 28.1117 23.6658 28.3101 23.5325 28.4449C23.3977 28.5797 23.1993 28.6282 23.0199 28.5699L19.909 27.5657C18.7526 28.2405 17.4372 28.5964 16.0908 28.5964ZM20.8237 19.7004L20.8179 19.6795C20.7482 19.505 20.5937 19.3875 20.4186 19.377H17.5108L16.638 16.5133C16.5789 16.3124 16.3947 16.1721 16.1992 16.1735H16.179C15.9752 16.1857 15.8085 16.3237 15.7531 16.5041L14.863 19.377H11.9818C11.7857 19.3801 11.6025 19.4912 11.5445 19.6812C11.5249 19.7359 11.5188 19.7959 11.52 19.837V19.8626C11.5315 20.011 11.5993 20.1475 11.713 20.2304L14.0382 21.9986L13.1346 24.8544C13.118 24.907 13.1106 24.9617 13.1118 25.0072C13.1093 25.1548 13.1803 25.3064 13.2995 25.3975C13.3809 25.4595 13.4786 25.4912 13.5671 25.4912C13.6684 25.4932 13.7647 25.4626 13.8461 25.4017L16.1764 23.633L18.2955 25.2599L18.4959 25.4135C18.5699 25.4721 18.6574 25.5008 18.7358 25.5068H18.7743H18.7781C18.8653 25.5068 18.9588 25.4746 19.0351 25.4208C19.1634 25.3237 19.2327 25.1772 19.2342 25.0268V24.999L19.2319 24.9881C19.2293 24.9499 19.2223 24.9148 19.2119 24.8766L18.3227 22.0119L20.6573 20.2572C20.7801 20.1635 20.8515 20.0168 20.8532 19.867C20.8515 19.8141 20.8468 19.7624 20.8237 19.7004Z" fill="white"/>
</g>
<path opacity="0.8" d="M51.9502 26.5L50.5693 24.5381H50.5352L49.1475 26.5H47.1582L49.5098 23.0068L47.1787 19.6641H49.2637L50.5283 21.6191H50.5625L51.8408 19.6641H53.9121L51.5811 23L53.9531 26.5H51.9502Z" fill="white"/>
<path opacity="0.8" d="M43.2139 26.6162C42.7832 26.6162 42.3799 26.5615 42.0039 26.4453C41.6211 26.3359 41.2861 26.1719 40.9922 25.96C40.6982 25.7549 40.4453 25.502 40.2334 25.2148C40.0146 24.9277 39.8506 24.5996 39.7412 24.2373C39.6318 23.8818 39.5771 23.499 39.5771 23.0889C39.5771 22.583 39.6592 22.1113 39.8369 21.6738C40.0146 21.2363 40.2607 20.8672 40.5752 20.5527C40.8896 20.2383 41.2725 19.9922 41.7305 19.8145C42.1816 19.6367 42.6807 19.5479 43.2139 19.5479C43.7334 19.5479 44.2256 19.6367 44.6768 19.8076C45.1279 19.9854 45.5107 20.2246 45.832 20.5322C46.1465 20.8398 46.3994 21.2158 46.5771 21.6533C46.7549 22.0908 46.8506 22.5693 46.8506 23.0889C46.8506 23.7793 46.6934 24.3945 46.3857 24.9277C46.0713 25.4678 45.6406 25.8848 45.0938 26.1787C44.54 26.4727 43.9111 26.6162 43.2139 26.6162ZM43.2139 24.9756C43.7129 24.9756 44.1367 24.7979 44.4785 24.4424C44.8203 24.0869 44.9912 23.6357 44.9912 23.0889C44.9912 22.5352 44.8203 22.084 44.4854 21.7285C44.1436 21.373 43.7197 21.1953 43.2139 21.1953C42.6807 21.1953 42.25 21.3799 41.9219 21.7354C41.5938 22.0908 41.4297 22.542 41.4297 23.0889C41.4297 23.6221 41.5938 24.0732 41.9287 24.4355C42.2637 24.7979 42.6943 24.9756 43.2139 24.9756Z" fill="white"/>
<path opacity="0.8" d="M36.4395 21.2295C37.0752 21.3936 37.5674 21.6875 37.916 22.125C38.2578 22.5625 38.4355 23.1025 38.4355 23.752C38.4355 24.1553 38.3672 24.5244 38.2305 24.8525C38.0938 25.1875 37.8955 25.4746 37.6357 25.7207C37.376 25.9668 37.0342 26.1582 36.624 26.2949C36.2139 26.4316 35.7422 26.5 35.209 26.5H31.0938V16.5537H34.6826C35.7354 16.5537 36.542 16.7656 37.0957 17.1758C37.6494 17.5928 37.9297 18.1943 37.9297 18.9805C37.9297 19.2949 37.8818 19.5889 37.7861 19.8623C37.6904 20.1357 37.5264 20.3955 37.3008 20.6416C37.0684 20.8877 36.7812 21.0723 36.4395 21.2021V21.2295ZM33.0283 18.2969V20.6279H34.4365C34.71 20.6279 34.9561 20.5938 35.1748 20.5117C35.3936 20.4297 35.5713 20.2998 35.7148 20.1221C35.8584 19.9443 35.9336 19.7188 35.9336 19.4521C35.9336 19.2197 35.8789 19.0146 35.7695 18.8438C35.6602 18.6797 35.4824 18.543 35.2363 18.4473C34.9902 18.3516 34.6758 18.2969 34.3066 18.2969H33.0283ZM34.6143 24.7705C34.9697 24.7705 35.2773 24.7295 35.5371 24.6338C35.7969 24.5381 36.0088 24.4014 36.1592 24.21C36.3096 24.0186 36.3848 23.7861 36.3848 23.5059C36.3848 23.1094 36.2344 22.7949 35.9336 22.5625C35.6328 22.3301 35.2021 22.2139 34.6348 22.2139H33.0283V24.7705H34.6143Z" fill="white"/>
</svg>
