<svg width="98" height="43" viewBox="0 0 98 43" fill="none" xmlns="http://www.w3.org/2000/svg">
<g opacity="0.8">
<path fill-rule="evenodd" clip-rule="evenodd" d="M27.0908 29.5964C25.0727 29.5964 23.1757 28.8103 21.749 27.3836C20.3208 25.9539 19.5332 24.0546 19.5332 22.0327C19.5332 20.0123 20.3208 18.1116 21.749 16.6833C23.178 15.2536 25.0787 14.4668 27.0999 14.4668C29.1203 14.4668 31.021 15.2536 32.4508 16.6833C34.9006 19.1354 35.3723 22.8687 33.6336 25.841L34.6529 28.9315C34.712 29.1117 34.6658 29.3101 34.5325 29.4449C34.3977 29.5797 34.1993 29.6282 34.0199 29.5699L30.909 28.5657C29.7526 29.2405 28.4372 29.5964 27.0908 29.5964ZM31.8237 20.7004L31.8179 20.6795C31.7482 20.505 31.5937 20.3875 31.4186 20.377H28.5108L27.638 17.5133C27.5789 17.3124 27.3947 17.1721 27.1992 17.1735H27.179C26.9752 17.1857 26.8085 17.3237 26.7531 17.5041L25.863 20.377H22.9818C22.7857 20.3801 22.6025 20.4912 22.5445 20.6812C22.5249 20.7359 22.5188 20.7959 22.52 20.837V20.8626C22.5315 21.011 22.5993 21.1475 22.713 21.2304L25.0382 22.9986L24.1346 25.8544C24.118 25.907 24.1106 25.9617 24.1118 26.0072C24.1093 26.1548 24.1803 26.3064 24.2995 26.3975C24.3809 26.4595 24.4786 26.4912 24.5671 26.4912C24.6684 26.4932 24.7647 26.4626 24.8461 26.4017L27.1764 24.633L29.2955 26.2599L29.4959 26.4135C29.5699 26.4721 29.6574 26.5008 29.7358 26.5068H29.7743H29.7781C29.8653 26.5068 29.9588 26.4746 30.0351 26.4208C30.1634 26.3237 30.2327 26.1772 30.2342 26.0268V25.999L30.2319 25.9881C30.2293 25.9499 30.2223 25.9148 30.2119 25.8766L29.3227 23.0119L31.6573 21.2572C31.7801 21.1635 31.8515 21.0168 31.8532 20.867C31.8515 20.8141 31.8468 20.7624 31.8237 20.7004Z" fill="white"/>
</g>
<path opacity="0.8" d="M68.2461 19.5762V21.0938H66.8516V24.7168C66.8516 25.3047 67.1387 25.4551 67.5488 25.4688C67.7539 25.4688 68.1094 25.4551 68.3555 25.4277V27.0273C68.1367 27.0684 67.7812 27.0957 67.2754 27.0957C65.8125 27.0957 64.8145 26.4395 64.8281 25.0039V21.0938H63.8027V19.5762H64.8281V17.7988H66.8516V19.5762H68.2461Z" fill="white"/>
<path opacity="0.8" d="M58.3066 19.5762L59.6875 22.1875L61.0957 19.5762H63.1875L61.0137 23.2812L63.2422 27H61.1641L59.6875 24.416L58.2383 27H56.1328L58.3477 23.2812L56.2148 19.5762H58.3066Z" fill="white"/>
<path opacity="0.8" d="M52.0723 27.1504C49.8027 27.1504 48.4082 25.6738 48.4082 23.3223C48.4082 21.0254 49.8164 19.4805 51.9902 19.4805C53.9453 19.4805 55.4766 20.7109 55.4766 23.2402V23.8145H50.4043C50.4043 24.9355 51.0742 25.6328 52.1133 25.6328C52.7969 25.6328 53.2891 25.332 53.4941 24.8809H55.4219C55.1348 26.248 53.9043 27.1504 52.0723 27.1504ZM50.4043 22.543H53.5625C53.5625 21.6406 52.9336 20.998 52.0312 20.998C51.1016 20.998 50.4385 21.6885 50.4043 22.543Z" fill="white"/>
<path opacity="0.8" d="M40.4512 18.7969V17.1016H48.5586V18.7969H45.5234V27H43.4863V18.7969H40.4512Z" fill="white"/>
</svg>
