<svg width="98" height="43" viewBox="0 0 98 43" fill="none" xmlns="http://www.w3.org/2000/svg">
<rect opacity="0.2" x="5" y="6" width="88" height="31" rx="15.5" fill="#D9D9D9"/>
<g opacity="0.8">
<path fill-rule="evenodd" clip-rule="evenodd" d="M22.0908 28.5964C20.0727 28.5964 18.1757 27.8103 16.749 26.3836C15.3208 24.9539 14.5332 23.0546 14.5332 21.0327C14.5332 19.0123 15.3208 17.1116 16.749 15.6833C18.178 14.2536 20.0787 13.4668 22.0999 13.4668C24.1203 13.4668 26.021 14.2536 27.4508 15.6833C29.9006 18.1354 30.3723 21.8687 28.6336 24.841L29.6529 27.9315C29.712 28.1117 29.6658 28.3101 29.5325 28.4449C29.3977 28.5797 29.1993 28.6282 29.0199 28.5699L25.909 27.5657C24.7526 28.2405 23.4372 28.5964 22.0908 28.5964ZM26.8237 19.7004L26.8179 19.6795C26.7482 19.505 26.5937 19.3875 26.4186 19.377H23.5108L22.638 16.5133C22.5789 16.3124 22.3947 16.1721 22.1992 16.1735H22.179C21.9752 16.1857 21.8085 16.3237 21.7531 16.5041L20.863 19.377H17.9818C17.7857 19.3801 17.6025 19.4912 17.5445 19.6812C17.5249 19.7359 17.5188 19.7959 17.52 19.837V19.8626C17.5315 20.011 17.5993 20.1475 17.713 20.2304L20.0382 21.9986L19.1346 24.8544C19.118 24.907 19.1106 24.9617 19.1118 25.0072C19.1093 25.1548 19.1803 25.3064 19.2995 25.3975C19.3809 25.4595 19.4786 25.4912 19.5671 25.4912C19.6684 25.4932 19.7647 25.4626 19.8461 25.4017L22.1764 23.633L24.2955 25.2599L24.4959 25.4135C24.5699 25.4721 24.6574 25.5008 24.7358 25.5068H24.7743H24.7781C24.8653 25.5068 24.9588 25.4746 25.0351 25.4208C25.1634 25.3237 25.2327 25.1772 25.2342 25.0268V24.999L25.2319 24.9881C25.2293 24.9499 25.2223 24.9148 25.2119 24.8766L24.3227 22.0119L26.6573 20.2572C26.7801 20.1635 26.8515 20.0168 26.8532 19.867C26.8515 19.8141 26.8468 19.7624 26.8237 19.7004Z" fill="white"/>
</g>
<path opacity="0.8" d="M80.4727 23.0205C80.4727 23.3486 80.4521 23.5674 80.4248 23.6768H75.6328C75.7422 24.0869 75.9473 24.4014 76.2549 24.6338C76.5625 24.8662 76.9385 24.9893 77.376 24.9893C78.0322 24.9961 78.5791 24.7363 79.0098 24.2168L80.1992 25.3242C79.8848 25.7207 79.4814 26.0352 78.9824 26.2676C78.4766 26.5 77.9023 26.6162 77.2461 26.6162C76.5762 26.6162 75.9814 26.4727 75.4482 26.1855C74.915 25.8984 74.4912 25.4814 74.1836 24.9346C73.876 24.3945 73.7256 23.7725 73.7256 23.0752C73.7256 22.5693 73.8076 22.0908 73.9854 21.6533C74.1562 21.2158 74.3887 20.8398 74.6895 20.5322C74.9902 20.2246 75.3457 19.9854 75.7695 19.8076C76.1865 19.6367 76.6377 19.5479 77.1162 19.5479C77.7725 19.5479 78.3604 19.6982 78.873 19.999C79.3789 20.2998 79.7754 20.71 80.0557 21.2363C80.3291 21.7627 80.4727 22.3574 80.4727 23.0205ZM77.1777 21.1611C76.7949 21.1611 76.4736 21.2637 76.2002 21.4688C75.9268 21.6738 75.7422 21.9746 75.6396 22.3574H78.6543C78.5586 21.9883 78.3809 21.6943 78.1348 21.4824C77.8818 21.2705 77.5605 21.1611 77.1777 21.1611Z" fill="white"/>
<path opacity="0.8" d="M70.3281 26.5V16.1914H72.1602V26.5H70.3281Z" fill="white"/>
<path opacity="0.8" d="M65.5361 19.5479C65.9873 19.5479 66.4111 19.6367 66.8076 19.8145C67.2041 19.9922 67.5459 20.2383 67.833 20.5459C68.1201 20.8604 68.3457 21.2363 68.5098 21.6738C68.6738 22.1182 68.7559 22.5967 68.7559 23.1025C68.7559 23.6221 68.6738 24.1074 68.5098 24.5449C68.3457 24.9824 68.1133 25.3584 67.8262 25.6592C67.5391 25.96 67.1904 26.1992 66.7871 26.3633C66.3838 26.5342 65.9463 26.6162 65.4814 26.6162C64.5791 26.6162 63.8818 26.3018 63.3896 25.6729H63.3555V26.5H61.6055V16.1914H63.4375V20.4365H63.4717C63.9844 19.8486 64.6748 19.5479 65.5361 19.5479ZM65.1465 24.9756C65.6592 24.9756 66.0762 24.8047 66.4043 24.4561C66.7324 24.1143 66.8965 23.6631 66.8965 23.1094C66.8965 22.5352 66.7256 22.0771 66.3975 21.7217C66.0625 21.373 65.6455 21.1953 65.1465 21.1953C64.6201 21.1953 64.1895 21.3799 63.8545 21.7422C63.5127 22.1045 63.3486 22.5625 63.3486 23.1094C63.3486 23.6631 63.5195 24.1143 63.8613 24.4561C64.2031 24.8047 64.6338 24.9756 65.1465 24.9756Z" fill="white"/>
<path opacity="0.8" d="M56.8955 19.5479C57.3467 19.5479 57.7705 19.6367 58.167 19.8145C58.5635 19.9922 58.9053 20.2383 59.1924 20.5459C59.4795 20.8604 59.7051 21.2363 59.8691 21.6738C60.0332 22.1182 60.1152 22.5967 60.1152 23.1025C60.1152 23.6221 60.0332 24.1074 59.8691 24.5449C59.7051 24.9824 59.4727 25.3584 59.1855 25.6592C58.8984 25.96 58.5498 26.1992 58.1465 26.3633C57.7432 26.5342 57.3057 26.6162 56.8408 26.6162C55.9385 26.6162 55.2412 26.3018 54.749 25.6729H54.7148V26.5H52.9648V16.1914H54.7969V20.4365H54.8311C55.3438 19.8486 56.0342 19.5479 56.8955 19.5479ZM56.5059 24.9756C57.0186 24.9756 57.4355 24.8047 57.7637 24.4561C58.0918 24.1143 58.2559 23.6631 58.2559 23.1094C58.2559 22.5352 58.085 22.0771 57.7568 21.7217C57.4219 21.373 57.0049 21.1953 56.5059 21.1953C55.9795 21.1953 55.5488 21.3799 55.2139 21.7422C54.8721 22.1045 54.708 22.5625 54.708 23.1094C54.708 23.6631 54.8789 24.1143 55.2207 24.4561C55.5625 24.8047 55.9932 24.9756 56.5059 24.9756Z" fill="white"/>
<path opacity="0.8" d="M49.335 19.6641H51.167V26.5H49.335V25.666H49.3076C49.041 25.9805 48.7334 26.2129 48.3848 26.377C48.0361 26.541 47.667 26.6162 47.2773 26.6162C46.8945 26.6162 46.5527 26.5684 46.2588 26.4658C45.958 26.3633 45.6982 26.1992 45.4658 25.9805C45.2334 25.7617 45.0625 25.4678 44.9395 25.0986C44.8164 24.7295 44.7617 24.292 44.7617 23.7793V19.6641H46.5938V23.3008C46.5938 23.916 46.6826 24.3535 46.874 24.5996C47.0654 24.8457 47.3799 24.9688 47.8174 24.9688C48.2412 24.9688 48.6035 24.7979 48.8975 24.4492C49.1846 24.1074 49.335 23.6152 49.335 22.9795V19.6641Z" fill="white"/>
<path opacity="0.8" d="M41.4395 21.2295C42.0752 21.3936 42.5674 21.6875 42.916 22.125C43.2578 22.5625 43.4355 23.1025 43.4355 23.752C43.4355 24.1553 43.3672 24.5244 43.2305 24.8525C43.0938 25.1875 42.8955 25.4746 42.6357 25.7207C42.376 25.9668 42.0342 26.1582 41.624 26.2949C41.2139 26.4316 40.7422 26.5 40.209 26.5H36.0938V16.5537H39.6826C40.7354 16.5537 41.542 16.7656 42.0957 17.1758C42.6494 17.5928 42.9297 18.1943 42.9297 18.9805C42.9297 19.2949 42.8818 19.5889 42.7861 19.8623C42.6904 20.1357 42.5264 20.3955 42.3008 20.6416C42.0684 20.8877 41.7812 21.0723 41.4395 21.2021V21.2295ZM38.0283 18.2969V20.6279H39.4365C39.71 20.6279 39.9561 20.5938 40.1748 20.5117C40.3936 20.4297 40.5713 20.2998 40.7148 20.1221C40.8584 19.9443 40.9336 19.7188 40.9336 19.4521C40.9336 19.2197 40.8789 19.0146 40.7695 18.8438C40.6602 18.6797 40.4824 18.543 40.2363 18.4473C39.9902 18.3516 39.6758 18.2969 39.3066 18.2969H38.0283ZM39.6143 24.7705C39.9697 24.7705 40.2773 24.7295 40.5371 24.6338C40.7969 24.5381 41.0088 24.4014 41.1592 24.21C41.3096 24.0186 41.3848 23.7861 41.3848 23.5059C41.3848 23.1094 41.2344 22.7949 40.9336 22.5625C40.6328 22.3301 40.2021 22.2139 39.6348 22.2139H38.0283V24.7705H39.6143Z" fill="white"/>
</svg>
