<svg width="98" height="43" viewBox="0 0 98 43" fill="none" xmlns="http://www.w3.org/2000/svg">
<rect opacity="0.3" x="1" y="7" width="96" height="29" rx="6" stroke="white" stroke-opacity="0.8" stroke-width="2"/>
<g opacity="0.8">
<path fill-rule="evenodd" clip-rule="evenodd" d="M16.0908 28.5964C14.0727 28.5964 12.1757 27.8103 10.749 26.3836C9.32077 24.9539 8.5332 23.0546 8.5332 21.0327C8.5332 19.0123 9.32077 17.1116 10.749 15.6833C12.178 14.2536 14.0787 13.4668 16.0999 13.4668C18.1203 13.4668 20.021 14.2536 21.4508 15.6833C23.9006 18.1354 24.3723 21.8687 22.6336 24.841L23.6529 27.9315C23.712 28.1117 23.6658 28.3101 23.5325 28.4449C23.3977 28.5797 23.1993 28.6282 23.0199 28.5699L19.909 27.5657C18.7526 28.2405 17.4372 28.5964 16.0908 28.5964ZM20.8237 19.7004L20.8179 19.6795C20.7482 19.505 20.5937 19.3875 20.4186 19.377H17.5108L16.638 16.5133C16.5789 16.3124 16.3947 16.1721 16.1992 16.1735H16.179C15.9752 16.1857 15.8085 16.3237 15.7531 16.5041L14.863 19.377H11.9818C11.7857 19.3801 11.6025 19.4912 11.5445 19.6812C11.5249 19.7359 11.5188 19.7959 11.52 19.837V19.8626C11.5315 20.011 11.5993 20.1475 11.713 20.2304L14.0382 21.9986L13.1346 24.8544C13.118 24.907 13.1106 24.9617 13.1118 25.0072C13.1093 25.1548 13.1803 25.3064 13.2995 25.3975C13.3809 25.4595 13.4786 25.4912 13.5671 25.4912C13.6684 25.4932 13.7647 25.4626 13.8461 25.4017L16.1764 23.633L18.2955 25.2599L18.4959 25.4135C18.5699 25.4721 18.6574 25.5008 18.7358 25.5068H18.7743H18.7781C18.8653 25.5068 18.9588 25.4746 19.0351 25.4208C19.1634 25.3237 19.2327 25.1772 19.2342 25.0268V24.999L19.2319 24.9881C19.2293 24.9499 19.2223 24.9148 19.2119 24.8766L18.3227 22.0119L20.6573 20.2572C20.7801 20.1635 20.8515 20.0168 20.8532 19.867C20.8515 19.8141 20.8468 19.7624 20.8237 19.7004Z" fill="white"/>
</g>
<path opacity="0.8" d="M37.5059 16.5537H39.4746V26.5H37.458L33.083 19.9102H33.0557V26.5H31.0938V16.5537H33.0557L37.4785 23.2734H37.5059V16.5537ZM47.8691 23.0205C47.8691 23.3486 47.8486 23.5674 47.8213 23.6768H43.0293C43.1387 24.0869 43.3438 24.4014 43.6514 24.6338C43.959 24.8662 44.335 24.9893 44.7725 24.9893C45.4287 24.9961 45.9756 24.7363 46.4062 24.2168L47.5957 25.3242C47.2812 25.7207 46.8779 26.0352 46.3789 26.2676C45.873 26.5 45.2988 26.6162 44.6426 26.6162C43.9727 26.6162 43.3779 26.4727 42.8447 26.1855C42.3115 25.8984 41.8877 25.4814 41.5801 24.9346C41.2725 24.3945 41.1221 23.7725 41.1221 23.0752C41.1221 22.5693 41.2041 22.0908 41.3818 21.6533C41.5527 21.2158 41.7852 20.8398 42.0859 20.5322C42.3867 20.2246 42.7422 19.9854 43.166 19.8076C43.583 19.6367 44.0342 19.5479 44.5127 19.5479C45.1689 19.5479 45.7568 19.6982 46.2695 19.999C46.7754 20.2998 47.1719 20.71 47.4521 21.2363C47.7256 21.7627 47.8691 22.3574 47.8691 23.0205ZM44.5742 21.1611C44.1914 21.1611 43.8701 21.2637 43.5967 21.4688C43.3232 21.6738 43.1387 21.9746 43.0361 22.3574H46.0508C45.9551 21.9883 45.7773 21.6943 45.5312 21.4824C45.2783 21.2705 44.957 21.1611 44.5742 21.1611ZM52.5928 26.6162C52.1621 26.6162 51.7588 26.5615 51.3828 26.4453C51 26.3359 50.665 26.1719 50.3711 25.96C50.0771 25.7549 49.8242 25.502 49.6123 25.2148C49.3936 24.9277 49.2295 24.5996 49.1201 24.2373C49.0107 23.8818 48.9561 23.499 48.9561 23.0889C48.9561 22.583 49.0381 22.1113 49.2158 21.6738C49.3936 21.2363 49.6396 20.8672 49.9541 20.5527C50.2686 20.2383 50.6514 19.9922 51.1094 19.8145C51.5605 19.6367 52.0596 19.5479 52.5928 19.5479C53.1123 19.5479 53.6045 19.6367 54.0557 19.8076C54.5068 19.9854 54.8896 20.2246 55.2109 20.5322C55.5254 20.8398 55.7783 21.2158 55.9561 21.6533C56.1338 22.0908 56.2295 22.5693 56.2295 23.0889C56.2295 23.7793 56.0723 24.3945 55.7646 24.9277C55.4502 25.4678 55.0195 25.8848 54.4727 26.1787C53.9189 26.4727 53.29 26.6162 52.5928 26.6162ZM52.5928 24.9756C53.0918 24.9756 53.5156 24.7979 53.8574 24.4424C54.1992 24.0869 54.3701 23.6357 54.3701 23.0889C54.3701 22.5352 54.1992 22.084 53.8643 21.7285C53.5225 21.373 53.0986 21.1953 52.5928 21.1953C52.0596 21.1953 51.6289 21.3799 51.3008 21.7354C50.9727 22.0908 50.8086 22.542 50.8086 23.0889C50.8086 23.6221 50.9727 24.0732 51.3076 24.4355C51.6426 24.7979 52.0732 24.9756 52.5928 24.9756ZM61.7598 19.5479C62.1357 19.5479 62.4707 19.6025 62.7646 19.7119C63.0586 19.8213 63.3184 19.9854 63.5439 20.2041C63.7695 20.4297 63.9404 20.7305 64.0635 21.1064C64.1797 21.4893 64.2412 21.9336 64.2412 22.4463V26.5068H62.4092V22.9043C62.4092 22.2754 62.2998 21.8379 62.0879 21.5781C61.8691 21.3252 61.541 21.1953 61.0967 21.1953C60.6182 21.1953 60.2422 21.3594 59.9619 21.6807C59.6816 22.0088 59.5449 22.4668 59.5449 23.0615V26.5H57.7129V19.6641H59.5449V20.5459H59.5654C59.8389 20.2246 60.167 19.9785 60.5498 19.8076C60.9326 19.6367 61.3359 19.5479 61.7598 19.5479Z" fill="white"/>
<path opacity="0.8" d="M61.7598 19.5479C62.1357 19.5479 62.4707 19.6025 62.7646 19.7119C63.0586 19.8213 63.3184 19.9854 63.5439 20.2041C63.7695 20.4297 63.9404 20.7305 64.0635 21.1064C64.1797 21.4893 64.2412 21.9336 64.2412 22.4463V26.5068H62.4092V22.9043C62.4092 22.2754 62.2998 21.8379 62.0879 21.5781C61.8691 21.3252 61.541 21.1953 61.0967 21.1953C60.6182 21.1953 60.2422 21.3594 59.9619 21.6807C59.6816 22.0088 59.5449 22.4668 59.5449 23.0615V26.5H57.7129V19.6641H59.5449V20.5459H59.5654C59.8389 20.2246 60.167 19.9785 60.5498 19.8076C60.9326 19.6367 61.3359 19.5479 61.7598 19.5479Z" fill="white"/>
<path opacity="0.8" d="M52.5928 26.6162C52.1621 26.6162 51.7588 26.5615 51.3828 26.4453C51 26.3359 50.665 26.1719 50.3711 25.96C50.0771 25.7549 49.8242 25.502 49.6123 25.2148C49.3936 24.9277 49.2295 24.5996 49.1201 24.2373C49.0107 23.8818 48.9561 23.499 48.9561 23.0889C48.9561 22.583 49.0381 22.1113 49.2158 21.6738C49.3936 21.2363 49.6396 20.8672 49.9541 20.5527C50.2686 20.2383 50.6514 19.9922 51.1094 19.8145C51.5605 19.6367 52.0596 19.5479 52.5928 19.5479C53.1123 19.5479 53.6045 19.6367 54.0557 19.8076C54.5068 19.9854 54.8896 20.2246 55.2109 20.5322C55.5254 20.8398 55.7783 21.2158 55.9561 21.6533C56.1338 22.0908 56.2295 22.5693 56.2295 23.0889C56.2295 23.7793 56.0723 24.3945 55.7646 24.9277C55.4502 25.4678 55.0195 25.8848 54.4727 26.1787C53.9189 26.4727 53.29 26.6162 52.5928 26.6162ZM52.5928 24.9756C53.0918 24.9756 53.5156 24.7979 53.8574 24.4424C54.1992 24.0869 54.3701 23.6357 54.3701 23.0889C54.3701 22.5352 54.1992 22.084 53.8643 21.7285C53.5225 21.373 53.0986 21.1953 52.5928 21.1953C52.0596 21.1953 51.6289 21.3799 51.3008 21.7354C50.9727 22.0908 50.8086 22.542 50.8086 23.0889C50.8086 23.6221 50.9727 24.0732 51.3076 24.4355C51.6426 24.7979 52.0732 24.9756 52.5928 24.9756Z" fill="white"/>
<path opacity="0.8" d="M47.8691 23.0205C47.8691 23.3486 47.8486 23.5674 47.8213 23.6768H43.0293C43.1387 24.0869 43.3438 24.4014 43.6514 24.6338C43.959 24.8662 44.335 24.9893 44.7725 24.9893C45.4287 24.9961 45.9756 24.7363 46.4062 24.2168L47.5957 25.3242C47.2812 25.7207 46.8779 26.0352 46.3789 26.2676C45.873 26.5 45.2988 26.6162 44.6426 26.6162C43.9727 26.6162 43.3779 26.4727 42.8447 26.1855C42.3115 25.8984 41.8877 25.4814 41.5801 24.9346C41.2725 24.3945 41.1221 23.7725 41.1221 23.0752C41.1221 22.5693 41.2041 22.0908 41.3818 21.6533C41.5527 21.2158 41.7852 20.8398 42.0859 20.5322C42.3867 20.2246 42.7422 19.9854 43.166 19.8076C43.583 19.6367 44.0342 19.5479 44.5127 19.5479C45.1689 19.5479 45.7568 19.6982 46.2695 19.999C46.7754 20.2998 47.1719 20.71 47.4521 21.2363C47.7256 21.7627 47.8691 22.3574 47.8691 23.0205ZM44.5742 21.1611C44.1914 21.1611 43.8701 21.2637 43.5967 21.4688C43.3232 21.6738 43.1387 21.9746 43.0361 22.3574H46.0508C45.9551 21.9883 45.7773 21.6943 45.5312 21.4824C45.2783 21.2705 44.957 21.1611 44.5742 21.1611Z" fill="white"/>
<path opacity="0.8" d="M37.5059 16.5537H39.4746V26.5H37.458L33.083 19.9102H33.0557V26.5H31.0938V16.5537H33.0557L37.4785 23.2734H37.5059V16.5537Z" fill="white"/>
</svg>
