<svg xmlns="http://www.w3.org/2000/svg" xmlns:xlink="http://www.w3.org/1999/xlink" width="115" height="40" viewBox="0 0 115 40">
    <defs>
        <path id="prefix__a" d="M0.167 0.007L6.189 0.007 6.189 2.276 0.167 2.276z"/>
        <path id="prefix__c" d="M0.067 0.018L13.054 0.018 13.054 12.451 0.067 12.451z"/>
    </defs>
    <g fill="none" fill-rule="evenodd">
        <g fill="#B7B7B7">
            <path d="M9.49 2.768S9.453.144 12.457.116h2.815c.603 0 1.114.42 1.114.937 0 .528-.51.95-1.114.95H13.97c-.864.006-.79.628-.79.628v1.224h1.573c.623 0 1.134.401 1.134.914 0 .528-.444.931-1.05.931H13.18v6.217c0 .875-.755 1.654-1.808 1.654-1.048 0-1.884-.709-1.884-1.597V2.768zM19.952 11.906c0 .945-.758 1.665-1.808 1.665-1.035 0-1.889-.72-1.889-1.595V6.375s0-2.47 3.053-2.47h2.419c1.266 0 1.266.97 1.266.97s0 .932-1.185.932h-1.067c-.79 0-.79.61-.79.61v5.489zM37.307 5.818c-.82 0-.82.596-.82.596v1.634h2.33V6.456s0-.638-.74-.638h-.77zm.605-1.98c3.156 0 3.156 2.535 3.156 2.535v2.625c0 .53-.512.917-1.135.917l-3.481-.002v1.128s.035.592.838.592l1.953.004c.626 0 1.119.418 1.119.946 0 .526-.51.988-1.12.988h-3.429c-3.008 0-3.008-2.503-3.008-2.503V6.373s.022-2.507 3.031-2.535h2.076zM48.978 11.684c.625-.017 1.184.47 1.184.998 0 .529-.559.889-1.184.889H44.06c-1.034 0-1.781-.625-1.781-1.513V5.435c0-.877.853-1.597 1.889-1.597h4.999c.63 0 1.12.416 1.12.941 0 .529-.49.919-1.12.919H46.5c-.457 0-.457.39-.457.39l-.003 5.19s-.03.404.46.404l2.478.002zM53.46 11.653h1.495v-2.23l-1.495.002c-.815 0-.736 1.113-.736 1.113s-.086 1.115.736 1.115m5.254-5.3v5.591c0 .89-.86 1.627-1.912 1.627h-3.19c-3.142 0-3.142-2.532-3.142-2.532V9.787s.197-2.287 3.142-2.275h1.349V6.365s0-.59-.74-.59h-1.71c-.626 0-1.233-.368-1.233-.897s.575-1.035 1.2-1.035h3.225c3.01.013 3.01 2.51 3.01 2.51M67.491 1.384s0-.853-1.132-.853h-7.855c-1.133 0-1.133.828-1.133.828s0 .821 1.06.821h1.644c.705 0 .705.537.705.537V7.78c0 .832.677 1.466 1.618 1.466.924 0 1.688-.634 1.688-1.404V2.71c.013-.116.102-.504.702-.504h1.643c1.06 0 1.06-.82 1.06-.82M2.994 11.651h1.493V9.423H2.994c-.847 0-.738 1.114-.738 1.114s-.086 1.114.738 1.114M8.249 6.35v5.595c0 .89-.86 1.627-1.913 1.627h-3.19C0 13.57 0 11.038 0 11.038V9.786s.199-2.289 3.145-2.278h1.347V6.36s0-.591-.74-.591h-1.71c-.626 0-1.235-.367-1.235-.897s.578-1.037 1.202-1.037h3.228C8.25 3.851 8.25 6.35 8.25 6.35M27.845 5.818c-.82 0-.82.596-.82.596v1.634h2.33V6.456s0-.638-.739-.638h-.771zm.605-1.98c3.157 0 3.157 2.535 3.157 2.535v2.625c0 .53-.513.917-1.136.917l-3.48-.002v1.128s.034.592.837.592l1.953.004c.627 0 1.12.418 1.12.946 0 .526-.51.988-1.12.988h-3.43c-3.008 0-3.008-2.503-3.008-2.503V6.373s.022-2.507 3.03-2.535h2.077z" transform="translate(13 12) translate(0 .705)"/>
            <path d="M74.396.81c-.739-.496-1.78-.237-2.328.577l-2.978 3.99-1.07-2.31c-.198-.434-1.052-.641-1.506-.43-.456.208-.735.86-.534 1.294l1.963 4.51c.154.328.502.6 1.055.734.499.12 1.435-.01 1.981-.825l3.769-5.168c.547-.815.388-1.876-.352-2.372" transform="translate(13 12) translate(0 .705)"/>
        </g>
        <g>
            <g transform="translate(13 12) translate(76.838 .35) translate(3.913)">
                <mask id="prefix__b" fill="#fff">
                    <use xlink:href="#prefix__a"/>
                </mask>
                <path fill="#B7B7B7" d="M.388 1.3l1.811.858c.316.14.539.168.868.019L5.87.904c.27-.093.398-.39.27-.645-.12-.244-.42-.321-.656-.187l-2.56 1.644c-.068.038-.11.06-.161.072-.126.028-.284.022-.436-.103L.932.565C.741.382.436.414.266.615c-.16.201-.13.544.122.684" mask="url(#prefix__b)"/>
            </g>
            <g transform="translate(13 12) translate(76.838 .35) translate(0 2.49)">
                <mask id="prefix__d" fill="#fff">
                    <use xlink:href="#prefix__c"/>
                </mask>
                <path fill="#B7B7B7" d="M9.949 8.646c-1.67 1.556-5.163 1.554-6.796-.002-.112-.109-.117-.29-.007-.403.107-.114.29-.12.402-.01 1.413 1.351 4.563 1.35 6.015-.001.117-.109.296-.102.404.014.106.115.1.295-.018.402M4.707 5.978l.002-.036.002-.025.002-.025.098-1.063.097-1.063.01-.115c.006-.037.013-.074.022-.11.027-.107.069-.207.125-.3.11-.183.273-.332.467-.426.097-.047.203-.08.313-.096.052-.008.105-.013.16-.013h1.099c.058 0 .113.007.168.015l.016.002c.323.056.598.253.76.525.053.09.095.19.12.295.012.045.02.09.025.137l.006.06.177 1.946.017.195.008.084v.013l.001.042c0 .48-.305.887-.732 1.04-.06.022-.124.039-.19.05-.058.01-.118.015-.18.015H5.809c-.048 0-.096-.004-.143-.01-.047-.006-.093-.015-.137-.027-.118-.03-.229-.081-.328-.147-.1-.066-.187-.148-.26-.241-.074-.094-.132-.2-.172-.314-.04-.115-.062-.238-.062-.366l.001-.042m8.317-.934l-.439.325c-.2.148-.4.294-.62.442-.176.12-.336.223-.477.312-.423.265-.674.392-.674.392-.046.028-.097.053-.151.077l-.052.02c-.04.015-.08.03-.122.042l-.062.017c-.045.011-.09.02-.136.027l-.055.01c-.065.008-.13.013-.196.014h-.004c-.049 0-.097-.003-.145-.009l-.04-.005c-.037-.005-.074-.012-.11-.021l-.042-.01c-.047-.014-.093-.03-.137-.05-.073-.034-.138-.075-.196-.12-.057-.044-.107-.093-.15-.144-.045-.052-.082-.105-.113-.158-.016-.027-.03-.054-.044-.08-.039-.08-.067-.156-.087-.223-.013-.045-.023-.086-.03-.12l-.008-.046c-.005-.027-.007-.047-.008-.057v-.008s-.006-.034-.013-.1c-.004-.033-.01-.073-.014-.12l-.009-.077-.02-.182-.02-.22c-.019-.2-.038-.433-.056-.694-.033-.506-.058-1.006-.068-1.51-.003-.17.025-.317.069-.44.022-.062.048-.118.076-.168.014-.025.028-.049.043-.071.059-.09.122-.157.174-.205.065-.059.113-.087.113-.087.045-.03.092-.055.142-.078l.048-.02c.034-.014.07-.027.105-.039l.058-.016c.035-.009.07-.016.106-.023l.06-.009c.038-.005.077-.007.118-.008.012 0 .025-.003.038-.003h.015c.014 0 .027.002.041.003.033.001.066.004.099.008l.048.007c.033.005.065.011.098.02.014.002.028.005.042.01.046.012.092.027.137.045l.232.095c.118.05.239.103.355.154.271.12.518.236.663.304l.13.062c.225.11.431.211.64.321.14.073.285.153.434.238-.01-.063-.016-.127-.026-.19-.031-.207-.115-.493-.125-.527-.267-.928-1.276-1.325-1.276-1.325-.324-.144-1.022-.334-1.022-.334C9.158.188 7.9.022 6.604.018h-.088S4.546.004 2.71.488c-.675.178-.977.329-.977.329-.532.241-.96.618-1.187 1.146l.064-.038c.049-.028.098-.053.148-.078l.053-.027c.068-.032.137-.062.207-.088.016-.007.032-.011.048-.017.056-.02.111-.039.167-.055.026-.008.05-.014.076-.02.05-.014.099-.025.15-.036l.08-.015c.053-.01.107-.017.16-.023l.07-.008c.075-.006.152-.01.228-.01h.025c.07 0 .14.005.212.011l.071.008c.058.007.116.016.173.026l.07.014c.08.016.16.036.239.06.747.23 1.225.657 1.463 1.205.237.547.234 1.216.02 1.929-.024.083-.053.164-.083.242-.01.026-.022.05-.032.075-.022.052-.044.103-.068.152l-.044.083c-.024.044-.047.088-.073.13-.016.028-.034.054-.051.08-.026.041-.054.08-.082.119-.018.025-.036.05-.056.074-.03.038-.061.075-.093.111l-.057.065c-.037.039-.075.075-.114.111l-.049.048c-.056.05-.115.097-.175.141-.008.007-.017.012-.025.018-.052.037-.106.073-.16.107l-.068.037c-.043.025-.086.049-.13.07l-.08.037c-.041.019-.084.037-.127.054l-.085.03c-.044.016-.087.03-.132.043l-.087.024c-.047.011-.094.021-.142.03l-.083.017c-.056.01-.113.015-.17.021-.02.002-.04.006-.061.007-.076.006-.153.01-.23.01h-.006c-.057 0-.114-.005-.171-.008l-.089-.004c-.087-.008-.175-.02-.264-.035-.362-.062-.7-.238-.992-.485-.043-.037-.083-.078-.123-.118v.01c0 1.486.146 2.938.434 4.34.114.557.37.827.37.827.28.364.681.63 1.144.733l.1.02c1.437.284 2.923.434 4.444.434 1.528 0 3.02-.151 4.464-.438l.07-.014c.764-.167 1.363-.772 1.521-1.538l.002-.01c.287-1.406.437-2.862.437-4.354 0-.354-.012-.704-.03-1.053" mask="url(#prefix__d)"/>
            </g>
            <path fill="#B7B7B7" d="M10.824 7.546c-.514 0-.932-.417-.932-.931 0-.515.418-.932.932-.932s.931.417.931.932c0 .514-.417.931-.931.931m2-1.601l-.01-.005-.02-.01-.019-.01c-.438-.263-.783-.435-1.26-.67-.004-.001-.767-.368-1.346-.6-.094-.037-.192-.056-.293-.056-.145 0-.288.04-.4.114l-.016.01c-.042.03-.237.188-.231.531.008.453.03.925.067 1.485.054.807.127 1.355.128 1.36l.001.016.001.015c.002.01.043.394.348.536.068.032.158.048.262.048.206 0 .407-.066.515-.132l.017-.01.017-.01c.004-.002.432-.222 1.1-.672.273-.185.517-.368.777-.56.143-.107.287-.215.439-.325.033-.023.059-.05.085-.078-.024-.312-.054-.623-.091-.932l-.037-.026-.034-.02M5.656 9.092c.05.013.101.02.153.02h1.486c.037 0 .07-.003.103-.008.29-.049.502-.298.502-.594V8.49l-.001-.005-.007-.068-.194-2.14-.004-.052c-.003-.024-.008-.048-.013-.07-.058-.23-.246-.405-.48-.446-.033-.005-.066-.009-.099-.009H6.005c-.028 0-.057.003-.085.007-.236.036-.434.215-.492.448-.004.016-.008.032-.01.048l-.01.1-.194 2.126-.003.042-.002.017v.023c0 .273.184.513.447.582M2.087 5.683c.515 0 .931.417.931.932 0 .514-.416.93-.93.93-.515 0-.932-.416-.932-.93 0-.515.417-.932.931-.932M1.27 8.685c.15.026.299.039.444.039 1.004 0 1.78-.59 2.076-1.577.22-.737.365-2.044-1.15-2.509-.21-.065-.426-.098-.641-.098-.608 0-1.212.265-1.675.708C.183 6.085.108 6.94.08 7.809c.31.472.742.799 1.19.876" transform="translate(13 12) translate(76.838 .35)"/>
        </g>
    </g>
</svg>
