<svg xmlns="http://www.w3.org/2000/svg" xmlns:xlink="http://www.w3.org/1999/xlink" width="170" height="59" viewBox="0 0 170 59">
    <defs>
        <path id="prefix__a" d="M0 1.158L34.802 1.158 34.802 25.222 0 25.222z"/>
    </defs>
    <g fill="none" fill-rule="evenodd">
        <g transform="translate(29.565 16.225) translate(0 .17)">
            <mask id="prefix__b" fill="#fff">
                <use xlink:href="#prefix__a"/>
            </mask>
            <path fill="#BABABA" d="M13.92 18.347V8.033l9.042 5.158-9.041 5.156zM34.076 4.915c-.4-1.479-1.58-2.643-3.077-3.038-2.714-.719-13.596-.719-13.596-.719s-10.884 0-13.598.719c-1.497.395-2.677 1.56-3.077 3.038C0 7.597 0 13.19 0 13.19s0 5.594.727 8.275c.4 1.479 1.58 2.643 3.077 3.039 2.714.718 13.598.718 13.598.718s10.882 0 13.596-.718c1.498-.396 2.677-1.56 3.077-3.039.727-2.681.727-8.275.727-8.275s0-5.593-.727-8.275z" mask="url(#prefix__b)"/>
        </g>
        <path fill="#BABABA" d="M54.373 20.86c.191-.491.286-1.294.286-2.41v-4.695c0-1.082-.095-1.872-.286-2.372-.19-.5-.527-.75-1.008-.75-.465 0-.793.25-.983.75-.191.5-.287 1.29-.287 2.372v4.696c0 1.115.092 1.918.274 2.409.183.491.515.738.996.738s.817-.247 1.008-.738m-3.858 2.36c-.688-.46-1.177-1.172-1.468-2.138-.29-.968-.435-2.254-.435-3.86v-2.188c0-1.623.165-2.926.497-3.91.332-.982.85-1.7 1.556-2.15.705-.452 1.63-.676 2.774-.676 1.129 0 2.033.23 2.713.687.68.46 1.179 1.177 1.493 2.152.316.975.473 2.274.473 3.897v2.187c0 1.607-.153 2.898-.46 3.873-.307.975-.804 1.688-1.493 2.138-.689.452-1.623.676-2.8.676-1.21 0-2.16-.23-2.85-.688M103.811 10.914c-.174.214-.29.562-.348 1.045-.059.483-.087 1.217-.087 2.201v1.08h2.513v-1.08c0-.968-.032-1.7-.1-2.2-.065-.5-.185-.853-.36-1.058-.174-.205-.445-.307-.809-.307-.365 0-.634.107-.809.32zm-.435 6.343v.762c0 .968.028 1.693.087 2.176.058.485.178.836.36 1.058.183.22.465.332.847.332.513 0 .867-.198 1.058-.59.19-.394.294-1.05.311-1.968l2.961.172c.017.132.026.312.026.542 0 1.393-.386 2.433-1.158 3.122-.771.688-1.862 1.032-3.273 1.032-1.692 0-2.879-.525-3.559-1.573-.68-1.05-1.02-2.671-1.02-4.868v-2.63c0-2.262.352-3.914 1.058-4.954.705-1.041 1.912-1.561 3.622-1.561 1.177 0 2.081.212 2.711.638.63.428 1.074 1.091 1.332 1.991.257.903.386 2.148.386 3.737v2.582h-5.75zM42.152 16.975l-3.908-13.94h3.411l1.368 6.319c.348 1.557.606 2.885.771 3.982h.1c.117-.787.373-2.105.771-3.958l1.42-6.343h3.409l-3.957 13.94v6.688h-3.385v-6.688zM69.208 8.592v15.07H66.52l-.298-1.844h-.075c-.73 1.394-1.825 2.09-3.286 2.09-1.012 0-1.758-.327-2.239-.983-.482-.656-.722-1.68-.722-3.073V8.592h3.434v11.063c0 .672.075 1.151.224 1.438.15.287.398.43.748.43.298 0 .584-.089.858-.27.273-.18.476-.41.61-.688V8.592h3.434zM86.825 8.592v15.07h-2.688l-.298-1.844h-.075c-.73 1.394-1.825 2.09-3.286 2.09-1.012 0-1.758-.327-2.239-.983-.482-.656-.722-1.68-.722-3.073V8.592h3.434v11.063c0 .672.075 1.151.224 1.438.15.287.398.43.748.43.298 0 .584-.089.858-.27.273-.18.476-.41.609-.688V8.592h3.435z" transform="translate(29.565 16.225)"/>
        <path fill="#BABABA" d="M78.541 5.765L75.131 5.765 75.131 23.662 71.772 23.662 71.772 5.765 68.362 5.765 68.362 3.035 78.541 3.035zM95.044 17.148c0 1.098-.046 1.96-.137 2.582-.092.623-.245 1.065-.461 1.328-.215.261-.506.393-.871.393-.282 0-.543-.065-.784-.197-.24-.131-.435-.328-.584-.59v-8.556c.115-.41.314-.745.596-1.008.283-.261.59-.393.921-.393.35 0 .618.136.809.405.19.27.324.726.4 1.365.073.64.11 1.549.11 2.73v1.941zm3.148-6.147c-.208-.95-.544-1.639-1.008-2.065-.464-.426-1.104-.64-1.916-.64-.631 0-1.22.177-1.767.529-.548.353-.972.816-1.27 1.39h-.024V2.274h-3.31v21.388h2.837l.348-1.425h.075c.265.508.663.909 1.195 1.204.53.296 1.12.443 1.767.443 1.161 0 2.016-.528 2.563-1.586.547-1.057.82-2.708.82-4.955V14.96c0-1.687-.103-3.007-.31-3.958z" transform="translate(29.565 16.225)"/>
    </g>
</svg>
