<svg width="170" height="59" viewBox="0 0 170 59" fill="none" xmlns="http://www.w3.org/2000/svg">
<path fill-rule="evenodd" clip-rule="evenodd" d="M113.653 14.75L109.57 20.386H102.315L99.8888 22.8006V20.386H94.2241V14.75H76.4392V20.386H51.4122L47.3337 14.75H38.4346V34.074L49.7551 45.343H61.0756V42.1231L64.3115 45.343H86.1425V42.1231L89.3784 45.343H99.8888V42.1231L103.125 45.343H123.341L130.622 38.0963V24.4113L126.574 20.386H122.528V14.75H113.653ZM114.436 16.3636H120.91V21.9967H125.763L129 25.2166V36.49H122.527V28.438H120.91V36.49H114.436V16.3636ZM86.141 33.2731V16.3636H92.6128V21.9967H98.2775L98.2716 28.438H92.6084V30.0517H98.2716V36.493H89.3769L86.141 33.2731ZM78.0534 20.386H84.5253V16.3636H78.0534V20.386ZM40.0518 33.2731V16.3636H46.5251V21.9967H52.1868L52.1794 28.438H46.5251V30.0517H52.1868V36.493H43.2877L40.0518 33.2731ZM99.8874 33.2731V25.2166L103.122 21.9967H112.827V28.438H106.355V30.0516H112.827V36.493H103.122L99.8874 33.2731ZM78.0534 36.49H84.5253V21.9967H78.0534V36.49ZM69.9777 30.0487V21.9967H76.4481L76.4347 36.49H57.0326L53.7967 33.2686V21.9967H60.2685V30.0487H61.8872V21.9967H68.359V30.0487H69.9777Z" fill="#BABABA"/>
</svg>
