<svg width="170" height="59" viewBox="0 0 170 59" fill="none" xmlns="http://www.w3.org/2000/svg">
<g opacity="0.2">
<path d="M118.006 41.432C116.241 41.432 114.618 41.1502 113.123 40.5711C111.628 40.0076 110.355 39.2093 109.305 38.1762C108.255 37.1588 107.428 35.9222 106.84 34.4665C106.251 33.0265 105.965 31.4456 105.965 29.7238C105.965 28.0177 106.251 26.4368 106.84 24.9811C107.428 23.5254 108.255 22.2888 109.305 21.2557C110.355 20.2383 111.628 19.44 113.123 18.8609C114.618 18.2974 116.241 18 118.006 18C119.74 18 121.347 18.2974 122.842 18.8609C124.321 19.4244 125.594 20.2227 126.644 21.2401C127.694 22.2575 128.505 23.4941 129.109 24.9498C129.698 26.4211 130 28.002 130 29.7238C130 31.4456 129.698 33.0422 129.109 34.4978C128.505 35.9535 127.694 37.1901 126.644 38.2075C125.594 39.2249 124.321 40.0232 122.842 40.5867C121.347 41.1502 119.74 41.432 118.006 41.432ZM117.99 35.7501C119.056 35.7501 120.011 35.484 120.87 34.9518C121.729 34.4196 122.381 33.6839 122.842 32.7761C123.303 31.8682 123.542 30.8508 123.542 29.7238C123.542 28.6125 123.303 27.595 122.842 26.6872C122.381 25.7793 121.729 25.0437 120.87 24.5115C120.011 23.9793 119.056 23.6975 117.99 23.6975C116.909 23.6975 115.954 23.9636 115.111 24.4958C114.252 25.028 113.6 25.7637 113.123 26.6715C112.646 27.595 112.423 28.6125 112.423 29.7238C112.423 30.8508 112.646 31.8682 113.123 32.7761C113.6 33.6839 114.252 34.4196 115.111 34.9518C115.97 35.484 116.925 35.7501 117.99 35.7501Z" fill="#BABABA"/>
<path d="M94.417 41.385C93.065 41.385 91.7924 41.2285 90.5835 40.8998C89.3746 40.5867 88.277 40.1015 87.2749 39.4441C86.2568 38.8023 85.3979 38.0197 84.6661 37.1118C83.9344 36.204 83.3618 35.1083 82.9482 33.8561C82.5346 32.6039 82.3438 31.2421 82.3438 29.7708C82.3438 28.4559 82.5028 27.2194 82.8369 26.0298C83.1709 24.8402 83.664 23.7602 84.3321 22.7897C85.0002 21.8192 85.7955 20.974 86.734 20.254C87.6725 19.5496 88.7701 19.0018 90.0427 18.5948C91.3152 18.2035 92.6832 18 94.1625 18C95.3078 18 96.4531 18.1565 97.6143 18.4696C98.7596 18.7826 99.8731 19.2679 100.955 19.9096C102.021 20.5514 102.943 21.3184 103.707 22.2106L99.3163 25.8576C97.8052 24.4489 96.0873 23.7289 94.1466 23.7289C93.574 23.7289 93.0331 23.8228 92.5082 23.9793C91.9833 24.1515 91.4902 24.4019 91.0448 24.7463C90.5994 25.0906 90.2017 25.4976 89.8677 25.9672C89.5336 26.4368 89.2791 27.0002 89.0882 27.6577C88.8974 28.3151 88.8019 29.0194 88.8019 29.7708C88.8019 30.5847 88.9292 31.3673 89.1837 32.0873C89.4382 32.8074 89.7882 33.4491 90.2494 34.0126C90.7107 34.5761 91.2993 35.0144 92.031 35.3274C92.7468 35.6561 93.5422 35.8127 94.417 35.8127C95.626 35.8127 96.7713 35.5622 97.8847 35.0613V32.9639H93.9398V28.049H103.691V38.6458C102.609 39.4441 101.241 40.1015 99.555 40.618C97.8688 41.1346 96.1509 41.385 94.417 41.385Z" fill="#BABABA"/>
<path d="M68.3774 41.432C66.6118 41.432 64.9893 41.1502 63.494 40.5711C61.9988 40.0076 60.7262 39.2093 59.6764 38.1762C58.6265 37.1588 57.7994 35.9222 57.2108 34.4665C56.6223 33.0265 56.3359 31.4456 56.3359 29.7238C56.3359 28.0177 56.6223 26.4368 57.2108 24.9811C57.7994 23.5254 58.6265 22.2888 59.6764 21.2557C60.7262 20.2383 61.9988 19.44 63.494 18.8609C64.9893 18.2974 66.6118 18 68.3774 18C70.1113 18 71.7178 18.2974 73.2131 18.8609C74.6924 19.4244 75.965 20.2227 77.0148 21.2401C78.0647 22.2575 78.8759 23.4941 79.4804 24.9498C80.0689 26.4211 80.3712 28.002 80.3712 29.7238C80.3712 31.4456 80.0689 33.0422 79.4804 34.4978C78.8759 35.9535 78.0647 37.1901 77.0148 38.2075C75.965 39.2249 74.6924 40.0232 73.2131 40.5867C71.7178 41.1502 70.1113 41.432 68.3774 41.432ZM68.3615 35.7501C69.4273 35.7501 70.3817 35.484 71.2406 34.9518C72.0996 34.4196 72.7518 33.6839 73.2131 32.7761C73.6744 31.8682 73.913 30.8508 73.913 29.7238C73.913 28.6125 73.6744 27.595 73.2131 26.6872C72.7518 25.7793 72.0996 25.0437 71.2406 24.5115C70.3817 23.9793 69.4273 23.6975 68.3615 23.6975C67.2798 23.6975 66.3254 23.9636 65.4824 24.4958C64.6234 25.028 63.9712 25.7637 63.494 26.6715C63.0168 27.595 62.7941 28.6125 62.7941 29.7238C62.7941 30.8508 63.0168 31.8682 63.494 32.7761C63.9712 33.6839 64.6234 34.4196 65.4824 34.9518C66.3413 35.484 67.2957 35.7501 68.3615 35.7501Z" fill="#BABABA"/>
<path d="M40 41.1033V18.3287H46.2355V35.6875H55.4296V41.1033H40Z" fill="#BABABA"/>
</g>
</svg>
