<svg width="115" height="40" viewBox="0 0 115 40" fill="none" xmlns="http://www.w3.org/2000/svg">
<path d="M64.8414 11C62.2434 11 59.9087 12.1299 58.3027 13.9249C58.2343 14.0023 58.1152 14.0023 58.0468 13.9249C56.4408 12.1299 54.1069 11 51.5081 11C46.6634 11 42.7358 14.9276 42.7358 19.7723C42.7358 24.617 46.6634 28.5445 51.5081 28.5445C54.1061 28.5445 56.4408 27.4147 58.0468 25.6196C58.1152 25.5422 58.2343 25.5422 58.3027 25.6196C59.9087 27.4147 62.2434 28.5445 64.8414 28.5445C69.6861 28.5445 73.6136 24.617 73.6136 19.7723C73.6136 14.9276 69.6869 11 64.8414 11ZM64.8414 24.3333C63.4376 24.3333 62.2654 23.6567 61.5456 22.8928C61.3165 22.6491 61.0328 22.3149 60.7198 22.0312C60.5706 21.8958 60.4222 21.7752 60.2804 21.666C59.6934 21.2478 58.9655 20.9991 58.1747 20.9991C57.384 20.9991 56.656 21.2478 56.0691 21.666C55.9264 21.7744 55.7789 21.8958 55.6297 22.0312C55.3167 22.3149 55.033 22.6491 54.8039 22.8928C54.0849 23.6567 52.9119 24.3333 51.5081 24.3333C51.4722 24.3333 51.4372 24.3316 51.4013 24.3308C51.341 24.3292 51.2807 24.3276 51.2203 24.3235C51.1788 24.321 51.138 24.317 51.0973 24.3137C51.0728 24.3121 51.0483 24.3096 51.0247 24.3072C48.7324 24.0659 46.9463 22.1274 46.9463 19.7715V19.791V19.7527V19.7723C46.9463 17.4172 48.7324 15.4787 51.0239 15.2365C51.0492 15.2341 51.0752 15.2325 51.1013 15.2292C51.1405 15.226 51.1804 15.2227 51.2195 15.2202C51.2799 15.217 51.3402 15.2154 51.4021 15.2129C51.4372 15.2129 51.4722 15.2105 51.5073 15.2105C52.9111 15.2105 54.0833 15.8871 54.8031 16.6509C55.0322 16.8946 55.3159 17.2289 55.6289 17.5126C55.7781 17.6479 55.9264 17.7685 56.0683 17.8778C56.6552 18.296 57.3832 18.5446 58.1739 18.5446C58.9647 18.5446 59.6926 18.296 60.2796 17.8778C60.4222 17.7693 60.5698 17.6479 60.719 17.5126C61.032 17.2289 61.3157 16.8946 61.5447 16.6509C62.2637 15.8871 63.4368 15.2105 64.8406 15.2105C64.8756 15.2105 64.9098 15.2121 64.9449 15.2129C65.006 15.2145 65.068 15.2162 65.1283 15.2202C65.1666 15.2227 65.2058 15.2251 65.2441 15.2292C65.271 15.2308 65.2987 15.2333 65.3256 15.2365C67.5291 15.4697 69.2646 17.2713 69.3934 19.5049C69.3934 19.5196 69.395 19.5342 69.3958 19.5481C69.3975 19.5897 69.3983 19.6312 69.3991 19.6728C69.3999 19.7348 69.4007 19.7967 69.3991 19.8587C69.3983 19.9051 69.3983 19.9524 69.3958 19.9989C69.3958 20.0087 69.3942 20.0185 69.3942 20.0282C69.2703 22.2659 67.5331 24.074 65.3256 24.3072C65.2979 24.3096 65.2702 24.3121 65.2424 24.3145C65.2049 24.3178 65.1666 24.321 65.1291 24.3235C65.0688 24.3267 65.006 24.3284 64.9449 24.3308C64.9098 24.3308 64.8756 24.3333 64.8406 24.3333V24.3349L64.8414 24.3333Z" fill="#C3C4C5"/>
<path d="M34.8264 17.3634L37.4358 18.2104C37.8239 18.3685 39.2268 18.719 40.28 19.7715C41.2493 20.7407 41.6838 22.0385 41.6838 23.3004C41.6838 27.14 37.7203 28.5437 34.8419 28.5437C30.4562 28.5437 28.5649 26.6019 28 26.0876L30.5931 22.7746C30.7765 23.0241 32.5618 24.6846 34.8419 24.6846C35.719 24.6846 37.1228 24.3341 37.1228 23.2809C37.1228 22.579 36.403 22.0263 34.8419 21.5266L32.2333 20.6779C30.4382 19.9663 29.0524 18.719 29.0524 16.2629C29.0524 14.9178 29.5692 13.8947 29.8048 13.5279C31.2632 11.2568 34.1816 11 35.1924 11C36.9695 11 38.2828 11.3277 39.2358 11.7304C40.4455 12.2415 41.074 12.8733 41.3333 13.1048L39.1714 15.8683C36.7038 14.3423 35.1663 14.4564 34.3161 14.758C33.7373 14.9635 33.5531 15.4249 33.527 15.7232C33.4944 16.0909 33.5531 16.8873 34.828 17.3626L34.8264 17.3634Z" fill="#C3C4C5"/>
<path d="M82.3858 11.0881H75.3687V28.4566H79.5791V22.6671H82.3858C85.3409 22.6671 88 20.9128 88 16.8776C88 12.8424 85.3409 11.0881 82.3858 11.0881ZM83.7888 16.8776C83.7888 18.1371 82.7673 19.1585 81.5079 19.1585H79.5783V14.5967H81.5079C82.7673 14.5967 83.7888 15.6182 83.7888 16.8776Z" fill="#C3C4C5"/>
</svg>
