<svg width="115" height="40" viewBox="0 0 115 40" fill="none" xmlns="http://www.w3.org/2000/svg">
<path d="M42.793 13.4836L40.4928 26.5164H45.0984L47.3986 13.4836H42.793Z" fill="#BABABA"/>
<path d="M48.9867 13.4836L48.3719 16.9672H53.9867L46.6865 26.5164H51.9273L55.9027 21.3166L54.9857 26.5164H59.5912L60.7387 20H56.9068L61.8914 13.4836H48.9867Z" fill="#BABABA"/>
<path d="M41.1998 13.4836H35.9641L38.6281 10H33.3924L28.4078 16.5164H33.6486L26 26.5164H31.2357L35.2162 21.3166L34.2992 26.5164H38.9047L40.0523 20H36.2203L41.1998 13.4836Z" fill="#BABABA"/>
<path d="M63.4795 13.4836L61.1793 26.5164H65.7848L68.085 13.4836H63.4795Z" fill="#BABABA"/>
<path d="M69.6731 13.4836L69.0584 16.9672H74.6475L67.3781 26.5164H72.6137L76.543 21.3576L75.6311 26.5164H80.2418L81.3893 20H77.5727L82.5369 13.4836H69.6731Z" fill="#BABABA"/>
<path d="M86.9939 23.0328L88.6793 13.4836H84.0686L81.7736 26.5164H84.75L84.1404 30H88.7459L89.9754 23.0328H86.9939Z" fill="#BABABA"/>
</svg>
