<?xml version="1.0" encoding="UTF-8"?>
<svg width="115px" height="40px" viewBox="0 0 115 40" version="1.1" xmlns="http://www.w3.org/2000/svg" xmlns:xlink="http://www.w3.org/1999/xlink">
    <title>C84338F0-E45F-43DE-B6CE-6C928814A217</title>
    <defs>
        <polygon id="path-1" points="0 0.78534 23.5425455 0.78534 23.5425455 17.09964 0 17.09964"></polygon>
    </defs>
    <g id="Page-1" stroke="none" stroke-width="1" fill="none" fill-rule="evenodd">
        <g id="0525_Release-_Image-Resource" transform="translate(-225.000000, -551.000000)">
            <g id="btn_addch_youtube" transform="translate(225.000000, 551.000000)">
                <g id="Page-1" transform="translate(20.000000, 11.000000)">
                    <g id="Group-3" transform="translate(0.000000, 0.115020)">
                        <mask id="mask-2" fill="white">
                            <use xlink:href="#path-1"></use>
                        </mask>
                        <g id="Clip-2"></g>
                        <path d="M9.41709091,12.43854 L9.41709091,5.44644 L15.5334545,8.94294 L9.41709091,12.43854 Z M23.0507273,3.33234 C22.7798182,2.32974 21.9825455,1.54044 20.9689091,1.27224 C19.1334545,0.78534 11.7716364,0.78534 11.7716364,0.78534 C11.7716364,0.78534 4.40890909,0.78534 2.57345455,1.27224 C1.56072727,1.54044 0.762545455,2.32974 0.491636364,3.33234 C-0.000181818182,5.15034 -0.000181818182,8.94204 -0.000181818182,8.94204 C-0.000181818182,8.94204 -0.000181818182,12.73464 0.491636364,14.55264 C0.762545455,15.55524 1.56072727,16.34454 2.57345455,16.61274 C4.40890909,17.09964 11.7716364,17.09964 11.7716364,17.09964 C11.7716364,17.09964 19.1334545,17.09964 20.9689091,16.61274 C21.9825455,16.34454 22.7798182,15.55524 23.0507273,14.55264 C23.5425455,12.73464 23.5425455,8.94204 23.5425455,8.94204 C23.5425455,8.94204 23.5425455,5.15034 23.0507273,3.33234 L23.0507273,3.33234 Z" id="Fill-1" fill="#BABABA" mask="url(#mask-2)"></path>
                    </g>
                    <path d="M36.7818182,14.14233 C36.9109091,13.80933 36.9754545,13.26483 36.9754545,12.50883 L36.9754545,9.32553 C36.9754545,8.59203 36.9109091,8.05653 36.7818182,7.71723 C36.6527273,7.37793 36.4254545,7.20873 36.1,7.20873 C35.7854545,7.20873 35.5636364,7.37793 35.4345455,7.71723 C35.3054545,8.05653 35.2409091,8.59203 35.2409091,9.32553 L35.2409091,12.50883 C35.2409091,13.26483 35.3027273,13.80933 35.4263636,14.14233 C35.55,14.47533 35.7745455,14.64273 36.1,14.64273 C36.4254545,14.64273 36.6527273,14.47533 36.7818182,14.14233 M34.1718182,15.74253 C33.7063636,15.43113 33.3754545,14.94783 33.1790909,14.29263 C32.9827273,13.63653 32.8845455,12.76443 32.8845455,11.67543 L32.8845455,10.19223 C32.8845455,9.09243 32.9963636,8.20863 33.2209091,7.54173 C33.4454545,6.87573 33.7963636,6.38973 34.2736364,6.08373 C34.75,5.77773 35.3763636,5.62563 36.15,5.62563 C36.9136364,5.62563 37.5254545,5.78133 37.9854545,6.09183 C38.4454545,6.40323 38.7827273,6.88923 38.9954545,7.55073 C39.2090909,8.21133 39.3154545,9.09243 39.3154545,10.19223 L39.3154545,11.67543 C39.3154545,12.76443 39.2118182,13.64013 39.0045455,14.30073 C38.7963636,14.96223 38.46,15.44553 37.9936364,15.75063 C37.5281818,16.05663 36.8963636,16.20873 36.1,16.20873 C35.2809091,16.20873 34.6381818,16.05303 34.1718182,15.74253" id="Fill-4" fill="#BABABA"></path>
                    <path d="M70.2252727,7.39962 C70.1070909,7.54452 70.0289091,7.78032 69.9898182,8.10792 C69.9498182,8.43552 69.9307273,8.93322 69.9307273,9.60012 L69.9307273,10.33272 L71.6307273,10.33272 L71.6307273,9.60012 C71.6307273,8.94402 71.6089091,8.44722 71.5634545,8.10792 C71.5189091,7.76952 71.438,7.53012 71.3198182,7.39152 C71.2016364,7.25202 71.0189091,7.18272 70.7725455,7.18272 C70.5252727,7.18272 70.3434545,7.25562 70.2252727,7.39962 L70.2252727,7.39962 Z M69.9307273,11.69982 L69.9307273,12.21642 C69.9307273,12.87252 69.9498182,13.36392 69.9898182,13.69152 C70.0289091,14.02002 70.1098182,14.25852 70.2334545,14.40882 C70.3570909,14.55822 70.548,14.63382 70.8061818,14.63382 C71.1534545,14.63382 71.3925455,14.49972 71.5216364,14.23332 C71.6507273,13.96692 71.7207273,13.52232 71.7325455,12.89952 L73.7352727,13.01652 C73.7470909,13.10562 73.7525455,13.22802 73.7525455,13.38372 C73.7525455,14.32782 73.4916364,15.03342 72.9698182,15.50052 C72.448,15.96672 71.7098182,16.19982 70.7552727,16.19982 C69.6107273,16.19982 68.808,15.84432 68.348,15.13332 C67.888,14.42232 67.658,13.32252 67.658,11.83302 L67.658,10.05012 C67.658,8.51652 67.8961818,7.39692 68.3734545,6.69132 C68.8507273,5.98572 69.6670909,5.63292 70.8234545,5.63292 C71.6198182,5.63292 72.2316364,5.77692 72.658,6.06582 C73.0843636,6.35562 73.3843636,6.80562 73.5589091,7.41582 C73.7325455,8.02782 73.8198182,8.87202 73.8198182,9.94932 L73.8198182,11.69982 L69.9307273,11.69982 Z" id="Fill-6" fill="#BABABA"></path>
                    <path d="M28.5147273,11.50857 L25.8710909,2.05767 L28.1783636,2.05767 L29.1038182,6.34167 C29.3392727,7.39737 29.5138182,8.29737 29.6256364,9.04167 L29.6929091,9.04167 C29.772,8.50797 29.9456364,7.61427 30.2147273,6.35787 L31.1747273,2.05767 L33.4810909,2.05767 L30.8047273,11.50857 L30.8047273,16.04277 L28.5147273,16.04277 L28.5147273,11.50857 Z" id="Fill-8" fill="#BABABA"></path>
                    <path d="M46.8171818,5.82516 L46.8171818,16.04196 L44.999,16.04196 L44.7971818,14.79186 L44.7462727,14.79186 C44.2526364,15.73686 43.5117273,16.20936 42.5235455,16.20936 C41.839,16.20936 41.3344545,15.98706 41.009,15.54246 C40.6826364,15.09786 40.5208182,14.40306 40.5208182,13.45896 L40.5208182,5.82516 L42.8435455,5.82516 L42.8435455,13.32576 C42.8435455,13.78116 42.8944545,14.10606 42.9953636,14.30046 C43.0962727,14.49486 43.2644545,14.59206 43.5008182,14.59206 C43.7026364,14.59206 43.8962727,14.53176 44.0817273,14.40846 C44.2662727,14.28696 44.4035455,14.13126 44.4935455,13.94226 L44.4935455,5.82516 L46.8171818,5.82516 Z" id="Fill-10" fill="#BABABA"></path>
                    <path d="M58.7345455,5.82516 L58.7345455,16.04196 L56.9163636,16.04196 L56.7145455,14.79186 L56.6636364,14.79186 C56.17,15.73686 55.4290909,16.20936 54.4409091,16.20936 C53.7563636,16.20936 53.2518182,15.98706 52.9263636,15.54246 C52.6,15.09786 52.4381818,14.40306 52.4381818,13.45896 L52.4381818,5.82516 L54.7609091,5.82516 L54.7609091,13.32576 C54.7609091,13.78116 54.8118182,14.10606 54.9127273,14.30046 C55.0136364,14.49486 55.1818182,14.59206 55.4181818,14.59206 C55.62,14.59206 55.8136364,14.53176 55.9990909,14.40846 C56.1836364,14.28696 56.3209091,14.13126 56.4109091,13.94226 L56.4109091,5.82516 L58.7345455,5.82516 Z" id="Fill-12" fill="#BABABA"></path>
                    <polygon id="Fill-14" fill="#BABABA" points="53.1305455 3.90834 50.8241818 3.90834 50.8241818 16.04214 48.5514545 16.04214 48.5514545 3.90834 46.2450909 3.90834 46.2450909 2.05794 53.1305455 2.05794"></polygon>
                    <path d="M64.2942727,11.62593 C64.2942727,12.37023 64.2633636,12.95433 64.2015455,13.37643 C64.1397273,13.79853 64.0360909,14.09823 63.8897273,14.27643 C63.7442727,14.45373 63.5479091,14.54283 63.3006364,14.54283 C63.1097273,14.54283 62.9333636,14.49873 62.7706364,14.40963 C62.6079091,14.32053 62.4760909,14.18733 62.3751818,14.00913 L62.3751818,8.20863 C62.4533636,7.93143 62.5879091,7.70373 62.7788182,7.52553 C62.9697273,7.34823 63.177,7.25913 63.4015455,7.25913 C63.6379091,7.25913 63.8197273,7.35093 63.9488182,7.53363 C64.0779091,7.71723 64.1679091,8.02593 64.2188182,8.45883 C64.2688182,8.89263 64.2942727,9.50913 64.2942727,10.30923 L64.2942727,11.62593 Z M66.4242727,7.45803 C66.2833636,6.81453 66.0560909,6.34743 65.7424545,6.05853 C65.4279091,5.76963 64.9951818,5.62473 64.4460909,5.62473 C64.0188182,5.62473 63.6206364,5.74443 63.2506364,5.98293 C62.8797273,6.22233 62.5933636,6.53643 62.3915455,6.92523 L62.3751818,6.92523 L62.3751818,1.54143 L60.1360909,1.54143 L60.1360909,16.04223 L62.0551818,16.04223 L62.2906364,15.07563 L62.3415455,15.07563 C62.5206364,15.42033 62.7897273,15.69213 63.1497273,15.89193 C63.5088182,16.09263 63.907,16.19253 64.3451818,16.19253 C65.1306364,16.19253 65.7088182,15.83433 66.0788182,15.11703 C66.4488182,14.40063 66.6342727,13.28103 66.6342727,11.75823 L66.6342727,10.14183 C66.6342727,8.99793 66.5642727,8.10333 66.4242727,7.45803 L66.4242727,7.45803 Z" id="Fill-16" fill="#BABABA"></path>
                </g>
            </g>
        </g>
    </g>
</svg>