<svg width="115" height="40" viewBox="0 0 115 40" fill="none" xmlns="http://www.w3.org/2000/svg">
<path d="M21.1176 10.0799C19.4812 10.7653 17.6801 12.7017 17.1114 15.1323C16.3914 18.2118 19.3876 19.5142 19.6334 19.0871C19.9226 18.5854 19.0965 18.4157 18.9263 16.8179C18.7065 14.7542 19.6659 12.4481 20.8734 11.4363C21.0979 11.2484 21.0872 11.5101 21.0872 11.9939L21.0394 22.2497C21.0394 24.4437 20.9488 25.1367 20.7861 25.8211C20.6211 26.5149 20.356 26.9838 20.557 27.1642C20.7814 27.3662 21.7398 26.8857 22.2944 26.1115C22.9596 25.1828 23.1924 24.0677 23.2343 22.8565C23.2848 21.3966 23.2828 19.08 23.2848 17.7584L23.2646 10.8643C23.2545 10.341 21.8031 9.79203 21.1183 10.0789M79.264 20.3472C79.2111 21.4878 78.9587 22.3792 78.6454 23.0081C78.0388 24.2255 76.78 24.6035 76.2455 22.8536C75.9543 21.8996 75.9407 20.3064 76.1501 18.9752C76.3622 17.6191 76.9584 16.5948 77.944 16.6873C78.9161 16.7786 79.3712 18.0311 79.2641 20.3473L79.264 20.3472ZM62.8753 27.424C62.8621 29.3192 62.5638 30.9809 61.9242 31.4645C61.0171 32.1489 59.7977 31.6355 60.0502 30.2526C60.2737 29.0288 61.3301 27.7791 62.8779 26.2521L62.8754 27.425L62.8753 27.424ZM62.6275 20.3365C62.5719 21.3753 62.3027 22.4189 62.0089 23.0086C61.4024 24.226 60.1345 24.6067 59.609 22.8541C59.2497 21.6566 59.3358 20.1067 59.5135 19.1303C59.7443 17.8633 60.3035 16.6878 61.3075 16.6878C62.2838 16.6878 62.7652 17.7588 62.6276 20.3366L62.6275 20.3365ZM53.134 20.3206C53.0744 21.4208 52.8598 22.3406 52.5154 23.0085C51.8921 24.2177 50.6593 24.601 50.1155 22.854C49.7236 21.5942 49.8569 19.8764 50.0201 18.9485C50.2621 17.5715 50.868 16.5952 51.8141 16.6879C52.7858 16.7828 53.2581 18.0316 53.1341 20.3208L53.134 20.3206ZM96.6408 21.6057C96.4032 21.6057 96.2948 21.8505 96.2052 22.2627C95.8941 23.6957 95.5672 24.0203 95.1446 24.0203C94.6736 24.0203 94.2503 23.3107 94.1415 21.8902C94.0561 20.7733 94.0698 18.717 94.1791 16.6716C94.2013 16.2514 94.0855 15.8355 92.9583 15.4261C92.4732 15.25 91.7681 14.9908 91.4171 15.838C90.4252 18.2321 90.0373 20.1328 89.9459 20.9049C89.9411 20.9449 89.8921 20.9529 89.8836 20.8596C89.8254 20.2412 89.6953 19.1174 89.6791 16.7563C89.6761 16.2956 89.5784 15.9035 89.07 15.5825C88.7401 15.3742 87.7382 15.0057 87.3775 15.4441C87.065 15.8027 86.7031 16.7674 86.327 17.9108L85.8084 19.469L85.8161 16.01C85.8177 15.6511 85.5716 15.5316 85.4974 15.51C85.1633 15.413 84.5051 15.251 84.2246 15.251C83.8799 15.251 83.7955 15.4437 83.7955 15.7244L83.741 21.3091L83.742 21.6313C83.5513 22.6807 82.9329 24.1051 82.2604 24.1051C81.5872 24.1051 81.2705 23.5097 81.2705 20.7879C81.2705 19.2002 81.3182 18.5097 81.3416 17.3615L81.38 16.0768C81.3749 15.7233 80.7638 15.5452 80.4794 15.4794C80.1935 15.413 79.9453 15.3872 79.7514 15.3982C79.4769 15.4137 79.2827 15.5938 79.2827 15.8414L79.2842 16.2266C78.9306 15.6711 78.3622 15.2846 77.9839 15.1726C76.9651 14.87 75.9021 15.1382 75.1 16.2602C74.4626 17.1517 74.0785 18.1615 73.9283 19.6124C73.8178 20.673 73.8538 21.7486 74.0503 22.6582C73.8129 23.6845 73.3722 24.1051 72.8897 24.1051C72.189 24.1051 71.6811 22.9617 71.7401 20.9838C71.779 19.683 72.0393 18.77 72.324 17.4494C72.4452 16.8864 72.3467 16.5916 72.0995 16.3092C71.8728 16.0501 71.3896 15.9177 70.6951 16.0806C70.2003 16.1967 69.493 16.3215 68.8458 16.4174C68.8458 16.4174 68.8849 16.2616 68.9169 15.9868C69.0852 14.5464 67.5199 14.6632 67.0204 15.1232C66.7224 15.3979 66.5194 15.7219 66.4423 16.3044C66.3201 17.2289 67.0742 17.6649 67.0742 17.6649C66.8267 18.7962 66.2204 20.2764 65.5943 21.3458C65.259 21.9187 65.0024 22.3434 64.6714 22.7947L64.6686 22.2914L64.7067 17.3619L64.7454 16.0908C64.7417 15.8322 64.5907 15.7346 64.2767 15.611C63.9989 15.5017 63.6706 15.4259 63.3302 15.3996C62.9004 15.366 62.6413 15.594 62.6482 15.8636C62.6495 15.9145 62.6495 16.227 62.6495 16.227C62.296 15.6715 61.7274 15.285 61.3493 15.173C60.3304 14.8705 59.2674 15.1386 58.4653 16.2606C57.8282 17.1521 57.4108 18.4033 57.2936 19.6017C57.1825 20.7187 57.2037 21.6679 57.3539 22.4674C57.1919 23.2681 56.7261 24.1054 56.1995 24.1054C55.5263 24.1054 55.1431 23.51 55.1431 20.7882C55.1431 19.2005 55.1908 18.51 55.2142 17.3618L55.2526 16.0771C55.2476 15.7236 54.6365 15.5455 54.352 15.4796C54.0544 15.4109 53.7964 15.3854 53.6002 15.4C53.3399 15.4193 53.1567 15.6525 53.1567 15.8262V16.2268C52.8032 15.6713 52.2348 15.2848 51.8565 15.1728C50.8377 14.8703 49.7805 15.1428 48.9726 16.2604C48.4458 16.9892 48.0193 17.7971 47.8008 19.5857C47.7374 20.1026 47.7094 20.5866 47.7129 21.039C47.5028 22.3237 46.5751 23.8043 45.8161 23.8043C45.372 23.8043 44.949 22.9429 44.949 21.1071C44.949 18.6616 45.1003 15.1799 45.126 14.8443L46.2705 14.8258C46.7488 14.8205 47.182 14.8319 47.819 14.7992C48.1385 14.7831 48.4463 13.6362 48.1166 13.4941C47.9671 13.4299 46.9107 13.3736 46.4919 13.3648C46.1398 13.3568 45.1595 13.2843 45.1595 13.2843L45.2679 10.7292C45.2853 10.5258 45.0221 10.4211 44.8709 10.3575C44.5039 10.2022 44.1755 10.1279 43.7861 10.0477C43.2483 9.93678 43.0042 10.0453 42.9565 10.4992C42.8858 11.1881 42.8474 13.206 42.8474 13.206C42.4528 13.206 41.1046 13.1288 40.7098 13.1288C40.3431 13.1288 39.9472 14.7063 40.4543 14.7258L42.7287 14.7884L42.6999 19.7569C42.3288 21.6906 41.022 22.7352 41.022 22.7352C41.3027 21.456 40.7294 20.4953 39.6968 19.6821C39.3163 19.3824 38.5654 18.8151 37.725 18.1935C37.725 18.1935 38.2117 17.7139 38.6442 16.749C38.95 16.0654 38.9632 15.2833 38.2127 15.1108C36.9724 14.8256 35.95 15.7363 35.6449 16.7088C35.4086 17.462 35.5346 18.0209 35.9975 18.6018C36.0313 18.6442 36.0679 18.6876 36.1058 18.7311C35.8257 19.2707 35.4411 19.9971 35.1155 20.5604C34.2115 22.1246 33.5284 23.3618 33.0124 23.3618C32.5998 23.3618 32.6054 22.1057 32.6054 20.9296C32.6054 19.9157 32.6801 18.3914 32.74 16.8133C32.7598 16.2914 32.4988 15.9941 32.0612 15.7247C31.7955 15.5611 31.228 15.2394 30.8996 15.2394C30.4076 15.2394 28.9889 15.3063 27.6483 19.1844C27.4793 19.6733 27.1472 20.5638 27.1472 20.5638L27.1758 15.9004C27.1758 15.7911 27.1176 15.6852 26.9842 15.613C26.7583 15.4904 26.1559 15.2394 25.6185 15.2394C25.3629 15.2394 25.2353 15.3583 25.2353 15.5953L25.1885 22.8915C25.1885 23.4458 25.2029 24.0935 25.2578 24.3753C25.3126 24.6572 25.4008 24.8889 25.5103 25.0259C25.6198 25.1628 25.7463 25.2671 25.955 25.3101C26.1492 25.3501 27.2126 25.4867 27.2679 25.0803C27.3342 24.5934 27.3366 24.0664 27.8952 22.1019C28.7645 19.0432 29.898 17.5507 30.4309 17.0207C30.524 16.9281 30.6304 16.9225 30.6253 17.0742L30.4687 20.844C30.3243 24.6537 31.0174 25.3599 32.0079 25.3599C32.7655 25.3599 33.8337 24.6071 34.9776 22.7013L36.8825 19.5098L38.0081 20.5462C38.9125 21.4045 39.2094 22.2201 39.0124 22.9937C38.8617 23.5852 38.2942 24.1957 37.2844 23.6023C36.99 23.4296 36.8644 23.2959 36.5684 23.101C36.4094 22.9963 36.1666 22.965 36.0209 23.0747C35.6428 23.3598 35.4265 23.7224 35.303 24.1714C35.1828 24.6083 35.6204 24.8391 36.0739 25.0401C36.4644 25.2139 37.3038 25.3714 37.839 25.3894C39.9246 25.4601 41.5953 24.3823 42.7584 21.605C42.9664 24.0036 43.8526 25.361 45.392 25.361C46.4213 25.361 47.453 24.0307 47.9042 22.722C48.0336 23.2553 48.2254 23.7194 48.4731 24.1116C49.6592 25.991 51.9604 25.5864 53.1163 23.9906C53.4737 23.4974 53.5281 23.3203 53.5281 23.3203C53.6968 24.8272 54.9103 25.3537 55.605 25.3537C56.3832 25.3537 57.1866 24.9858 57.7498 23.718C57.8157 23.8555 57.8877 23.987 57.9664 24.1115C59.1526 25.9909 61.4538 25.5863 62.6097 23.9905C62.6586 23.9234 62.7063 23.8555 62.7528 23.7867L62.7868 24.7767L61.7226 25.7527C59.941 27.387 58.5865 28.6272 58.4868 30.0713C58.3589 31.9127 59.8521 32.5969 60.982 32.6865C62.1818 32.7817 63.2093 32.1188 63.8406 31.1915C64.3962 30.3751 64.7597 28.6179 64.733 26.8825L64.6911 24.3568C65.3173 23.6295 66.0227 22.7106 66.6723 21.6348C67.3802 20.4624 68.139 18.888 68.5273 17.6627C68.5273 17.6627 69.1864 17.6684 69.89 17.6223C70.115 17.6077 70.1796 17.6537 70.1381 17.8185C70.0879 18.0178 69.2494 21.2519 70.0145 23.4065C70.5384 24.8813 71.7191 25.3561 72.4192 25.3561C73.2388 25.3561 74.0227 24.7372 74.4428 23.8182C74.4933 23.9206 74.5464 24.0198 74.6042 24.1113C75.7903 25.9907 78.0834 25.5838 79.2474 23.9903C79.51 23.6307 79.6592 23.32 79.6592 23.32C79.909 24.8796 81.1219 25.3614 81.8166 25.3614C82.5402 25.3614 83.227 25.0648 83.7843 23.7462C83.8075 24.3268 83.8442 24.8014 83.9021 24.951C83.9374 25.0425 84.143 25.1574 84.2926 25.2129C84.9545 25.4584 85.6297 25.3422 85.8785 25.2917C86.0515 25.2567 86.1866 25.118 86.2048 24.7594C86.2533 23.8182 86.2235 22.2367 86.5078 21.0613C86.9868 19.0888 87.4336 18.3239 87.6455 17.9451C87.7641 17.7329 87.898 17.6978 87.9029 17.9224C87.913 18.377 87.9355 19.7114 88.1211 21.5047C88.2575 22.8234 88.4393 23.6029 88.5793 23.8496C88.9786 24.555 89.4716 24.5885 89.8722 24.5885C90.1278 24.5885 90.6619 24.5178 90.6141 24.069C90.5908 23.8502 90.6316 22.4978 91.1038 20.5545C91.4122 19.2855 91.9262 18.1389 92.1117 17.7197C92.1801 17.5652 92.2119 17.687 92.2107 17.7106C92.1716 18.5846 92.084 21.443 92.44 23.0064C92.9226 25.1244 94.3188 25.3613 94.8052 25.3613C95.8438 25.3613 96.6931 24.5714 96.9794 22.4926C97.0484 21.9923 96.9463 21.606 96.6405 21.606" fill="#BABABA"/>
</svg>
