<svg width="120" height="33" viewBox="0 0 120 33" xmlns="http://www.w3.org/2000/svg">
    <path d="M10.773 21.153c1.03 0 1.864-.155 2.502-.464v-1.8a4.1 4.1 0 0 1-2.111.56c-.806 0-1.447-.25-1.923-.753s-.714-1.177-.714-2.023c0-.883.252-1.583.757-2.1.504-.517 1.167-.775 1.99-.775.748 0 1.415.175 2.001.525v-1.898c-.586-.216-1.306-.324-2.16-.324-1.38 0-2.502.435-3.366 1.306-.865.871-1.297 2.006-1.297 3.406 0 1.314.384 2.366 1.153 3.156.77.789 1.825 1.184 3.168 1.184zm5.914 0c.798 0 1.435-.369 1.91-1.105h.031V21h1.923v-6.25h-1.923v3.577c0 .415-.104.743-.311.985-.208.242-.484.364-.83.364-.7 0-1.05-.442-1.05-1.325V14.75h-1.923v3.772c0 1.754.725 2.63 2.173 2.63zm6.989 0a5.11 5.11 0 0 0 1.083-.113c.348-.076.655-.196.922-.36a1.93 1.93 0 0 0 .64-.641c.161-.263.242-.58.242-.95 0-.264-.04-.492-.12-.683a1.462 1.462 0 0 0-.341-.5 2.225 2.225 0 0 0-.534-.373 5.595 5.595 0 0 0-.696-.293 26.648 26.648 0 0 0-.43-.143 2.832 2.832 0 0 1-.394-.159.954.954 0 0 1-.287-.21.423.423 0 0 1-.036-.522.544.544 0 0 1 .201-.165c.085-.043.184-.075.296-.098.112-.022.231-.033.357-.033.269 0 .542.035.821.106.279.072.54.178.784.32v-1.488a6.287 6.287 0 0 0-.842-.187 5.673 5.673 0 0 0-.842-.064 4.55 4.55 0 0 0-1.023.113 2.789 2.789 0 0 0-.872.354 1.87 1.87 0 0 0-.61.62 1.713 1.713 0 0 0-.23.903c0 .257.034.478.101.665.067.188.165.352.293.495.128.142.287.267.476.375.19.108.408.209.656.302.155.061.316.116.482.165.167.049.32.104.461.165.14.06.256.132.345.214.09.08.134.183.134.305 0 .19-.098.333-.296.427-.197.094-.467.14-.808.14-.281 0-.58-.046-.895-.14a4.106 4.106 0 0 1-.949-.427v1.562a5.585 5.585 0 0 0 1.91.318zm6.488 0c.574 0 1.003-.076 1.288-.226v-1.428a1.307 1.307 0 0 1-.629.177c-.517 0-.775-.326-.775-.977v-2.527h1.404V14.75h-1.404v-1.898l-1.923.55v1.348h-1.013v1.422h1.013v2.863c0 1.412.68 2.118 2.039 2.118zm5.304 0c1.058 0 1.89-.302 2.5-.904.607-.602.912-1.422.912-2.46 0-.96-.295-1.732-.885-2.316-.59-.584-1.404-.876-2.442-.876-1.054 0-1.89.292-2.508.876-.619.584-.928 1.393-.928 2.426 0 1.001.298 1.794.894 2.378.596.584 1.415.876 2.457.876zm.06-1.477c-.968 0-1.452-.6-1.452-1.801 0-.574.126-1.017.379-1.33.252-.314.606-.47 1.062-.47.931 0 1.397.583 1.397 1.751 0 1.233-.462 1.85-1.385 1.85zM42.06 21v-3.473c0-.447.098-.801.296-1.062.197-.26.46-.39.79-.39.655 0 .983.441.983 1.324V21h1.928v-3.497c0-.407.1-.747.3-1.02.199-.272.457-.409.775-.409.667 0 1 .454 1 1.362V21h1.923v-3.888c0-1.676-.68-2.515-2.038-2.515-.924 0-1.624.389-2.1 1.166-.326-.777-.93-1.166-1.813-1.166-.427 0-.82.105-1.18.315-.36.21-.64.48-.84.815h-.024v-.977h-1.93V21h1.93zm15.13 0v-3.35h.531a.76.76 0 0 1 .339.075c.104.051.203.125.299.22.096.096.19.21.284.345.093.134.191.287.293.458L60.296 21h2.265l-1.654-2.588a7.18 7.18 0 0 0-.284-.412 4.47 4.47 0 0 0-.326-.394 2.71 2.71 0 0 0-.354-.32 1.254 1.254 0 0 0-.379-.198v-.025c.297-.085.567-.203.81-.354.241-.15.448-.33.619-.537.17-.207.303-.44.396-.699.094-.258.14-.54.14-.845 0-1.587-1.061-2.38-3.185-2.38h-3.125V21h1.971zm.855-4.84h-.855v-2.435h.891c.916 0 1.374.382 1.374 1.147 0 .366-.13.673-.391.922-.256.244-.596.366-1.02.366zM66.779 21v-7.147h2.496v-1.605h-6.958v1.605h2.484V21h1.978zm5.45 0v-4.84c0-.651-.026-1.408-.08-2.27h.056c.126.655.218 1.061.274 1.22L74.567 21h1.611l2.051-5.95c.081-.237.173-.623.275-1.16h.048a26.477 26.477 0 0 0-.073 1.873V21h1.947v-8.752h-2.813l-1.789 5.175c-.122.358-.238.78-.348 1.264h-.036a7.305 7.305 0 0 0-.312-1.251l-1.788-5.188h-2.887V21h1.776zm12.158 0v-3.015h.94c1.058 0 1.904-.272 2.536-.815.633-.543.95-1.254.95-2.133 0-1.86-1.103-2.79-3.309-2.79h-3.088V21h1.971zm.776-4.51h-.776V13.76h.776c1.05 0 1.574.45 1.574 1.35 0 .919-.525 1.379-1.574 1.379z" fill="#A8A8A8" fill-rule="nonzero"/>
</svg>
