<svg xmlns="http://www.w3.org/2000/svg" xmlns:xlink="http://www.w3.org/1999/xlink" width="170" height="59" viewBox="0 0 170 59">
    <defs>
        <path id="prefix__a" d="M0 0.377L30.786 0.377 30.786 33.925 0 33.925z"/>
    </defs>
    <g fill="none" fill-rule="evenodd" transform="translate(34 11.8)">
        <path fill="#BABABA" d="M56.174 8.85L56.174 25.075 66.522 25.075 66.522 19.659 61.907 19.659 61.907 8.85zM68 25.075L73.913 25.075 73.913 8.85 68 8.85zM93.13 8.85L93.141 25.075 103.478 25.075 103.478 20.425 98.751 20.425 98.751 19.166 102.936 19.166 102.925 14.71 98.751 14.71 98.751 13.499 103.345 13.499 103.345 8.85zM46.857 8.85L44.665 16.458 44.425 17.291 44.337 17.291 44.079 16.456 41.827 8.85 35.478 8.85 41.776 25.075 46.944 25.075 53.217 8.85zM85.3 8.85L83.094 16.458 82.853 17.291 82.766 17.291 82.518 16.456 80.265 8.85 73.913 8.85 80.214 25.075 85.375 25.075 91.652 8.85z"/>
        <mask id="prefix__b" fill="#fff">
            <use xlink:href="#prefix__a"/>
        </mask>
        <path fill="#BABABA" d="M21.148 12.824c1.362.303 1.626 1.5 1.401 2.258l-1.784 5.862c-.295.966-1.278 1.568-2.243 1.37-.508-.105-1.073-.467-1.336-1.071 1.104-.666 1.869-1.85 1.92-3.2.028-.777-.225-1.525-.716-2.154l.516-1.695c.257-.843 1.168-1.609 2.242-1.37m-15.786-8.9c1.07-.217 2.153.433 2.469 1.477l2.123 6.862c.405 1.176 1.548 1.145 1.548 1.145s1.135.049 1.549-1.145l2.122-6.862c.317-1.046 1.406-1.702 2.47-1.476 1.6.337 1.798 1.78 1.57 2.46l-2.489 8.274c-.47-.181-.976-.28-1.488-.28h-9.04L3.79 6.383c-.294-.985.282-2.2 1.572-2.46M4.55 22.358V17.91c0-1.014.892-1.712 1.817-1.712h8.87c.34 0 1.938.203 1.938 1.896 0 1.694-1.6 1.896-2.004 1.896h-5.075c-.534 0-.966.409-.966.91 0 .503.432.91.966.91h.54c1.38 0 2.46 1.062 2.46 2.415v.953c0 .502.433.91.967.91s.966-.408.966-.91v-.953c0-.904-.28-1.734-.762-2.414h1.084c.532 1.373 1.727 2.057 2.761 2.28 1.606.347 3.071-.41 3.805-1.299.396.44.905.72 1.479.922-.818 3.92-4.557 6.709-9.357 6.709-6.39 0-9.489-4.733-9.489-8.067m19.773-.276c-1.147-.248-1.498-1.35-1.302-1.946.011-.034.977-3.223.994-3.265.269-.695 1.01-1.315 1.985-1.122 1.244.247 1.485 1.484 1.271 2.049l-.925 3.037c-.198.652-.966 1.474-2.023 1.247m5.813-7.504c-1.098-1.729-2.69-2.483-4.858-2.291-.367-.878-1.315-2.194-3.215-2.545l.71-2.351c.463-1.36.258-2.962-.55-4.286-.82-1.343-2.166-2.267-3.792-2.6-2.979-.613-5.98 1.12-6.833 3.941l-.096.411-.096-.413C10.546 1.61 7.54-.12 4.565.504 2.967.84 1.638 1.736.824 3.032.01 4.326-.217 5.938.215 7.341l2.11 7.014c-.951.958-1.492 2.234-1.492 3.556l.002 4.49v.014c.187 6.563 5.877 11.51 13.233 11.51 3.087 0 5.963-.89 8.318-2.571 2.224-1.59 3.822-3.824 4.526-6.32 1.335-.573 2.2-1.624 2.705-3.282l.924-3.04c.345-1.147.42-2.836-.405-4.135" mask="url(#prefix__b)"/>
    </g>
</svg>
