<svg width="170" height="59" viewBox="0 0 170 59" fill="none" xmlns="http://www.w3.org/2000/svg">
<path fill-rule="evenodd" clip-rule="evenodd" d="M100.261 20.2233C99.1861 20.2233 98.3452 21.1093 98.3452 22.2371V33.0234L92.2656 21.8898C91.6688 20.8318 90.6863 20.2736 89.5642 20.2736C87.8362 20.2736 86.631 21.5616 86.631 23.405V36.8353C86.631 37.9393 87.5208 38.8732 88.5712 38.8732C89.6319 38.8732 90.4627 37.9789 90.4627 36.8353V25.7219L96.7388 37.1571C97.5157 38.5338 98.6992 38.8224 99.4928 38.8224C101.021 38.8224 102.177 37.5761 102.177 35.9209V22.2371C102.177 21.1093 101.334 20.2233 100.261 20.2233ZM115.739 30.6493C115.56 33.4353 114.044 34.8463 111.239 34.8463H108.548V24.2001H111.239C114.127 24.2001 115.607 25.6394 115.763 28.5939C115.791 29.2773 115.783 30.0275 115.739 30.6493ZM111.165 20.3244H107.375C105.746 20.3244 104.693 21.3747 104.693 22.9983V36.0232C104.693 37.6119 105.796 38.7212 107.375 38.7212H111.165C116.274 38.7212 119.276 35.9119 119.618 30.8067C119.655 30.1645 119.68 29.1618 119.59 28.0351C119.256 23.0631 116.264 20.3244 111.165 20.3244ZM74.6963 30.023L76.6268 24.2564C76.6392 24.2192 76.6844 24.0982 76.8267 24.0982C76.9164 24.0982 76.9774 24.177 77.0035 24.2687L78.9052 30.023H74.6963ZM80.3383 22.6895C79.7461 21.0255 78.4676 20.0715 76.8267 20.0715C75.2005 20.0715 73.9308 21.0255 73.3404 22.6895L68.6334 36.0963C68.2796 37.1264 68.7728 38.299 69.707 38.654C69.93 38.745 70.1658 38.7919 70.4049 38.7919C71.1911 38.7919 71.9171 38.285 72.2149 37.5218L73.525 33.5925H80.1028L81.4104 37.5218C81.6609 38.2685 82.3791 38.7703 83.1998 38.7703C83.4488 38.7703 83.6918 38.7227 83.9167 38.6294C84.8404 38.2685 85.3427 37.0819 84.9937 36.0963L80.3383 22.6895ZM61.2626 34.9217H57.1851V31.0798H61.3112C62.2916 31.0798 63.4595 31.4133 63.4595 33.0006C63.4595 34.3115 62.7604 34.9217 61.2626 34.9217ZM57.1851 24.1745H61.0147C62.4149 24.1745 63.0131 24.6725 63.0131 25.8424C63.0131 26.9984 62.3597 27.5606 61.0147 27.5606H57.1851V24.1745ZM64.9936 29.1472C66.2231 28.355 66.8672 27.0384 66.8672 25.3091C66.8672 22.9079 65.2129 20.3244 61.5854 20.3244H56.0127C54.4337 20.3244 53.3302 21.4448 53.3302 23.0492V36.0232C53.3302 37.637 54.4073 38.7212 56.0127 38.7212H61.6594C65.2141 38.7212 67.3382 36.6977 67.3382 33.3052C67.3382 31.3627 66.4709 29.8421 64.9936 29.1472ZM114.085 43.468H57.3917C49.8973 43.468 43.8007 37.2383 43.8007 29.5811C43.8007 21.8333 49.8973 15.5316 57.3917 15.5316H114.085C121.579 15.5316 127.678 21.8333 127.678 29.5811C127.678 37.2383 121.579 43.468 114.085 43.468ZM114.453 13.275H57.0249C48.4044 13.275 41.3911 20.5898 41.3911 29.5811C41.3911 38.6331 48.2589 45.725 57.0249 45.725H114.453C123.219 45.725 130.087 38.6331 130.087 29.5811C130.087 20.5898 123.073 13.275 114.453 13.275Z" fill="#BABABA"/>
</svg>
