<svg width="170" height="59" viewBox="0 0 170 59" fill="none" xmlns="http://www.w3.org/2000/svg">
<path fill-rule="evenodd" clip-rule="evenodd" d="M130.869 24.5654H126.06V26.6308H130.082V29.085H126.06V31.3129H130.869V33.768H123.583V22.1095H130.869V24.5654ZM118.95 33.768H115.963L112.777 22.1095H115.388L117.457 30.8153L119.526 22.1095H122.135L118.95 33.768ZM108.567 33.768H111.043V22.1095H108.567V33.768ZM106.474 33.768H99.5703V22.1095H102.048V31.3129H106.474V33.768ZM134.949 15.367L94.6475 17.8186C94.0835 17.8527 93.6445 18.3197 93.6445 18.8845V37.2787C93.6445 37.8427 94.0835 38.3097 94.6475 38.3446L99.5712 38.6441V43.709C99.5712 43.8842 99.7703 43.9846 99.9106 43.8808L106.426 39.0609L134.949 40.7963C135.563 40.8337 136.081 40.3454 136.081 39.7304V16.432C136.081 15.8178 135.563 15.3304 134.949 15.367Z" fill="#BABABA"/>
<path fill-rule="evenodd" clip-rule="evenodd" d="M37.9463 24.4923H40.3716L43.2971 28.7159V24.4923H45.838V32.384H43.4127L40.4864 28.1604V32.384H37.9463V24.4923ZM34 36.3303H49.7843V20.546H34V36.3303Z" fill="#BABABA"/>
<path fill-rule="evenodd" clip-rule="evenodd" d="M71.8362 33.2316H66.9924V29.3951C66.9924 29.2692 66.8903 29.1671 66.7636 29.1671H64.0916C63.9657 29.1671 63.8636 29.2692 63.8636 29.3951V33.2316H61.1406V29.3951C61.1406 29.2692 61.0394 29.1671 60.9126 29.1671H58.2415C58.1147 29.1671 58.0127 29.2692 58.0127 29.3951V33.2316H53.1689C53.043 33.2316 52.9409 33.3329 52.9409 33.4596V35.7054C52.9409 35.8313 53.043 35.9334 53.1689 35.9334H71.8362C71.9612 35.9334 72.0641 35.8313 72.0641 35.7054V33.4596C72.0641 33.3329 71.9612 33.2316 71.8362 33.2316Z" fill="#BABABA"/>
<path fill-rule="evenodd" clip-rule="evenodd" d="M55.6318 29.5074C55.7083 29.6095 55.8538 29.6291 55.9542 29.5517L62.5018 24.485L69.0495 29.5517C69.1516 29.6291 69.2953 29.6095 69.3719 29.5074L70.8555 27.5254C70.9295 27.4258 70.9108 27.2846 70.8129 27.2081L64.8012 22.56C64.3784 22.2325 64.1309 21.7289 64.1309 21.1955V18.9837C64.1309 18.8578 64.0288 18.7557 63.9037 18.7557H61.1016C60.9749 18.7557 60.8728 18.8578 60.8728 18.9837V21.1955C60.8728 21.7289 60.6261 22.2325 60.2033 22.56L54.1924 27.2081C54.0937 27.2846 54.0742 27.4258 54.149 27.5254L55.6318 29.5074Z" fill="#BABABA"/>
<path fill-rule="evenodd" clip-rule="evenodd" d="M89.4727 17.9004H86.7786C86.6527 17.9004 86.5498 18.0025 86.5498 18.1292V28.7448C86.5498 28.8707 86.6527 28.9737 86.7786 28.9737H89.4727C89.5978 28.9737 89.7007 28.8707 89.7007 28.7448V18.1292C89.7007 18.0025 89.5978 17.9004 89.4727 17.9004Z" fill="#BABABA"/>
<path fill-rule="evenodd" clip-rule="evenodd" d="M77.1254 25.8351H80.0696V20.9743H77.1254V25.8351ZM84.7466 28.2187V26.0631C84.7466 25.9372 84.6445 25.8351 84.5186 25.8351H82.9534V20.9743H84.5186C84.6445 20.9743 84.7466 20.8722 84.7466 20.7463V18.5899C84.7466 18.4648 84.6445 18.3619 84.5186 18.3619H72.5972C72.4722 18.3619 72.3701 18.4648 72.3701 18.5899V20.7463C72.3701 20.8722 72.4722 20.9743 72.5972 20.9743H74.2297V25.8351H72.5972C72.4722 25.8351 72.3701 25.9372 72.3701 26.0631V28.2187C72.3701 28.3454 72.4722 28.4475 72.5972 28.4475H84.5186C84.6445 28.4475 84.7466 28.3454 84.7466 28.2187Z" fill="#BABABA"/>
<path fill-rule="evenodd" clip-rule="evenodd" d="M83.1387 37.4909C81.656 37.4909 80.4497 36.3399 80.4497 34.9252C80.4497 33.5106 81.656 32.3596 83.1387 32.3596C84.6215 32.3596 85.8277 33.5106 85.8277 34.9252C85.8277 36.3399 84.6215 37.4909 83.1387 37.4909ZM83.1387 29.509C79.9955 29.509 77.4375 31.9394 77.4375 34.9252C77.4375 37.912 79.9955 40.3415 83.1387 40.3415C86.282 40.3415 88.84 37.912 88.84 34.9252C88.84 31.9394 86.282 29.509 83.1387 29.509Z" fill="#BABABA"/>
</svg>
