<svg width="90" height="33" viewBox="0 0 90 33" fill="none" xmlns="http://www.w3.org/2000/svg">
<path fill-rule="evenodd" clip-rule="evenodd" d="M31.2734 11.8564C30.6356 11.8564 30.1166 12.3727 30.1166 13.0075V16.5658L27.0141 12.5107C26.7703 12.1992 26.4427 11.8802 25.8618 11.8802H25.6706C25.0152 11.8802 24.5018 12.3912 24.5018 13.0434V19.7491C24.5018 20.3839 25.0209 20.9005 25.6584 20.9005C26.2965 20.9005 26.8153 20.3839 26.8153 19.7491V16.0476L30.0494 20.2697C30.2932 20.5815 30.6204 20.9005 31.2017 20.9005H31.2612C31.9166 20.9005 32.43 20.3892 32.43 19.7372V13.0075C32.43 12.3727 31.9113 11.8564 31.2734 11.8564Z" fill="#BABABA"/>
<path fill-rule="evenodd" clip-rule="evenodd" d="M49.2365 11.8564C48.6258 11.8564 48.1911 12.2581 48.03 12.6595L46.3107 17.087L44.6149 12.7178C44.4051 12.1788 43.9367 11.8564 43.3617 11.8564C42.6514 11.8564 42.0953 12.405 42.0953 13.1053C42.0953 13.3272 42.1625 13.5182 42.2286 13.6759L44.8746 19.9756L44.8752 19.972C45.1293 20.5736 45.6103 20.9002 46.229 20.9002H46.3457C46.9644 20.9002 47.4454 20.5736 47.7001 19.9713L50.3662 13.6232C50.4129 13.5185 50.4913 13.3101 50.4913 13.0813C50.4913 12.3938 49.9401 11.8564 49.2365 11.8564Z" fill="#BABABA"/>
<path fill-rule="evenodd" clip-rule="evenodd" d="M57.4897 18.3816H54.1781V17.4709H56.9067C57.5538 17.4709 58.0798 17.0217 58.0798 16.3846C58.0798 15.7406 57.5538 15.2862 56.9067 15.2862H54.1781V14.3755H57.4311C58.0782 14.3755 58.6045 13.8352 58.6045 13.1981C58.6045 12.554 58.0782 12.0088 57.4311 12.0088H52.9084C52.1984 12.0088 51.7998 12.5102 51.7998 13.2165V19.5514C51.7998 20.258 52.1984 20.7483 52.9084 20.7483H57.4897C58.1367 20.7483 58.6628 20.2083 58.6628 19.5705C58.6628 18.9268 58.1367 18.3816 57.4897 18.3816Z" fill="#BABABA"/>
<path fill-rule="evenodd" clip-rule="evenodd" d="M64.0044 16.1579H62.5732V14.1547H64.0044C64.3597 14.1547 65.1169 14.2752 65.1169 15.1563C65.1169 16.0374 64.3597 16.1579 64.0044 16.1579ZM67.6961 14.9452V14.9222C67.6961 14.0638 67.3884 13.3582 66.8601 12.8324C66.2484 12.2232 65.3075 11.9272 64.193 11.9272H61.3604C60.6505 11.9272 60.012 12.429 60.012 13.1353V19.5697C60.012 20.2762 60.5827 20.8297 61.2926 20.8297C62.0026 20.8297 62.5732 20.2762 62.5732 19.5697V18.118H63.5131L65.1818 20.2219C65.5017 20.6286 65.8864 20.8297 66.3582 20.8297C67.0308 20.8297 67.5779 20.2973 67.5779 19.6411C67.5779 19.2305 67.3947 18.9661 67.2025 18.7241L66.2474 17.5401C67.179 17.0014 67.6961 16.1134 67.6961 14.9452Z" fill="#BABABA"/>
<path fill-rule="evenodd" clip-rule="evenodd" d="M38.1291 17.1317H37.0758L38.1291 14.6353L39.1825 17.1317H38.1291ZM42.3822 19.1698L39.5388 12.7783C39.2738 12.1896 38.769 11.8511 38.1523 11.8511H38.1291H38.1057C37.4893 11.8511 36.9842 12.1896 36.7192 12.7783L33.8761 19.1698C33.8079 19.319 33.7388 19.4991 33.7388 19.7036C33.7388 20.3772 34.2641 20.9057 34.9354 20.9057C35.4531 20.9057 35.8891 20.6749 36.1022 20.1856L36.5779 19.1346H39.6804L40.1561 20.1856C40.3692 20.6749 40.8048 20.9057 41.3229 20.9057C41.9942 20.9057 42.5195 20.3772 42.5195 19.7036C42.5195 19.4991 42.4504 19.319 42.3822 19.1698Z" fill="#BABABA"/>
<path fill-rule="evenodd" clip-rule="evenodd" d="M85.2337 12.0466C84.5929 11.749 83.8307 12.0252 83.5316 12.663L81.7193 16.5357L79.9071 12.663C79.6881 12.1958 79.2206 11.9258 78.7343 11.9297V11.9268H71.1985C70.5418 11.9268 70.0092 12.4565 70.0092 13.1101C70.0092 13.764 70.5418 14.2938 71.1985 14.2938H73.241V19.555C73.241 20.2586 73.8143 20.8296 74.5216 20.8296C75.2289 20.8296 75.8022 20.2586 75.8022 19.555V14.2938H77.8447L80.5595 20.094C80.7762 20.5573 81.2377 20.8259 81.7193 20.8266C82.201 20.8259 82.6625 20.5573 82.8795 20.094L85.8533 13.7403C86.1521 13.1022 85.8745 12.3439 85.2337 12.0466Z" fill="#BABABA"/>
<g opacity="0.7">
<path d="M8 10.5532H11.7917V21.4266H8V10.5532Z" fill="url(#paint0_linear_587_25549)"/>
<path d="M19.8285 15.3781C19.2606 14.4341 18.0617 14.1575 17.1468 14.7434L8.91239 20.0489C7.99746 20.6347 7.72929 21.8716 8.29718 22.8155C8.86507 23.7594 10.0639 24.0361 10.9789 23.4502L19.229 18.1285C20.1282 17.5426 20.4121 16.3057 19.8285 15.3781Z" fill="white"/>
<path d="M19.2099 14.6023L10.9622 9.30606C10.0633 8.7212 8.86481 8.99739 8.29709 9.93966C7.72937 10.8819 7.99746 12.1166 8.91212 12.7015L17.1598 18.014C18.0745 18.5989 19.273 18.3227 19.8407 17.3804C20.4084 16.4381 20.1246 15.2034 19.2099 14.6023Z" fill="white"/>
<path opacity="0.5" d="M16.8661 18.3982L14.3017 16.7666L8.88288 20.2163C7.99754 20.7757 7.73805 21.9566 8.28757 22.8579C8.83708 23.7591 9.99718 24.0233 10.8825 23.4639L17.8583 19.0198L16.8661 18.3982Z" fill="url(#paint1_linear_587_25549)"/>
<path opacity="0.2" d="M11.7917 11.3301H8V20.6501L11.7917 18.1967V11.3301Z" fill="url(#paint2_linear_587_25549)"/>
</g>
<defs>
<linearGradient id="paint0_linear_587_25549" x1="11.1109" y1="18.944" x2="11.1109" y2="11.9385" gradientUnits="userSpaceOnUse">
<stop stop-color="white"/>
<stop offset="1" stop-color="white" stop-opacity="0.7"/>
</linearGradient>
<linearGradient id="paint1_linear_587_25549" x1="12.8345" y1="12.1724" x2="11.8665" y2="16.8303" gradientUnits="userSpaceOnUse">
<stop/>
<stop offset="1" stop-opacity="0.01"/>
</linearGradient>
<linearGradient id="paint2_linear_587_25549" x1="13.4711" y1="17.2816" x2="11.5072" y2="16.9384" gradientUnits="userSpaceOnUse">
<stop/>
<stop offset="1" stop-opacity="0.01"/>
</linearGradient>
</defs>
</svg>
