<svg width="115" height="40" viewBox="0 0 115 40" fill="none" xmlns="http://www.w3.org/2000/svg">
<g opacity="0.4">
<path d="M81.471 28.6627C80.2155 28.6627 79.0617 28.4624 77.9984 28.0505C76.9351 27.6498 76.0302 27.0822 75.2836 26.3475C74.5371 25.624 73.9489 24.7447 73.5303 23.7095C73.1118 22.6855 72.9082 21.5613 72.9082 20.3369C72.9082 19.1237 73.1118 17.9995 73.5303 16.9643C73.9489 15.9292 74.5371 15.0498 75.2836 14.3152C76.0302 13.5917 76.9351 13.024 77.9984 12.6122C79.0617 12.2115 80.2155 12 81.471 12C82.704 12 83.8465 12.2115 84.9097 12.6122C85.9617 13.0129 86.8666 13.5806 87.6132 14.3041C88.3598 15.0276 88.9366 15.9069 89.3665 16.9421C89.785 17.9883 89.9999 19.1125 89.9999 20.3369C89.9999 21.5613 89.785 22.6966 89.3665 23.7318C88.9366 24.767 88.3598 25.6463 87.6132 26.3698C86.8666 27.0933 85.9617 27.661 84.9097 28.0617C83.8465 28.4624 82.704 28.6627 81.471 28.6627ZM81.4597 24.6223C82.2176 24.6223 82.8963 24.433 83.5071 24.0546C84.1179 23.6762 84.5817 23.153 84.9097 22.5074C85.2378 21.8618 85.4074 21.1383 85.4074 20.3369C85.4074 19.5466 85.2378 18.8231 84.9097 18.1776C84.5817 17.532 84.1179 17.0088 83.5071 16.6304C82.8963 16.2519 82.2176 16.0516 81.4597 16.0516C80.6905 16.0516 80.0118 16.2408 79.4123 16.6193C78.8015 16.9977 78.3377 17.5208 77.9984 18.1664C77.659 18.8231 77.5007 19.5466 77.5007 20.3369C77.5007 21.1383 77.659 21.8618 77.9984 22.5074C78.3377 23.153 78.8015 23.6762 79.4123 24.0546C80.0232 24.433 80.7018 24.6223 81.4597 24.6223Z" fill="white"/>
<path d="M64.6968 28.6293C63.7353 28.6293 62.8304 28.518 61.9707 28.2843C61.111 28.0617 60.3305 27.7166 59.6179 27.2491C58.894 26.7928 58.2831 26.2362 57.7628 25.5906C57.2425 24.9451 56.8353 24.1659 56.5412 23.2754C56.2471 22.385 56.1113 21.4166 56.1113 20.3703C56.1113 19.4353 56.2244 18.556 56.462 17.7101C56.6995 16.8641 57.0502 16.0961 57.5253 15.406C58.0004 14.7159 58.5659 14.1148 59.2333 13.6028C59.9007 13.1019 60.6812 12.7124 61.5861 12.423C62.491 12.1447 63.4638 12 64.5158 12C65.3302 12 66.1447 12.1113 66.9704 12.3339C67.7848 12.5565 68.5766 12.9016 69.3458 13.358C70.1037 13.8143 70.7598 14.3597 71.3027 14.9942L68.1807 17.5876C67.1061 16.5859 65.8845 16.0739 64.5045 16.0739C64.0973 16.0739 63.7127 16.1406 63.3394 16.2519C62.9661 16.3744 62.6155 16.5525 62.2987 16.7974C61.982 17.0422 61.6992 17.3316 61.4617 17.6655C61.2241 17.9995 61.0432 18.4002 60.9074 18.8677C60.7717 19.3352 60.7038 19.836 60.7038 20.3703C60.7038 20.9491 60.7943 21.5057 60.9753 22.0177C61.1563 22.5297 61.4051 22.986 61.7332 23.3868C62.0612 23.7875 62.4797 24.0991 63 24.3217C63.5091 24.5555 64.0746 24.6668 64.6968 24.6668C65.5565 24.6668 66.3709 24.4887 67.1627 24.1325V22.641H64.3574V19.1459H71.2914V26.6815C70.5222 27.2491 69.5494 27.7166 68.3504 28.0839C67.1514 28.4512 65.9297 28.6293 64.6968 28.6293Z" fill="white"/>
<path d="M46.18 28.6627C44.9244 28.6627 43.7707 28.4624 42.7074 28.0505C41.6441 27.6498 40.7392 27.0822 39.9926 26.3475C39.246 25.624 38.6578 24.7447 38.2393 23.7095C37.8208 22.6855 37.6172 21.5613 37.6172 20.3369C37.6172 19.1237 37.8208 17.9995 38.2393 16.9643C38.6578 15.9292 39.246 15.0498 39.9926 14.3152C40.7392 13.5917 41.6441 13.024 42.7074 12.6122C43.7707 12.2115 44.9244 12 46.18 12C47.413 12 48.5554 12.2115 49.6187 12.6122C50.6707 13.0129 51.5756 13.5806 52.3222 14.3041C53.0687 15.0276 53.6456 15.9069 54.0755 16.9421C54.494 17.9883 54.7089 19.1125 54.7089 20.3369C54.7089 21.5613 54.494 22.6966 54.0755 23.7318C53.6456 24.767 53.0687 25.6463 52.3222 26.3698C51.5756 27.0933 50.6707 27.661 49.6187 28.0617C48.5554 28.4624 47.413 28.6627 46.18 28.6627ZM46.1687 24.6223C46.9266 24.6223 47.6053 24.433 48.2161 24.0546C48.8269 23.6762 49.2907 23.153 49.6187 22.5074C49.9468 21.8618 50.1164 21.1383 50.1164 20.3369C50.1164 19.5466 49.9468 18.8231 49.6187 18.1776C49.2907 17.532 48.8269 17.0088 48.2161 16.6304C47.6053 16.2519 46.9266 16.0516 46.1687 16.0516C45.3995 16.0516 44.7208 16.2408 44.1213 16.6193C43.5105 16.9977 43.0467 17.5208 42.7074 18.1664C42.368 18.8231 42.2097 19.5466 42.2097 20.3369C42.2097 21.1383 42.368 21.8618 42.7074 22.5074C43.0467 23.153 43.5105 23.6762 44.1213 24.0546C44.7321 24.433 45.4108 24.6223 46.1687 24.6223Z" fill="white"/>
<path d="M26 28.429V12.2338H30.4341V24.5778H36.9722V28.429H26Z" fill="white"/>
</g>
</svg>
