<svg width="170" height="59" viewBox="0 0 170 59" fill="none" xmlns="http://www.w3.org/2000/svg">
<path fill-rule="evenodd" clip-rule="evenodd" d="M58.9146 22.5536C57.8266 22.5536 56.9413 23.4309 56.9413 24.5096V30.5559L51.6494 23.6653C51.2335 23.1361 50.6749 22.5939 49.684 22.5939H49.3579C48.24 22.5939 47.3643 23.4622 47.3643 24.5706V35.965C47.3643 37.0437 48.2496 37.9215 49.337 37.9215C50.4255 37.9215 51.3103 37.0437 51.3103 35.965V29.6753L56.8267 36.8496C57.2426 37.3794 57.8007 37.9215 58.7921 37.9215H58.8937C60.0115 37.9215 60.8873 37.0526 60.8873 35.9449V24.5096C60.8873 23.4309 60.0025 22.5536 58.9146 22.5536Z" fill="#BABABA"/>
<path fill-rule="evenodd" clip-rule="evenodd" d="M89.5536 22.5536C88.512 22.5536 87.7705 23.2362 87.4957 23.9182L84.5631 31.4416L81.6706 24.0173C81.3129 23.1014 80.5138 22.5536 79.5331 22.5536C78.3216 22.5536 77.373 23.4857 77.373 24.6758C77.373 25.0529 77.4876 25.3774 77.6005 25.6454L82.1136 36.3499L82.1147 36.3438C82.5481 37.366 83.3685 37.921 84.4238 37.921H84.6229C85.6782 37.921 86.4986 37.366 86.9331 36.3427L91.4807 25.5558C91.5602 25.3779 91.694 25.0238 91.694 24.6349C91.694 23.4667 90.7539 22.5536 89.5536 22.5536Z" fill="#BABABA"/>
<path fill-rule="evenodd" clip-rule="evenodd" d="M103.631 33.6412H97.9829V32.0936H102.637C103.741 32.0936 104.638 31.3305 104.638 30.2479C104.638 29.1536 103.741 28.3815 102.637 28.3815H97.9829V26.8339H103.531C104.635 26.8339 105.533 25.9158 105.533 24.8332C105.533 23.7389 104.635 22.8124 103.531 22.8124H95.8172C94.6062 22.8124 93.9263 23.6645 93.9263 24.8646V35.629C93.9263 36.8297 94.6062 37.6627 95.8172 37.6627H103.631C104.735 37.6627 105.632 36.7452 105.632 35.6615C105.632 34.5677 104.735 33.6412 103.631 33.6412Z" fill="#BABABA"/>
<path fill-rule="evenodd" clip-rule="evenodd" d="M114.743 29.8624H112.302V26.4585H114.743C115.349 26.4585 116.641 26.6633 116.641 28.1605C116.641 29.6577 115.349 29.8624 114.743 29.8624ZM121.04 27.8019V27.7627C121.04 26.3041 120.515 25.1052 119.614 24.2117C118.571 23.1766 116.966 22.6736 115.065 22.6736H110.234C109.023 22.6736 107.934 23.5263 107.934 24.7264V35.6598C107.934 36.8604 108.907 37.8009 110.118 37.8009C111.329 37.8009 112.302 36.8604 112.302 35.6598V33.193H113.905L116.752 36.7681C117.297 37.4591 117.954 37.8009 118.758 37.8009C119.905 37.8009 120.839 36.8963 120.839 35.7812C120.839 35.0835 120.526 34.6343 120.198 34.223L118.569 32.2111C120.158 31.2958 121.04 29.7869 121.04 27.8019Z" fill="#BABABA"/>
<path fill-rule="evenodd" clip-rule="evenodd" d="M70.6082 31.5174H68.8115L70.6082 27.2754L72.4049 31.5174H70.6082ZM77.8626 34.9806L73.0126 24.1199C72.5606 23.1196 71.6995 22.5444 70.6477 22.5444H70.6082H70.5682C69.5169 22.5444 68.6552 23.1196 68.2032 24.1199L63.3538 34.9806C63.2376 35.2341 63.1196 35.5401 63.1196 35.8875C63.1196 37.0322 64.0157 37.9302 65.1606 37.9302C66.0437 37.9302 66.7875 37.538 67.1509 36.7066L67.9623 34.9208H73.2541L74.0656 36.7066C74.429 37.538 75.1721 37.9302 76.0558 37.9302C77.2007 37.9302 78.0968 37.0322 78.0968 35.8875C78.0968 35.5401 77.9789 35.2341 77.8626 34.9806Z" fill="#BABABA"/>
<path fill-rule="evenodd" clip-rule="evenodd" d="M150.954 22.8766C149.861 22.3708 148.561 22.8402 148.05 23.9239L144.959 30.5046L141.868 23.9239C141.495 23.13 140.697 22.6712 139.868 22.6779V22.6729H127.014C125.894 22.6729 124.985 23.5731 124.985 24.6837C124.985 25.7948 125.894 26.695 127.014 26.695H130.498V35.635C130.498 36.8306 131.476 37.8008 132.682 37.8008C133.889 37.8008 134.866 36.8306 134.866 35.635V26.695H138.35L142.981 36.5509C143.35 37.3381 144.138 37.7946 144.959 37.7957C145.781 37.7946 146.568 37.3381 146.938 36.5509L152.011 25.7545C152.52 24.6703 152.047 23.3818 150.954 22.8766Z" fill="#BABABA"/>
<g opacity="0.7">
<path d="M19.2173 20.3395H25.6847V38.8158H19.2173V20.3395Z" fill="url(#paint0_linear_140_6272)"/>
<path d="M39.3929 28.5377C38.4243 26.9337 36.3794 26.4636 34.8188 27.4591L20.7735 36.4744C19.213 37.4699 18.7555 39.5716 19.7242 41.1755C20.6928 42.7795 22.7377 43.2496 24.2983 42.254L38.3705 33.2112C39.9041 32.2156 40.3885 30.1139 39.3929 28.5377Z" fill="white"/>
<path d="M38.3379 27.2196L24.2699 18.2201C22.7367 17.2263 20.6924 17.6956 19.724 19.2967C18.7557 20.8978 19.213 22.9959 20.7731 23.9897L34.8411 33.0168C36.4012 34.0106 38.4455 33.5413 39.4138 31.9402C40.3822 30.339 39.898 28.241 38.3379 27.2196Z" fill="white"/>
<path opacity="0.5" d="M34.3401 33.6698L29.9661 30.8974L20.7232 36.7591C19.2131 37.7097 18.7705 39.7164 19.7078 41.2478C20.6451 42.7793 22.6238 43.2282 24.1339 42.2776L36.0325 34.726L34.3401 33.6698Z" fill="url(#paint1_linear_140_6272)"/>
<path opacity="0.2" d="M25.6847 21.6592H19.2173V37.4961L25.6847 33.3271V21.6592Z" fill="url(#paint2_linear_140_6272)"/>
</g>
<defs>
<linearGradient id="paint0_linear_140_6272" x1="24.5236" y1="34.5973" x2="24.5236" y2="22.6933" gradientUnits="userSpaceOnUse">
<stop stop-color="white"/>
<stop offset="1" stop-color="white" stop-opacity="0.7"/>
</linearGradient>
<linearGradient id="paint1_linear_140_6272" x1="27.4633" y1="23.0909" x2="25.8244" y2="31.0081" gradientUnits="userSpaceOnUse">
<stop/>
<stop offset="1" stop-opacity="0.01"/>
</linearGradient>
<linearGradient id="paint2_linear_140_6272" x1="28.5493" y1="31.7722" x2="25.2002" y2="31.1847" gradientUnits="userSpaceOnUse">
<stop/>
<stop offset="1" stop-opacity="0.01"/>
</linearGradient>
</defs>
</svg>
