<svg xmlns="http://www.w3.org/2000/svg" width="115" height="40" viewBox="0 0 115 40">
    <g fill="#A8A8A8" fill-rule="evenodd">
        <path d="M6.094 2.49c-.917 0-1.183.398-1.183 1.274V5.22h2.446L7.113 7.57H4.911v7.133H1.976V7.57H0V5.22h1.976V3.804c0-2.37.979-3.625 3.71-3.625.591 0 1.284.04 1.712.099v2.211M10.496 10.3c0 1.414.53 2.35 1.895 2.35 1.203 0 1.815-.857 1.815-2.21v-.958c0-1.355-.612-2.211-1.815-2.211-1.364 0-1.895.937-1.895 2.351v.677zm-2.935-.638c0-2.65 1.284-4.643 3.974-4.643 1.468 0 2.364.738 2.792 1.654V5.218h2.814v9.484h-2.814v-1.433c-.407.915-1.324 1.632-2.792 1.632-2.69 0-3.974-1.991-3.974-4.642v-.597zM23.254 5.02c1.14 0 2.222.238 2.812.637l-.652 2.032c-.449-.22-1.182-.438-1.957-.438-1.59 0-2.282.896-2.282 2.43v.558c0 1.534.692 2.43 2.282 2.43.775 0 1.508-.219 1.957-.438l.652 2.033c-.59.398-1.672.637-2.812.637-3.444 0-5.014-1.813-5.014-4.722v-.438c0-2.909 1.57-4.722 5.014-4.722M29.388 9.084h3.546v-.239c0-1.036-.428-1.853-1.712-1.853-1.325 0-1.834.817-1.834 2.092m-2.935 1.235v-.837c0-2.69 1.569-4.463 4.77-4.463 3.015 0 4.34 1.794 4.34 4.424v1.514h-6.175c.06 1.295.652 1.872 2.283 1.872 1.1 0 2.262-.219 3.118-.577l.53 1.972c-.774.399-2.364.697-3.771.697-3.709 0-5.095-1.812-5.095-4.602M43.511 9.601c0-1.335-.53-2.33-1.936-2.33-1.202 0-1.854.836-1.854 2.19v.997c0 1.355.652 2.192 1.854 2.192 1.406 0 1.936-.997 1.936-2.332v-.717zm2.935.658c0 2.65-1.304 4.642-3.994 4.642-1.468 0-2.487-.718-2.895-1.634v1.435h-2.771V.456L39.72.197v6.336c.428-.837 1.365-1.514 2.73-1.514 2.691 0 3.995 1.992 3.995 4.642v.598zM54.15 9.522c0-1.255-.531-2.251-1.896-2.251-1.366 0-1.896.996-1.896 2.251v.876c0 1.255.53 2.252 1.896 2.252 1.365 0 1.895-.997 1.895-2.252v-.876zm-6.726.677v-.478c0-2.729 1.589-4.702 4.83-4.702 3.24 0 4.83 1.973 4.83 4.702v.478c0 2.73-1.59 4.702-4.83 4.702-3.241 0-4.83-1.972-4.83-4.702zM64.787 9.522c0-1.255-.53-2.251-1.895-2.251-1.366 0-1.895.996-1.895 2.251v.876c0 1.255.529 2.252 1.895 2.252 1.365 0 1.895-.997 1.895-2.252v-.876zm-6.725.677v-.478c0-2.729 1.589-4.702 4.83-4.702 3.24 0 4.83 1.973 4.83 4.702v.478c0 2.73-1.59 4.702-4.83 4.702-3.241 0-4.83-1.972-4.83-4.702zM71.756 9.741L74.65 5.218 77.769 5.218 74.731 9.901 77.89 14.702 74.773 14.702 71.756 10.06 71.756 14.702 68.821 14.702 68.821.457 71.756.197" transform="translate(19 13)"/>
    </g>
</svg>
