<svg width="170" height="59" viewBox="0 0 170 59" fill="none" xmlns="http://www.w3.org/2000/svg">
<path d="M94.192 17C90.5115 17 87.204 18.6006 84.929 21.1436C84.832 21.2533 84.6634 21.2533 84.5664 21.1436C82.2913 18.6006 78.985 17 75.3033 17C68.44 17 62.876 22.5641 62.876 29.4273C62.876 36.2906 68.44 41.8547 75.3033 41.8547C78.9838 41.8547 82.2913 40.254 84.5664 37.7111C84.6634 37.6014 84.832 37.6014 84.929 37.7111C87.204 40.254 90.5115 41.8547 94.192 41.8547C101.055 41.8547 106.619 36.2906 106.619 29.4273C106.619 22.5641 101.056 17 94.192 17ZM94.192 35.8887C92.2034 35.8887 90.5427 34.9302 89.523 33.8481C89.1985 33.5028 88.7966 33.0293 88.3531 32.6274C88.1418 32.4357 87.9316 32.2648 87.7306 32.11C86.8992 31.5176 85.8679 31.1654 84.7477 31.1654C83.6275 31.1654 82.5962 31.5176 81.7647 32.11C81.5626 32.2636 81.3536 32.4357 81.1422 32.6274C80.6988 33.0293 80.2969 33.5028 79.9724 33.8481C78.9538 34.9302 77.292 35.8887 75.3033 35.8887C75.2525 35.8887 75.2028 35.8864 75.152 35.8852C75.0666 35.8829 74.9811 35.8806 74.8956 35.8749C74.8368 35.8714 74.779 35.8656 74.7213 35.861C74.6866 35.8587 74.652 35.8552 74.6185 35.8518C71.371 35.5099 68.8408 32.7637 68.8408 29.4262V29.4539V29.3996V29.4273C68.8408 26.091 71.371 23.3447 74.6173 23.0018C74.6531 22.9983 74.6901 22.996 74.727 22.9914C74.7825 22.9867 74.8391 22.9821 74.8945 22.9787C74.98 22.974 75.0654 22.9717 75.1532 22.9683C75.2028 22.9683 75.2525 22.9648 75.3022 22.9648C77.2908 22.9648 78.9515 23.9233 79.9712 25.0054C80.2957 25.3507 80.6976 25.8242 81.1411 26.2261C81.3524 26.4178 81.5626 26.5887 81.7635 26.7435C82.595 27.3359 83.6263 27.6881 84.7465 27.6881C85.8667 27.6881 86.898 27.3359 87.7295 26.7435C87.9316 26.5899 88.1406 26.4178 88.352 26.2261C88.7954 25.8242 89.1973 25.3507 89.5218 25.0054C90.5404 23.9233 92.2022 22.9648 94.1909 22.9648C94.2405 22.9648 94.289 22.9671 94.3387 22.9683C94.4253 22.9706 94.5131 22.9729 94.5985 22.9787C94.6528 22.9821 94.7082 22.9856 94.7625 22.9914C94.8006 22.9937 94.8399 22.9971 94.878 23.0018C97.9996 23.332 100.458 25.8843 100.641 29.0485C100.641 29.0693 100.643 29.0901 100.644 29.1097C100.646 29.1686 100.648 29.2275 100.649 29.2864C100.65 29.3742 100.651 29.462 100.649 29.5497C100.648 29.6156 100.648 29.6826 100.644 29.7484C100.644 29.7622 100.642 29.7761 100.642 29.79C100.466 32.96 98.0053 35.5215 94.878 35.8518C94.8387 35.8552 94.7995 35.8587 94.7602 35.8622C94.7071 35.8668 94.6528 35.8714 94.5997 35.8749C94.5142 35.8795 94.4253 35.8818 94.3387 35.8852C94.289 35.8852 94.2405 35.8887 94.1909 35.8887V35.891L94.192 35.8887Z" fill="#C3C4C5"/>
<path d="M51.6707 26.0148L55.3674 27.2146C55.9171 27.4387 57.9046 27.9353 59.3966 29.4262C60.7698 30.7993 61.3853 32.6378 61.3853 34.4255C61.3853 39.8649 55.7704 41.8535 51.6926 41.8535C45.4796 41.8535 42.8003 39.1027 42 38.374L45.6736 33.6806C45.9334 34.034 48.4625 36.3865 51.6926 36.3865C52.9353 36.3865 54.9239 35.8899 54.9239 34.3978C54.9239 33.4035 53.9042 32.6205 51.6926 31.9126L47.9971 30.7104C45.4542 29.7022 43.4909 27.9353 43.4909 24.4557C43.4909 22.5502 44.2231 21.1009 44.5568 20.5812C46.6229 17.3638 50.7572 17 52.1892 17C54.7068 17 56.5673 17.4642 57.9173 18.0347C59.6311 18.7588 60.5215 19.6538 60.8887 19.9818L57.8261 23.8968C54.3303 21.7349 52.1523 21.8966 50.9478 22.3239C50.1278 22.6149 49.8668 23.2685 49.8299 23.6912C49.7837 24.212 49.8668 25.3403 51.673 26.0136L51.6707 26.0148Z" fill="#C3C4C5"/>
<path d="M119.047 17.1248H109.106V41.73H115.071V33.5282H119.047C123.233 33.5282 127 31.043 127 25.3265C127 19.61 123.233 17.1248 119.047 17.1248ZM121.034 25.3265C121.034 27.1107 119.587 28.5578 117.803 28.5578H115.069V22.0952H117.803C119.587 22.0952 121.034 23.5423 121.034 25.3265Z" fill="#C3C4C5"/>
</svg>
