<svg width="115" height="40" viewBox="0 0 115 40" fill="none" xmlns="http://www.w3.org/2000/svg">
<g clip-path="url(#clip0_8219_2851)">
<path fill-rule="evenodd" clip-rule="evenodd" d="M69.5623 14.4895C69.8027 14.4895 69.963 14.5706 69.963 14.8139L69.6424 20.3291L72.2072 14.5706C72.2873 14.4084 72.4476 14.3273 72.6079 14.3273H77.3367C77.4969 14.3273 77.6572 14.4895 77.6572 14.6517C77.6572 14.7328 77.6572 14.7328 77.6572 14.8139L71.4858 28.6018C71.4057 28.764 71.2454 28.8451 71.0851 28.8451H64.513C64.2725 28.8451 64.1122 28.6829 64.1122 28.4396L64.9939 14.895C64.9939 14.6517 65.1542 14.4895 65.3946 14.4895H69.5623ZM47.0407 14.4895L46.64 16.1927C47.2695 15.5557 48.0025 14.7328 48.804 14.4895H53.0518C53.2674 14.4895 53.4752 14.6517 53.2121 14.895C51.9297 15.7872 50.8878 16.5171 50.2466 17.2471C49.7658 17.7337 49.2047 18.5448 48.6437 19.7613L48.1628 21.059L47.7621 22.5189L46.4797 28.5207C46.4797 28.6829 46.2392 28.8451 46.0789 28.8451H41.2701C41.0296 28.8451 40.8693 28.6829 40.8693 28.4396V28.3585L43.6745 14.8139C43.6745 14.6517 43.9149 14.4895 44.0752 14.4895H47.0407ZM56.8989 14.4084C60.8262 14.4084 63.9519 17.5715 63.9519 21.5457C63.9519 25.5198 60.8262 28.6829 56.8989 28.6829C52.9717 28.6829 49.8459 25.5198 49.8459 21.5457C49.8459 17.5715 52.9717 14.4084 56.8989 14.4084ZM82.947 14.4084C86.8743 14.4084 90 17.5715 90 21.5457C90 25.5198 86.8743 28.6829 82.947 28.6829C79.0198 28.6829 75.894 25.5198 75.894 21.5457C75.894 17.5715 79.0198 14.4084 82.947 14.4084ZM56.8989 19.2747C55.6166 19.2747 54.6548 20.3291 54.6548 21.5457C54.6548 22.7622 55.6967 23.8166 56.8989 23.8166C58.1011 23.8166 59.1431 22.7622 59.1431 21.5457C59.1431 20.3291 58.1813 19.2747 56.8989 19.2747ZM37.1825 11.002C37.423 11.002 37.5833 11.1642 37.5833 11.4075V11.4886L37.0222 14.0839C37.0222 14.1651 37.1024 14.3273 37.1825 14.3273C37.1825 14.3273 37.1825 14.3273 37.2627 14.3273H42.3921C42.6326 14.3273 42.8669 14.4895 42.7929 14.8139L41.5907 19.9236C41.5105 20.1669 41.3502 20.248 41.1098 20.248L38.3046 20.0858C37.423 20.0858 36.4612 20.3291 35.7399 21.1401C34.7781 22.1134 34.6979 23.5733 35.0987 24.6277C35.4994 25.682 36.6215 26.2498 37.7436 26.0064C38.6252 25.8442 39.1061 24.9521 39.0259 24.2221C38.9458 23.4111 38.6252 23.1678 38.1443 23.1678C37.6634 23.1678 37.5031 23.4111 37.5031 23.6544C37.5031 23.8977 37.5833 24.0599 37.7436 24.2221C37.984 24.4654 37.5031 25.1954 36.8619 24.7899C36.4612 24.5465 36.2207 24.0599 36.3009 23.33C36.381 22.4378 37.1024 21.6268 38.3847 21.6268C39.6671 21.6268 40.6289 22.4378 40.8693 23.6544C41.2701 25.1954 40.4686 27.0608 38.6252 28.0341C36.381 29.2506 32.6141 29.1695 30.5302 26.8986C29.328 25.6009 28.9272 23.8977 29.0074 22.3567C29.0074 21.8701 29.0875 21.3023 29.2478 20.8157C29.2478 20.6535 29.1677 20.4913 29.0074 20.4102H28.9272H25.4007C25.1603 20.4102 25 20.1669 25 19.9236V19.8424L26.1221 14.895C26.2022 14.5706 26.4427 14.4084 26.7633 14.4084H30.2096C30.3699 14.3273 30.5302 14.2462 30.6104 14.0028L31.1714 11.4886C31.2515 11.1642 31.5722 11.002 31.8126 11.002H37.1825ZM82.947 19.2747C84.2294 19.2747 85.1911 20.3291 85.1911 21.5457C85.1911 22.7622 84.1492 23.8166 82.947 23.8166C81.7448 23.8166 80.7029 22.7622 80.7029 21.5457C80.7029 20.3291 81.7448 19.2747 82.947 19.2747Z" fill="#BABABA"/>
</g>
<defs>
<clipPath id="clip0_8219_2851">
<rect width="65" height="17.8431" fill="white" transform="translate(25 11)"/>
</clipPath>
</defs>
</svg>
