<svg xmlns="http://www.w3.org/2000/svg" xmlns:xlink="http://www.w3.org/1999/xlink" width="170" height="59" viewBox="0 0 170 59">
    <defs>
        <path id="prefix__a" d="M0.247 0.01L9.149 0.01 9.149 3.358 0.247 3.358z"/>
        <path id="prefix__c" d="M0.099 0.027L19.297 0.027 19.297 18.365 0.099 18.365z"/>
    </defs>
    <g fill="none" fill-rule="evenodd">
        <g fill="#B7B7B7">
            <path d="M14.027 4.082s-.052-3.87 4.39-3.911h4.16c.892 0 1.647.62 1.647 1.382 0 .779-.755 1.402-1.646 1.402H20.65c-1.277.008-1.167.926-1.167.926v1.805h2.325c.921 0 1.676.592 1.676 1.349 0 .777-.656 1.373-1.553 1.373h-2.448v9.17c0 1.29-1.116 2.44-2.672 2.44-1.549 0-2.785-1.046-2.785-2.356V4.082zM29.494 17.56c0 1.395-1.12 2.457-2.673 2.457-1.53 0-2.791-1.062-2.791-2.353v-8.26s0-3.645 4.512-3.645h3.576c1.872 0 1.872 1.43 1.872 1.43s0 1.376-1.751 1.376h-1.58c-1.165 0-1.165.9-1.165.9v8.096zM55.149 8.581c-1.212 0-1.212.88-1.212.88v2.41h3.445V9.521s0-.94-1.094-.94h-1.14zm.895-2.92c4.666 0 4.666 3.74 4.666 3.74v3.872c0 .78-.758 1.352-1.68 1.352l-5.145-.003.001 1.663s.051.874 1.238.874l2.887.006c.926 0 1.655.616 1.655 1.395 0 .776-.753 1.457-1.655 1.457h-5.07c-4.447 0-4.447-3.691-4.447-3.691V9.4s.033-3.7 4.481-3.74h3.069zM72.402 17.234c.925-.025 1.75.694 1.75 1.473 0 .78-.825 1.31-1.75 1.31h-7.268c-1.53 0-2.634-.922-2.634-2.23v-9.77c0-1.295 1.262-2.356 2.793-2.356h7.39c.93 0 1.656.614 1.656 1.388 0 .78-.726 1.355-1.656 1.355H68.74c-.676 0-.676.575-.676.575l-.003 7.656s-.047.596.68.596l3.662.003zM79.028 17.188h2.21v-3.29l-2.21.004c-1.204 0-1.088 1.642-1.088 1.642s-.127 1.644 1.088 1.644m7.766-7.816v8.246c0 1.313-1.272 2.4-2.826 2.4h-4.716c-4.644 0-4.644-3.736-4.644-3.736v-1.846s.29-3.374 4.644-3.356h1.995V9.389s0-.871-1.095-.871h-2.528c-.925 0-1.821-.543-1.821-1.322 0-.781.85-1.528 1.772-1.528h4.769c4.45.02 4.45 3.704 4.45 3.704M99.77 2.042s0-1.258-1.674-1.258H86.484c-1.674 0-1.674 1.221-1.674 1.221s0 1.211 1.568 1.211h2.428c1.043 0 1.043.791 1.043.791v7.47c0 1.226 1 2.16 2.39 2.16 1.368 0 2.497-.934 2.497-2.07V3.995c.019-.17.15-.743 1.038-.743h2.428c1.568 0 1.568-1.21 1.568-1.21M4.425 17.186h2.208V13.898H4.425c-1.25 0-1.09 1.644-1.09 1.644s-.127 1.644 1.09 1.644m7.769-7.822v8.253c0 1.314-1.272 2.4-2.828 2.4H4.65C0 20.017 0 16.28 0 16.28v-1.846s.293-3.376 4.65-3.36h1.99V9.383s0-.872-1.093-.872H3.018c-.924 0-1.825-.541-1.825-1.324 0-.78.855-1.529 1.777-1.529h4.772c4.452.023 4.452 3.706 4.452 3.706M41.162 8.581c-1.212 0-1.212.88-1.212.88v2.41h3.443V9.521s0-.94-1.09-.94h-1.141zm.894-2.92c4.667 0 4.667 3.74 4.667 3.74v3.872c0 .78-.759 1.352-1.679 1.352l-5.145-.003v1.663s.05.874 1.237.874l2.887.006c.928 0 1.655.616 1.655 1.395 0 .776-.753 1.457-1.655 1.457h-5.068c-4.449 0-4.449-3.691-4.449-3.691V9.4s.034-3.7 4.481-3.74h3.07z" transform="translate(19.217 17.7) translate(0 1.04)"/>
            <path d="M109.976 1.195c-1.091-.732-2.632-.35-3.44.851l-4.402 5.885-1.583-3.408c-.293-.64-1.555-.945-2.226-.634-.674.307-1.087 1.27-.79 1.909l2.902 6.653c.228.484.742.886 1.56 1.082.737.178 2.122-.015 2.929-1.216l5.571-7.624c.808-1.2.574-2.767-.52-3.498" transform="translate(19.217 17.7) translate(0 1.04)"/>
        </g>
        <g>
            <g transform="translate(19.217 17.7) translate(113.587 .515) translate(5.784)">
                <mask id="prefix__b" fill="#fff">
                    <use xlink:href="#prefix__a"/>
                </mask>
                <path fill="#B7B7B7" d="M.573 1.918l2.678 1.265c.467.206.796.248 1.283.028l4.142-1.877c.4-.137.588-.575.4-.953-.178-.36-.622-.473-.97-.275L4.321 2.53c-.101.057-.165.09-.24.108-.185.041-.419.032-.643-.153L1.38.832C1.094.565.643.612.392.909c-.236.296-.191.802.18 1.01" mask="url(#prefix__b)"/>
            </g>
            <g transform="translate(19.217 17.7) translate(113.587 .515) translate(0 3.673)">
                <mask id="prefix__d" fill="#fff">
                    <use xlink:href="#prefix__c"/>
                </mask>
                <path fill="#B7B7B7" d="M14.707 12.753c-2.468 2.295-7.633 2.291-10.045-.004-.166-.16-.174-.428-.011-.593.158-.169.428-.176.594-.015 2.09 1.993 6.745 1.99 8.892-.002.172-.16.437-.15.597.02.156.17.148.436-.027.594M6.96 8.818l.002-.054.003-.037.004-.036.144-1.568.143-1.568.015-.17c.009-.054.02-.108.033-.162.04-.157.102-.306.184-.441.163-.272.404-.491.691-.63.144-.069.3-.117.463-.142.076-.012.155-.018.235-.018h1.626c.085 0 .167.009.249.022l.022.002c.478.083.884.373 1.123.775.08.133.14.28.18.435.016.066.028.133.036.203l.009.088.26 2.87.027.287.01.125.001.019.002.062c0 .707-.451 1.308-1.082 1.534-.09.032-.184.057-.28.073-.087.014-.176.022-.267.022H8.586c-.072 0-.142-.005-.211-.014-.07-.01-.137-.022-.203-.04-.175-.046-.338-.12-.486-.217-.146-.097-.276-.218-.384-.356-.108-.138-.195-.295-.253-.463-.06-.169-.092-.35-.092-.54 0-.02 0-.04.002-.061m12.294-1.379l-.649.48c-.295.218-.592.434-.916.653-.26.175-.497.328-.706.459-.626.39-.996.58-.996.58-.068.04-.144.077-.223.112l-.077.03c-.058.022-.118.043-.18.061-.031.01-.061.017-.093.025-.065.017-.132.03-.2.041l-.082.014c-.096.013-.192.02-.289.02h-.006c-.072 0-.143-.004-.214-.012l-.058-.008c-.056-.007-.11-.018-.164-.031l-.062-.015c-.07-.02-.138-.043-.203-.073-.108-.05-.204-.11-.29-.176-.084-.066-.158-.138-.223-.214-.064-.076-.119-.154-.166-.233-.023-.039-.044-.079-.064-.118-.058-.117-.1-.23-.129-.329-.02-.066-.034-.126-.044-.176l-.013-.068-.011-.085-.001-.01s-.008-.052-.019-.149l-.02-.177-.013-.113-.029-.27-.031-.324c-.028-.293-.055-.638-.082-1.023-.05-.747-.086-1.484-.1-2.227-.005-.252.037-.468.101-.65.032-.091.071-.173.112-.247.02-.037.042-.072.064-.105.087-.132.18-.232.258-.302.096-.087.166-.129.166-.129.067-.043.137-.08.21-.115.023-.01.048-.018.07-.028.052-.021.104-.041.157-.058.028-.009.057-.016.086-.024.051-.013.103-.024.156-.033l.088-.014c.057-.007.115-.01.175-.012.019 0 .037-.004.056-.004h.023l.06.003c.05.003.098.006.146.013.024.002.048.005.072.01.048.007.095.017.144.028l.063.016c.068.018.136.04.202.066l.343.141c.175.074.353.151.525.228.4.177.766.347.98.447l.193.092c.331.162.636.312.945.473.207.108.42.226.641.352-.013-.093-.023-.188-.038-.28-.046-.306-.17-.728-.185-.779-.394-1.367-1.885-1.954-1.885-1.954-.48-.212-1.512-.492-1.512-.492-1.778-.449-3.637-.694-5.553-.7h-.131S6.72.007 4.006.72c-.998.263-1.444.485-1.444.485-.786.356-1.42.911-1.755 1.69l.095-.056c.072-.04.145-.078.219-.115l.078-.04c.1-.047.202-.09.306-.13.023-.01.047-.016.071-.024.082-.03.164-.057.247-.082l.112-.03c.073-.019.146-.036.22-.051l.12-.024c.078-.013.158-.024.237-.033l.102-.012c.112-.01.226-.015.339-.015h.035c.104.002.209.008.315.017l.105.012c.085.01.17.023.256.038.034.007.069.012.104.02.117.024.234.053.352.089 1.105.339 1.811.968 2.162 1.777.351.808.347 1.794.03 2.846-.035.122-.077.24-.123.356-.015.038-.032.074-.047.11-.033.077-.065.153-.101.226l-.065.122c-.034.065-.07.13-.108.191-.024.041-.05.08-.075.12-.039.06-.08.117-.12.174l-.083.11c-.045.055-.091.11-.138.163-.028.032-.056.065-.085.096-.054.057-.11.11-.167.164l-.073.07c-.084.074-.17.143-.259.209-.011.009-.025.016-.036.025-.078.056-.158.109-.239.158-.032.02-.066.037-.1.056-.062.036-.126.071-.191.103-.038.019-.078.036-.118.054-.062.028-.124.055-.188.08l-.126.045c-.064.022-.13.043-.195.062-.043.012-.086.025-.13.035-.068.017-.138.032-.209.046-.04.008-.081.017-.123.024-.082.013-.166.023-.25.031-.03.003-.06.009-.091.01-.112.01-.225.014-.34.014h-.009c-.084 0-.168-.006-.253-.01-.044-.003-.086-.003-.13-.007-.13-.01-.26-.028-.39-.05-.537-.093-1.037-.352-1.468-.717C.22 9.098.16 9.037.1 8.979v.013c0 2.193.217 4.335.641 6.403.17.821.55 1.22.55 1.22.412.537 1.005.928 1.689 1.081l.147.03c2.125.418 4.322.639 6.57.639 2.259 0 4.465-.223 6.599-.645l.105-.021c1.128-.247 2.014-1.139 2.248-2.269l.002-.014c.424-2.075.647-4.223.647-6.424 0-.52-.019-1.038-.045-1.553" mask="url(#prefix__d)"/>
            </g>
            <path fill="#B7B7B7" d="M16 11.13c-.76 0-1.376-.614-1.376-1.373S15.24 8.383 16 8.383c.76 0 1.377.615 1.377 1.374 0 .759-.616 1.373-1.377 1.373m2.957-2.361l-.016-.008-.028-.014-.028-.016c-.647-.387-1.157-.641-1.862-.986-.006-.003-1.135-.543-1.99-.886-.14-.055-.284-.083-.434-.083-.214 0-.425.06-.592.169l-.022.014c-.062.045-.352.278-.342.783.012.669.044 1.365.1 2.191.079 1.19.186 1.999.188 2.007l.002.022.002.022c.002.015.063.582.514.79.1.048.234.072.387.072.305 0 .602-.098.76-.195l.026-.016.026-.013c.006-.003.638-.328 1.624-.992.405-.273.766-.542 1.15-.826.21-.158.424-.317.648-.478.05-.035.088-.075.127-.116-.036-.46-.08-.919-.135-1.374-.018-.013-.035-.028-.054-.04l-.05-.027M8.361 13.41c.074.02.15.03.227.03h2.196c.054 0 .103-.004.152-.012.43-.072.742-.44.742-.875l-.001-.032v-.007l-.01-.1-.287-3.157-.006-.077c-.005-.035-.012-.07-.02-.102-.085-.34-.363-.598-.708-.658-.05-.009-.1-.013-.147-.014H8.877c-.04 0-.084.004-.125.01-.35.053-.642.318-.728.66-.006.024-.011.048-.015.073l-.014.146-.287 3.137-.005.062-.002.024-.001.035c0 .402.272.755.661.858M3.085 8.383c.76 0 1.377.615 1.377 1.374 0 .758-.616 1.373-1.377 1.373-.76 0-1.376-.615-1.376-1.373 0-.76.616-1.374 1.376-1.374M1.876 12.81c.22.039.442.058.656.058 1.485 0 2.632-.87 3.07-2.326.325-1.088.54-3.014-1.7-3.7-.312-.096-.63-.145-.95-.145-.897 0-1.79.391-2.474 1.043-.209 1.235-.32 2.498-.36 3.779.457.695 1.097 1.178 1.758 1.291" transform="translate(19.217 17.7) translate(113.587 .515)"/>
        </g>
    </g>
</svg>
