<svg width="170" height="59" viewBox="0 0 170 59" fill="none" xmlns="http://www.w3.org/2000/svg">
<path fill-rule="evenodd" clip-rule="evenodd" d="M37.0952 22.8468C35.7402 22.8468 35.347 23.4347 35.347 24.7274V26.8725H38.9631L38.602 30.3411H35.347V40.8621H31.0087V30.3411H28.0869V26.8725H31.0087V24.7856C31.0087 21.2896 32.4552 19.4385 36.4925 19.4385C37.3666 19.4385 38.3903 19.4969 39.023 19.5844V22.8468" fill="#A8A8A8"/>
<path fill-rule="evenodd" clip-rule="evenodd" d="M43.603 34.3665C43.603 36.4531 44.3872 37.8333 46.4049 37.8333C48.1828 37.8333 49.0869 36.57 49.0869 34.5727V33.1615C49.0869 31.1626 48.1828 29.8991 46.4049 29.8991C44.3872 29.8991 43.603 31.2811 43.603 33.3677V34.3665ZM39.2646 33.4262C39.2646 29.5177 41.1624 26.5785 45.1395 26.5785C47.3089 26.5785 48.634 27.6666 49.2667 29.0172V26.8722H53.4255V40.8602H49.2667V38.7462C48.664 40.0971 47.3089 41.1544 45.1395 41.1544C41.1624 41.1544 39.2646 38.2168 39.2646 34.3078V33.4262Z" fill="#A8A8A8"/>
<path fill-rule="evenodd" clip-rule="evenodd" d="M62.4617 26.5782C64.148 26.5782 65.7464 26.9307 66.6186 27.5186L65.6548 30.5162C64.9922 30.1931 63.9083 29.8701 62.763 29.8701C60.4121 29.8701 59.3884 31.1916 59.3884 33.4554V34.277C59.3884 36.5408 60.4121 37.8625 62.763 37.8625C63.9083 37.8625 64.9922 37.5393 65.6548 37.2162L66.6186 40.2138C65.7464 40.8017 64.148 41.1541 62.4617 41.1541C57.3707 41.1541 55.0498 38.4797 55.0498 34.1895V33.5431C55.0498 29.2527 57.3707 26.5782 62.4617 26.5782Z" fill="#A8A8A8"/>
<path fill-rule="evenodd" clip-rule="evenodd" d="M71.5298 32.5737H76.7722V32.2215C76.7722 30.6933 76.1395 29.4885 74.2417 29.4885C72.2821 29.4885 71.5298 30.6933 71.5298 32.5737ZM67.1914 34.3958V33.1615C67.1914 29.1946 69.5102 26.5783 74.2417 26.5783C78.7 26.5783 80.6577 29.2238 80.6577 33.1033V35.3359H71.5298C71.6197 37.2473 72.4935 38.0983 74.9044 38.0983C76.5308 38.0983 78.249 37.7749 79.5141 37.2473L80.2964 40.1554C79.1528 40.7436 76.8022 41.1834 74.7229 41.1834C69.2407 41.1834 67.1914 38.5105 67.1914 34.3958Z" fill="#A8A8A8"/>
<path fill-rule="evenodd" clip-rule="evenodd" d="M92.4084 33.3368C92.4084 31.3669 91.6242 29.899 89.5466 29.899C87.7684 29.899 86.8047 31.1333 86.8047 33.1306V34.6003C86.8047 36.5992 87.7684 37.8332 89.5466 37.8332C91.6242 37.8332 92.4084 36.3637 92.4084 34.3941V33.3368ZM96.7468 34.3064C96.7468 38.2151 94.819 41.1543 90.8417 41.1543C88.6725 41.1543 87.166 40.0952 86.5633 38.7443V40.8601H82.4663V19.8474L86.8047 19.4658V28.8109C87.4374 27.5769 88.8224 26.5784 90.8417 26.5784C94.819 26.5784 96.7468 29.5158 96.7468 33.4245V34.3064Z" fill="#A8A8A8"/>
<path fill-rule="evenodd" clip-rule="evenodd" d="M108.134 33.2201C108.134 31.369 107.35 29.8992 105.332 29.8992C103.312 29.8992 102.53 31.369 102.53 33.2201V34.5126C102.53 36.3639 103.312 37.8334 105.332 37.8334C107.35 37.8334 108.134 36.3639 108.134 34.5126V33.2201ZM98.1914 34.2186V33.5138C98.1914 29.4886 100.54 26.5784 105.332 26.5784C110.121 26.5784 112.472 29.4886 112.472 33.5138V34.2186C112.472 38.2459 110.121 41.1543 105.332 41.1543C100.54 41.1543 98.1914 38.2459 98.1914 34.2186Z" fill="#A8A8A8"/>
<path fill-rule="evenodd" clip-rule="evenodd" d="M123.86 33.2201C123.86 31.369 123.075 29.8992 121.058 29.8992C119.038 29.8992 118.256 31.369 118.256 33.2201V34.5126C118.256 36.3639 119.038 37.8334 121.058 37.8334C123.075 37.8334 123.86 36.3639 123.86 34.5126V33.2201ZM113.917 34.2186V33.5138C113.917 29.4886 116.267 26.5784 121.058 26.5784C125.847 26.5784 128.198 29.4886 128.198 33.5138V34.2186C128.198 38.2459 125.847 41.1543 121.058 41.1543C116.267 41.1543 113.917 38.2459 113.917 34.2186Z" fill="#A8A8A8"/>
<path fill-rule="evenodd" clip-rule="evenodd" d="M134.161 33.5431L138.44 26.8722H143.05L138.559 33.7786L143.229 40.8602H138.621L134.161 34.0141V40.8602H129.823V19.8491L134.161 19.4658" fill="#A8A8A8"/>
</svg>
