<svg width="115" height="40" viewBox="0 0 115 40" xmlns="http://www.w3.org/2000/svg">
    <path d="M72.52 12.97c.02.304.02.608.02.915C72.54 23.226 65.523 34 52.692 34v-.006A19.556 19.556 0 0 1 42 30.825a13.889 13.889 0 0 0 10.324-2.93c-2.985-.057-5.603-2.03-6.517-4.91a6.863 6.863 0 0 0 3.15-.121c-3.255-.667-5.596-3.564-5.596-6.93v-.09c.97.548 2.055.852 3.165.885-3.065-2.076-4.01-6.208-2.159-9.44 3.542 4.417 8.767 7.102 14.377 7.387a7.135 7.135 0 0 1 2.018-6.755 6.918 6.918 0 0 1 9.869.307 13.885 13.885 0 0 0 4.43-1.717 7.08 7.08 0 0 1-3.067 3.91A13.729 13.729 0 0 0 76 9.308a14.279 14.279 0 0 1-3.48 3.663z" fill="#1D9BF0" fill-rule="nonzero"/>
</svg>
