<?xml version="1.0" encoding="UTF-8"?>
<svg width="115px" height="40px" viewBox="0 0 115 40" version="1.1" xmlns="http://www.w3.org/2000/svg" xmlns:xlink="http://www.w3.org/1999/xlink">
    <title>785AB4B1-9383-4FA4-986F-FD6D6F53F190</title>
    <g id="Page-1" stroke="none" stroke-width="1" fill="none" fill-rule="evenodd">
        <g id="0525_Release-_Image-Resource" transform="translate(-713.000000, -611.000000)" fill="#21C531">
            <g id="btn_addch_band_on" transform="translate(713.000000, 611.000000)">
                <g id="Fill-2" transform="translate(28.000000, 9.000000)">
                    <path d="M39.82355,4.7107066 C39.0966,4.7107066 38.52775,5.3113994 38.52775,6.07601259 L38.52775,13.3887251 L34.4151,5.8405171 C34.0114,5.12322217 33.34675,4.74482556 32.5877,4.74482556 C31.41875,4.74482556 30.60345,5.61802169 30.60345,6.86777151 L30.60345,15.9730988 C30.60345,16.721574 31.20535,17.3546922 31.91595,17.3546922 C32.63345,17.3546922 33.19545,16.7484208 33.19545,15.9730988 L33.19545,8.43853834 L37.44105,16.1912608 C37.9666,17.1246259 38.76725,17.3202744 39.30405,17.3202744 C40.3379,17.3202744 41.11975,16.4753198 41.11975,15.35313 L41.11975,6.07601259 C41.11975,5.3113994 40.54985,4.7107066 39.82355,4.7107066 L39.82355,4.7107066 Z M50.2939,11.7791573 C50.173,13.6680024 49.14755,14.6245783 47.25,14.6245783 L45.4299,14.6245783 L45.4299,7.40680115 L47.25,7.40680115 C49.2039,7.40680115 50.2049,8.38260318 50.31025,10.3857094 C50.32925,10.8489801 50.32415,11.3575766 50.2939,11.7791573 L50.2939,11.7791573 Z M47.19995,4.77924336 L44.6364,4.77924336 C43.5343,4.77924336 42.82175,5.49130838 42.82175,6.59203061 L42.82175,15.4225135 C42.82175,16.4995766 43.5677,17.251638 44.6364,17.251638 L47.19995,17.251638 C50.656,17.251638 52.6871,15.3470534 52.918,11.8858973 C52.94355,11.4505196 52.95995,10.7706808 52.8995,10.0068147 C52.67315,6.63596187 50.6491,4.77924336 47.19995,4.77924336 L47.19995,4.77924336 Z M22.52995,11.3545881 L23.8359,7.44500441 C23.8443,7.41975141 23.87485,7.3377165 23.97115,7.3377165 C24.0318,7.3377165 24.0731,7.39116122 24.09075,7.45332247 L25.37715,11.3545881 L22.52995,11.3545881 Z M26.3466,6.38268469 C25.94605,5.25456768 25.08115,4.60775204 23.97115,4.60775204 C22.87105,4.60775204 22.01215,5.25456768 21.61275,6.38268469 L18.4286,15.4720234 C18.18925,16.1704408 18.5229,16.9654373 19.15485,17.2060631 C19.3057,17.267776 19.46525,17.299554 19.62695,17.299554 C20.1588,17.299554 20.6499,16.9559238 20.8514,16.4385112 L21.7376,13.7745432 L26.18735,13.7745432 L27.0719,16.4385112 C27.24135,16.9447169 27.72715,17.2849102 28.28235,17.2849102 C28.4508,17.2849102 28.6152,17.252684 28.7673,17.1893772 C29.39215,16.9447169 29.73195,16.1402567 29.4959,15.4720234 L26.3466,6.38268469 Z M13.44245,14.6757318 L10.68415,14.6757318 L10.68415,12.0710362 L13.47535,12.0710362 C14.13855,12.0710362 14.9286,12.2971677 14.9286,13.3732844 C14.9286,14.2620209 14.4557,14.6757318 13.44245,14.6757318 L13.44245,14.6757318 Z M10.68415,7.38946773 L13.2748,7.38946773 C14.22195,7.38946773 14.62665,7.72707102 14.62665,8.5202744 C14.62665,9.30396432 14.1846,9.68515022 13.2748,9.68515022 L10.68415,9.68515022 L10.68415,7.38946773 Z M15.9664,10.7608187 C16.7981,10.2237316 17.23385,9.33111005 17.23385,8.15866332 C17.23385,6.53076592 16.11475,4.77924336 13.66085,4.77924336 L9.8911,4.77924336 C8.8229,4.77924336 8.07645,5.53882587 8.07645,6.62654803 L8.07645,15.4225135 C8.07645,16.5166112 8.80505,17.251638 9.8911,17.251638 L13.7109,17.251638 C16.11555,17.251638 17.55245,15.8798071 17.55245,13.5797913 C17.55245,12.2628495 16.96575,11.2319093 15.9664,10.7608187 L15.9664,10.7608187 Z M49.17515,20.4698273 L10.8239,20.4698273 C5.7542,20.4698273 1.63,16.2462994 1.63,11.0549888 C1.63,5.80221422 5.7542,1.52987389 10.8239,1.52987389 L49.17515,1.52987389 C54.24485,1.52987389 58.3704,5.80221422 58.3704,11.0549888 C58.3704,16.2462994 54.24485,20.4698273 49.17515,20.4698273 L49.17515,20.4698273 Z M49.4243,0 L10.5758,0 C4.7443,0 0,4.95915235 0,11.0549888 C0,17.1919174 4.64585,22 10.5758,22 L49.4243,22 C55.3539,22 60,17.1919174 60,11.0549888 C60,4.95915235 55.2556,0 49.4243,0 L49.4243,0 Z" id="Fill-1"></path>
                </g>
            </g>
        </g>
    </g>
</svg>