<svg width="170" height="59" viewBox="0 0 170 59" fill="none" xmlns="http://www.w3.org/2000/svg">
<path d="M23.4688 38.4092C22.3229 38.9893 20.8333 39.2793 19 39.2793C16.6582 39.2793 14.7891 38.5667 13.3926 37.1416C12.0033 35.7093 11.3086 33.8044 11.3086 31.4268C11.3086 28.9346 12.0856 26.8971 13.6396 25.3145C15.1937 23.7246 17.1882 22.9297 19.623 22.9297C21.1556 22.9297 22.4375 23.1338 23.4688 23.542V26.5283C22.3945 25.9053 21.1771 25.5938 19.8164 25.5938C18.2194 25.5938 16.9375 26.113 15.9707 27.1514C15.0111 28.1898 14.5312 29.5433 14.5312 31.2119C14.5312 32.8519 14.9896 34.1624 15.9062 35.1436C16.8229 36.1247 18.0439 36.6152 19.5693 36.6152C21.0088 36.6152 22.3086 36.2715 23.4688 35.584V38.4092ZM36.3164 39H33.3301V37.2598H33.2764C32.4456 38.6061 31.2926 39.2793 29.8174 39.2793C27.1748 39.2793 25.8535 37.6895 25.8535 34.5098V27.71H28.8506V34.1982C28.8506 36.0244 29.5596 36.9375 30.9775 36.9375C31.6722 36.9375 32.238 36.6904 32.6748 36.1963C33.1117 35.695 33.3301 35.0254 33.3301 34.1875V27.71H36.3164V39ZM39.0557 36.0996C40.1729 36.8014 41.2757 37.1523 42.3643 37.1523C43.7679 37.1523 44.4697 36.7549 44.4697 35.96C44.4697 35.4085 43.9147 34.943 42.8047 34.5635C41.1862 34.0192 40.1585 33.4857 39.7217 32.9629C39.2848 32.4329 39.0664 31.7562 39.0664 30.9326C39.0664 29.8441 39.5104 28.9919 40.3984 28.376C41.2865 27.7529 42.4287 27.4414 43.8252 27.4414C44.7992 27.4414 45.7731 27.5954 46.7471 27.9033V30.3418C45.8662 29.819 44.903 29.5576 43.8574 29.5576C43.306 29.5576 42.862 29.6615 42.5254 29.8691C42.1888 30.0768 42.0205 30.3525 42.0205 30.6963C42.0205 31.262 42.4896 31.7096 43.4277 32.0391C44.4948 32.4258 45.279 32.7516 45.7803 33.0166C46.2816 33.2744 46.6719 33.6289 46.9512 34.0801C47.2305 34.5312 47.3701 35.0612 47.3701 35.6699C47.3701 36.8158 46.9118 37.7038 45.9951 38.334C45.0856 38.9642 43.8825 39.2793 42.3857 39.2793C41.1253 39.2793 40.0153 39.0788 39.0557 38.6777V36.0996ZM55.9424 38.8818C55.4339 39.1396 54.7249 39.2686 53.8154 39.2686C51.5023 39.2686 50.3457 38.0439 50.3457 35.5947V29.9873H48.4766V27.71H50.3457V25.1855L53.332 24.3154V27.71H55.9424V29.9873H53.332V35.0684C53.332 36.3145 53.8226 36.9375 54.8037 36.9375C55.2119 36.9375 55.5915 36.8229 55.9424 36.5938V38.8818ZM57.2637 33.4248C57.2637 31.5771 57.8079 30.1198 58.8965 29.0527C59.985 27.9785 61.4603 27.4414 63.3223 27.4414C65.1198 27.4414 66.5378 27.9678 67.5762 29.0205C68.6217 30.0661 69.1445 31.4697 69.1445 33.2314C69.1445 35.0648 68.6038 36.5329 67.5225 37.6357C66.4482 38.7314 64.9909 39.2793 63.1504 39.2793C61.3457 39.2793 59.9134 38.7529 58.8535 37.7002C57.7936 36.6403 57.2637 35.2152 57.2637 33.4248ZM60.293 33.3818C60.293 35.7523 61.2777 36.9375 63.2471 36.9375C65.1449 36.9375 66.0938 35.7236 66.0938 33.2959C66.0938 30.9469 65.1413 29.7725 63.2363 29.7725C62.3053 29.7725 61.582 30.0947 61.0664 30.7393C60.5508 31.3766 60.293 32.2575 60.293 33.3818ZM88.9639 39H85.9775V32.5547C85.9775 30.6999 85.3044 29.7725 83.958 29.7725C83.335 29.7725 82.8122 30.0553 82.3896 30.6211C81.9743 31.1797 81.7666 31.8529 81.7666 32.6406V39H78.7803V32.4365C78.7803 30.6605 78.1107 29.7725 76.7715 29.7725C76.1341 29.7725 75.6113 30.0374 75.2031 30.5674C74.7949 31.0902 74.5908 31.792 74.5908 32.6729V39H71.5938V27.71H74.5908V29.4932H74.623C75.4681 28.1253 76.6748 27.4414 78.2432 27.4414C79.833 27.4414 80.9144 28.1647 81.4873 29.6113C82.3467 28.1647 83.6035 27.4414 85.2578 27.4414C87.7285 27.4414 88.9639 28.9596 88.9639 31.9961V39ZM112.661 39H109.116L106.603 34.8213C106.094 33.9762 105.661 33.4212 105.303 33.1562C104.945 32.8913 104.558 32.7588 104.143 32.7588H103.025V39H99.9639V23.1875H105.335C108.987 23.1875 110.813 24.6126 110.813 27.4629C110.813 28.5085 110.506 29.418 109.89 30.1914C109.281 30.9577 108.411 31.502 107.279 31.8242V31.8672C108.003 32.1107 108.801 32.9235 109.675 34.3057L112.661 39ZM103.025 25.5723V30.3633H104.852C105.682 30.3633 106.345 30.1234 106.839 29.6436C107.34 29.1566 107.591 28.5514 107.591 27.8281C107.591 26.3242 106.696 25.5723 104.905 25.5723H103.025ZM124.456 25.7334H119.934V39H116.861V25.7334H112.35V23.1875H124.456V25.7334ZM141.117 39V29.2031C141.117 28.487 141.16 27.3913 141.246 25.916H141.182C141.003 26.8184 140.838 27.4629 140.688 27.8496L136.498 39H134.167L129.924 27.9463C129.816 27.6598 129.652 26.9831 129.43 25.916H129.354C129.433 27.0833 129.473 28.3509 129.473 29.7188V39H126.69V23.1875H131.095L134.79 33.0381C135.098 33.8545 135.302 34.5778 135.402 35.208H135.478C135.635 34.585 135.857 33.8545 136.144 33.0166L139.871 23.1875H144.146V39H141.117ZM150.979 33.3926V39H147.917V23.1875H153.138C156.991 23.1875 158.917 24.8382 158.917 28.1396C158.917 29.7367 158.333 31.0221 157.166 31.9961C156.006 32.9701 154.545 33.4355 152.783 33.3926H150.979ZM150.979 25.626V30.9971H152.536C154.649 30.9971 155.705 30.084 155.705 28.2578C155.705 26.5033 154.67 25.626 152.601 25.626H150.979Z" fill="#BABABA"/>
</svg>
