<svg width="170" height="59" viewBox="0 0 170 59" fill="none" xmlns="http://www.w3.org/2000/svg">
<path d="M65.3118 20.6284L62.2557 37.9443H68.3748L71.4309 20.6284H65.3118Z" fill="#BABABA"/>
<path d="M73.5409 20.6284L72.7241 25.2569H80.1841L70.4848 37.9443H77.4479L82.7297 31.0356L81.5114 37.9443H87.6304L89.1551 29.2864H84.0638L90.6866 20.6284H73.5409Z" fill="#BABABA"/>
<path d="M63.195 20.6284H56.2387L59.7781 16H52.8218L46.1991 24.6579H53.1622L43 37.9443H49.9563L55.245 31.0356L54.0266 37.9443H60.1457L61.6703 29.2864H56.579L63.195 20.6284Z" fill="#BABABA"/>
<path d="M92.7966 20.6284L89.7405 37.9443H95.8595L98.9157 20.6284H92.7966Z" fill="#BABABA"/>
<path d="M101.026 20.6284L100.209 25.2569H107.635L97.9764 37.9443H104.933L110.153 31.0901L108.942 37.9443H115.068L116.592 29.2864H111.521L118.117 20.6284H101.026Z" fill="#BABABA"/>
<path d="M124.039 33.3158L126.278 20.6284H120.152L117.103 37.9443H121.057L120.247 42.5727H126.366L128 33.3158H124.039Z" fill="#BABABA"/>
</svg>
