<svg width="170" height="59" viewBox="0 0 170 59" xmlns="http://www.w3.org/2000/svg">
    <path d="M104.984 15.958a19 19 0 0 1 .03 1.306C105.013 30.609 94.9 46 76.41 46v-.008A28.364 28.364 0 0 1 61 41.464a20.127 20.127 0 0 0 14.878-4.186 10.071 10.071 0 0 1-9.392-7.013 9.976 9.976 0 0 0 4.539-.174c-4.69-.952-8.064-5.092-8.064-9.9v-.127a9.954 9.954 0 0 0 4.562 1.264c-4.417-2.966-5.778-8.87-3.111-13.486a28.489 28.489 0 0 0 20.719 10.552 10.136 10.136 0 0 1 2.908-9.65 10.031 10.031 0 0 1 14.223.438 20.116 20.116 0 0 0 6.384-2.452 10.13 10.13 0 0 1-4.419 5.586 19.921 19.921 0 0 0 5.773-1.59 20.476 20.476 0 0 1-5.016 5.232z" fill="#BABABA" fill-rule="nonzero"/>
</svg>
