<svg width="115" height="40" viewBox="0 0 115 40" fill="none" xmlns="http://www.w3.org/2000/svg">
<g opacity="0.2">
<path d="M81.471 27.6627C80.2155 27.6627 79.0617 27.4624 77.9984 27.0505C76.9351 26.6498 76.0302 26.0822 75.2836 25.3475C74.5371 24.624 73.9489 23.7447 73.5303 22.7095C73.1118 21.6855 72.9082 20.5613 72.9082 19.3369C72.9082 18.1237 73.1118 16.9995 73.5303 15.9643C73.9489 14.9292 74.5371 14.0498 75.2836 13.3152C76.0302 12.5917 76.9351 12.024 77.9984 11.6122C79.0617 11.2115 80.2155 11 81.471 11C82.704 11 83.8465 11.2115 84.9097 11.6122C85.9617 12.0129 86.8666 12.5806 87.6132 13.3041C88.3598 14.0276 88.9366 14.9069 89.3665 15.9421C89.785 16.9883 89.9999 18.1125 89.9999 19.3369C89.9999 20.5613 89.785 21.6966 89.3665 22.7318C88.9366 23.767 88.3598 24.6463 87.6132 25.3698C86.8666 26.0933 85.9617 26.661 84.9097 27.0617C83.8465 27.4624 82.704 27.6627 81.471 27.6627ZM81.4597 23.6223C82.2176 23.6223 82.8963 23.433 83.5071 23.0546C84.1179 22.6762 84.5817 22.153 84.9097 21.5074C85.2378 20.8618 85.4074 20.1383 85.4074 19.3369C85.4074 18.5466 85.2378 17.8231 84.9097 17.1776C84.5817 16.532 84.1179 16.0088 83.5071 15.6304C82.8963 15.2519 82.2176 15.0516 81.4597 15.0516C80.6905 15.0516 80.0118 15.2408 79.4123 15.6193C78.8015 15.9977 78.3377 16.5208 77.9984 17.1664C77.659 17.8231 77.5007 18.5466 77.5007 19.3369C77.5007 20.1383 77.659 20.8618 77.9984 21.5074C78.3377 22.153 78.8015 22.6762 79.4123 23.0546C80.0232 23.433 80.7018 23.6223 81.4597 23.6223Z" fill="#BABABA"/>
<path d="M64.6968 27.6293C63.7353 27.6293 62.8304 27.518 61.9707 27.2843C61.111 27.0617 60.3305 26.7166 59.6179 26.2491C58.894 25.7928 58.2831 25.2362 57.7628 24.5906C57.2425 23.9451 56.8353 23.1659 56.5412 22.2754C56.2471 21.385 56.1113 20.4166 56.1113 19.3703C56.1113 18.4353 56.2244 17.556 56.462 16.7101C56.6995 15.8641 57.0502 15.0961 57.5253 14.406C58.0004 13.7159 58.5659 13.1148 59.2333 12.6028C59.9007 12.1019 60.6812 11.7124 61.5861 11.423C62.491 11.1447 63.4638 11 64.5158 11C65.3302 11 66.1447 11.1113 66.9704 11.3339C67.7848 11.5565 68.5766 11.9016 69.3458 12.358C70.1037 12.8143 70.7598 13.3597 71.3027 13.9942L68.1807 16.5876C67.1061 15.5859 65.8845 15.0739 64.5045 15.0739C64.0973 15.0739 63.7127 15.1406 63.3394 15.2519C62.9661 15.3744 62.6155 15.5525 62.2987 15.7974C61.982 16.0422 61.6992 16.3316 61.4617 16.6655C61.2241 16.9995 61.0432 17.4002 60.9074 17.8677C60.7717 18.3352 60.7038 18.836 60.7038 19.3703C60.7038 19.9491 60.7943 20.5057 60.9753 21.0177C61.1563 21.5297 61.4051 21.986 61.7332 22.3868C62.0612 22.7875 62.4797 23.0991 63 23.3217C63.5091 23.5555 64.0746 23.6668 64.6968 23.6668C65.5565 23.6668 66.3709 23.4887 67.1627 23.1325V21.641H64.3574V18.1459H71.2914V25.6815C70.5222 26.2491 69.5494 26.7166 68.3504 27.0839C67.1514 27.4512 65.9297 27.6293 64.6968 27.6293Z" fill="#BABABA"/>
<path d="M46.18 27.6627C44.9244 27.6627 43.7707 27.4624 42.7074 27.0505C41.6441 26.6498 40.7392 26.0822 39.9926 25.3475C39.246 24.624 38.6578 23.7447 38.2393 22.7095C37.8208 21.6855 37.6172 20.5613 37.6172 19.3369C37.6172 18.1237 37.8208 16.9995 38.2393 15.9643C38.6578 14.9292 39.246 14.0498 39.9926 13.3152C40.7392 12.5917 41.6441 12.024 42.7074 11.6122C43.7707 11.2115 44.9244 11 46.18 11C47.413 11 48.5554 11.2115 49.6187 11.6122C50.6707 12.0129 51.5756 12.5806 52.3222 13.3041C53.0687 14.0276 53.6456 14.9069 54.0755 15.9421C54.494 16.9883 54.7089 18.1125 54.7089 19.3369C54.7089 20.5613 54.494 21.6966 54.0755 22.7318C53.6456 23.767 53.0687 24.6463 52.3222 25.3698C51.5756 26.0933 50.6707 26.661 49.6187 27.0617C48.5554 27.4624 47.413 27.6627 46.18 27.6627ZM46.1687 23.6223C46.9266 23.6223 47.6053 23.433 48.2161 23.0546C48.8269 22.6762 49.2907 22.153 49.6187 21.5074C49.9468 20.8618 50.1164 20.1383 50.1164 19.3369C50.1164 18.5466 49.9468 17.8231 49.6187 17.1776C49.2907 16.532 48.8269 16.0088 48.2161 15.6304C47.6053 15.2519 46.9266 15.0516 46.1687 15.0516C45.3995 15.0516 44.7208 15.2408 44.1213 15.6193C43.5105 15.9977 43.0467 16.5208 42.7074 17.1664C42.368 17.8231 42.2097 18.5466 42.2097 19.3369C42.2097 20.1383 42.368 20.8618 42.7074 21.5074C43.0467 22.153 43.5105 22.6762 44.1213 23.0546C44.7321 23.433 45.4108 23.6223 46.1687 23.6223Z" fill="#BABABA"/>
<path d="M26 27.429V11.2338H30.4341V23.5778H36.9722V27.429H26Z" fill="#BABABA"/>
</g>
</svg>
