<svg width="115" height="40" viewBox="0 0 115 40" fill="none" xmlns="http://www.w3.org/2000/svg">
<path fill-rule="evenodd" clip-rule="evenodd" d="M30 11H35.8929V14.8823H37.8571V12.9412H39.8215V11H45.7143V16.8235H43.75V18.7646H41.7857V20.7058H43.75V22.6469H45.7143V28.4704H39.8215V26.5293H37.8571V24.5881H35.8929V28.4704H30V11ZM69.2857 11H75.1786V14.8823H77.1429V12.9412H79.1071V11H85V16.8235H83.0357V18.7646H81.0715V20.7058H83.0357V22.6469H85V28.4704H79.1071V26.5293H77.1429V24.5881H75.1786V28.4704H69.2857V11ZM47.6786 11H53.5714V28.4704H47.6786V11ZM61.4286 11H57.5V12.9412H55.5357V26.5293H57.5V28.4704H61.4286H67.3214V22.6469H61.4286V16.8235H67.3214V11H61.4286Z" fill="#BABABA"/>
</svg>
