<svg width="28" height="28" viewBox="0 0 28 28" fill="none" xmlns="http://www.w3.org/2000/svg">
<path fill-rule="evenodd" clip-rule="evenodd" d="M18.2633 5.5C19.2075 5.5 20.0464 5.95133 20.5759 6.65003L19.2161 7.84993C19.0259 7.52118 18.6704 7.3 18.2633 7.3H7.5001C6.89258 7.3 6.4001 7.79249 6.4001 8.4V16.0316C6.4001 16.6391 6.89258 17.1316 7.5001 17.1316H8.69686L6.76374 18.8373C5.51872 18.5114 4.6001 17.3788 4.6001 16.0316V8.4C4.6001 6.79837 5.89847 5.5 7.5001 5.5H18.2633ZM14.4423 16.832L12.5052 18.5412C12.4213 18.663 12.3083 18.7631 12.1762 18.8314L10.0467 20.7105H11.7633C12.2603 20.7105 12.6633 21.1134 12.6633 21.6105C12.6633 22.1075 12.2603 22.5105 11.7633 22.5105H8.63169C8.45818 22.5105 8.29614 22.4614 8.1587 22.3763L7.14037 23.2749C6.76766 23.6037 6.19892 23.5682 5.87006 23.1955C5.5412 22.8227 5.57674 22.254 5.94945 21.9251L22.9495 6.92514C23.3222 6.59628 23.8909 6.63183 24.2198 7.00454C24.5486 7.37725 24.5131 7.94599 24.1404 8.27485L21.1246 10.9358C22.4261 11.2214 23.4002 12.3812 23.4002 13.7684V19.6105C23.4002 21.2121 22.1018 22.5105 20.5002 22.5105H17.3423C15.7406 22.5105 14.4423 21.2121 14.4423 19.6105V16.832ZM16.2423 15.2438L19.161 12.6684H20.5002C21.1077 12.6684 21.6002 13.1609 21.6002 13.7684V19.6105C21.6002 20.218 21.1077 20.7105 20.5002 20.7105H17.3423C16.7347 20.7105 16.2423 20.218 16.2423 19.6105V15.2438Z" fill="#BABABA"/>
</svg>
