<svg width="28" height="28" viewBox="0 0 28 28" fill="none" xmlns="http://www.w3.org/2000/svg">
<path fill-rule="evenodd" clip-rule="evenodd" d="M11.0001 5.6001C9.39847 5.6001 8.1001 6.89847 8.1001 8.5001V19.5001C8.1001 21.1017 9.39847 22.4001 11.0001 22.4001H17.0001C18.6017 22.4001 19.9001 21.1017 19.9001 19.5001V8.5001C19.9001 6.89847 18.6017 5.6001 17.0001 5.6001H11.0001ZM9.9001 8.5001C9.9001 7.89258 10.3926 7.4001 11.0001 7.4001H17.0001C17.6076 7.4001 18.1001 7.89258 18.1001 8.5001V19.5001C18.1001 20.1076 17.6076 20.6001 17.0001 20.6001H11.0001C10.3926 20.6001 9.9001 20.1076 9.9001 19.5001V8.5001ZM13.0001 9C12.503 9 12.1001 9.40294 12.1001 9.9C12.1001 10.3971 12.503 10.8 13.0001 10.8H15.0001C15.4972 10.8 15.9001 10.3971 15.9001 9.9C15.9001 9.40294 15.4972 9 15.0001 9H13.0001Z" fill="#EFFC35"/>
</svg>
