<svg xmlns="http://www.w3.org/2000/svg" width="110" height="40" viewBox="0 0 110 40">
    <g fill="none" fill-rule="evenodd">
        <path fill="#FFF" d="M76.667 9L73.7 13.237h-5.273l-1.763 1.815v-1.815h-4.117V9H49.62v4.237h-18.19L28.469 9H22v14.528L30.228 32h8.227v-2.42L40.807 32h15.866v-2.42L59.025 32h7.639v-2.42L69.016 32h14.693L89 26.552V16.263l-2.942-3.026h-2.94V9h-6.45zm.57 1.213h4.704v4.235h3.528l2.352 2.42v8.476h-4.704v-6.053H81.94v6.053h-4.704v-15.13zM56.672 22.926V10.213h4.704v4.235h4.117l-.005 4.843h-4.115v1.213h4.115v4.843h-6.464l-2.352-2.421zm-5.878-9.689h4.704v-3.024h-4.704v3.024zm-27.619 9.689V10.213h4.705v4.235h4.115l-.005 4.843h-4.11v1.213h4.115v4.843h-6.468l-2.352-2.421zm43.488 0v-6.057l2.35-2.42h7.054v4.842h-4.704v1.213h4.704v4.843h-7.054l-2.35-2.421zm-15.869 2.418h4.704V14.448h-4.704v10.896zm-5.869-4.842v-6.054h4.702l-.01 10.896h-14.1l-2.352-2.422v-8.474h4.703v6.054h1.177v-6.054h4.704v6.054h1.176z"/>
    </g>
</svg>
