<svg xmlns="http://www.w3.org/2000/svg" xmlns:xlink="http://www.w3.org/1999/xlink" width="110" height="40" viewBox="0 0 110 40">
    <defs>
        <path id="prefix__a" d="M0 0.373L9.173 0.373 9.173 11.311 0 11.311z"/>
        <path id="prefix__c" d="M0.389 0.196L14.83 0.196 14.83 14.167 0.389 14.167z"/>
    </defs>
    <g fill="none" fill-rule="evenodd">
        <g>
            <path fill="#FFF" d="M10.552 3.675s-.04-2.948 3.301-2.98h3.13c.671 0 1.239.474 1.239 1.054 0 .593-.568 1.068-1.239 1.068h-1.45c-.959.006-.877.705-.877.705v1.376h1.749c.693 0 1.26.45 1.26 1.027 0 .592-.492 1.046-1.168 1.046h-1.84v6.986c0 .983-.84 1.858-2.011 1.858-1.165 0-2.094-.796-2.094-1.794V3.675zM22.186 13.944c0 1.062-.842 1.872-2.01 1.872-1.151 0-2.1-.81-2.1-1.793V7.729s0-2.776 3.394-2.776h2.69c1.408 0 1.408 1.09 1.408 1.09s0 1.048-1.318 1.048h-1.187c-.877 0-.877.685-.877.685v6.168zM41.484 7.103c-.911 0-.911.67-.911.67v1.835h2.59V7.82s0-.717-.822-.717h-.857zm.673-2.225c3.51 0 3.51 2.85 3.51 2.85v2.949c0 .595-.57 1.03-1.263 1.03l-3.87-.003v1.268s.039.665.931.665l2.172.005c.697 0 1.244.47 1.244 1.063 0 .59-.566 1.11-1.244 1.11h-3.814c-3.344 0-3.344-2.812-3.344-2.812V7.727s.024-2.818 3.37-2.85h2.308zM54.462 13.695c.695-.02 1.317.529 1.317 1.122 0 .594-.622.998-1.317.998h-5.467c-1.15 0-1.98-.703-1.98-1.699V6.673c0-.986.948-1.795 2.1-1.795h5.56c.698 0 1.244.468 1.244 1.058 0 .594-.546 1.031-1.245 1.031h-2.967c-.509 0-.509.439-.509.439l-.002 5.833s-.035.453.51.453l2.756.003zM59.447 13.66h1.662v-2.507l-1.662.004c-.907 0-.819 1.25-.819 1.25s-.095 1.253.819 1.253m5.84-5.955v6.282c0 1-.955 1.828-2.125 1.828h-3.547c-3.494 0-3.494-2.845-3.494-2.845v-1.407s.22-2.57 3.494-2.557h1.5V7.718s0-.664-.823-.664H58.39c-.696 0-1.37-.413-1.37-1.007 0-.595.638-1.164 1.333-1.164h3.586c3.348.016 3.348 2.822 3.348 2.822M75.049 2.12s0-.958-1.26-.958h-8.734c-1.26 0-1.26.93-1.26.93s0 .923 1.18.923h1.827c.784 0 .784.604.784.604v5.69c0 .934.753 1.646 1.798 1.646 1.03 0 1.878-.712 1.878-1.577V3.609c.014-.13.113-.566.781-.566h1.826c1.18 0 1.18-.922 1.18-.922" transform="translate(5 11)"/>
            <g transform="translate(5 11) translate(0 4.504)">
                <mask id="prefix__b" fill="#fff">
                    <use xlink:href="#prefix__a"/>
                </mask>
                <path fill="#FFF" d="M3.329 9.154h1.66V6.65H3.33c-.941 0-.82 1.252-.82 1.252s-.096 1.252.82 1.252m5.844-5.958v6.287c0 1-.956 1.828-2.127 1.828h-3.55C0 11.311 0 8.465 0 8.465V7.057s.22-2.571 3.497-2.559h1.498V3.21s0-.665-.822-.665H2.27c-.696 0-1.373-.412-1.373-1.008C.897.942 1.54.373 2.234.373h3.59C9.173.39 9.173 3.196 9.173 3.196" mask="url(#prefix__b)"/>
            </g>
            <path fill="#FFF" d="M30.963 7.103c-.912 0-.912.67-.912.67v1.835h2.59V7.82s0-.717-.82-.717h-.858zm.673-2.225c3.51 0 3.51 2.85 3.51 2.85v2.949c0 .595-.57 1.03-1.263 1.03l-3.87-.003v1.268s.038.665.93.665l2.173.005c.697 0 1.244.47 1.244 1.063 0 .59-.567 1.11-1.244 1.11h-3.814c-3.346 0-3.346-2.812-3.346-2.812V7.727s.025-2.818 3.371-2.85h2.309zM82.726 1.476c-.821-.557-1.98-.267-2.588.648l-3.31 4.483-1.191-2.596c-.22-.487-1.17-.72-1.675-.484-.508.235-.817.968-.594 1.456l2.183 5.068c.17.368.559.675 1.173.824.555.135 1.597-.011 2.203-.926l4.19-5.809c.61-.914.433-2.108-.39-2.664M90.144 1.454l2.014.963c.352.157.6.19.966.022l3.115-1.43c.3-.105.442-.439.301-.726-.134-.274-.468-.36-.73-.21l-2.846 1.848c-.077.043-.124.068-.18.08-.14.033-.316.025-.484-.114L90.75.627c-.213-.204-.553-.168-.741.058-.178.226-.144.611.135.769" transform="translate(5 11)"/>
            <g transform="translate(5 11) translate(85.047 2.615)">
                <mask id="prefix__d" fill="#fff">
                    <use xlink:href="#prefix__c"/>
                </mask>
                <path fill="#FFF" d="M11.378 9.892c-1.857 1.748-5.741 1.745-7.556-.003-.125-.122-.132-.326-.008-.453.118-.128.321-.134.446-.01 1.572 1.517 5.074 1.516 6.69-.002.128-.123.328-.114.448.015.118.13.111.333-.02.453M5.55 6.894l.002-.042.003-.027.003-.028.107-1.195.109-1.195.01-.128c.007-.042.015-.083.025-.124.03-.12.077-.233.138-.336.124-.207.305-.374.52-.48.108-.053.226-.09.349-.109.058-.008.116-.013.176-.013H8.215c.063 0 .126.007.186.017l.017.001c.36.063.666.284.845.59.06.102.106.214.136.332.012.05.021.102.027.155l.006.067.197 2.186.02.218.008.096v.015l.002.046c0 .54-.34.998-.815 1.17-.068.024-.139.043-.21.055-.066.01-.133.017-.2.017H6.772c-.054 0-.106-.004-.158-.011-.053-.007-.103-.017-.153-.03-.132-.035-.255-.092-.365-.166-.11-.074-.208-.166-.289-.27-.082-.106-.147-.225-.192-.354-.043-.128-.068-.266-.068-.41l.001-.047m9.249-1.051l-.488.365c-.223.167-.446.332-.69.498-.196.134-.374.25-.53.35-.472.298-.75.441-.75.441-.052.032-.109.06-.168.086l-.057.022c-.044.018-.09.033-.137.047l-.069.02c-.05.012-.1.023-.151.031-.021.003-.04.008-.061.01-.072.01-.145.016-.217.016h-.006c-.053 0-.107-.003-.16-.01-.015 0-.03-.003-.044-.005-.042-.006-.083-.014-.124-.024l-.045-.012c-.053-.015-.104-.032-.153-.056-.082-.038-.154-.083-.218-.133-.064-.051-.12-.106-.168-.163-.048-.058-.09-.118-.125-.178-.018-.03-.034-.06-.049-.09-.043-.088-.074-.174-.097-.25-.014-.051-.025-.096-.032-.134l-.01-.052c-.005-.031-.007-.053-.008-.064l-.001-.01s-.006-.038-.014-.112L10.21 6.3l-.01-.086-.02-.205c-.008-.076-.017-.159-.024-.247-.02-.223-.042-.487-.062-.78-.037-.57-.065-1.131-.076-1.696-.003-.193.028-.357.077-.496.024-.069.053-.132.084-.188l.048-.08c.065-.101.136-.177.194-.23.072-.066.125-.098.125-.098.05-.033.103-.062.158-.087.017-.009.035-.015.053-.022.039-.017.077-.031.117-.045l.065-.018c.038-.01.077-.018.118-.025.022-.004.044-.008.066-.01.043-.006.087-.009.13-.01.015 0 .03-.003.044-.003l.017.001.045.002c.037.002.073.004.11.009l.054.007c.036.006.072.013.107.023.017.004.033.006.048.011.052.014.102.03.152.051.085.034.17.07.258.108.132.056.266.114.395.173.302.135.576.264.737.34l.146.07c.25.124.478.239.711.361.156.082.316.172.482.268-.01-.071-.018-.143-.029-.214-.034-.232-.128-.553-.139-.592-.296-1.043-1.418-1.488-1.418-1.488-.36-.163-1.137-.376-1.137-.376C10.5.387 9.1.199 7.66.196h-.1S5.371.18 3.33.724c-.752.201-1.086.37-1.086.37-.592.271-1.069.694-1.32 1.287.022-.015.047-.029.07-.042.054-.031.11-.06.166-.088l.057-.03c.076-.036.153-.07.23-.1l.055-.018c.061-.023.123-.044.186-.063l.084-.022c.055-.014.11-.028.165-.039l.09-.018c.059-.01.118-.019.178-.025l.078-.009c.084-.007.169-.012.254-.012H2.562c.079.002.158.006.237.013l.08.009c.064.007.127.018.192.03.026.005.052.008.078.014.088.019.177.04.265.068.831.259 1.362.738 1.627 1.353.263.616.26 1.368.023 2.169-.028.093-.06.184-.093.272l-.036.084c-.024.057-.05.115-.076.17-.015.033-.032.063-.048.094-.026.05-.053.099-.081.146-.02.03-.038.061-.057.091-.03.046-.06.09-.091.133-.02.028-.041.056-.063.083-.032.043-.067.084-.103.124-.021.025-.042.05-.064.073-.04.044-.083.085-.125.126l-.055.053c-.063.056-.128.11-.195.16l-.028.018c-.059.043-.118.083-.18.121-.024.015-.049.028-.074.042-.047.028-.095.054-.144.079l-.089.041c-.046.021-.093.042-.14.06l-.096.036c-.049.016-.097.032-.147.046l-.096.027c-.053.014-.105.025-.158.035l-.093.018c-.062.01-.125.018-.188.024-.023.003-.045.007-.069.008-.084.007-.169.01-.255.01h-.007c-.063 0-.127-.004-.19-.008l-.098-.004c-.097-.009-.195-.022-.294-.04-.404-.07-.78-.266-1.103-.545C.48 7.106.435 7.06.39 7.016v.01c0 1.67.163 3.303.483 4.878.127.626.413.93.413.93.31.409.756.707 1.27.823l.11.023c1.6.319 3.252.487 4.944.487 1.698 0 3.358-.17 4.963-.492l.079-.015c.849-.188 1.515-.868 1.69-1.73.002-.002.002-.006.002-.01.32-1.58.486-3.216.486-4.893 0-.397-.013-.791-.032-1.184" mask="url(#prefix__d)"/>
            </g>
            <path fill="#FFF" d="M97.398 8.472c-.572 0-1.036-.468-1.036-1.046 0-.578.464-1.047 1.036-1.047.572 0 1.035.469 1.035 1.047s-.463 1.046-1.035 1.046m2.224-1.799l-.012-.006-.022-.01-.02-.013c-.487-.294-.871-.488-1.401-.751-.005-.002-.854-.414-1.497-.674-.104-.043-.214-.064-.327-.064-.161 0-.32.046-.445.129l-.016.01c-.048.034-.265.212-.258.597.01.51.033 1.04.075 1.669.06.907.14 1.522.142 1.529l.001.016.002.017c.001.012.047.444.386.603.075.035.176.054.292.054.229 0 .452-.074.572-.149l.019-.011.02-.01c.004-.002.48-.25 1.222-.756.303-.208.575-.413.863-.63.159-.12.32-.24.489-.364.036-.026.065-.057.095-.088-.027-.35-.06-.7-.102-1.047l-.04-.03-.038-.02M91.651 10.21c.056.015.113.022.17.022h1.653c.04 0 .077-.004.114-.01.323-.054.558-.335.558-.666l-.001-.025v-.004l-.007-.077-.216-2.404-.005-.06-.014-.077c-.065-.26-.274-.457-.534-.502-.036-.006-.074-.01-.11-.01H92.038c-.03 0-.062.003-.093.007-.263.04-.483.243-.548.504l-.011.054-.01.112-.216 2.39-.005.047v.045c0 .307.203.575.496.653M87.634 6.38c.572 0 1.036.468 1.036 1.046 0 .578-.464 1.046-1.036 1.046-.572 0-1.035-.468-1.035-1.046 0-.578.463-1.047 1.035-1.047m-.86 3.374c.165.028.331.043.493.043 1.117 0 1.98-.663 2.308-1.773.246-.828.406-2.296-1.278-2.819-.235-.073-.475-.11-.714-.11-.675 0-1.347.298-1.862.796-.157.94-.24 1.902-.27 2.878.344.53.825.898 1.322.985" transform="translate(5 11)"/>
        </g>
    </g>
</svg>
