<svg xmlns="http://www.w3.org/2000/svg" xmlns:xlink="http://www.w3.org/1999/xlink" width="110" height="40" viewBox="0 0 110 40">
    <defs>
        <path id="prefix__a" d="M0 0.873L25.897 0.873 25.897 19 0 19z"/>
    </defs>
    <g fill="none" fill-rule="evenodd">
        <g>
            <g transform="translate(14 10) translate(0 .128)">
                <mask id="prefix__b" fill="#fff">
                    <use xlink:href="#prefix__a"/>
                </mask>
                <path fill="#FFF" d="M10.359 13.82V6.053l6.728 3.885-6.728 3.884zM25.356 3.704c-.298-1.114-1.175-1.991-2.29-2.29-2.02-.54-10.117-.54-10.117-.54s-8.1 0-10.118.54C1.717 1.713.839 2.59.54 3.704 0 5.723 0 9.936 0 9.936s0 4.214.54 6.234c.299 1.114 1.177 1.99 2.29 2.289 2.02.54 10.119.54 10.119.54s8.098 0 10.117-.54c1.115-.298 1.992-1.175 2.29-2.29.54-2.02.54-6.233.54-6.233s0-4.213-.54-6.233z" mask="url(#prefix__b)"/>
            </g>
            <path fill="#FFF" d="M40.46 15.714c.142-.37.213-.975.213-1.815v-3.537c0-.815-.071-1.41-.213-1.787-.142-.377-.392-.565-.75-.565-.346 0-.59.188-.732.565-.142.377-.213.972-.213 1.787v3.537c0 .84.068 1.445.204 1.815.136.37.383.556.741.556s.608-.186.75-.556m-2.871 1.778c-.512-.346-.876-.883-1.092-1.611-.216-.73-.324-1.698-.324-2.908v-1.648c0-1.222.123-2.204.37-2.945.247-.74.633-1.28 1.158-1.62.524-.34 1.213-.51 2.064-.51.84 0 1.513.174 2.019.519.506.346.877.886 1.111 1.62.235.735.352 1.714.352 2.936v1.648c0 1.21-.114 2.183-.342 2.917-.229.735-.599 1.272-1.112 1.61-.512.34-1.207.51-2.083.51-.901 0-1.608-.173-2.121-.518M77.248 8.222c-.13.16-.216.423-.26.787-.043.364-.064.917-.064 1.658v.814h1.87v-.814c0-.73-.024-1.281-.074-1.658-.05-.376-.138-.642-.268-.796-.13-.155-.331-.232-.602-.232-.272 0-.472.08-.602.24zM76.924 13v.574c0 .729.02 1.275.065 1.639.043.365.132.63.268.797.136.166.346.25.63.25.382 0 .645-.15.787-.445.142-.296.219-.79.232-1.482l2.203.13c.013.099.019.235.019.408 0 1.049-.287 1.833-.861 2.352-.574.518-1.386.777-2.436.777-1.26 0-2.142-.395-2.648-1.185-.506-.79-.76-2.012-.76-3.667v-1.981c0-1.704.263-2.948.788-3.732.525-.784 1.423-1.176 2.695-1.176.876 0 1.549.16 2.018.48.469.323.799.823.99 1.5.192.68.288 1.619.288 2.816V13h-4.278zM31.366 12.787l-2.908-10.5h2.538l1.018 4.76c.26 1.172.451 2.172.574 3h.074c.087-.594.278-1.587.574-2.983l1.056-4.778h2.537l-2.944 10.501v5.038h-2.519v-5.038zM51.499 6.472v11.352h-2l-.222-1.389h-.056c-.543 1.05-1.358 1.575-2.445 1.575-.753 0-1.308-.247-1.666-.74-.36-.495-.537-1.267-.537-2.316V6.472h2.555v8.334c0 .506.056.867.167 1.083.11.216.296.324.556.324.222 0 .435-.067.639-.204.203-.135.354-.308.453-.518V6.472h2.556zM64.608 6.472v11.352h-2l-.222-1.389h-.056c-.543 1.05-1.358 1.575-2.445 1.575-.753 0-1.308-.247-1.666-.74-.359-.495-.537-1.267-.537-2.316V6.472h2.555v8.334c0 .506.056.867.167 1.083.111.216.296.324.556.324.222 0 .435-.067.639-.204.203-.135.354-.308.453-.518V6.472h2.556z" transform="translate(14 10)"/>
            <path fill="#FFF" d="M58.444 4.343L55.907 4.343 55.907 17.825 53.407 17.825 53.407 4.343 50.87 4.343 50.87 2.287 58.444 2.287zM70.724 12.918c0 .827-.034 1.476-.102 1.945-.068.469-.182.802-.343 1-.16.197-.376.296-.648.296-.21 0-.404-.05-.583-.148-.18-.1-.324-.247-.435-.445V9.12c.086-.308.234-.561.444-.76.21-.196.438-.295.685-.295.26 0 .46.102.602.305.142.204.24.547.297 1.028.055.482.083 1.167.083 2.056v1.463zm2.343-4.631c-.155-.715-.405-1.234-.75-1.555-.346-.321-.822-.482-1.426-.482-.47 0-.908.133-1.315.398-.408.266-.723.615-.945 1.047h-.018V1.713H66.15v16.112h2.11l.26-1.074h.056c.197.383.493.685.889.907.395.223.833.334 1.315.334.864 0 1.5-.398 1.907-1.195.407-.796.61-2.04.61-3.732v-1.796c0-1.271-.076-2.265-.23-2.982z" transform="translate(14 10)"/>
        </g>
    </g>
</svg>
