<svg xmlns="http://www.w3.org/2000/svg" width="10" height="11" viewBox="0 0 10 11">
    <g fill="none" fill-rule="evenodd">
        <g fill="#666">
            <g>
                <path d="M5.833 5.188h3.36c.445 0 .807.362.807.808 0 .446-.362.808-.808.808H5.833v3.205c0 .46-.373.833-.833.833-.46 0-.833-.373-.833-.833V6.804H.807C.363 6.804 0 6.442 0 5.996c0-.446.362-.808.808-.808h3.359V1.983c0-.46.373-.833.833-.833.46 0 .833.373.833.833v3.205z" transform="translate(-300 -1420) translate(300 1420)"/>
            </g>
        </g>
    </g>
</svg>
