<svg width="22" height="22" viewBox="0 0 22 22" fill="none" xmlns="http://www.w3.org/2000/svg">
<mask id="mask0_45_18640" style="mask-type:luminance" maskUnits="userSpaceOnUse" x="3" y="6" width="13" height="13">
<path fill-rule="evenodd" clip-rule="evenodd" d="M3.5 6.14282H15.8654V18.4999H3.5V6.14282Z" fill="transparent"/>
</mask>
<g mask="url(#mask0_45_18640)">
<path fill-rule="evenodd" clip-rule="evenodd" d="M3.81813 14.6666C3.71813 14.7666 3.65813 14.9003 3.65063 15.0416L3.50063 17.8966C3.49313 18.0591 3.55313 18.2166 3.66813 18.3316C3.77563 18.4403 3.92188 18.5003 4.07438 18.5003C4.08438 18.5003 4.09438 18.4991 4.10438 18.4991L6.95813 18.3491C7.09938 18.3416 7.23313 18.2816 7.33313 18.1816L15.8656 9.65032C14.6406 8.42657 13.1994 6.99032 12.3419 6.14282L3.81813 14.6666Z" fill="#1E1E1E"/>
</g>
<mask id="mask1_45_18640" style="mask-type:luminance" maskUnits="userSpaceOnUse" x="13" y="3" width="6" height="6">
<path fill-rule="evenodd" clip-rule="evenodd" d="M13.668 3.5H18.5002V8.32375H13.668V3.5Z" fill="transparent"/>
</mask>
<g mask="url(#mask1_45_18640)">
<path fill-rule="evenodd" clip-rule="evenodd" d="M17.998 5.08375L16.9167 4.0025C16.593 3.67875 16.1617 3.5 15.7005 3.5C15.2405 3.5 14.808 3.67875 14.4842 4.0025L13.668 4.8175C14.2892 5.43 15.3505 6.485 17.1905 8.32375L17.998 7.5175C18.668 6.84625 18.668 5.755 17.998 5.08375Z" fill="#1E1E1E"/>
</g>
</svg>
