<svg width="22" height="22" viewBox="0 0 22 22" fill="none" xmlns="http://www.w3.org/2000/svg">
<path fill-rule="evenodd" clip-rule="evenodd" d="M14.5301 8.13308H7.46673C7.09773 8.13308 6.79909 7.83445 6.79909 7.46545C6.79909 7.09563 7.09773 6.79781 7.46673 6.79781H14.5301C14.8991 6.79781 15.1977 7.09563 15.1977 7.46545C15.1977 7.83445 14.8991 8.13308 14.5301 8.13308ZM14.5301 11.666H7.46673C7.09773 11.666 6.79909 11.3665 6.79909 10.9984C6.79909 10.6302 7.09773 10.3307 7.46673 10.3307H14.5301C14.8991 10.3307 15.1977 10.6302 15.1977 10.9984C15.1977 11.3665 14.8991 11.666 14.5301 11.666ZM14.5301 15.1997H7.46673C7.09773 15.1997 6.79909 14.9003 6.79909 14.5321C6.79909 14.1631 7.09773 13.8644 7.46673 13.8644H14.5301C14.8991 13.8644 15.1977 14.1631 15.1977 14.5321C15.1977 14.9003 14.8991 15.1997 14.5301 15.1997ZM15.7762 2.43018H6.22064C5.24045 2.43018 4.43945 3.33721 4.43945 4.44714V17.5532C4.43945 18.6631 5.24045 19.5702 6.22064 19.5702H15.7762C16.7564 19.5702 17.5574 18.6631 17.5574 17.5532V4.44714C17.5574 3.33721 16.7564 2.43018 15.7762 2.43018Z" fill="#444444"/>
</svg>
