<?xml version="1.0" encoding="UTF-8"?>
<svg width="22px" height="22px" viewBox="0 0 22 22" version="1.1" xmlns="http://www.w3.org/2000/svg" xmlns:xlink="http://www.w3.org/1999/xlink">
    <title>2C158144-6588-4E15-BC19-4843BC760EA6</title>
    <g id="Page-1" stroke="none" stroke-width="1" fill="none" fill-rule="evenodd">
        <g id="0525_Release-_Image-Resource" transform="translate(-1002.000000, -407.000000)" fill="#666666">
            <g id="ic_large_more_disable" transform="translate(1002.000000, 407.000000)">
                <path d="M19,9 C20.1045695,9 21,9.8954305 21,11 C21,12.1045695 20.1045695,13 19,13 C17.8954305,13 17,12.1045695 17,11 C17,9.8954305 17.8954305,9 19,9 Z M11,9 C12.1045695,9 13,9.8954305 13,11 C13,12.1045695 12.1045695,13 11,13 C9.8954305,13 9,12.1045695 9,11 C9,9.8954305 9.8954305,9 11,9 Z M3,9 C4.1045695,9 5,9.8954305 5,11 C5,12.1045695 4.1045695,13 3,13 C1.8954305,13 1,12.1045695 1,11 C1,9.8954305 1.8954305,9 3,9 Z" id="Combined-Shape" transform="translate(11.000000, 11.000000) rotate(-270.000000) translate(-11.000000, -11.000000) "></path>
            </g>
        </g>
    </g>
</svg>