<svg width="22" height="22" viewBox="0 0 22 22" fill="none" xmlns="http://www.w3.org/2000/svg">
<path fill-rule="evenodd" clip-rule="evenodd" d="M10.9994 2.81836C10.0956 2.81836 9.36301 3.55098 9.36301 4.45472C9.36301 5.35846 10.0956 6.09109 10.9994 6.09109C11.9031 6.09109 12.6357 5.35846 12.6357 4.45472C12.6357 3.55098 11.9031 2.81836 10.9994 2.81836ZM9.36301 11.0002C9.36301 10.0964 10.0956 9.36381 10.9994 9.36381C11.9031 9.36381 12.6357 10.0964 12.6357 11.0002C12.6357 11.9039 11.9031 12.6365 10.9994 12.6365C10.0956 12.6365 9.36301 11.9039 9.36301 11.0002ZM9.36301 17.5456C9.36301 16.6419 10.0956 15.9093 10.9994 15.9093C11.9031 15.9093 12.6357 16.6419 12.6357 17.5456C12.6357 18.4494 11.9031 19.182 10.9994 19.182C10.0956 19.182 9.36301 18.4494 9.36301 17.5456Z" fill="#666666"/>
</svg>
