<?xml version="1.0" encoding="UTF-8"?>
<svg width="34px" height="34px" viewBox="0 0 34 34" version="1.1" xmlns="http://www.w3.org/2000/svg" xmlns:xlink="http://www.w3.org/1999/xlink">
    <title>41804E5C-CAF4-423A-ABCA-FB9211944938</title>
    <defs>
        <path d="M17,34 C26.3888407,34 34,26.3888407 34,17 C34,7.61115925 26.3888407,0 17,0 C7.61115925,0 0,7.61115925 0,17 C0,26.3888407 7.61115925,34 17,34 Z" id="path-1"></path>
    </defs>
    <g id="Page-1" stroke="none" stroke-width="1" fill="none" fill-rule="evenodd">
        <g id="0525_Release-_Image-Resource" transform="translate(-150.000000, -162.000000)">
            <g id="img_youtube_profile" transform="translate(150.000000, 162.000000)">
                <rect id="Rectangle" fill="#D8D8D8" opacity="0" x="0" y="0" width="34" height="34"></rect>
                <g id="Group">
                    <mask id="mask-2" fill="white">
                        <use xlink:href="#path-1"></use>
                    </mask>
                    <use id="Mask" fill="#CA3C2D" xlink:href="#path-1"></use>
                    <path d="M14.9662459,19.9577049 L14.9662459,13.9831148 L20.1401803,16.9704918 L14.9662459,19.9577049 Z M26.4993607,12.1768852 C26.2703443,11.32 25.5954262,10.6452459 24.738541,10.4160656 C23.1855902,10 16.9577213,10 16.9577213,10 C16.9577213,10 10.7300164,10 9.17690164,10.4160656 C8.32001639,10.6452459 7.6452623,11.32 7.41608197,12.1768852 C7.00001639,13.73 7.00001639,16.9704918 7.00001639,16.9704918 C7.00001639,16.9704918 7.00001639,20.2108197 7.41608197,21.7640984 C7.6452623,22.6208197 8.32001639,23.2955738 9.17690164,23.5247541 C10.7300164,23.9409836 16.9577213,23.9409836 16.9577213,23.9409836 C16.9577213,23.9409836 23.1855902,23.9409836 24.738541,23.5247541 C25.5954262,23.2955738 26.2703443,22.6208197 26.4993607,21.7640984 C26.9155902,20.2108197 26.9155902,16.9704918 26.9155902,16.9704918 C26.9155902,16.9704918 26.9155902,13.73 26.4993607,12.1768852 L26.4993607,12.1768852 Z" id="Fill-1" fill="#FFFFFF" mask="url(#mask-2)"></path>
                </g>
            </g>
        </g>
    </g>
</svg>