<?xml version="1.0" encoding="UTF-8"?>
<svg width="34px" height="34px" viewBox="0 0 34 34" version="1.1" xmlns="http://www.w3.org/2000/svg" xmlns:xlink="http://www.w3.org/1999/xlink">
    <title>5FD4C18C-378D-46B1-B423-855E82F48DA6</title>
    <defs>
        <path d="M17,34 C26.3888407,34 34,26.3888407 34,17 C34,7.61115925 26.3888407,0 17,0 C7.61115925,0 0,7.61115925 0,17 C0,26.3888407 7.61115925,34 17,34 Z" id="path-1"></path>
    </defs>
    <g id="Page-1" stroke="none" stroke-width="1" fill="none" fill-rule="evenodd">
        <g id="0525_Release-_Image-Resource" transform="translate(-502.000000, -162.000000)">
            <g id="img_band_profile" transform="translate(502.000000, 162.000000)">
                <rect id="Rectangle" opacity="0" x="0" y="0" width="34" height="34"></rect>
                <g id="Group">
                    <mask id="mask-2" fill="white">
                        <use xlink:href="#path-1"></use>
                    </mask>
                    <use id="Mask" fill="#21C531" xlink:href="#path-1"></use>
                    <path d="M16.1867299,18.7301456 C16.1867299,17.7678391 16.9835985,16.9877437 17.9667371,16.9877437 C18.9497345,16.9877437 19.7466031,17.7678391 19.7466031,18.7301456 C19.7466031,19.6925903 18.9497345,20.4726857 17.9667371,20.4726857 C16.9835985,20.4726857 16.1867299,19.6925903 16.1867299,18.7301456 M17.9667371,24.6913069 C14.6035763,24.6913069 11.8774024,22.0223777 11.8774024,18.7301456 L11.8774024,10.6367419 C11.8774024,9.76312342 12.6008919,9.05472439 13.4934355,9.05472439 C14.385838,9.05472439 15.1093275,9.76312342 15.1093275,10.6367419 L15.1093275,18.7301456 C15.1093275,20.2751407 16.3886635,21.5272719 17.9667371,21.5272719 C19.5446695,21.5272719 20.8240055,20.2751407 20.8240055,18.7301456 C20.8240055,17.1852887 19.5446695,15.9330193 17.9667371,15.9330193 C17.2936251,15.9330193 16.674983,16.1609558 16.1867299,16.5420933 L16.1867299,15.2945208 C16.7212683,15.0284567 17.3259401,14.8782949 17.9667371,14.8782949 C20.1397456,14.8782949 21.9012668,16.6030145 21.9012668,18.7301456 C21.9012668,20.8574149 20.1397456,22.5821345 17.9667371,22.5821345 C15.7935874,22.5821345 14.0320662,20.8574149 14.0320662,18.7301456 L14.0320662,10.6367419 C14.0320662,10.3456739 13.790903,10.1095869 13.4934355,10.1095869 C13.1958269,10.1095869 12.9546638,10.3456739 12.9546638,10.6367419 L12.9546638,18.7301456 C12.9546638,21.4399653 15.1986524,23.6367207 17.9667371,23.6367207 C20.7346806,23.6367207 22.9786692,21.4399653 22.9786692,18.7301456 C22.9786692,16.0204641 20.7346806,13.8237087 17.9667371,13.8237087 C17.3397693,13.8237087 16.7398953,13.9367099 16.1867299,14.1424054 L16.1867299,13.0282794 C16.7497733,12.8600208 17.3473894,12.7691225 17.9667371,12.7691225 C21.3297567,12.7691225 24.0560717,15.4379136 24.0560717,18.7301456 C24.0560717,22.0223777 21.3297567,24.6913069 17.9667371,24.6913069 M17.9667371,11.7143981 C17.3521873,11.7143981 16.7558411,11.7903769 16.1867299,11.9328027 L16.1867299,10.6367419 C16.1867299,9.18057297 14.9809141,8 13.4934355,8 C12.0058158,8 10.8,9.18057297 10.8,10.6367419 L10.8,18.7301456 C10.8,22.6050663 14.0086413,25.7460313 17.9667371,25.7460313 C21.9246917,25.7460313 25.133333,22.6050663 25.133333,18.7301456 C25.133333,14.8553631 21.9246917,11.7143981 17.9667371,11.7143981" id="Fill-4" fill="#FFFFFF" mask="url(#mask-2)"></path>
                </g>
            </g>
        </g>
    </g>
</svg>