<svg xmlns="http://www.w3.org/2000/svg" xmlns:xlink="http://www.w3.org/1999/xlink" width="34" height="34" viewBox="0 0 34 34">
    <defs>
        <path id="prefix__a" d="M17 34c9.389 0 17-7.611 17-17S26.389 0 17 0 0 7.611 0 17s7.611 17 17 17z"/>
    </defs>
    <g fill="none" fill-rule="evenodd">
        <mask id="prefix__b" fill="#fff">
            <use xlink:href="#prefix__a"/>
        </mask>
        <use fill="red" xlink:href="#prefix__a"/>
        <g fill="#FFF" mask="url(#prefix__b)">
            <g>
                <path d="M6.104 7.123c.06.047.146.004.146-.073V.093C6.25.04 6.21 0 6.16 0H4.308c-.05 0-.091.041-.091.093v3.141L.147.02C.087-.028 0 .016 0 .093V7.05c0 .051.04.093.09.093h1.851c.05 0 .091-.042.091-.093V3.91l4.072 3.214zM25 5.804c0 .74-.6 1.339-1.34 1.339-.739 0-1.339-.6-1.339-1.34 0-.74.6-1.339 1.34-1.339.74 0 1.339.6 1.339 1.34M10.714 0C8.742 0 7.143 1.599 7.143 3.571c0 1.973 1.599 3.572 3.571 3.572 1.973 0 3.572-1.6 3.572-3.572S12.686 0 10.714 0m0 2.07c.828 0 1.501.674 1.501 1.501 0 .828-.673 1.501-1.5 1.501-.828 0-1.502-.673-1.502-1.5 0-.828.674-1.501 1.501-1.501M22.175.061l-1.452 3.065-.552-1.166-.908-1.916c-.028-.058-.105-.058-.133 0l-.908 1.916-.552 1.166L16.217.061C16.2.024 16.164 0 16.124 0H14.36c-.055 0-.091.062-.066.114l2.401 5.069.908 1.917c.028.057.105.057.133 0l.908-1.917.552-1.166.553 1.166.908 1.917c.027.057.105.057.132 0l.909-1.917L24.099.114C24.124.062 24.09 0 24.033 0h-1.764c-.04 0-.076.024-.094.061" transform="translate(5 14)"/>
            </g>
        </g>
    </g>
</svg>
