<svg xmlns="http://www.w3.org/2000/svg" xmlns:xlink="http://www.w3.org/1999/xlink" width="34" height="34" viewBox="0 0 34 34">
    <defs>
        <path id="prefix__a" d="M17 34c9.389 0 17-7.611 17-17S26.389 0 17 0 0 7.611 0 17s7.611 17 17 17z"/>
    </defs>
    <g fill="none" fill-rule="evenodd">
        <mask id="prefix__b" fill="#fff">
            <use xlink:href="#prefix__a"/>
        </mask>
        <use fill="#1877F2" xlink:href="#prefix__a"/>
        <path fill="#FFF" d="M14 21H21V34H14z" mask="url(#prefix__b)"/>
        <path fill="#FFF" d="M7 17H26V24H7zM12 5H26V17H12z" mask="url(#prefix__b)"/>
        <path fill="#1877F2" d="M34 17c0-9.389-7.611-17-17-17S0 7.611 0 17c0 8.485 6.217 15.518 14.344 16.793V21.914h-4.317V17h4.317v-3.745c0-4.26 2.538-6.614 6.42-6.614 1.86 0 3.806.332 3.806.332v4.183h-2.143c-2.112 0-2.77 1.31-2.77 2.655V17h4.714l-.754 4.914h-3.96v11.88C27.782 32.517 34 25.484 34 17" mask="url(#prefix__b)"/>
    </g>
</svg>
