<?xml version="1.0" encoding="UTF-8"?>
<svg width="34px" height="34px" viewBox="0 0 34 34" version="1.1" xmlns="http://www.w3.org/2000/svg" xmlns:xlink="http://www.w3.org/1999/xlink">
    <title>8D79AA42-4FAA-4D62-A5F8-D3CC4B2580B6</title>
    <defs>
        <path d="M17,34 C26.3888407,34 34,26.3888407 34,17 C34,7.61115925 26.3888407,0 17,0 C7.61115925,0 0,7.61115925 0,17 C0,26.3888407 7.61115925,34 17,34 Z" id="path-1"></path>
        <polygon id="path-3" points="0 0.0393426309 26.0276178 0.0393426309 26.0276178 26.3662835 0 26.3662835"></polygon>
    </defs>
    <g id="Page-1" stroke="none" stroke-width="1" fill="none" fill-rule="evenodd">
        <g id="0525_Release-_Image-Resource" transform="translate(-458.000000, -162.000000)">
            <g id="img_vlive_profile" transform="translate(458.000000, 162.000000)">
                <rect id="Rectangle" fill="#D8D8D8" opacity="0" x="0" y="0" width="34" height="34"></rect>
                <g id="Group">
                    <mask id="mask-2" fill="white">
                        <use xlink:href="#path-1"></use>
                    </mask>
                    <use id="Mask" fill="#54F7FF" xlink:href="#path-1"></use>
                    <g id="Page-1" mask="url(#mask-2)">
                        <g transform="translate(4.533333, 3.400000)">
                            <g id="Group-3" stroke-width="1" fill="none">
                                <mask id="mask-4" fill="white">
                                    <use xlink:href="#path-3"></use>
                                </mask>
                                <g id="Clip-2"></g>
                                <path d="M26.0276178,20.4530499 C26.0276178,23.7193672 23.4102178,26.3663352 20.1815289,26.3663352 L5.84588444,26.3663352 C2.61719556,26.3663352 -0.000204444444,23.7193672 -0.000204444444,20.4530499 L-0.000204444444,5.95366192 C-0.000204444444,2.68734467 2.61719556,0.0393426309 5.84588444,0.0393426309 L20.1815289,0.0393426309 C23.4102178,0.0393426309 26.0276178,2.68734467 26.0276178,5.95366192 L26.0276178,20.4530499 Z" id="Fill-1" fill="#54F7FF" mask="url(#mask-4)"></path>
                            </g>
                            <path d="M16.0497895,11.0926169 C16.7632951,11.2715645 16.9017665,11.9803901 16.7839399,12.4288307 L15.84888,15.8995578 C15.6942955,16.4706901 15.1791817,16.8275139 14.673635,16.7107157 C14.4067627,16.649102 14.1106856,16.4337219 13.9727176,16.0763624 C14.5512766,15.6825704 14.952592,14.9817814 14.9787757,14.1824105 C14.9943852,13.7221829 14.8609491,13.2790999 14.6041475,12.9067388 L14.8745445,11.903239 C15.0089877,11.4049716 15.4868401,10.9511732 16.0497895,11.0926169 M7.77523889,5.82384095 C8.33617416,5.69579158 8.90415889,6.0794039 9.06931757,6.69821987 L10.1821245,10.7609744 C10.3946153,11.4569414 10.993819,11.4381894 10.993819,11.4381894 C10.993819,11.4381894 11.589498,11.4671211 11.80501,10.7609744 L12.9183205,6.69875564 C13.0839827,6.0794039 13.6544851,5.69096964 14.2123991,5.82384095 C15.0507809,6.02368368 15.1550121,6.87770328 15.0356749,7.28113915 L13.7305185,12.179697 C13.4842911,12.0714712 13.2194329,12.0130721 12.9510501,12.0130721 L8.21230515,12.0130721 L6.95196315,7.28060337 C6.79687513,6.69768409 7.09899466,5.97814311 7.77523889,5.82384095 M7.35025741,16.735897 L7.35025741,14.1036521 C7.35025741,13.5035881 7.81703209,13.0905084 8.30243748,13.0905084 L12.9510501,13.0905084 C13.1303077,13.0905084 13.9671788,13.2105212 13.9671788,14.2129495 C13.9671788,15.2153778 13.1287971,15.3353906 12.9163063,15.3353906 L10.2561438,15.3353906 C9.97668324,15.3353906 9.75009359,15.5764877 9.75009359,15.8743766 C9.75009359,16.1717297 9.97668324,16.4128268 10.2561438,16.4128268 L10.5396326,16.4128268 C11.2632089,16.4128268 11.8296831,17.0407509 11.8296831,17.8422649 L11.8296831,18.4064322 C11.8296831,18.7037853 12.0567762,18.9448825 12.3357333,18.9448825 C12.6156974,18.9448825 12.842287,18.7037853 12.842287,18.4064322 L12.842287,17.8422649 C12.842287,17.3070293 12.6957591,16.8157269 12.4429857,16.4128268 L13.0104669,16.4128268 C13.290431,17.2261278 13.916322,17.6317068 14.4586266,17.7635065 C15.3000295,17.9681712 16.0679166,17.5202663 16.4526155,16.9946746 C16.6605744,17.2545237 16.9269432,17.4200771 17.2280556,17.5395541 C16.7990459,19.8605158 14.8392972,21.5117632 12.3236485,21.5117632 C8.97364638,21.5117632 7.35025741,18.7096788 7.35025741,16.735897 M17.7139646,16.5719509 C17.1122432,16.4251496 16.9279502,15.7736516 17.0311744,15.4205782 C17.0372168,15.4007547 17.5437706,13.5126963 17.5523306,13.4880508 C17.6933197,13.0765783 18.0820469,12.7090392 18.5931324,12.8236942 C19.2447035,12.9694241 19.3710902,13.7012878 19.2588025,14.0361449 L18.7744041,15.8341937 C18.6701729,16.2210207 18.2673468,16.7069653 17.7139646,16.5719509 M20.7603366,12.1304061 C20.1853024,11.1065469 19.3504454,10.6607851 18.2139724,10.7743687 C18.021623,10.2546704 17.5251399,9.47512302 16.529656,9.26777949 L16.901263,7.8758454 C17.1439657,7.07058099 17.0367133,6.12226561 16.6132424,5.33843206 C16.1832256,4.54281154 15.4772729,3.99632471 14.6252958,3.79862506 C13.0643449,3.43697937 11.4913092,4.46191005 11.0441723,6.13244527 L10.993819,6.37622126 L10.9429622,6.13083796 C10.4933077,4.45387348 8.9182578,3.42947857 7.3578104,3.79916084 C6.51993222,3.99793202 5.82354669,4.52941725 5.39655108,5.29610612 C4.97056253,6.06225922 4.85122531,7.01646808 5.07781496,7.84637797 L6.184076,11.9986063 C5.6845717,12.5659882 5.40208993,13.3214259 5.40208993,14.1036521 L5.40259347,16.761614 L5.40259347,16.7707221 C5.50078232,20.6550648 8.48270214,23.584127 12.3387545,23.584127 C13.9566046,23.584127 15.4641811,23.0574637 16.6983394,22.0614647 C17.8645208,21.1211859 18.7018954,19.7983663 19.0704813,18.3212446 C19.7708951,17.9815655 20.2235708,17.3589991 20.488429,16.3774659 L20.9733308,14.5783456 C21.154099,13.8989874 21.192871,12.899238 20.7603366,12.1304061" id="Fill-4" fill="#46465A"></path>
                        </g>
                    </g>
                </g>
            </g>
        </g>
    </g>
</svg>