<svg width="34" height="34" viewBox="0 0 34 34" fill="none" xmlns="http://www.w3.org/2000/svg">
<circle cx="17" cy="17" r="17" fill="#0545B1"/>
<path d="M21.7503 11C19.8992 11 18.2357 11.805 17.0915 13.084C17.0427 13.1392 16.9579 13.1392 16.9091 13.084C15.7643 11.805 14.1014 11 12.2503 11C8.79843 11 6 13.7984 6 17.2503C6 20.7021 8.79843 23.5006 12.2503 23.5006C14.1014 23.5006 15.7649 22.6955 16.9091 21.4166C16.9579 21.3614 17.0427 21.3614 17.0915 21.4166C18.2357 22.6955 19.8992 23.5006 21.7503 23.5006C25.2022 23.5006 28.0006 20.7021 28.0006 17.2503C28.0006 13.7984 25.2022 11 21.7503 11ZM21.7503 20.5C20.7501 20.5 19.9149 20.0179 19.402 19.4737C19.2388 19.3 19.0367 19.0619 18.8136 18.8598C18.7073 18.7633 18.6016 18.6774 18.5006 18.5995C18.0824 18.3016 17.5637 18.1244 17.0003 18.1244C16.4369 18.1244 15.9182 18.3016 15.5 18.5995C15.3984 18.6768 15.2932 18.7633 15.1869 18.8598C14.9639 19.0619 14.7618 19.3 14.5986 19.4737C14.0863 20.0179 13.2505 20.5 12.2503 20.5C12.2247 20.5 12.1998 20.4989 12.1742 20.4983C12.1312 20.4971 12.0882 20.4959 12.0453 20.493C12.0156 20.4913 11.9866 20.4884 11.9575 20.4861C11.9401 20.4849 11.9227 20.4832 11.9059 20.4814C10.2726 20.3095 8.99997 18.9283 8.99997 17.2497V17.2636V17.2363V17.2503C8.99997 15.5723 10.2726 14.1911 11.9053 14.0186C11.9233 14.0168 11.9419 14.0157 11.9605 14.0133C11.9883 14.011 12.0168 14.0087 12.0447 14.0069C12.0877 14.0046 12.1306 14.0035 12.1748 14.0017C12.1998 14.0017 12.2247 14 12.2497 14C13.2499 14 14.0851 14.4821 14.598 15.0263C14.7612 15.2 14.9633 15.4381 15.1864 15.6402C15.2927 15.7366 15.3984 15.8226 15.4994 15.9004C15.9176 16.1984 16.4363 16.3756 16.9997 16.3756C17.5631 16.3756 18.0818 16.1984 18.5 15.9004C18.6016 15.8232 18.7068 15.7366 18.8131 15.6402C19.0361 15.4381 19.2382 15.2 19.4014 15.0263C19.9137 14.4821 20.7495 14 21.7497 14C21.7747 14 21.7991 14.0011 21.8241 14.0017C21.8676 14.0029 21.9118 14.004 21.9547 14.0069C21.982 14.0087 22.0099 14.0104 22.0372 14.0133C22.0564 14.0145 22.0761 14.0162 22.0953 14.0186C23.6653 14.1847 24.9019 15.4683 24.9936 17.0598C24.9936 17.0702 24.9948 17.0807 24.9954 17.0906C24.9965 17.1202 24.9971 17.1498 24.9977 17.1794C24.9983 17.2236 24.9989 17.2677 24.9977 17.3119C24.9971 17.345 24.9971 17.3786 24.9954 17.4118C24.9954 17.4187 24.9942 17.4257 24.9942 17.4327C24.9059 19.027 23.6682 20.3153 22.0953 20.4814C22.0756 20.4832 22.0558 20.4849 22.0361 20.4867C22.0093 20.489 21.982 20.4913 21.9553 20.493C21.9123 20.4954 21.8676 20.4965 21.8241 20.4983C21.7991 20.4983 21.7747 20.5 21.7497 20.5V20.5012L21.7503 20.5Z" fill="white"/>
</svg>
