<?xml version="1.0" encoding="UTF-8"?>
<svg width="18px" height="18px" viewBox="0 0 18 18" version="1.1" xmlns="http://www.w3.org/2000/svg" xmlns:xlink="http://www.w3.org/1999/xlink">
    <title>D66FC1D0-8C9E-44D3-8427-CCAEB18E27C9</title>
    <defs>
        <circle id="path-1" cx="9" cy="9" r="9"></circle>
    </defs>
    <g id="Page-1" stroke="none" stroke-width="1" fill="none" fill-rule="evenodd">
        <g id="0525_Release-_Image-Resource" transform="translate(-240.000000, -246.000000)">
            <g id="stremsetting_vlive_s" transform="translate(240.000000, 246.000000)">
                <g id="Group">
                    <mask id="mask-2" fill="white">
                        <use xlink:href="#path-1"></use>
                    </mask>
                    <use id="Oval" fill="#54F7FF" xlink:href="#path-1"></use>
                    <path d="M11.1201052,7.53566262 C11.5512425,7.64379212 11.6349142,8.07210148 11.5637172,8.34307272 L10.9987052,10.440267 C10.9052972,10.7853749 10.5940385,11.0009865 10.2885609,10.9304109 C10.1273027,10.8931807 9.94839749,10.7630368 9.86503008,10.5471016 C10.2146255,10.3091519 10.4571213,9.88569866 10.4729428,9.40267706 C10.4823749,9.12458353 10.4017458,8.85684971 10.2465729,8.6318497 L10.4099609,8.02548278 C10.4911985,7.72440363 10.7799418,7.45019499 11.1201052,7.53566262 M6.12019025,4.35199347 C6.45913659,4.27461937 6.80234258,4.50641794 6.90214007,4.88033881 L7.57455606,7.33526693 C7.70295404,7.75580651 8.06502419,7.74447558 8.06502419,7.74447558 C8.06502419,7.74447558 8.42496452,7.76195759 8.55518807,7.33526693 L9.22790832,4.88066255 C9.32801007,4.50641794 9.67273736,4.2717057 10.0098581,4.35199347 C10.5164521,4.47274887 10.579434,4.98879205 10.5073243,5.23256904 L9.71868071,8.19253314 C9.56989727,8.12713746 9.40985617,8.09184969 9.24768526,8.09184969 L6.38428848,8.09184969 L5.62272412,5.2322453 C5.52901185,4.88001507 5.71156822,4.44523089 6.12019025,4.35199347 M5.86339428,10.9456267 L5.86339428,9.35508713 C5.86339428,8.99249719 6.14544388,8.74289287 6.43875113,8.74289287 L9.24768526,8.74289287 C9.35600204,8.74289287 9.86168321,8.81541086 9.86168321,9.4211303 C9.86168321,10.0268497 9.35508926,10.0993677 9.22669128,10.0993677 L7.61928237,10.0993677 C7.45041772,10.0993677 7.31350044,10.2450512 7.31350044,10.4250512 C7.31350044,10.6047275 7.45041772,10.7504109 7.61928237,10.7504109 L7.7905811,10.7504109 C8.22780363,10.7504109 8.57009684,11.1298354 8.57009684,11.6141519 L8.57009684,11.9550512 C8.57009684,12.1347275 8.70731838,12.2804109 8.87587877,12.2804109 C9.04504768,12.2804109 9.18196496,12.1347275 9.18196496,11.9550512 L9.18196496,11.6141519 C9.18196496,11.2907347 9.09342512,10.9938642 8.94068628,10.7504109 L9.28358801,10.7504109 C9.45275692,11.2418498 9.83095289,11.4869217 10.1586416,11.566562 C10.6670611,11.6902311 11.1310586,11.4195836 11.3635137,11.1019937 C11.4891733,11.259008 11.6501272,11.359044 11.832075,11.4312383 C11.572845,12.8336843 10.3886626,13.8314542 8.86857651,13.8314542 C6.84433055,13.8314542 5.86339428,12.1382886 5.86339428,10.9456267 M12.1256866,10.846562 C11.7620951,10.757857 11.6507357,10.3641879 11.7131091,10.1508425 C11.7167603,10.1388641 12.0228465,8.99800079 12.0280189,8.9831087 C12.1132119,8.7344756 12.3481011,8.51238927 12.6569256,8.58166984 C13.0506389,8.6697274 13.1270083,9.11195763 13.0591582,9.31429576 L12.7664594,10.4007706 C12.7034775,10.6345116 12.460069,10.9281447 12.1256866,10.846562 M13.9664634,8.16274897 C13.6189977,7.54407989 13.1145336,7.27472736 12.4278174,7.34336046 C12.3115898,7.02933167 12.0115888,6.5582885 11.4100656,6.43300072 L11.6346099,5.59192156 C11.7812635,5.10533882 11.716456,4.53231722 11.4605728,4.05868411 C11.2007342,3.5779287 10.7741608,3.24771287 10.2593519,3.12825243 C9.3161439,2.90972725 8.36563369,3.52904381 8.09545026,4.5384683 L8.06502419,4.68577046 L8.03429387,4.53749708 C7.76258913,3.5241877 6.81086188,2.90519487 5.86795819,3.12857617 C5.3616685,3.24868409 4.94087605,3.56983518 4.68286303,4.03310857 C4.42545854,4.49605823 4.35334877,5.07264097 4.49026606,5.57411581 L5.15872666,8.08310868 C4.85690011,8.42595042 4.6862099,8.88242525 4.6862099,9.35508713 L4.68651416,10.9611663 L4.68651416,10.9666699 C4.74584499,13.3137923 6.54767643,15.0836844 8.87770433,15.0836844 C9.85529374,15.0836844 10.7662501,14.765447 11.5119929,14.1636124 C12.2166605,13.595447 12.7226459,12.7961304 12.9453647,11.9035764 C13.3685912,11.6983246 13.6421215,11.3221375 13.8021626,10.729044 L14.0951656,9.64192167 C14.2043952,9.23141806 14.2278232,8.62731733 13.9664634,8.16274897" id="Fill-4" fill="#46465A" mask="url(#mask-2)"></path>
                </g>
            </g>
        </g>
    </g>
</svg>