<svg width="34" height="34" viewBox="0 0 34 34" xmlns="http://www.w3.org/2000/svg">
    <g fill="none" fill-rule="evenodd">
        <circle fill="#1B9CF0" fill-rule="nonzero" cx="17" cy="17" r="17"/>
        <path d="M27.24 10.32c-.564.346-1.86.849-2.5.849a4.085 4.085 0 0 0-2.896-1.185c-2.214 0-4.008 1.718-4.008 3.836 0 .294.035.581.101.857-3.003-.076-6.287-1.516-8.263-3.982-1.216 2.014-.164 4.254 1.215 5.07-.472.034-1.341-.052-1.75-.435-.028 1.337.644 3.108 3.092 3.75-.472.243-1.306.174-1.67.122.128 1.128 1.779 2.603 3.584 2.603-.644.713-3.064 2.005-5.78 1.594a12.447 12.447 0 0 0 6.27 1.696c6.467 0 11.488-5.017 11.218-11.206l-.002-.02.002-.049-.002-.056c.588-.385 1.378-1.067 1.943-1.964-.328.172-1.31.518-2.223.603.586-.302 1.455-1.295 1.67-2.084z" fill="#FFF"/>
    </g>
</svg>
