<svg width="95" height="35" viewBox="0 0 95 35" fill="none" xmlns="http://www.w3.org/2000/svg">
<rect width="95" height="35" rx="17.5" fill="#2D2D2D"/>
<path d="M77.7036 16.227H77.3736C76.4056 16.227 76.2186 16.722 76.2186 17.382V21.661H74.6016V14.665H76.2186V14.841C76.5156 14.731 76.8676 14.665 77.2416 14.665H77.9566C79.5846 14.665 80.4426 15.864 80.4426 17.052V21.661H78.8256V17.382C78.8256 16.722 78.6716 16.227 77.7036 16.227Z" fill="#BABABA"/>
<path d="M70.3484 14.665H70.9094C72.5154 14.665 73.4944 15.666 73.4944 17.217V19.098C73.4944 20.649 72.5154 21.661 70.9094 21.661H70.3484C68.7534 21.661 67.7744 20.649 67.7744 19.098V17.217C67.7744 15.666 68.7534 14.665 70.3484 14.665ZM70.9094 16.238H70.3484C69.7764 16.238 69.3364 16.667 69.3364 17.261V19.054C69.3364 19.648 69.7764 20.077 70.3484 20.077H70.9094C71.4924 20.077 71.9214 19.648 71.9214 19.054V17.261C71.9214 16.667 71.4924 16.238 70.9094 16.238Z" fill="#BABABA"/>
<path d="M60.8682 19.285V17.151C60.8682 15.809 62.0012 14.665 63.1232 14.665H64.6852C66.1152 14.665 66.9402 15.996 66.9402 17.096V18.867H62.4852V19.241C62.4852 19.901 62.9032 20.143 63.4972 20.143H66.6982V21.683H63.1342C61.8912 21.683 60.8682 20.66 60.8682 19.285ZM62.5072 17.492V17.569H65.3452V17.492C65.3452 16.799 64.9382 16.26 64.3332 16.26H63.4752C62.8922 16.26 62.5072 16.843 62.5072 17.492Z" fill="#BABABA"/>
<path d="M60.2776 14.665L57.4946 24.048H55.9766L56.6806 21.639L54.5576 14.665H56.0866L57.4286 19.131L58.7486 14.665H60.2776Z" fill="#BABABA"/>
<path d="M51.1561 16.2268H50.8151C49.8471 16.2268 49.6601 16.7218 49.6601 17.3818V21.6608H48.1201V12.2998H49.6601V14.8078C49.9241 14.7198 50.2321 14.6648 50.5731 14.6648H51.3981C53.0261 14.6648 53.8511 15.8638 53.8511 17.0518V21.6608H52.3001V17.3818C52.3001 16.7218 52.1131 16.2268 51.1561 16.2268Z" fill="#BABABA"/>
<path d="M43.9549 14.665H44.5159C46.1219 14.665 47.1009 15.666 47.1009 17.217V19.098C47.1009 20.649 46.1219 21.661 44.5159 21.661H43.9549C42.3599 21.661 41.3809 20.649 41.3809 19.098V17.217C41.3809 15.666 42.3599 14.665 43.9549 14.665ZM44.5159 16.238H43.9549C43.3829 16.238 42.9429 16.667 42.9429 17.261V19.054C42.9429 19.648 43.3829 20.077 43.9549 20.077H44.5159C45.0989 20.077 45.5279 19.648 45.5279 19.054V17.261C45.5279 16.667 45.0989 16.238 44.5159 16.238Z" fill="#BABABA"/>
<path d="M33.8574 21.6608V12.2998H38.1254C39.3574 12.2998 40.3474 13.4108 40.3474 14.7748V19.1858C40.3474 20.5498 39.3574 21.6608 38.1254 21.6608H33.8574ZM35.5734 19.9338H37.7074C38.2244 19.9338 38.6424 19.4718 38.6424 18.8998V15.0498C38.6424 14.4888 38.2244 14.0158 37.7074 14.0158H35.5734V19.9338Z" fill="#BABABA"/>
<path d="M23.9885 12.311L25.4845 19.065H25.5725C26.0675 16.821 26.5845 14.555 27.0795 12.311H29.0485V21.661H27.6955V15.578H27.6075C27.1895 17.602 26.6835 19.648 26.2545 21.661L24.7475 21.672L23.4715 15.6H23.3835V21.661H22.0195V12.311H23.9885Z" fill="#BABABA"/>
<path d="M20.952 14.5878V15.3468C20.952 15.9408 20.699 16.5568 20.292 16.9748H20.303C20.842 17.3708 21.073 17.9868 21.073 18.6028V19.1858C21.073 20.7478 20.149 21.6608 18.84 21.6608H14.583V12.2998H18.719C20.05 12.2998 20.952 13.2238 20.952 14.5878ZM16.2 14.0048V16.1938H18.422C18.917 16.1938 19.335 15.7318 19.335 15.1708V15.0278C19.335 14.4778 18.917 14.0048 18.422 14.0048H16.2ZM19.456 18.8998V18.8008C19.456 18.2398 19.038 17.7778 18.532 17.7778H16.2V19.9338H18.532C19.038 19.9338 19.456 19.4718 19.456 18.8998Z" fill="#BABABA"/>
</svg>
