<svg width="66" height="35" viewBox="0 0 66 35" fill="none" xmlns="http://www.w3.org/2000/svg">
<rect width="66" height="35" rx="17.5" fill="#2D2D2D"/>
<path d="M46.4249 16.2419C47.5819 15.6699 48.9729 15.7609 49.9479 16.6969C50.3379 17.0869 50.6499 17.7109 50.7929 18.2439C51.0789 19.1929 50.8319 20.2069 50.3249 21.0389C50.0909 21.4159 49.7139 21.7409 49.3109 21.9229C48.7909 22.1569 48.1539 22.2609 47.5819 22.2089C45.5149 22.0919 44.3579 20.2069 44.8779 18.2569C45.1509 17.2299 45.7099 16.5929 46.4249 16.2419ZM46.8149 17.9839C46.3079 18.4779 46.2299 19.5049 46.6589 20.1159C46.8279 20.3759 47.3479 20.5709 47.8289 20.5969C48.9469 20.6619 49.5449 19.0759 48.9469 18.1139C48.5179 17.4119 47.3609 17.4769 46.8149 17.9839Z" fill="#BABABA"/>
<path d="M44.3456 16.3852C44.4756 16.7102 44.3586 17.2042 44.0596 17.3212C43.7606 17.4512 42.9286 17.5032 42.4996 17.5162C42.5386 18.5562 42.5776 19.7522 42.5516 20.5062C42.5516 21.0392 42.5776 21.9492 42.2266 22.0792C41.6936 22.3002 41.1996 22.1702 41.0176 21.8972C40.7316 21.4552 40.7706 20.6232 40.7836 20.1682C40.7966 19.4402 40.8096 18.4652 40.8096 17.5292H40.6146C40.1986 17.5292 39.2366 17.5162 38.9896 17.2172C38.5996 16.7622 38.8856 16.1122 39.3276 15.9952C39.6396 15.9172 40.2896 15.9172 40.7966 15.9302C40.7836 15.7612 40.7836 15.5922 40.7706 15.4362C40.7446 15.0072 40.7316 14.0712 41.1216 13.7722C41.6416 13.3562 42.2396 13.7332 42.3696 14.2142C42.4866 14.6172 42.4736 15.4232 42.4736 15.9302H42.6036C43.1106 15.9432 44.0856 15.7612 44.3456 16.3852Z" fill="#BABABA"/>
<path d="M37.6515 17.1907C37.6515 18.1527 37.6905 19.7257 37.6515 20.7917C37.6255 21.3117 37.5735 22.1047 36.8325 22.0657C36.2995 22.0397 36.0785 21.5847 36.0525 20.8047C36.0395 19.9987 36.0135 18.6597 36.0265 17.8407C36.0395 17.3597 35.9355 16.3587 36.2605 15.9167C36.4945 15.6307 37.2745 15.6177 37.4955 15.9427C37.6255 16.1507 37.6515 16.7617 37.6515 17.1907ZM37.1575 14.5647C36.6245 14.7077 36.2345 14.4087 36.1565 13.9147C36.0135 13.1737 36.7415 12.7577 37.3525 13.1997C37.9505 13.6287 37.8465 14.3437 37.1575 14.5647Z" fill="#BABABA"/>
<path d="M29.6411 19.349V17.477C29.6411 17.074 29.5891 16.593 29.7451 16.229C29.8881 15.904 30.2521 15.748 30.5641 15.826C31.2011 15.93 31.1881 16.398 31.2141 16.866C31.5521 16.255 32.3451 16.099 32.6311 16.086C33.2941 16.086 33.9961 16.385 34.4251 16.905C34.9061 17.516 34.8931 18.283 34.9321 19.037C34.9711 19.583 34.9711 20.142 34.9321 20.688C34.9061 21.13 34.9971 21.988 34.4901 22.092C33.7621 22.248 33.6061 21.923 33.5151 21.442C33.4371 21.052 33.4371 20.402 33.4241 19.999C33.4241 19.674 33.3981 19.245 33.4111 18.894C33.4111 18.088 32.9561 17.633 32.2281 17.698C31.6691 17.763 31.1881 18.166 31.2011 18.751C31.2141 19.193 31.1751 19.479 31.1881 20.038C31.1881 20.61 31.2271 21.312 31.0711 21.715C30.9411 22.131 30.5771 22.313 30.1351 22.079C29.7581 21.858 29.7191 21.325 29.6931 20.948C29.6411 20.376 29.6411 19.921 29.6411 19.349Z" fill="#BABABA"/>
<path d="M28.2805 19.0241C28.2285 20.1551 28.2285 21.4551 27.1105 21.9751C26.1355 22.4431 24.8225 22.3781 23.9905 21.8581C23.1455 21.3511 23.0155 20.1031 22.9765 19.1931C22.9375 18.5951 22.9375 18.0101 22.9765 17.4251C22.9895 16.9701 22.9115 16.2161 23.3795 15.9691C23.8995 15.6961 24.4065 15.9431 24.4975 16.6971C24.5495 17.1001 24.5235 17.6201 24.5495 18.0231C24.6015 19.2061 24.4455 21.0131 26.1355 20.5191C26.5255 20.4021 26.6295 19.9341 26.6295 18.9851C26.6295 18.1661 26.5515 16.8271 26.6945 16.3721C26.8635 15.7611 27.9425 15.7221 28.1375 16.3331C28.3325 16.8921 28.3065 18.1271 28.2805 19.0241Z" fill="#BABABA"/>
<path d="M21.5927 21.13C21.5797 21.416 21.5537 21.793 21.2807 22.001C20.8647 22.339 20.1887 22.118 19.9157 21.754C19.3307 21.039 18.8627 20.233 18.3557 19.466L17.2637 17.815C16.9647 17.347 16.6397 16.723 16.2887 16.216L16.2497 21.182V21.299C16.2497 21.572 16.1587 21.858 15.9377 22.053C15.8597 22.118 15.7427 22.17 15.5997 22.196C14.7417 22.352 14.4817 21.585 14.5337 20.974V20.753L14.5597 19.739L14.5727 17.854C14.5857 17.308 14.5857 16.723 14.5857 16.112C14.5727 15.371 14.5987 14.474 14.6377 13.759C14.6507 13.577 14.6897 13.408 14.7807 13.252C14.8197 13.122 14.9237 13.018 15.0537 12.94C15.2487 12.823 15.5997 12.784 15.8207 12.836C15.9117 12.862 15.9897 12.914 16.0807 12.966C16.1587 13.031 16.2497 13.109 16.3147 13.187C16.4057 13.278 16.4707 13.382 16.5357 13.46C16.5877 13.564 16.6397 13.642 16.7047 13.733L16.8477 13.941L19.8507 18.673V17.815C19.8507 17.269 19.8377 16.684 19.8247 16.06C19.8247 15.332 19.8247 14.448 19.8637 13.72C19.8637 13.551 19.9157 13.382 19.9937 13.213C20.1627 12.771 20.9167 12.628 21.2937 12.953C21.3457 13.005 21.4107 13.083 21.4367 13.161C21.4757 13.265 21.5017 13.356 21.5147 13.46C21.5407 13.577 21.5537 13.668 21.5537 13.785C21.5537 15.943 21.5667 18.257 21.5797 20.415C21.5797 20.662 21.6057 20.883 21.5927 21.13Z" fill="#BABABA"/>
</svg>
