<svg width="75" height="35" viewBox="0 0 75 35" fill="none" xmlns="http://www.w3.org/2000/svg">
<rect width="75" height="35" rx="17.5" fill="#444444"/>
<path d="M55.5205 12.9014V14.1963H51.5977V17.002C53.8701 16.9956 55.1016 16.9512 56.498 16.6846L56.6504 17.9668C55.1016 18.2461 53.7051 18.3223 51.001 18.335H49.998V12.9014H55.5205ZM59.0117 19.3887V23.5527H57.3867V20.6836H51.0645V19.3887H59.0117ZM59.0117 12.0127V18.8428H57.3867V12.0127H59.0117Z" fill="#BABABA"/>
<path d="M47.624 13.0029V14.0947C47.624 15.542 47.624 17.167 47.1543 19.6172L45.5293 19.4521C45.9673 17.2686 45.9863 15.6436 45.999 14.2852H39.1943V13.0029H47.624ZM48.6396 20.8232V22.1436H38.1025V20.8232H41.873V16.8496H43.4854V20.8232H48.6396Z" fill="#BABABA"/>
<path d="M36.2363 14.8311V16.126H28.2002V12.165H29.8125V14.8311H36.2363ZM37.4297 17.0146V18.3096H32.9102V19.3506H36.1221V23.4131H28.1748V19.3506H31.2979V18.3096H26.8672V17.0146H37.4297ZM29.7617 20.6074V22.1436H34.5479V20.6074H29.7617Z" fill="#BABABA"/>
<path d="M26.3848 16.3799V17.7002H24.7471V23.5273H23.1221V12H24.7471V16.3799H26.3848ZM17.6123 13.1045V19.3633C19.0913 19.3442 20.6782 19.2046 22.3477 18.8682L22.5127 20.2139C20.583 20.6074 18.7041 20.709 17.0029 20.709H16V13.1045H17.6123Z" fill="#BABABA"/>
</svg>
