<svg width="117" height="35" viewBox="0 0 117 35" fill="none" xmlns="http://www.w3.org/2000/svg">
<rect width="117" height="35" rx="17.5" fill="#444444"/>
<path d="M99.0301 14.3901C100.636 14.3901 101.901 15.2041 101.978 16.4801H100.086C100.02 16.0841 99.5691 15.8421 98.9971 15.8421C98.4031 15.8421 97.9741 16.0511 97.9741 16.3371C97.9741 16.6561 98.4031 16.8101 99.5031 16.9861C101.406 17.2721 102.088 17.8991 102.088 19.0101C102.088 20.3301 100.702 21.1441 99.0631 21.1441C97.3801 21.1441 96.1041 20.3081 96.0381 18.9551H97.9301C97.9961 19.3731 98.4801 19.6481 99.0961 19.6481C99.7231 19.6481 100.185 19.4171 100.185 19.1201C100.185 18.8121 99.7451 18.6141 98.6341 18.4491C97.0941 18.2181 96.0821 17.7451 96.0821 16.4361C96.0821 15.1821 97.3911 14.3901 99.0301 14.3901Z" fill="#EFFC35"/>
<path d="M88.7295 20.9901V14.5441H90.6875V15.2041C91.0725 14.6871 91.6665 14.3901 92.4915 14.3901C93.9875 14.3901 95.0105 15.4791 95.0105 17.2611V20.9901H93.0525V17.5911C93.0525 16.6121 92.6565 16.0731 91.9195 16.0731C91.1495 16.0731 90.6875 16.6781 90.6875 17.6791V20.9901H88.7295Z" fill="#EFFC35"/>
<path d="M83.4455 21.1441C81.5975 21.1441 80.3105 19.7251 80.3105 17.7671C80.3105 15.8091 81.5975 14.3901 83.4455 14.3901C84.2925 14.3901 84.9085 14.6871 85.2935 15.2041V14.5441H87.2515V20.9901H85.2935V20.3301C84.9085 20.8471 84.2925 21.1441 83.4455 21.1441ZM83.7535 19.4721C84.7105 19.4721 85.3266 18.7571 85.3266 17.7671C85.3266 16.7771 84.7105 16.0621 83.7535 16.0621C82.8185 16.0621 82.2245 16.7771 82.2245 17.7671C82.2245 18.7571 82.8185 19.4721 83.7535 19.4721Z" fill="#EFFC35"/>
<path d="M75.8894 11.8052C77.8914 11.8052 79.3874 13.0262 79.4864 14.7312H77.4184C77.2974 13.9502 76.7144 13.4772 75.7574 13.4772C74.8224 13.4772 74.3054 13.8512 74.3054 14.3902C74.3054 15.0612 74.9984 15.2922 76.7474 15.6552C78.8154 16.0842 79.5194 17.1072 79.5194 18.4492C79.5194 20.1652 77.9024 21.2102 75.9004 21.2102C73.6894 21.2102 72.0724 20.0112 71.9844 18.0972H74.0414C74.1514 18.9552 74.8994 19.5272 76.0434 19.5272C76.8574 19.5272 77.4624 19.1202 77.4624 18.5372C77.4624 17.8222 76.8574 17.5362 75.2624 17.2392C73.3154 16.8762 72.2594 16.0732 72.2594 14.3902C72.2594 12.7732 73.8654 11.8052 75.8894 11.8052Z" fill="#EFFC35"/>
<path d="M68.3479 14.5439V16.2269H67.0719V20.9899H65.1139V16.2269H63.8379V14.5439H65.1139V12.6299H67.0719V14.5439H68.3479Z" fill="#EFFC35"/>
<path d="M60.0327 21.1441C58.0637 21.1441 56.6777 19.7361 56.6777 17.7671C56.6777 15.8091 58.0637 14.3901 60.0327 14.3901C62.0017 14.3901 63.3877 15.7981 63.3877 17.7671C63.3877 17.9541 63.3767 18.1631 63.3437 18.3941H58.6247C58.7787 19.1421 59.2957 19.5711 60.0327 19.5711C60.5937 19.5711 61.0557 19.3731 61.2207 19.0651H63.1897C62.8597 20.2971 61.5947 21.1441 60.0327 21.1441ZM58.6137 17.1291H61.4737C61.3087 16.3591 60.8027 15.9411 60.0327 15.9411C59.2627 15.9411 58.7787 16.3591 58.6137 17.1291Z" fill="#EFFC35"/>
<path d="M54.4448 20.99L52.8718 18.625L52.0908 19.505V20.99H50.1328V11.75H52.0908V17.173L54.3678 14.544H56.5458L54.0708 17.294L56.6778 20.99H54.4448Z" fill="#EFFC35"/>
<path d="M44.5684 20.9901V14.5441H46.5264V15.2041C46.9114 14.6871 47.5054 14.3901 48.3304 14.3901C48.6934 14.3901 48.9244 14.4121 49.1774 14.5001L49.1994 16.3371C48.9244 16.1941 48.5834 16.1171 48.1984 16.1171C47.1534 16.1171 46.5264 16.7111 46.5264 17.6901V20.9901H44.5684Z" fill="#EFFC35"/>
<path d="M39.2844 21.1441C37.4364 21.1441 36.1494 19.7251 36.1494 17.7671C36.1494 15.8091 37.4364 14.3901 39.2844 14.3901C40.1314 14.3901 40.7474 14.6871 41.1324 15.2041V14.5441H43.0904V20.9901H41.1324V20.3301C40.7474 20.8471 40.1314 21.1441 39.2844 21.1441ZM39.5924 19.4721C40.5494 19.4721 41.1654 18.7571 41.1654 17.7671C41.1654 16.7771 40.5494 16.0621 39.5924 16.0621C38.6574 16.0621 38.0634 16.7771 38.0634 17.7671C38.0634 18.7571 38.6574 19.4721 39.5924 19.4721Z" fill="#EFFC35"/>
<path d="M25.082 20.9901V14.5441H27.04V15.1601C27.425 14.6431 27.909 14.3901 28.624 14.3901C29.438 14.3901 30.109 14.7201 30.538 15.3141C31.022 14.6981 31.704 14.3901 32.683 14.3901C34.168 14.3901 35.158 15.4681 35.158 17.2611V20.9901H33.2V17.5911C33.2 16.6121 32.826 16.0731 32.111 16.0731C31.473 16.0731 31.132 16.5791 31.099 17.4921V20.9901H29.141V17.5911C29.141 16.6121 28.767 16.0731 28.052 16.0731C27.414 16.0731 27.073 16.5791 27.04 17.4921V20.9901H25.082Z" fill="#EFFC35"/>
<path d="M19.1925 11.7939C21.5355 11.7939 23.2295 13.1139 23.7465 14.7969H21.5465C21.1725 14.1369 20.3255 13.6309 19.2365 13.6309C17.6085 13.6309 16.3985 14.8299 16.3985 16.5019C16.3985 18.1849 17.6085 19.4059 19.2365 19.4059C20.6335 19.4059 21.6015 18.5479 21.8105 17.6679H19.0715V15.9739H23.9445V16.5019C23.9445 19.2189 21.9095 21.2099 19.1925 21.2099C16.4315 21.2099 14.3965 19.2189 14.3965 16.5019C14.3965 13.7849 16.4315 11.7939 19.1925 11.7939Z" fill="#EFFC35"/>
</svg>
