<svg width="142" height="35" viewBox="0 0 142 35" fill="none" xmlns="http://www.w3.org/2000/svg">
<rect width="142" height="35" rx="17.5" fill="#2D2D2D"/>
<path d="M20.588 15.008C20.072 15.008 19.688 14.72 19.652 14.3C19.592 13.688 19.136 13.304 18.224 13.304C17.324 13.304 16.856 13.772 16.82 14.696C16.772 15.932 16.784 17.048 16.82 18.2C16.856 19.148 17.312 19.556 18.224 19.556C19.172 19.556 19.544 19.196 19.628 18.428C19.664 18.032 20.108 17.72 20.576 17.72C21.2 17.72 21.512 18.032 21.512 18.668C21.512 19.976 20.228 21.044 18.224 21.044C16.352 21.044 14.876 20.312 14.816 18.2C14.78 16.976 14.78 15.8 14.816 14.66C14.876 12.656 16.376 11.816 18.176 11.816C20.108 11.816 21.524 12.812 21.524 14.084C21.524 14.696 21.212 15.008 20.588 15.008ZM26.6859 20.66C26.1099 21.008 25.3179 21.056 24.8259 21.056C22.8939 21.056 22.2219 20.18 22.1979 19.328C22.1019 17.924 23.2779 17.24 25.4979 17.24H26.5059C26.4699 16.76 25.9899 16.292 25.0779 16.292C24.4299 16.292 24.0699 16.412 23.8419 16.508C23.4099 16.688 22.9539 16.724 22.7499 16.268C22.5699 15.86 22.7139 15.512 23.0979 15.32C23.5899 15.068 24.4059 14.9 25.1259 14.9C27.5139 14.9 28.5339 16.088 28.5339 17.372V20.168C28.5339 20.684 28.1499 20.972 27.5499 20.972C27.1299 20.972 26.8539 20.876 26.6859 20.66ZM24.2019 19.136C24.2019 19.472 24.4899 19.712 25.0179 19.712C25.7739 19.712 26.5179 19.304 26.5179 18.776V18.536H25.4619C24.4659 18.536 24.2019 18.74 24.2019 19.136ZM34.2922 14.924C34.9642 14.924 35.1922 15.272 35.1922 15.68C35.1922 15.992 35.0002 16.376 34.2922 16.376H33.0562V20.072C33.0562 20.708 32.5642 20.984 32.0362 20.984C31.5202 20.984 31.0162 20.708 31.0162 20.072V16.376H30.2962C29.6482 16.376 29.3962 16.028 29.3962 15.656C29.3962 15.284 29.6122 14.924 30.2962 14.924H31.0162V14.096C31.0162 12.656 32.2282 11.732 33.7882 11.732H34.5442C35.0482 11.732 35.4322 11.936 35.4322 12.44C35.4322 12.992 35.0842 13.148 34.5562 13.148H34.0882C33.4642 13.148 33.0562 13.472 33.0562 14V14.924H34.2922ZM37.7201 18.62C37.7321 19.304 38.3441 19.7 39.3401 19.7C39.9761 19.7 40.5761 19.448 40.9361 19.328C41.3321 19.196 41.7521 19.16 41.9921 19.544C42.1841 19.844 42.1601 20.252 41.7641 20.48C41.3081 20.78 40.3961 21.056 39.2921 21.056C37.1441 21.056 35.8001 20.048 35.7041 18.572C35.6801 18.152 35.6801 17.756 35.7041 17.348C35.7281 16.04 37.1081 14.9 39.0761 14.9C40.8401 14.9 42.3161 15.944 42.3161 17.336C42.3161 18.452 41.5241 18.62 40.7201 18.62H37.7201ZM40.0361 17.336C40.3121 17.336 40.3961 17.324 40.3961 17.18C40.3961 16.676 39.8201 16.28 39.0641 16.28C38.3441 16.28 37.7201 16.616 37.7201 17.144V17.336H40.0361ZM49.0944 19.484C49.7064 19.484 49.9344 19.844 49.9344 20.252C49.9344 20.564 49.7544 20.984 49.0944 20.984H44.3064C43.6584 20.984 43.3224 20.504 43.3224 20.012C43.3224 19.832 43.3944 19.616 43.5384 19.388C44.0064 18.752 44.8224 17.996 45.6024 17.3C46.7424 16.28 47.7624 15.344 47.7624 14.48C47.7624 13.976 47.6664 13.34 46.7304 13.34C46.0824 13.34 45.4944 13.652 45.4944 14.336C45.4944 14.696 45.1824 15.008 44.5584 15.008C44.0544 15.008 43.5744 14.78 43.5744 14.132C43.5744 12.728 45.0744 11.816 46.6704 11.816C48.6504 11.816 49.7904 12.836 49.7904 14.384C49.7904 15.776 48.7344 16.808 47.4384 17.984C46.9224 18.452 46.4064 18.884 45.8784 19.484H49.0944ZM57.4249 17.768C58.1449 17.768 58.2769 18.128 58.2769 18.5C58.2769 18.908 58.1209 19.256 57.4249 19.256H56.8489V20.072C56.8489 20.444 56.6569 20.984 55.8049 20.984C54.9529 20.984 54.7609 20.444 54.7609 20.072V19.256H51.1489C50.4529 19.256 50.3689 18.488 50.6329 18.032L53.9209 12.296C54.2209 11.792 54.7369 11.72 55.2049 11.936C55.7809 12.2 55.8649 12.752 55.5649 13.256L52.9129 17.768H54.7609V15.932C54.7609 15.416 55.0369 14.948 55.8049 14.948C56.5609 14.948 56.8489 15.404 56.8489 15.932V17.768H57.4249ZM65.5228 19.556C66.4828 19.556 67.2388 19.244 67.2388 18.488C67.2388 17.66 66.3868 17.312 65.4388 16.988C63.9868 16.472 62.2468 15.884 62.2468 14.312C62.2468 12.368 64.3708 11.84 66.0148 11.84C66.7828 11.84 68.2228 11.984 68.7268 12.416C68.9188 12.572 68.9788 12.812 68.9788 12.992C68.9428 13.748 68.1988 13.82 67.7068 13.628C67.1188 13.436 66.6268 13.292 66.0148 13.292C65.0428 13.292 64.3348 13.556 64.3348 14.192C64.3348 14.924 65.2467 15.272 66.2188 15.584L66.8788 15.812C68.0908 16.256 69.3148 16.928 69.3148 18.332C69.3148 20.192 67.7787 21.056 65.5828 21.056C63.9868 21.056 62.8588 20.612 62.3428 20.096C62.1868 19.964 62.1028 19.784 62.0908 19.604C62.0308 19.028 62.5107 18.728 62.9428 18.728C63.1828 18.728 63.4468 18.812 63.6268 18.956C64.1308 19.304 64.5148 19.556 65.5228 19.556ZM72.9467 19.76C73.7027 19.76 73.8827 19.532 73.8827 19.304C73.8827 18.836 73.0067 18.632 72.6827 18.572C71.5787 18.296 70.3547 18.02 70.3547 16.784C70.3547 15.908 71.0987 14.924 73.1747 14.924C73.9307 14.924 74.6747 15.056 75.1187 15.272C75.5987 15.512 75.6227 15.896 75.4667 16.256C75.3227 16.592 74.9627 16.688 74.3747 16.508C74.0627 16.412 73.7147 16.28 73.1867 16.28C72.4907 16.28 72.3467 16.508 72.3467 16.736C72.3467 17.06 72.8387 17.156 73.5587 17.336C74.6267 17.588 75.8387 17.972 75.8387 19.268C75.8387 20.372 74.8187 21.056 72.9587 21.056C71.8067 21.056 71.0627 20.828 70.5827 20.48C70.1867 20.204 70.1627 19.832 70.3667 19.52C70.6067 19.148 71.0747 19.136 71.4347 19.304C71.8547 19.532 72.2627 19.76 72.9467 19.76ZM83.642 20.072C83.642 20.708 83.15 20.984 82.61 20.984C82.286 20.984 81.95 20.864 81.782 20.564C81.338 20.9 80.834 21.056 80.198 21.056C78.41 21.056 77.018 20.156 77.006 18.536V15.92C77.006 15.272 77.234 14.924 78.026 14.924C78.638 14.924 79.022 15.2 79.022 15.728V18.584C79.022 19.22 79.562 19.628 80.282 19.628C80.99 19.628 81.602 19.244 81.602 18.548V15.92C81.602 15.272 81.878 14.924 82.646 14.924C83.246 14.924 83.642 15.2 83.642 15.728V20.072ZM87.1665 19.964C87.1665 20.624 86.9145 20.984 86.1225 20.984C85.5345 20.984 85.1505 20.696 85.1505 20.18V15.872C85.1505 15.26 85.6425 14.984 86.1585 14.984C86.5065 14.984 86.8305 15.08 87.0105 15.428C87.4185 15.08 87.9825 14.924 88.6065 14.924H89.3025C89.8305 14.924 90.2505 15.128 90.2505 15.656C90.2505 16.196 89.8545 16.376 89.3145 16.376H88.6905C87.9585 16.376 87.1665 16.664 87.1665 17.648V19.964ZM93.0962 19.964C93.0962 20.624 92.8442 20.984 92.0522 20.984C91.4642 20.984 91.0802 20.696 91.0802 20.18V15.872C91.0802 15.26 91.5722 14.984 92.0882 14.984C92.4362 14.984 92.7602 15.08 92.9402 15.428C93.3482 15.08 93.9122 14.924 94.5362 14.924H95.2322C95.7602 14.924 96.1802 15.128 96.1802 15.656C96.1802 16.196 95.7842 16.376 95.2442 16.376H94.6202C93.8882 16.376 93.0962 16.664 93.0962 17.648V19.964ZM99.7666 14.924C101.459 14.924 102.983 15.908 103.115 17.408C103.151 17.804 103.139 18.188 103.115 18.572C103.019 20.072 101.555 21.056 99.7666 21.056C97.9906 21.056 96.5626 20.036 96.4306 18.572C96.4066 18.176 96.4066 17.792 96.4306 17.408C96.5506 15.896 97.9546 14.924 99.7666 14.924ZM98.4466 18.584C98.4466 19.244 99.0226 19.628 99.7666 19.628C100.499 19.628 101.015 19.244 101.099 18.584C101.147 18.176 101.123 17.756 101.099 17.384C101.051 16.724 100.535 16.376 99.7666 16.376C99.0706 16.376 98.5306 16.76 98.4466 17.384C98.3986 17.792 98.3986 18.2 98.4466 18.584ZM111.052 20.072C111.052 20.708 110.56 20.984 110.02 20.984C109.696 20.984 109.36 20.864 109.192 20.564C108.748 20.9 108.244 21.056 107.608 21.056C105.82 21.056 104.428 20.156 104.416 18.536V15.92C104.416 15.272 104.644 14.924 105.436 14.924C106.048 14.924 106.432 15.2 106.432 15.728V18.584C106.432 19.22 106.972 19.628 107.692 19.628C108.4 19.628 109.012 19.244 109.012 18.548V15.92C109.012 15.272 109.288 14.924 110.056 14.924C110.656 14.924 111.052 15.2 111.052 15.728V20.072ZM112.561 15.872C112.561 15.26 113.065 14.984 113.581 14.984C113.917 14.984 114.181 15.044 114.421 15.416C114.805 15.08 115.417 14.924 116.041 14.924C117.793 14.924 119.185 15.836 119.197 17.468V19.964C119.197 20.624 118.945 20.984 118.153 20.984C117.553 20.984 117.157 20.696 117.157 20.18V17.408C117.157 16.772 116.605 16.376 115.897 16.376C115.177 16.376 114.673 16.736 114.601 17.384C114.589 17.432 114.589 17.492 114.589 17.54V19.964C114.589 20.624 114.313 20.984 113.533 20.984C112.945 20.984 112.561 20.696 112.561 20.18V15.872ZM123.801 14.924C124.317 14.924 124.761 15.032 125.145 15.176V12.608C125.145 11.996 125.637 11.732 126.141 11.732C126.657 11.732 127.173 11.996 127.173 12.608V20.18C127.173 20.696 126.765 20.984 126.177 20.984C125.721 20.984 125.421 20.864 125.229 20.54C124.845 20.864 124.389 21.056 123.801 21.056C121.845 21.056 120.537 20.072 120.501 18.572C120.489 18.14 120.477 17.768 120.501 17.408C120.621 15.776 121.977 14.924 123.801 14.924ZM122.529 18.584C122.613 19.244 123.093 19.628 123.801 19.628C124.545 19.628 125.049 19.244 125.121 18.584C125.169 18.164 125.169 17.768 125.121 17.384C125.037 16.736 124.545 16.376 123.801 16.376C123.093 16.376 122.625 16.64 122.529 17.276C122.481 17.792 122.481 18.2 122.529 18.584Z" fill="#BABABA"/>
<path d="M123.801 14.9239C124.317 14.9239 124.761 15.0319 125.145 15.1759V12.6079C125.145 11.9959 125.637 11.7319 126.141 11.7319C126.657 11.7319 127.173 11.9959 127.173 12.6079V20.1799C127.173 20.6959 126.765 20.9839 126.177 20.9839C125.721 20.9839 125.421 20.8639 125.229 20.5399C124.845 20.8639 124.389 21.0559 123.801 21.0559C121.845 21.0559 120.537 20.0719 120.501 18.5719C120.489 18.1399 120.477 17.7679 120.501 17.4079C120.621 15.7759 121.977 14.9239 123.801 14.9239ZM122.529 18.5839C122.613 19.2439 123.093 19.6279 123.801 19.6279C124.545 19.6279 125.049 19.2439 125.121 18.5839C125.169 18.1639 125.169 17.7679 125.121 17.3839C125.037 16.7359 124.545 16.3759 123.801 16.3759C123.093 16.3759 122.625 16.6399 122.529 17.2759C122.481 17.7919 122.481 18.1999 122.529 18.5839Z" fill="#BABABA"/>
<path d="M112.561 15.8718C112.561 15.2598 113.065 14.9838 113.581 14.9838C113.917 14.9838 114.181 15.0438 114.421 15.4158C114.805 15.0798 115.417 14.9238 116.041 14.9238C117.793 14.9238 119.185 15.8358 119.197 17.4678V19.9638C119.197 20.6238 118.945 20.9838 118.153 20.9838C117.553 20.9838 117.157 20.6958 117.157 20.1798V17.4078C117.157 16.7718 116.605 16.3758 115.897 16.3758C115.177 16.3758 114.673 16.7358 114.601 17.3838C114.589 17.4318 114.589 17.4918 114.589 17.5398V19.9638C114.589 20.6238 114.313 20.9838 113.533 20.9838C112.945 20.9838 112.561 20.6958 112.561 20.1798V15.8718Z" fill="#BABABA"/>
<path d="M111.052 20.0718C111.052 20.7078 110.56 20.9838 110.02 20.9838C109.696 20.9838 109.36 20.8638 109.192 20.5638C108.748 20.8998 108.244 21.0558 107.608 21.0558C105.82 21.0558 104.428 20.1558 104.416 18.5358V15.9198C104.416 15.2718 104.644 14.9238 105.436 14.9238C106.048 14.9238 106.432 15.1998 106.432 15.7278V18.5838C106.432 19.2198 106.972 19.6278 107.692 19.6278C108.4 19.6278 109.012 19.2438 109.012 18.5478V15.9198C109.012 15.2718 109.288 14.9238 110.056 14.9238C110.656 14.9238 111.052 15.1998 111.052 15.7278V20.0718Z" fill="#BABABA"/>
<path d="M99.7671 14.9238C101.459 14.9238 102.983 15.9078 103.115 17.4078C103.151 17.8038 103.139 18.1878 103.115 18.5718C103.019 20.0718 101.555 21.0558 99.7671 21.0558C97.9911 21.0558 96.5631 20.0358 96.4311 18.5718C96.4071 18.1758 96.4071 17.7918 96.4311 17.4078C96.5511 15.8958 97.9551 14.9238 99.7671 14.9238ZM98.4471 18.5838C98.4471 19.2438 99.0231 19.6278 99.7671 19.6278C100.499 19.6278 101.015 19.2438 101.099 18.5838C101.147 18.1758 101.123 17.7558 101.099 17.3838C101.051 16.7238 100.535 16.3758 99.7671 16.3758C99.0711 16.3758 98.5311 16.7598 98.4471 17.3838C98.3991 17.7918 98.3991 18.1998 98.4471 18.5838Z" fill="#BABABA"/>
<path d="M93.0961 19.9638C93.0961 20.6238 92.8441 20.9838 92.0521 20.9838C91.4641 20.9838 91.0801 20.6958 91.0801 20.1798V15.8718C91.0801 15.2598 91.5721 14.9838 92.0881 14.9838C92.4361 14.9838 92.7601 15.0798 92.9401 15.4278C93.3481 15.0798 93.9121 14.9238 94.5361 14.9238H95.2321C95.7601 14.9238 96.1801 15.1278 96.1801 15.6558C96.1801 16.1958 95.7841 16.3758 95.2441 16.3758H94.6201C93.8881 16.3758 93.0961 16.6638 93.0961 17.6478V19.9638Z" fill="#BABABA"/>
<path d="M87.1664 19.9638C87.1664 20.6238 86.9144 20.9838 86.1224 20.9838C85.5344 20.9838 85.1504 20.6958 85.1504 20.1798V15.8718C85.1504 15.2598 85.6424 14.9838 86.1584 14.9838C86.5064 14.9838 86.8304 15.0798 87.0104 15.4278C87.4184 15.0798 87.9824 14.9238 88.6064 14.9238H89.3024C89.8304 14.9238 90.2504 15.1278 90.2504 15.6558C90.2504 16.1958 89.8544 16.3758 89.3144 16.3758H88.6904C87.9584 16.3758 87.1664 16.6638 87.1664 17.6478V19.9638Z" fill="#BABABA"/>
<path d="M83.6419 20.0718C83.6419 20.7078 83.1499 20.9838 82.6099 20.9838C82.2859 20.9838 81.9499 20.8638 81.7819 20.5638C81.3379 20.8998 80.8339 21.0558 80.1979 21.0558C78.4099 21.0558 77.0179 20.1558 77.0059 18.5358V15.9198C77.0059 15.2718 77.2339 14.9238 78.0259 14.9238C78.6379 14.9238 79.0219 15.1998 79.0219 15.7278V18.5838C79.0219 19.2198 79.5619 19.6278 80.2819 19.6278C80.9899 19.6278 81.6019 19.2438 81.6019 18.5478V15.9198C81.6019 15.2718 81.8779 14.9238 82.6459 14.9238C83.2459 14.9238 83.6419 15.1998 83.6419 15.7278V20.0718Z" fill="#BABABA"/>
<path d="M72.9464 19.7598C73.7024 19.7598 73.8824 19.5318 73.8824 19.3038C73.8824 18.8358 73.0064 18.6318 72.6824 18.5718C71.5784 18.2958 70.3544 18.0198 70.3544 16.7838C70.3544 15.9078 71.0984 14.9238 73.1744 14.9238C73.9304 14.9238 74.6744 15.0558 75.1184 15.2718C75.5984 15.5118 75.6224 15.8958 75.4664 16.2558C75.3224 16.5918 74.9624 16.6878 74.3744 16.5078C74.0624 16.4118 73.7144 16.2798 73.1864 16.2798C72.4904 16.2798 72.3464 16.5078 72.3464 16.7358C72.3464 17.0598 72.8384 17.1558 73.5584 17.3358C74.6264 17.5878 75.8384 17.9718 75.8384 19.2678C75.8384 20.3718 74.8184 21.0558 72.9584 21.0558C71.8064 21.0558 71.0624 20.8278 70.5824 20.4798C70.1864 20.2038 70.1624 19.8318 70.3664 19.5198C70.6064 19.1478 71.0744 19.1358 71.4344 19.3038C71.8544 19.5318 72.2624 19.7598 72.9464 19.7598Z" fill="#BABABA"/>
<path d="M65.523 19.5558C66.483 19.5558 67.239 19.2438 67.239 18.4878C67.239 17.6598 66.387 17.3118 65.439 16.9878C63.987 16.4718 62.247 15.8838 62.247 14.3118C62.247 12.3678 64.371 11.8398 66.015 11.8398C66.783 11.8398 68.223 11.9838 68.727 12.4158C68.919 12.5718 68.979 12.8118 68.979 12.9918C68.943 13.7478 68.199 13.8198 67.707 13.6278C67.119 13.4358 66.627 13.2918 66.015 13.2918C65.043 13.2918 64.335 13.5558 64.335 14.1918C64.335 14.9238 65.247 15.2718 66.219 15.5838L66.879 15.8118C68.091 16.2558 69.315 16.9278 69.315 18.3318C69.315 20.1918 67.779 21.0558 65.583 21.0558C63.987 21.0558 62.859 20.6118 62.343 20.0958C62.187 19.9638 62.103 19.7838 62.091 19.6038C62.031 19.0278 62.511 18.7278 62.943 18.7278C63.183 18.7278 63.447 18.8118 63.627 18.9558C64.131 19.3038 64.515 19.5558 65.523 19.5558Z" fill="#BABABA"/>
<path d="M57.4254 17.7681C58.1454 17.7681 58.2773 18.1281 58.2773 18.5001C58.2773 18.9081 58.1214 19.2561 57.4254 19.2561H56.8494V20.0721C56.8494 20.4441 56.6573 20.9841 55.8053 20.9841C54.9533 20.9841 54.7614 20.4441 54.7614 20.0721V19.2561H51.1494C50.4534 19.2561 50.3694 18.4881 50.6334 18.0321L53.9214 12.2961C54.2214 11.7921 54.7374 11.7201 55.2054 11.9361C55.7814 12.2001 55.8654 12.7521 55.5654 13.2561L52.9134 17.7681H54.7614V15.9321C54.7614 15.4161 55.0373 14.9481 55.8053 14.9481C56.5613 14.9481 56.8494 15.4041 56.8494 15.9321V17.7681H57.4254Z" fill="#BABABA"/>
<path d="M49.0943 19.4839C49.7063 19.4839 49.9343 19.8439 49.9343 20.2519C49.9343 20.5639 49.7543 20.9839 49.0943 20.9839H44.3063C43.6583 20.9839 43.3223 20.5039 43.3223 20.0119C43.3223 19.8319 43.3943 19.6159 43.5383 19.3879C44.0063 18.7519 44.8223 17.9959 45.6023 17.2999C46.7423 16.2799 47.7623 15.3439 47.7623 14.4799C47.7623 13.9759 47.6663 13.3399 46.7303 13.3399C46.0823 13.3399 45.4943 13.6519 45.4943 14.3359C45.4943 14.6959 45.1823 15.0079 44.5583 15.0079C44.0543 15.0079 43.5743 14.7799 43.5743 14.1319C43.5743 12.7279 45.0743 11.8159 46.6703 11.8159C48.6503 11.8159 49.7903 12.8359 49.7903 14.3839C49.7903 15.7759 48.7343 16.8079 47.4383 17.9839C46.9223 18.4519 46.4063 18.8839 45.8783 19.4839H49.0943Z" fill="#BABABA"/>
<path d="M37.7205 18.6199C37.7325 19.3039 38.3445 19.6999 39.3405 19.6999C39.9765 19.6999 40.5765 19.4479 40.9365 19.3279C41.3325 19.1959 41.7525 19.1599 41.9925 19.5439C42.1845 19.8439 42.1605 20.2519 41.7645 20.4799C41.3085 20.7799 40.3965 21.0559 39.2925 21.0559C37.1445 21.0559 35.8005 20.0479 35.7045 18.5719C35.6805 18.1519 35.6805 17.7559 35.7045 17.3479C35.7285 16.0399 37.1085 14.8999 39.0765 14.8999C40.8405 14.8999 42.3165 15.9439 42.3165 17.3359C42.3165 18.4519 41.5245 18.6199 40.7205 18.6199H37.7205ZM40.0365 17.3359C40.3125 17.3359 40.3965 17.3239 40.3965 17.1799C40.3965 16.6759 39.8205 16.2799 39.0645 16.2799C38.3445 16.2799 37.7205 16.6159 37.7205 17.1439V17.3359H40.0365Z" fill="#BABABA"/>
<path d="M34.2925 14.9239C34.9645 14.9239 35.1925 15.2719 35.1925 15.6799C35.1925 15.9919 35.0005 16.3759 34.2925 16.3759H33.0565V20.0719C33.0565 20.7079 32.5645 20.9839 32.0365 20.9839C31.5205 20.9839 31.0165 20.7079 31.0165 20.0719V16.3759H30.2965C29.6485 16.3759 29.3965 16.0279 29.3965 15.6559C29.3965 15.2839 29.6125 14.9239 30.2965 14.9239H31.0165V14.0959C31.0165 12.6559 32.2285 11.7319 33.7885 11.7319H34.5445C35.0485 11.7319 35.4325 11.9359 35.4325 12.4399C35.4325 12.9919 35.0845 13.1479 34.5565 13.1479H34.0885C33.4645 13.1479 33.0565 13.4719 33.0565 13.9999V14.9239H34.2925Z" fill="#BABABA"/>
<path d="M26.6858 20.6599C26.1098 21.0079 25.3178 21.0559 24.8258 21.0559C22.8938 21.0559 22.2218 20.1799 22.1978 19.3279C22.1018 17.9239 23.2778 17.2399 25.4978 17.2399H26.5058C26.4698 16.7599 25.9898 16.2919 25.0778 16.2919C24.4298 16.2919 24.0698 16.4119 23.8418 16.5079C23.4098 16.6879 22.9538 16.7239 22.7498 16.2679C22.5698 15.8599 22.7138 15.5119 23.0978 15.3199C23.5898 15.0679 24.4058 14.8999 25.1258 14.8999C27.5138 14.8999 28.5338 16.0879 28.5338 17.3719V20.1679C28.5338 20.6839 28.1498 20.9719 27.5498 20.9719C27.1298 20.9719 26.8538 20.8759 26.6858 20.6599ZM24.2018 19.1359C24.2018 19.4719 24.4898 19.7119 25.0178 19.7119C25.7738 19.7119 26.5178 19.3039 26.5178 18.7759V18.5359H25.4618C24.4658 18.5359 24.2018 18.7399 24.2018 19.1359Z" fill="#BABABA"/>
<path d="M20.5881 15.0079C20.0721 15.0079 19.6881 14.7199 19.6521 14.2999C19.5921 13.6879 19.1361 13.3039 18.2241 13.3039C17.3241 13.3039 16.8561 13.7719 16.8201 14.6959C16.7721 15.9319 16.7841 17.0479 16.8201 18.1999C16.8561 19.1479 17.3121 19.5559 18.2241 19.5559C19.1721 19.5559 19.5441 19.1959 19.6281 18.4279C19.6641 18.0319 20.1081 17.7199 20.5761 17.7199C21.2001 17.7199 21.5121 18.0319 21.5121 18.6679C21.5121 19.9759 20.2281 21.0439 18.2241 21.0439C16.3521 21.0439 14.8761 20.3119 14.8161 18.1999C14.7801 16.9759 14.7801 15.7999 14.8161 14.6599C14.8761 12.6559 16.3761 11.8159 18.1761 11.8159C20.1081 11.8159 21.5241 12.8119 21.5241 14.0839C21.5241 14.6959 21.2121 15.0079 20.5881 15.0079Z" fill="#BABABA"/>
</svg>
