<svg width="87" height="35" viewBox="0 0 87 35" fill="none" xmlns="http://www.w3.org/2000/svg">
<rect width="87" height="35" rx="17.5" fill="#444444"/>
<path d="M70.3613 17.3447V18.6396H62.1855V12.9648H70.2725V14.2725H63.7852V17.3447H70.3613ZM71.5166 20.8105V22.1436H60.9414V20.8105H71.5166Z" fill="#BABABA"/>
<path d="M58.8213 12V16.291H60.5225V17.6113H58.8213V23.5781H57.1963V12H58.8213ZM55.584 13.0664V14.374H51.7754V19.4395C53.4512 19.4204 54.835 19.3442 56.3711 19.0713L56.5488 20.4297C54.7588 20.7344 53.1846 20.7852 51.1406 20.7725H50.1631V13.0664H55.584Z" fill="#BABABA"/>
<path d="M48.3984 12.0127V20.6328H46.8623V12.0127H48.3984ZM46.1006 12.2158V20.3662H44.5645V16.4307H43.3965V15.1484H44.5645V12.2158H46.1006ZM48.6904 22.0547V23.3496H40.6543V19.7061H42.2793V22.0547H48.6904ZM43.333 12.8887V14.1709H40.4766V15.3135H42.9014V16.5449H40.4766V17.7129C41.7397 17.7002 42.6602 17.6621 43.7266 17.4717L43.8916 18.7412C42.5586 18.9697 41.4541 19.0078 39.7148 19.0078H38.9277V12.8887H43.333Z" fill="#BABABA"/>
<path d="M36.9219 12V23.5781H35.3096V12H36.9219ZM33.3418 12.9648V17.4209H29.5332V19.541C31.2915 19.5347 32.7896 19.4331 34.4844 19.1602L34.624 20.4678C32.7197 20.7979 31.0059 20.874 28.8984 20.874H27.8574V16.1387H31.6914V14.2725H27.8447V12.9648H33.3418Z" fill="#BABABA"/>
<path d="M26.5752 20.8613V22.207H16V20.8613H26.5752ZM25.6865 13.0156V14.3105H24.0615V17.8145H25.6357V19.084H16.876V17.8145H18.4248V14.3105H16.8252V13.0156H25.6865ZM20.0498 17.8145H22.4619V14.3105H20.0498V17.8145Z" fill="#BABABA"/>
</svg>
