<svg width="97" height="35" viewBox="0 0 97 35" fill="none" xmlns="http://www.w3.org/2000/svg">
<rect width="97" height="35" rx="17.5" fill="#2D2D2D"/>
<path d="M77.7051 22.1143C76.1309 22.1143 74.8994 20.8574 74.8994 18.5596C74.8994 16.1982 76.1816 15.0176 77.7051 15.0176C78.8604 15.0176 79.4062 15.7031 79.6602 16.2617H79.7236V12.8086H81.6025V22H79.749V20.8955H79.6602C79.3936 21.4668 78.8223 22.1143 77.7051 22.1143ZM78.2891 20.6162C79.2285 20.6162 79.7617 19.791 79.7617 18.5469C79.7617 17.3027 79.2285 16.5156 78.2891 16.5156C77.3369 16.5156 76.8291 17.3408 76.8291 18.5469C76.8291 19.7656 77.3369 20.6162 78.2891 20.6162Z" fill="#BABABA"/>
<path d="M70.3164 22V15.1064H72.1318V16.2998H72.208C72.4619 15.4492 73.0967 15.0049 73.8711 15.0049C74.0615 15.0049 74.3027 15.0303 74.4678 15.0684V16.7441C74.29 16.6934 73.9346 16.6426 73.668 16.6426C72.8174 16.6426 72.1953 17.2393 72.1953 18.0771V22H70.3164Z" fill="#BABABA"/>
<path d="M62.7373 20.0703C62.7373 18.5342 63.9814 18.0264 65.3018 17.9502C65.7969 17.9185 66.7236 17.874 67.0156 17.8613V17.3027C67.0029 16.7314 66.6094 16.3887 65.9111 16.3887C65.2764 16.3887 64.8701 16.6807 64.7686 17.1504H62.9785C63.0928 15.957 64.1338 15.0176 65.9619 15.0176C67.46 15.0176 68.8818 15.6904 68.8818 17.3535V22H67.1045V21.0479H67.0537C66.7109 21.6826 66.0635 22.127 65.0352 22.127C63.7148 22.127 62.7373 21.4414 62.7373 20.0703ZM64.54 20.0195C64.54 20.5527 64.9717 20.832 65.5684 20.832C66.4189 20.832 67.0283 20.2607 67.0156 19.5371V19.0293C66.73 19.042 65.9302 19.0864 65.6064 19.1182C64.959 19.1816 64.54 19.4863 64.54 20.0195Z" fill="#BABABA"/>
<path d="M57.6592 22.1143C56.085 22.1143 54.8535 20.8574 54.8535 18.5596C54.8535 16.1982 56.1357 15.0176 57.6592 15.0176C58.8145 15.0176 59.3604 15.7031 59.6143 16.2617H59.6777V12.8086H61.5566V22H59.7031V20.8955H59.6143C59.3477 21.4668 58.7764 22.1143 57.6592 22.1143ZM58.2432 20.6162C59.1826 20.6162 59.7158 19.791 59.7158 18.5469C59.7158 17.3027 59.1826 16.5156 58.2432 16.5156C57.291 16.5156 56.7832 17.3408 56.7832 18.5469C56.7832 19.7656 57.291 20.6162 58.2432 20.6162Z" fill="#BABABA"/>
<path d="M49.2295 18.0137V22H47.3506V15.1064H49.1406V16.3125H49.2168C49.5342 15.5127 50.2705 15.0176 51.2861 15.0176C52.7207 15.0176 53.6729 15.9951 53.6602 17.6074V22H51.7939V17.9375C51.7939 17.0869 51.3242 16.5791 50.5498 16.5791C49.7627 16.5791 49.2295 17.0996 49.2295 18.0137Z" fill="#BABABA"/>
<path d="M43.0088 22.1396C40.9014 22.1396 39.6064 20.7686 39.6064 18.585C39.6064 16.4521 40.9141 15.0176 42.9326 15.0176C44.748 15.0176 46.1699 16.1602 46.1699 18.5088V19.042H41.46C41.46 20.083 42.082 20.7305 43.0469 20.7305C43.6816 20.7305 44.1387 20.4512 44.3291 20.0322H46.1191C45.8525 21.3018 44.71 22.1396 43.0088 22.1396ZM41.46 17.8613H44.3926C44.3926 17.0234 43.8086 16.4268 42.9707 16.4268C42.1074 16.4268 41.4917 17.0679 41.46 17.8613Z" fill="#BABABA"/>
<path d="M38.7812 15.1064V16.5156H37.4863V19.8799C37.4863 20.4258 37.7529 20.5654 38.1338 20.5781C38.3242 20.5781 38.6543 20.5654 38.8828 20.54V22.0254C38.6797 22.0635 38.3496 22.0889 37.8799 22.0889C36.5215 22.0889 35.5947 21.4795 35.6074 20.1465V16.5156H34.6553V15.1064H35.6074V13.4561H37.4863V15.1064H38.7812Z" fill="#BABABA"/>
<path d="M30.8086 22.1396C28.7012 22.1396 27.4062 20.7686 27.4062 18.585C27.4062 16.4521 28.7139 15.0176 30.7324 15.0176C32.5479 15.0176 33.9697 16.1602 33.9697 18.5088V19.042H29.2598C29.2598 20.083 29.8818 20.7305 30.8467 20.7305C31.4814 20.7305 31.9385 20.4512 32.1289 20.0322H33.9189C33.6523 21.3018 32.5098 22.1396 30.8086 22.1396ZM29.2598 17.8613H32.1924C32.1924 17.0234 31.6084 16.4268 30.7705 16.4268C29.9072 16.4268 29.2915 17.0679 29.2598 17.8613Z" fill="#BABABA"/>
<path d="M22.8359 22V15.1064H24.6514V16.2998H24.7275C24.9814 15.4492 25.6162 15.0049 26.3906 15.0049C26.5811 15.0049 26.8223 15.0303 26.9873 15.0684V16.7441C26.8096 16.6934 26.4541 16.6426 26.1875 16.6426C25.3369 16.6426 24.7148 17.2393 24.7148 18.0771V22H22.8359Z" fill="#BABABA"/>
<path d="M14.7744 22V12.8086H18.3799C20.4746 12.8086 21.668 14.0908 21.668 15.9062C21.668 17.7471 20.4492 19.0039 18.3291 19.0039H16.6787V22H14.7744ZM16.6787 17.4678H18.0244C19.1543 17.4678 19.7002 16.833 19.7002 15.9062C19.7002 14.9922 19.1543 14.3701 18.0244 14.3701H16.6787V17.4678Z" fill="#BABABA"/>
</svg>
