<svg width="90" height="35" viewBox="0 0 90 35" fill="none" xmlns="http://www.w3.org/2000/svg">
<rect width="90" height="35" rx="17.5" fill="#2D2D2D"/>
<path d="M68.3879 22.1041C67.7552 22.1041 67.1919 21.9958 66.6979 21.7791C66.2039 21.5624 65.8139 21.2678 65.5279 20.8951C65.2419 20.5138 65.0815 20.0891 65.0469 19.6211H67.2439C67.2699 19.8724 67.3869 20.0761 67.5949 20.2321C67.8029 20.3881 68.0585 20.4661 68.3619 20.4661C68.6392 20.4661 68.8515 20.4141 68.9989 20.3101C69.1549 20.1974 69.2329 20.0544 69.2329 19.8811C69.2329 19.6731 69.1245 19.5214 68.9079 19.4261C68.6912 19.3221 68.3402 19.2094 67.8549 19.0881C67.3349 18.9668 66.9015 18.8411 66.5549 18.7111C66.2082 18.5724 65.9092 18.3601 65.6579 18.0741C65.4065 17.7794 65.2809 17.3851 65.2809 16.8911C65.2809 16.4751 65.3935 16.0981 65.6189 15.7601C65.8529 15.4134 66.1909 15.1404 66.6329 14.9411C67.0835 14.7418 67.6165 14.6421 68.2319 14.6421C69.1419 14.6421 69.8569 14.8674 70.3769 15.3181C70.9055 15.7688 71.2089 16.3668 71.2869 17.1121H69.2329C69.1982 16.8608 69.0855 16.6614 68.8949 16.5141C68.7129 16.3668 68.4702 16.2931 68.1669 16.2931C67.9069 16.2931 67.7075 16.3451 67.5689 16.4491C67.4302 16.5444 67.3609 16.6788 67.3609 16.8521C67.3609 17.0601 67.4692 17.2161 67.6859 17.3201C67.9112 17.4241 68.2579 17.5281 68.7259 17.6321C69.2632 17.7708 69.7009 17.9094 70.0389 18.0481C70.3769 18.1781 70.6715 18.3948 70.9229 18.6981C71.1829 18.9928 71.3172 19.3914 71.3259 19.8941C71.3259 20.3188 71.2045 20.7001 70.9619 21.0381C70.7279 21.3674 70.3855 21.6274 69.9349 21.8181C69.4929 22.0088 68.9772 22.1041 68.3879 22.1041Z" fill="#BABABA"/>
<path d="M61.0968 14.668C61.9461 14.668 62.6221 14.9453 63.1248 15.5C63.6361 16.046 63.8918 16.8 63.8918 17.762V22H61.6818V18.061C61.6818 17.5756 61.5561 17.1986 61.3048 16.93C61.0534 16.6613 60.7154 16.527 60.2908 16.527C59.8661 16.527 59.5281 16.6613 59.2768 16.93C59.0254 17.1986 58.8998 17.5756 58.8998 18.061V22H56.6768V14.746H58.8998V15.708C59.1251 15.3873 59.4284 15.136 59.8098 14.954C60.1911 14.7633 60.6201 14.668 61.0968 14.668Z" fill="#BABABA"/>
<path d="M53.9608 13.9919C53.5708 13.9919 53.2501 13.8792 52.9988 13.6539C52.7561 13.4199 52.6348 13.1339 52.6348 12.7959C52.6348 12.4492 52.7561 12.1632 52.9988 11.9379C53.2501 11.7039 53.5708 11.5869 53.9608 11.5869C54.3421 11.5869 54.6541 11.7039 54.8968 11.9379C55.1481 12.1632 55.2738 12.4492 55.2738 12.7959C55.2738 13.1339 55.1481 13.4199 54.8968 13.6539C54.6541 13.8792 54.3421 13.9919 53.9608 13.9919ZM55.0658 14.7459V21.9999H52.8428V14.7459H55.0658Z" fill="#BABABA"/>
<path d="M46.2425 15.7731C46.4592 15.4351 46.7582 15.1621 47.1395 14.9541C47.5209 14.7461 47.9672 14.6421 48.4785 14.6421C49.0765 14.6421 49.6182 14.7938 50.1035 15.0971C50.5889 15.4004 50.9702 15.8338 51.2475 16.3971C51.5335 16.9604 51.6765 17.6148 51.6765 18.3601C51.6765 19.1054 51.5335 19.7641 51.2475 20.3361C50.9702 20.8994 50.5889 21.3371 50.1035 21.6491C49.6182 21.9524 49.0765 22.1041 48.4785 22.1041C47.9759 22.1041 47.5295 22.0001 47.1395 21.7921C46.7582 21.5841 46.4592 21.3154 46.2425 20.9861V25.4581H44.0195V14.7461H46.2425V15.7731ZM49.4145 18.3601C49.4145 17.8054 49.2585 17.3721 48.9465 17.0601C48.6432 16.7394 48.2662 16.5791 47.8155 16.5791C47.3735 16.5791 46.9965 16.7394 46.6845 17.0601C46.3812 17.3808 46.2295 17.8184 46.2295 18.3731C46.2295 18.9278 46.3812 19.3654 46.6845 19.6861C46.9965 20.0068 47.3735 20.1671 47.8155 20.1671C48.2575 20.1671 48.6345 20.0068 48.9465 19.6861C49.2585 19.3568 49.4145 18.9148 49.4145 18.3601Z" fill="#BABABA"/>
<path d="M37.4193 15.7731C37.636 15.4351 37.935 15.1621 38.3163 14.9541C38.6976 14.7461 39.144 14.6421 39.6553 14.6421C40.2533 14.6421 40.795 14.7938 41.2803 15.0971C41.7656 15.4004 42.147 15.8338 42.4243 16.3971C42.7103 16.9604 42.8533 17.6148 42.8533 18.3601C42.8533 19.1054 42.7103 19.7641 42.4243 20.3361C42.147 20.8994 41.7656 21.3371 41.2803 21.6491C40.795 21.9524 40.2533 22.1041 39.6553 22.1041C39.1526 22.1041 38.7063 22.0001 38.3163 21.7921C37.935 21.5841 37.636 21.3154 37.4193 20.9861V25.4581H35.1963V14.7461H37.4193V15.7731ZM40.5913 18.3601C40.5913 17.8054 40.4353 17.3721 40.1233 17.0601C39.82 16.7394 39.443 16.5791 38.9923 16.5791C38.5503 16.5791 38.1733 16.7394 37.8613 17.0601C37.558 17.3808 37.4063 17.8184 37.4063 18.3731C37.4063 18.9278 37.558 19.3654 37.8613 19.6861C38.1733 20.0068 38.5503 20.1671 38.9923 20.1671C39.4343 20.1671 39.8113 20.0068 40.1233 19.6861C40.4353 19.3568 40.5913 18.9148 40.5913 18.3601Z" fill="#BABABA"/>
<path d="M30.2206 22.1041C29.5099 22.1041 28.8686 21.9524 28.2966 21.6491C27.7332 21.3458 27.2869 20.9124 26.9576 20.3491C26.6369 19.7858 26.4766 19.1271 26.4766 18.3731C26.4766 17.6278 26.6412 16.9734 26.9706 16.4101C27.2999 15.8381 27.7506 15.4004 28.3226 15.0971C28.8946 14.7938 29.5359 14.6421 30.2466 14.6421C30.9572 14.6421 31.5986 14.7938 32.1706 15.0971C32.7426 15.4004 33.1932 15.8381 33.5226 16.4101C33.8519 16.9734 34.0166 17.6278 34.0166 18.3731C34.0166 19.1184 33.8476 19.7771 33.5096 20.3491C33.1802 20.9124 32.7252 21.3458 32.1446 21.6491C31.5726 21.9524 30.9312 22.1041 30.2206 22.1041ZM30.2206 20.1801C30.6452 20.1801 31.0049 20.0241 31.2996 19.7121C31.6029 19.4001 31.7546 18.9538 31.7546 18.3731C31.7546 17.7924 31.6072 17.3461 31.3126 17.0341C31.0266 16.7221 30.6712 16.5661 30.2466 16.5661C29.8132 16.5661 29.4536 16.7221 29.1676 17.0341C28.8816 17.3374 28.7386 17.7838 28.7386 18.3731C28.7386 18.9538 28.8772 19.4001 29.1546 19.7121C29.4406 20.0241 29.7959 20.1801 30.2206 20.1801Z" fill="#BABABA"/>
<path d="M25.7616 15.812C25.7616 16.3407 25.6403 16.826 25.3976 17.268C25.155 17.7014 24.7823 18.0524 24.2796 18.321C23.777 18.5897 23.153 18.724 22.4076 18.724H21.0296V22H18.8066V12.874H22.4076C23.1356 12.874 23.751 12.9997 24.2536 13.251C24.7563 13.5024 25.1333 13.849 25.3846 14.291C25.636 14.733 25.7616 15.24 25.7616 15.812ZM22.2386 16.956C22.6633 16.956 22.9796 16.8564 23.1876 16.657C23.3956 16.4577 23.4996 16.176 23.4996 15.812C23.4996 15.448 23.3956 15.1664 23.1876 14.967C22.9796 14.7677 22.6633 14.668 22.2386 14.668H21.0296V16.956H22.2386Z" fill="#BABABA"/>
</svg>
