<svg width="94" height="35" viewBox="0 0 94 35" fill="none" xmlns="http://www.w3.org/2000/svg">
<rect width="94" height="35" rx="17.5" fill="#444444"/>
<path d="M79.2033 19.894C79.2033 20.3706 79.0906 20.778 78.8653 21.116C78.64 21.4453 78.302 21.6966 77.8513 21.87C77.4006 22.0433 76.8416 22.13 76.1743 22.13C75.6803 22.13 75.2556 22.0953 74.9003 22.026C74.545 21.9653 74.1896 21.8613 73.8343 21.714V20.115C74.2156 20.2883 74.6273 20.4313 75.0693 20.544C75.5113 20.6566 75.9013 20.713 76.2393 20.713C76.6206 20.713 76.8893 20.6566 77.0453 20.544C77.21 20.4313 77.2923 20.284 77.2923 20.102C77.2923 19.9806 77.2576 19.8723 77.1883 19.777C77.1276 19.6816 76.989 19.5733 76.7723 19.452C76.5556 19.3306 76.2176 19.1746 75.7583 18.984C75.3163 18.7933 74.9523 18.607 74.6663 18.425C74.3803 18.2343 74.168 18.009 74.0293 17.749C73.8906 17.4803 73.8213 17.1466 73.8213 16.748C73.8213 16.0893 74.077 15.5953 74.5883 15.266C75.0996 14.9366 75.78 14.772 76.6293 14.772C77.0713 14.772 77.4916 14.8153 77.8903 14.902C78.289 14.9886 78.7006 15.1316 79.1253 15.331L78.5403 16.722C78.3063 16.618 78.081 16.527 77.8643 16.449C77.6476 16.371 77.4353 16.3103 77.2273 16.267C77.028 16.2236 76.82 16.202 76.6033 16.202C76.3173 16.202 76.1006 16.241 75.9533 16.319C75.8146 16.397 75.7453 16.514 75.7453 16.67C75.7453 16.7826 75.78 16.8866 75.8493 16.982C75.9273 17.0686 76.0703 17.164 76.2783 17.268C76.495 17.372 76.8113 17.5106 77.2273 17.684C77.6346 17.8486 77.9856 18.022 78.2803 18.204C78.575 18.3773 78.8003 18.5983 78.9563 18.867C79.121 19.127 79.2033 19.4693 79.2033 19.894Z" fill="#BABABA"/>
<path d="M69.7361 14.772C70.4987 14.772 71.1097 14.98 71.5691 15.396C72.0284 15.8033 72.2581 16.462 72.2581 17.372V22H70.3211V17.853C70.3211 17.3416 70.2301 16.9603 70.0481 16.709C69.8661 16.449 69.5757 16.319 69.1771 16.319C68.5877 16.319 68.1847 16.5226 67.9681 16.93C67.7514 17.3286 67.6431 17.905 67.6431 18.659V22H65.7061V14.902H67.1881L67.4481 15.812H67.5521C67.7081 15.5693 67.8987 15.3743 68.1241 15.227C68.3494 15.071 68.6007 14.9583 68.8781 14.889C69.1554 14.811 69.4414 14.772 69.7361 14.772Z" fill="#BABABA"/>
<path d="M60.7726 14.7588C61.7259 14.7588 62.4539 14.9668 62.9566 15.3828C63.4679 15.7901 63.7236 16.4185 63.7236 17.2678V21.9998H62.3716L61.9946 21.0378H61.9426C61.7432 21.2891 61.5352 21.4971 61.3186 21.6618C61.1106 21.8265 60.8679 21.9435 60.5906 22.0128C60.3219 22.0908 59.9882 22.1298 59.5896 22.1298C59.1736 22.1298 58.7966 22.0518 58.4586 21.8958C58.1292 21.7311 57.8692 21.4841 57.6786 21.1548C57.4879 20.8168 57.3926 20.3921 57.3926 19.8808C57.3926 19.1268 57.6569 18.5721 58.1856 18.2168C58.7142 17.8528 59.5072 17.6535 60.5646 17.6188L61.7996 17.5798V17.2678C61.7996 16.8951 61.6999 16.6221 61.5006 16.4488C61.3099 16.2755 61.0412 16.1888 60.6946 16.1888C60.3479 16.1888 60.0099 16.2408 59.6806 16.3448C59.3512 16.4401 59.0219 16.5615 58.6926 16.7088L58.0556 15.3958C58.4369 15.1965 58.8572 15.0405 59.3166 14.9278C59.7846 14.8151 60.2699 14.7588 60.7726 14.7588ZM61.0456 18.7368C60.4216 18.7541 59.9882 18.8668 59.7456 19.0748C59.5029 19.2828 59.3816 19.5558 59.3816 19.8938C59.3816 20.1885 59.4682 20.4008 59.6416 20.5308C59.8149 20.6521 60.0402 20.7128 60.3176 20.7128C60.7336 20.7128 61.0846 20.5915 61.3706 20.3488C61.6566 20.0975 61.7996 19.7465 61.7996 19.2958V18.7108L61.0456 18.7368Z" fill="#BABABA"/>
<path d="M56.3292 19.4259C56.3292 19.9719 56.1948 20.4486 55.9262 20.8559C55.6575 21.2632 55.2675 21.5796 54.7562 21.8049C54.2535 22.0216 53.6382 22.1299 52.9102 22.1299C52.5895 22.1299 52.2732 22.1082 51.9612 22.0649C51.6578 22.0216 51.3632 21.9609 51.0772 21.8829C50.7998 21.7962 50.5355 21.6922 50.2842 21.5709V19.7379C50.7262 19.9286 51.1812 20.1062 51.6492 20.2709C52.1258 20.4269 52.5982 20.5049 53.0662 20.5049C53.3868 20.5049 53.6425 20.4616 53.8332 20.3749C54.0325 20.2882 54.1755 20.1712 54.2622 20.0239C54.3575 19.8766 54.4052 19.7076 54.4052 19.5169C54.4052 19.2829 54.3228 19.0836 54.1582 18.9189C54.0022 18.7542 53.7898 18.6026 53.5212 18.4639C53.2525 18.3166 52.9448 18.1606 52.5982 17.9959C52.3815 17.8919 52.1475 17.7706 51.8962 17.6319C51.6448 17.4846 51.4022 17.3069 51.1682 17.0989C50.9428 16.8822 50.7565 16.6222 50.6092 16.3189C50.4618 16.0156 50.3882 15.6516 50.3882 15.2269C50.3882 14.6722 50.5138 14.1999 50.7652 13.8099C51.0252 13.4112 51.3892 13.1079 51.8572 12.8999C52.3338 12.6919 52.8928 12.5879 53.5342 12.5879C54.0195 12.5879 54.4788 12.6442 54.9122 12.7569C55.3542 12.8696 55.8135 13.0299 56.2902 13.2379L55.6532 14.7719C55.2285 14.5986 54.8472 14.4642 54.5092 14.3689C54.1712 14.2736 53.8245 14.2259 53.4692 14.2259C53.2265 14.2259 53.0185 14.2649 52.8452 14.3429C52.6718 14.4209 52.5375 14.5292 52.4422 14.6679C52.3555 14.8066 52.3122 14.9712 52.3122 15.1619C52.3122 15.3786 52.3772 15.5649 52.5072 15.7209C52.6372 15.8682 52.8322 16.0112 53.0922 16.1499C53.3522 16.2886 53.6772 16.4532 54.0672 16.6439C54.5438 16.8692 54.9468 17.1032 55.2762 17.3459C55.6142 17.5886 55.8742 17.8746 56.0562 18.2039C56.2382 18.5332 56.3292 18.9406 56.3292 19.4259Z" fill="#BABABA"/>
<path d="M45.7227 18.438C45.7227 19.0273 45.6404 19.5516 45.4757 20.011C45.3197 20.4703 45.09 20.8603 44.7867 21.181C44.492 21.493 44.1324 21.7313 43.7077 21.896C43.283 22.052 42.802 22.13 42.2647 22.13C41.7707 22.13 41.3114 22.052 40.8867 21.896C40.4707 21.7313 40.111 21.493 39.8077 21.181C39.5044 20.8603 39.266 20.4703 39.0927 20.011C38.928 19.5516 38.8457 19.0273 38.8457 18.438C38.8457 17.6493 38.9844 16.9863 39.2617 16.449C39.539 15.903 39.9377 15.487 40.4577 15.201C40.9777 14.915 41.593 14.772 42.3037 14.772C42.971 14.772 43.5604 14.915 44.0717 15.201C44.583 15.487 44.986 15.903 45.2807 16.449C45.5754 16.9863 45.7227 17.6493 45.7227 18.438ZM40.8217 18.438C40.8217 18.906 40.8694 19.3003 40.9647 19.621C41.0687 19.933 41.229 20.1713 41.4457 20.336C41.6624 20.492 41.944 20.57 42.2907 20.57C42.6374 20.57 42.9147 20.492 43.1227 20.336C43.3394 20.1713 43.4954 19.933 43.5907 19.621C43.6947 19.3003 43.7467 18.906 43.7467 18.438C43.7467 17.97 43.6947 17.58 43.5907 17.268C43.4954 16.956 43.3394 16.722 43.1227 16.566C42.906 16.41 42.6244 16.332 42.2777 16.332C41.7664 16.332 41.3937 16.5096 41.1597 16.865C40.9344 17.2116 40.8217 17.736 40.8217 18.438Z" fill="#BABABA"/>
<path d="M36.6279 20.583C36.8445 20.583 37.0525 20.5614 37.2519 20.518C37.4512 20.4747 37.6505 20.4227 37.8499 20.362V21.805C37.6419 21.8917 37.3819 21.9654 37.0699 22.026C36.7665 22.0954 36.4329 22.13 36.0689 22.13C35.6442 22.13 35.2629 22.0607 34.9249 21.922C34.5955 21.7834 34.3312 21.545 34.1319 21.207C33.9412 20.8604 33.8459 20.3837 33.8459 19.777V16.358H32.9229V15.539L33.9889 14.889L34.5479 13.394H35.7829V14.902H37.7719V16.358H35.7829V19.777C35.7829 20.0457 35.8609 20.2494 36.0169 20.388C36.1729 20.518 36.3765 20.583 36.6279 20.583Z" fill="#BABABA"/>
<path d="M32.0372 18.438C32.0372 19.0273 31.9548 19.5516 31.7902 20.011C31.6342 20.4703 31.4045 20.8603 31.1012 21.181C30.8065 21.493 30.4468 21.7313 30.0222 21.896C29.5975 22.052 29.1165 22.13 28.5792 22.13C28.0852 22.13 27.6258 22.052 27.2012 21.896C26.7852 21.7313 26.4255 21.493 26.1222 21.181C25.8188 20.8603 25.5805 20.4703 25.4072 20.011C25.2425 19.5516 25.1602 19.0273 25.1602 18.438C25.1602 17.6493 25.2988 16.9863 25.5762 16.449C25.8535 15.903 26.2522 15.487 26.7722 15.201C27.2922 14.915 27.9075 14.772 28.6182 14.772C29.2855 14.772 29.8748 14.915 30.3862 15.201C30.8975 15.487 31.3005 15.903 31.5952 16.449C31.8898 16.9863 32.0372 17.6493 32.0372 18.438ZM27.1362 18.438C27.1362 18.906 27.1838 19.3003 27.2792 19.621C27.3832 19.933 27.5435 20.1713 27.7602 20.336C27.9768 20.492 28.2585 20.57 28.6052 20.57C28.9518 20.57 29.2292 20.492 29.4372 20.336C29.6538 20.1713 29.8098 19.933 29.9052 19.621C30.0092 19.3003 30.0612 18.906 30.0612 18.438C30.0612 17.97 30.0092 17.58 29.9052 17.268C29.8098 16.956 29.6538 16.722 29.4372 16.566C29.2205 16.41 28.9388 16.332 28.5922 16.332C28.0808 16.332 27.7082 16.5096 27.4742 16.865C27.2488 17.2116 27.1362 17.736 27.1362 18.438Z" fill="#BABABA"/>
<path d="M23.3989 21.9998H20.9029L16.8599 14.9798H16.8079C16.8166 15.1964 16.8253 15.4174 16.8339 15.6428C16.8426 15.8594 16.8513 16.0804 16.8599 16.3058C16.8773 16.5224 16.8903 16.7434 16.8989 16.9688C16.9076 17.1854 16.9163 17.4064 16.9249 17.6318V21.9998H15.1699V12.7178H17.6529L21.6829 19.6728H21.7219C21.7133 19.4561 21.7046 19.2438 21.6959 19.0358C21.6873 18.8191 21.6786 18.6068 21.6699 18.3988C21.6699 18.1821 21.6656 17.9698 21.6569 17.7618C21.6483 17.5451 21.6396 17.3284 21.6309 17.1118V12.7178H23.3989V21.9998Z" fill="#BABABA"/>
</svg>
