<svg width="125" height="35" viewBox="0 0 125 35" fill="none" xmlns="http://www.w3.org/2000/svg">
<rect width="125" height="35" rx="17.5" fill="#2D2D2D"/>
<path d="M22.8242 22.0586H22.2852L16.3906 14.7578V20.3242C16.3906 20.5977 16.4023 20.8125 16.4258 20.9688C16.457 21.125 16.5156 21.2422 16.6016 21.3203C16.6797 21.4062 16.793 21.4609 16.9414 21.4844C17.0898 21.5 17.2852 21.5078 17.5273 21.5078V21.9297C17.332 21.9297 17.0938 21.9297 16.8125 21.9297C16.5391 21.9219 16.2539 21.918 15.957 21.918C15.6602 21.918 15.3711 21.9219 15.0898 21.9297C14.8164 21.9297 14.5859 21.9336 14.3984 21.9414V21.5078C14.6562 21.5078 14.8672 21.4961 15.0312 21.4727C15.2031 21.4492 15.3359 21.3984 15.4297 21.3203C15.5312 21.2344 15.6016 21.1172 15.6406 20.9688C15.6797 20.8125 15.6992 20.6016 15.6992 20.3359V14.6875C15.6992 14.2422 15.5859 13.9453 15.3594 13.7969C15.1328 13.6406 14.7422 13.5625 14.1875 13.5625V13.1289C14.2812 13.1445 14.4219 13.1523 14.6094 13.1523C14.7969 13.1523 14.9922 13.1523 15.1953 13.1523C15.3984 13.1523 15.5898 13.1523 15.7695 13.1523C15.9492 13.1445 16.082 13.1367 16.168 13.1289L22.1094 20.3125V14.6758C22.1094 14.4414 22.0938 14.2539 22.0625 14.1133C22.0391 13.9648 21.9844 13.8516 21.8984 13.7734C21.8203 13.6953 21.7031 13.6445 21.5469 13.6211C21.3984 13.5898 21.1992 13.5703 20.9492 13.5625V13.1172C21.0977 13.125 21.3125 13.1328 21.5938 13.1406C21.875 13.1406 22.168 13.1406 22.4727 13.1406C22.7773 13.1406 23.0664 13.1406 23.3398 13.1406C23.6211 13.1328 23.832 13.125 23.9727 13.1172V13.5625C23.707 13.5625 23.4961 13.5742 23.3398 13.5977C23.1914 13.6211 23.0781 13.6719 23 13.75C22.9219 13.8203 22.8711 13.9297 22.8477 14.0781C22.832 14.2266 22.8242 14.4258 22.8242 14.6758V22.0586ZM27.8047 19.1641C27.0234 19.3594 26.4609 19.5664 26.1172 19.7852C25.7734 19.9961 25.6016 20.2656 25.6016 20.5938C25.6016 20.9297 25.6758 21.1523 25.8242 21.2617C25.9727 21.3711 26.1875 21.4258 26.4688 21.4258C26.7109 21.4258 26.9531 21.3516 27.1953 21.2031C27.4453 21.0469 27.6484 20.8828 27.8047 20.7109V19.1641ZM29.8438 21.4258C29.6719 21.5898 29.4805 21.75 29.2695 21.9062C29.0664 22.0547 28.8398 22.1289 28.5898 22.1289C28.3555 22.1289 28.168 22.0508 28.0273 21.8945C27.8945 21.7305 27.8242 21.5547 27.8164 21.3672C27.6523 21.5391 27.4023 21.7109 27.0664 21.8828C26.7383 22.0469 26.3633 22.1289 25.9414 22.1289C25.543 22.1289 25.2148 22.0078 24.957 21.7656C24.6992 21.5234 24.5781 21.2188 24.5938 20.8516C24.6016 20.5469 24.6914 20.2891 24.8633 20.0781C25.0352 19.8672 25.2656 19.6797 25.5547 19.5156C25.8438 19.3516 26.1797 19.207 26.5625 19.082C26.9531 18.957 27.3672 18.8281 27.8047 18.6953V17.9336C27.8047 17.6055 27.7266 17.3438 27.5703 17.1484C27.4219 16.9531 27.1562 16.8555 26.7734 16.8555C26.4922 16.8555 26.25 16.9375 26.0469 17.1016C25.8438 17.2656 25.7383 17.4766 25.7305 17.7344C25.7305 17.9297 25.6797 18.0781 25.5781 18.1797C25.4844 18.2812 25.3555 18.332 25.1914 18.332C25.0273 18.332 24.9141 18.2891 24.8516 18.2031C24.7891 18.1094 24.7578 17.9922 24.7578 17.8516C24.7578 17.625 24.8555 17.418 25.0508 17.2305C25.2461 17.0352 25.5859 16.8086 26.0703 16.5508C26.3281 16.4102 26.5391 16.3086 26.7031 16.2461C26.875 16.1758 27.0703 16.1406 27.2891 16.1406C27.7109 16.1406 28.0703 16.2617 28.3672 16.5039C28.6641 16.7383 28.8125 17.0781 28.8125 17.5234V20.6875C28.8125 21.0938 28.8789 21.3164 29.0117 21.3555C29.1523 21.3945 29.4023 21.2891 29.7617 21.0391L29.8438 21.4258ZM32.3164 16.1406C32.293 16.3516 32.2773 16.5312 32.2695 16.6797C32.2617 16.8281 32.2578 16.957 32.2578 17.0664C32.4375 16.9414 32.6094 16.8242 32.7734 16.7148C32.9375 16.5977 33.1055 16.4961 33.2773 16.4102C33.4414 16.3242 33.6133 16.2578 33.793 16.2109C33.9727 16.1562 34.1641 16.1289 34.3672 16.1289C34.9062 16.1289 35.2812 16.3047 35.4922 16.6562C35.7031 17.0078 35.8086 17.4336 35.8086 17.9336V20.6758C35.8086 20.9883 35.8594 21.207 35.9609 21.332C36.0703 21.4492 36.3047 21.5078 36.6641 21.5078V21.9297C36.5547 21.9297 36.375 21.9297 36.125 21.9297C35.875 21.9297 35.6094 21.9297 35.3281 21.9297C35.0469 21.9297 34.7812 21.9336 34.5312 21.9414C34.2812 21.9414 34.1055 21.9414 34.0039 21.9414V21.5078C34.3398 21.5078 34.5547 21.4492 34.6484 21.332C34.75 21.207 34.8008 20.9883 34.8008 20.6758V17.9219C34.8008 17.5469 34.7148 17.2812 34.543 17.125C34.3789 16.9688 34.1172 16.8906 33.7578 16.8906C33.6562 16.8984 33.5352 16.9258 33.3945 16.9727C33.2617 17.0195 33.125 17.082 32.9844 17.1602C32.8438 17.2305 32.707 17.3086 32.5742 17.3945C32.4492 17.4805 32.3438 17.5586 32.2578 17.6289V20.6758C32.2578 20.9883 32.3086 21.207 32.4102 21.332C32.5117 21.4492 32.7461 21.5078 33.1133 21.5078V21.9414C32.9961 21.9336 32.8125 21.9297 32.5625 21.9297C32.3125 21.9219 32.0469 21.918 31.7656 21.918C31.4844 21.918 31.2188 21.9219 30.9688 21.9297C30.7188 21.9297 30.543 21.9336 30.4414 21.9414V21.5078C30.7852 21.5078 31.0039 21.4492 31.0977 21.332C31.1992 21.207 31.25 20.9883 31.25 20.6758V17.957C31.25 17.5742 31.2148 17.332 31.1445 17.2305C31.0742 17.1211 30.8828 17.0664 30.5703 17.0664V16.7031C30.8203 16.6641 31.0547 16.6016 31.2734 16.5156C31.4922 16.4297 31.6914 16.3047 31.8711 16.1406H32.3164ZM41.5273 21.1797C41.1523 21.4844 40.8047 21.7188 40.4844 21.8828C40.1719 22.0469 39.8008 22.1289 39.3711 22.1289C39.207 22.1289 39.043 22.1016 38.8789 22.0469C38.7148 21.9922 38.5664 21.9023 38.4336 21.7773C38.3008 21.6523 38.1914 21.4961 38.1055 21.3086C38.0273 21.1133 37.9883 20.875 37.9883 20.5938V17.3828C37.9883 17.1328 37.9414 16.9727 37.8477 16.9023C37.7617 16.832 37.5664 16.7852 37.2617 16.7617V16.3984C37.4727 16.3984 37.7461 16.3867 38.082 16.3633C38.418 16.3398 38.7383 16.3164 39.043 16.293C39.0273 16.4492 39.0156 16.6406 39.0078 16.8672C39 17.0938 38.9961 17.2656 38.9961 17.3828V19.9609C38.9961 20.5547 39.0625 20.9375 39.1953 21.1094C39.3359 21.2812 39.5547 21.3672 39.8516 21.3672C40.0938 21.3672 40.375 21.2969 40.6953 21.1562C41.0234 21.0156 41.3047 20.8281 41.5391 20.5938V17.3828C41.5391 17.1406 41.4766 16.9844 41.3516 16.9141C41.2266 16.8359 41.0078 16.7852 40.6953 16.7617V16.3984C40.8984 16.3984 41.1875 16.3867 41.5625 16.3633C41.9453 16.3398 42.2891 16.3164 42.5938 16.293C42.5781 16.4492 42.5664 16.6406 42.5586 16.8672C42.5508 17.0938 42.5469 17.2656 42.5469 17.3828V20.9922C42.5469 21.2031 42.5977 21.3281 42.6992 21.3672C42.8008 21.4062 43.0234 21.4141 43.3672 21.3906V21.7539C43.2891 21.7695 43.1836 21.793 43.0508 21.8242C42.9258 21.8555 42.793 21.8867 42.6523 21.918C42.5117 21.957 42.3672 21.9961 42.2188 22.0352C42.0781 22.082 41.9531 22.1211 41.8438 22.1523C41.7656 22.1836 41.6914 22.1719 41.6211 22.1172C41.5586 22.0703 41.5273 22.0117 41.5273 21.9414V21.1797ZM45.8281 16.1406C45.8047 16.3516 45.7891 16.5391 45.7812 16.7031C45.7734 16.8594 45.7695 16.9844 45.7695 17.0781C45.9336 16.9609 46.0938 16.8438 46.25 16.7266C46.4062 16.6094 46.5664 16.5078 46.7305 16.4219C46.8945 16.3359 47.0664 16.2656 47.2461 16.2109C47.4258 16.1562 47.625 16.1289 47.8438 16.1289C48.1562 16.1289 48.4336 16.2109 48.6758 16.375C48.918 16.5391 49.0742 16.7734 49.1445 17.0781C49.4727 16.8203 49.793 16.5977 50.1055 16.4102C50.4258 16.2227 50.8086 16.1289 51.2539 16.1289C51.5117 16.1289 51.7305 16.1797 51.9102 16.2812C52.0977 16.3828 52.25 16.5195 52.3672 16.6914C52.4844 16.8633 52.5703 17.0586 52.625 17.2773C52.6797 17.4961 52.707 17.7227 52.707 17.957V20.7109C52.707 21.0312 52.7539 21.2461 52.8477 21.3555C52.9414 21.457 53.1641 21.5078 53.5156 21.5078V21.9414C53.3516 21.9414 53.1562 21.9414 52.9297 21.9414C52.7031 21.9336 52.4688 21.9297 52.2266 21.9297C51.9766 21.9297 51.7344 21.9297 51.5 21.9297C51.2734 21.9297 51.0781 21.9336 50.9141 21.9414V21.5078C51.2578 21.5078 51.4727 21.457 51.5586 21.3555C51.6523 21.2461 51.6992 21.0312 51.6992 20.7109V18.3789C51.6992 18.1992 51.6875 18.0234 51.6641 17.8516C51.6406 17.6719 51.5977 17.5117 51.5352 17.3711C51.4648 17.2305 51.3633 17.1172 51.2305 17.0312C51.1055 16.9375 50.9336 16.8906 50.7148 16.8906C50.5977 16.8906 50.4688 16.918 50.3281 16.9727C50.1875 17.0195 50.0508 17.0781 49.918 17.1484C49.7773 17.2188 49.6484 17.2969 49.5312 17.3828C49.4141 17.4688 49.3164 17.5469 49.2383 17.6172V20.7109C49.2383 21.0312 49.2891 21.2461 49.3906 21.3555C49.4922 21.457 49.7266 21.5078 50.0938 21.5078V21.9414C49.9297 21.9414 49.7266 21.9414 49.4844 21.9414C49.25 21.9336 49.0078 21.9297 48.7578 21.9297C48.5078 21.9297 48.2656 21.9297 48.0312 21.9297C47.7969 21.9297 47.6016 21.9336 47.4453 21.9414V21.5078C47.7812 21.5078 47.9961 21.4531 48.0898 21.3438C48.1836 21.2344 48.2305 21.0234 48.2305 20.7109V18.3789C48.2305 18.1992 48.2188 18.0195 48.1953 17.8398C48.1719 17.6602 48.1289 17.5 48.0664 17.3594C47.9961 17.2188 47.8945 17.1055 47.7617 17.0195C47.6367 16.9336 47.4648 16.8906 47.2461 16.8906C47.1523 16.8906 47.0391 16.918 46.9062 16.9727C46.7734 17.0195 46.6406 17.0781 46.5078 17.1484C46.3672 17.2266 46.2305 17.3125 46.0977 17.4062C45.9648 17.4922 45.8555 17.5781 45.7695 17.6641V20.7109C45.7695 21.0312 45.8164 21.2461 45.9102 21.3555C46.0117 21.457 46.2422 21.5078 46.6016 21.5078V21.9414C46.4297 21.9414 46.2266 21.9414 45.9922 21.9414C45.7578 21.9336 45.5156 21.9297 45.2656 21.9297C45.0156 21.9297 44.7734 21.9297 44.5391 21.9297C44.3047 21.9297 44.1016 21.9336 43.9297 21.9414V21.5078C44.2891 21.5078 44.5156 21.4531 44.6094 21.3438C44.7109 21.2344 44.7617 21.0234 44.7617 20.7109V17.957C44.7617 17.5742 44.7266 17.332 44.6562 17.2305C44.5859 17.1211 44.3945 17.0664 44.082 17.0664V16.7031C44.332 16.6641 44.5664 16.6016 44.7852 16.5156C45.0039 16.4297 45.2031 16.3047 45.3828 16.1406H45.8281ZM63.5469 22.0117H63.1367L59.9375 15.0859L59.8438 20.3359C59.8438 20.7656 59.9023 21.0664 60.0195 21.2383C60.1367 21.4102 60.3945 21.5039 60.793 21.5195V21.9297C60.6055 21.9297 60.3711 21.9297 60.0898 21.9297C59.8164 21.9219 59.5312 21.918 59.2344 21.918C58.9375 21.918 58.6484 21.9219 58.3672 21.9297C58.0938 21.9297 57.8633 21.9336 57.6758 21.9414V21.5078C57.9492 21.5 58.1758 21.4844 58.3555 21.4609C58.5352 21.4297 58.6797 21.3711 58.7891 21.2852C58.9062 21.207 58.9883 21.0898 59.0352 20.9336C59.0898 20.7773 59.125 20.5664 59.1406 20.3008L59.2695 14.5703C59.2695 14.1953 59.1875 13.9336 59.0234 13.7852C58.8594 13.6367 58.5781 13.5625 58.1797 13.5625V13.1172C58.3047 13.1328 58.457 13.1445 58.6367 13.1523C58.8242 13.1523 59.0117 13.1523 59.1992 13.1523C59.3867 13.1523 59.5625 13.1523 59.7266 13.1523C59.8906 13.1445 60.0156 13.1328 60.1016 13.1172L63.5234 20.5117L66.8516 13.1289C66.9453 13.1445 67.0859 13.1523 67.2734 13.1523C67.4688 13.1523 67.6719 13.1523 67.8828 13.1523C68.0938 13.1523 68.293 13.1484 68.4805 13.1406C68.668 13.1328 68.8047 13.1211 68.8906 13.1055V13.5625C68.4531 13.5625 68.1602 13.6406 68.0117 13.7969C67.8711 13.9531 67.8008 14.207 67.8008 14.5586L67.9297 20.3008C67.9375 20.5508 67.957 20.7539 67.9883 20.9102C68.0273 21.0664 68.0977 21.1875 68.1992 21.2734C68.293 21.3672 68.4258 21.4297 68.5977 21.4609C68.7773 21.4922 69.0156 21.5078 69.3125 21.5078V21.9297C69.125 21.9297 68.8594 21.9297 68.5156 21.9297C68.1797 21.9297 67.8242 21.9297 67.4492 21.9297C67.0742 21.9297 66.7148 21.9297 66.3711 21.9297C66.0273 21.9297 65.7695 21.9297 65.5977 21.9297V21.5078C65.8633 21.5078 66.0781 21.4922 66.2422 21.4609C66.4141 21.4297 66.5469 21.3711 66.6406 21.2852C66.7266 21.1992 66.7852 21.0781 66.8164 20.9219C66.8555 20.7656 66.875 20.5586 66.875 20.3008L66.8047 14.8633L63.5469 22.0117ZM72.2305 21.5312C72.1133 21.2422 71.9688 20.8906 71.7969 20.4766C71.6328 20.0547 71.4688 19.6367 71.3047 19.2227C71.1328 18.8086 70.9766 18.4258 70.8359 18.0742C70.7031 17.7148 70.6094 17.4492 70.5547 17.2773C70.4922 17.0977 70.4023 16.9648 70.2852 16.8789C70.1758 16.793 69.9922 16.75 69.7344 16.75V16.3047C69.8516 16.3125 70.0312 16.3203 70.2734 16.3281C70.5234 16.3281 70.7852 16.3281 71.0586 16.3281C71.3242 16.3281 71.5742 16.3281 71.8086 16.3281C72.043 16.3203 72.207 16.3125 72.3008 16.3047V16.7617C71.9727 16.7852 71.7656 16.8359 71.6797 16.9141C71.5938 16.9844 71.5742 17.1094 71.6211 17.2891L72.7578 20.2305L73.9297 17.3711C74.0156 17.168 74.0156 17.0156 73.9297 16.9141C73.8516 16.8125 73.6797 16.7617 73.4141 16.7617V16.3047C73.5078 16.3125 73.6523 16.3203 73.8477 16.3281C74.0508 16.3281 74.2617 16.3242 74.4805 16.3164C74.6992 16.3164 74.9023 16.3164 75.0898 16.3164C75.2852 16.3086 75.4258 16.3008 75.5117 16.293V16.7617C75.2305 16.7617 75.0273 16.8242 74.9023 16.9492C74.7852 17.0742 74.6719 17.2695 74.5625 17.5352L71.7617 24.1328C71.668 24.3672 71.5 24.5391 71.2578 24.6484C71.0234 24.7656 70.793 24.8242 70.5664 24.8242C70.3789 24.8242 70.2109 24.7617 70.0625 24.6367C69.9141 24.5117 69.8398 24.3594 69.8398 24.1797C69.8398 24.0078 69.8945 23.8555 70.0039 23.7227C70.1133 23.5977 70.25 23.5273 70.4141 23.5117C70.5 23.5117 70.5977 23.5234 70.707 23.5469C70.8242 23.5703 70.9258 23.6172 71.0117 23.6875C71.0742 23.7344 71.1406 23.7461 71.2109 23.7227C71.2891 23.707 71.3477 23.668 71.3867 23.6055L72.2305 21.5312ZM77.0234 18.5078C77.0156 18.5391 77.0078 18.6289 77 18.7773C77 18.9258 77.0078 19.1055 77.0234 19.3164C77.0547 19.8945 77.2188 20.375 77.5156 20.7578C77.8125 21.1328 78.2109 21.3203 78.7109 21.3203C79.0625 21.3203 79.3711 21.2422 79.6367 21.0859C79.9102 20.9297 80.1523 20.7227 80.3633 20.4648L80.7383 20.6875C80.4961 21.1094 80.1836 21.457 79.8008 21.7305C79.418 21.9961 78.9805 22.1289 78.4883 22.1289C78.1367 22.1289 77.8086 22.0586 77.5039 21.918C77.207 21.7695 76.9492 21.5703 76.7305 21.3203C76.5039 21.0625 76.3281 20.7656 76.2031 20.4297C76.0859 20.0859 76.0273 19.7148 76.0273 19.3164C76.0273 18.8164 76.0898 18.3711 76.2148 17.9805C76.3398 17.582 76.5156 17.2461 76.7422 16.9727C76.9609 16.6992 77.2227 16.4922 77.5273 16.3516C77.8398 16.2031 78.1758 16.1289 78.5352 16.1289C78.7773 16.1289 79.0234 16.1719 79.2734 16.2578C79.5234 16.3359 79.7461 16.457 79.9414 16.6211C80.1367 16.7852 80.2969 16.9961 80.4219 17.2539C80.5469 17.5039 80.6133 17.8008 80.6211 18.1445C80.6211 18.2305 80.6172 18.2969 80.6094 18.3438C80.6094 18.3906 80.5977 18.4258 80.5742 18.4492C80.5586 18.4727 80.5273 18.4883 80.4805 18.4961C80.4336 18.5039 80.3711 18.5078 80.293 18.5078H77.0234ZM79.332 17.9922C79.4258 17.9922 79.4883 17.9805 79.5195 17.957C79.5586 17.9258 79.5781 17.8594 79.5781 17.7578C79.5781 17.5078 79.4805 17.2617 79.2852 17.0195C79.0898 16.7695 78.8242 16.6445 78.4883 16.6445C78.0898 16.6445 77.7734 16.7695 77.5391 17.0195C77.3047 17.2695 77.1562 17.5938 77.0938 17.9922H79.332ZM87.2773 19.1055C87.2773 19.5195 87.1992 19.9102 87.043 20.2773C86.8945 20.6445 86.6914 20.9648 86.4336 21.2383C86.1758 21.5117 85.8711 21.7305 85.5195 21.8945C85.1758 22.0508 84.8047 22.1289 84.4062 22.1289C84 22.1289 83.6133 22.0625 83.2461 21.9297C82.8867 21.7891 82.5703 21.5898 82.2969 21.332C82.0234 21.0742 81.8086 20.7617 81.6523 20.3945C81.4961 20.0273 81.418 19.6172 81.418 19.1641C81.418 18.7578 81.4883 18.3711 81.6289 18.0039C81.7695 17.6289 81.9648 17.3047 82.2148 17.0312C82.4648 16.7578 82.7617 16.5391 83.1055 16.375C83.457 16.2109 83.8398 16.1289 84.2539 16.1289C84.6836 16.1289 85.082 16.1992 85.4492 16.3398C85.8164 16.4805 86.1367 16.6797 86.4102 16.9375C86.6758 17.1953 86.8867 17.5078 87.043 17.875C87.1992 18.2422 87.2773 18.6523 87.2773 19.1055ZM86.1055 19.2344C86.1055 18.9609 86.0703 18.6719 86 18.3672C85.9297 18.0547 85.8242 17.7656 85.6836 17.5C85.5352 17.2422 85.3438 17.0273 85.1094 16.8555C84.8828 16.6758 84.6094 16.5859 84.2891 16.5859C83.9766 16.5859 83.7109 16.6641 83.4922 16.8203C83.2734 16.9766 83.0977 17.1719 82.9648 17.4062C82.8242 17.6484 82.7227 17.9141 82.6602 18.2031C82.6055 18.4922 82.5781 18.7695 82.5781 19.0352C82.5781 19.2852 82.6094 19.5625 82.6719 19.8672C82.7344 20.1719 82.8398 20.457 82.9883 20.7227C83.1289 20.9961 83.3125 21.2227 83.5391 21.4023C83.7734 21.582 84.0547 21.6719 84.3828 21.6719C84.6875 21.6719 84.9492 21.5938 85.168 21.4375C85.3867 21.2812 85.5664 21.082 85.707 20.8398C85.8398 20.6055 85.9375 20.3438 86 20.0547C86.0703 19.7656 86.1055 19.4922 86.1055 19.2344ZM89.8555 16.1406C89.832 16.3516 89.8164 16.5312 89.8086 16.6797C89.8008 16.8281 89.7969 16.957 89.7969 17.0664C89.9766 16.9414 90.1484 16.8242 90.3125 16.7148C90.4766 16.5977 90.6445 16.4961 90.8164 16.4102C90.9805 16.3242 91.1523 16.2578 91.332 16.2109C91.5117 16.1562 91.7031 16.1289 91.9062 16.1289C92.4453 16.1289 92.8203 16.3047 93.0312 16.6562C93.2422 17.0078 93.3477 17.4336 93.3477 17.9336V20.6758C93.3477 20.9883 93.3984 21.207 93.5 21.332C93.6094 21.4492 93.8438 21.5078 94.2031 21.5078V21.9297C94.0938 21.9297 93.9141 21.9297 93.6641 21.9297C93.4141 21.9297 93.1484 21.9297 92.8672 21.9297C92.5859 21.9297 92.3203 21.9336 92.0703 21.9414C91.8203 21.9414 91.6445 21.9414 91.543 21.9414V21.5078C91.8789 21.5078 92.0938 21.4492 92.1875 21.332C92.2891 21.207 92.3398 20.9883 92.3398 20.6758V17.9219C92.3398 17.5469 92.2539 17.2812 92.082 17.125C91.918 16.9688 91.6562 16.8906 91.2969 16.8906C91.1953 16.8984 91.0742 16.9258 90.9336 16.9727C90.8008 17.0195 90.6641 17.082 90.5234 17.1602C90.3828 17.2305 90.2461 17.3086 90.1133 17.3945C89.9883 17.4805 89.8828 17.5586 89.7969 17.6289V20.6758C89.7969 20.9883 89.8477 21.207 89.9492 21.332C90.0508 21.4492 90.2852 21.5078 90.6523 21.5078V21.9414C90.5352 21.9336 90.3516 21.9297 90.1016 21.9297C89.8516 21.9219 89.5859 21.918 89.3047 21.918C89.0234 21.918 88.7578 21.9219 88.5078 21.9297C88.2578 21.9297 88.082 21.9336 87.9805 21.9414V21.5078C88.3242 21.5078 88.543 21.4492 88.6367 21.332C88.7383 21.207 88.7891 20.9883 88.7891 20.6758V17.957C88.7891 17.5742 88.7539 17.332 88.6836 17.2305C88.6133 17.1211 88.4219 17.0664 88.1094 17.0664V16.7031C88.3594 16.6641 88.5938 16.6016 88.8125 16.5156C89.0312 16.4297 89.2305 16.3047 89.4102 16.1406H89.8555ZM95.9141 21.7539C95.5156 21.582 95.2578 21.3711 95.1406 21.1211C95.0312 20.8711 95.0117 20.6055 95.082 20.3242C95.2461 20.2305 95.4023 20.1367 95.5508 20.043C95.707 19.9414 95.8359 19.8438 95.9375 19.75C95.6328 19.5859 95.3867 19.3828 95.1992 19.1406C95.0117 18.8906 94.918 18.5469 94.918 18.1094C94.918 17.5547 95.1133 17.0859 95.5039 16.7031C95.8945 16.3203 96.4766 16.1289 97.25 16.1289C97.4531 16.1289 97.6445 16.1484 97.8242 16.1875C98.0117 16.2188 98.1836 16.2539 98.3398 16.293C98.4961 16.3477 98.668 16.3984 98.8555 16.4453C99.0508 16.4922 99.2734 16.5156 99.5234 16.5156C99.5938 16.5156 99.6562 16.5156 99.7109 16.5156C99.7656 16.5156 99.8164 16.5117 99.8633 16.5039C99.8789 16.5039 99.8984 16.5039 99.9219 16.5039C99.9453 16.5039 99.9727 16.5 100.004 16.4922C100.035 16.4922 100.07 16.4883 100.109 16.4805C100.148 16.4727 100.195 16.4648 100.25 16.457V17.1484L99.125 17.1016C99.1797 17.1797 99.2305 17.3047 99.2773 17.4766C99.3242 17.6484 99.3477 17.8281 99.3477 18.0156C99.3477 18.6406 99.1367 19.1289 98.7148 19.4805C98.293 19.8242 97.7383 19.9961 97.0508 19.9961C97.0039 19.9961 96.9531 20 96.8984 20.0078C96.8516 20.0078 96.8047 20.0039 96.7578 19.9961C96.7109 19.9961 96.6602 19.9961 96.6055 19.9961C96.5586 19.9883 96.5078 19.9766 96.4531 19.9609C96.3047 20.0391 96.1992 20.125 96.1367 20.2188C96.082 20.3125 96.0547 20.4141 96.0547 20.5234C96.0547 20.7422 96.1211 20.8945 96.2539 20.9805C96.3867 21.0586 96.5898 21.0977 96.8633 21.0977C97.0117 21.0977 97.1523 21.1016 97.2852 21.1094C97.4258 21.1094 97.5664 21.1094 97.707 21.1094C97.8398 21.1094 97.9688 21.1094 98.0938 21.1094C98.2188 21.1094 98.3477 21.1094 98.4805 21.1094C99.0039 21.1094 99.4336 21.2266 99.7695 21.4609C100.105 21.6875 100.273 22.0469 100.273 22.5391C100.273 22.8359 100.188 23.1172 100.016 23.3828C99.8438 23.6484 99.6133 23.8828 99.3242 24.0859C99.0273 24.2969 98.6797 24.4648 98.2812 24.5898C97.8828 24.7148 97.4531 24.7773 96.9922 24.7773C96.5938 24.7773 96.2461 24.7266 95.9492 24.625C95.6523 24.5312 95.4062 24.4102 95.2109 24.2617C95.0156 24.1133 94.8711 23.9492 94.7773 23.7695C94.6836 23.5898 94.6367 23.4102 94.6367 23.2305C94.6367 22.8711 94.7539 22.5664 94.9883 22.3164C95.2305 22.0742 95.5391 21.8867 95.9141 21.7539ZM96.0078 17.9805C96.0078 18.4023 96.1016 18.7695 96.2891 19.082C96.4844 19.3867 96.7695 19.5391 97.1445 19.5391C97.5664 19.5391 97.8711 19.4023 98.0586 19.1289C98.2461 18.8477 98.3398 18.5195 98.3398 18.1445C98.3398 17.9727 98.3125 17.793 98.2578 17.6055C98.2109 17.418 98.1367 17.25 98.0352 17.1016C97.9414 16.9453 97.8164 16.8203 97.6602 16.7266C97.5039 16.625 97.3203 16.5742 97.1094 16.5742C96.9141 16.5742 96.7461 16.6211 96.6055 16.7148C96.4727 16.8008 96.3594 16.9102 96.2656 17.043C96.1797 17.1836 96.1133 17.3359 96.0664 17.5C96.0273 17.6641 96.0078 17.8242 96.0078 17.9805ZM95.5625 23.0547C95.5625 23.4531 95.7188 23.75 96.0312 23.9453C96.3516 24.1484 96.7344 24.25 97.1797 24.25C97.4766 24.25 97.7539 24.2188 98.0117 24.1562C98.2773 24.0938 98.5078 24.0039 98.7031 23.8867C98.8984 23.7695 99.0508 23.6289 99.1602 23.4648C99.2773 23.3008 99.3359 23.1133 99.3359 22.9023C99.3359 22.5273 99.1602 22.2695 98.8086 22.1289C98.4648 21.9961 98.0586 21.9297 97.5898 21.9297C96.918 21.9297 96.4102 22.0312 96.0664 22.2344C95.7305 22.4453 95.5625 22.7188 95.5625 23.0547ZM101.609 17.957C101.609 17.5742 101.574 17.332 101.504 17.2305C101.434 17.1211 101.242 17.0664 100.93 17.0664V16.7031C101.18 16.6719 101.414 16.6133 101.633 16.5273C101.852 16.4336 102.055 16.3047 102.242 16.1406H102.676C102.652 16.3516 102.637 16.5859 102.629 16.8438C102.621 17.1016 102.617 17.3242 102.617 17.5117V22.2344C102.617 22.625 102.57 22.9609 102.477 23.2422C102.383 23.5234 102.25 23.7578 102.078 23.9453C101.906 24.1328 101.699 24.2891 101.457 24.4141C101.223 24.5469 100.961 24.6562 100.672 24.7422L100.543 24.4023C100.941 24.2148 101.219 23.957 101.375 23.6289C101.531 23.3008 101.609 22.8789 101.609 22.3633V17.957ZM102.09 13.0117C102.285 13.0117 102.453 13.082 102.594 13.2227C102.742 13.3633 102.816 13.5312 102.816 13.7266C102.816 13.9297 102.742 14.1016 102.594 14.2422C102.453 14.375 102.285 14.4414 102.09 14.4414C101.887 14.4414 101.715 14.375 101.574 14.2422C101.441 14.1016 101.375 13.9297 101.375 13.7266C101.375 13.5312 101.441 13.3633 101.574 13.2227C101.715 13.082 101.887 13.0117 102.09 13.0117ZM110.023 19.1055C110.023 19.5195 109.945 19.9102 109.789 20.2773C109.641 20.6445 109.438 20.9648 109.18 21.2383C108.922 21.5117 108.617 21.7305 108.266 21.8945C107.922 22.0508 107.551 22.1289 107.152 22.1289C106.746 22.1289 106.359 22.0625 105.992 21.9297C105.633 21.7891 105.316 21.5898 105.043 21.332C104.77 21.0742 104.555 20.7617 104.398 20.3945C104.242 20.0273 104.164 19.6172 104.164 19.1641C104.164 18.7578 104.234 18.3711 104.375 18.0039C104.516 17.6289 104.711 17.3047 104.961 17.0312C105.211 16.7578 105.508 16.5391 105.852 16.375C106.203 16.2109 106.586 16.1289 107 16.1289C107.43 16.1289 107.828 16.1992 108.195 16.3398C108.562 16.4805 108.883 16.6797 109.156 16.9375C109.422 17.1953 109.633 17.5078 109.789 17.875C109.945 18.2422 110.023 18.6523 110.023 19.1055ZM108.852 19.2344C108.852 18.9609 108.816 18.6719 108.746 18.3672C108.676 18.0547 108.57 17.7656 108.43 17.5C108.281 17.2422 108.09 17.0273 107.855 16.8555C107.629 16.6758 107.355 16.5859 107.035 16.5859C106.723 16.5859 106.457 16.6641 106.238 16.8203C106.02 16.9766 105.844 17.1719 105.711 17.4062C105.57 17.6484 105.469 17.9141 105.406 18.2031C105.352 18.4922 105.324 18.7695 105.324 19.0352C105.324 19.2852 105.355 19.5625 105.418 19.8672C105.48 20.1719 105.586 20.457 105.734 20.7227C105.875 20.9961 106.059 21.2227 106.285 21.4023C106.52 21.582 106.801 21.6719 107.129 21.6719C107.434 21.6719 107.695 21.5938 107.914 21.4375C108.133 21.2812 108.312 21.082 108.453 20.8398C108.586 20.6055 108.684 20.3438 108.746 20.0547C108.816 19.7656 108.852 19.4922 108.852 19.2344Z" fill="#BABABA"/>
<path d="M110.023 19.1055C110.023 19.5195 109.945 19.9102 109.789 20.2773C109.641 20.6445 109.438 20.9648 109.18 21.2383C108.922 21.5117 108.617 21.7305 108.266 21.8945C107.922 22.0508 107.551 22.1289 107.152 22.1289C106.746 22.1289 106.359 22.0625 105.992 21.9297C105.633 21.7891 105.316 21.5898 105.043 21.332C104.77 21.0742 104.555 20.7617 104.398 20.3945C104.242 20.0273 104.164 19.6172 104.164 19.1641C104.164 18.7578 104.234 18.3711 104.375 18.0039C104.516 17.6289 104.711 17.3047 104.961 17.0312C105.211 16.7578 105.508 16.5391 105.852 16.375C106.203 16.2109 106.586 16.1289 107 16.1289C107.43 16.1289 107.828 16.1992 108.195 16.3398C108.562 16.4805 108.883 16.6797 109.156 16.9375C109.422 17.1953 109.633 17.5078 109.789 17.875C109.945 18.2422 110.023 18.6523 110.023 19.1055ZM108.852 19.2344C108.852 18.9609 108.816 18.6719 108.746 18.3672C108.676 18.0547 108.57 17.7656 108.43 17.5C108.281 17.2422 108.09 17.0273 107.855 16.8555C107.629 16.6758 107.355 16.5859 107.035 16.5859C106.723 16.5859 106.457 16.6641 106.238 16.8203C106.02 16.9766 105.844 17.1719 105.711 17.4062C105.57 17.6484 105.469 17.9141 105.406 18.2031C105.352 18.4922 105.324 18.7695 105.324 19.0352C105.324 19.2852 105.355 19.5625 105.418 19.8672C105.48 20.1719 105.586 20.457 105.734 20.7227C105.875 20.9961 106.059 21.2227 106.285 21.4023C106.52 21.582 106.801 21.6719 107.129 21.6719C107.434 21.6719 107.695 21.5938 107.914 21.4375C108.133 21.2812 108.312 21.082 108.453 20.8398C108.586 20.6055 108.684 20.3438 108.746 20.0547C108.816 19.7656 108.852 19.4922 108.852 19.2344Z" fill="#BABABA"/>
<path d="M101.609 17.957C101.609 17.5742 101.574 17.332 101.504 17.2305C101.434 17.1211 101.242 17.0664 100.93 17.0664V16.7031C101.18 16.6719 101.414 16.6133 101.633 16.5273C101.852 16.4336 102.055 16.3047 102.242 16.1406H102.676C102.652 16.3516 102.637 16.5859 102.629 16.8438C102.621 17.1016 102.617 17.3242 102.617 17.5117V22.2344C102.617 22.625 102.57 22.9609 102.477 23.2422C102.383 23.5234 102.25 23.7578 102.078 23.9453C101.906 24.1328 101.699 24.2891 101.457 24.4141C101.223 24.5469 100.961 24.6562 100.672 24.7422L100.543 24.4023C100.941 24.2148 101.219 23.957 101.375 23.6289C101.531 23.3008 101.609 22.8789 101.609 22.3633V17.957ZM102.09 13.0117C102.285 13.0117 102.453 13.082 102.594 13.2227C102.742 13.3633 102.816 13.5312 102.816 13.7266C102.816 13.9297 102.742 14.1016 102.594 14.2422C102.453 14.375 102.285 14.4414 102.09 14.4414C101.887 14.4414 101.715 14.375 101.574 14.2422C101.441 14.1016 101.375 13.9297 101.375 13.7266C101.375 13.5312 101.441 13.3633 101.574 13.2227C101.715 13.082 101.887 13.0117 102.09 13.0117Z" fill="#BABABA"/>
<path d="M95.9141 21.7539C95.5156 21.582 95.2578 21.3711 95.1406 21.1211C95.0312 20.8711 95.0117 20.6055 95.082 20.3242C95.2461 20.2305 95.4023 20.1367 95.5508 20.043C95.707 19.9414 95.8359 19.8438 95.9375 19.75C95.6328 19.5859 95.3867 19.3828 95.1992 19.1406C95.0117 18.8906 94.918 18.5469 94.918 18.1094C94.918 17.5547 95.1133 17.0859 95.5039 16.7031C95.8945 16.3203 96.4766 16.1289 97.25 16.1289C97.4531 16.1289 97.6445 16.1484 97.8242 16.1875C98.0117 16.2188 98.1836 16.2539 98.3398 16.293C98.4961 16.3477 98.668 16.3984 98.8555 16.4453C99.0508 16.4922 99.2734 16.5156 99.5234 16.5156C99.5938 16.5156 99.6562 16.5156 99.7109 16.5156C99.7656 16.5156 99.8164 16.5117 99.8633 16.5039C99.8789 16.5039 99.8984 16.5039 99.9219 16.5039C99.9453 16.5039 99.9727 16.5 100.004 16.4922C100.035 16.4922 100.07 16.4883 100.109 16.4805C100.148 16.4727 100.195 16.4648 100.25 16.457V17.1484L99.125 17.1016C99.1797 17.1797 99.2305 17.3047 99.2773 17.4766C99.3242 17.6484 99.3477 17.8281 99.3477 18.0156C99.3477 18.6406 99.1367 19.1289 98.7148 19.4805C98.293 19.8242 97.7383 19.9961 97.0508 19.9961C97.0039 19.9961 96.9531 20 96.8984 20.0078C96.8516 20.0078 96.8047 20.0039 96.7578 19.9961C96.7109 19.9961 96.6602 19.9961 96.6055 19.9961C96.5586 19.9883 96.5078 19.9766 96.4531 19.9609C96.3047 20.0391 96.1992 20.125 96.1367 20.2188C96.082 20.3125 96.0547 20.4141 96.0547 20.5234C96.0547 20.7422 96.1211 20.8945 96.2539 20.9805C96.3867 21.0586 96.5898 21.0977 96.8633 21.0977C97.0117 21.0977 97.1523 21.1016 97.2852 21.1094C97.4258 21.1094 97.5664 21.1094 97.707 21.1094C97.8398 21.1094 97.9688 21.1094 98.0938 21.1094C98.2188 21.1094 98.3477 21.1094 98.4805 21.1094C99.0039 21.1094 99.4336 21.2266 99.7695 21.4609C100.105 21.6875 100.273 22.0469 100.273 22.5391C100.273 22.8359 100.188 23.1172 100.016 23.3828C99.8438 23.6484 99.6133 23.8828 99.3242 24.0859C99.0273 24.2969 98.6797 24.4648 98.2812 24.5898C97.8828 24.7148 97.4531 24.7773 96.9922 24.7773C96.5938 24.7773 96.2461 24.7266 95.9492 24.625C95.6523 24.5312 95.4062 24.4102 95.2109 24.2617C95.0156 24.1133 94.8711 23.9492 94.7773 23.7695C94.6836 23.5898 94.6367 23.4102 94.6367 23.2305C94.6367 22.8711 94.7539 22.5664 94.9883 22.3164C95.2305 22.0742 95.5391 21.8867 95.9141 21.7539ZM96.0078 17.9805C96.0078 18.4023 96.1016 18.7695 96.2891 19.082C96.4844 19.3867 96.7695 19.5391 97.1445 19.5391C97.5664 19.5391 97.8711 19.4023 98.0586 19.1289C98.2461 18.8477 98.3398 18.5195 98.3398 18.1445C98.3398 17.9727 98.3125 17.793 98.2578 17.6055C98.2109 17.418 98.1367 17.25 98.0352 17.1016C97.9414 16.9453 97.8164 16.8203 97.6602 16.7266C97.5039 16.625 97.3203 16.5742 97.1094 16.5742C96.9141 16.5742 96.7461 16.6211 96.6055 16.7148C96.4727 16.8008 96.3594 16.9102 96.2656 17.043C96.1797 17.1836 96.1133 17.3359 96.0664 17.5C96.0273 17.6641 96.0078 17.8242 96.0078 17.9805ZM95.5625 23.0547C95.5625 23.4531 95.7188 23.75 96.0312 23.9453C96.3516 24.1484 96.7344 24.25 97.1797 24.25C97.4766 24.25 97.7539 24.2188 98.0117 24.1562C98.2773 24.0938 98.5078 24.0039 98.7031 23.8867C98.8984 23.7695 99.0508 23.6289 99.1602 23.4648C99.2773 23.3008 99.3359 23.1133 99.3359 22.9023C99.3359 22.5273 99.1602 22.2695 98.8086 22.1289C98.4648 21.9961 98.0586 21.9297 97.5898 21.9297C96.918 21.9297 96.4102 22.0312 96.0664 22.2344C95.7305 22.4453 95.5625 22.7188 95.5625 23.0547Z" fill="#BABABA"/>
<path d="M89.8555 16.1406C89.832 16.3516 89.8164 16.5312 89.8086 16.6797C89.8008 16.8281 89.7969 16.957 89.7969 17.0664C89.9766 16.9414 90.1484 16.8242 90.3125 16.7148C90.4766 16.5977 90.6445 16.4961 90.8164 16.4102C90.9805 16.3242 91.1523 16.2578 91.332 16.2109C91.5117 16.1562 91.7031 16.1289 91.9062 16.1289C92.4453 16.1289 92.8203 16.3047 93.0312 16.6562C93.2422 17.0078 93.3477 17.4336 93.3477 17.9336V20.6758C93.3477 20.9883 93.3984 21.207 93.5 21.332C93.6094 21.4492 93.8438 21.5078 94.2031 21.5078V21.9297C94.0938 21.9297 93.9141 21.9297 93.6641 21.9297C93.4141 21.9297 93.1484 21.9297 92.8672 21.9297C92.5859 21.9297 92.3203 21.9336 92.0703 21.9414C91.8203 21.9414 91.6445 21.9414 91.543 21.9414V21.5078C91.8789 21.5078 92.0938 21.4492 92.1875 21.332C92.2891 21.207 92.3398 20.9883 92.3398 20.6758V17.9219C92.3398 17.5469 92.2539 17.2812 92.082 17.125C91.918 16.9688 91.6562 16.8906 91.2969 16.8906C91.1953 16.8984 91.0742 16.9258 90.9336 16.9727C90.8008 17.0195 90.6641 17.082 90.5234 17.1602C90.3828 17.2305 90.2461 17.3086 90.1133 17.3945C89.9883 17.4805 89.8828 17.5586 89.7969 17.6289V20.6758C89.7969 20.9883 89.8477 21.207 89.9492 21.332C90.0508 21.4492 90.2852 21.5078 90.6523 21.5078V21.9414C90.5352 21.9336 90.3516 21.9297 90.1016 21.9297C89.8516 21.9219 89.5859 21.918 89.3047 21.918C89.0234 21.918 88.7578 21.9219 88.5078 21.9297C88.2578 21.9297 88.082 21.9336 87.9805 21.9414V21.5078C88.3242 21.5078 88.543 21.4492 88.6367 21.332C88.7383 21.207 88.7891 20.9883 88.7891 20.6758V17.957C88.7891 17.5742 88.7539 17.332 88.6836 17.2305C88.6133 17.1211 88.4219 17.0664 88.1094 17.0664V16.7031C88.3594 16.6641 88.5938 16.6016 88.8125 16.5156C89.0312 16.4297 89.2305 16.3047 89.4102 16.1406H89.8555Z" fill="#BABABA"/>
<path d="M87.2773 19.1055C87.2773 19.5195 87.1992 19.9102 87.043 20.2773C86.8945 20.6445 86.6914 20.9648 86.4336 21.2383C86.1758 21.5117 85.8711 21.7305 85.5195 21.8945C85.1758 22.0508 84.8047 22.1289 84.4062 22.1289C84 22.1289 83.6133 22.0625 83.2461 21.9297C82.8867 21.7891 82.5703 21.5898 82.2969 21.332C82.0234 21.0742 81.8086 20.7617 81.6523 20.3945C81.4961 20.0273 81.418 19.6172 81.418 19.1641C81.418 18.7578 81.4883 18.3711 81.6289 18.0039C81.7695 17.6289 81.9648 17.3047 82.2148 17.0312C82.4648 16.7578 82.7617 16.5391 83.1055 16.375C83.457 16.2109 83.8398 16.1289 84.2539 16.1289C84.6836 16.1289 85.082 16.1992 85.4492 16.3398C85.8164 16.4805 86.1367 16.6797 86.4102 16.9375C86.6758 17.1953 86.8867 17.5078 87.043 17.875C87.1992 18.2422 87.2773 18.6523 87.2773 19.1055ZM86.1055 19.2344C86.1055 18.9609 86.0703 18.6719 86 18.3672C85.9297 18.0547 85.8242 17.7656 85.6836 17.5C85.5352 17.2422 85.3438 17.0273 85.1094 16.8555C84.8828 16.6758 84.6094 16.5859 84.2891 16.5859C83.9766 16.5859 83.7109 16.6641 83.4922 16.8203C83.2734 16.9766 83.0977 17.1719 82.9648 17.4062C82.8242 17.6484 82.7227 17.9141 82.6602 18.2031C82.6055 18.4922 82.5781 18.7695 82.5781 19.0352C82.5781 19.2852 82.6094 19.5625 82.6719 19.8672C82.7344 20.1719 82.8398 20.457 82.9883 20.7227C83.1289 20.9961 83.3125 21.2227 83.5391 21.4023C83.7734 21.582 84.0547 21.6719 84.3828 21.6719C84.6875 21.6719 84.9492 21.5938 85.168 21.4375C85.3867 21.2812 85.5664 21.082 85.707 20.8398C85.8398 20.6055 85.9375 20.3438 86 20.0547C86.0703 19.7656 86.1055 19.4922 86.1055 19.2344Z" fill="#BABABA"/>
<path d="M77.0234 18.5078C77.0156 18.5391 77.0078 18.6289 77 18.7773C77 18.9258 77.0078 19.1055 77.0234 19.3164C77.0547 19.8945 77.2188 20.375 77.5156 20.7578C77.8125 21.1328 78.2109 21.3203 78.7109 21.3203C79.0625 21.3203 79.3711 21.2422 79.6367 21.0859C79.9102 20.9297 80.1523 20.7227 80.3633 20.4648L80.7383 20.6875C80.4961 21.1094 80.1836 21.457 79.8008 21.7305C79.418 21.9961 78.9805 22.1289 78.4883 22.1289C78.1367 22.1289 77.8086 22.0586 77.5039 21.918C77.207 21.7695 76.9492 21.5703 76.7305 21.3203C76.5039 21.0625 76.3281 20.7656 76.2031 20.4297C76.0859 20.0859 76.0273 19.7148 76.0273 19.3164C76.0273 18.8164 76.0898 18.3711 76.2148 17.9805C76.3398 17.582 76.5156 17.2461 76.7422 16.9727C76.9609 16.6992 77.2227 16.4922 77.5273 16.3516C77.8398 16.2031 78.1758 16.1289 78.5352 16.1289C78.7773 16.1289 79.0234 16.1719 79.2734 16.2578C79.5234 16.3359 79.7461 16.457 79.9414 16.6211C80.1367 16.7852 80.2969 16.9961 80.4219 17.2539C80.5469 17.5039 80.6133 17.8008 80.6211 18.1445C80.6211 18.2305 80.6172 18.2969 80.6094 18.3438C80.6094 18.3906 80.5977 18.4258 80.5742 18.4492C80.5586 18.4727 80.5273 18.4883 80.4805 18.4961C80.4336 18.5039 80.3711 18.5078 80.293 18.5078H77.0234ZM79.332 17.9922C79.4258 17.9922 79.4883 17.9805 79.5195 17.957C79.5586 17.9258 79.5781 17.8594 79.5781 17.7578C79.5781 17.5078 79.4805 17.2617 79.2852 17.0195C79.0898 16.7695 78.8242 16.6445 78.4883 16.6445C78.0898 16.6445 77.7734 16.7695 77.5391 17.0195C77.3047 17.2695 77.1562 17.5938 77.0938 17.9922H79.332Z" fill="#BABABA"/>
<path d="M72.2305 21.5312C72.1133 21.2422 71.9688 20.8906 71.7969 20.4766C71.6328 20.0547 71.4688 19.6367 71.3047 19.2227C71.1328 18.8086 70.9766 18.4258 70.8359 18.0742C70.7031 17.7148 70.6094 17.4492 70.5547 17.2773C70.4922 17.0977 70.4023 16.9648 70.2852 16.8789C70.1758 16.793 69.9922 16.75 69.7344 16.75V16.3047C69.8516 16.3125 70.0312 16.3203 70.2734 16.3281C70.5234 16.3281 70.7852 16.3281 71.0586 16.3281C71.3242 16.3281 71.5742 16.3281 71.8086 16.3281C72.043 16.3203 72.207 16.3125 72.3008 16.3047V16.7617C71.9727 16.7852 71.7656 16.8359 71.6797 16.9141C71.5938 16.9844 71.5742 17.1094 71.6211 17.2891L72.7578 20.2305L73.9297 17.3711C74.0156 17.168 74.0156 17.0156 73.9297 16.9141C73.8516 16.8125 73.6797 16.7617 73.4141 16.7617V16.3047C73.5078 16.3125 73.6523 16.3203 73.8477 16.3281C74.0508 16.3281 74.2617 16.3242 74.4805 16.3164C74.6992 16.3164 74.9023 16.3164 75.0898 16.3164C75.2852 16.3086 75.4258 16.3008 75.5117 16.293V16.7617C75.2305 16.7617 75.0273 16.8242 74.9023 16.9492C74.7852 17.0742 74.6719 17.2695 74.5625 17.5352L71.7617 24.1328C71.668 24.3672 71.5 24.5391 71.2578 24.6484C71.0234 24.7656 70.793 24.8242 70.5664 24.8242C70.3789 24.8242 70.2109 24.7617 70.0625 24.6367C69.9141 24.5117 69.8398 24.3594 69.8398 24.1797C69.8398 24.0078 69.8945 23.8555 70.0039 23.7227C70.1133 23.5977 70.25 23.5273 70.4141 23.5117C70.5 23.5117 70.5977 23.5234 70.707 23.5469C70.8242 23.5703 70.9258 23.6172 71.0117 23.6875C71.0742 23.7344 71.1406 23.7461 71.2109 23.7227C71.2891 23.707 71.3477 23.668 71.3867 23.6055L72.2305 21.5312Z" fill="#BABABA"/>
<path d="M63.5469 22.0117H63.1367L59.9375 15.0859L59.8438 20.3359C59.8438 20.7656 59.9023 21.0664 60.0195 21.2383C60.1367 21.4102 60.3945 21.5039 60.793 21.5195V21.9297C60.6055 21.9297 60.3711 21.9297 60.0898 21.9297C59.8164 21.9219 59.5312 21.918 59.2344 21.918C58.9375 21.918 58.6484 21.9219 58.3672 21.9297C58.0938 21.9297 57.8633 21.9336 57.6758 21.9414V21.5078C57.9492 21.5 58.1758 21.4844 58.3555 21.4609C58.5352 21.4297 58.6797 21.3711 58.7891 21.2852C58.9062 21.207 58.9883 21.0898 59.0352 20.9336C59.0898 20.7773 59.125 20.5664 59.1406 20.3008L59.2695 14.5703C59.2695 14.1953 59.1875 13.9336 59.0234 13.7852C58.8594 13.6367 58.5781 13.5625 58.1797 13.5625V13.1172C58.3047 13.1328 58.457 13.1445 58.6367 13.1523C58.8242 13.1523 59.0117 13.1523 59.1992 13.1523C59.3867 13.1523 59.5625 13.1523 59.7266 13.1523C59.8906 13.1445 60.0156 13.1328 60.1016 13.1172L63.5234 20.5117L66.8516 13.1289C66.9453 13.1445 67.0859 13.1523 67.2734 13.1523C67.4688 13.1523 67.6719 13.1523 67.8828 13.1523C68.0938 13.1523 68.293 13.1484 68.4805 13.1406C68.668 13.1328 68.8047 13.1211 68.8906 13.1055V13.5625C68.4531 13.5625 68.1602 13.6406 68.0117 13.7969C67.8711 13.9531 67.8008 14.207 67.8008 14.5586L67.9297 20.3008C67.9375 20.5508 67.957 20.7539 67.9883 20.9102C68.0273 21.0664 68.0977 21.1875 68.1992 21.2734C68.293 21.3672 68.4258 21.4297 68.5977 21.4609C68.7773 21.4922 69.0156 21.5078 69.3125 21.5078V21.9297C69.125 21.9297 68.8594 21.9297 68.5156 21.9297C68.1797 21.9297 67.8242 21.9297 67.4492 21.9297C67.0742 21.9297 66.7148 21.9297 66.3711 21.9297C66.0273 21.9297 65.7695 21.9297 65.5977 21.9297V21.5078C65.8633 21.5078 66.0781 21.4922 66.2422 21.4609C66.4141 21.4297 66.5469 21.3711 66.6406 21.2852C66.7266 21.1992 66.7852 21.0781 66.8164 20.9219C66.8555 20.7656 66.875 20.5586 66.875 20.3008L66.8047 14.8633L63.5469 22.0117Z" fill="#BABABA"/>
<path d="M45.8281 16.1406C45.8047 16.3516 45.7891 16.5391 45.7812 16.7031C45.7734 16.8594 45.7695 16.9844 45.7695 17.0781C45.9336 16.9609 46.0938 16.8438 46.25 16.7266C46.4062 16.6094 46.5664 16.5078 46.7305 16.4219C46.8945 16.3359 47.0664 16.2656 47.2461 16.2109C47.4258 16.1562 47.625 16.1289 47.8438 16.1289C48.1562 16.1289 48.4336 16.2109 48.6758 16.375C48.918 16.5391 49.0742 16.7734 49.1445 17.0781C49.4727 16.8203 49.793 16.5977 50.1055 16.4102C50.4258 16.2227 50.8086 16.1289 51.2539 16.1289C51.5117 16.1289 51.7305 16.1797 51.9102 16.2812C52.0977 16.3828 52.25 16.5195 52.3672 16.6914C52.4844 16.8633 52.5703 17.0586 52.625 17.2773C52.6797 17.4961 52.707 17.7227 52.707 17.957V20.7109C52.707 21.0312 52.7539 21.2461 52.8477 21.3555C52.9414 21.457 53.1641 21.5078 53.5156 21.5078V21.9414C53.3516 21.9414 53.1562 21.9414 52.9297 21.9414C52.7031 21.9336 52.4688 21.9297 52.2266 21.9297C51.9766 21.9297 51.7344 21.9297 51.5 21.9297C51.2734 21.9297 51.0781 21.9336 50.9141 21.9414V21.5078C51.2578 21.5078 51.4727 21.457 51.5586 21.3555C51.6523 21.2461 51.6992 21.0312 51.6992 20.7109V18.3789C51.6992 18.1992 51.6875 18.0234 51.6641 17.8516C51.6406 17.6719 51.5977 17.5117 51.5352 17.3711C51.4648 17.2305 51.3633 17.1172 51.2305 17.0312C51.1055 16.9375 50.9336 16.8906 50.7148 16.8906C50.5977 16.8906 50.4688 16.918 50.3281 16.9727C50.1875 17.0195 50.0508 17.0781 49.918 17.1484C49.7773 17.2188 49.6484 17.2969 49.5312 17.3828C49.4141 17.4688 49.3164 17.5469 49.2383 17.6172V20.7109C49.2383 21.0312 49.2891 21.2461 49.3906 21.3555C49.4922 21.457 49.7266 21.5078 50.0938 21.5078V21.9414C49.9297 21.9414 49.7266 21.9414 49.4844 21.9414C49.25 21.9336 49.0078 21.9297 48.7578 21.9297C48.5078 21.9297 48.2656 21.9297 48.0312 21.9297C47.7969 21.9297 47.6016 21.9336 47.4453 21.9414V21.5078C47.7812 21.5078 47.9961 21.4531 48.0898 21.3438C48.1836 21.2344 48.2305 21.0234 48.2305 20.7109V18.3789C48.2305 18.1992 48.2188 18.0195 48.1953 17.8398C48.1719 17.6602 48.1289 17.5 48.0664 17.3594C47.9961 17.2188 47.8945 17.1055 47.7617 17.0195C47.6367 16.9336 47.4648 16.8906 47.2461 16.8906C47.1523 16.8906 47.0391 16.918 46.9062 16.9727C46.7734 17.0195 46.6406 17.0781 46.5078 17.1484C46.3672 17.2266 46.2305 17.3125 46.0977 17.4062C45.9648 17.4922 45.8555 17.5781 45.7695 17.6641V20.7109C45.7695 21.0312 45.8164 21.2461 45.9102 21.3555C46.0117 21.457 46.2422 21.5078 46.6016 21.5078V21.9414C46.4297 21.9414 46.2266 21.9414 45.9922 21.9414C45.7578 21.9336 45.5156 21.9297 45.2656 21.9297C45.0156 21.9297 44.7734 21.9297 44.5391 21.9297C44.3047 21.9297 44.1016 21.9336 43.9297 21.9414V21.5078C44.2891 21.5078 44.5156 21.4531 44.6094 21.3438C44.7109 21.2344 44.7617 21.0234 44.7617 20.7109V17.957C44.7617 17.5742 44.7266 17.332 44.6562 17.2305C44.5859 17.1211 44.3945 17.0664 44.082 17.0664V16.7031C44.332 16.6641 44.5664 16.6016 44.7852 16.5156C45.0039 16.4297 45.2031 16.3047 45.3828 16.1406H45.8281Z" fill="#BABABA"/>
<path d="M41.5273 21.1797C41.1523 21.4844 40.8047 21.7188 40.4844 21.8828C40.1719 22.0469 39.8008 22.1289 39.3711 22.1289C39.207 22.1289 39.043 22.1016 38.8789 22.0469C38.7148 21.9922 38.5664 21.9023 38.4336 21.7773C38.3008 21.6523 38.1914 21.4961 38.1055 21.3086C38.0273 21.1133 37.9883 20.875 37.9883 20.5938V17.3828C37.9883 17.1328 37.9414 16.9727 37.8477 16.9023C37.7617 16.832 37.5664 16.7852 37.2617 16.7617V16.3984C37.4727 16.3984 37.7461 16.3867 38.082 16.3633C38.418 16.3398 38.7383 16.3164 39.043 16.293C39.0273 16.4492 39.0156 16.6406 39.0078 16.8672C39 17.0938 38.9961 17.2656 38.9961 17.3828V19.9609C38.9961 20.5547 39.0625 20.9375 39.1953 21.1094C39.3359 21.2812 39.5547 21.3672 39.8516 21.3672C40.0938 21.3672 40.375 21.2969 40.6953 21.1562C41.0234 21.0156 41.3047 20.8281 41.5391 20.5938V17.3828C41.5391 17.1406 41.4766 16.9844 41.3516 16.9141C41.2266 16.8359 41.0078 16.7852 40.6953 16.7617V16.3984C40.8984 16.3984 41.1875 16.3867 41.5625 16.3633C41.9453 16.3398 42.2891 16.3164 42.5938 16.293C42.5781 16.4492 42.5664 16.6406 42.5586 16.8672C42.5508 17.0938 42.5469 17.2656 42.5469 17.3828V20.9922C42.5469 21.2031 42.5977 21.3281 42.6992 21.3672C42.8008 21.4062 43.0234 21.4141 43.3672 21.3906V21.7539C43.2891 21.7695 43.1836 21.793 43.0508 21.8242C42.9258 21.8555 42.793 21.8867 42.6523 21.918C42.5117 21.957 42.3672 21.9961 42.2188 22.0352C42.0781 22.082 41.9531 22.1211 41.8438 22.1523C41.7656 22.1836 41.6914 22.1719 41.6211 22.1172C41.5586 22.0703 41.5273 22.0117 41.5273 21.9414V21.1797Z" fill="#BABABA"/>
<path d="M32.3164 16.1406C32.293 16.3516 32.2773 16.5312 32.2695 16.6797C32.2617 16.8281 32.2578 16.957 32.2578 17.0664C32.4375 16.9414 32.6094 16.8242 32.7734 16.7148C32.9375 16.5977 33.1055 16.4961 33.2773 16.4102C33.4414 16.3242 33.6133 16.2578 33.793 16.2109C33.9727 16.1562 34.1641 16.1289 34.3672 16.1289C34.9062 16.1289 35.2812 16.3047 35.4922 16.6562C35.7031 17.0078 35.8086 17.4336 35.8086 17.9336V20.6758C35.8086 20.9883 35.8594 21.207 35.9609 21.332C36.0703 21.4492 36.3047 21.5078 36.6641 21.5078V21.9297C36.5547 21.9297 36.375 21.9297 36.125 21.9297C35.875 21.9297 35.6094 21.9297 35.3281 21.9297C35.0469 21.9297 34.7812 21.9336 34.5312 21.9414C34.2812 21.9414 34.1055 21.9414 34.0039 21.9414V21.5078C34.3398 21.5078 34.5547 21.4492 34.6484 21.332C34.75 21.207 34.8008 20.9883 34.8008 20.6758V17.9219C34.8008 17.5469 34.7148 17.2812 34.543 17.125C34.3789 16.9688 34.1172 16.8906 33.7578 16.8906C33.6562 16.8984 33.5352 16.9258 33.3945 16.9727C33.2617 17.0195 33.125 17.082 32.9844 17.1602C32.8438 17.2305 32.707 17.3086 32.5742 17.3945C32.4492 17.4805 32.3438 17.5586 32.2578 17.6289V20.6758C32.2578 20.9883 32.3086 21.207 32.4102 21.332C32.5117 21.4492 32.7461 21.5078 33.1133 21.5078V21.9414C32.9961 21.9336 32.8125 21.9297 32.5625 21.9297C32.3125 21.9219 32.0469 21.918 31.7656 21.918C31.4844 21.918 31.2188 21.9219 30.9688 21.9297C30.7188 21.9297 30.543 21.9336 30.4414 21.9414V21.5078C30.7852 21.5078 31.0039 21.4492 31.0977 21.332C31.1992 21.207 31.25 20.9883 31.25 20.6758V17.957C31.25 17.5742 31.2148 17.332 31.1445 17.2305C31.0742 17.1211 30.8828 17.0664 30.5703 17.0664V16.7031C30.8203 16.6641 31.0547 16.6016 31.2734 16.5156C31.4922 16.4297 31.6914 16.3047 31.8711 16.1406H32.3164Z" fill="#BABABA"/>
<path d="M27.8051 19.1641C27.0238 19.3594 26.4613 19.5664 26.1176 19.7852C25.7738 19.9961 25.6019 20.2656 25.6019 20.5938C25.6019 20.9297 25.6761 21.1523 25.8246 21.2617C25.973 21.3711 26.1879 21.4258 26.4691 21.4258C26.7113 21.4258 26.9535 21.3516 27.1957 21.2031C27.4457 21.0469 27.6488 20.8828 27.8051 20.7109V19.1641ZM29.8441 21.4258C29.6722 21.5898 29.4808 21.75 29.2699 21.9062C29.0668 22.0547 28.8402 22.1289 28.5902 22.1289C28.3558 22.1289 28.1683 22.0508 28.0277 21.8945C27.8949 21.7305 27.8246 21.5547 27.8168 21.3672C27.6527 21.5391 27.4027 21.7109 27.0668 21.8828C26.7386 22.0469 26.3636 22.1289 25.9418 22.1289C25.5433 22.1289 25.2152 22.0078 24.9574 21.7656C24.6996 21.5234 24.5785 21.2188 24.5941 20.8516C24.6019 20.5469 24.6918 20.2891 24.8636 20.0781C25.0355 19.8672 25.266 19.6797 25.5551 19.5156C25.8441 19.3516 26.1801 19.207 26.5629 19.082C26.9535 18.957 27.3676 18.8281 27.8051 18.6953V17.9336C27.8051 17.6055 27.7269 17.3438 27.5707 17.1484C27.4222 16.9531 27.1566 16.8555 26.7738 16.8555C26.4926 16.8555 26.2504 16.9375 26.0472 17.1016C25.8441 17.2656 25.7386 17.4766 25.7308 17.7344C25.7308 17.9297 25.6801 18.0781 25.5785 18.1797C25.4847 18.2812 25.3558 18.332 25.1918 18.332C25.0277 18.332 24.9144 18.2891 24.8519 18.2031C24.7894 18.1094 24.7582 17.9922 24.7582 17.8516C24.7582 17.625 24.8558 17.418 25.0511 17.2305C25.2465 17.0352 25.5863 16.8086 26.0707 16.5508C26.3285 16.4102 26.5394 16.3086 26.7035 16.2461C26.8754 16.1758 27.0707 16.1406 27.2894 16.1406C27.7113 16.1406 28.0707 16.2617 28.3676 16.5039C28.6644 16.7383 28.8129 17.0781 28.8129 17.5234V20.6875C28.8129 21.0938 28.8793 21.3164 29.0121 21.3555C29.1527 21.3945 29.4027 21.2891 29.7621 21.0391L29.8441 21.4258Z" fill="#BABABA"/>
<path d="M22.8242 22.0586H22.2852L16.3906 14.7578V20.3242C16.3906 20.5977 16.4023 20.8125 16.4258 20.9688C16.457 21.125 16.5156 21.2422 16.6016 21.3203C16.6797 21.4062 16.793 21.4609 16.9414 21.4844C17.0898 21.5 17.2852 21.5078 17.5273 21.5078V21.9297C17.332 21.9297 17.0938 21.9297 16.8125 21.9297C16.5391 21.9219 16.2539 21.918 15.957 21.918C15.6602 21.918 15.3711 21.9219 15.0898 21.9297C14.8164 21.9297 14.5859 21.9336 14.3984 21.9414V21.5078C14.6562 21.5078 14.8672 21.4961 15.0312 21.4727C15.2031 21.4492 15.3359 21.3984 15.4297 21.3203C15.5312 21.2344 15.6016 21.1172 15.6406 20.9688C15.6797 20.8125 15.6992 20.6016 15.6992 20.3359V14.6875C15.6992 14.2422 15.5859 13.9453 15.3594 13.7969C15.1328 13.6406 14.7422 13.5625 14.1875 13.5625V13.1289C14.2812 13.1445 14.4219 13.1523 14.6094 13.1523C14.7969 13.1523 14.9922 13.1523 15.1953 13.1523C15.3984 13.1523 15.5898 13.1523 15.7695 13.1523C15.9492 13.1445 16.082 13.1367 16.168 13.1289L22.1094 20.3125V14.6758C22.1094 14.4414 22.0938 14.2539 22.0625 14.1133C22.0391 13.9648 21.9844 13.8516 21.8984 13.7734C21.8203 13.6953 21.7031 13.6445 21.5469 13.6211C21.3984 13.5898 21.1992 13.5703 20.9492 13.5625V13.1172C21.0977 13.125 21.3125 13.1328 21.5938 13.1406C21.875 13.1406 22.168 13.1406 22.4727 13.1406C22.7773 13.1406 23.0664 13.1406 23.3398 13.1406C23.6211 13.1328 23.832 13.125 23.9727 13.1172V13.5625C23.707 13.5625 23.4961 13.5742 23.3398 13.5977C23.1914 13.6211 23.0781 13.6719 23 13.75C22.9219 13.8203 22.8711 13.9297 22.8477 14.0781C22.832 14.2266 22.8242 14.4258 22.8242 14.6758V22.0586Z" fill="#BABABA"/>
</svg>
