<svg width="81" height="35" viewBox="0 0 81 35" fill="none" xmlns="http://www.w3.org/2000/svg">
<rect width="81" height="35" rx="17.5" fill="#2D2D2D"/>
<path d="M65.4826 22H60.0616C59.9489 22 59.8926 21.948 59.8926 21.844V21.311C59.8926 21.1463 59.9576 20.999 60.0876 20.869L64.2996 16.475H60.7766V17.476C60.7766 17.58 60.7246 17.632 60.6206 17.632H60.0616C59.9489 17.632 59.8926 17.58 59.8926 17.476V15.76C59.8926 15.656 59.9489 15.604 60.0616 15.604H65.4826C65.5952 15.604 65.6516 15.656 65.6516 15.76V16.215C65.6516 16.371 65.5822 16.5097 65.4436 16.631L61.1796 21.129H64.7546V20.102C64.7546 19.998 64.8109 19.946 64.9236 19.946H65.4826C65.5952 19.946 65.6516 19.998 65.6516 20.102V21.844C65.6516 21.948 65.5952 22 65.4826 22Z" fill="#BABABA"/>
<path d="M58.6825 18.9317H54.0025C54.0371 19.651 54.2625 20.2057 54.6785 20.5957C55.1031 20.9857 55.5798 21.1807 56.1085 21.1807C56.6371 21.1807 57.0878 21.068 57.4605 20.8427C57.8418 20.6174 58.0975 20.3964 58.2275 20.1797C58.2968 20.093 58.3748 20.08 58.4615 20.1407L58.8125 20.4917C58.8645 20.5437 58.8905 20.5914 58.8905 20.6347C58.8905 20.6694 58.8688 20.717 58.8255 20.7777C58.7908 20.8384 58.7128 20.9337 58.5915 21.0637C58.4701 21.1937 58.2968 21.341 58.0715 21.5057C57.8548 21.6704 57.5688 21.809 57.2135 21.9217C56.8668 22.0344 56.4941 22.0907 56.0955 22.0907C55.1855 22.0907 54.4228 21.7917 53.8075 21.1937C53.2008 20.5957 52.8975 19.794 52.8975 18.7887C52.8975 17.7747 53.2008 16.9774 53.8075 16.3967C54.4141 15.8074 55.1551 15.5127 56.0305 15.5127C56.9145 15.5127 57.6078 15.7987 58.1105 16.3707C58.6131 16.934 58.8645 17.6967 58.8645 18.6587C58.8645 18.6934 58.8645 18.728 58.8645 18.7627C58.8645 18.8754 58.8038 18.9317 58.6825 18.9317ZM57.7855 18.1387C57.7595 17.6014 57.5905 17.1724 57.2785 16.8517C56.9665 16.531 56.5505 16.3707 56.0305 16.3707C55.5105 16.3707 55.0641 16.518 54.6915 16.8127C54.3188 17.1074 54.0978 17.5494 54.0285 18.1387H57.7855Z" fill="#BABABA"/>
<path d="M52.082 22H50.847C50.4743 22 50.288 21.818 50.288 21.454V18.035C50.288 17.5323 50.1667 17.1423 49.924 16.865C49.6813 16.5877 49.326 16.449 48.858 16.449C48.5027 16.449 48.2297 16.5053 48.039 16.618C47.857 16.722 47.7183 16.8173 47.623 16.904C47.5277 16.982 47.4497 17.06 47.389 17.138C47.285 17.2767 47.1984 17.4197 47.129 17.567V21.129H47.818C47.9307 21.129 47.987 21.181 47.987 21.285V21.844C47.987 21.948 47.9307 22 47.818 22H45.335C45.2223 22 45.166 21.948 45.166 21.844V21.285C45.166 21.181 45.2223 21.129 45.335 21.129H46.05V13.537H45.335C45.2223 13.537 45.166 13.485 45.166 13.381V12.822C45.166 12.718 45.2223 12.666 45.335 12.666H46.973C47.077 12.666 47.129 12.718 47.129 12.822V15.721C47.129 16.007 47.1117 16.2713 47.077 16.514H47.103C47.5277 15.8467 48.2037 15.513 49.131 15.513C49.8243 15.513 50.366 15.7167 50.756 16.124C51.146 16.5313 51.3453 17.0817 51.354 17.775V21.129H52.082C52.1947 21.129 52.251 21.181 52.251 21.285V21.844C52.251 21.948 52.1947 22 52.082 22Z" fill="#BABABA"/>
<path d="M44.1243 20.4917C44.1763 20.535 44.2023 20.5784 44.2023 20.6217C44.2023 20.6564 44.1806 20.7084 44.1373 20.7777C44.1026 20.8384 44.0203 20.9337 43.8903 21.0637C43.769 21.1937 43.5956 21.341 43.3703 21.5057C43.1536 21.6704 42.8676 21.809 42.5123 21.9217C42.1656 22.0344 41.793 22.0907 41.3943 22.0907C40.4843 22.0907 39.7216 21.7917 39.1063 21.1937C38.4996 20.5957 38.1963 19.794 38.1963 18.7887C38.1963 17.7747 38.4996 16.9774 39.1063 16.3967C39.7216 15.8074 40.4713 15.5127 41.3553 15.5127C42.2393 15.5127 42.9066 15.8334 43.3573 16.4747H43.3703L43.3573 15.7597C43.3573 15.647 43.4136 15.5907 43.5263 15.5907H44.0203C44.1243 15.5907 44.1763 15.647 44.1763 15.7597V17.9697C44.1763 18.0737 44.1243 18.1257 44.0203 18.1257H43.4223C43.3183 18.1257 43.2663 18.0737 43.2663 17.9697V17.7487C43.2576 17.4367 43.08 17.1377 42.7333 16.8517C42.3866 16.5657 41.9446 16.4227 41.4073 16.4227C40.8786 16.4227 40.3933 16.635 39.9513 17.0597C39.5093 17.4844 39.2883 18.065 39.2883 18.8017C39.2883 19.5297 39.505 20.1104 39.9383 20.5437C40.3716 20.9684 40.857 21.1807 41.3943 21.1807C41.9316 21.1807 42.3866 21.068 42.7593 20.8427C43.1406 20.6087 43.3963 20.3834 43.5263 20.1667C43.587 20.0627 43.6606 20.0497 43.7473 20.1277L44.1243 20.4917Z" fill="#BABABA"/>
<path d="M37.3808 21.9997H36.1458C35.7732 21.9997 35.5868 21.8177 35.5868 21.4537V18.0347C35.5868 17.532 35.4655 17.142 35.2228 16.8647C34.9802 16.5874 34.6248 16.4487 34.1568 16.4487C33.4895 16.4487 32.9695 16.7217 32.5968 17.2677C32.5535 17.3197 32.4972 17.415 32.4278 17.5537V21.1287H33.1168C33.2295 21.1287 33.2858 21.1807 33.2858 21.2847V21.8437C33.2858 21.9477 33.2295 21.9997 33.1168 21.9997H30.6338C30.5212 21.9997 30.4648 21.9477 30.4648 21.8437V21.2847C30.4648 21.1807 30.5212 21.1287 30.6338 21.1287H31.3488V16.4747H30.6338C30.5212 16.4747 30.4648 16.4227 30.4648 16.3187V15.7597C30.4648 15.6557 30.5212 15.6037 30.6338 15.6037H32.1548C32.2675 15.6037 32.3238 15.6557 32.3238 15.7597L32.2978 16.6437H32.3368C32.7875 15.8897 33.4852 15.5127 34.4298 15.5127C35.1232 15.5127 35.6648 15.7164 36.0548 16.1237C36.4448 16.531 36.6442 17.0814 36.6528 17.7747V21.1287H37.3808C37.4935 21.1287 37.5498 21.1807 37.5498 21.2847V21.8437C37.5498 21.9477 37.4935 21.9997 37.3808 21.9997Z" fill="#BABABA"/>
<path d="M29.3322 21.9997H28.2012C27.8286 21.9997 27.6422 21.8177 27.6422 21.4537V20.7907H27.6162C26.9836 21.666 26.1386 22.1037 25.0812 22.1037C24.4572 22.1037 23.9459 21.9434 23.5472 21.6227C23.1486 21.2934 22.9492 20.8514 22.9492 20.2967C22.9492 19.586 23.2569 19.066 23.8722 18.7367C24.4962 18.3987 25.3499 18.2297 26.4332 18.2297H27.5252V18.0737C27.5252 16.9904 26.9619 16.4487 25.8352 16.4487C25.3066 16.4487 24.9252 16.5007 24.6912 16.6047C24.4572 16.7 24.2882 16.778 24.1842 16.8387C24.0889 16.8994 24.0152 16.947 23.9632 16.9817C23.8332 17.0857 23.7379 17.0944 23.6772 17.0077L23.3132 16.5527C23.2526 16.4834 23.2612 16.414 23.3392 16.3447C23.4866 16.154 23.7899 15.9677 24.2492 15.7857C24.7086 15.6037 25.2502 15.5127 25.8742 15.5127C27.6942 15.5127 28.6042 16.3794 28.6042 18.1127V21.1287H29.3322C29.4362 21.1287 29.4882 21.1807 29.4882 21.2847V21.8437C29.4882 21.9477 29.4362 21.9997 29.3322 21.9997ZM27.5252 19.0097H26.4982C25.9956 19.0097 25.5796 19.0357 25.2502 19.0877C24.9209 19.1397 24.6392 19.2524 24.4052 19.4257C24.1799 19.599 24.0672 19.8374 24.0672 20.1407C24.0672 20.444 24.1886 20.6954 24.4312 20.8947C24.6826 21.0854 25.0076 21.1807 25.4062 21.1807C26.2469 21.1807 26.9532 20.808 27.5252 20.0627V19.0097Z" fill="#BABABA"/>
<path d="M15.521 21.9999H14.793C14.6804 21.9999 14.624 21.9479 14.624 21.8439V18.8019C14.624 18.6892 14.6804 18.6329 14.793 18.6329H15.612C15.716 18.6329 15.768 18.6892 15.768 18.8019V19.0749C15.768 19.2396 15.8677 19.4606 16.067 19.7379C16.2664 20.0066 16.4657 20.2276 16.665 20.4009C16.8644 20.5742 17.1287 20.7259 17.458 20.8559C17.796 20.9772 18.16 21.0379 18.55 21.0379C19.2174 21.0379 19.7374 20.8992 20.11 20.6219C20.4914 20.3446 20.682 19.9589 20.682 19.4649C20.682 19.1789 20.5737 18.9362 20.357 18.7369C20.149 18.5289 19.876 18.3642 19.538 18.2429C19.2 18.1216 18.823 18.0089 18.407 17.9049C17.9997 17.8009 17.588 17.6839 17.172 17.5539C16.7647 17.4152 16.392 17.2549 16.054 17.0729C15.716 16.8822 15.4387 16.6222 15.222 16.2929C15.014 15.9549 14.91 15.5606 14.91 15.1099C14.91 14.3819 15.183 13.7796 15.729 13.3029C16.2837 12.8262 17.0247 12.5879 17.952 12.5879C19.122 12.5879 19.98 12.9302 20.526 13.6149L20.5 12.8089C20.5 12.7049 20.5564 12.6529 20.669 12.6529H21.397C21.501 12.6529 21.553 12.7049 21.553 12.8089V15.6429C21.553 15.7469 21.501 15.7989 21.397 15.7989H20.578C20.474 15.7989 20.422 15.7469 20.422 15.6429V15.2789C20.422 14.9236 20.2227 14.5639 19.824 14.1999C19.4254 13.8359 18.8404 13.6539 18.069 13.6539C17.497 13.6539 17.0334 13.7926 16.678 14.0699C16.3314 14.3386 16.158 14.6852 16.158 15.1099C16.158 15.4132 16.2664 15.6732 16.483 15.8899C16.6997 16.1066 16.9814 16.2799 17.328 16.4099C17.6747 16.5399 18.056 16.6612 18.472 16.7739C18.888 16.8779 19.304 16.9949 19.72 17.1249C20.136 17.2549 20.5174 17.4109 20.864 17.5929C21.2107 17.7749 21.4924 18.0262 21.709 18.3469C21.9257 18.6589 22.034 19.0316 22.034 19.4649C22.034 20.2276 21.761 20.8559 21.215 21.3499C20.669 21.8439 19.8544 22.0909 18.771 22.0909C17.9737 22.0909 17.315 21.9306 16.795 21.6099C16.275 21.2892 15.898 20.9426 15.664 20.5699L15.677 21.8439C15.677 21.9479 15.625 21.9999 15.521 21.9999Z" fill="#BABABA"/>
</svg>
