<svg width="121" height="35" viewBox="0 0 121 35" fill="none" xmlns="http://www.w3.org/2000/svg">
<rect width="121" height="35" rx="17.5" fill="#444444"/>
<path d="M103.422 18.5779H96.1805C95.2185 18.5779 95.1275 18.1489 95.1275 17.6029V13.2609C95.1275 12.3899 95.6215 12.1299 96.1805 12.1299H103.292C104.163 12.1299 104.28 12.5849 104.28 13.0399C104.28 13.4169 104.163 13.9369 103.292 13.9369H97.2335V16.7709H103.422C104.267 16.7709 104.41 17.2779 104.41 17.6679C104.41 18.1229 104.293 18.5779 103.422 18.5779ZM104.28 22.9979H95.2445C94.2955 22.9979 94.0615 22.5689 94.0615 22.1139C94.0615 21.5809 94.2955 21.2039 95.2445 21.2039H104.28C105.229 21.2039 105.463 21.5809 105.463 22.1139C105.463 22.5689 105.229 22.9979 104.28 22.9979Z" fill="#BABABA"/>
<path d="M89.7563 16.6669H85.0633C83.2303 16.6539 82.4763 15.9909 82.4763 14.7949V14.1579C82.4763 12.8449 83.3863 12.1299 85.1153 12.1299H89.6913C91.4203 12.1299 92.3303 12.8449 92.3303 14.1579V14.7949C92.3303 15.9909 91.5893 16.6539 89.7563 16.6669ZM91.4593 23.2839H83.6593C82.7103 23.2839 82.6063 22.8939 82.6063 22.3739V20.8659C82.6063 19.9949 83.1003 19.7349 83.6593 19.7349C84.2053 19.7349 84.7123 19.9689 84.7123 20.8659V21.6199H91.4593C92.3043 21.6199 92.4473 22.0489 92.4473 22.4389C92.4473 22.9069 92.3043 23.2839 91.4593 23.2839ZM87.5723 20.9829C86.9873 20.9829 86.5193 20.8009 86.5193 19.9559V19.1759H82.6843C81.8133 19.1759 81.6963 18.7989 81.6963 18.3179C81.6963 17.9149 81.8393 17.4859 82.6843 17.4859H92.1353C92.9803 17.4859 93.1233 17.9149 93.1233 18.3179C93.1233 18.7989 93.0063 19.1759 92.1353 19.1759H88.6253V19.9559C88.6253 20.8139 88.1313 20.9829 87.5723 20.9829ZM85.8823 15.0159H88.9243C89.6523 15.0159 90.2503 15.0289 90.2503 14.4699V14.3269C90.2503 13.7679 89.7303 13.7809 88.8853 13.7809H85.9213C85.0763 13.7809 84.5563 13.7679 84.5563 14.3269V14.4699C84.5563 15.0289 85.1543 15.0159 85.8823 15.0159Z" fill="#BABABA"/>
<path d="M74.0625 22.829H70.8645C69.9155 22.829 69.8115 22.439 69.8115 21.919V17.564C69.8115 17.031 69.9155 16.563 70.8645 16.563H72.7495V13.95H71.0075C70.0585 13.95 69.8245 13.521 69.8245 13.066C69.8245 12.533 70.0585 12.156 71.0075 12.156H73.8025C74.7515 12.156 74.8555 12.624 74.8555 13.157V17.33C74.8555 18.058 74.4005 18.357 73.6595 18.357H71.9175V21.035H74.0625C75.0115 21.035 75.2455 21.464 75.2455 21.919C75.2455 22.452 75.0115 22.829 74.0625 22.829ZM78.1835 23.154C77.5985 23.154 77.1305 22.881 77.1305 22.01V13.131C77.1305 12.26 77.6245 12 78.1835 12C78.7295 12 79.2365 12.234 79.2365 13.131V16.355H80.0555C81.0045 16.355 81.2385 16.784 81.2385 17.239C81.2385 17.772 81.0045 18.149 80.0555 18.149H79.2365V22.01C79.2365 22.907 78.7425 23.154 78.1835 23.154Z" fill="#BABABA"/>
<path d="M60.2673 22.92C59.9943 22.933 59.7213 22.816 59.5263 22.465C59.3053 22.088 59.4353 21.672 59.8903 21.152C61.0343 19.813 60.9563 18.786 60.9563 17.317V13.131C60.9563 12.286 61.3853 12 61.9183 12C62.4513 12 62.8803 12.286 62.8803 13.131V18.331C62.8803 19.28 63.0753 20.073 63.9593 20.931C64.4273 21.399 64.7393 21.841 64.4273 22.4C64.2583 22.686 64.0113 22.842 63.7123 22.855C63.5173 22.855 63.3223 22.829 63.1533 22.686C62.5683 22.179 62.3083 21.763 61.9833 21.178C61.6843 21.737 61.4633 22.153 60.9303 22.673C60.7353 22.842 60.5273 22.907 60.2673 22.92ZM57.0043 22.816C56.7443 22.803 56.4583 22.66 56.3023 22.309C56.1073 21.841 56.2763 21.542 56.5753 21.191C56.9263 20.788 57.2123 20.437 57.4723 19.917C57.6933 19.449 57.7713 19.046 57.8103 18.63C57.8493 18.24 57.8233 17.733 57.8233 17.226V13.131C57.8233 12.286 58.2523 12 58.7853 12C59.3183 12 59.7473 12.286 59.7473 13.131V17.421C59.7473 18.448 59.7083 19.085 59.4613 19.904C59.1103 21.022 58.3693 22.127 57.6933 22.647C57.4983 22.803 57.2643 22.855 57.0043 22.816ZM66.6373 23.154C66.0523 23.154 65.5843 22.881 65.5843 22.01V17.967H64.7653C63.8293 17.967 63.6343 17.577 63.6343 17.044C63.6343 16.628 63.7773 16.147 64.7653 16.147H65.5843V13.131C65.5843 12.26 66.0783 12 66.6373 12C67.1833 12 67.6903 12.234 67.6903 13.131V22.01C67.6903 22.907 67.1963 23.154 66.6373 23.154Z" fill="#BABABA"/>
<path d="M55.7822 18.812C56.5622 18.812 56.7052 19.202 56.7052 19.605C56.7052 20.047 56.5362 20.424 55.7822 20.424H55.1582V21.308C55.1582 21.711 54.9502 22.296 54.0272 22.296C53.1042 22.296 52.8962 21.711 52.8962 21.308V20.424H48.9832C48.2292 20.424 48.1382 19.592 48.4242 19.098L51.9862 12.884C52.3112 12.338 52.8702 12.26 53.3772 12.494C54.0012 12.78 54.0922 13.378 53.7672 13.924L50.8942 18.812H52.8962V16.823C52.8962 16.264 53.1952 15.757 54.0272 15.757C54.8462 15.757 55.1582 16.251 55.1582 16.823V18.812H55.7822Z" fill="#BABABA"/>
<path d="M46.7569 20.6708C47.4199 20.6708 47.6669 21.0608 47.6669 21.5028C47.6669 21.8408 47.4719 22.2958 46.7569 22.2958H41.5699C40.8679 22.2958 40.5039 21.7758 40.5039 21.2428C40.5039 21.0478 40.5819 20.8138 40.7379 20.5668C41.2449 19.8778 42.1289 19.0588 42.9739 18.3048C44.2089 17.1998 45.3139 16.1858 45.3139 15.2498C45.3139 14.7038 45.2099 14.0148 44.1959 14.0148C43.4939 14.0148 42.8569 14.3528 42.8569 15.0938C42.8569 15.4838 42.5189 15.8218 41.8429 15.8218C41.2969 15.8218 40.7769 15.5748 40.7769 14.8728C40.7769 13.3518 42.4019 12.3638 44.1309 12.3638C46.2759 12.3638 47.5109 13.4688 47.5109 15.1458C47.5109 16.6538 46.3669 17.7718 44.9629 19.0458C44.4039 19.5528 43.8449 20.0208 43.2729 20.6708H46.7569Z" fill="#BABABA"/>
<path d="M35.406 23.154C34.925 23.154 34.483 22.933 34.483 22.036V18.149H32.91V21.009C33.716 21.074 33.924 21.438 33.924 21.88C33.924 22.413 33.69 22.79 32.741 22.79H28.893C27.944 22.79 27.71 22.413 27.71 21.88C27.71 21.477 27.918 21.074 28.646 21.009V13.937C27.879 13.872 27.71 13.508 27.71 13.04C27.71 12.585 27.944 12.156 28.893 12.156H32.741C33.69 12.156 33.924 12.585 33.924 13.04C33.924 13.521 33.729 13.911 32.91 13.95V16.355H34.483V13.105C34.483 12.234 34.925 12 35.406 12C35.887 12 36.316 12.247 36.316 13.105V22.036C36.316 22.933 35.874 23.154 35.406 23.154ZM30.362 20.996H31.207V13.95H30.362V20.996ZM38.032 23.154C37.551 23.154 37.109 22.933 37.109 22.036V13.105C37.109 12.234 37.551 12 38.032 12C38.513 12 38.942 12.247 38.942 13.105V22.036C38.942 22.933 38.5 23.154 38.032 23.154Z" fill="#BABABA"/>
<path d="M17.996 22.673C17.671 22.322 17.632 21.737 17.983 21.308C18.841 20.242 18.997 19.423 19.036 18.201H16.683C15.734 18.201 15.5 17.824 15.5 17.291C15.5 16.836 15.734 16.407 16.683 16.407H19.036V13.95H16.852C15.903 13.95 15.669 13.573 15.669 13.04C15.669 12.572 15.864 12.156 16.8 12.156H20.193C21.129 12.156 21.194 12.533 21.194 13.144V18.214C21.194 19.202 20.817 21.581 19.686 22.608C19.218 23.05 18.529 23.245 17.996 22.673ZM24.496 23.154C23.911 23.154 23.443 22.881 23.443 22.01V13.131C23.443 12.26 23.937 12 24.496 12C25.042 12 25.549 12.234 25.549 13.131V16.251H26.368C27.356 16.251 27.551 16.745 27.551 17.161C27.551 17.681 27.356 18.097 26.368 18.097H25.549V22.01C25.549 22.907 25.055 23.154 24.496 23.154Z" fill="#BABABA"/>
</svg>
