<svg width="78" height="35" viewBox="0 0 78 35" fill="none" xmlns="http://www.w3.org/2000/svg">
<rect width="78" height="35" rx="17.5" fill="#2D2D2D"/>
<path d="M60.7188 20.2256L58.5098 16.3916L59.1953 15.8584L61.0615 19.2227L62.293 15.5791L63.0039 15.96L60.5156 23.2725L59.8301 22.8408L60.7188 20.2256Z" fill="#BABABA"/>
<path d="M54.5996 21.292L54.168 15.7061L54.9551 15.6045L55.1328 18.0674L57.8496 16.2393L58.2051 16.9502L55.2598 19.083V21.2158L54.5996 21.292Z" fill="#BABABA"/>
<path d="M51.0703 16.5439C50.6048 16.5439 50.2367 16.6878 49.9658 16.9756C49.7035 17.2633 49.5723 17.7246 49.5723 18.3594C49.5723 18.6048 49.6061 18.8503 49.6738 19.0957C49.7415 19.3327 49.8389 19.5485 49.9658 19.7432C50.0928 19.9378 50.2451 20.0986 50.4229 20.2256C50.6006 20.3441 50.7995 20.4033 51.0195 20.4033C51.248 20.4033 51.4554 20.3483 51.6416 20.2383C51.8278 20.1283 51.9844 19.9886 52.1113 19.8193C52.2383 19.6416 52.3356 19.4469 52.4033 19.2354C52.4795 19.0153 52.5176 18.8037 52.5176 18.6006C52.5176 17.8558 52.3822 17.3268 52.1113 17.0137C51.849 16.7005 51.502 16.5439 51.0703 16.5439ZM50.9941 15.6807C51.4173 15.6807 51.777 15.7568 52.0732 15.9092C52.3695 16.0615 52.6107 16.2731 52.7969 16.5439C52.9831 16.8063 53.1185 17.1152 53.2031 17.4707C53.2878 17.8177 53.3301 18.1943 53.3301 18.6006C53.3132 19.0576 53.237 19.4554 53.1016 19.7939C52.9746 20.124 52.8053 20.3991 52.5938 20.6191C52.3822 20.8392 52.141 21 51.8701 21.1016C51.6077 21.2116 51.3327 21.2666 51.0449 21.2666C50.6641 21.2666 50.3298 21.1904 50.042 21.0381C49.7627 20.8857 49.5257 20.6826 49.3311 20.4287C49.1449 20.1663 49.001 19.8701 48.8994 19.54C48.8063 19.2015 48.7598 18.846 48.7598 18.4736C48.7598 18.0758 48.8105 17.7077 48.9121 17.3691C49.0221 17.0221 49.1702 16.7259 49.3564 16.4805C49.5511 16.2266 49.7839 16.0319 50.0547 15.8965C50.334 15.7526 50.6471 15.6807 50.9941 15.6807Z" fill="#BABABA"/>
<path d="M45.2051 20.7334V16.8867H43.9102L43.9863 15.96H45.3828V13.3701H46.2461V16.0107H48.3281V16.9248H46.1572V20.2256L48.0742 19.8701L48.2012 20.7334L45.6621 21.2666L45.2051 20.7334Z" fill="#BABABA"/>
<path d="M43.25 13.3447L42.8945 14.1064C42.8522 14.0557 42.7718 14.0007 42.6533 13.9414C42.5348 13.8737 42.391 13.8145 42.2217 13.7637C42.0609 13.7129 41.8831 13.6706 41.6885 13.6367C41.4938 13.5944 41.3034 13.5732 41.1172 13.5732C40.931 13.5732 40.7533 13.5944 40.584 13.6367C40.4232 13.6706 40.2793 13.7298 40.1523 13.8145C40.0254 13.8991 39.9238 14.0133 39.8477 14.1572C39.7799 14.3011 39.7461 14.4746 39.7461 14.6777C39.7461 14.9486 39.8477 15.2194 40.0508 15.4902C40.2624 15.7526 40.584 15.96 41.0156 16.1123C41.5742 16.3324 42.0101 16.5651 42.3232 16.8105C42.6449 17.056 42.8818 17.3014 43.0342 17.5469C43.195 17.7923 43.2965 18.0335 43.3389 18.2705C43.3812 18.5075 43.4023 18.7275 43.4023 18.9307C43.377 19.6331 43.1527 20.179 42.7295 20.5684C42.3063 20.9577 41.68 21.1523 40.8506 21.1523C40.512 21.1523 40.1396 21.1143 39.7334 21.0381C39.3356 20.9704 38.8997 20.8604 38.4258 20.708L38.7051 19.8193C38.9674 19.9209 39.2933 20.0182 39.6826 20.1113C40.0804 20.196 40.474 20.2383 40.8633 20.2383C41.0918 20.2383 41.3076 20.2171 41.5107 20.1748C41.7139 20.1325 41.8916 20.0648 42.0439 19.9717C42.1963 19.8701 42.3148 19.7389 42.3994 19.5781C42.4925 19.4173 42.5391 19.2184 42.5391 18.9814C42.5306 18.5752 42.4333 18.2493 42.2471 18.0039C42.0693 17.7585 41.8451 17.5553 41.5742 17.3945C41.3034 17.2337 41.0114 17.0898 40.6982 16.9629C40.3851 16.8359 40.0931 16.6836 39.8223 16.5059C39.5599 16.3281 39.3398 16.1038 39.1621 15.833C38.9844 15.5622 38.8955 15.2025 38.8955 14.7539C38.8955 14.39 38.9505 14.0811 39.0605 13.8271C39.1706 13.5732 39.3229 13.3701 39.5176 13.2178C39.7207 13.057 39.9535 12.9427 40.2158 12.875C40.4867 12.7988 40.7786 12.7607 41.0918 12.7607C41.498 12.7607 41.8916 12.8158 42.2725 12.9258C42.6533 13.0273 42.9792 13.167 43.25 13.3447Z" fill="#BABABA"/>
<path d="M31.0879 21.292L30.6562 15.7061L31.4434 15.6045L31.6211 18.0674L34.3379 16.2393L34.6934 16.9502L31.748 19.083V21.2158L31.0879 21.292Z" fill="#BABABA"/>
<path d="M27.5586 16.5439C27.0931 16.5439 26.7249 16.6878 26.4541 16.9756C26.1917 17.2633 26.0605 17.7246 26.0605 18.3594C26.0605 18.6048 26.0944 18.8503 26.1621 19.0957C26.2298 19.3327 26.3271 19.5485 26.4541 19.7432C26.5811 19.9378 26.7334 20.0986 26.9111 20.2256C27.0889 20.3441 27.2878 20.4033 27.5078 20.4033C27.7363 20.4033 27.9437 20.3483 28.1299 20.2383C28.3161 20.1283 28.4727 19.9886 28.5996 19.8193C28.7266 19.6416 28.8239 19.4469 28.8916 19.2354C28.9678 19.0153 29.0059 18.8037 29.0059 18.6006C29.0059 17.8558 28.8704 17.3268 28.5996 17.0137C28.3372 16.7005 27.9902 16.5439 27.5586 16.5439ZM27.4824 15.6807C27.9056 15.6807 28.2653 15.7568 28.5615 15.9092C28.8577 16.0615 29.099 16.2731 29.2852 16.5439C29.4714 16.8063 29.6068 17.1152 29.6914 17.4707C29.776 17.8177 29.8184 18.1943 29.8184 18.6006C29.8014 19.0576 29.7253 19.4554 29.5898 19.7939C29.4629 20.124 29.2936 20.3991 29.082 20.6191C28.8704 20.8392 28.6292 21 28.3584 21.1016C28.096 21.2116 27.821 21.2666 27.5332 21.2666C27.1523 21.2666 26.818 21.1904 26.5303 21.0381C26.251 20.8857 26.014 20.6826 25.8193 20.4287C25.6331 20.1663 25.4893 19.8701 25.3877 19.54C25.2946 19.2015 25.248 18.846 25.248 18.4736C25.248 18.0758 25.2988 17.7077 25.4004 17.3691C25.5104 17.0221 25.6585 16.7259 25.8447 16.4805C26.0394 16.2266 26.2721 16.0319 26.543 15.8965C26.8223 15.7526 27.1354 15.6807 27.4824 15.6807Z" fill="#BABABA"/>
<path d="M22.5312 16.5439C22.0658 16.5439 21.6976 16.6878 21.4268 16.9756C21.1644 17.2633 21.0332 17.7246 21.0332 18.3594C21.0332 18.6048 21.0671 18.8503 21.1348 19.0957C21.2025 19.3327 21.2998 19.5485 21.4268 19.7432C21.5537 19.9378 21.7061 20.0986 21.8838 20.2256C22.0615 20.3441 22.2604 20.4033 22.4805 20.4033C22.709 20.4033 22.9163 20.3483 23.1025 20.2383C23.2887 20.1283 23.4453 19.9886 23.5723 19.8193C23.6992 19.6416 23.7965 19.4469 23.8643 19.2354C23.9404 19.0153 23.9785 18.8037 23.9785 18.6006C23.9785 17.8558 23.8431 17.3268 23.5723 17.0137C23.3099 16.7005 22.9629 16.5439 22.5312 16.5439ZM22.4551 15.6807C22.8783 15.6807 23.238 15.7568 23.5342 15.9092C23.8304 16.0615 24.0716 16.2731 24.2578 16.5439C24.444 16.8063 24.5794 17.1152 24.6641 17.4707C24.7487 17.8177 24.791 18.1943 24.791 18.6006C24.7741 19.0576 24.6979 19.4554 24.5625 19.7939C24.4355 20.124 24.2663 20.3991 24.0547 20.6191C23.8431 20.8392 23.6019 21 23.3311 21.1016C23.0687 21.2116 22.7936 21.2666 22.5059 21.2666C22.125 21.2666 21.7907 21.1904 21.5029 21.0381C21.2236 20.8857 20.9867 20.6826 20.792 20.4287C20.6058 20.1663 20.4619 19.8701 20.3604 19.54C20.2673 19.2015 20.2207 18.846 20.2207 18.4736C20.2207 18.0758 20.2715 17.7077 20.373 17.3691C20.4831 17.0221 20.6312 16.7259 20.8174 16.4805C21.012 16.2266 21.2448 16.0319 21.5156 15.8965C21.7949 15.7526 22.1081 15.6807 22.4551 15.6807Z" fill="#BABABA"/>
<path d="M15.4219 13.8525L15.6758 16.7979C15.9889 16.7979 16.3359 16.7852 16.7168 16.7598C17.1061 16.7259 17.4701 16.654 17.8086 16.5439C18.1471 16.4339 18.4307 16.2731 18.6592 16.0615C18.8962 15.8499 19.0146 15.5579 19.0146 15.1855C19.0146 14.8978 18.9512 14.6608 18.8242 14.4746C18.6973 14.2799 18.528 14.1318 18.3164 14.0303C18.1048 13.9202 17.8636 13.8441 17.5928 13.8018C17.3304 13.7594 17.0553 13.7383 16.7676 13.7383C16.5137 13.7383 16.2682 13.751 16.0312 13.7764C15.7943 13.7933 15.5911 13.8187 15.4219 13.8525ZM15.7012 17.585L16.0059 21.6982L15.1934 21.749L14.584 13.5479L14.9902 13.0654C15.278 13.04 15.5658 13.0189 15.8535 13.002C16.1413 12.985 16.4248 12.9766 16.7041 12.9766C17.1442 12.9766 17.5505 13.0062 17.9229 13.0654C18.3037 13.1247 18.6338 13.2389 18.9131 13.4082C19.1924 13.569 19.4124 13.7975 19.5732 14.0938C19.734 14.3815 19.8145 14.7581 19.8145 15.2236C19.8145 15.7653 19.679 16.1885 19.4082 16.4932C19.1458 16.7979 18.8115 17.0306 18.4053 17.1914C17.999 17.3438 17.5547 17.4453 17.0723 17.4961C16.5898 17.5384 16.1328 17.568 15.7012 17.585Z" fill="#BABABA"/>
</svg>
