<svg width="130" height="35" viewBox="0 0 130 35" fill="none" xmlns="http://www.w3.org/2000/svg">
<rect width="130" height="35" rx="17.5" fill="#444444"/>
<path d="M111.526 14.9951C112.169 14.9951 112.717 15.1348 113.17 15.4141C113.623 15.6891 113.963 16.0742 114.192 16.5693C114.425 17.0602 114.541 17.623 114.541 18.2578C114.541 18.4017 114.509 18.5033 114.446 18.5625C114.387 18.6217 114.285 18.6514 114.141 18.6514H110.066C110.146 18.9899 110.318 19.2502 110.58 19.4321C110.847 19.6099 111.183 19.6987 111.589 19.6987C112.245 19.6987 112.956 19.5824 113.722 19.3496C113.773 19.3327 113.824 19.3242 113.875 19.3242C113.968 19.3242 114.048 19.3665 114.116 19.4512C114.183 19.5358 114.245 19.6797 114.3 19.8828C114.342 20.0394 114.363 20.1727 114.363 20.2827C114.363 20.3927 114.338 20.4795 114.287 20.543C114.241 20.6022 114.162 20.6509 114.052 20.689C113.629 20.8286 113.197 20.9386 112.757 21.019C112.317 21.0994 111.886 21.1396 111.462 21.1396C110.819 21.1396 110.265 21.0085 109.799 20.7461C109.334 20.4837 108.978 20.1219 108.733 19.6606C108.492 19.1951 108.371 18.6641 108.371 18.0674C108.371 17.4749 108.498 16.946 108.752 16.4805C109.006 16.015 109.372 15.651 109.85 15.3887C110.328 15.1263 110.887 14.9951 111.526 14.9951ZM111.526 16.436C110.751 16.436 110.273 16.7619 110.091 17.4136H112.884C112.812 17.1047 112.658 16.8656 112.421 16.6963C112.188 16.5228 111.89 16.436 111.526 16.436Z" fill="#EFFC35"/>
<path d="M105.877 14.9951C106.266 14.9951 106.573 15.1538 106.797 15.4712C107.022 15.7886 107.134 16.271 107.134 16.9185V20.6001C107.134 20.744 107.102 20.8477 107.039 20.9111C106.979 20.9704 106.878 21 106.734 21H105.947C105.803 21 105.699 20.9704 105.636 20.9111C105.576 20.8477 105.547 20.744 105.547 20.6001V17.2803C105.547 17.056 105.519 16.891 105.464 16.7852C105.414 16.6794 105.331 16.6265 105.217 16.6265C105.018 16.6265 104.859 16.7809 104.741 17.0898C104.626 17.3988 104.569 17.8494 104.569 18.4419V20.6001C104.569 20.744 104.538 20.8477 104.474 20.9111C104.415 20.9704 104.313 21 104.169 21H103.382C103.238 21 103.135 20.9704 103.071 20.9111C103.012 20.8477 102.982 20.744 102.982 20.6001V17.2803C102.982 17.056 102.955 16.891 102.9 16.7852C102.849 16.6794 102.767 16.6265 102.652 16.6265C102.453 16.6265 102.295 16.7809 102.176 17.0898C102.062 17.3988 102.005 17.8494 102.005 18.4419V20.6001C102.005 20.744 101.973 20.8477 101.91 20.9111C101.85 20.9704 101.749 21 101.605 21H100.818C100.674 21 100.57 20.9704 100.507 20.9111C100.448 20.8477 100.418 20.744 100.418 20.6001V16.436H100.056C99.9546 16.436 99.8763 16.4191 99.8213 16.3853C99.7663 16.3514 99.7261 16.2879 99.7007 16.1948C99.6711 16.1017 99.6562 15.9663 99.6562 15.7886C99.6562 15.6108 99.6711 15.4754 99.7007 15.3823C99.7261 15.2892 99.7663 15.2257 99.8213 15.1919C99.8763 15.1538 99.9546 15.1348 100.056 15.1348H101.161C101.305 15.1348 101.406 15.1665 101.465 15.23C101.529 15.2892 101.561 15.3908 101.561 15.5347V16.4487C101.759 15.9705 101.992 15.6087 102.259 15.3633C102.53 15.1178 102.826 14.9951 103.147 14.9951C103.774 14.9951 104.178 15.4246 104.36 16.2837C104.555 15.8605 104.781 15.541 105.039 15.3252C105.297 15.1051 105.576 14.9951 105.877 14.9951Z" fill="#EFFC35"/>
<path d="M96.3296 15.1348C96.4735 15.1348 96.575 15.1665 96.6343 15.23C96.6978 15.2892 96.7295 15.3908 96.7295 15.5347V19.6987H98.5132C98.6147 19.6987 98.693 19.7178 98.748 19.7559C98.8031 19.7897 98.8433 19.8532 98.8687 19.9463C98.8983 20.0394 98.9131 20.1748 98.9131 20.3525C98.9131 20.5303 98.8983 20.6657 98.8687 20.7588C98.8433 20.8519 98.8031 20.9154 98.748 20.9492C98.693 20.9831 98.6147 21 98.5132 21H93.4097C93.3081 21 93.2298 20.9831 93.1748 20.9492C93.1198 20.9154 93.0775 20.8519 93.0479 20.7588C93.0225 20.6657 93.0098 20.5303 93.0098 20.3525C93.0098 20.1748 93.0225 20.0394 93.0479 19.9463C93.0775 19.8532 93.1198 19.7897 93.1748 19.7559C93.2298 19.7178 93.3081 19.6987 93.4097 19.6987H95.1426V16.436H93.7905C93.689 16.436 93.6107 16.4191 93.5557 16.3853C93.5007 16.3514 93.4583 16.2879 93.4287 16.1948C93.4033 16.1017 93.3906 15.9663 93.3906 15.7886C93.3906 15.6108 93.4033 15.4754 93.4287 15.3823C93.4583 15.2892 93.5007 15.2257 93.5557 15.1919C93.6107 15.1538 93.689 15.1348 93.7905 15.1348H96.3296ZM95.917 12.3481C96.2174 12.3481 96.4269 12.3799 96.5454 12.4434C96.6681 12.5026 96.7295 12.6042 96.7295 12.748V13.7891C96.7295 13.9329 96.6724 14.0366 96.5581 14.1001C96.4481 14.1593 96.245 14.189 95.9487 14.189C95.6525 14.189 95.443 14.1593 95.3203 14.1001C95.2018 14.0366 95.1426 13.9329 95.1426 13.7891V12.748C95.1426 12.5999 95.1976 12.4963 95.3076 12.437C95.4176 12.3778 95.6208 12.3481 95.917 12.3481Z" fill="#EFFC35"/>
<path d="M90.0391 14.9951C90.3988 14.9951 90.7373 15.1136 91.0547 15.3506C91.2409 15.486 91.334 15.6637 91.334 15.8838C91.334 16.0234 91.2959 16.1885 91.2197 16.3789C91.1436 16.5693 91.0568 16.7132 90.9595 16.8105C90.8664 16.9079 90.7669 16.9565 90.6611 16.9565C90.6019 16.9565 90.5384 16.9396 90.4707 16.9058C90.2337 16.7746 89.9883 16.709 89.7344 16.709C89.4085 16.709 89.1038 16.8127 88.8203 17.02C88.5368 17.2274 88.3083 17.513 88.1348 17.877C87.9655 18.2409 87.8809 18.6471 87.8809 19.0957V19.6987H89.7026C89.8042 19.6987 89.8825 19.7178 89.9375 19.7559C89.9925 19.7897 90.0327 19.8532 90.0581 19.9463C90.0877 20.0394 90.1025 20.1748 90.1025 20.3525C90.1025 20.5303 90.0877 20.6657 90.0581 20.7588C90.0327 20.8519 89.9925 20.9154 89.9375 20.9492C89.8825 20.9831 89.8042 21 89.7026 21H85.3608C85.2593 21 85.181 20.9831 85.126 20.9492C85.071 20.9154 85.0286 20.8519 84.999 20.7588C84.9736 20.6657 84.9609 20.5303 84.9609 20.3525C84.9609 20.1748 84.9736 20.0394 84.999 19.9463C85.0286 19.8532 85.071 19.7897 85.126 19.7559C85.181 19.7178 85.2593 19.6987 85.3608 19.6987H86.2939V16.436H85.5513C85.4497 16.436 85.3714 16.4191 85.3164 16.3853C85.2614 16.3514 85.2191 16.2879 85.1895 16.1948C85.1641 16.1017 85.1514 15.9663 85.1514 15.7886C85.1514 15.6108 85.1641 15.4754 85.1895 15.3823C85.2191 15.2892 85.2614 15.2257 85.3164 15.1919C85.3714 15.1538 85.4497 15.1348 85.5513 15.1348H87.2905C87.4344 15.1348 87.536 15.1665 87.5952 15.23C87.6587 15.2892 87.6904 15.3908 87.6904 15.5347V16.9121C88.0078 16.2985 88.3717 15.8267 88.7822 15.4966C89.1969 15.1623 89.6159 14.9951 90.0391 14.9951Z" fill="#EFFC35"/>
<path d="M80.6123 13.4653C81.5856 13.4653 82.3219 13.6854 82.8213 14.1255C83.3249 14.5614 83.5767 15.1919 83.5767 16.0171C83.5767 16.8423 83.3249 17.4749 82.8213 17.915C82.3219 18.3551 81.5856 18.5752 80.6123 18.5752H79.6602V19.6987H81.0376C81.1392 19.6987 81.2174 19.7178 81.2725 19.7559C81.3275 19.7897 81.3677 19.8532 81.3931 19.9463C81.4227 20.0394 81.4375 20.1748 81.4375 20.3525C81.4375 20.5303 81.4227 20.6657 81.3931 20.7588C81.3677 20.8519 81.3275 20.9154 81.2725 20.9492C81.2174 20.9831 81.1392 21 81.0376 21H77.1401C77.0386 21 76.9603 20.9831 76.9053 20.9492C76.8503 20.9154 76.8079 20.8519 76.7783 20.7588C76.7529 20.6657 76.7402 20.5303 76.7402 20.3525C76.7402 20.1748 76.7529 20.0394 76.7783 19.9463C76.8079 19.8532 76.8503 19.7897 76.9053 19.7559C76.9603 19.7178 77.0386 19.6987 77.1401 19.6987H78.0732V14.7666H77.1401C77.0386 14.7666 76.9603 14.7497 76.9053 14.7158C76.8503 14.682 76.8079 14.6185 76.7783 14.5254C76.7529 14.4323 76.7402 14.2969 76.7402 14.1191C76.7402 13.9414 76.7529 13.806 76.7783 13.7129C76.8079 13.6198 76.8503 13.5563 76.9053 13.5225C76.9603 13.4844 77.0386 13.4653 77.1401 13.4653H80.6123ZM79.6602 17.2104H80.4155C80.9191 17.2104 81.2979 17.1131 81.5518 16.9185C81.8099 16.7238 81.939 16.4233 81.939 16.0171C81.939 15.6108 81.8099 15.3125 81.5518 15.1221C81.2979 14.9274 80.9191 14.8301 80.4155 14.8301H79.6602V17.2104Z" fill="#EFFC35"/>
<path d="M66.6543 14.9951C67.014 14.9951 67.3525 15.1136 67.6699 15.3506C67.8561 15.486 67.9492 15.6637 67.9492 15.8838C67.9492 16.0234 67.9111 16.1885 67.835 16.3789C67.7588 16.5693 67.672 16.7132 67.5747 16.8105C67.4816 16.9079 67.3822 16.9565 67.2764 16.9565C67.2171 16.9565 67.1536 16.9396 67.0859 16.9058C66.849 16.7746 66.6035 16.709 66.3496 16.709C66.0238 16.709 65.7191 16.8127 65.4355 17.02C65.152 17.2274 64.9235 17.513 64.75 17.877C64.5807 18.2409 64.4961 18.6471 64.4961 19.0957V19.6987H66.3179C66.4194 19.6987 66.4977 19.7178 66.5527 19.7559C66.6077 19.7897 66.6479 19.8532 66.6733 19.9463C66.703 20.0394 66.7178 20.1748 66.7178 20.3525C66.7178 20.5303 66.703 20.6657 66.6733 20.7588C66.6479 20.8519 66.6077 20.9154 66.5527 20.9492C66.4977 20.9831 66.4194 21 66.3179 21H61.9761C61.8745 21 61.7962 20.9831 61.7412 20.9492C61.6862 20.9154 61.6439 20.8519 61.6143 20.7588C61.5889 20.6657 61.5762 20.5303 61.5762 20.3525C61.5762 20.1748 61.5889 20.0394 61.6143 19.9463C61.6439 19.8532 61.6862 19.7897 61.7412 19.7559C61.7962 19.7178 61.8745 19.6987 61.9761 19.6987H62.9092V16.436H62.1665C62.0649 16.436 61.9867 16.4191 61.9316 16.3853C61.8766 16.3514 61.8343 16.2879 61.8047 16.1948C61.7793 16.1017 61.7666 15.9663 61.7666 15.7886C61.7666 15.6108 61.7793 15.4754 61.8047 15.3823C61.8343 15.2892 61.8766 15.2257 61.9316 15.1919C61.9867 15.1538 62.0649 15.1348 62.1665 15.1348H63.9058C64.0496 15.1348 64.1512 15.1665 64.2104 15.23C64.2739 15.2892 64.3057 15.3908 64.3057 15.5347V16.9121C64.623 16.2985 64.987 15.8267 65.3975 15.4966C65.8122 15.1623 66.2311 14.9951 66.6543 14.9951Z" fill="#EFFC35"/>
<path d="M56.9614 14.9951C57.6047 14.9951 58.1527 15.1348 58.6055 15.4141C59.0583 15.6891 59.3989 16.0742 59.6274 16.5693C59.8602 17.0602 59.9766 17.623 59.9766 18.2578C59.9766 18.4017 59.9448 18.5033 59.8813 18.5625C59.8221 18.6217 59.7205 18.6514 59.5767 18.6514H55.5015C55.5819 18.9899 55.7533 19.2502 56.0156 19.4321C56.2822 19.6099 56.6187 19.6987 57.0249 19.6987C57.6808 19.6987 58.3918 19.5824 59.1577 19.3496C59.2085 19.3327 59.2593 19.3242 59.3101 19.3242C59.4032 19.3242 59.4836 19.3665 59.5513 19.4512C59.619 19.5358 59.6803 19.6797 59.7354 19.8828C59.7777 20.0394 59.7988 20.1727 59.7988 20.2827C59.7988 20.3927 59.7734 20.4795 59.7227 20.543C59.6761 20.6022 59.5978 20.6509 59.4878 20.689C59.0646 20.8286 58.633 20.9386 58.1929 21.019C57.7528 21.0994 57.3211 21.1396 56.8979 21.1396C56.2547 21.1396 55.7004 21.0085 55.2349 20.7461C54.7694 20.4837 54.4139 20.1219 54.1685 19.6606C53.9272 19.1951 53.8066 18.6641 53.8066 18.0674C53.8066 17.4749 53.9336 16.946 54.1875 16.4805C54.4414 16.015 54.8075 15.651 55.2856 15.3887C55.7638 15.1263 56.3224 14.9951 56.9614 14.9951ZM56.9614 16.436C56.187 16.436 55.7088 16.7619 55.5269 17.4136H58.3198C58.2479 17.1047 58.0934 16.8656 57.8564 16.6963C57.6237 16.5228 57.3254 16.436 56.9614 16.436Z" fill="#EFFC35"/>
<path d="M49.5601 15.1348C49.7039 15.1348 49.8055 15.1665 49.8647 15.23C49.9282 15.2892 49.96 15.3908 49.96 15.5347V19.6987H51.7437C51.8452 19.6987 51.9235 19.7178 51.9785 19.7559C52.0335 19.7897 52.0737 19.8532 52.0991 19.9463C52.1287 20.0394 52.1436 20.1748 52.1436 20.3525C52.1436 20.5303 52.1287 20.6657 52.0991 20.7588C52.0737 20.8519 52.0335 20.9154 51.9785 20.9492C51.9235 20.9831 51.8452 21 51.7437 21H46.6401C46.5386 21 46.4603 20.9831 46.4053 20.9492C46.3503 20.9154 46.3079 20.8519 46.2783 20.7588C46.2529 20.6657 46.2402 20.5303 46.2402 20.3525C46.2402 20.1748 46.2529 20.0394 46.2783 19.9463C46.3079 19.8532 46.3503 19.7897 46.4053 19.7559C46.4603 19.7178 46.5386 19.6987 46.6401 19.6987H48.373V16.436H47.021C46.9194 16.436 46.8411 16.4191 46.7861 16.3853C46.7311 16.3514 46.6888 16.2879 46.6592 16.1948C46.6338 16.1017 46.6211 15.9663 46.6211 15.7886C46.6211 15.6108 46.6338 15.4754 46.6592 15.3823C46.6888 15.2892 46.7311 15.2257 46.7861 15.1919C46.8411 15.1538 46.9194 15.1348 47.021 15.1348H49.5601ZM49.1475 12.3481C49.4479 12.3481 49.6574 12.3799 49.7759 12.4434C49.8986 12.5026 49.96 12.6042 49.96 12.748V13.7891C49.96 13.9329 49.9028 14.0366 49.7886 14.1001C49.6785 14.1593 49.4754 14.189 49.1792 14.189C48.883 14.189 48.6735 14.1593 48.5508 14.1001C48.4323 14.0366 48.373 13.9329 48.373 13.7891V12.748C48.373 12.5999 48.4281 12.4963 48.5381 12.437C48.6481 12.3778 48.8512 12.3481 49.1475 12.3481Z" fill="#EFFC35"/>
<path d="M43.2695 14.9951C43.6292 14.9951 43.9678 15.1136 44.2852 15.3506C44.4714 15.486 44.5645 15.6637 44.5645 15.8838C44.5645 16.0234 44.5264 16.1885 44.4502 16.3789C44.374 16.5693 44.2873 16.7132 44.1899 16.8105C44.0968 16.9079 43.9974 16.9565 43.8916 16.9565C43.8324 16.9565 43.7689 16.9396 43.7012 16.9058C43.4642 16.7746 43.2188 16.709 42.9648 16.709C42.639 16.709 42.3343 16.8127 42.0508 17.02C41.7673 17.2274 41.5387 17.513 41.3652 17.877C41.196 18.2409 41.1113 18.6471 41.1113 19.0957V19.6987H42.9331C43.0347 19.6987 43.113 19.7178 43.168 19.7559C43.223 19.7897 43.2632 19.8532 43.2886 19.9463C43.3182 20.0394 43.333 20.1748 43.333 20.3525C43.333 20.5303 43.3182 20.6657 43.2886 20.7588C43.2632 20.8519 43.223 20.9154 43.168 20.9492C43.113 20.9831 43.0347 21 42.9331 21H38.5913C38.4897 21 38.4115 20.9831 38.3564 20.9492C38.3014 20.9154 38.2591 20.8519 38.2295 20.7588C38.2041 20.6657 38.1914 20.5303 38.1914 20.3525C38.1914 20.1748 38.2041 20.0394 38.2295 19.9463C38.2591 19.8532 38.3014 19.7897 38.3564 19.7559C38.4115 19.7178 38.4897 19.6987 38.5913 19.6987H39.5244V16.436H38.7817C38.6802 16.436 38.6019 16.4191 38.5469 16.3853C38.4919 16.3514 38.4495 16.2879 38.4199 16.1948C38.3945 16.1017 38.3818 15.9663 38.3818 15.7886C38.3818 15.6108 38.3945 15.4754 38.4199 15.3823C38.4495 15.2892 38.4919 15.2257 38.5469 15.1919C38.6019 15.1538 38.6802 15.1348 38.7817 15.1348H40.521C40.6649 15.1348 40.7664 15.1665 40.8257 15.23C40.8892 15.2892 40.9209 15.3908 40.9209 15.5347V16.9121C41.2383 16.2985 41.6022 15.8267 42.0127 15.4966C42.4274 15.1623 42.8464 14.9951 43.2695 14.9951Z" fill="#EFFC35"/>
<path d="M35.7417 15.1348C35.8856 15.1348 35.9871 15.1665 36.0464 15.23C36.1099 15.2892 36.1416 15.3908 36.1416 15.5347V19.6987H36.6304C36.7319 19.6987 36.8102 19.7157 36.8652 19.7495C36.9202 19.7834 36.9604 19.8468 36.9858 19.9399C37.0155 20.033 37.0303 20.1685 37.0303 20.3462C37.0303 20.5239 37.0155 20.6593 36.9858 20.7524C36.9604 20.8455 36.9202 20.9111 36.8652 20.9492C36.8102 20.9831 36.7319 21 36.6304 21H35.2085C35.0646 21 34.9609 20.9704 34.8975 20.9111C34.8382 20.8477 34.8086 20.744 34.8086 20.6001V19.6797C34.25 20.653 33.5518 21.1396 32.7139 21.1396C32.3288 21.1396 31.9902 21.055 31.6982 20.8857C31.4105 20.7165 31.1883 20.4774 31.0317 20.1685C30.8752 19.8553 30.7969 19.4893 30.7969 19.0703V16.436H30.3081C30.2065 16.436 30.1283 16.4191 30.0732 16.3853C30.0182 16.3472 29.9759 16.2816 29.9463 16.1885C29.9209 16.0954 29.9082 15.96 29.9082 15.7822C29.9082 15.6045 29.9209 15.4691 29.9463 15.376C29.9759 15.2829 30.0182 15.2194 30.0732 15.1855C30.1283 15.1517 30.2065 15.1348 30.3081 15.1348H31.9839C32.1278 15.1348 32.2293 15.1665 32.2886 15.23C32.3521 15.2892 32.3838 15.3908 32.3838 15.5347V18.6958C32.3838 19.0259 32.4409 19.2756 32.5552 19.4448C32.6694 19.6141 32.8599 19.6987 33.1265 19.6987C33.3719 19.6987 33.6047 19.5972 33.8247 19.394C34.0448 19.1867 34.2204 18.9116 34.3516 18.5688C34.487 18.2261 34.5547 17.86 34.5547 17.4707V16.436H33.8755C33.7739 16.436 33.6956 16.4191 33.6406 16.3853C33.5856 16.3472 33.5433 16.2816 33.5137 16.1885C33.4883 16.0954 33.4756 15.96 33.4756 15.7822C33.4756 15.6045 33.4883 15.4691 33.5137 15.376C33.5433 15.2829 33.5856 15.2194 33.6406 15.1855C33.6956 15.1517 33.7739 15.1348 33.8755 15.1348H35.7417Z" fill="#EFFC35"/>
<path d="M25.6929 14.9951C26.3361 14.9951 26.8989 15.1263 27.3813 15.3887C27.8638 15.651 28.234 16.015 28.4922 16.4805C28.7546 16.946 28.8857 17.4749 28.8857 18.0674C28.8857 18.6598 28.7546 19.1888 28.4922 19.6543C28.234 20.1198 27.8638 20.4837 27.3813 20.7461C26.8989 21.0085 26.3361 21.1396 25.6929 21.1396C25.0496 21.1396 24.4868 21.0085 24.0044 20.7461C23.522 20.4837 23.1496 20.1198 22.8872 19.6543C22.6291 19.1888 22.5 18.6598 22.5 18.0674C22.5 17.4749 22.6291 16.946 22.8872 16.4805C23.1496 16.015 23.522 15.651 24.0044 15.3887C24.4868 15.1263 25.0496 14.9951 25.6929 14.9951ZM25.6929 16.436C25.3882 16.436 25.1237 16.5037 24.8994 16.6392C24.6751 16.7703 24.5016 16.9587 24.3789 17.2041C24.2604 17.4495 24.2012 17.7373 24.2012 18.0674C24.2012 18.3975 24.2604 18.6852 24.3789 18.9307C24.5016 19.1761 24.6751 19.3665 24.8994 19.502C25.1237 19.6331 25.3882 19.6987 25.6929 19.6987C25.9976 19.6987 26.262 19.6331 26.4863 19.502C26.7106 19.3665 26.882 19.1761 27.0005 18.9307C27.1232 18.6852 27.1846 18.3975 27.1846 18.0674C27.1846 17.7373 27.1232 17.4495 27.0005 17.2041C26.882 16.9587 26.7106 16.7703 26.4863 16.6392C26.262 16.5037 25.9976 16.436 25.6929 16.436Z" fill="#EFFC35"/>
<path d="M20.3862 13.3257C20.6486 13.3257 20.8285 13.3553 20.9258 13.4146C21.0231 13.4738 21.0718 13.5775 21.0718 13.7256V16.1631C21.0718 16.307 21.0062 16.4106 20.875 16.4741C20.748 16.5334 20.5343 16.563 20.2339 16.563C20.035 16.563 19.8805 16.5503 19.7705 16.5249C19.6647 16.4953 19.5907 16.453 19.5483 16.3979C19.506 16.3429 19.4849 16.2646 19.4849 16.1631C19.4849 15.7399 19.3685 15.4014 19.1357 15.1475C18.9072 14.8936 18.5793 14.7666 18.1519 14.7666C17.5636 14.7666 17.1172 14.9782 16.8125 15.4014C16.5078 15.8245 16.3555 16.4339 16.3555 17.2295C16.3555 18.0166 16.5163 18.626 16.8379 19.0576C17.1637 19.485 17.6229 19.6987 18.2153 19.6987C18.5835 19.6987 18.9368 19.6501 19.2754 19.5527C19.6139 19.4512 19.9821 19.2988 20.3799 19.0957C20.4476 19.0618 20.5111 19.0449 20.5703 19.0449C20.7692 19.0449 20.9342 19.2205 21.0654 19.5718C21.1247 19.7326 21.1543 19.8765 21.1543 20.0034C21.1543 20.2192 21.057 20.3737 20.8623 20.4668C19.9567 20.9154 19.0532 21.1396 18.1519 21.1396C17.4578 21.1396 16.8464 20.981 16.3174 20.6636C15.7884 20.3462 15.3779 19.8934 15.0859 19.3052C14.7982 18.7127 14.6543 18.0208 14.6543 17.2295C14.6543 16.4424 14.7961 15.7547 15.0796 15.1665C15.3631 14.5741 15.7546 14.1191 16.2539 13.8018C16.7575 13.4844 17.3267 13.3257 17.9614 13.3257C18.702 13.3257 19.2521 13.5923 19.6118 14.1255V13.7256C19.6118 13.5817 19.6732 13.4801 19.7959 13.4209C19.9186 13.3574 20.1154 13.3257 20.3862 13.3257Z" fill="#EFFC35"/>
</svg>
