<svg width="63" height="35" viewBox="0 0 63 35" fill="none" xmlns="http://www.w3.org/2000/svg">
<rect width="63" height="35" rx="17.5" fill="#444444"/>
<path d="M46.7007 21.9701C46.5607 21.9301 46.4457 21.8851 46.3557 21.8351C46.2657 21.7751 46.1457 21.6801 45.9957 21.5501C45.8757 21.3901 45.7807 21.2401 45.7107 21.1001C45.6507 20.9601 45.6107 20.8001 45.5907 20.6201C45.5707 20.4301 45.5607 20.1901 45.5607 19.9001C45.5607 19.7801 45.5807 19.6001 45.6207 19.3601C45.6707 19.1201 45.7257 18.8701 45.7857 18.6101C45.8557 18.3401 45.9157 18.1001 45.9657 17.8901C46.0257 17.6801 46.0607 17.5451 46.0707 17.4851C46.1007 17.3551 46.0507 17.2801 45.9207 17.2601C45.7907 17.2401 45.6457 17.2351 45.4857 17.2451C45.3357 17.2451 45.2357 17.2301 45.1857 17.2001C45.1457 17.1901 45.1257 17.1751 45.1257 17.1551C45.1257 17.1251 45.1257 17.1101 45.1257 17.1101C45.1257 17.0701 45.1207 17.0451 45.1107 17.0351C45.1107 17.0151 45.0957 16.9801 45.0657 16.9301C45.0457 16.8901 45.0557 16.8351 45.0957 16.7651C45.1457 16.6851 45.2257 16.6351 45.3357 16.6151C45.4257 16.5951 45.5457 16.5801 45.6957 16.5701C45.8557 16.5501 46.0157 16.5151 46.1757 16.4651C46.3357 16.4051 46.4657 16.3151 46.5657 16.1951C46.6557 15.9751 46.7607 15.7301 46.8807 15.4601C47.0007 15.1901 47.1157 14.9501 47.2257 14.7401C47.3457 14.5201 47.4257 14.3851 47.4657 14.3351C47.6357 14.2451 47.7607 14.2101 47.8407 14.2301C47.9207 14.2401 48.0107 14.3251 48.1107 14.4851C48.1607 14.5551 48.1957 14.6101 48.2157 14.6501C48.2457 14.6901 48.2507 14.7501 48.2307 14.8301C48.2107 14.9101 48.1557 15.0351 48.0657 15.2051C47.9857 15.3751 47.8607 15.6201 47.6907 15.9401C47.6407 16.0401 47.5957 16.1301 47.5557 16.2101C47.5157 16.2801 47.4957 16.3151 47.4957 16.3151C47.5357 16.3251 47.5957 16.3301 47.6757 16.3301C47.7557 16.3301 47.8557 16.3251 47.9757 16.3151C48.0857 16.2951 48.2257 16.2801 48.3957 16.2701C48.5657 16.2501 48.7007 16.2501 48.8007 16.2701C49.0307 16.2701 49.2007 16.3151 49.3107 16.4051C49.4207 16.4851 49.4807 16.6251 49.4907 16.8251C49.5107 16.9351 49.4857 17.0001 49.4157 17.0201C49.3557 17.0401 49.1907 17.0501 48.9207 17.0501C48.8307 17.0501 48.6907 17.0551 48.5007 17.0651C48.3107 17.0751 48.1107 17.0851 47.9007 17.0951C47.7007 17.1051 47.5257 17.1201 47.3757 17.1401C47.2357 17.1501 47.1657 17.1651 47.1657 17.1851C47.1357 17.2051 47.0857 17.3001 47.0157 17.4701C46.9557 17.6401 46.8907 17.8351 46.8207 18.0551C46.7607 18.2651 46.7057 18.4551 46.6557 18.6251C46.5857 18.9651 46.5307 19.3051 46.4907 19.6451C46.4607 19.9851 46.4557 20.2801 46.4757 20.5301C46.4957 20.7801 46.5507 20.9551 46.6407 21.0551C46.7307 21.1451 46.9057 21.1651 47.1657 21.1151C47.4257 21.0551 47.6357 20.9601 47.7957 20.8301C47.9757 20.6801 48.1207 20.6051 48.2307 20.6051C48.3507 20.6051 48.4157 20.6601 48.4257 20.7701C48.4457 20.8701 48.3907 21.0151 48.2607 21.2051C48.1407 21.3851 47.9907 21.5451 47.8107 21.6851C47.6307 21.8151 47.4407 21.9101 47.2407 21.9701C47.0507 22.0201 46.8707 22.0201 46.7007 21.9701Z" fill="#BABABA"/>
<path d="M39.6035 21.505C39.4835 21.525 39.3535 21.505 39.2135 21.445C39.0735 21.385 38.9485 21.3 38.8385 21.19C38.7385 21.08 38.6735 20.965 38.6435 20.845C38.6035 20.635 38.6285 20.375 38.7185 20.065C38.8185 19.745 38.9585 19.41 39.1385 19.06C39.3285 18.7 39.5385 18.355 39.7685 18.025C40.0085 17.695 40.2535 17.41 40.5035 17.17C40.7635 16.92 41.0035 16.75 41.2235 16.66C41.3335 16.59 41.4185 16.545 41.4785 16.525C41.5485 16.495 41.6185 16.49 41.6885 16.51C41.7685 16.53 41.8835 16.58 42.0335 16.66C42.1735 16.7 42.2785 16.745 42.3485 16.795C42.4185 16.845 42.5085 16.945 42.6185 17.095C42.6985 17.245 42.7585 17.395 42.7985 17.545C42.8385 17.695 42.8735 17.865 42.9035 18.055C42.9835 18.305 43.0135 18.47 42.9935 18.55C42.9735 18.62 42.9435 18.675 42.9035 18.715C42.8235 18.815 42.8035 18.865 42.8435 18.865C42.8435 18.865 42.8385 18.885 42.8285 18.925C42.8285 18.955 42.8085 19.005 42.7685 19.075C42.6985 19.295 42.6435 19.525 42.6035 19.765C42.5735 19.995 42.5785 20.185 42.6185 20.335C42.6985 20.555 42.8435 20.685 43.0535 20.725C43.2635 20.765 43.4785 20.675 43.6985 20.455C43.8085 20.375 43.9135 20.305 44.0135 20.245C44.1135 20.175 44.1635 20.18 44.1635 20.26C44.1635 20.26 44.1785 20.275 44.2085 20.305C44.2385 20.325 44.2735 20.335 44.3135 20.335C44.3635 20.335 44.3935 20.355 44.4035 20.395C44.4235 20.435 44.4235 20.49 44.4035 20.56C44.3935 20.62 44.3635 20.69 44.3135 20.77C44.1635 20.92 44.0885 21.02 44.0885 21.07C44.0885 21.07 44.0685 21.09 44.0285 21.13C43.9985 21.16 43.9435 21.21 43.8635 21.28C43.6835 21.39 43.4535 21.445 43.1735 21.445C42.9035 21.445 42.6935 21.39 42.5435 21.28C42.3935 21.17 42.2535 21.02 42.1235 20.83C42.0035 20.64 41.9235 20.475 41.8835 20.335L41.8085 20.185L41.3735 20.47C41.2635 20.58 41.1435 20.685 41.0135 20.785C40.8935 20.885 40.8135 20.955 40.7735 20.995C40.7435 21.035 40.7085 21.07 40.6685 21.1C40.6385 21.13 40.6035 21.145 40.5635 21.145C40.5235 21.145 40.4885 21.145 40.4585 21.145C40.4285 21.145 40.4135 21.145 40.4135 21.145C40.4135 21.185 40.3635 21.235 40.2635 21.295C40.1735 21.355 40.0635 21.405 39.9335 21.445C39.8135 21.485 39.7035 21.505 39.6035 21.505ZM39.4535 20.695C39.5135 20.695 39.6185 20.65 39.7685 20.56C39.9285 20.46 40.1035 20.345 40.2935 20.215C40.4935 20.085 40.6685 19.955 40.8185 19.825C40.9785 19.695 41.0885 19.595 41.1485 19.525C41.1885 19.485 41.2535 19.42 41.3435 19.33C41.4335 19.23 41.5135 19.145 41.5835 19.075C41.8135 18.815 41.9735 18.53 42.0635 18.22C42.1535 17.9 42.1435 17.65 42.0335 17.47C41.9935 17.36 41.9435 17.3 41.8835 17.29C41.8235 17.28 41.6985 17.315 41.5085 17.395C41.3885 17.465 41.2385 17.6 41.0585 17.8C40.8885 17.99 40.7035 18.215 40.5035 18.475C40.3135 18.725 40.1335 18.985 39.9635 19.255C39.7935 19.525 39.6535 19.775 39.5435 20.005C39.4335 20.235 39.3785 20.415 39.3785 20.545C39.3785 20.585 39.3885 20.62 39.4085 20.65C39.4385 20.68 39.4535 20.695 39.4535 20.695Z" fill="#BABABA"/>
<path d="M35.2355 22.0448C34.7955 22.0448 34.4355 21.8798 34.1555 21.5498C33.8755 21.2098 33.7405 20.7898 33.7505 20.2898C33.7705 19.9298 33.8405 19.5448 33.9605 19.1348C34.0905 18.7148 34.2605 18.3148 34.4705 17.9348C34.6805 17.5448 34.9105 17.2048 35.1605 16.9148C35.4105 16.6248 35.6705 16.4198 35.9405 16.2998C36.0405 16.2498 36.1455 16.2098 36.2555 16.1798C36.3755 16.1498 36.4955 16.1348 36.6155 16.1348C36.7255 16.1348 36.8405 16.1548 36.9605 16.1948C37.0805 16.2248 37.1805 16.2598 37.2605 16.2998C37.4305 16.3698 37.5605 16.4548 37.6505 16.5548C37.7405 16.6548 37.8205 16.8098 37.8905 17.0198C37.9205 17.2098 37.9355 17.3448 37.9355 17.4248C37.9355 17.5048 37.9105 17.6248 37.8605 17.7848C37.7405 18.1448 37.5855 18.4548 37.3955 18.7148C37.2055 18.9748 36.9505 19.1948 36.6305 19.3748C36.5505 19.4248 36.4555 19.4648 36.3455 19.4948C36.2455 19.5148 36.1405 19.5248 36.0305 19.5248C35.8305 19.5248 35.6355 19.4898 35.4455 19.4198C35.2655 19.3398 35.1205 19.2248 35.0105 19.0748L34.9055 18.9548L34.8605 19.0748C34.7605 19.3448 34.6805 19.5948 34.6205 19.8248C34.5705 20.0548 34.5455 20.2648 34.5455 20.4548C34.5455 20.5748 34.5555 20.6898 34.5755 20.7998C34.6055 20.9098 34.6455 21.0048 34.6955 21.0848C34.7355 21.1448 34.8005 21.1898 34.8905 21.2198C34.9905 21.2398 35.0955 21.2498 35.2055 21.2498C35.2755 21.2498 35.3455 21.2498 35.4155 21.2498C35.4955 21.2398 35.5705 21.2198 35.6405 21.1898C35.8105 21.1298 35.9455 21.0648 36.0455 20.9948C36.1555 20.9248 36.2655 20.8498 36.3755 20.7698L36.4355 20.7398H36.4205C36.5405 20.6798 36.6455 20.6198 36.7355 20.5598C36.8355 20.4998 36.8855 20.4698 36.8855 20.4698C36.9255 20.4698 36.9655 20.4448 37.0055 20.3948C37.0855 20.3548 37.1855 20.3698 37.3055 20.4398C37.4355 20.5098 37.5005 20.5998 37.5005 20.7098C37.4905 20.7598 37.4455 20.8398 37.3655 20.9498C37.2855 21.0498 37.1955 21.1448 37.0955 21.2348C37.0055 21.3248 36.9305 21.3748 36.8705 21.3848C36.8605 21.3948 36.8255 21.4148 36.7655 21.4448C36.7055 21.4648 36.6655 21.4848 36.6455 21.5048H36.6605C36.5705 21.6248 36.4805 21.6848 36.3905 21.6848H36.2705C36.2305 21.7548 36.1005 21.8348 35.8805 21.9248C35.6605 22.0048 35.4455 22.0448 35.2355 22.0448ZM35.9105 18.7448C36.0905 18.7448 36.2455 18.6948 36.3755 18.5948C36.5155 18.4848 36.6355 18.3648 36.7355 18.2348C36.9355 17.9648 37.0505 17.7048 37.0805 17.4548C37.1205 17.1948 37.0905 17.0148 36.9905 16.9148C36.9305 16.8848 36.8755 16.8698 36.8255 16.8698C36.7855 16.8598 36.7005 16.8748 36.5705 16.9148C36.4805 16.9348 36.3555 17.0098 36.1955 17.1398C36.0355 17.2698 35.8755 17.4148 35.7155 17.5748C35.5655 17.7348 35.4505 17.8698 35.3705 17.9798L35.1755 18.2948C35.2555 18.2648 35.3305 18.2498 35.4005 18.2498C35.4805 18.2398 35.5255 18.2448 35.5355 18.2648C35.5355 18.3548 35.5505 18.4398 35.5805 18.5198C35.6205 18.5898 35.6655 18.6448 35.7155 18.6848C35.7755 18.7248 35.8405 18.7448 35.9105 18.7448Z" fill="#BABABA"/>
<path d="M30.0749 21.0847C30.0049 21.0247 29.9149 20.8447 29.8049 20.5447C29.7049 20.2447 29.6049 19.8947 29.5049 19.4947C29.4149 19.0847 29.3399 18.7097 29.2799 18.3697C29.2399 18.1697 29.1949 17.9997 29.1449 17.8597C29.1049 17.7197 29.0699 17.6047 29.0399 17.5147C28.9899 17.3347 28.9749 17.1847 28.9949 17.0647C29.0149 16.9447 29.0849 16.8497 29.2049 16.7797C29.2549 16.7497 29.3149 16.7297 29.3849 16.7197C29.4649 16.6997 29.5249 16.6947 29.5649 16.7047C29.6849 16.7447 29.7949 16.9297 29.8949 17.2597C29.9949 17.5797 30.0849 18.0047 30.1649 18.5347C30.2049 18.8447 30.2549 19.1097 30.3149 19.3297C30.3749 19.5497 30.4049 19.6797 30.4049 19.7197C30.4449 19.7997 30.4899 19.8797 30.5399 19.9597C30.5999 20.0297 30.6699 20.0247 30.7499 19.9447C30.7899 19.9047 30.8699 19.8147 30.9899 19.6747C31.1199 19.5347 31.2449 19.3847 31.3649 19.2247C31.5749 18.9447 31.7399 18.7147 31.8599 18.5347C31.9899 18.3547 32.1349 18.1647 32.2949 17.9647C32.3649 17.8647 32.4449 17.7547 32.5349 17.6347C32.6249 17.5147 32.7149 17.4047 32.8049 17.3047C32.9049 17.1947 32.9949 17.1297 33.0749 17.1097C33.3149 17.0697 33.4449 17.1197 33.4649 17.2597C33.4849 17.3997 33.3949 17.6097 33.1949 17.8897C33.1149 18.0097 33.0499 18.1247 32.9999 18.2347C32.9599 18.3347 32.9199 18.4047 32.8799 18.4447C32.7999 18.6047 32.6749 18.8097 32.5049 19.0597C32.3349 19.2997 32.1699 19.5247 32.0099 19.7347C31.8499 19.9347 31.7399 20.0647 31.6799 20.1247C31.6399 20.1647 31.5499 20.2397 31.4099 20.3497C31.2799 20.4597 31.1549 20.5997 31.0349 20.7697C30.7949 20.9997 30.6049 21.1397 30.4649 21.1897C30.3249 21.2397 30.1949 21.2047 30.0749 21.0847Z" fill="#BABABA"/>
<path d="M22.6792 21.4599C22.6392 21.3799 22.5892 21.3199 22.5292 21.2799C22.4692 21.2299 22.4392 21.1849 22.4392 21.1449C22.4392 21.1049 22.4342 21.0649 22.4242 21.0249C22.4242 20.9749 22.4042 20.9299 22.3642 20.8899C22.3142 20.8299 22.3192 20.6949 22.3792 20.4849C22.4392 20.2649 22.5392 19.9999 22.6792 19.6899C22.8192 19.3699 22.9842 19.0349 23.1742 18.6849C23.2542 18.6049 23.3342 18.4999 23.4142 18.3699C23.4942 18.2399 23.5542 18.1549 23.5942 18.1149C23.5942 18.0749 23.6092 18.0399 23.6392 18.0099C23.6692 17.9699 23.7042 17.9499 23.7442 17.9499V17.8599C23.7442 17.8099 23.7892 17.7249 23.8792 17.6049C23.9792 17.4849 24.0992 17.3549 24.2392 17.2149C24.3792 17.0649 24.5242 16.9249 24.6742 16.7949C24.8242 16.6549 24.9492 16.5549 25.0492 16.4949C25.2592 16.3549 25.4742 16.2699 25.6942 16.2399C25.9242 16.2099 26.1192 16.2599 26.2792 16.3899C26.3092 16.4199 26.3592 16.4699 26.4292 16.5399C26.4992 16.6099 26.5792 16.6899 26.6692 16.7799C26.7692 16.8599 26.8692 16.9449 26.9692 17.0349L27.5242 17.5299L27.2542 18.2799C27.1242 18.6799 27.0892 19.0299 27.1492 19.3299C27.2192 19.6299 27.3192 19.8899 27.4492 20.1099C27.4992 20.2199 27.5992 20.3249 27.7492 20.4249C27.9092 20.5249 28.0592 20.5849 28.1992 20.6049C28.2792 20.6149 28.3542 20.6449 28.4242 20.6949C28.4942 20.7449 28.5292 20.8249 28.5292 20.9349C28.5292 21.0349 28.5092 21.1149 28.4692 21.1749C28.4292 21.2349 28.3592 21.2749 28.2592 21.2949C27.9292 21.3349 27.6192 21.2549 27.3292 21.0549C27.0492 20.8549 26.7892 20.5249 26.5492 20.0649C26.5092 20.0049 26.4542 19.8949 26.3842 19.7349C26.3242 19.5649 26.2892 19.4549 26.2792 19.4049C26.2392 19.4549 26.1642 19.5499 26.0542 19.6899C25.9442 19.8199 25.8592 19.9149 25.7992 19.9749C25.0892 20.6949 24.4742 21.1799 23.9542 21.4299C23.4442 21.6699 23.0192 21.6799 22.6792 21.4599ZM23.2192 20.6199C23.2192 20.6899 23.3242 20.6899 23.5342 20.6199C23.7542 20.5399 23.9892 20.3999 24.2392 20.1999C24.5792 19.9099 24.9192 19.5899 25.2592 19.2399C25.6092 18.8899 25.8892 18.5649 26.0992 18.2649L26.4292 17.7249C26.3292 17.4949 26.2192 17.3399 26.0992 17.2599C25.9892 17.1699 25.8942 17.1249 25.8142 17.1249C25.6842 17.1249 25.4892 17.2449 25.2292 17.4849C24.9792 17.7249 24.7092 18.0449 24.4192 18.4449C24.1292 18.8449 23.8542 19.2849 23.5942 19.7649C23.4942 19.9649 23.4042 20.1599 23.3242 20.3499C23.2542 20.5299 23.2192 20.6199 23.2192 20.6199Z" fill="#BABABA"/>
<path d="M17.2095 22.8399C17.0595 22.7799 16.9045 22.7149 16.7445 22.6449C16.5945 22.5749 16.4495 22.4699 16.3095 22.3299C16.1795 22.1999 16.0645 22.0149 15.9645 21.7749C15.8645 21.4849 15.7945 21.1999 15.7545 20.9199C15.7245 20.6399 15.7145 20.3149 15.7245 19.9449C15.7245 19.4249 15.7595 18.9749 15.8295 18.5949C15.9095 18.2049 16.0295 17.8099 16.1895 17.4099C16.2095 17.3799 16.2445 17.2949 16.2945 17.1549C16.3545 17.0049 16.4195 16.8449 16.4895 16.6749C16.5695 16.5049 16.6295 16.3749 16.6695 16.2849C16.7495 16.1149 16.8695 15.8899 17.0295 15.6099C17.1995 15.3199 17.3795 15.0399 17.5695 14.7699C17.8595 14.3399 18.0995 13.9999 18.2895 13.7499C18.4795 13.4999 18.6595 13.2899 18.8295 13.1199C18.9995 12.9499 19.1895 12.7899 19.3995 12.6399C19.6195 12.4799 19.8995 12.2849 20.2395 12.0549C20.4595 11.8949 20.6995 11.8099 20.9595 11.7999C21.2295 11.7899 21.4795 11.8499 21.7095 11.9799C21.9395 12.0999 22.1095 12.2799 22.2195 12.5199C22.3295 12.7299 22.3845 12.9849 22.3845 13.2849C22.3845 13.5749 22.3395 13.8849 22.2495 14.2149C22.1595 14.5349 22.0345 14.8399 21.8745 15.1299C21.7145 15.4199 21.5295 15.6599 21.3195 15.8499C21.1895 15.9699 21.0695 16.0149 20.9595 15.9849C20.8595 15.9549 20.7395 15.8749 20.5995 15.7449C20.5095 15.5749 20.4595 15.4749 20.4495 15.4449C20.4495 15.4149 20.4695 15.3949 20.5095 15.3849C20.5695 15.3149 20.6495 15.1949 20.7495 15.0249C20.8495 14.8549 20.9495 14.6749 21.0495 14.4849C21.1495 14.2849 21.2195 14.1249 21.2595 14.0049C21.3395 13.5849 21.3945 13.2899 21.4245 13.1199C21.4545 12.9399 21.4245 12.8049 21.3345 12.7149C21.2945 12.6749 21.2345 12.6599 21.1545 12.6699C21.0845 12.6799 20.9645 12.7299 20.7945 12.8199C20.5645 12.9199 20.2645 13.1449 19.8945 13.4949C19.5245 13.8349 19.1845 14.2149 18.8745 14.6349C18.4745 15.1649 18.1395 15.6349 17.8695 16.0449C17.5995 16.4549 17.3945 16.8749 17.2545 17.3049C17.2345 17.3449 17.1995 17.4199 17.1495 17.5299C17.1095 17.6399 17.0895 17.6949 17.0895 17.6949C17.0995 17.7349 17.0845 17.8349 17.0445 17.9949C17.0045 18.1449 16.9595 18.2749 16.9095 18.3849C16.7995 18.8449 16.7345 19.3249 16.7145 19.8249C16.6945 20.3149 16.7195 20.7499 16.7895 21.1299C16.8695 21.5099 16.9845 21.7749 17.1345 21.9249C17.2645 22.0149 17.4395 22.0449 17.6595 22.0149C17.8895 21.9849 18.1495 21.9149 18.4395 21.8049C18.7295 21.6949 19.0245 21.5749 19.3245 21.4449C19.5645 21.3449 19.7845 21.2349 19.9845 21.1149C20.1845 20.9949 20.3345 20.8899 20.4345 20.7999C20.5145 20.7399 20.6145 20.6799 20.7345 20.6199C20.8645 20.5499 20.9745 20.5149 21.0645 20.5149C21.2045 20.4649 21.2845 20.4449 21.3045 20.4549C21.3245 20.4649 21.3345 20.5099 21.3345 20.5899C21.3345 20.7299 21.2545 20.8849 21.0945 21.0549C20.9445 21.2249 20.7495 21.3799 20.5095 21.5199C20.4295 21.5999 20.3245 21.6849 20.1945 21.7749C20.0645 21.8649 19.9295 21.9349 19.7895 21.9849C19.5795 22.1449 19.3195 22.2999 19.0095 22.4499C18.6995 22.5999 18.3845 22.7149 18.0645 22.7949C17.7545 22.8749 17.4695 22.8899 17.2095 22.8399Z" fill="#BABABA"/>
</svg>
