<svg width="70" height="35" viewBox="0 0 70 35" fill="none" xmlns="http://www.w3.org/2000/svg">
<rect width="70" height="35" rx="17.5" fill="#2D2D2D"/>
<path d="M41.5039 12.6406C41.75 12.6406 41.9915 12.627 42.2285 12.5996C42.4655 12.5723 42.7253 12.5586 43.0078 12.5586C43.2812 12.5586 43.5 12.5768 43.6641 12.6133C43.8372 12.6406 43.9694 12.6908 44.0605 12.7637C44.1608 12.8366 44.2292 12.9323 44.2656 13.0508C44.3021 13.1602 44.3203 13.2969 44.3203 13.4609C44.3021 13.8073 44.293 14.181 44.293 14.582C44.293 14.9831 44.2747 15.3477 44.2383 15.6758C44.2201 15.776 44.1517 15.8535 44.0332 15.9082C43.9238 15.9629 43.8008 15.9902 43.6641 15.9902C43.5365 15.9902 43.4225 15.9629 43.3223 15.9082C43.222 15.8444 43.1719 15.7487 43.1719 15.6211C43.1719 15.3841 43.1764 15.1061 43.1855 14.7871C43.1947 14.4681 43.1992 14.1673 43.1992 13.8848C43.1992 13.7663 43.1901 13.6797 43.1719 13.625C43.1628 13.5703 43.14 13.5339 43.1035 13.5156C43.0762 13.4974 43.0352 13.4928 42.9805 13.502C42.9258 13.502 42.862 13.502 42.7891 13.502C42.5703 13.502 42.3561 13.5156 42.1465 13.543C41.9368 13.5612 41.7318 13.5703 41.5312 13.5703C41.4219 13.5703 41.3353 13.5202 41.2715 13.4199C41.2168 13.3197 41.1895 13.2148 41.1895 13.1055C41.1895 12.9961 41.2122 12.8958 41.2578 12.8047C41.3125 12.7135 41.3945 12.6589 41.5039 12.6406ZM46.3984 11.3828C46.7083 11.2917 47.0592 11.2051 47.4512 11.123C47.8431 11.041 48.2305 11 48.6133 11C48.9505 11 49.2012 11.0592 49.3652 11.1777C49.5384 11.2871 49.6615 11.4421 49.7344 11.6426C49.8164 11.834 49.862 12.0618 49.8711 12.3262C49.8802 12.5814 49.8984 12.8548 49.9258 13.1465C49.944 13.3197 49.9531 13.4883 49.9531 13.6523C49.9531 13.8164 49.9531 13.9759 49.9531 14.1309C49.9531 14.2858 49.9486 14.4225 49.9395 14.541C49.9395 14.6504 49.9212 14.7415 49.8848 14.8145C49.8574 14.8874 49.8073 14.9466 49.7344 14.9922C49.6615 15.0286 49.5521 15.0469 49.4062 15.0469C49.2878 15.0469 49.1784 15.0241 49.0781 14.9785C48.987 14.9238 48.9414 14.8464 48.9414 14.7461C48.9414 14.5911 48.9323 14.4043 48.9141 14.1855C48.9049 13.9577 48.8913 13.7298 48.873 13.502L48.7773 12.3945C48.7135 12.1393 48.5905 12.0117 48.4082 12.0117C48.3535 12.0117 48.2897 12.0163 48.2168 12.0254C48.153 12.0254 48.0846 12.0299 48.0117 12.0391L47.3555 12.1895L46.6445 12.3945C46.6263 12.4036 46.5944 12.4082 46.5488 12.4082C46.4212 12.4082 46.3118 12.349 46.2207 12.2305C46.1387 12.1029 46.0977 11.9616 46.0977 11.8066C46.0977 11.7155 46.1204 11.6335 46.166 11.5605C46.2116 11.4876 46.2891 11.4284 46.3984 11.3828ZM43.5 17.0977C43.8737 17.0977 44.252 17.0931 44.6348 17.084C45.0176 17.0658 45.4323 17.0475 45.8789 17.0293L45.8379 15.6758C45.8288 15.4479 45.8197 15.2383 45.8105 15.0469C45.8014 14.8464 45.7969 14.6823 45.7969 14.5547C45.7969 14.4362 45.8652 14.3496 46.002 14.2949C46.1478 14.2311 46.2845 14.1992 46.4121 14.1992C46.5579 14.1992 46.6628 14.2448 46.7266 14.3359C46.7904 14.418 46.8314 14.5319 46.8496 14.6777C46.877 14.8145 46.8861 14.9694 46.877 15.1426C46.877 15.3158 46.877 15.4844 46.877 15.6484C46.877 15.8763 46.8815 16.1042 46.8906 16.332C46.8997 16.5599 46.8997 16.7786 46.8906 16.9883C47.4648 16.9609 48.0527 16.9245 48.6543 16.8789C49.265 16.8242 49.8711 16.7513 50.4727 16.6602C50.5729 16.6602 50.6595 16.7285 50.7324 16.8652C50.8145 16.9928 50.8555 17.125 50.8555 17.2617C50.8555 17.4805 50.7461 17.6081 50.5273 17.6445C49.944 17.7539 49.3379 17.8359 48.709 17.8906C48.0892 17.9453 47.4648 17.9818 46.8359 18C46.8542 18.319 46.8678 18.6426 46.877 18.9707C46.8861 19.2897 46.8906 19.6133 46.8906 19.9414C47.3008 19.9414 47.7109 19.9277 48.1211 19.9004C48.5312 19.873 48.9688 19.832 49.4336 19.7773C49.5339 19.7773 49.6113 19.8366 49.666 19.9551C49.7298 20.0736 49.7617 20.1966 49.7617 20.3242C49.7617 20.4245 49.7344 20.5202 49.6797 20.6113C49.625 20.6934 49.5339 20.7435 49.4062 20.7617C48.987 20.8255 48.5768 20.8711 48.1758 20.8984C47.7747 20.9167 47.3828 20.9349 47 20.9531C47.1549 21.3268 47.3418 21.7005 47.5605 22.0742C47.7884 22.457 48.1211 22.7852 48.5586 23.0586C48.7044 23.1589 48.8594 23.209 49.0234 23.209C49.1146 23.209 49.2103 23.1816 49.3105 23.127C49.4199 23.0723 49.5202 23.0449 49.6113 23.0449C49.7298 23.0449 49.8301 23.0996 49.9121 23.209C49.9941 23.3184 50.0352 23.4414 50.0352 23.5781C50.0352 23.7331 49.9486 23.8743 49.7754 24.002C49.6113 24.1387 49.3789 24.207 49.0781 24.207C48.8047 24.207 48.5312 24.1432 48.2578 24.0156C47.9844 23.888 47.7246 23.7148 47.4785 23.4961C47.2324 23.2773 47.0046 23.0221 46.7949 22.7305C46.5853 22.4388 46.4076 22.1335 46.2617 21.8145C46.0065 22.179 45.6693 22.5299 45.25 22.8672C44.8398 23.2044 44.3477 23.4779 43.7734 23.6875C43.7005 23.7148 43.6413 23.7285 43.5957 23.7285C43.4499 23.7285 43.3268 23.6693 43.2266 23.5508C43.1263 23.4323 43.0762 23.3092 43.0762 23.1816C43.0762 23.0632 43.1263 22.9766 43.2266 22.9219C43.8281 22.6758 44.3112 22.3978 44.6758 22.0879C45.0404 21.778 45.3457 21.4043 45.5918 20.9668C45.2363 20.9668 44.89 20.9577 44.5527 20.9395C44.2155 20.9212 43.8828 20.8984 43.5547 20.8711C43.418 20.8255 43.3177 20.7572 43.2539 20.666C43.1992 20.5749 43.1719 20.4792 43.1719 20.3789C43.1719 20.2422 43.2083 20.1283 43.2812 20.0371C43.3633 19.9368 43.4635 19.8867 43.582 19.8867C43.9648 19.9141 44.3431 19.9323 44.7168 19.9414C45.0996 19.9505 45.487 19.9551 45.8789 19.9551C45.8698 19.791 45.8607 19.6224 45.8516 19.4492C45.8424 19.276 45.8333 19.1029 45.8242 18.9297C45.8151 18.7565 45.806 18.597 45.7969 18.4512C45.7969 18.2962 45.7969 18.1595 45.7969 18.041C45.4141 18.0501 45.0404 18.0638 44.6758 18.082C44.3203 18.1003 43.9648 18.1094 43.6094 18.1094C43.4544 18.1094 43.3405 18.0547 43.2676 17.9453C43.1947 17.8268 43.1582 17.6992 43.1582 17.5625C43.1582 17.4531 43.181 17.3529 43.2266 17.2617C43.2812 17.1615 43.3724 17.1068 43.5 17.0977Z" fill="#BABABA"/>
<path d="M30.6484 15.9766C30.9674 16.0312 31.2773 16.054 31.5781 16.0449C31.8789 16.0267 32.2526 16.0221 32.6992 16.0312C32.8724 16.0312 33.0091 16.054 33.1094 16.0996C33.2188 16.1452 33.3053 16.1999 33.3691 16.2637C33.4329 16.3275 33.474 16.4004 33.4922 16.4824C33.5195 16.5553 33.5332 16.6237 33.5332 16.6875C33.5332 16.9427 33.474 17.2025 33.3555 17.4668C33.237 17.722 33.0775 18.0091 32.877 18.3281C33.1322 18.5195 33.3874 18.6745 33.6426 18.793C33.9069 18.9115 34.2305 19.0208 34.6133 19.1211C34.7135 19.1484 34.7865 19.2031 34.832 19.2852C34.8776 19.3581 34.9004 19.4401 34.9004 19.5312C34.9004 19.6589 34.8594 19.7819 34.7773 19.9004C34.7044 20.0098 34.5951 20.0645 34.4492 20.0645C34.2943 20.0645 34.1211 20.0371 33.9297 19.9824C33.7383 19.9186 33.5423 19.8411 33.3418 19.75C33.1504 19.6589 32.9635 19.5632 32.7812 19.4629C32.6081 19.3535 32.4531 19.2487 32.3164 19.1484C32.2161 19.2852 32.0885 19.4492 31.9336 19.6406C31.7878 19.8229 31.6328 20.0007 31.4688 20.1738C31.3047 20.3379 31.1406 20.4792 30.9766 20.5977C30.8125 20.7161 30.6667 20.7754 30.5391 20.7754C30.3932 20.7754 30.2702 20.7298 30.1699 20.6387C30.0697 20.5384 30.0195 20.4382 30.0195 20.3379C30.0195 20.2376 30.0651 20.1419 30.1562 20.0508C30.7031 19.5221 31.1634 18.9935 31.5371 18.4648C31.9199 17.9271 32.2161 17.4258 32.4258 16.9609C32.2344 16.9701 32.0247 16.9883 31.7969 17.0156C31.5781 17.0339 31.3411 17.043 31.0859 17.043C30.9583 17.043 30.8262 17.043 30.6895 17.043C30.5527 17.0339 30.4251 17.0111 30.3066 16.9746C30.1973 16.9382 30.1061 16.8789 30.0332 16.7969C29.9603 16.7057 29.9238 16.5827 29.9238 16.4277C29.9421 16.3092 29.9967 16.2044 30.0879 16.1133C30.179 16.0221 30.3294 15.9766 30.5391 15.9766H30.6484ZM36.0078 14.8281C35.9349 14.737 35.8984 14.6549 35.8984 14.582C35.8984 14.4635 35.9531 14.3587 36.0625 14.2676C36.181 14.1673 36.3132 14.1172 36.459 14.1172C36.623 14.1172 36.7643 14.181 36.8828 14.3086L37.375 14.9922C37.5117 15.1836 37.6165 15.3841 37.6895 15.5938C37.7624 15.7943 37.8125 16.0039 37.8398 16.2227C37.8672 16.4323 37.8854 16.6465 37.8945 16.8652C37.9036 17.0749 37.9173 17.2845 37.9355 17.4941C38.2728 17.5033 38.6237 17.5078 38.9883 17.5078C39.3529 17.5078 39.6719 17.5078 39.9453 17.5078C40.0547 17.526 40.1322 17.5716 40.1777 17.6445C40.2324 17.7174 40.2598 17.7995 40.2598 17.8906C40.2598 18.0456 40.2096 18.1914 40.1094 18.3281C40.0091 18.4557 39.8815 18.5195 39.7266 18.5195C39.4349 18.5195 39.1341 18.5241 38.8242 18.5332C38.5234 18.5423 38.2272 18.5469 37.9355 18.5469C37.9264 18.957 37.8991 19.3535 37.8535 19.7363C37.8171 20.1191 37.7669 20.4883 37.7031 20.8438C37.6758 21.0169 37.5983 21.14 37.4707 21.2129C37.3522 21.2767 37.2292 21.3086 37.1016 21.3086C36.974 21.3086 36.8646 21.2812 36.7734 21.2266C36.6914 21.1628 36.6504 21.0716 36.6504 20.9531C36.6504 20.9167 36.6549 20.8893 36.6641 20.8711C36.7461 20.4609 36.8053 20.0234 36.8418 19.5586C36.8783 19.0846 36.8965 18.6243 36.8965 18.1777C36.8965 17.7129 36.8783 17.2845 36.8418 16.8926C36.8145 16.5007 36.7734 16.168 36.7188 15.8945C36.6367 15.7305 36.5319 15.5618 36.4043 15.3887C36.2858 15.2064 36.1536 15.0195 36.0078 14.8281Z" fill="#BABABA"/>
<path d="M19.7109 13.3242C19.9935 13.3516 20.3125 13.4017 20.668 13.4746C21.0234 13.5384 21.3561 13.6341 21.666 13.7617C21.9759 13.8802 22.2357 14.0215 22.4453 14.1855C22.6641 14.3496 22.7734 14.541 22.7734 14.7598C22.7734 14.9329 22.7051 15.1562 22.5684 15.4297C22.4408 15.694 22.2585 15.9811 22.0215 16.291C21.7845 16.5918 21.4974 16.9017 21.1602 17.2207C20.832 17.5397 20.4674 17.8359 20.0664 18.1094C19.9297 18.2096 19.793 18.2598 19.6562 18.2598C19.5195 18.2598 19.4056 18.2142 19.3145 18.123C19.2233 18.0228 19.1777 17.9134 19.1777 17.7949C19.1777 17.6582 19.237 17.5352 19.3555 17.4258C19.6471 17.1797 19.9069 16.9564 20.1348 16.7559C20.3717 16.5462 20.5814 16.3457 20.7637 16.1543C20.9551 15.9538 21.1237 15.7487 21.2695 15.5391C21.4154 15.3294 21.5521 15.1016 21.6797 14.8555C21.306 14.6732 20.9277 14.5501 20.5449 14.4863C20.1712 14.4225 19.8021 14.3542 19.4375 14.2812C19.2917 14.2539 19.1823 14.1855 19.1094 14.0762C19.0365 13.9577 19 13.8392 19 13.7207C19 13.6204 19.0456 13.5293 19.1367 13.4473C19.237 13.3652 19.3874 13.3242 19.5879 13.3242H19.7109ZM25.3164 11.7383C25.2526 11.6654 25.2207 11.5788 25.2207 11.4785C25.2207 11.3418 25.2845 11.2279 25.4121 11.1367C25.5488 11.0456 25.681 11 25.8086 11C25.9271 11 26.0501 11.0592 26.1777 11.1777C26.3145 11.2962 26.4421 11.4421 26.5605 11.6152C26.679 11.7793 26.7884 11.9525 26.8887 12.1348C26.9889 12.3171 27.0664 12.4674 27.1211 12.5859C27.1302 12.75 27.1393 12.9141 27.1484 13.0781C27.1667 13.2422 27.1803 13.4017 27.1895 13.5566C27.4538 13.5658 27.7227 13.5703 27.9961 13.5703C28.2695 13.5703 28.543 13.5703 28.8164 13.5703C28.9258 13.5885 29.0033 13.6341 29.0488 13.707C29.0944 13.7708 29.1172 13.8438 29.1172 13.9258C29.1172 14.099 29.0716 14.2311 28.9805 14.3223C28.8984 14.4043 28.7891 14.4635 28.6523 14.5C28.5247 14.5273 28.388 14.541 28.2422 14.541C28.1055 14.541 27.9824 14.541 27.873 14.541C27.7637 14.541 27.6543 14.5456 27.5449 14.5547C27.4447 14.5547 27.3398 14.5547 27.2305 14.5547V15.2246C27.2305 15.6621 27.2214 16.0768 27.2031 16.4688C27.194 16.8607 27.1667 17.2344 27.1211 17.5898C27.0938 17.763 27.0208 17.8861 26.9023 17.959C26.7839 18.0228 26.6562 18.0547 26.5195 18.0547C26.3919 18.0547 26.278 18.0228 26.1777 17.959C26.0775 17.8952 26.0273 17.7995 26.0273 17.6719C26.0273 17.1979 26.0501 16.7057 26.0957 16.1953C26.1413 15.6849 26.1641 15.1517 26.1641 14.5957C26.1641 14.2767 26.1549 13.9714 26.1367 13.6797C26.1185 13.3789 26.0911 13.0872 26.0547 12.8047C25.9544 12.6315 25.8359 12.4629 25.6992 12.2988C25.5625 12.1257 25.4349 11.9388 25.3164 11.7383ZM22.6914 19.668C22.6914 19.5404 22.7415 19.431 22.8418 19.3398C22.9512 19.2487 23.0879 19.1758 23.252 19.1211C23.4251 19.0573 23.6074 19.0117 23.7988 18.9844C23.9993 18.957 24.1908 18.9388 24.373 18.9297C24.5645 18.9115 24.7331 18.9023 24.8789 18.9023C25.0247 18.9023 25.1296 18.9023 25.1934 18.9023C25.4303 18.9023 25.6217 18.9661 25.7676 19.0938C25.9225 19.2214 26.0091 19.3945 26.0273 19.6133C26.0638 19.9961 26.0957 20.3561 26.123 20.6934C26.1504 21.0215 26.1641 21.3815 26.1641 21.7734C26.1641 21.9375 26.0729 22.0697 25.8906 22.1699C25.7083 22.2793 25.485 22.3659 25.2207 22.4297C24.9655 22.5026 24.6966 22.5527 24.4141 22.5801C24.1406 22.6074 23.9036 22.6211 23.7031 22.6211C23.4297 22.6211 23.2292 22.5573 23.1016 22.4297C22.9831 22.3112 22.8965 22.1608 22.8418 21.9785C22.7962 21.7962 22.7734 21.5957 22.7734 21.377C22.7734 21.1582 22.7598 20.9531 22.7324 20.7617C22.7233 20.5794 22.7142 20.4017 22.7051 20.2285C22.696 20.0462 22.6914 19.8594 22.6914 19.668ZM23.7441 19.9824C23.7441 20.2832 23.7487 20.5703 23.7578 20.8438C23.776 21.1172 23.8125 21.3906 23.8672 21.6641C23.9401 21.6823 24.0039 21.6914 24.0586 21.6914C24.1133 21.6914 24.1725 21.6914 24.2363 21.6914C24.3913 21.6914 24.528 21.6732 24.6465 21.6367C24.7741 21.6094 24.9199 21.5684 25.084 21.5137C25.0749 21.2129 25.0612 20.9349 25.043 20.6797C25.0339 20.4245 25.0156 20.151 24.9883 19.8594C24.7331 19.8685 24.5098 19.8867 24.3184 19.9141C24.1361 19.9323 23.9447 19.9551 23.7441 19.9824Z" fill="#BABABA"/>
</svg>
