<svg width="107" height="35" viewBox="0 0 107 35" fill="none" xmlns="http://www.w3.org/2000/svg">
<rect width="107" height="35" rx="17.5" fill="#444444"/>
<path d="M86.8506 17.499C87.2412 17.1084 87.7051 16.7959 88.2422 16.5615C88.7793 16.3174 89.3457 16.1807 89.9414 16.1514C90.0879 16.1709 90.1953 16.2393 90.2637 16.3564C90.3418 16.4639 90.3809 16.5811 90.3809 16.708C90.3809 16.8154 90.3516 16.918 90.293 17.0156C90.2441 17.1035 90.166 17.1475 90.0586 17.1475C89.4141 17.2939 88.8477 17.4795 88.3594 17.7041C87.8809 17.9287 87.4951 18.2266 87.2021 18.5977C87.2021 18.793 87.2119 18.9883 87.2314 19.1836C87.2607 19.3691 87.2754 19.5645 87.2754 19.7695C87.2754 20.0234 87.2656 20.2773 87.2461 20.5312C87.2363 20.7852 87.207 21.0342 87.1582 21.2783C87.1484 21.4053 87.085 21.4932 86.9678 21.542C86.8506 21.5908 86.7236 21.6152 86.5869 21.6152C86.4502 21.6152 86.3232 21.5811 86.2061 21.5127C86.0986 21.4541 86.0449 21.3662 86.0449 21.249C86.0742 20.9756 86.0986 20.6973 86.1182 20.4141C86.1475 20.1211 86.1621 19.833 86.1621 19.5498C86.1621 19.1689 86.1133 18.8516 86.0156 18.5977C85.9277 18.3438 85.8447 18.1338 85.7666 17.9678C85.7373 17.9189 85.6787 17.8506 85.5908 17.7627C85.5127 17.665 85.4297 17.5674 85.3418 17.4697C85.2539 17.3623 85.1758 17.2549 85.1074 17.1475C85.0391 17.04 85.0049 16.9473 85.0049 16.8691C85.0049 16.7031 85.0684 16.5615 85.1953 16.4443C85.332 16.3174 85.4834 16.2539 85.6494 16.2539C85.8154 16.2539 86.0107 16.376 86.2354 16.6201C86.46 16.8643 86.665 17.1572 86.8506 17.499Z" fill="#EFFC35"/>
<path d="M83.3203 16.9424C83.623 17.3623 83.7744 17.7285 83.7744 18.041C83.7744 18.373 83.6035 18.5928 83.2617 18.7002L80.2002 19.6084C80.3271 19.8037 80.4883 19.9551 80.6836 20.0625C80.8887 20.1699 81.0938 20.2236 81.2988 20.2236C81.6211 20.2236 81.9238 20.1748 82.207 20.0771C82.5 19.9697 82.7734 19.7842 83.0273 19.5205C83.0957 19.4521 83.1738 19.418 83.2617 19.418C83.3789 19.418 83.4961 19.4766 83.6133 19.5938C83.7402 19.7012 83.8037 19.8232 83.8037 19.96C83.8037 20.0967 83.7354 20.2383 83.5986 20.3848C83.4717 20.5312 83.3008 20.6729 83.0859 20.8096C82.8711 20.9365 82.627 21.0391 82.3535 21.1172C82.0801 21.2051 81.8018 21.249 81.5186 21.249C81.2354 21.249 80.9326 21.2051 80.6104 21.1172C80.2979 21.0293 80.0049 20.8926 79.7314 20.707C79.458 20.5117 79.2334 20.2627 79.0576 19.96C78.8818 19.6572 78.7939 19.2861 78.7939 18.8467C78.7939 18.3779 78.9453 17.8408 79.248 17.2354C79.4434 16.8545 79.7412 16.5762 80.1416 16.4004C80.5518 16.2148 80.9814 16.1221 81.4307 16.1221C81.8018 16.1221 82.1533 16.1904 82.4854 16.3271C82.8271 16.4639 83.1055 16.6689 83.3203 16.9424ZM79.9512 18.627L82.6172 17.8506C82.5684 17.5967 82.4365 17.4111 82.2217 17.2939C82.0166 17.167 81.7871 17.1035 81.5332 17.1035C81.25 17.1035 81.0059 17.1572 80.8008 17.2646C80.6055 17.3623 80.4443 17.4893 80.3174 17.6455C80.1904 17.8018 80.0977 17.9678 80.0391 18.1436C79.9805 18.3193 79.9512 18.4805 79.9512 18.627Z" fill="#EFFC35"/>
<path d="M74.8535 16.1514C74.9414 16.4736 75.0195 16.8105 75.0879 17.1621C75.166 17.5137 75.2393 17.8652 75.3076 18.2168C75.376 18.5586 75.4395 18.8857 75.498 19.1982C75.5664 19.5107 75.6348 19.7939 75.7031 20.0479C75.8008 19.7158 75.8936 19.3936 75.9814 19.0811C76.0791 18.7686 76.1719 18.4512 76.2598 18.1289C76.3477 17.8066 76.4307 17.4648 76.5088 17.1035C76.5967 16.7324 76.6699 16.3271 76.7285 15.8877C76.748 15.7705 76.7969 15.6875 76.875 15.6387C76.9629 15.5801 77.0557 15.5508 77.1533 15.5508C77.3096 15.5508 77.4463 15.5996 77.5635 15.6973C77.6904 15.7949 77.7539 15.917 77.7539 16.0635C77.6367 16.7373 77.5 17.3965 77.3438 18.041C77.1973 18.6758 77.0361 19.2471 76.8604 19.7549C76.6943 20.2529 76.5137 20.6533 76.3184 20.9561C76.1328 21.2588 75.9375 21.4102 75.7324 21.4102C75.5566 21.4102 75.3955 21.2979 75.249 21.0732C75.1025 20.8584 74.9707 20.5801 74.8535 20.2383C74.7363 19.8867 74.6338 19.4912 74.5459 19.0518C74.458 18.6123 74.3848 18.1729 74.3262 17.7334C74.248 18.1729 74.1602 18.6123 74.0625 19.0518C73.9648 19.4814 73.8574 19.8721 73.7402 20.2236C73.623 20.5654 73.4961 20.8438 73.3594 21.0586C73.2227 21.2734 73.0713 21.3809 72.9053 21.3809C72.6807 21.3809 72.4707 21.2148 72.2754 20.8828C72.0801 20.541 71.8994 20.1064 71.7334 19.5791C71.5674 19.0518 71.416 18.4658 71.2793 17.8213C71.1426 17.167 71.0254 16.5225 70.9277 15.8877V15.8291C70.9277 15.7119 70.9863 15.6094 71.1035 15.5215C71.2207 15.4238 71.3525 15.375 71.499 15.375C71.6064 15.375 71.7041 15.4043 71.792 15.4629C71.8896 15.5215 71.9531 15.6143 71.9824 15.7412C72.0801 16.5518 72.1973 17.2939 72.334 17.9678C72.4707 18.6416 72.6562 19.3447 72.8906 20.0771C72.9492 19.6084 73.0713 19.0615 73.2568 18.4365C73.4424 17.8018 73.623 17.04 73.7988 16.1514C73.8281 16.0049 73.8916 15.8975 73.9893 15.8291C74.0869 15.751 74.1943 15.7119 74.3115 15.7119C74.4287 15.7119 74.5361 15.751 74.6338 15.8291C74.7412 15.8975 74.8145 16.0049 74.8535 16.1514Z" fill="#EFFC35"/>
<path d="M67.3828 16.4443C67.4219 16.415 67.4658 16.3906 67.5146 16.3711C67.5635 16.3418 67.6172 16.3271 67.6758 16.3271C67.9297 16.3467 68.1934 16.415 68.4668 16.5322C68.7402 16.6494 68.9893 16.8154 69.2139 17.0303C69.4385 17.2451 69.624 17.5039 69.7705 17.8066C69.917 18.1094 69.9902 18.4561 69.9902 18.8467C69.9805 19.2568 69.9072 19.6182 69.7705 19.9307C69.6436 20.2334 69.4678 20.4873 69.2432 20.6924C69.0283 20.8975 68.7695 21.0488 68.4668 21.1465C68.1738 21.2539 67.8516 21.3076 67.5 21.3076C67.2266 21.3076 66.9482 21.2539 66.665 21.1465C66.3818 21.0488 66.1279 20.9023 65.9033 20.707C65.6787 20.502 65.4932 20.2578 65.3467 19.9746C65.2002 19.6914 65.127 19.3643 65.127 18.9932C65.127 18.6611 65.1904 18.3389 65.3174 18.0264C65.4443 17.7041 65.6006 17.4209 65.7861 17.1768C65.9814 16.9326 66.1914 16.7373 66.416 16.5908C66.6504 16.4443 66.8701 16.3711 67.0752 16.3711C67.1826 16.3711 67.2852 16.3955 67.3828 16.4443ZM67.4707 17.3086C67.2949 17.3965 67.1338 17.4893 66.9873 17.5869C66.8506 17.6748 66.7285 17.7822 66.6211 17.9092C66.5234 18.0361 66.4453 18.1924 66.3867 18.3779C66.3379 18.5635 66.3135 18.793 66.3135 19.0664C66.3135 19.3105 66.3525 19.5107 66.4307 19.667C66.5186 19.8232 66.626 19.9502 66.7529 20.0479C66.8896 20.1357 67.0361 20.1992 67.1924 20.2383C67.3584 20.2676 67.5195 20.2822 67.6758 20.2822C68.0078 20.2822 68.2861 20.1504 68.5107 19.8867C68.7354 19.623 68.8477 19.3008 68.8477 18.9199C68.8477 18.627 68.8037 18.3877 68.7158 18.2021C68.6377 18.0166 68.5303 17.8701 68.3936 17.7627C68.2666 17.6455 68.1201 17.5576 67.9541 17.499C67.7881 17.4307 67.627 17.3672 67.4707 17.3086Z" fill="#EFFC35"/>
<path d="M61.7285 13.4854C61.6504 13.3779 61.6113 13.2803 61.6113 13.1924C61.6113 13.0459 61.6797 12.9189 61.8164 12.8115C61.9531 12.7041 62.0947 12.6504 62.2412 12.6504C62.3779 12.6504 62.5098 12.7188 62.6367 12.8555C62.7734 12.9922 62.8955 13.1582 63.0029 13.3535C63.1104 13.5391 63.208 13.7344 63.2959 13.9395C63.3838 14.1348 63.457 14.2959 63.5156 14.4229C63.5449 14.8428 63.5645 15.2676 63.5742 15.6973C63.584 16.1172 63.5889 16.5469 63.5889 16.9863C63.5889 17.6895 63.5791 18.3682 63.5596 19.0225C63.5498 19.667 63.5352 20.2822 63.5156 20.8682C63.5059 21.0146 63.457 21.1221 63.3691 21.1904C63.2812 21.2686 63.1738 21.3076 63.0469 21.3076C62.9004 21.3076 62.7539 21.2637 62.6074 21.1758C62.4707 21.0879 62.4023 20.9658 62.4023 20.8096C62.4023 20.3994 62.417 19.9355 62.4463 19.418C62.4854 18.8906 62.5049 18.3438 62.5049 17.7773C62.5049 17.2402 62.5 16.708 62.4902 16.1807C62.4805 15.6436 62.4609 15.1553 62.4316 14.7158C62.3438 14.5303 62.2412 14.3301 62.124 14.1152C62.0068 13.9004 61.875 13.6904 61.7285 13.4854Z" fill="#EFFC35"/>
<path d="M60.1465 17.8506C60 17.8701 59.8193 17.8848 59.6045 17.8945C59.3994 17.9043 59.1797 17.9092 58.9453 17.9092C58.7109 17.9092 58.4766 17.9092 58.2422 17.9092C58.0176 17.8994 57.8125 17.8896 57.627 17.8799C57.5391 17.8799 57.4658 17.8262 57.4072 17.7188C57.3584 17.6016 57.334 17.4795 57.334 17.3525C57.334 17.2158 57.3584 17.0938 57.4072 16.9863C57.4658 16.8789 57.5586 16.8252 57.6855 16.8252C57.9199 16.8252 58.1348 16.8301 58.3301 16.8398C58.5352 16.8496 58.7354 16.8545 58.9307 16.8545C59.1162 16.8545 59.3066 16.8545 59.502 16.8545C59.6973 16.8447 59.9023 16.8252 60.1172 16.7959C60.2344 16.8154 60.3174 16.8838 60.3662 17.001C60.4248 17.1084 60.4541 17.2256 60.4541 17.3525C60.4541 17.4795 60.4248 17.5967 60.3662 17.7041C60.3174 17.8018 60.2441 17.8506 60.1465 17.8506ZM59.6191 14.335C59.3555 14.3447 59.1064 14.3545 58.8721 14.3643C58.6475 14.3643 58.4375 14.3643 58.2422 14.3643C58.0469 14.3643 57.832 14.3643 57.5977 14.3643C57.373 14.3545 57.1289 14.3447 56.8652 14.335C56.875 14.7061 56.8799 15.0967 56.8799 15.5068C56.8799 15.917 56.8799 16.3271 56.8799 16.7373C56.8799 17.1084 56.875 17.4746 56.8652 17.8359C56.8652 18.1973 56.8604 18.5439 56.8506 18.876C56.8506 19.208 56.8408 19.5107 56.8213 19.7842C56.8115 20.0576 56.7969 20.292 56.7773 20.4873C56.7578 20.6533 56.6943 20.7754 56.5869 20.8535C56.4893 20.9316 56.3818 20.9707 56.2646 20.9707C56.0986 20.9707 55.957 20.9268 55.8398 20.8389C55.7227 20.751 55.6641 20.624 55.6641 20.458C55.6738 20.2041 55.6836 19.9111 55.6934 19.5791C55.7129 19.2373 55.7275 18.876 55.7373 18.4951C55.7568 18.1143 55.7666 17.7236 55.7666 17.3232C55.7764 16.9131 55.7812 16.5127 55.7812 16.1221C55.7812 15.624 55.7715 15.1602 55.752 14.7305C55.7324 14.3008 55.7227 13.9297 55.7227 13.6172C55.7227 13.4805 55.7812 13.3828 55.8984 13.3242C56.0156 13.2656 56.1475 13.2363 56.2939 13.2363C56.46 13.2363 56.6406 13.2461 56.8359 13.2656C57.041 13.2852 57.2559 13.2949 57.4805 13.2949C57.8906 13.2949 58.2812 13.2949 58.6523 13.2949C59.0234 13.2852 59.3457 13.2803 59.6191 13.2803C59.7363 13.3291 59.8193 13.4072 59.8682 13.5146C59.9268 13.6123 59.9561 13.7197 59.9561 13.8369C59.9561 13.9541 59.9219 14.0615 59.8535 14.1592C59.7852 14.2471 59.707 14.3057 59.6191 14.335Z" fill="#EFFC35"/>
<path d="M46.4209 16.4297C46.4795 16.3809 46.5625 16.3564 46.6699 16.3564C47.002 16.3857 47.2998 16.4785 47.5635 16.6348C47.8271 16.7812 48.0469 16.9668 48.2227 17.1914C48.4082 17.4062 48.5449 17.6455 48.6328 17.9092C48.7305 18.1729 48.7793 18.4268 48.7793 18.6709V18.7441C48.8477 18.9688 48.9209 19.1445 48.999 19.2715C49.0771 19.3984 49.1602 19.4961 49.248 19.5645C49.3457 19.6328 49.4385 19.6768 49.5264 19.6963C49.624 19.7061 49.7217 19.7109 49.8193 19.7109C49.9072 19.7109 50 19.6914 50.0977 19.6523C50.2051 19.6133 50.3271 19.5938 50.4639 19.5938C50.5908 19.5938 50.6934 19.6475 50.7715 19.7549C50.8594 19.8525 50.9033 19.96 50.9033 20.0771C50.9033 20.1846 50.8691 20.2822 50.8008 20.3701C50.7422 20.4482 50.6592 20.5166 50.5518 20.5752C50.4541 20.624 50.3418 20.6631 50.2148 20.6924C50.0977 20.7119 49.9805 20.7217 49.8633 20.7217C49.4922 20.7217 49.1699 20.6436 48.8965 20.4873C48.623 20.3311 48.4082 20.1504 48.252 19.9453C48.0566 20.1699 47.8223 20.3457 47.5488 20.4727C47.2754 20.5996 46.9873 20.6631 46.6846 20.6631C46.4111 20.6631 46.1377 20.6191 45.8643 20.5312C45.5908 20.4434 45.3467 20.3115 45.1318 20.1357C44.917 19.96 44.7412 19.7451 44.6045 19.4912C44.4678 19.2275 44.3994 18.9199 44.3994 18.5684C44.3994 18.3633 44.4336 18.1484 44.502 17.9238C44.5801 17.6992 44.6924 17.4844 44.8389 17.2793C44.9854 17.0742 45.1611 16.8936 45.3662 16.7373C45.5811 16.5811 45.8301 16.4736 46.1133 16.415H46.2012C46.2988 16.415 46.3721 16.4199 46.4209 16.4297ZM46.5088 17.3525C46.167 17.46 45.918 17.6162 45.7617 17.8213C45.6055 18.0166 45.5273 18.2461 45.5273 18.5098C45.5273 18.8223 45.6055 19.0908 45.7617 19.3154C45.9277 19.5303 46.2305 19.6377 46.6699 19.6377C46.9238 19.6377 47.1484 19.5449 47.3438 19.3594C47.5391 19.1738 47.6367 18.9248 47.6367 18.6123C47.6367 18.3975 47.6025 18.2217 47.5342 18.085C47.4756 17.9385 47.3926 17.8213 47.2852 17.7334C47.1875 17.6357 47.0703 17.5625 46.9336 17.5137C46.7969 17.4551 46.6553 17.4014 46.5088 17.3525Z" fill="#EFFC35"/>
<path d="M42.7148 13.9248C42.666 14.1689 42.5684 14.3545 42.4219 14.4814C42.2754 14.6084 42.0996 14.6719 41.8945 14.6719C41.8164 14.6719 41.7236 14.6621 41.6162 14.6426C41.5088 14.6133 41.4062 14.5693 41.3086 14.5107C41.2207 14.4424 41.1426 14.3545 41.0742 14.2471C41.0059 14.1299 40.9717 13.9834 40.9717 13.8076C40.9717 13.4951 41.0596 13.2705 41.2354 13.1338C41.4111 12.9873 41.6406 12.9141 41.9238 12.9141C42.207 12.9141 42.4121 13.002 42.5391 13.1777C42.666 13.3535 42.7295 13.5537 42.7295 13.7783C42.7295 13.7979 42.7246 13.8223 42.7148 13.8516C42.7148 13.8809 42.7148 13.9053 42.7148 13.9248ZM41.748 23.4463C41.4648 23.6709 41.1377 23.7832 40.7666 23.7832C40.4443 23.7832 40.1221 23.7051 39.7998 23.5488C39.4873 23.3926 39.2383 23.1826 39.0527 22.9189C39.0137 22.8799 38.9941 22.8262 38.9941 22.7578C38.9941 22.6309 39.0381 22.4941 39.126 22.3477C39.2236 22.2109 39.3359 22.1426 39.4629 22.1426C39.5117 22.1426 39.5605 22.1572 39.6094 22.1865C39.7852 22.333 39.9658 22.4551 40.1514 22.5527C40.3467 22.6602 40.5322 22.7139 40.708 22.7139C41.0791 22.7139 41.333 22.416 41.4697 21.8203C41.6064 21.2246 41.6748 20.3652 41.6748 19.2422C41.6748 18.7441 41.6602 18.2461 41.6309 17.748C41.6113 17.2402 41.582 16.7666 41.543 16.3271C41.543 16.2197 41.5967 16.1318 41.7041 16.0635C41.8115 15.9854 41.9434 15.9463 42.0996 15.9463C42.2168 15.9463 42.3291 15.9707 42.4365 16.0195C42.5439 16.0586 42.6172 16.1318 42.6562 16.2393C42.6953 16.7373 42.7295 17.2354 42.7588 17.7334C42.7881 18.2217 42.8027 18.71 42.8027 19.1982C42.8027 19.667 42.7832 20.126 42.7441 20.5752C42.7051 21.0146 42.6416 21.4199 42.5537 21.791C42.4756 22.1621 42.3682 22.4893 42.2314 22.7725C42.1045 23.0654 41.9434 23.29 41.748 23.4463Z" fill="#EFFC35"/>
<path d="M30.9668 16.708C30.8887 16.6006 30.8496 16.5029 30.8496 16.415C30.8496 16.2686 30.918 16.1416 31.0547 16.0342C31.1914 15.9268 31.333 15.873 31.4795 15.873C31.5771 15.873 31.665 15.9023 31.7432 15.9609C31.8311 16.0195 31.9043 16.0928 31.9629 16.1807C32.0215 16.2588 32.0752 16.3467 32.124 16.4443C32.1729 16.5322 32.2168 16.6104 32.2559 16.6787C32.4219 16.6201 32.5977 16.5713 32.7832 16.5322C32.9688 16.4932 33.1738 16.4736 33.3984 16.4736C33.5938 16.4736 33.7988 16.4932 34.0137 16.5322C34.2383 16.5615 34.4678 16.6445 34.7021 16.7812C34.8975 16.6836 35.1221 16.6104 35.376 16.5615C35.6299 16.5127 35.8936 16.4883 36.167 16.4883C36.3525 16.4883 36.5625 16.5029 36.7969 16.5322C37.0312 16.5615 37.251 16.6592 37.4561 16.8252C37.6611 16.9814 37.832 17.2305 37.9688 17.5723C38.1055 17.9043 38.1738 18.373 38.1738 18.9785C38.1738 19.2715 38.1689 19.5547 38.1592 19.8281C38.1494 20.1016 38.1201 20.3457 38.0713 20.5605C38.0322 20.7656 37.9688 20.9316 37.8809 21.0586C37.793 21.1855 37.6709 21.249 37.5146 21.249C37.3877 21.249 37.2607 21.21 37.1338 21.1318C37.0166 21.0537 36.958 20.9463 36.958 20.8096C36.958 20.6436 36.9775 20.4385 37.0166 20.1943C37.0557 19.9502 37.0752 19.7012 37.0752 19.4473C37.0752 19.125 37.0703 18.8418 37.0605 18.5977C37.0508 18.3535 37.0117 18.1533 36.9434 17.9971C36.875 17.8311 36.7725 17.709 36.6357 17.6309C36.499 17.5527 36.3037 17.5137 36.0498 17.5137C35.7861 17.5137 35.5322 17.5576 35.2881 17.6455L35.332 17.8213C35.3613 17.9678 35.3809 18.1436 35.3906 18.3486C35.4102 18.5439 35.4199 18.7539 35.4199 18.9785C35.4199 19.2227 35.4199 19.4814 35.4199 19.7549C35.4199 20.0186 35.4053 20.2627 35.376 20.4873C35.3467 20.7021 35.2881 20.8828 35.2002 21.0293C35.1221 21.1758 35 21.249 34.834 21.249C34.668 21.249 34.5264 21.2002 34.4092 21.1025C34.3018 21.0049 34.248 20.8779 34.248 20.7217C34.248 20.4482 34.2627 20.1309 34.292 19.7695C34.3213 19.4082 34.3359 19.0811 34.3359 18.7881C34.3359 18.3975 34.2676 18.0898 34.1309 17.8652C33.9941 17.6309 33.7256 17.5137 33.3252 17.5137C33.1006 17.5137 32.8809 17.5527 32.666 17.6309V17.6455C32.6758 17.8994 32.6807 18.1729 32.6807 18.4658C32.6904 18.749 32.6953 19.0371 32.6953 19.3301C32.6953 19.5938 32.6953 19.8428 32.6953 20.0771C32.6953 20.3115 32.6758 20.5166 32.6367 20.6924C32.5977 20.8682 32.5293 21.0098 32.4316 21.1172C32.3438 21.2246 32.207 21.2783 32.0215 21.2783C31.8848 21.2588 31.7725 21.21 31.6846 21.1318C31.5967 21.0537 31.5527 20.9512 31.5527 20.8242C31.5527 20.5312 31.5625 20.2236 31.582 19.9014C31.6016 19.5791 31.6113 19.2324 31.6113 18.8613C31.6113 18.6758 31.6064 18.5098 31.5967 18.3633C31.5967 18.2168 31.5918 18.0752 31.582 17.9385C31.4746 17.7725 31.377 17.5869 31.2891 17.3818C31.2109 17.167 31.1035 16.9424 30.9668 16.708Z" fill="#EFFC35"/>
<path d="M25.6787 16.4297C25.7373 16.3809 25.8203 16.3564 25.9277 16.3564C26.2598 16.3857 26.5576 16.4785 26.8213 16.6348C27.085 16.7812 27.3047 16.9668 27.4805 17.1914C27.666 17.4062 27.8027 17.6455 27.8906 17.9092C27.9883 18.1729 28.0371 18.4268 28.0371 18.6709V18.7441C28.1055 18.9688 28.1787 19.1445 28.2568 19.2715C28.335 19.3984 28.418 19.4961 28.5059 19.5645C28.6035 19.6328 28.6963 19.6768 28.7842 19.6963C28.8818 19.7061 28.9795 19.7109 29.0771 19.7109C29.165 19.7109 29.2578 19.6914 29.3555 19.6523C29.4629 19.6133 29.585 19.5938 29.7217 19.5938C29.8486 19.5938 29.9512 19.6475 30.0293 19.7549C30.1172 19.8525 30.1611 19.96 30.1611 20.0771C30.1611 20.1846 30.127 20.2822 30.0586 20.3701C30 20.4482 29.917 20.5166 29.8096 20.5752C29.7119 20.624 29.5996 20.6631 29.4727 20.6924C29.3555 20.7119 29.2383 20.7217 29.1211 20.7217C28.75 20.7217 28.4277 20.6436 28.1543 20.4873C27.8809 20.3311 27.666 20.1504 27.5098 19.9453C27.3145 20.1699 27.0801 20.3457 26.8066 20.4727C26.5332 20.5996 26.2451 20.6631 25.9424 20.6631C25.6689 20.6631 25.3955 20.6191 25.1221 20.5312C24.8486 20.4434 24.6045 20.3115 24.3896 20.1357C24.1748 19.96 23.999 19.7451 23.8623 19.4912C23.7256 19.2275 23.6572 18.9199 23.6572 18.5684C23.6572 18.3633 23.6914 18.1484 23.7598 17.9238C23.8379 17.6992 23.9502 17.4844 24.0967 17.2793C24.2432 17.0742 24.4189 16.8936 24.624 16.7373C24.8389 16.5811 25.0879 16.4736 25.3711 16.415H25.459C25.5566 16.415 25.6299 16.4199 25.6787 16.4297ZM25.7666 17.3525C25.4248 17.46 25.1758 17.6162 25.0195 17.8213C24.8633 18.0166 24.7852 18.2461 24.7852 18.5098C24.7852 18.8223 24.8633 19.0908 25.0195 19.3154C25.1855 19.5303 25.4883 19.6377 25.9277 19.6377C26.1816 19.6377 26.4062 19.5449 26.6016 19.3594C26.7969 19.1738 26.8945 18.9248 26.8945 18.6123C26.8945 18.3975 26.8604 18.2217 26.792 18.085C26.7334 17.9385 26.6504 17.8213 26.543 17.7334C26.4453 17.6357 26.3281 17.5625 26.1914 17.5137C26.0547 17.4551 25.9131 17.4014 25.7666 17.3525Z" fill="#EFFC35"/>
<path d="M20.8594 20.1211C20.5664 20.2285 20.249 20.3115 19.9072 20.3701C19.5654 20.4287 19.2285 20.458 18.8965 20.458C18.5156 20.458 18.1299 20.4189 17.7393 20.3408C17.3486 20.2529 16.9922 20.0918 16.6699 19.8574C16.3574 19.623 16.0986 19.291 15.8936 18.8613C15.6885 18.4219 15.5859 17.8506 15.5859 17.1475C15.5859 16.7178 15.6543 16.2686 15.791 15.7998C15.9375 15.3213 16.1523 14.8818 16.4355 14.4814C16.7285 14.0811 17.085 13.749 17.5049 13.4854C17.9346 13.2217 18.4277 13.0898 18.9844 13.0898C19.2578 13.0898 19.5557 13.1289 19.8779 13.207C20.2002 13.2852 20.498 13.3926 20.7715 13.5293C21.0547 13.666 21.2891 13.832 21.4746 14.0273C21.6699 14.2129 21.7676 14.4229 21.7676 14.6572C21.7676 14.833 21.6992 14.9697 21.5625 15.0674C21.4258 15.165 21.2891 15.2139 21.1523 15.2139C20.9863 15.2139 20.8887 15.1553 20.8594 15.0381C20.791 14.9014 20.6934 14.7842 20.5664 14.6865C20.4492 14.5791 20.3125 14.4961 20.1562 14.4375C20 14.3691 19.834 14.3203 19.6582 14.291C19.4922 14.252 19.3311 14.2324 19.1748 14.2324C18.7939 14.2324 18.4521 14.3203 18.1494 14.4961C17.8564 14.6719 17.6025 14.9014 17.3877 15.1846C17.1826 15.458 17.0264 15.7705 16.9189 16.1221C16.8115 16.4736 16.7578 16.8203 16.7578 17.1621C16.7578 17.6797 16.8262 18.085 16.9629 18.3779C17.1094 18.6709 17.29 18.8955 17.5049 19.0518C17.7295 19.208 17.9736 19.3057 18.2373 19.3447C18.501 19.3838 18.7549 19.4033 18.999 19.4033C19.3506 19.4033 19.6973 19.3594 20.0391 19.2715C20.3906 19.1836 20.6836 19.0811 20.918 18.9639V18.3633C20.918 18.207 20.918 18.0508 20.918 17.8945C20.918 17.7285 20.9082 17.5576 20.8887 17.3818C20.625 17.3818 20.376 17.3916 20.1416 17.4111C19.9072 17.4209 19.7021 17.416 19.5264 17.3965C19.3506 17.377 19.209 17.3281 19.1016 17.25C19.0039 17.1621 18.9551 17.0205 18.9551 16.8252C18.9551 16.6885 18.9795 16.5664 19.0283 16.459C19.0869 16.3516 19.1797 16.2979 19.3066 16.2979C19.5312 16.2979 19.7998 16.3027 20.1123 16.3125C20.4248 16.3125 20.7422 16.3174 21.0645 16.3271C21.3965 16.3271 21.7139 16.332 22.0166 16.3418C22.3193 16.3418 22.5781 16.3369 22.793 16.3271C22.9102 16.3467 22.9932 16.4102 23.042 16.5176C23.0908 16.625 23.1152 16.7422 23.1152 16.8691C23.1152 16.9961 23.0859 17.1133 23.0273 17.2207C22.9688 17.3281 22.8906 17.3818 22.793 17.3818H22.002C22.0117 17.6943 22.0166 17.9727 22.0166 18.2168C22.0166 18.4512 22.0166 18.6758 22.0166 18.8906C22.0166 19.3008 22.0068 19.667 21.9873 19.9893C21.9775 20.3115 21.9531 20.6729 21.9141 21.0732C21.8945 21.2393 21.8311 21.3613 21.7236 21.4395C21.626 21.5176 21.5186 21.5566 21.4014 21.5566C21.2354 21.5566 21.0938 21.5127 20.9766 21.4248C20.8594 21.3369 20.8008 21.21 20.8008 21.0439C20.8008 20.8877 20.8057 20.7363 20.8154 20.5898C20.8252 20.4336 20.8398 20.2773 20.8594 20.1211Z" fill="#EFFC35"/>
</svg>
