<svg width="88" height="35" viewBox="0 0 88 35" fill="none" xmlns="http://www.w3.org/2000/svg">
<rect width="88" height="35" rx="17.5" fill="#2D2D2D"/>
<path d="M62.9941 15.3926C63.3073 15.5365 63.6416 15.6803 63.9971 15.8242C64.3525 15.9596 64.7165 16.0908 65.0889 16.2178C65.4697 16.3447 65.8464 16.4632 66.2188 16.5732C66.5996 16.6833 66.9678 16.7806 67.3232 16.8652L66.3838 17.8174C66.1553 17.6904 65.8717 17.5423 65.5332 17.373C65.2031 17.1953 64.8519 17.0133 64.4795 16.8271C64.1156 16.641 63.7474 16.459 63.375 16.2812C63.0111 16.1035 62.6852 15.9427 62.3975 15.7988C61.6273 16.332 60.8317 16.7891 60.0107 17.1699C59.1898 17.5508 58.3561 17.8809 57.5098 18.1602L57.2051 17.7666C58.4915 17.2757 59.6976 16.6494 60.8232 15.8877C61.9574 15.1175 62.918 14.2331 63.7051 13.2344C63.4596 13.2344 63.1973 13.2386 62.918 13.2471C62.6471 13.2555 62.3721 13.264 62.0928 13.2725C61.8219 13.2809 61.5553 13.2936 61.293 13.3105C61.0306 13.3275 60.7894 13.3402 60.5693 13.3486C60.4847 13.3571 60.3662 13.3698 60.2139 13.3867C60.0615 13.4036 59.8965 13.4248 59.7188 13.4502C59.541 13.4671 59.3633 13.4883 59.1855 13.5137C59.0078 13.5306 58.847 13.5518 58.7031 13.5771L58.0557 12.5361C58.1657 12.5531 58.3053 12.5742 58.4746 12.5996C58.6439 12.6165 58.8216 12.6335 59.0078 12.6504C59.2025 12.6673 59.3929 12.68 59.5791 12.6885C59.7653 12.6969 59.9303 12.7012 60.0742 12.7012C60.3789 12.7012 60.7513 12.6969 61.1914 12.6885C61.6315 12.68 62.0885 12.6631 62.5625 12.6377C63.0365 12.6123 63.5062 12.5827 63.9717 12.5488C64.4372 12.5065 64.8519 12.4515 65.2158 12.3838L65.6348 12.7773C65.237 13.2852 64.818 13.7549 64.3779 14.1865C63.9378 14.6182 63.4766 15.0202 62.9941 15.3926ZM63.1338 20.585C63.4723 20.568 63.777 20.5553 64.0479 20.5469C64.3271 20.5384 64.5641 20.5299 64.7588 20.5215C65.3258 20.4961 65.9014 20.458 66.4854 20.4072C67.0778 20.348 67.6025 20.2845 68.0596 20.2168L67.9072 21.2578C67.5687 21.2409 67.1286 21.2282 66.5869 21.2197C66.0452 21.2113 65.4909 21.2028 64.9238 21.1943C64.6868 21.1943 64.3991 21.1986 64.0605 21.207C63.722 21.207 63.3538 21.2155 62.9561 21.2324C62.5667 21.2409 62.1647 21.2536 61.75 21.2705C61.3438 21.279 60.9544 21.2917 60.582 21.3086C60.2096 21.3171 59.8711 21.3298 59.5664 21.3467C59.2702 21.3636 59.0374 21.3763 58.8682 21.3848C58.5465 21.4017 58.2038 21.4271 57.8398 21.4609C57.4759 21.4948 57.1374 21.5329 56.8242 21.5752L56.418 20.458C56.7988 20.5003 57.2008 20.5384 57.624 20.5723C58.0557 20.5977 58.4661 20.6188 58.8555 20.6357C59.0163 20.6442 59.2109 20.6484 59.4395 20.6484C59.668 20.6484 59.9176 20.6484 60.1885 20.6484C60.4593 20.6484 60.7428 20.6484 61.0391 20.6484C61.3353 20.64 61.6315 20.6315 61.9277 20.623V18.8711C61.9277 18.7441 61.9108 18.6383 61.877 18.5537C61.8516 18.4606 61.7965 18.3887 61.7119 18.3379C61.6357 18.2786 61.5257 18.2321 61.3818 18.1982C61.238 18.1559 61.0475 18.1221 60.8105 18.0967L60.9883 17.6396C61.1322 17.6396 61.3014 17.6439 61.4961 17.6523C61.6908 17.6523 61.8896 17.6608 62.0928 17.6777C62.3044 17.6947 62.5075 17.7116 62.7021 17.7285C62.9053 17.7454 63.0872 17.7666 63.248 17.792C63.2311 17.8682 63.2142 17.957 63.1973 18.0586C63.1888 18.1602 63.1761 18.2617 63.1592 18.3633C63.1507 18.4648 63.1423 18.5622 63.1338 18.6553C63.1338 18.7399 63.1338 18.8076 63.1338 18.8584V20.585Z" fill="#BABABA"/>
<path d="M50.9082 13.4629C51.0521 13.4714 51.1833 13.4798 51.3018 13.4883C51.4287 13.4883 51.5472 13.4883 51.6572 13.4883C51.8604 13.4798 52.0889 13.4756 52.3428 13.4756C52.5967 13.4671 52.8294 13.4587 53.041 13.4502V12.5615C53.041 12.2992 52.9141 12.0876 52.6602 11.9268C52.4147 11.7575 52.0127 11.6051 51.4541 11.4697L51.6826 11C51.8857 11.0254 52.11 11.0592 52.3555 11.1016C52.6009 11.1354 52.8464 11.1777 53.0918 11.2285C53.3372 11.2708 53.57 11.3132 53.79 11.3555C54.0186 11.3978 54.2174 11.4316 54.3867 11.457C54.3698 11.5332 54.3529 11.6263 54.3359 11.7363C54.319 11.8464 54.3021 11.9606 54.2852 12.0791C54.2767 12.1891 54.2682 12.2907 54.2598 12.3838C54.2513 12.4769 54.2471 12.5446 54.2471 12.5869V16.624C54.2471 16.7764 54.2386 16.9583 54.2217 17.1699C54.2048 17.373 54.1836 17.5762 54.1582 17.7793C54.1413 17.9824 54.1201 18.1771 54.0947 18.3633C54.0693 18.541 54.0439 18.6807 54.0186 18.7822L53.1553 18.9219C53.1383 18.8288 53.1214 18.7145 53.1045 18.5791C53.096 18.4437 53.0833 18.304 53.0664 18.1602C53.0579 18.0163 53.0495 17.8724 53.041 17.7285C53.041 17.5762 53.041 17.4408 53.041 17.3223V16.5098C52.6094 16.5352 52.1904 16.569 51.7842 16.6113C51.3864 16.6452 51.0394 16.6917 50.7432 16.751L50.5781 17.5C49.9772 17.4577 49.3636 17.4408 48.7373 17.4492C48.111 17.4492 47.4762 17.4619 46.833 17.4873C46.8245 17.555 46.8118 17.6312 46.7949 17.7158C46.7865 17.8005 46.7738 17.8851 46.7568 17.9697L45.9316 18.0967C45.8893 17.9359 45.847 17.7327 45.8047 17.4873C45.7624 17.2419 45.7327 17.0091 45.7158 16.7891L45.5254 13.9961C45.5085 13.8438 45.4873 13.721 45.4619 13.6279C45.4365 13.5264 45.39 13.446 45.3223 13.3867C45.2546 13.3275 45.1615 13.2767 45.043 13.2344C44.9245 13.1921 44.7721 13.1455 44.5859 13.0947L44.8018 12.6377C45.3519 12.7054 45.8809 12.752 46.3887 12.7773C46.8965 12.7943 47.4001 12.7985 47.8994 12.79C48.3988 12.7816 48.9023 12.7604 49.4102 12.7266C49.9264 12.6927 50.4681 12.6546 51.0352 12.6123C51.0182 12.7223 50.9971 12.8493 50.9717 12.9932C50.9463 13.137 50.9251 13.2936 50.9082 13.4629ZM50.8066 14.2754C50.7728 14.5462 50.7389 14.8171 50.7051 15.0879C50.6797 15.3503 50.6543 15.6042 50.6289 15.8496C50.8236 15.8665 51.0225 15.8835 51.2256 15.9004C51.4287 15.9173 51.6149 15.9215 51.7842 15.9131C51.9788 15.9046 52.1862 15.9004 52.4062 15.9004C52.6348 15.8919 52.8464 15.8835 53.041 15.875V14.0723C52.6263 14.0892 52.2285 14.1146 51.8477 14.1484C51.4668 14.1823 51.1198 14.2246 50.8066 14.2754ZM49.626 13.4248C49.0928 13.391 48.5934 13.3867 48.1279 13.4121C47.6624 13.429 47.2012 13.4544 46.7441 13.4883L46.8457 16.5352C46.8457 16.5775 46.8457 16.6283 46.8457 16.6875C46.8542 16.7383 46.8542 16.7933 46.8457 16.8525C47.3197 16.8441 47.7767 16.8314 48.2168 16.8145C48.6654 16.7891 49.097 16.7594 49.5117 16.7256L49.626 13.4248ZM51.6699 18.8965C52 18.9388 52.3005 19.0277 52.5713 19.1631C52.8506 19.29 53.0876 19.4508 53.2822 19.6455C53.4854 19.8317 53.6419 20.0475 53.752 20.293C53.862 20.5299 53.917 20.7839 53.917 21.0547C53.917 21.3678 53.8451 21.6556 53.7012 21.918C53.5658 22.1888 53.3711 22.4215 53.1172 22.6162C52.8717 22.8193 52.5755 22.9759 52.2285 23.0859C51.89 23.196 51.5218 23.251 51.124 23.251C50.7178 23.251 50.3454 23.196 50.0068 23.0859C49.6683 22.9759 49.3763 22.8193 49.1309 22.6162C48.8854 22.4215 48.6908 22.1888 48.5469 21.918C48.4115 21.6556 48.3438 21.3678 48.3438 21.0547C48.3438 20.7754 48.3988 20.513 48.5088 20.2676C48.6273 20.0137 48.7923 19.7894 49.0039 19.5947C49.2155 19.4001 49.4652 19.2435 49.7529 19.125C50.0492 18.998 50.3708 18.9176 50.7178 18.8838C50.7008 18.7822 50.6543 18.7018 50.5781 18.6426C50.502 18.5749 50.3665 18.5114 50.1719 18.4521L50.375 18.0713C50.4766 18.0882 50.5866 18.1094 50.7051 18.1348C50.832 18.1602 50.959 18.1855 51.0859 18.2109C51.2214 18.2363 51.3525 18.266 51.4795 18.2998C51.6149 18.3252 51.7334 18.3506 51.835 18.376C51.8096 18.4437 51.7799 18.5241 51.7461 18.6172C51.7122 18.7018 51.6868 18.7949 51.6699 18.8965ZM52.6602 20.9785C52.6602 20.7669 52.6178 20.568 52.5332 20.3818C52.457 20.1872 52.347 20.0221 52.2031 19.8867C52.0677 19.7428 51.9027 19.6328 51.708 19.5566C51.5218 19.472 51.3229 19.4297 51.1113 19.4297C50.8997 19.4297 50.7008 19.472 50.5146 19.5566C50.3285 19.6328 50.1634 19.7428 50.0195 19.8867C49.8841 20.0221 49.7741 20.1872 49.6895 20.3818C49.6048 20.568 49.5625 20.7669 49.5625 20.9785C49.5625 21.1986 49.6048 21.4059 49.6895 21.6006C49.7741 21.7868 49.8841 21.9476 50.0195 22.083C50.1634 22.2269 50.3285 22.3369 50.5146 22.4131C50.7008 22.4893 50.8997 22.5273 51.1113 22.5273C51.3229 22.5273 51.5218 22.4893 51.708 22.4131C51.9027 22.3369 52.0677 22.2269 52.2031 22.083C52.347 21.9476 52.457 21.7868 52.5332 21.6006C52.6178 21.4059 52.6602 21.1986 52.6602 20.9785Z" fill="#BABABA"/>
<path d="M40.752 21.8164C40.8451 21.7995 40.9297 21.791 41.0059 21.791C41.0905 21.7826 41.1667 21.7741 41.2344 21.7656L41.0186 22.6924C40.7139 22.667 40.3415 22.6501 39.9014 22.6416C39.4697 22.6331 39.0127 22.6247 38.5303 22.6162C38.0563 22.6162 37.5824 22.6204 37.1084 22.6289C36.6429 22.6374 36.2197 22.6501 35.8389 22.667C35.8304 22.7347 35.8219 22.8066 35.8135 22.8828C35.805 22.9674 35.7923 23.0521 35.7754 23.1367L34.9629 23.2764C34.8952 22.9886 34.8529 22.7516 34.8359 22.5654C34.819 22.3792 34.7979 22.1761 34.7725 21.9561L34.6201 20.1152C34.6117 19.9629 34.5947 19.8402 34.5693 19.7471C34.5524 19.6455 34.5143 19.5651 34.4551 19.5059C34.4043 19.4466 34.3239 19.3958 34.2139 19.3535C34.1038 19.3027 33.9515 19.252 33.7568 19.2012L33.9727 18.7441C34.4805 18.8118 35.001 18.8584 35.5342 18.8838C36.0674 18.9092 36.6133 18.9219 37.1719 18.9219C37.1634 18.7272 37.1592 18.5199 37.1592 18.2998C37.1592 18.0713 37.1592 17.8809 37.1592 17.7285V17.4365C36.8122 17.445 36.4736 17.4535 36.1436 17.4619C35.8135 17.4704 35.5046 17.4788 35.2168 17.4873C34.929 17.4958 34.6709 17.5085 34.4424 17.5254C34.2223 17.5339 34.0446 17.5423 33.9092 17.5508C33.596 17.5677 33.2533 17.5973 32.8809 17.6396C32.5085 17.6735 32.1742 17.7116 31.8779 17.7539L31.4463 16.624C31.8271 16.6748 32.2334 16.7171 32.665 16.751C33.1051 16.7764 33.5156 16.7975 33.8965 16.8145C34.0996 16.8229 34.3704 16.8271 34.709 16.8271C35.0475 16.8271 35.4157 16.8271 35.8135 16.8271C36.2197 16.8187 36.6387 16.8102 37.0703 16.8018C37.5104 16.7848 37.9294 16.7721 38.3271 16.7637C38.7249 16.7552 39.0931 16.7467 39.4316 16.7383C39.7702 16.7214 40.041 16.7087 40.2441 16.7002C40.8112 16.6663 41.3867 16.624 41.9707 16.5732C42.5547 16.5225 43.0794 16.4674 43.5449 16.4082L43.3799 17.4492C43.2106 17.4408 43.0117 17.4323 42.7832 17.4238C42.5632 17.4154 42.3219 17.4111 42.0596 17.4111C41.7972 17.4027 41.5264 17.3942 41.2471 17.3857C40.9678 17.3773 40.6885 17.373 40.4092 17.373C40.1807 17.373 39.8929 17.3773 39.5459 17.3857C39.1989 17.3857 38.8138 17.3942 38.3906 17.4111V17.5508C38.3906 17.7708 38.3822 17.9993 38.3652 18.2363C38.3483 18.4733 38.3271 18.6934 38.3018 18.8965C38.7926 18.8796 39.2708 18.8584 39.7363 18.833C40.2018 18.7992 40.6589 18.7611 41.1074 18.7188C41.082 18.9388 41.0524 19.18 41.0186 19.4424C40.9932 19.7048 40.9635 19.9756 40.9297 20.2549C40.8958 20.5257 40.862 20.7965 40.8281 21.0674C40.8027 21.3382 40.7773 21.5879 40.752 21.8164ZM39.7617 19.5439C39.4993 19.5355 39.1904 19.5312 38.835 19.5312C38.4795 19.5228 38.1198 19.5228 37.7559 19.5312C37.3919 19.5397 37.0407 19.5524 36.7021 19.5693C36.3636 19.5778 36.0801 19.5905 35.8516 19.6074L35.877 21.7148V22.0068C36.4609 21.9984 37.0957 21.9814 37.7812 21.9561C38.4668 21.9391 39.1143 21.9137 39.7236 21.8799L39.7617 19.5439ZM41.4629 15.4053C40.9466 15.3883 40.3838 15.3799 39.7744 15.3799C39.1735 15.3799 38.5768 15.3841 37.9844 15.3926C37.4004 15.401 36.8418 15.418 36.3086 15.4434C35.7754 15.4603 35.3184 15.4772 34.9375 15.4941C34.6413 15.5111 34.4255 15.4307 34.29 15.2529C34.1631 15.0752 34.0996 14.8551 34.0996 14.5928V13.0439C34.0996 12.8662 34.0827 12.7223 34.0488 12.6123C34.015 12.4938 33.9515 12.3965 33.8584 12.3203C33.7738 12.2357 33.651 12.168 33.4902 12.1172C33.3294 12.0579 33.1221 12.0029 32.8682 11.9521L33.084 11.4697C33.2025 11.4867 33.3633 11.5078 33.5664 11.5332C33.778 11.5501 33.9938 11.5713 34.2139 11.5967C34.4339 11.6221 34.6497 11.6475 34.8613 11.6729C35.0729 11.6982 35.2464 11.7236 35.3818 11.749C35.3649 11.859 35.3438 12.0156 35.3184 12.2188C35.3014 12.4219 35.293 12.5954 35.293 12.7393V14.3135C35.293 14.4827 35.3226 14.6055 35.3818 14.6816C35.4495 14.7578 35.568 14.8001 35.7373 14.8086C36.0589 14.8171 36.4694 14.8128 36.9688 14.7959C37.4766 14.7705 38.0098 14.7367 38.5684 14.6943C39.127 14.652 39.6771 14.6055 40.2188 14.5547C40.7604 14.5039 41.2301 14.4489 41.6279 14.3896L41.4629 15.4053Z" fill="#BABABA"/>
<path d="M27.5107 12.5615C27.5107 12.2992 27.388 12.0876 27.1426 11.9268C26.9056 11.7575 26.5078 11.6051 25.9492 11.4697L26.1396 11C26.3512 11.0254 26.5798 11.0592 26.8252 11.1016C27.0791 11.1354 27.3288 11.1777 27.5742 11.2285C27.8197 11.2708 28.0524 11.3132 28.2725 11.3555C28.4925 11.3978 28.6829 11.4316 28.8438 11.457C28.8268 11.5332 28.8099 11.6263 28.793 11.7363C28.776 11.8464 28.7591 11.9606 28.7422 12.0791C28.7337 12.1891 28.7253 12.2907 28.7168 12.3838C28.7083 12.4769 28.7041 12.5446 28.7041 12.5869V16.1416C29.068 16.1077 29.4827 16.0654 29.9482 16.0146C30.4222 15.9639 30.8538 15.9046 31.2432 15.8369L31.1035 16.8652C30.9512 16.8568 30.7734 16.8525 30.5703 16.8525C30.3757 16.8525 30.1683 16.8525 29.9482 16.8525C29.7367 16.8525 29.5208 16.8525 29.3008 16.8525C29.0807 16.8525 28.8818 16.8525 28.7041 16.8525V19.6201C28.7041 19.8825 28.6999 20.1872 28.6914 20.5342C28.6829 20.8727 28.6702 21.2155 28.6533 21.5625C28.6364 21.901 28.6152 22.2227 28.5898 22.5273C28.5645 22.8405 28.5348 23.0902 28.501 23.2764L27.625 23.3906C27.6081 23.2552 27.5911 23.0732 27.5742 22.8447C27.5658 22.6162 27.5531 22.3708 27.5361 22.1084C27.5277 21.8545 27.5192 21.5921 27.5107 21.3213C27.5107 21.042 27.5107 20.7796 27.5107 20.5342V17.8936C27.1299 18.0459 26.7025 18.2025 26.2285 18.3633C25.763 18.5156 25.2806 18.6637 24.7812 18.8076C24.2904 18.9515 23.8037 19.0827 23.3213 19.2012C22.8473 19.3112 22.4157 19.3958 22.0264 19.4551C21.5778 19.5228 21.2562 19.472 21.0615 19.3027C20.8753 19.125 20.7822 18.833 20.7822 18.4268V14.5547C20.7822 14.4193 20.7653 14.3092 20.7314 14.2246C20.7061 14.1315 20.6468 14.0511 20.5537 13.9834C20.4606 13.9157 20.3294 13.8564 20.1602 13.8057C19.9993 13.7549 19.7793 13.7041 19.5 13.6533L19.665 13.1836C20.0882 13.2005 20.5199 13.2386 20.96 13.2979C21.4085 13.3486 21.7979 13.4036 22.1279 13.4629C22.111 13.5391 22.0941 13.6322 22.0771 13.7422C22.0602 13.8522 22.0433 13.9622 22.0264 14.0723C22.0179 14.1823 22.0094 14.2839 22.001 14.377C21.9925 14.4701 21.9883 14.5378 21.9883 14.5801V18.1602C21.9883 18.304 22.0094 18.4056 22.0518 18.4648C22.1025 18.5156 22.1702 18.5368 22.2549 18.5283C22.5426 18.5114 22.9023 18.4648 23.334 18.3887C23.7741 18.3125 24.2396 18.2194 24.7305 18.1094C25.2214 17.9993 25.708 17.8766 26.1904 17.7412C26.6813 17.6058 27.1214 17.4746 27.5107 17.3477V12.5615Z" fill="#BABABA"/>
</svg>
