<svg width="80" height="35" viewBox="0 0 80 35" fill="none" xmlns="http://www.w3.org/2000/svg">
<rect width="80" height="35" rx="17.5" fill="#2D2D2D"/>
<path d="M56.7059 20.352V22.26H62.4299V17.016H60.6419V15.456H62.4299V12.408H64.1219V23.76H55.0259V20.352H56.7059ZM58.3619 12V12.804H60.5579V14.388H59.4299C59.8979 14.784 60.1979 15.3 60.1979 15.876V16.8C60.1979 17.988 58.9259 18.96 57.4739 18.96C56.0099 18.96 54.8219 17.988 54.8219 16.8V15.924C54.8219 15.288 55.1219 14.76 55.5659 14.388H54.4619V12.804H56.6819V12H58.3619ZM58.6499 16.452V16.2C58.6499 15.648 58.1459 15.192 57.5219 15.192C56.8979 15.192 56.3819 15.648 56.3819 16.2V16.452C56.3819 17.016 56.8979 17.46 57.5219 17.46C58.1459 17.46 58.6499 17.016 58.6499 16.452Z" fill="#BABABA"/>
<path d="M42.7031 22.1878H46.9631V18.8998H43.2791V12.4678H52.4591V14.0518H45.0911V17.3038H52.4591V18.8998H48.7631V22.1878H53.0231V23.7598H42.7031V22.1878Z" fill="#BABABA"/>
<path d="M33.8436 12.4682V18.7802H27.6396V12.4682H33.8436ZM29.8716 20.0882V22.1402H35.5236V12.4082H37.2396V23.7602H28.1436V20.0882H29.8716ZM32.1396 17.1482V14.1002H29.3196V17.1482H32.1396Z" fill="#BABABA"/>
<path d="M20.764 12.4682V23.7002H16V12.4682H17.656V16.4402H19.108V12.4682H20.764ZM25.948 12.4082V23.7602H24.28V18.0242H23.356V23.7602H21.736V12.4082H23.356V16.4402H24.28V12.4082H25.948ZM17.656 22.0682H19.108V18.0722H17.656V22.0682Z" fill="#BABABA"/>
</svg>
