<svg width="113" height="35" viewBox="0 0 113 35" fill="none" xmlns="http://www.w3.org/2000/svg">
<rect width="113" height="35" rx="17.5" fill="#444444"/>
<path d="M96.413 13.0559C96.413 13.0126 96.426 12.9779 96.452 12.9519C96.4867 12.9172 96.5257 12.8999 96.569 12.8999H97.765C97.8084 12.8999 97.843 12.9172 97.869 12.9519C97.9037 12.9779 97.921 13.0126 97.921 13.0559V21.8439C97.921 21.8872 97.9037 21.9262 97.869 21.9609C97.843 21.9869 97.8084 21.9999 97.765 21.9999H96.569C96.5257 21.9999 96.4867 21.9869 96.452 21.9609C96.426 21.9262 96.413 21.8872 96.413 21.8439V21.6879C96.413 21.6619 96.4044 21.6446 96.387 21.6359C96.3697 21.6272 96.3524 21.6316 96.335 21.6489C96.023 21.9522 95.633 22.1039 95.165 22.1039C94.5844 22.1039 94.1337 21.9132 93.813 21.5319C93.4924 21.1506 93.332 20.6392 93.332 19.9979V17.3589C93.332 16.7002 93.4924 16.1846 93.813 15.8119C94.1424 15.4392 94.593 15.2529 95.165 15.2529C95.3644 15.2529 95.568 15.2919 95.776 15.3699C95.984 15.4392 96.1704 15.5562 96.335 15.7209C96.3524 15.7382 96.3697 15.7426 96.387 15.7339C96.4044 15.7252 96.413 15.7079 96.413 15.6819V13.0559ZM95.633 20.8039C95.841 20.8039 96.0144 20.7389 96.153 20.6089C96.2917 20.4702 96.3784 20.2882 96.413 20.0629V17.2939C96.3784 17.0686 96.2917 16.8909 96.153 16.7609C96.0144 16.6222 95.841 16.5529 95.633 16.5529C95.3904 16.5529 95.1954 16.6396 95.048 16.8129C94.9007 16.9776 94.827 17.1986 94.827 17.4759V19.8809C94.827 20.1582 94.9007 20.3836 95.048 20.5569C95.1954 20.7216 95.3904 20.8039 95.633 20.8039Z" fill="#EFFC35"/>
<path d="M92.3989 19.0749C92.3989 19.1183 92.3815 19.1573 92.3469 19.1919C92.3209 19.2179 92.2862 19.2309 92.2429 19.2309H89.3699C89.3265 19.2309 89.3049 19.2526 89.3049 19.2959V19.8809C89.3049 20.1496 89.3785 20.3706 89.5259 20.5439C89.6732 20.7173 89.8639 20.8039 90.0979 20.8039C90.2972 20.8039 90.4662 20.7433 90.6049 20.6219C90.7522 20.4919 90.8475 20.3273 90.8909 20.1279C90.9169 20.0413 90.9732 19.9979 91.0599 19.9979L92.2169 20.0499C92.2602 20.0499 92.2949 20.0673 92.3209 20.1019C92.3555 20.1279 92.3685 20.1669 92.3599 20.2189C92.2992 20.8256 92.0782 21.2936 91.6969 21.6229C91.3155 21.9436 90.7825 22.1039 90.0979 22.1039C89.3872 22.1039 88.8239 21.9176 88.4079 21.5449C88.0005 21.1636 87.7969 20.6479 87.7969 19.9979V17.3589C87.7969 16.7263 88.0005 16.2193 88.4079 15.8379C88.8239 15.4479 89.3872 15.2529 90.0979 15.2529C90.8085 15.2529 91.3675 15.4479 91.7749 15.8379C92.1909 16.2193 92.3989 16.7263 92.3989 17.3589V19.0749ZM90.0979 16.5529C89.8639 16.5529 89.6732 16.6396 89.5259 16.8129C89.3785 16.9863 89.3049 17.2073 89.3049 17.4759V18.0609C89.3049 18.1043 89.3265 18.1259 89.3699 18.1259H90.8389C90.8822 18.1259 90.9039 18.1043 90.9039 18.0609V17.4759C90.9039 17.1986 90.8302 16.9776 90.6829 16.8129C90.5355 16.6396 90.3405 16.5529 90.0979 16.5529Z" fill="#EFFC35"/>
<path d="M84.7627 22.0778C84.078 22.0778 83.532 21.9131 83.1247 21.5838C82.7173 21.2545 82.5137 20.8081 82.5137 20.2448V20.1538C82.5137 20.1105 82.5267 20.0758 82.5527 20.0498C82.5873 20.0151 82.6263 19.9978 82.6697 19.9978H83.7877C83.831 19.9978 83.8657 20.0151 83.8917 20.0498C83.9263 20.0758 83.9437 20.1105 83.9437 20.1538V20.2188C83.9437 20.4268 84.0217 20.6001 84.1777 20.7388C84.3423 20.8775 84.5417 20.9468 84.7757 20.9468C85.001 20.9468 85.1787 20.8818 85.3087 20.7518C85.4387 20.6218 85.5037 20.4571 85.5037 20.2578C85.5037 20.0845 85.4473 19.9415 85.3347 19.8288C85.222 19.7075 85.1007 19.6165 84.9707 19.5558C84.8407 19.4951 84.6067 19.3955 84.2687 19.2568C83.7747 19.0661 83.3673 18.8235 83.0467 18.5288C82.7347 18.2341 82.5787 17.7965 82.5787 17.2158C82.5787 16.6091 82.7693 16.1368 83.1507 15.7988C83.5407 15.4521 84.065 15.2788 84.7237 15.2788C85.3997 15.2788 85.9327 15.4608 86.3227 15.8248C86.7213 16.1801 86.9207 16.6611 86.9207 17.2678C86.9207 17.3111 86.9033 17.3501 86.8687 17.3848C86.8427 17.4108 86.808 17.4238 86.7647 17.4238H85.6727C85.6293 17.4238 85.5903 17.4108 85.5557 17.3848C85.5297 17.3501 85.5167 17.3111 85.5167 17.2678V17.1898C85.5167 16.9818 85.443 16.8085 85.2957 16.6698C85.157 16.5311 84.9793 16.4618 84.7627 16.4618C84.5373 16.4618 84.3553 16.5355 84.2167 16.6828C84.0867 16.8215 84.0217 16.9905 84.0217 17.1898C84.0217 17.3545 84.0737 17.4931 84.1777 17.6058C84.2817 17.7185 84.3987 17.8095 84.5287 17.8788C84.6587 17.9395 84.8753 18.0348 85.1787 18.1648C85.5427 18.3121 85.846 18.4595 86.0887 18.6068C86.34 18.7455 86.5567 18.9491 86.7387 19.2178C86.9293 19.4778 87.0247 19.8028 87.0247 20.1928C87.0247 20.7735 86.821 21.2328 86.4137 21.5708C86.0063 21.9088 85.456 22.0778 84.7627 22.0778Z" fill="#EFFC35"/>
<path d="M79.8558 15.2529C80.4191 15.2529 80.8438 15.4436 81.1298 15.8249C81.4245 16.1976 81.5718 16.7306 81.5718 17.4239V21.8439C81.5718 21.8873 81.5545 21.9263 81.5198 21.9609C81.4938 21.9869 81.4591 21.9999 81.4158 21.9999H80.2198C80.1765 21.9999 80.1375 21.9869 80.1028 21.9609C80.0768 21.9263 80.0638 21.8873 80.0638 21.8439V17.5409C80.0638 17.2289 79.9988 16.9863 79.8688 16.8129C79.7388 16.6396 79.5525 16.5529 79.3098 16.5529C79.0585 16.5529 78.8635 16.6439 78.7248 16.8259C78.5861 17.0079 78.5168 17.2593 78.5168 17.5799V21.8439C78.5168 21.8873 78.4995 21.9263 78.4648 21.9609C78.4388 21.9869 78.4041 21.9999 78.3608 21.9999H77.1648C77.1215 21.9999 77.0825 21.9869 77.0478 21.9609C77.0218 21.9263 77.0088 21.8873 77.0088 21.8439V15.5129C77.0088 15.4696 77.0218 15.4349 77.0478 15.4089C77.0825 15.3743 77.1215 15.3569 77.1648 15.3569H78.3608C78.4041 15.3569 78.4388 15.3743 78.4648 15.4089C78.4995 15.4349 78.5168 15.4696 78.5168 15.5129V15.7729C78.5168 15.7989 78.5255 15.8163 78.5428 15.8249C78.5688 15.8249 78.5948 15.8076 78.6208 15.7729C78.9155 15.4263 79.3271 15.2529 79.8558 15.2529Z" fill="#EFFC35"/>
<path d="M75.9711 19.0749C75.9711 19.1183 75.9538 19.1573 75.9191 19.1919C75.8931 19.2179 75.8585 19.2309 75.8151 19.2309H72.9421C72.8988 19.2309 72.8771 19.2526 72.8771 19.2959V19.8809C72.8771 20.1496 72.9508 20.3706 73.0981 20.5439C73.2455 20.7173 73.4361 20.8039 73.6701 20.8039C73.8695 20.8039 74.0385 20.7433 74.1771 20.6219C74.3245 20.4919 74.4198 20.3273 74.4631 20.1279C74.4891 20.0413 74.5455 19.9979 74.6321 19.9979L75.7891 20.0499C75.8325 20.0499 75.8671 20.0673 75.8931 20.1019C75.9278 20.1279 75.9408 20.1669 75.9321 20.2189C75.8715 20.8256 75.6505 21.2936 75.2691 21.6229C74.8878 21.9436 74.3548 22.1039 73.6701 22.1039C72.9595 22.1039 72.3961 21.9176 71.9801 21.5449C71.5728 21.1636 71.3691 20.6479 71.3691 19.9979V17.3589C71.3691 16.7263 71.5728 16.2193 71.9801 15.8379C72.3961 15.4479 72.9595 15.2529 73.6701 15.2529C74.3808 15.2529 74.9398 15.4479 75.3471 15.8379C75.7631 16.2193 75.9711 16.7263 75.9711 17.3589V19.0749ZM73.6701 16.5529C73.4361 16.5529 73.2455 16.6396 73.0981 16.8129C72.9508 16.9863 72.8771 17.2073 72.8771 17.4759V18.0609C72.8771 18.1043 72.8988 18.1259 72.9421 18.1259H74.4111C74.4545 18.1259 74.4761 18.1043 74.4761 18.0609V17.4759C74.4761 17.1986 74.4025 16.9776 74.2551 16.8129C74.1078 16.6396 73.9128 16.5529 73.6701 16.5529Z" fill="#EFFC35"/>
<path d="M68.7753 13.0559C68.7753 13.0126 68.7883 12.9779 68.8143 12.9519C68.849 12.9172 68.888 12.8999 68.9313 12.8999H70.1273C70.1707 12.8999 70.2053 12.9172 70.2313 12.9519C70.266 12.9779 70.2833 13.0126 70.2833 13.0559V21.8439C70.2833 21.8872 70.266 21.9262 70.2313 21.9609C70.2053 21.9869 70.1707 21.9999 70.1273 21.9999H68.9313C68.888 21.9999 68.849 21.9869 68.8143 21.9609C68.7883 21.9262 68.7753 21.8872 68.7753 21.8439V21.6879C68.7753 21.6619 68.7667 21.6446 68.7493 21.6359C68.732 21.6272 68.7147 21.6316 68.6973 21.6489C68.3853 21.9522 67.9953 22.1039 67.5273 22.1039C66.9467 22.1039 66.496 21.9132 66.1753 21.5319C65.8547 21.1506 65.6943 20.6392 65.6943 19.9979V17.3589C65.6943 16.7002 65.8547 16.1846 66.1753 15.8119C66.5047 15.4392 66.9553 15.2529 67.5273 15.2529C67.7267 15.2529 67.9303 15.2919 68.1383 15.3699C68.3463 15.4392 68.5327 15.5562 68.6973 15.7209C68.7147 15.7382 68.732 15.7426 68.7493 15.7339C68.7667 15.7252 68.7753 15.7079 68.7753 15.6819V13.0559ZM67.9953 20.8039C68.2033 20.8039 68.3767 20.7389 68.5153 20.6089C68.654 20.4702 68.7407 20.2882 68.7753 20.0629V17.2939C68.7407 17.0686 68.654 16.8909 68.5153 16.7609C68.3767 16.6222 68.2033 16.5529 67.9953 16.5529C67.7527 16.5529 67.5577 16.6396 67.4103 16.8129C67.263 16.9776 67.1893 17.1986 67.1893 17.4759V19.8809C67.1893 20.1582 67.263 20.3836 67.4103 20.5569C67.5577 20.7216 67.7527 20.8039 67.9953 20.8039Z" fill="#EFFC35"/>
<path d="M62.9329 15.2529C63.4963 15.2529 63.9209 15.4436 64.2069 15.8249C64.5016 16.1976 64.6489 16.7306 64.6489 17.4239V21.8439C64.6489 21.8873 64.6316 21.9263 64.5969 21.9609C64.5709 21.9869 64.5363 21.9999 64.4929 21.9999H63.2969C63.2536 21.9999 63.2146 21.9869 63.1799 21.9609C63.1539 21.9263 63.1409 21.8873 63.1409 21.8439V17.5409C63.1409 17.2289 63.0759 16.9863 62.9459 16.8129C62.8159 16.6396 62.6296 16.5529 62.3869 16.5529C62.1356 16.5529 61.9406 16.6439 61.8019 16.8259C61.6633 17.0079 61.5939 17.2593 61.5939 17.5799V21.8439C61.5939 21.8873 61.5766 21.9263 61.5419 21.9609C61.5159 21.9869 61.4813 21.9999 61.4379 21.9999H60.2419C60.1986 21.9999 60.1596 21.9869 60.1249 21.9609C60.0989 21.9263 60.0859 21.8873 60.0859 21.8439V15.5129C60.0859 15.4696 60.0989 15.4349 60.1249 15.4089C60.1596 15.3743 60.1986 15.3569 60.2419 15.3569H61.4379C61.4813 15.3569 61.5159 15.3743 61.5419 15.4089C61.5766 15.4349 61.5939 15.4696 61.5939 15.5129V15.7729C61.5939 15.7989 61.6026 15.8163 61.6199 15.8249C61.6459 15.8249 61.6719 15.8076 61.6979 15.7729C61.9926 15.4263 62.4043 15.2529 62.9329 15.2529Z" fill="#EFFC35"/>
<path d="M56.6841 22.1039C55.9648 22.1039 55.3971 21.9133 54.9811 21.5319C54.5738 21.1506 54.3701 20.6349 54.3701 19.9849V17.3719C54.3701 16.7306 54.5781 16.2193 54.9941 15.8379C55.4101 15.4479 55.9734 15.2529 56.6841 15.2529C57.4035 15.2529 57.9711 15.4479 58.3871 15.8379C58.8031 16.2193 59.0111 16.7306 59.0111 17.3719V19.9849C59.0111 20.6349 58.8031 21.1506 58.3871 21.5319C57.9798 21.9133 57.4121 22.1039 56.6841 22.1039ZM56.6841 20.7909C56.9268 20.7909 57.1218 20.7086 57.2691 20.5439C57.4251 20.3706 57.5031 20.1453 57.5031 19.8679V17.4759C57.5031 17.2073 57.4251 16.9863 57.2691 16.8129C57.1218 16.6396 56.9268 16.5529 56.6841 16.5529C56.4414 16.5529 56.2465 16.6396 56.0991 16.8129C55.9518 16.9776 55.8781 17.1986 55.8781 17.4759V19.8679C55.8781 20.1453 55.9518 20.3706 56.0991 20.5439C56.2465 20.7086 56.4414 20.7909 56.6841 20.7909Z" fill="#EFFC35"/>
<path d="M51.0133 22.1039C50.2767 22.1039 49.683 21.8829 49.2323 21.4409C48.7903 20.9902 48.5693 20.3966 48.5693 19.6599V15.2269C48.5693 14.4816 48.7903 13.8922 49.2323 13.4589C49.683 13.0169 50.2767 12.7959 51.0133 12.7959C51.7587 12.7959 52.3567 13.0169 52.8073 13.4589C53.258 13.8922 53.4833 14.4816 53.4833 15.2269V15.3829C53.4833 15.4262 53.466 15.4652 53.4313 15.4999C53.4053 15.5346 53.3707 15.5519 53.3273 15.5519L52.1183 15.6039C52.0143 15.6039 51.9623 15.5519 51.9623 15.4479V15.1229C51.9623 14.8196 51.8757 14.5726 51.7023 14.3819C51.529 14.1912 51.2993 14.0959 51.0133 14.0959C50.736 14.0959 50.5107 14.1912 50.3373 14.3819C50.164 14.5726 50.0773 14.8196 50.0773 15.1229V19.7769C50.0773 20.0802 50.164 20.3272 50.3373 20.5179C50.5107 20.7086 50.736 20.8039 51.0133 20.8039C51.2993 20.8039 51.529 20.7086 51.7023 20.5179C51.8757 20.3272 51.9623 20.0802 51.9623 19.7769V19.4519C51.9623 19.4086 51.9753 19.3739 52.0013 19.3479C52.036 19.3132 52.075 19.2959 52.1183 19.2959L53.3273 19.3479C53.3707 19.3479 53.4053 19.3652 53.4313 19.3999C53.466 19.4259 53.4833 19.4606 53.4833 19.5039V19.6599C53.4833 20.3966 53.258 20.9902 52.8073 21.4409C52.3567 21.8829 51.7587 22.1039 51.0133 22.1039Z" fill="#EFFC35"/>
<path d="M39.5346 21.9998C39.4393 21.9998 39.3829 21.9521 39.3656 21.8568L37.9746 15.5127V15.4607C37.9746 15.3827 38.0223 15.3438 38.1176 15.3438H39.2616C39.3656 15.3438 39.4219 15.3914 39.4306 15.4867L40.1066 19.5297C40.1153 19.5557 40.1283 19.5688 40.1456 19.5688C40.1629 19.5688 40.1759 19.5557 40.1846 19.5297L40.8996 15.4867C40.9083 15.3914 40.9646 15.3438 41.0686 15.3438H42.0826C42.1866 15.3438 42.2429 15.3914 42.2516 15.4867L42.9796 19.5428C42.9883 19.5688 43.0013 19.5817 43.0186 19.5817C43.0359 19.5817 43.0489 19.5688 43.0576 19.5428L43.7466 15.4867C43.7553 15.3914 43.8116 15.3438 43.9156 15.3438L45.0466 15.3697C45.1593 15.3697 45.2026 15.4261 45.1766 15.5387L43.7856 21.8568C43.7683 21.9521 43.7119 21.9998 43.6166 21.9998H42.4466C42.3426 21.9998 42.2863 21.9521 42.2776 21.8568L41.5886 18.0608C41.5799 18.0347 41.5669 18.0217 41.5496 18.0217C41.5323 18.0217 41.5193 18.0347 41.5106 18.0608L40.8346 21.8568C40.8259 21.9521 40.7696 21.9998 40.6656 21.9998H39.5346Z" fill="#EFFC35"/>
<path d="M35.1148 22.1039C34.3954 22.1039 33.8278 21.9133 33.4118 21.5319C33.0044 21.1506 32.8008 20.6349 32.8008 19.9849V17.3719C32.8008 16.7306 33.0088 16.2193 33.4248 15.8379C33.8408 15.4479 34.4041 15.2529 35.1148 15.2529C35.8341 15.2529 36.4018 15.4479 36.8178 15.8379C37.2338 16.2193 37.4418 16.7306 37.4418 17.3719V19.9849C37.4418 20.6349 37.2338 21.1506 36.8178 21.5319C36.4104 21.9133 35.8428 22.1039 35.1148 22.1039ZM35.1148 20.7909C35.3574 20.7909 35.5524 20.7086 35.6998 20.5439C35.8558 20.3706 35.9338 20.1453 35.9338 19.8679V17.4759C35.9338 17.2073 35.8558 16.9863 35.6998 16.8129C35.5524 16.6396 35.3574 16.5529 35.1148 16.5529C34.8721 16.5529 34.6771 16.6396 34.5298 16.8129C34.3824 16.9776 34.3088 17.1986 34.3088 17.4759V19.8679C34.3088 20.1453 34.3824 20.3706 34.5298 20.5439C34.6771 20.7086 34.8721 20.7909 35.1148 20.7909Z" fill="#EFFC35"/>
<path d="M30.4187 21.9999C30.3754 21.9999 30.3364 21.9869 30.3017 21.9609C30.2757 21.9262 30.2627 21.8872 30.2627 21.8439V13.0559C30.2627 13.0126 30.2757 12.9779 30.3017 12.9519C30.3364 12.9172 30.3754 12.8999 30.4187 12.8999H31.6147C31.658 12.8999 31.6927 12.9172 31.7187 12.9519C31.7534 12.9779 31.7707 13.0126 31.7707 13.0559V21.8439C31.7707 21.8872 31.7534 21.9262 31.7187 21.9609C31.6927 21.9869 31.658 21.9999 31.6147 21.9999H30.4187Z" fill="#EFFC35"/>
<path d="M28.9572 15.2788C29.1912 15.2788 29.3732 15.3221 29.5032 15.4088C29.5726 15.4521 29.5986 15.5171 29.5812 15.6038L29.3732 16.8128C29.3646 16.9168 29.3039 16.9471 29.1912 16.9038C29.0699 16.8691 28.9572 16.8518 28.8532 16.8518C28.7492 16.8518 28.6539 16.8648 28.5672 16.8908C28.3246 16.9255 28.1252 17.0641 27.9692 17.3068C27.8219 17.5408 27.7482 17.8225 27.7482 18.1518V21.8308C27.7482 21.8741 27.7309 21.9131 27.6962 21.9478C27.6702 21.9738 27.6356 21.9868 27.5922 21.9868H26.3962C26.3529 21.9868 26.3139 21.9738 26.2792 21.9478C26.2532 21.9131 26.2402 21.8741 26.2402 21.8308V15.5128C26.2402 15.4695 26.2532 15.4348 26.2792 15.4088C26.3139 15.3741 26.3529 15.3568 26.3962 15.3568H27.5922C27.6356 15.3568 27.6702 15.3741 27.6962 15.4088C27.7309 15.4348 27.7482 15.4695 27.7482 15.5128V16.1108C27.7482 16.1455 27.7569 16.1671 27.7742 16.1758C27.7916 16.1758 27.8046 16.1585 27.8132 16.1238C28.0472 15.5605 28.4286 15.2788 28.9572 15.2788Z" fill="#EFFC35"/>
<path d="M22.8648 15.2529C23.5495 15.2529 24.1042 15.4523 24.5288 15.8509C24.9535 16.2496 25.1658 16.7739 25.1658 17.4239V21.8439C25.1658 21.8873 25.1485 21.9263 25.1138 21.9609C25.0878 21.9869 25.0532 21.9999 25.0098 21.9999H23.8138C23.7705 21.9999 23.7315 21.9869 23.6968 21.9609C23.6708 21.9263 23.6578 21.8873 23.6578 21.8439V21.5969C23.6578 21.5709 23.6492 21.5536 23.6318 21.5449C23.6145 21.5363 23.5972 21.5449 23.5798 21.5709C23.2765 21.9263 22.8345 22.1039 22.2538 22.1039C21.7598 22.1039 21.3222 21.9653 20.9408 21.6879C20.5682 21.4019 20.3818 20.8863 20.3818 20.1409C20.3818 19.3609 20.6072 18.8063 21.0578 18.4769C21.5172 18.1476 22.1368 17.9829 22.9168 17.9829H23.5928C23.6362 17.9829 23.6578 17.9613 23.6578 17.9179V17.5799C23.6578 17.2679 23.5798 17.0209 23.4238 16.8389C23.2678 16.6483 23.0728 16.5529 22.8388 16.5529C22.6568 16.5529 22.5052 16.6136 22.3838 16.7349C22.2625 16.8476 22.1888 17.0036 22.1628 17.2029C22.1542 17.3069 22.0978 17.3589 21.9938 17.3589H20.7328C20.6288 17.3589 20.5812 17.3069 20.5898 17.2029C20.6332 16.6136 20.8628 16.1413 21.2788 15.7859C21.7035 15.4306 22.2322 15.2529 22.8648 15.2529ZM22.6698 20.8559C22.9298 20.8559 23.1595 20.7736 23.3588 20.6089C23.5582 20.4443 23.6578 20.2146 23.6578 19.9199V19.1789C23.6578 19.1356 23.6362 19.1139 23.5928 19.1139H22.9168C22.6222 19.1139 22.3838 19.1963 22.2018 19.3609C22.0198 19.5169 21.9288 19.7466 21.9288 20.0499C21.9288 20.3186 21.9982 20.5223 22.1368 20.6609C22.2755 20.7909 22.4532 20.8559 22.6698 20.8559Z" fill="#EFFC35"/>
<path d="M19.6551 19.5039C19.6551 20.3012 19.4211 20.9166 18.9531 21.3499C18.4938 21.7832 17.8915 21.9999 17.1461 21.9999H14.8581C14.8148 21.9999 14.7758 21.9869 14.7411 21.9609C14.7151 21.9262 14.7021 21.8872 14.7021 21.8439V13.0559C14.7021 13.0126 14.7151 12.9779 14.7411 12.9519C14.7758 12.9172 14.8148 12.8999 14.8581 12.8999H16.9121C17.7355 12.8999 18.3811 13.1079 18.8491 13.5239C19.3171 13.9399 19.5511 14.5466 19.5511 15.3439C19.5511 16.2366 19.2348 16.8736 18.6021 17.2549C18.5588 17.2809 18.5501 17.3069 18.5761 17.3329C18.9141 17.5496 19.1785 17.8399 19.3691 18.2039C19.5598 18.5679 19.6551 19.0012 19.6551 19.5039ZM16.2751 14.1999C16.2318 14.1999 16.2101 14.2216 16.2101 14.2649V16.6829C16.2101 16.7262 16.2318 16.7479 16.2751 16.7479H16.9381C17.2935 16.7479 17.5708 16.6396 17.7701 16.4229C17.9695 16.2062 18.0691 15.8986 18.0691 15.4999C18.0691 15.0839 17.9695 14.7632 17.7701 14.5379C17.5708 14.3126 17.2935 14.1999 16.9381 14.1999H16.2751ZM17.0291 20.6869C17.3758 20.6869 17.6488 20.5656 17.8481 20.3229C18.0475 20.0802 18.1471 19.7379 18.1471 19.2959C18.1471 18.8452 18.0475 18.4942 17.8481 18.2429C17.6488 17.9829 17.3758 17.8529 17.0291 17.8529H16.2751C16.2318 17.8529 16.2101 17.8746 16.2101 17.9179V20.6219C16.2101 20.6652 16.2318 20.6869 16.2751 20.6869H17.0291Z" fill="#EFFC35"/>
</svg>
