<svg width="103" height="35" viewBox="0 0 103 35" fill="none" xmlns="http://www.w3.org/2000/svg">
<rect width="103" height="35" rx="17.5" fill="#444444"/>
<path d="M79.8888 16.86H83.7168C84.6408 16.86 85.1808 16.74 85.5528 16.464V12H87.1968V18.552H85.5528V17.736C85.1808 18.06 84.5088 18.228 83.2608 18.228H78.2568V14.472H82.1688V13.488H78.2568V12.132H83.8008V15.84H79.8888V16.86ZM78.8928 19.056H87.1968V23.136H78.8928V19.056ZM80.5368 20.472V21.732H85.5528V20.472H80.5368Z" fill="#BABABA"/>
<path d="M68.6452 13.6319V17.1119H75.7972V18.5519H67.0012V12.1919H75.6892V13.6319H68.6452ZM66.4492 21.1079H76.2412V22.5359H66.4492V21.1079Z" fill="#BABABA"/>
<path d="M57.3789 17.664C57.3549 19.38 57.1749 20.7 56.5509 21.504C56.0949 22.104 55.3629 22.428 54.4989 22.428C53.6469 22.428 52.9149 22.104 52.4469 21.504C51.7749 20.628 51.6309 19.152 51.6309 17.22C51.6309 15.3 51.7749 13.824 52.4469 12.948C52.9149 12.348 53.6469 12.012 54.4989 12.012C55.3629 12.012 56.0949 12.348 56.5509 12.948C57.1029 13.668 57.3069 14.796 57.3669 16.236H58.9749V12H60.6189V23.016H58.9749V17.664H57.3789ZM53.2509 17.22C53.2509 18.852 53.3349 20.064 53.6949 20.604C53.8749 20.868 54.1629 21.012 54.4989 21.012C54.8349 21.012 55.1349 20.868 55.3149 20.604C55.6749 20.064 55.7469 18.852 55.7469 17.22C55.7469 15.6 55.6749 14.388 55.3149 13.848C55.1349 13.584 54.8349 13.44 54.4989 13.44C54.1629 13.44 53.8749 13.584 53.6949 13.848C53.3349 14.388 53.2509 15.6 53.2509 17.22Z" fill="#BABABA"/>
<path d="M47.4788 16.7639C46.5428 16.9559 45.4628 17.0039 44.1668 17.0039H40.4348V15.5759H44.1908C45.4028 15.5759 46.5548 15.5519 47.4788 15.3959V13.6319H40.4348V12.1919H49.1228V16.3439C49.1228 17.6879 48.9908 18.9719 48.8228 19.8479H47.1908C47.3588 18.9959 47.4668 17.7839 47.4788 16.7639ZM39.8828 21.1079H43.0148V17.9639H44.6588V21.1079H49.6748V22.5359H39.8828V21.1079Z" fill="#BABABA"/>
<path d="M33.2473 16.1158C32.4553 17.2678 30.8593 18.3958 28.5313 18.8038V17.3638C31.0513 16.7758 32.4193 15.2878 32.4193 12.8878V12.1318H34.0633V12.8878C34.0633 15.2878 35.4433 16.7758 37.9633 17.3638V18.8038C35.6353 18.3958 34.0393 17.2678 33.2473 16.1158ZM28.3633 21.1078H38.1553V22.5358H28.3633V21.1078Z" fill="#BABABA"/>
<path d="M18.584 17.22C18.584 19.476 18.632 20.436 18.86 20.808C18.956 20.952 19.088 21.012 19.232 21.012C19.388 21.012 19.52 20.952 19.604 20.808C19.844 20.436 19.892 19.476 19.892 17.22C19.892 14.976 19.844 14.016 19.604 13.644C19.52 13.5 19.388 13.44 19.232 13.44C19.088 13.44 18.956 13.5 18.86 13.644C18.632 14.016 18.584 14.976 18.584 17.22ZM17 17.22C17 14.532 17.216 13.26 17.84 12.564C18.152 12.204 18.62 12.012 19.232 12.012C19.856 12.012 20.312 12.204 20.636 12.564C21.164 13.164 21.404 14.208 21.464 16.224H22.388V12.06H23.972V22.884H22.388V17.664H21.476C21.452 20.064 21.212 21.228 20.636 21.888C20.312 22.248 19.856 22.428 19.232 22.428C18.62 22.428 18.152 22.248 17.84 21.888C17.216 21.192 17 19.92 17 17.22ZM24.62 23.016V12H26.216V23.016H24.62Z" fill="#BABABA"/>
</svg>
