<svg width="104" height="35" viewBox="0 0 104 35" fill="none" xmlns="http://www.w3.org/2000/svg">
<rect width="104" height="35" rx="17.5" fill="#444444"/>
<path d="M85.3047 17.5458V21.0218H83.7757V17.0398C83.7757 16.2698 83.4567 15.8958 82.8407 15.8958C82.0487 15.8958 81.5427 16.4678 81.5427 17.5458V21.0218H80.0137V14.8068H81.5427V15.8628C81.7737 15.1368 82.3457 14.6528 83.2477 14.6528C84.1607 14.6528 84.8317 15.0928 85.1177 15.8958C85.5027 15.0268 86.1737 14.6528 87.0097 14.6528C88.3297 14.6528 89.0667 15.5328 89.0667 17.1058V21.0218H87.5377V17.0398C87.5377 16.2698 87.2077 15.8958 86.6027 15.8958C85.8107 15.8958 85.3047 16.4678 85.3047 17.5458Z" fill="#EFFC35"/>
<path d="M77.2761 20.3288C77.0891 20.8128 76.4841 21.1758 75.5821 21.1758C74.2071 21.1758 73.3271 20.4608 73.3271 19.2068C73.3271 17.9528 74.1961 17.2268 75.5821 17.2268C76.3741 17.2268 77.0561 17.5238 77.2761 18.0738V17.0068C77.2761 16.2698 76.9241 15.8848 76.1651 15.8848C75.5271 15.8848 75.1641 16.1598 75.0981 16.6768H73.5581C73.6571 15.4668 74.5261 14.6528 76.1651 14.6528C77.9472 14.6528 78.8051 15.5988 78.8051 17.0068V20.1528C78.8051 20.4828 78.8601 20.8128 78.9481 21.0218H77.3862C77.3202 20.8678 77.2871 20.5818 77.2761 20.3288ZM76.0662 20.0648C76.8582 20.0648 77.2761 19.7788 77.2761 19.2068C77.2761 18.6238 76.8692 18.3378 76.0662 18.3378C75.2632 18.3378 74.8561 18.6238 74.8561 19.2068C74.8561 19.7788 75.2632 20.0648 76.0662 20.0648Z" fill="#EFFC35"/>
<path d="M72.5153 18.3598H68.4013C68.4343 19.3938 68.8413 19.9658 69.6883 19.9658C70.3043 19.9658 70.7333 19.6688 70.8323 19.1298H72.3833C72.1743 20.4388 71.1953 21.1758 69.6883 21.1758C67.7963 21.1758 66.8613 19.9768 66.8613 17.9088C66.8613 15.8628 67.7963 14.6528 69.6883 14.6528C71.5913 14.6528 72.5153 15.8628 72.5153 17.9088V18.3598ZM69.6883 15.8628C68.8633 15.8628 68.4673 16.3908 68.4233 17.3038H70.9643C70.8983 16.3908 70.5023 15.8628 69.6883 15.8628Z" fill="#EFFC35"/>
<path d="M65.843 15.9288C64.82 15.9288 64.237 16.5778 64.237 17.8318V21.0218H62.708V14.8068H64.237V15.9288C64.446 15.0818 64.952 14.6528 65.898 14.6528C66.085 14.6528 66.261 14.6748 66.393 14.7078L66.371 15.9508C66.272 15.9398 66.063 15.9288 65.843 15.9288Z" fill="#EFFC35"/>
<path d="M59.9913 16.6658C59.9913 14.3668 59.4303 13.6958 58.0993 13.6958H56.6473V19.6468H58.0993C59.4413 19.6468 59.9913 18.9868 59.9913 16.6658ZM61.5973 16.6658C61.5973 18.9098 61.0913 21.0218 58.2203 21.0218H55.0303V12.3208H58.2203C61.1133 12.3208 61.5973 14.4878 61.5973 16.6658Z" fill="#EFFC35"/>
<path d="M50.6765 18.3598H46.5625C46.5955 19.3938 47.0025 19.9658 47.8495 19.9658C48.4655 19.9658 48.8945 19.6688 48.9935 19.1298H50.5445C50.3355 20.4388 49.3565 21.1758 47.8495 21.1758C45.9575 21.1758 45.0225 19.9768 45.0225 17.9088C45.0225 15.8628 45.9575 14.6528 47.8495 14.6528C49.7525 14.6528 50.6765 15.8628 50.6765 17.9088V18.3598ZM47.8495 15.8628C47.0245 15.8628 46.6285 16.3908 46.5845 17.3038H49.1255C49.0595 16.3908 48.6635 15.8628 47.8495 15.8628Z" fill="#EFFC35"/>
<path d="M44.0041 15.9288C42.9811 15.9288 42.3981 16.5778 42.3981 17.8318V21.0218H40.8691V14.8068H42.3981V15.9288C42.6071 15.0818 43.1131 14.6528 44.0591 14.6528C44.2461 14.6528 44.4221 14.6748 44.5541 14.7078L44.5321 15.9508C44.4331 15.9398 44.2241 15.9288 44.0041 15.9288Z" fill="#EFFC35"/>
<path d="M39.8483 17.9088C39.8483 19.9768 38.9243 21.1758 37.0213 21.1758C35.1293 21.1758 34.1943 19.9768 34.1943 17.9088C34.1943 15.8628 35.1293 14.6528 37.0213 14.6528C38.9243 14.6528 39.8483 15.8628 39.8483 17.9088ZM35.7233 17.9088C35.7233 19.1958 36.0423 19.9438 37.0213 19.9438C38.0113 19.9438 38.3193 19.1958 38.3193 17.9088C38.3193 16.6328 38.0113 15.8958 37.0213 15.8958C36.0423 15.8958 35.7233 16.6328 35.7233 17.9088Z" fill="#EFFC35"/>
<path d="M26.5156 16.666C26.5156 15.456 26.6586 14.279 27.2966 13.388C27.8466 12.629 28.6936 12.167 29.9696 12.167C32.0156 12.167 33.2366 13.421 33.3246 15.258H31.7186C31.6636 14.202 31.0476 13.553 29.9696 13.553C29.3316 13.553 28.8806 13.795 28.5946 14.213C28.2756 14.686 28.1216 15.357 28.1216 16.666C28.1216 17.997 28.2756 18.657 28.5946 19.141C28.8806 19.559 29.3316 19.801 29.9696 19.801C31.0476 19.801 31.6636 19.152 31.7186 18.096H33.3246C33.2366 19.933 32.0156 21.176 29.9696 21.176C28.6936 21.176 27.8466 20.725 27.2966 19.966C26.6586 19.075 26.5156 17.887 26.5156 16.666Z" fill="#EFFC35"/>
<path d="M21.5635 17.634V16.314H25.5015V17.634H21.5635Z" fill="#EFFC35"/>
<path d="M20.6659 18.547C20.6659 20.087 19.5329 21.176 17.5859 21.176C15.6499 21.176 14.5059 20.098 14.5059 18.558V18.415H16.1119V18.602C16.1119 19.328 16.6729 19.823 17.5859 19.823C18.4989 19.823 19.0599 19.328 19.0599 18.602C19.0599 17.964 18.6529 17.524 17.8389 17.359L16.7829 17.139C15.3749 16.853 14.5059 16.072 14.5059 14.653C14.5059 13.3 15.4959 12.167 17.4209 12.167C19.3459 12.167 20.3469 13.311 20.3469 14.642V14.763H18.7299V14.642C18.7299 13.993 18.2679 13.531 17.4209 13.531C16.5629 13.531 16.1119 13.993 16.1119 14.642C16.1119 15.291 16.4969 15.61 17.3329 15.786L18.3779 16.006C19.8299 16.303 20.6659 17.15 20.6659 18.547Z" fill="#EFFC35"/>
</svg>
