<svg width="99" height="35" viewBox="0 0 99 35" fill="none" xmlns="http://www.w3.org/2000/svg">
<rect width="99" height="35" rx="17.5" fill="#444444"/>
<path d="M83.7031 19.5938C83.7031 19.7031 83.7148 19.8164 83.7383 19.9336C83.7695 20.0508 83.8047 20.1641 83.8438 20.2734C83.8828 20.375 83.9219 20.4688 83.9609 20.5547C84 20.6406 84.0312 20.707 84.0547 20.7539C84.0781 20.8008 84.0898 20.8555 84.0898 20.918C84.0898 21.043 84.0352 21.1367 83.9258 21.1992C83.8945 21.2148 83.8672 21.2266 83.8438 21.2344C83.8203 21.2422 83.793 21.2461 83.7617 21.2461C83.6367 21.2461 83.543 21.1875 83.4805 21.0703C83.4727 21.0625 83.4453 21.0156 83.3984 20.9297C83.3516 20.8359 83.3008 20.7188 83.2461 20.5781C83.1992 20.4375 83.1523 20.2812 83.1055 20.1094C83.0664 19.9375 83.0469 19.7656 83.0469 19.5938C83.0469 19.5547 83.043 19.5117 83.0352 19.4648C83.0352 19.4102 83.0312 19.3516 83.0234 19.2891C83.0156 19.1797 83.0078 19.0625 83 18.9375C82.9922 18.8047 82.9883 18.6484 82.9883 18.4688C82.9883 18.3516 82.9805 18.2305 82.9648 18.1055C82.9492 17.9727 82.9336 17.8281 82.918 17.6719C82.8945 17.4766 82.8711 17.2695 82.8477 17.0508C82.832 16.8242 82.8242 16.5859 82.8242 16.3359C82.8242 16.1797 82.7891 16.0117 82.7188 15.832C82.6562 15.6445 82.5625 15.4727 82.4375 15.3164C82.3125 15.1602 82.1562 15.0312 81.9688 14.9297C81.7891 14.8281 81.5781 14.7773 81.3359 14.7773C81.0312 14.7773 80.7578 14.8359 80.5156 14.9531C80.2812 15.0625 80.0781 15.2031 79.9062 15.375C79.7344 15.5469 79.5859 15.7344 79.4609 15.9375C79.3438 16.1328 79.25 16.3203 79.1797 16.5C79.1094 16.6719 79.0547 16.8203 79.0156 16.9453C78.9844 17.0703 78.9688 17.1406 78.9688 17.1562C78.9453 17.2266 78.9141 17.2812 78.875 17.3203V17.5312C78.875 17.7188 78.9023 17.9336 78.957 18.1758C79.0117 18.418 79.0742 18.6758 79.1445 18.9492C79.2305 19.3008 79.3125 19.668 79.3906 20.0508C79.4766 20.4336 79.5195 20.8242 79.5195 21.2227C79.5195 21.3164 79.4883 21.3945 79.4258 21.457C79.3633 21.5195 79.2852 21.5508 79.1914 21.5508C79.1055 21.5508 79.0273 21.5195 78.957 21.457C78.8945 21.3945 78.8633 21.3164 78.8633 21.2227C78.8633 20.8633 78.8242 20.5039 78.7461 20.1445C78.6758 19.7852 78.5977 19.4414 78.5117 19.1133C78.4336 18.8242 78.3633 18.5469 78.3008 18.2812C78.2461 18.0078 78.2188 17.7578 78.2188 17.5312C78.2188 17.3047 78.2031 17.0195 78.1719 16.6758C78.1406 16.332 78.1016 16 78.0547 15.6797C78.0156 15.3516 77.9766 15.0703 77.9375 14.8359C77.9062 14.5938 77.8906 14.4648 77.8906 14.4492C77.8906 14.3711 77.918 14.3008 77.9727 14.2383C78.0273 14.1758 78.1094 14.1367 78.2188 14.1211C78.3047 14.1211 78.375 14.1484 78.4297 14.2031C78.4922 14.25 78.5312 14.3164 78.5469 14.4023C78.5469 14.418 78.5547 14.4688 78.5703 14.5547C78.5859 14.6328 78.6016 14.7422 78.6172 14.8828C78.6328 15.0156 78.6523 15.168 78.6758 15.3398C78.6992 15.5117 78.7227 15.6914 78.7461 15.8789C78.8633 15.6602 79 15.4453 79.1562 15.2344C79.3203 15.0234 79.5078 14.8359 79.7188 14.6719C79.9375 14.5078 80.1797 14.375 80.4453 14.2734C80.7109 14.1719 81.0078 14.1211 81.3359 14.1211C81.6562 14.1211 81.9453 14.1875 82.2031 14.3203C82.4688 14.4453 82.6953 14.6133 82.8828 14.8242C83.0703 15.0352 83.2148 15.2734 83.3164 15.5391C83.4258 15.8047 83.4805 16.0703 83.4805 16.3359C83.4805 16.5703 83.4883 16.793 83.5039 17.0039C83.5273 17.2148 83.5508 17.4102 83.5742 17.5898C83.5898 17.7461 83.6055 17.8984 83.6211 18.0469C83.6367 18.1953 83.6445 18.3359 83.6445 18.4688C83.6445 18.7812 83.6562 19.0312 83.6797 19.2188C83.6875 19.2891 83.6914 19.3555 83.6914 19.418C83.6992 19.4727 83.7031 19.5312 83.7031 19.5938Z" fill="#BABABA"/>
<path d="M74.1758 20.5898C74.3242 20.5898 74.5117 20.5195 74.7383 20.3789C74.9727 20.2305 75.1992 20.0273 75.418 19.7695C75.6367 19.5039 75.8242 19.1875 75.9805 18.8203C76.1367 18.4531 76.2148 18.043 76.2148 17.5898C76.2148 17.1523 76.1602 16.7695 76.0508 16.4414C75.9492 16.1055 75.8281 15.8242 75.6875 15.5977C75.5547 15.3633 75.418 15.1875 75.2773 15.0703C75.1445 14.9531 75.0469 14.8867 74.9844 14.8711C74.8516 14.8711 74.7305 14.8828 74.6211 14.9062C74.5195 14.9219 74.4492 14.9336 74.4102 14.9414C74.3164 14.9414 74.2305 14.9023 74.1523 14.8242C73.957 14.9023 73.7539 15.0781 73.543 15.3516C73.332 15.625 73.1367 15.9453 72.957 16.3125C72.7773 16.6719 72.6289 17.0586 72.5117 17.4727C72.3945 17.8789 72.3359 18.2539 72.3359 18.5977C72.3359 18.957 72.3984 19.2656 72.5234 19.5234C72.6484 19.7734 72.8047 19.9766 72.9922 20.1328C73.1797 20.2891 73.3789 20.4062 73.5898 20.4844C73.8008 20.5547 73.9961 20.5898 74.1758 20.5898ZM74.9961 14.2148C75.1602 14.2148 75.3477 14.2969 75.5586 14.4609C75.7773 14.6172 75.9805 14.8438 76.168 15.1406C76.3633 15.4297 76.5273 15.7812 76.6602 16.1953C76.8008 16.6094 76.8711 17.0742 76.8711 17.5898C76.8711 18.1133 76.7812 18.5977 76.6016 19.043C76.4219 19.4883 76.1953 19.875 75.9219 20.2031C75.6562 20.5312 75.3633 20.7891 75.043 20.9766C74.7305 21.1562 74.4414 21.2461 74.1758 21.2461C73.8711 21.2461 73.5703 21.1875 73.2734 21.0703C72.9766 20.9531 72.7109 20.7852 72.4766 20.5664C72.2422 20.3398 72.0508 20.0625 71.9023 19.7344C71.7539 19.4062 71.6797 19.0273 71.6797 18.5977C71.6797 18.3242 71.7148 18.0234 71.7852 17.6953C71.8555 17.3672 71.9492 17.0391 72.0664 16.7109C72.1914 16.375 72.3359 16.0547 72.5 15.75C72.6719 15.4375 72.8555 15.1602 73.0508 14.918C73.2461 14.6758 73.4531 14.4844 73.6719 14.3438C73.8906 14.1953 74.1133 14.1211 74.3398 14.1211C74.4258 14.1211 74.5 14.1328 74.5625 14.1562C74.6328 14.1719 74.6953 14.1953 74.75 14.2266C74.7891 14.2266 74.8281 14.2266 74.8672 14.2266C74.9062 14.2188 74.9492 14.2148 74.9961 14.2148Z" fill="#BABABA"/>
<path d="M68.082 20.5898C68.2305 20.5898 68.418 20.5195 68.6445 20.3789C68.8789 20.2305 69.1055 20.0273 69.3242 19.7695C69.543 19.5039 69.7305 19.1875 69.8867 18.8203C70.043 18.4531 70.1211 18.043 70.1211 17.5898C70.1211 17.1523 70.0664 16.7695 69.957 16.4414C69.8555 16.1055 69.7344 15.8242 69.5938 15.5977C69.4609 15.3633 69.3242 15.1875 69.1836 15.0703C69.0508 14.9531 68.9531 14.8867 68.8906 14.8711C68.7578 14.8711 68.6367 14.8828 68.5273 14.9062C68.4258 14.9219 68.3555 14.9336 68.3164 14.9414C68.2227 14.9414 68.1367 14.9023 68.0586 14.8242C67.8633 14.9023 67.6602 15.0781 67.4492 15.3516C67.2383 15.625 67.043 15.9453 66.8633 16.3125C66.6836 16.6719 66.5352 17.0586 66.418 17.4727C66.3008 17.8789 66.2422 18.2539 66.2422 18.5977C66.2422 18.957 66.3047 19.2656 66.4297 19.5234C66.5547 19.7734 66.7109 19.9766 66.8984 20.1328C67.0859 20.2891 67.2852 20.4062 67.4961 20.4844C67.707 20.5547 67.9023 20.5898 68.082 20.5898ZM68.9023 14.2148C69.0664 14.2148 69.2539 14.2969 69.4648 14.4609C69.6836 14.6172 69.8867 14.8438 70.0742 15.1406C70.2695 15.4297 70.4336 15.7812 70.5664 16.1953C70.707 16.6094 70.7773 17.0742 70.7773 17.5898C70.7773 18.1133 70.6875 18.5977 70.5078 19.043C70.3281 19.4883 70.1016 19.875 69.8281 20.2031C69.5625 20.5312 69.2695 20.7891 68.9492 20.9766C68.6367 21.1562 68.3477 21.2461 68.082 21.2461C67.7773 21.2461 67.4766 21.1875 67.1797 21.0703C66.8828 20.9531 66.6172 20.7852 66.3828 20.5664C66.1484 20.3398 65.957 20.0625 65.8086 19.7344C65.6602 19.4062 65.5859 19.0273 65.5859 18.5977C65.5859 18.3242 65.6211 18.0234 65.6914 17.6953C65.7617 17.3672 65.8555 17.0391 65.9727 16.7109C66.0977 16.375 66.2422 16.0547 66.4062 15.75C66.5781 15.4375 66.7617 15.1602 66.957 14.918C67.1523 14.6758 67.3594 14.4844 67.5781 14.3438C67.7969 14.1953 68.0195 14.1211 68.2461 14.1211C68.332 14.1211 68.4062 14.1328 68.4688 14.1562C68.5391 14.1719 68.6016 14.1953 68.6562 14.2266C68.6953 14.2266 68.7344 14.2266 68.7734 14.2266C68.8125 14.2188 68.8555 14.2148 68.9023 14.2148Z" fill="#BABABA"/>
<path d="M62.6211 16.9922C64.0039 17.6641 64.6953 18.3711 64.6953 19.1133C64.6953 19.3398 64.6445 19.5625 64.543 19.7812C64.4414 20 64.3203 20.2031 64.1797 20.3906C64.0391 20.5703 63.8906 20.7305 63.7344 20.8711C63.5859 21.0039 63.4609 21.0977 63.3594 21.1523C63.2656 21.207 63.1406 21.2578 62.9844 21.3047C62.8359 21.3594 62.6797 21.4062 62.5156 21.4453C62.3594 21.4844 62.207 21.5156 62.0586 21.5391C61.918 21.5625 61.8008 21.5742 61.707 21.5742C61.5039 21.5742 61.2852 21.5391 61.0508 21.4688C60.8242 21.4062 60.6055 21.2969 60.3945 21.1406C60.1836 20.9922 59.9922 20.793 59.8203 20.543C59.6562 20.293 59.5273 19.9844 59.4336 19.6172C59.4336 19.4453 59.543 19.3359 59.7617 19.2891C59.832 19.2891 59.8984 19.3125 59.9609 19.3594C60.0234 19.3984 60.0625 19.457 60.0781 19.5352C60.1641 19.8633 60.2852 20.1211 60.4414 20.3086C60.6055 20.4883 60.7695 20.625 60.9336 20.7188C61.1055 20.8125 61.2617 20.8711 61.4023 20.8945C61.5508 20.9102 61.6523 20.918 61.707 20.918C61.7773 20.918 61.875 20.9102 62 20.8945C62.125 20.8711 62.25 20.8438 62.375 20.8125C62.5078 20.7734 62.6328 20.7344 62.75 20.6953C62.875 20.6562 62.9688 20.6172 63.0312 20.5781C63.1016 20.5391 63.1953 20.4688 63.3125 20.3672C63.4297 20.2578 63.5391 20.1367 63.6406 20.0039C63.75 19.8633 63.8438 19.7148 63.9219 19.5586C64 19.4023 64.0391 19.2539 64.0391 19.1133C64.0391 19.0352 64.0156 18.9453 63.9688 18.8438C63.9219 18.7344 63.8359 18.6172 63.7109 18.4922C63.5938 18.3594 63.4219 18.2188 63.1953 18.0703C62.9766 17.9219 62.6914 17.7617 62.3398 17.5898C62.1133 17.4805 61.875 17.3672 61.625 17.25C61.3828 17.1328 61.1562 17.0273 60.9453 16.9336C60.7344 16.832 60.5586 16.7461 60.418 16.6758L60.207 16.582L60.0195 16.5V16.2891C60.0195 15.9297 60.1094 15.6172 60.2891 15.3516C60.4688 15.0781 60.6875 14.8516 60.9453 14.6719C61.2031 14.4844 61.4727 14.3438 61.7539 14.25C62.043 14.1562 62.2969 14.1094 62.5156 14.1094C62.7422 14.1094 62.9336 14.1367 63.0898 14.1914C63.2461 14.2461 63.375 14.3086 63.4766 14.3789C63.5781 14.4414 63.6523 14.5039 63.6992 14.5664C63.7539 14.6211 63.7852 14.6562 63.793 14.6719C63.832 14.7266 63.8516 14.7852 63.8516 14.8477C63.8516 14.9648 63.8008 15.0547 63.6992 15.1172C63.6367 15.1562 63.5781 15.1758 63.5234 15.1758C63.4062 15.1758 63.3164 15.125 63.2539 15.0234C63.2461 15.0234 63.2266 15.0117 63.1953 14.9883C63.1719 14.957 63.1289 14.9258 63.0664 14.8945C63.0117 14.8633 62.9375 14.8359 62.8438 14.8125C62.7578 14.7812 62.6484 14.7656 62.5156 14.7656C62.3828 14.7656 62.2227 14.793 62.0352 14.8477C61.8477 14.9023 61.6602 14.9883 61.4727 15.1055C61.2852 15.2148 61.1172 15.3516 60.9688 15.5156C60.8203 15.6797 60.7266 15.8711 60.6875 16.0898C60.7891 16.1367 60.9141 16.1953 61.0625 16.2656C61.2109 16.3281 61.3711 16.4023 61.543 16.4883C61.7227 16.5664 61.9062 16.6523 62.0938 16.7461C62.2812 16.832 62.457 16.9141 62.6211 16.9922Z" fill="#BABABA"/>
<path d="M53.4453 19.2539C53.4688 19.1836 53.5195 19.1289 53.5977 19.0898C53.543 18.5508 53.4961 18.0508 53.457 17.5898C53.4258 17.1289 53.4102 16.7539 53.4102 16.4648V16.3242C53.332 16.2852 53.2773 16.2344 53.2461 16.1719C53.082 15.8672 52.918 15.6484 52.7539 15.5156C52.5977 15.3828 52.4961 15.3125 52.4492 15.3047C52.3164 15.3047 52.1953 15.3125 52.0859 15.3281C51.9844 15.3438 51.9141 15.3555 51.875 15.3633C51.7734 15.3633 51.6914 15.3242 51.6289 15.2461C51.4336 15.3242 51.2266 15.5 51.0078 15.7734C50.7969 16.0469 50.6016 16.3672 50.4219 16.7344C50.2422 17.0938 50.0938 17.4805 49.9766 17.8945C49.8594 18.3008 49.8008 18.6758 49.8008 19.0195C49.8008 19.3867 49.8633 19.6953 49.9883 19.9453C50.1133 20.1953 50.2695 20.4023 50.457 20.5664C50.6445 20.7227 50.8438 20.8359 51.0547 20.9062C51.2734 20.9766 51.4727 21.0117 51.6523 21.0117C51.7695 21.0117 51.9062 20.9727 52.0625 20.8945C52.2266 20.8086 52.3906 20.6914 52.5547 20.543C52.7266 20.3867 52.8906 20.2031 53.0469 19.9922C53.2031 19.7734 53.3359 19.5273 53.4453 19.2539ZM54.0664 16.4648C54.0664 16.6445 54.0742 16.8711 54.0898 17.1445C54.1055 17.4102 54.125 17.7031 54.1484 18.0234C54.1797 18.3359 54.2109 18.6719 54.2422 19.0312C54.2734 19.3828 54.3086 19.7383 54.3477 20.0977C54.3789 20.4492 54.4102 20.7891 54.4414 21.1172C54.4805 21.4531 54.5117 21.7656 54.5352 22.0547C54.5586 22.3516 54.5781 22.6211 54.5938 22.8633C54.6094 23.1055 54.6172 23.3086 54.6172 23.4727C54.6172 23.7539 54.5625 24.0312 54.4531 24.3047C54.3438 24.5859 54.1836 24.8359 53.9727 25.0547C53.7617 25.2734 53.5 25.4492 53.1875 25.582C52.8828 25.7227 52.5273 25.793 52.1211 25.793C50.9648 25.793 50.1367 25.1602 49.6367 23.8945C49.6211 23.8633 49.6133 23.8203 49.6133 23.7656C49.6133 23.625 49.6797 23.5234 49.8125 23.4609C49.8359 23.4531 49.8555 23.4453 49.8711 23.4375C49.8945 23.4375 49.918 23.4375 49.9414 23.4375C50.082 23.4375 50.1836 23.5117 50.2461 23.6602C50.2852 23.7617 50.3438 23.8945 50.4219 24.0586C50.5078 24.2305 50.6211 24.3945 50.7617 24.5508C50.9023 24.707 51.082 24.8438 51.3008 24.9609C51.5273 25.0781 51.8008 25.1367 52.1211 25.1367C52.457 25.1367 52.7422 25.082 52.9766 24.9727C53.2109 24.8633 53.3984 24.7227 53.5391 24.5508C53.6875 24.3867 53.793 24.207 53.8555 24.0117C53.9258 23.8164 53.9609 23.6367 53.9609 23.4727C53.9609 23.3164 53.9531 23.1172 53.9375 22.875C53.9219 22.6406 53.9023 22.3789 53.8789 22.0898C53.8555 21.8008 53.8281 21.4922 53.7969 21.1641C53.7656 20.8438 53.7344 20.5195 53.7031 20.1914C53.5547 20.4258 53.3906 20.6328 53.2109 20.8125C53.0391 20.9922 52.8594 21.1445 52.6719 21.2695C52.4922 21.4023 52.3125 21.5 52.1328 21.5625C51.9609 21.6328 51.8008 21.668 51.6523 21.668C51.3477 21.668 51.043 21.6094 50.7383 21.4922C50.4414 21.3828 50.1758 21.2188 49.9414 21C49.707 20.7734 49.5156 20.4961 49.3672 20.168C49.2188 19.832 49.1445 19.4492 49.1445 19.0195C49.1445 18.7461 49.1797 18.4453 49.25 18.1172C49.3203 17.7891 49.4141 17.4609 49.5312 17.1328C49.6562 16.8047 49.8008 16.4844 49.9648 16.1719C50.1367 15.8594 50.3203 15.5859 50.5156 15.3516C50.7109 15.1094 50.918 14.918 51.1367 14.7773C51.3555 14.6289 51.5781 14.5547 51.8047 14.5547C51.9688 14.5547 52.1055 14.5898 52.2148 14.6602C52.2539 14.6523 52.293 14.6484 52.332 14.6484C52.3711 14.6484 52.4141 14.6484 52.4609 14.6484C52.6016 14.6484 52.7578 14.7031 52.9297 14.8125C53.1016 14.9219 53.2656 15.0742 53.4219 15.2695C53.4375 15.1758 53.4609 15.0898 53.4922 15.0117C53.5312 14.9336 53.6133 14.8906 53.7383 14.8828L54.043 14.8594L54.0898 15.1641C54.0898 15.1797 54.0898 15.1953 54.0898 15.2109C54.0898 15.2188 54.0859 15.25 54.0781 15.3047C54.0781 15.3516 54.0742 15.457 54.0664 15.6211C54.0664 15.7852 54.0664 16.0664 54.0664 16.4648Z" fill="#BABABA"/>
<path d="M47.8555 19.5938C47.8555 19.7031 47.8672 19.8164 47.8906 19.9336C47.9219 20.0508 47.957 20.1641 47.9961 20.2734C48.0352 20.375 48.0742 20.4688 48.1133 20.5547C48.1523 20.6406 48.1836 20.707 48.207 20.7539C48.2305 20.8008 48.2422 20.8555 48.2422 20.918C48.2422 21.043 48.1875 21.1367 48.0781 21.1992C48.0469 21.2148 48.0195 21.2266 47.9961 21.2344C47.9727 21.2422 47.9453 21.2461 47.9141 21.2461C47.7891 21.2461 47.6953 21.1875 47.6328 21.0703C47.625 21.0625 47.5977 21.0156 47.5508 20.9297C47.5039 20.8359 47.4531 20.7188 47.3984 20.5781C47.3516 20.4375 47.3047 20.2812 47.2578 20.1094C47.2188 19.9375 47.1992 19.7656 47.1992 19.5938C47.1992 19.5547 47.1953 19.5117 47.1875 19.4648C47.1875 19.4102 47.1836 19.3516 47.1758 19.2891C47.168 19.1797 47.1602 19.0625 47.1523 18.9375C47.1445 18.8047 47.1406 18.6484 47.1406 18.4688C47.1406 18.3516 47.1328 18.2305 47.1172 18.1055C47.1016 17.9727 47.0859 17.8281 47.0703 17.6719C47.0469 17.4766 47.0234 17.2695 47 17.0508C46.9844 16.8242 46.9766 16.5859 46.9766 16.3359C46.9766 16.1797 46.9414 16.0117 46.8711 15.832C46.8086 15.6445 46.7148 15.4727 46.5898 15.3164C46.4648 15.1602 46.3086 15.0312 46.1211 14.9297C45.9414 14.8281 45.7305 14.7773 45.4883 14.7773C45.1836 14.7773 44.9102 14.8359 44.668 14.9531C44.4336 15.0625 44.2305 15.2031 44.0586 15.375C43.8867 15.5469 43.7383 15.7344 43.6133 15.9375C43.4961 16.1328 43.4023 16.3203 43.332 16.5C43.2617 16.6719 43.207 16.8203 43.168 16.9453C43.1367 17.0703 43.1211 17.1406 43.1211 17.1562C43.0977 17.2266 43.0664 17.2812 43.0273 17.3203V17.5312C43.0273 17.7188 43.0547 17.9336 43.1094 18.1758C43.1641 18.418 43.2266 18.6758 43.2969 18.9492C43.3828 19.3008 43.4648 19.668 43.543 20.0508C43.6289 20.4336 43.6719 20.8242 43.6719 21.2227C43.6719 21.3164 43.6406 21.3945 43.5781 21.457C43.5156 21.5195 43.4375 21.5508 43.3438 21.5508C43.2578 21.5508 43.1797 21.5195 43.1094 21.457C43.0469 21.3945 43.0156 21.3164 43.0156 21.2227C43.0156 20.8633 42.9766 20.5039 42.8984 20.1445C42.8281 19.7852 42.75 19.4414 42.6641 19.1133C42.5859 18.8242 42.5156 18.5469 42.4531 18.2812C42.3984 18.0078 42.3711 17.7578 42.3711 17.5312C42.3711 17.3047 42.3555 17.0195 42.3242 16.6758C42.293 16.332 42.2539 16 42.207 15.6797C42.168 15.3516 42.1289 15.0703 42.0898 14.8359C42.0586 14.5938 42.043 14.4648 42.043 14.4492C42.043 14.3711 42.0703 14.3008 42.125 14.2383C42.1797 14.1758 42.2617 14.1367 42.3711 14.1211C42.457 14.1211 42.5273 14.1484 42.582 14.2031C42.6445 14.25 42.6836 14.3164 42.6992 14.4023C42.6992 14.418 42.707 14.4688 42.7227 14.5547C42.7383 14.6328 42.7539 14.7422 42.7695 14.8828C42.7852 15.0156 42.8047 15.168 42.8281 15.3398C42.8516 15.5117 42.875 15.6914 42.8984 15.8789C43.0156 15.6602 43.1523 15.4453 43.3086 15.2344C43.4727 15.0234 43.6602 14.8359 43.8711 14.6719C44.0898 14.5078 44.332 14.375 44.5977 14.2734C44.8633 14.1719 45.1602 14.1211 45.4883 14.1211C45.8086 14.1211 46.0977 14.1875 46.3555 14.3203C46.6211 14.4453 46.8477 14.6133 47.0352 14.8242C47.2227 15.0352 47.3672 15.2734 47.4688 15.5391C47.5781 15.8047 47.6328 16.0703 47.6328 16.3359C47.6328 16.5703 47.6406 16.793 47.6562 17.0039C47.6797 17.2148 47.7031 17.4102 47.7266 17.5898C47.7422 17.7461 47.7578 17.8984 47.7734 18.0469C47.7891 18.1953 47.7969 18.3359 47.7969 18.4688C47.7969 18.7812 47.8086 19.0312 47.832 19.2188C47.8398 19.2891 47.8438 19.3555 47.8438 19.418C47.8516 19.4727 47.8555 19.5312 47.8555 19.5938Z" fill="#BABABA"/>
<path d="M39.5234 13.9922C39.3906 13.9922 39.2773 13.9492 39.1836 13.8633C39.0977 13.7695 39.0547 13.6562 39.0547 13.5234C39.0547 13.3906 39.0977 13.2812 39.1836 13.1953C39.2773 13.1094 39.3906 13.0664 39.5234 13.0664C39.6484 13.0664 39.7539 13.1094 39.8398 13.1953C39.9336 13.2812 39.9805 13.3906 39.9805 13.5234C39.9805 13.6562 39.9336 13.7695 39.8398 13.8633C39.7539 13.9492 39.6484 13.9922 39.5234 13.9922ZM39.6758 14.4844C39.7617 14.4844 39.832 14.5117 39.8867 14.5664C39.9492 14.6133 39.9883 14.6758 40.0039 14.7539C40.0039 14.7773 40.0195 14.8984 40.0508 15.1172C40.0898 15.3359 40.1328 15.6016 40.1797 15.9141C40.2266 16.2266 40.2695 16.5625 40.3086 16.9219C40.3555 17.2734 40.3867 17.5898 40.4023 17.8711C40.418 18.1445 40.4453 18.4648 40.4844 18.832C40.5234 19.1992 40.5664 19.5508 40.6133 19.8867C40.6602 20.2148 40.6992 20.5 40.7305 20.7422C40.7695 20.9766 40.7891 21.1016 40.7891 21.1172C40.7891 21.2031 40.7617 21.2734 40.707 21.3281C40.6523 21.3906 40.5703 21.4297 40.4609 21.4453C40.375 21.4453 40.3008 21.418 40.2383 21.3633C40.1836 21.3164 40.1484 21.25 40.1328 21.1641C40.1328 21.1406 40.1133 21.0117 40.0742 20.7773C40.043 20.543 40.0039 20.2617 39.957 19.9336C39.9102 19.5977 39.8672 19.2461 39.8281 18.8789C39.7891 18.5117 39.7617 18.1875 39.7461 17.9062C39.7305 17.6328 39.6992 17.3203 39.6523 16.9688C39.6133 16.6172 39.5703 16.2852 39.5234 15.9727C39.4844 15.6602 39.4453 15.3945 39.4062 15.1758C39.375 14.9492 39.3594 14.8281 39.3594 14.8125C39.3594 14.7344 39.3828 14.6641 39.4297 14.6016C39.4766 14.5391 39.543 14.5 39.6289 14.4844H39.6758Z" fill="#BABABA"/>
<path d="M37.7422 19.4648C37.7422 19.5586 37.7383 19.6523 37.7305 19.7461C37.7227 19.8398 37.7109 19.9297 37.6953 20.0156C37.6797 20.1016 37.668 20.1836 37.6602 20.2617C37.6523 20.3398 37.6484 20.418 37.6484 20.4961C37.6484 20.6367 37.6719 20.7656 37.7188 20.8828C37.7266 20.9062 37.7305 20.9297 37.7305 20.9531C37.7383 20.9688 37.7422 20.9883 37.7422 21.0117C37.7422 21.1523 37.6719 21.2539 37.5312 21.3164C37.4688 21.332 37.4297 21.3398 37.4141 21.3398C37.2656 21.3398 37.1602 21.2695 37.0977 21.1289C37.0586 21.0195 37.0312 20.9141 37.0156 20.8125C37 20.7109 36.9922 20.6055 36.9922 20.4961C36.9922 20.3945 36.9961 20.2969 37.0039 20.2031C37.0117 20.1094 37.0234 20.0195 37.0391 19.9336C37.0547 19.8477 37.0664 19.7695 37.0742 19.6992C37.082 19.6211 37.0859 19.543 37.0859 19.4648C37.0859 19.3555 37.0781 19.2539 37.0625 19.1602C37.0469 19.0664 37.0273 18.9688 37.0039 18.8672C36.9883 18.75 36.9688 18.6289 36.9453 18.5039C36.9297 18.3789 36.9219 18.2422 36.9219 18.0938C36.9219 17.9844 36.9219 17.8867 36.9219 17.8008C36.9297 17.7148 36.9375 17.6289 36.9453 17.543C36.9531 17.4023 36.9609 17.2188 36.9688 16.9922C36.9766 16.7656 36.9805 16.4297 36.9805 15.9844C36.9805 15.625 36.8945 15.3594 36.7227 15.1875C36.582 15.0469 36.4102 14.9648 36.207 14.9414C36.0039 14.918 35.8438 14.9062 35.7266 14.9062C35.6172 14.9062 35.4961 14.9297 35.3633 14.9766C35.2305 15.0234 35.0938 15.082 34.9531 15.1523C34.8203 15.2227 34.6953 15.293 34.5781 15.3633C34.4609 15.4336 34.3633 15.4922 34.2852 15.5391C34.2461 15.5625 34.2109 15.582 34.1797 15.5977C34.1484 15.6133 34.1211 15.6289 34.0977 15.6445C34.0586 15.668 33.9961 15.7383 33.9102 15.8555C33.8242 15.9648 33.7461 16.0859 33.6758 16.2188C33.6289 16.2891 33.5703 16.3359 33.5 16.3594C33.5 16.5625 33.5078 16.7539 33.5234 16.9336C33.5469 17.1133 33.5664 17.2812 33.582 17.4375C33.5977 17.5938 33.6133 17.7461 33.6289 17.8945C33.6445 18.0352 33.6523 18.1719 33.6523 18.3047C33.6523 18.4688 33.6562 18.6133 33.6641 18.7383C33.6719 18.8555 33.6797 18.9648 33.6875 19.0664C33.7109 19.207 33.7227 19.332 33.7227 19.4414C33.7227 19.5508 33.7344 19.6641 33.7578 19.7812C33.7891 19.8984 33.8203 20.0117 33.8516 20.1211C33.8906 20.2227 33.9297 20.3164 33.9688 20.4023C34.0078 20.4883 34.0391 20.5547 34.0625 20.6016C34.0938 20.6406 34.1094 20.6914 34.1094 20.7539C34.1094 20.8164 34.0938 20.875 34.0625 20.9297C34.0391 20.9766 33.9961 21.0156 33.9336 21.0469C33.8867 21.0703 33.8359 21.082 33.7812 21.082C33.6484 21.082 33.5508 21.0273 33.4883 20.918C33.4883 20.9102 33.4648 20.8633 33.418 20.7773C33.3711 20.6836 33.3203 20.5664 33.2656 20.4258C33.2188 20.2852 33.1719 20.1289 33.125 19.957C33.0859 19.7852 33.0664 19.6133 33.0664 19.4414C33.0664 19.4023 33.0625 19.3555 33.0547 19.3008C33.0547 19.2461 33.0508 19.1875 33.043 19.125C33.0273 19.0234 33.0156 18.9062 33.0078 18.7734C33 18.6406 32.9961 18.4844 32.9961 18.3047C32.9961 18.1953 32.9883 18.0742 32.9727 17.9414C32.957 17.8086 32.9414 17.668 32.9258 17.5195C32.9102 17.3164 32.8906 17.1055 32.8672 16.8867C32.8438 16.668 32.832 16.4297 32.832 16.1719C32.832 16.0156 32.7969 15.8477 32.7266 15.668C32.6641 15.4805 32.5703 15.3125 32.4453 15.1641C32.3203 15.0078 32.1641 14.8789 31.9766 14.7773C31.7969 14.6758 31.5859 14.625 31.3438 14.625C31.0391 14.625 30.7656 14.6836 30.5234 14.8008C30.2891 14.918 30.082 15.0625 29.9023 15.2344C29.7305 15.4062 29.5859 15.5938 29.4688 15.7969C29.3516 16 29.2539 16.1914 29.1758 16.3711C29.1055 16.543 29.0547 16.6875 29.0234 16.8047L28.9766 16.9922C28.9688 17.0547 28.9375 17.1133 28.8828 17.168V17.3672C28.8828 17.5625 28.9102 17.7812 28.9648 18.0234C29.0273 18.2656 29.0898 18.5234 29.1523 18.7969C29.2461 19.1484 29.332 19.5156 29.4102 19.8984C29.4961 20.2812 29.5391 20.6719 29.5391 21.0703C29.5391 21.1562 29.5039 21.2305 29.4336 21.293C29.3711 21.3633 29.2969 21.3984 29.2109 21.3984C29.1172 21.3984 29.0391 21.3633 28.9766 21.293C28.9141 21.2305 28.8828 21.1562 28.8828 21.0703C28.8828 20.7109 28.8438 20.3516 28.7656 19.9922C28.6875 19.6328 28.6055 19.2891 28.5195 18.9609C28.4414 18.6641 28.3711 18.3828 28.3086 18.1172C28.2539 17.8516 28.2266 17.6016 28.2266 17.3672C28.2266 17.1406 28.2109 16.8594 28.1797 16.5234C28.1484 16.1797 28.1094 15.8477 28.0625 15.5273C28.0234 15.1992 27.9883 14.918 27.957 14.6836C27.9258 14.4414 27.9102 14.3125 27.9102 14.2969C27.9102 14.2109 27.9375 14.1406 27.9922 14.0859C28.0469 14.0234 28.1289 13.9844 28.2383 13.9688C28.3164 13.9688 28.3828 13.9961 28.4375 14.0508C28.5 14.0977 28.5391 14.1641 28.5547 14.25C28.5547 14.2656 28.5625 14.3164 28.5781 14.4023C28.5938 14.4805 28.6094 14.5859 28.625 14.7188C28.6484 14.8516 28.668 15.0078 28.6836 15.1875C28.707 15.3594 28.7305 15.5391 28.7539 15.7266C28.8711 15.5078 29.0117 15.293 29.1758 15.082C29.3398 14.8711 29.5273 14.6836 29.7383 14.5195C29.957 14.3555 30.1992 14.2227 30.4648 14.1211C30.7305 14.0195 31.0234 13.9688 31.3438 13.9688C31.5938 13.9688 31.8281 14.0117 32.0469 14.0977C32.2656 14.1758 32.4609 14.2852 32.6328 14.4258C32.8047 14.5586 32.9531 14.7188 33.0781 14.9062C33.2031 15.0859 33.3008 15.2773 33.3711 15.4805C33.4336 15.3945 33.5 15.3164 33.5703 15.2461C33.6406 15.168 33.7109 15.1094 33.7812 15.0703C33.8203 15.0547 33.8711 15.0234 33.9336 14.9766C34.0352 14.9141 34.1562 14.8438 34.2969 14.7656C34.4453 14.6797 34.5977 14.5977 34.7539 14.5195C34.918 14.4414 35.0859 14.3789 35.2578 14.332C35.4297 14.2773 35.5938 14.25 35.75 14.25C35.8203 14.25 35.9102 14.2539 36.0195 14.2617C36.1367 14.2617 36.2617 14.2773 36.3945 14.3086C36.5273 14.3398 36.6641 14.3867 36.8047 14.4492C36.9453 14.5117 37.0742 14.6016 37.1914 14.7188C37.4883 15.0312 37.6367 15.4531 37.6367 15.9844C37.6367 16.4453 37.6289 16.793 37.6133 17.0273C37.6055 17.2539 37.5977 17.4414 37.5898 17.5898C37.582 17.6758 37.5781 17.7578 37.5781 17.8359C37.5781 17.9062 37.5781 17.9922 37.5781 18.0938C37.5781 18.2109 37.5859 18.3203 37.6016 18.4219C37.6172 18.5234 37.6328 18.6289 37.6484 18.7383C37.6719 18.8477 37.6914 18.9648 37.707 19.0898C37.7305 19.207 37.7422 19.332 37.7422 19.4648Z" fill="#BABABA"/>
<path d="M23.9492 20.5898C24.0977 20.5898 24.2852 20.5195 24.5117 20.3789C24.7461 20.2305 24.9727 20.0273 25.1914 19.7695C25.4102 19.5039 25.5977 19.1875 25.7539 18.8203C25.9102 18.4531 25.9883 18.043 25.9883 17.5898C25.9883 17.1523 25.9336 16.7695 25.8242 16.4414C25.7227 16.1055 25.6016 15.8242 25.4609 15.5977C25.3281 15.3633 25.1914 15.1875 25.0508 15.0703C24.918 14.9531 24.8203 14.8867 24.7578 14.8711C24.625 14.8711 24.5039 14.8828 24.3945 14.9062C24.293 14.9219 24.2227 14.9336 24.1836 14.9414C24.0898 14.9414 24.0039 14.9023 23.9258 14.8242C23.7305 14.9023 23.5273 15.0781 23.3164 15.3516C23.1055 15.625 22.9102 15.9453 22.7305 16.3125C22.5508 16.6719 22.4023 17.0586 22.2852 17.4727C22.168 17.8789 22.1094 18.2539 22.1094 18.5977C22.1094 18.957 22.1719 19.2656 22.2969 19.5234C22.4219 19.7734 22.5781 19.9766 22.7656 20.1328C22.9531 20.2891 23.1523 20.4062 23.3633 20.4844C23.5742 20.5547 23.7695 20.5898 23.9492 20.5898ZM24.7695 14.2148C24.9336 14.2148 25.1211 14.2969 25.332 14.4609C25.5508 14.6172 25.7539 14.8438 25.9414 15.1406C26.1367 15.4297 26.3008 15.7812 26.4336 16.1953C26.5742 16.6094 26.6445 17.0742 26.6445 17.5898C26.6445 18.1133 26.5547 18.5977 26.375 19.043C26.1953 19.4883 25.9688 19.875 25.6953 20.2031C25.4297 20.5312 25.1367 20.7891 24.8164 20.9766C24.5039 21.1562 24.2148 21.2461 23.9492 21.2461C23.6445 21.2461 23.3438 21.1875 23.0469 21.0703C22.75 20.9531 22.4844 20.7852 22.25 20.5664C22.0156 20.3398 21.8242 20.0625 21.6758 19.7344C21.5273 19.4062 21.4531 19.0273 21.4531 18.5977C21.4531 18.3242 21.4883 18.0234 21.5586 17.6953C21.6289 17.3672 21.7227 17.0391 21.8398 16.7109C21.9648 16.375 22.1094 16.0547 22.2734 15.75C22.4453 15.4375 22.6289 15.1602 22.8242 14.918C23.0195 14.6758 23.2266 14.4844 23.4453 14.3438C23.6641 14.1953 23.8867 14.1211 24.1133 14.1211C24.1992 14.1211 24.2734 14.1328 24.3359 14.1562C24.4062 14.1719 24.4688 14.1953 24.5234 14.2266C24.5625 14.2266 24.6016 14.2266 24.6406 14.2266C24.6797 14.2188 24.7227 14.2148 24.7695 14.2148Z" fill="#BABABA"/>
<path d="M20.293 19.6172C20.3555 19.5547 20.4336 19.5234 20.5273 19.5234C20.6211 19.5234 20.6953 19.5508 20.75 19.6055C20.8203 19.6758 20.8555 19.7578 20.8555 19.8516C20.8555 19.9375 20.8242 20.0117 20.7617 20.0742C20.7539 20.082 20.6914 20.1367 20.5742 20.2383C20.4648 20.3398 20.3086 20.4492 20.1055 20.5664C19.9102 20.6836 19.6719 20.793 19.3906 20.8945C19.1094 20.9883 18.793 21.0352 18.4414 21.0352C18.0273 21.0352 17.582 20.957 17.1055 20.8008C16.6367 20.6367 16.1953 20.375 15.7812 20.0156C15.375 19.6562 15.0352 19.1914 14.7617 18.6211C14.4961 18.043 14.3633 17.3359 14.3633 16.5C14.3633 16.2422 14.3711 16.0195 14.3867 15.832C14.4023 15.6367 14.4258 15.4648 14.457 15.3164C14.4961 15.1602 14.5391 15.0195 14.5859 14.8945C14.6406 14.7695 14.7031 14.6484 14.7734 14.5312C14.7812 14.5156 14.8359 14.4219 14.9375 14.25C15.0469 14.0703 15.1797 13.8672 15.3359 13.6406C15.4922 13.4141 15.668 13.1953 15.8633 12.9844C16.0664 12.7656 16.2656 12.6094 16.4609 12.5156C16.6875 12.4141 16.9141 12.3398 17.1406 12.293C17.3672 12.2461 17.582 12.2227 17.7852 12.2227C18.0039 12.2227 18.1953 12.2461 18.3594 12.293C18.4375 12.3086 18.5391 12.3398 18.6641 12.3867C18.7891 12.4258 18.9141 12.4727 19.0391 12.5273C19.1719 12.582 19.293 12.6406 19.4023 12.7031C19.5117 12.7656 19.5898 12.8242 19.6367 12.8789C19.6992 12.9648 19.7383 13.0703 19.7539 13.1953C19.7773 13.3125 19.7891 13.4258 19.7891 13.5352C19.7891 13.6211 19.7578 13.6992 19.6953 13.7695C19.6328 13.832 19.5547 13.8633 19.4609 13.8633C19.375 13.8633 19.2969 13.832 19.2266 13.7695C19.1641 13.6992 19.1328 13.6211 19.1328 13.5352C19.1328 13.4961 19.1328 13.4531 19.1328 13.4062C19.1328 13.3594 19.1289 13.3203 19.1211 13.2891C19.043 13.25 18.9102 13.1914 18.7227 13.1133C18.543 13.0273 18.3711 12.9648 18.207 12.9258C18.1445 12.9102 18.0781 12.8984 18.0078 12.8906C17.9453 12.8828 17.875 12.8789 17.7969 12.8789C17.6328 12.8789 17.457 12.8984 17.2695 12.9375C17.0898 12.9688 16.918 13.0273 16.7539 13.1133C16.6445 13.1602 16.5234 13.25 16.3906 13.3828C16.2656 13.5156 16.1367 13.668 16.0039 13.8398C15.8789 14.0039 15.7578 14.1758 15.6406 14.3555C15.5234 14.5352 15.4258 14.6992 15.3477 14.8477C15.293 14.9492 15.2422 15.0508 15.1953 15.1523C15.1562 15.2539 15.1211 15.3672 15.0898 15.4922C15.0664 15.6172 15.0469 15.7617 15.0312 15.9258C15.0234 16.0898 15.0195 16.2812 15.0195 16.5C15.0195 17.0312 15.082 17.4961 15.207 17.8945C15.332 18.2852 15.4922 18.625 15.6875 18.9141C15.8906 19.2031 16.1172 19.4414 16.3672 19.6289C16.625 19.8164 16.8789 19.9688 17.1289 20.0859C17.3867 20.1953 17.6289 20.2734 17.8555 20.3203C18.0898 20.3594 18.2852 20.3789 18.4414 20.3789C18.7227 20.3789 18.9766 20.3398 19.2031 20.2617C19.4297 20.1836 19.6211 20.0977 19.7773 20.0039C19.9414 19.9102 20.0703 19.8203 20.1641 19.7344L20.293 19.6172Z" fill="#BABABA"/>
</svg>
