<svg width="69" height="35" viewBox="0 0 69 35" fill="none" xmlns="http://www.w3.org/2000/svg">
<rect width="69" height="35" rx="17.5" fill="#2D2D2D"/>
<path d="M49.1882 16.6449C50.2412 16.1119 51.5152 16.1899 52.3992 17.0479C52.8542 17.5029 53.0752 18.0359 53.1792 18.6859C53.3092 19.5699 53.8682 20.2069 54.0632 21.0519C54.1542 21.4549 54.0112 21.8969 53.5692 21.9749C53.0362 22.0789 52.6592 21.5069 52.4252 21.1299C52.0222 21.6499 51.5802 21.9229 50.9302 22.0139C50.3712 22.0789 49.9032 22.0529 49.3312 21.8969C47.8492 21.5069 47.4202 19.8819 47.7972 18.4649C48.0442 17.5289 48.5512 16.9569 49.1882 16.6449ZM49.5132 18.1659C49.0192 18.6339 48.9672 19.5829 49.3572 20.1419C49.5262 20.3889 49.9942 20.5709 50.4492 20.5969C51.4892 20.6619 52.0482 19.1799 51.4892 18.2829C51.0862 17.6199 50.0072 17.6849 49.5132 18.1659Z" fill="#BABABA"/>
<path d="M46.5989 19.0241C46.5469 20.1551 46.5469 21.4551 45.4289 21.9751C44.4539 22.4431 43.1409 22.3781 42.3089 21.8581C41.4639 21.3511 41.3339 20.1031 41.2949 19.1931C41.2559 18.5951 41.2559 18.0101 41.2949 17.4251C41.3079 16.9701 41.2299 16.2161 41.6979 15.9691C42.2179 15.6961 42.7249 15.9431 42.8159 16.6971C42.8679 17.1001 42.8419 17.6201 42.8679 18.0231C42.9199 19.2061 42.7639 21.0131 44.4539 20.5191C44.8439 20.4021 44.9479 19.9341 44.9479 18.9851C44.9479 18.1661 44.8699 16.8271 45.0129 16.3721C45.1819 15.7611 46.2609 15.7221 46.4559 16.3331C46.6509 16.8921 46.6249 18.1271 46.5989 19.0241Z" fill="#BABABA"/>
<path d="M40.988 13.239C41.066 13.343 41.118 13.447 41.118 13.577C41.131 13.681 41.118 13.876 41.105 13.954C41.079 14.045 41.027 14.123 40.923 14.214C40.871 14.266 40.806 14.318 40.702 14.344C40.598 14.37 40.494 14.383 40.377 14.396C40.26 14.409 40.156 14.422 40.039 14.422H39.298V14.643C39.285 16.19 39.428 17.776 39.324 19.323C39.233 20.376 38.947 21.546 37.764 22.014C36.672 22.443 34.982 22.352 34.137 21.559C33.695 21.156 33.253 20.233 34.02 19.804C34.696 19.414 35.034 20.415 35.697 20.571C37.816 21.078 37.465 18.335 37.491 17.308C37.504 16.398 37.478 15.514 37.478 14.604V14.552C37.491 14.526 37.491 14.5 37.491 14.474H37.452C37.244 14.448 35.944 14.448 35.723 14.435H35.541V14.422C35.398 14.409 35.268 14.37 35.125 14.331C34.969 14.279 34.839 14.201 34.748 14.084C34.657 13.993 34.618 13.759 34.618 13.629C34.618 13.538 34.618 13.434 34.644 13.343C34.657 13.252 34.722 13.161 34.826 13.083C34.878 13.044 34.969 12.992 35.073 12.966C35.19 12.94 35.32 12.914 35.45 12.901C35.567 12.888 35.697 12.888 35.827 12.888H37.075C37.179 12.888 37.322 12.888 37.491 12.875C38.167 12.875 38.83 12.875 39.454 12.888H39.532C39.714 12.888 39.909 12.901 40.091 12.901C40.299 12.914 40.481 12.953 40.65 13.018C40.793 13.057 40.897 13.122 40.988 13.239Z" fill="#BABABA"/>
<path d="M29.6729 21.1821C29.6599 21.3901 29.6209 21.6241 29.5429 21.8191C29.5039 21.9101 29.4389 22.0011 29.3739 22.0531C29.2829 22.1311 29.1789 22.1831 29.0359 22.1961C28.7889 22.2741 28.5679 22.2351 28.3729 22.1441C27.8919 21.8451 27.9569 21.2341 27.9439 20.7791V19.7651L27.9309 17.7761C27.9309 17.2171 27.9309 17.2691 27.9179 16.6581C27.9179 16.6061 27.9309 16.5671 27.9049 15.9951C26.5529 18.2441 26.2539 18.5951 25.7599 18.6341C25.4739 18.6601 25.1879 18.3351 25.0319 18.1401C24.6159 17.6201 24.0829 16.9181 23.5239 15.8781C23.5109 15.9431 23.4979 21.4031 23.4459 21.4161C23.4459 22.0011 22.8609 22.5081 22.1459 22.1311C21.9249 21.9881 21.8079 21.6891 21.7819 21.4681C21.7689 21.2341 21.7559 21.0001 21.7559 20.7661L21.7689 19.7521L21.7819 17.7501V16.0081C21.7819 15.2541 21.8079 14.5131 21.8599 13.7851C21.8599 13.6031 21.9119 13.4341 21.9769 13.2781C22.0419 13.1481 22.1199 13.0441 22.2499 12.9661C22.3799 12.8881 22.5229 12.8491 22.6659 12.8491C22.7829 12.8491 22.8999 12.8621 23.0039 12.8751C23.3549 12.9401 23.5889 13.3821 23.8099 13.6161C24.0829 13.9281 24.4599 14.5651 24.6679 14.9031C25.1229 15.6311 25.4609 16.2551 25.7729 16.6841C25.8639 16.5801 26.0849 16.2551 26.1499 16.1251C26.5139 15.5661 26.8129 15.1111 27.3849 14.1621C27.6319 13.7591 28.1779 12.8621 28.7369 12.8491C28.8669 12.8491 28.9709 12.8621 29.0749 12.8751C29.1919 12.8881 29.2829 12.9401 29.3739 13.0181C29.4389 13.0831 29.4909 13.1481 29.5299 13.2391C29.5559 13.3301 29.5819 13.4341 29.5949 13.5251C29.6079 13.6421 29.6209 13.7461 29.6209 13.8501C29.6209 14.8121 29.6469 15.7741 29.6469 16.7361C29.6469 17.9061 29.6599 19.2061 29.6599 20.3761C29.6599 20.6231 29.6859 20.9091 29.6729 21.1821Z" fill="#BABABA"/>
<path d="M19.6415 17.321C20.1485 17.646 20.4995 18.075 20.7075 18.712C21.1755 20.129 20.7855 21.689 18.9135 22.079C18.4065 22.196 17.6525 22.274 17.1195 22.274C16.4435 22.287 15.7025 22.313 15.0265 22.17C14.7275 22.079 14.6235 21.845 14.5715 21.572C14.5325 21.481 14.5195 21.403 14.5195 21.338V13.954C14.5195 12.979 15.3905 12.94 16.2745 12.953C16.6255 12.953 16.9765 12.94 17.3405 12.953C17.9125 12.966 18.5625 13.031 19.1085 13.239C19.2515 13.291 19.3945 13.356 19.5245 13.421C19.6545 13.486 19.7845 13.577 19.8755 13.681C20.9805 14.682 20.9675 16.515 19.6415 17.321ZM17.3665 20.766C17.8995 20.74 18.5495 20.675 18.7575 20.428C19.2255 19.882 19.1085 18.816 18.5105 18.387C18.1075 18.075 17.5615 18.01 17.0545 18.01C16.5605 18.023 16.2355 17.971 16.2485 18.452C16.2745 18.894 16.2225 19.362 16.2225 19.778C16.2225 20.012 16.1705 20.35 16.3525 20.532C16.5475 20.714 16.9375 20.779 17.3665 20.766ZM17.6265 14.526C16.5475 14.5 16.2615 14.383 16.2875 15.189C16.2875 15.514 16.2745 15.839 16.2745 16.151C16.2615 16.853 17.3275 16.71 17.8865 16.619C18.5105 16.515 18.8485 16.216 18.9005 15.592C18.9655 14.812 18.4325 14.552 17.6265 14.526Z" fill="#BABABA"/>
</svg>
