<svg width="76" height="35" viewBox="0 0 76 35" fill="none" xmlns="http://www.w3.org/2000/svg">
<rect width="76" height="35" rx="17.5" fill="#444444"/>
<path d="M52.8314 13.082C53.0524 13.082 53.2604 13.108 53.4684 13.134C53.7934 13.186 54.0924 13.342 54.3394 13.589C55.1844 14.473 55.3144 15.994 55.3664 17.229C55.4054 18.022 55.4054 18.828 55.3144 19.608C55.2234 20.414 55.1064 21.285 54.6774 21.948C54.3134 22.507 53.7804 22.871 53.1954 22.988C52.6624 23.092 52.0774 23.027 51.5834 22.741C51.1154 22.468 50.8554 22.039 50.6214 21.493C50.4524 21.09 50.3484 20.648 50.3224 20.206C50.2574 19.478 50.2314 18.75 50.2314 18.022C50.2314 17.528 50.2574 17.047 50.3094 16.566C50.3354 16.176 50.3744 15.773 50.4394 15.396C50.5044 15.084 50.5434 14.811 50.6734 14.525C50.8034 14.239 50.9724 13.966 51.1934 13.758C51.5704 13.381 52.0124 13.173 52.5064 13.108C52.6104 13.095 52.7274 13.095 52.8314 13.082ZM59.3054 17.073H59.3314C59.4094 17.073 59.4874 17.099 59.5784 17.099C59.6694 17.112 59.7734 17.125 59.8774 17.138C60.0724 17.177 60.2804 17.255 60.3714 17.45C60.4364 17.554 60.4624 17.671 60.4624 17.788C60.4624 17.918 60.4624 18.035 60.4234 18.165C60.3974 18.295 60.3584 18.477 60.2414 18.568C60.1374 18.646 60.0204 18.711 59.8904 18.737C59.6174 18.776 59.1494 18.737 58.8764 18.75C58.8504 18.75 58.8374 18.763 58.8374 18.763C58.8374 18.763 58.8244 18.763 58.8244 18.815C58.8114 19.244 58.8244 20.024 58.8244 20.466C58.8374 20.908 58.8374 21.363 58.8244 21.792V21.974C58.8244 22.429 58.8244 23.092 58.5124 23.404C58.4084 23.521 58.2654 23.586 58.0964 23.586C58.0964 23.586 58.0834 23.573 58.0704 23.573C57.2254 23.547 57.1344 22.533 57.1344 21.987V14.265C57.1344 14.239 57.1214 13.589 57.4074 13.303C57.5244 13.186 57.7974 13.121 57.9924 13.121C58.1874 13.121 58.3564 13.199 58.4734 13.316C58.7074 13.563 58.7204 13.836 58.7464 14.122C58.7594 14.174 58.7594 14.226 58.7594 14.278C58.7984 14.564 58.7984 14.889 58.8114 15.201C58.8114 15.396 58.8244 15.565 58.8244 15.76C58.8114 15.864 58.8244 15.955 58.8244 16.046V16.761C58.8244 16.852 58.8244 16.956 58.8504 17.047C58.8504 17.06 59.1104 17.06 59.1234 17.06C59.1884 17.073 59.2404 17.086 59.3054 17.073ZM52.7924 21.259C52.9484 21.259 53.1174 21.207 53.2734 21.103C53.5594 20.895 53.6634 20.531 53.7414 20.115C53.8844 19.322 53.8714 18.36 53.8454 17.541C53.8324 16.878 53.8194 16.02 53.5074 15.487C53.3384 15.201 53.0784 15.019 52.8054 15.058C52.5194 15.084 52.2464 15.266 52.0904 15.604L51.9734 15.877C51.8694 16.202 51.8174 16.566 51.7914 16.917C51.7654 17.268 51.7394 17.632 51.7394 17.983C51.7524 18.334 51.7134 18.659 51.7394 18.997C51.8044 19.894 51.9344 21.246 52.7924 21.259Z" fill="#EFFC35"/>
<path d="M47.5629 17.1117C47.8879 17.2807 48.2129 17.5277 48.4859 17.7877C48.7719 18.0607 48.6809 18.7107 48.2519 18.8017C47.7059 18.9317 47.0559 18.7367 46.5619 18.4897C46.0939 18.2557 45.7039 18.0477 45.3139 17.8007C45.0799 17.6447 44.4169 17.2677 44.4169 17.2677C44.4169 17.2677 43.6239 17.6577 43.3509 17.8137C42.8959 18.0737 42.5579 18.2427 42.1029 18.4767C41.7649 18.6457 41.4009 18.9057 41.0109 18.8797C40.6989 18.8537 40.3479 18.7107 40.2829 18.3337C40.2699 18.2297 40.2829 18.0997 40.3089 17.9957C40.3739 17.7097 40.5559 17.5277 40.7899 17.3717L41.6869 16.8647C41.9859 16.6957 42.1679 16.6047 42.4799 16.4357C42.7659 16.2667 43.2079 16.0067 43.5459 15.8767V14.8237H42.1679C41.8949 14.8237 41.7259 14.8367 41.4659 14.8107C41.2709 14.7847 41.0239 14.8107 40.8419 14.7067C40.7379 14.6547 40.6599 14.5507 40.6079 14.4337C40.5039 14.2387 40.4779 13.9527 40.5689 13.7447C40.6989 13.4327 41.0629 13.2767 41.3879 13.2767H41.6869C41.9599 13.2897 42.0249 13.2767 42.2979 13.2767H46.7959C47.3679 13.2767 48.3429 13.1207 48.5249 13.9527C48.7329 14.9147 47.3289 14.8887 46.7829 14.8627C46.2499 14.8237 45.4439 14.8497 45.4439 14.8497V15.9027C45.5479 15.9677 45.6649 16.0327 45.7819 16.0847C45.8859 16.1367 45.9769 16.2017 46.0809 16.2667C46.2499 16.3577 46.4189 16.4357 46.5879 16.5397C46.9129 16.7217 47.2379 16.9297 47.5629 17.1117ZM40.8679 21.2067C40.4649 21.1937 40.0879 21.1287 39.8669 20.7907C39.6849 20.5047 39.6849 20.1277 39.9189 19.8807C40.1919 19.6077 40.8289 19.6207 40.8549 19.6207H47.9399C48.4859 19.5947 49.3309 19.6207 49.3309 20.3877C49.3309 21.2457 47.9789 21.1807 47.4199 21.1937H46.9129C46.5749 21.2067 46.2369 21.1937 45.8989 21.1937H45.4049C45.4179 21.6747 45.4569 22.2597 45.3919 22.6757C45.3529 23.0007 45.2359 23.3387 44.9499 23.5207C44.6899 23.6897 44.2999 23.7027 44.0269 23.5467C43.8059 23.4167 43.7019 23.1047 43.6629 22.8707C43.6239 22.6757 43.6499 22.4417 43.6499 22.2467C43.6369 21.9347 43.6369 21.5447 43.6369 21.1807H43.3119C42.3499 21.1937 41.8299 21.2197 40.8679 21.2067Z" fill="#EFFC35"/>
<path d="M27.6505 18.6459C27.5075 18.6459 27.3645 18.6199 27.2215 18.5939C27.0785 18.5939 26.9485 18.5289 26.8445 18.4899C26.7275 18.4379 26.6495 18.3729 26.5585 18.2689C26.4805 18.1519 26.4285 17.9829 26.3895 17.8139C26.3635 17.6319 26.3375 17.4629 26.3375 17.2939C26.3115 17.1379 26.3115 17.0079 26.3115 16.8909V16.0719C26.3115 15.9549 26.3375 15.8119 26.3375 15.6559V14.1999C26.3375 14.1479 26.3375 14.0569 26.3635 13.9789C26.3635 13.8879 26.3895 13.8099 26.3895 13.7449C26.4285 13.6539 26.4545 13.5759 26.4805 13.5109C26.5585 13.4069 26.6495 13.3159 26.7275 13.2639C26.8185 13.1729 26.9225 13.1469 27.0525 13.1209C27.0785 13.1209 27.1695 13.0949 27.2475 13.0949H27.5075C27.6115 13.0819 27.6895 13.0819 27.7935 13.0819H30.6665C30.8615 13.0819 31.0435 13.0949 31.2645 13.1209C31.4855 13.1469 31.6805 13.2119 31.8365 13.3159C31.9795 13.4069 32.0705 13.5109 32.1225 13.6279C32.1745 13.7579 32.2005 13.8619 32.2395 14.0309C32.2395 14.1739 32.2525 14.3169 32.2395 14.4339V14.8629C32.2395 15.0059 32.2655 15.1229 32.2265 15.2659C32.2265 15.4089 32.2395 15.9549 32.2395 16.0849V17.0599C32.2785 17.1639 32.2395 17.2679 32.2395 17.3849C32.2395 17.4889 32.2005 17.6059 32.2005 17.7229C32.2005 17.8139 32.1745 17.9309 32.1225 18.0479C32.0965 18.1519 32.0445 18.2429 31.9535 18.3469C31.9015 18.4379 31.8105 18.4899 31.7065 18.5029C31.4855 18.6199 31.2385 18.6459 30.9915 18.6459H30.2505C30.1985 18.6459 30.0685 18.6719 29.8345 18.6719C29.6135 18.6719 29.5355 18.6459 29.2755 18.6459H27.6505ZM35.5545 22.1949C35.6065 22.2729 35.6715 22.3639 35.6715 22.4419C35.7235 22.7669 35.6715 23.0139 35.5025 23.2089C35.3985 23.3389 35.2815 23.3909 35.1515 23.4299C35.0345 23.4559 34.9825 23.4819 34.9565 23.4819H28.5475C28.1965 23.4819 27.9235 23.4299 27.7285 23.3129C27.5075 23.2089 27.4295 23.0399 27.4295 22.8449V21.0119C27.4295 20.9599 27.4035 20.8949 27.4035 20.8169V20.2969C27.4035 20.2189 27.4295 20.1539 27.4295 20.1019C27.4295 19.9069 27.5075 19.7769 27.6635 19.6729C27.8325 19.5299 28.0015 19.4779 28.2095 19.4779C28.2355 19.4779 28.3005 19.4779 28.3785 19.5039C28.4305 19.5039 28.4955 19.5039 28.5475 19.5299C28.6645 19.5559 28.7425 19.6079 28.8335 19.6989C28.8725 19.7769 28.9245 19.8809 28.9895 19.9849C29.0155 20.0759 29.0415 20.1799 29.0415 20.3229C29.0415 20.4399 29.0675 20.5309 29.0675 20.6479V21.9089C29.0935 21.9089 29.1845 21.9089 29.2885 21.9349C29.4055 21.9349 29.6135 21.9609 29.9515 21.9609C30.2245 21.9609 30.4975 21.9349 30.7185 21.9349H35.0865C35.2035 21.9609 35.2815 21.9999 35.3725 22.0519C35.4245 22.0779 35.5025 22.1299 35.5545 22.1949ZM34.0205 18.9579C33.9295 18.8149 33.9035 18.6719 33.8775 18.5029C33.8255 18.1909 33.8515 17.8529 33.8515 17.5279V16.4359C33.8775 16.2019 33.8775 15.9809 33.8775 15.7469V14.2519C33.8515 14.1479 33.8515 14.0309 33.8515 13.9269C33.8775 13.8099 33.8775 13.7449 33.9035 13.6279C33.9295 13.4849 34.0205 13.3419 34.1505 13.2119C34.2155 13.1209 34.3065 13.0559 34.4235 13.0299C34.5665 12.9649 34.6965 12.9649 34.8655 12.9909C35.1125 13.0299 35.3075 13.1209 35.3855 13.3159C35.4505 13.4329 35.4765 13.5759 35.4505 13.7579V18.5029C35.4115 18.6199 35.3855 18.7239 35.3595 18.8149C35.3335 18.8929 35.3075 18.9839 35.2425 19.0619C35.1905 19.1529 35.1385 19.1919 35.0215 19.2439C34.9305 19.3349 34.7875 19.3609 34.6705 19.3609C34.5015 19.3609 34.3715 19.3089 34.2415 19.2179C34.1505 19.1529 34.0725 19.0619 34.0205 18.9579ZM27.9105 16.3189C27.9105 16.4359 27.9365 16.5009 27.9365 16.5789C27.9365 16.6439 27.9365 16.7219 27.9625 16.7869C27.9885 16.8649 28.0145 16.9169 28.0535 16.9819C28.1315 17.0599 28.2485 17.1119 28.4045 17.1379H29.8995C29.9775 17.1379 30.0295 17.1379 30.1205 17.1639C30.1985 17.1639 30.2765 17.1639 30.3285 17.1379C30.4195 17.1379 30.4455 17.1119 30.4715 17.0599C30.4975 17.0339 30.5235 17.0079 30.5495 16.9429C30.5495 16.8649 30.5755 16.8129 30.5755 16.7479C30.6145 16.5789 30.6405 16.3969 30.6405 16.2019V15.3569C30.6145 15.2919 30.6145 15.2139 30.6145 15.1229C30.6405 15.0839 30.6145 15.0059 30.6145 14.9409C30.5495 14.8369 30.4975 14.7719 30.4195 14.7719C30.3545 14.7459 30.2765 14.7459 30.1985 14.7459L28.7035 14.7199H28.4825C28.4045 14.7199 28.3395 14.7199 28.3005 14.7459C28.1835 14.7459 28.0795 14.7979 27.9885 14.9149C27.9625 14.9409 27.9365 15.0319 27.9365 15.1099V15.8119C27.9365 15.8639 27.9105 15.9549 27.9105 16.0069V16.3189Z" fill="#EFFC35"/>
<path d="M17.3921 16.9169C17.3921 17.0209 17.3921 17.0729 17.4181 17.0729C17.4441 17.0729 17.5351 17.0729 17.7041 17.1119C17.8471 17.1119 18.0811 17.1379 18.2501 17.1379H18.6141C18.7311 17.1119 18.7961 17.0729 18.8221 17.0469C18.8221 17.0209 18.8221 16.9689 18.8481 16.8259V14.4209C18.8741 14.2519 18.9001 14.1089 18.9651 13.9399C18.9911 13.7839 19.0691 13.6409 19.1861 13.5369C19.2901 13.4199 19.4461 13.3679 19.6801 13.3679C19.8361 13.3679 19.9401 13.4199 20.0701 13.5109C20.1871 13.5889 20.2651 13.7059 20.3171 13.8879C20.3821 14.0569 20.4341 14.2779 20.4601 14.4989C20.4601 14.7069 20.4861 14.9279 20.4861 15.1619C20.4861 15.3699 20.4861 15.5389 20.4601 15.6819V20.6089C20.4601 21.1419 20.4731 21.8049 20.1871 22.2989C20.1611 22.3899 20.1221 22.4419 20.0701 22.4939C20.0181 22.5849 19.9531 22.6109 19.9401 22.6369C19.8881 22.7149 19.8101 22.7669 19.7191 22.7929C19.6411 22.8189 19.5501 22.8449 19.4721 22.8709C19.3811 22.9099 19.3031 22.9359 19.2251 22.9359H17.2491C17.0151 22.9359 16.8201 22.9359 16.6381 22.8709C16.4431 22.8449 16.2741 22.7669 16.1051 22.6629C16.0141 22.5849 15.9231 22.4679 15.8711 22.3249C15.8191 22.1949 15.7541 22.0649 15.7281 21.9219C15.7281 21.7789 15.7021 21.6749 15.7021 21.5579V14.6549C15.7021 14.5249 15.7281 14.3819 15.7541 14.2519C15.7801 14.0829 15.8451 13.9399 15.8971 13.8359C15.9881 13.7059 16.0531 13.5889 16.1701 13.5109C16.2481 13.4199 16.3911 13.3939 16.5601 13.3939C16.9891 13.3939 17.1581 13.5889 17.2751 13.9399C17.3401 14.0829 17.3661 14.1869 17.3661 14.3299C17.3661 14.4469 17.3921 14.5639 17.3921 14.6809V16.9169ZM21.6171 23.1439C21.4741 23.0009 21.4221 22.7799 21.3831 22.5719C21.3571 22.3769 21.3571 22.1559 21.3571 21.9739V14.0569C21.3571 13.9009 21.3831 13.7579 21.4481 13.6409C21.4741 13.5109 21.5521 13.3939 21.6431 13.2899C21.7211 13.1859 21.8381 13.1209 21.9941 13.0689C22.1891 13.0429 22.3841 13.0949 22.5271 13.2379C22.6051 13.3549 22.6831 13.4719 22.7351 13.6409C22.7871 13.8099 22.7611 14.0049 22.7871 14.2259C22.7871 14.4209 22.8131 14.6419 22.8131 14.8499V17.2419H23.6711V14.1349C23.6711 13.9789 23.6971 13.8099 23.7231 13.6799C23.7621 13.5109 23.8141 13.3809 23.8921 13.2639C24.0091 13.1599 24.1391 13.0949 24.3341 13.0689C24.5291 13.0689 24.7371 13.1599 24.8541 13.2639C25.1011 13.5629 25.1011 13.9009 25.1271 14.2519C25.1271 14.4469 25.1531 14.6419 25.1531 14.8499C25.1531 15.0449 25.1531 15.2139 25.1271 15.3569V22.0649C25.1271 22.2729 25.1271 22.5329 25.1011 22.7799C25.0491 23.2219 24.3341 23.7939 23.9571 23.2999C23.6971 22.9749 23.6711 22.4289 23.6711 22.0389V18.8409H22.8131V21.9999C22.8131 22.2079 22.8131 22.4029 22.7871 22.6239C22.7351 22.9749 22.6051 23.2869 22.2151 23.3649C21.9551 23.4169 21.7471 23.3129 21.6171 23.1439ZM18.8221 18.6849L17.2751 18.7239V21.3499H18.8481L18.8221 18.6849Z" fill="#EFFC35"/>
</svg>
