<svg width="86" height="35" viewBox="0 0 86 35" fill="none" xmlns="http://www.w3.org/2000/svg">
<rect width="86" height="35" rx="17.5" fill="#444444"/>
<path d="M66.0703 13.9551L64.166 20.5059L63.3027 20.3281L65.0547 14.3105H61.4746L61.5508 13.3203H65.6641L66.0703 13.9551ZM68.4824 20.6836V12H69.5234V20.6836H68.4824Z" fill="#BABABA"/>
<path d="M50.4297 16.5703C50.4297 16.2741 50.4635 15.9567 50.5312 15.6182C50.6074 15.2712 50.7301 14.9495 50.8994 14.6533C51.0771 14.3571 51.3141 14.1117 51.6104 13.917C51.9066 13.7223 52.2832 13.625 52.7402 13.625C53.1719 13.625 53.5358 13.7223 53.832 13.917C54.1283 14.1117 54.3652 14.3571 54.543 14.6533C54.7292 14.9495 54.8604 15.2712 54.9365 15.6182C55.0127 15.9567 55.0508 16.2741 55.0508 16.5703C55.0508 16.8835 55.0127 17.2135 54.9365 17.5605C54.8604 17.8991 54.7292 18.2122 54.543 18.5C54.3652 18.7878 54.1283 19.0247 53.832 19.2109C53.5358 19.3971 53.1719 19.4902 52.7402 19.4902C52.3086 19.4902 51.9447 19.3971 51.6484 19.2109C51.3522 19.0247 51.111 18.7878 50.9248 18.5C50.7471 18.2122 50.6201 17.8991 50.5439 17.5605C50.4678 17.2135 50.4297 16.8835 50.4297 16.5703ZM51.2676 16.5703C51.2676 16.7819 51.2887 17.0104 51.3311 17.2559C51.3734 17.5013 51.4495 17.7298 51.5596 17.9414C51.6696 18.153 51.8177 18.3307 52.0039 18.4746C52.1986 18.61 52.444 18.6777 52.7402 18.6777C53.028 18.6777 53.265 18.61 53.4512 18.4746C53.6458 18.3307 53.7982 18.153 53.9082 17.9414C54.0267 17.7298 54.1071 17.5013 54.1494 17.2559C54.1917 17.0104 54.2129 16.7819 54.2129 16.5703C54.2129 16.3587 54.1875 16.1302 54.1367 15.8848C54.0944 15.6393 54.0182 15.4108 53.9082 15.1992C53.7982 14.9876 53.6458 14.8141 53.4512 14.6787C53.265 14.5348 53.028 14.4629 52.7402 14.4629C52.4355 14.4629 52.1859 14.5348 51.9912 14.6787C51.805 14.8141 51.6569 14.9876 51.5469 15.1992C51.4368 15.4108 51.3607 15.6393 51.3184 15.8848C51.2845 16.1302 51.2676 16.3587 51.2676 16.5703ZM57.1836 21.2168V12.5332H58.1738V14.4883H60.3828V15.3262H58.1484V17.5098H60.3828V18.373H58.0723V21.2168H57.1836Z" fill="#BABABA"/>
<path d="M40.502 16.2656C40.502 15.9694 40.5358 15.652 40.6035 15.3135C40.6797 14.9665 40.8024 14.6449 40.9717 14.3486C41.1494 14.0524 41.3864 13.807 41.6826 13.6123C41.9788 13.4176 42.3555 13.3203 42.8125 13.3203C43.2441 13.3203 43.6081 13.4176 43.9043 13.6123C44.2005 13.807 44.4375 14.0524 44.6152 14.3486C44.8014 14.6449 44.9326 14.9665 45.0088 15.3135C45.085 15.652 45.123 15.9694 45.123 16.2656C45.123 16.5788 45.085 16.9089 45.0088 17.2559C44.9326 17.5944 44.8014 17.9076 44.6152 18.1953C44.4375 18.4831 44.2005 18.7201 43.9043 18.9062C43.6081 19.0924 43.2441 19.1855 42.8125 19.1855C42.3809 19.1855 42.0169 19.0924 41.7207 18.9062C41.4245 18.7201 41.1833 18.4831 40.9971 18.1953C40.8193 17.9076 40.6924 17.5944 40.6162 17.2559C40.54 16.9089 40.502 16.5788 40.502 16.2656ZM41.3398 16.2656C41.3398 16.4772 41.361 16.7057 41.4033 16.9512C41.4456 17.1966 41.5218 17.4251 41.6318 17.6367C41.7419 17.8483 41.89 18.026 42.0762 18.1699C42.2708 18.3053 42.5163 18.373 42.8125 18.373C43.1003 18.373 43.3372 18.3053 43.5234 18.1699C43.7181 18.026 43.8704 17.8483 43.9805 17.6367C44.099 17.4251 44.1794 17.1966 44.2217 16.9512C44.264 16.7057 44.2852 16.4772 44.2852 16.2656C44.2852 16.054 44.2598 15.8255 44.209 15.5801C44.1667 15.3346 44.0905 15.1061 43.9805 14.8945C43.8704 14.6829 43.7181 14.5094 43.5234 14.374C43.3372 14.2301 43.1003 14.1582 42.8125 14.1582C42.5078 14.1582 42.2581 14.2301 42.0635 14.374C41.8773 14.5094 41.7292 14.6829 41.6191 14.8945C41.5091 15.1061 41.4329 15.3346 41.3906 15.5801C41.3568 15.8255 41.3398 16.054 41.3398 16.2656ZM47.5605 20.6836V12H48.6016V20.6836H47.5605Z" fill="#BABABA"/>
<path d="M33.9512 15.7832V16.6211H29.1016L28.6191 16.0879V12.127H33.4688V12.7871H29.457V13.9043H33.5195V14.6406H29.457V15.7832H33.9512ZM31.9707 18.9062V21.5215H31.1582V18.9062H26.6641L26.7148 18.1953H35.5762V18.8047L31.9707 18.9062ZM28.873 23.248L28.3145 22.8164V19.9727H29.1016V22.3848L34.8652 22.5117C34.8652 22.681 34.8652 22.8122 34.8652 22.9053C34.8737 23.0068 34.8779 23.083 34.8779 23.1338C34.8779 23.1846 34.8779 23.2227 34.8779 23.248C34.8864 23.2734 34.8906 23.2988 34.8906 23.3242L28.873 23.248Z" fill="#BABABA"/>
<path d="M16 19.8711L18.4375 16.7227V13.7012H19.4785V16.6973L21.9414 19.7695L21.4336 20.4043L18.8945 17.6113L16.6348 20.5312L16 19.8711ZM24.8613 21.6992H24.1758V17.0273H20.5703V16.1895H24.0742V13.041H24.8613V21.6992Z" fill="#BABABA"/>
</svg>
