<svg width="110" height="35" viewBox="0 0 110 35" fill="none" xmlns="http://www.w3.org/2000/svg">
<rect width="110" height="35" rx="17.5" fill="#444444"/>
<path d="M94.8451 21.6118C94.7571 21.6518 94.6451 21.6878 94.5091 21.7198C94.3811 21.7518 94.2371 21.7758 94.0771 21.7918C93.9251 21.8158 93.7651 21.8278 93.5971 21.8278C93.4291 21.8358 93.2691 21.8318 93.1171 21.8158C92.6131 21.7758 92.1651 21.6598 91.7731 21.4678C91.3891 21.2758 91.0651 21.0278 90.8011 20.7238C90.5371 20.4118 90.3371 20.0478 90.2011 19.6318C90.0651 19.2158 89.9971 18.7638 89.9971 18.2758C89.9971 17.7638 90.0771 17.2918 90.2371 16.8598C90.3971 16.4278 90.6211 16.0558 90.9091 15.7438C91.2051 15.4318 91.5571 15.1918 91.9651 15.0238C92.3811 14.8478 92.8411 14.7598 93.3451 14.7598C93.5771 14.7598 93.8291 14.7758 94.1011 14.8078C94.3811 14.8398 94.6371 14.8958 94.8691 14.9758C94.9411 14.9998 94.9811 15.0278 94.9891 15.0598C95.0051 15.0918 95.0091 15.1518 95.0011 15.2398L94.8811 16.1638C94.8651 16.2598 94.8371 16.3238 94.7971 16.3558C94.7651 16.3878 94.6891 16.3838 94.5691 16.3438C94.4011 16.2798 94.1971 16.2358 93.9571 16.2118C93.7171 16.1798 93.5051 16.1678 93.3211 16.1758C92.7691 16.1918 92.3411 16.3918 92.0371 16.7758C91.7411 17.1518 91.5931 17.6518 91.5931 18.2758C91.5931 18.8758 91.7331 19.3598 92.0131 19.7278C92.3011 20.0958 92.7011 20.3078 93.2131 20.3638C93.4691 20.4038 93.7211 20.4118 93.9691 20.3878C94.2251 20.3558 94.4491 20.3078 94.6411 20.2438C94.7691 20.2038 94.8451 20.1958 94.8691 20.2198C94.9011 20.2358 94.9211 20.2878 94.9291 20.3758L95.0011 21.2998C95.0091 21.3958 95.0011 21.4598 94.9771 21.4918C94.9611 21.5318 94.9171 21.5718 94.8451 21.6118Z" fill="#BABABA"/>
<path d="M88.0627 13.908C87.7987 13.908 87.5787 13.816 87.4027 13.632C87.2267 13.448 87.1387 13.224 87.1387 12.96C87.1387 12.696 87.2227 12.472 87.3907 12.288C87.5667 12.096 87.7907 12 88.0627 12C88.3347 12 88.5587 12.096 88.7347 12.288C88.9107 12.472 88.9987 12.696 88.9987 12.96C88.9987 13.224 88.9107 13.448 88.7347 13.632C88.5587 13.816 88.3347 13.908 88.0627 13.908ZM87.4507 21.66C87.3787 21.66 87.3267 21.644 87.2947 21.612C87.2707 21.58 87.2587 21.516 87.2587 21.42V15.168C87.2587 15.072 87.2707 15.008 87.2947 14.976C87.3187 14.944 87.3707 14.928 87.4507 14.928H88.6387C88.7187 14.928 88.7707 14.944 88.7947 14.976C88.8267 15.008 88.8427 15.072 88.8427 15.168V21.42C88.8427 21.516 88.8267 21.58 88.7947 21.612C88.7707 21.644 88.7187 21.66 88.6387 21.66H87.4507Z" fill="#BABABA"/>
<path d="M84.2297 21.6598C84.1417 21.6598 84.0777 21.6438 84.0377 21.6118C84.0057 21.5798 83.9897 21.5158 83.9897 21.4198V17.6038C83.9897 16.5878 83.6897 16.0798 83.0897 16.0798C82.7537 16.0798 82.4777 16.1478 82.2617 16.2838C82.0457 16.4118 81.8897 16.5918 81.7937 16.8238V21.4198C81.7937 21.5158 81.7737 21.5798 81.7337 21.6118C81.6937 21.6438 81.6337 21.6598 81.5537 21.6598H80.4497C80.3617 21.6598 80.3017 21.6438 80.2697 21.6118C80.2377 21.5798 80.2217 21.5158 80.2217 21.4198V11.9998C80.2217 11.8398 80.2977 11.7598 80.4497 11.7598H81.5537C81.7137 11.7598 81.7937 11.8398 81.7937 11.9998V15.2398C82.0017 15.0638 82.2297 14.9238 82.4777 14.8198C82.7257 14.7078 82.9617 14.6518 83.1857 14.6518C83.9937 14.6518 84.5897 14.8878 84.9737 15.3598C85.3657 15.8318 85.5617 16.5758 85.5617 17.5918V21.4198C85.5617 21.5158 85.5417 21.5798 85.5017 21.6118C85.4697 21.6438 85.4137 21.6598 85.3337 21.6598H84.2297Z" fill="#BABABA"/>
<path d="M79.1259 21.5757C78.9659 21.6477 78.7739 21.7077 78.5499 21.7557C78.3259 21.8117 78.0699 21.8357 77.7819 21.8277C77.4859 21.8197 77.2179 21.7437 76.9779 21.5997C76.7379 21.4637 76.5619 21.2957 76.4499 21.0957C76.3379 20.8637 76.2699 20.6037 76.2459 20.3157C76.2219 20.0197 76.2099 19.6397 76.2099 19.1757V16.3437H75.3579C75.2059 16.3437 75.1299 16.2637 75.1299 16.1037V15.1077C75.1299 14.9477 75.2059 14.8677 75.3579 14.8677H76.2099V13.2717C76.2099 13.1117 76.2899 13.0317 76.4499 13.0317H77.5539C77.7059 13.0317 77.7819 13.1117 77.7819 13.2717V14.8677H78.8019C78.8979 14.8677 78.9579 14.8877 78.9819 14.9277C79.0139 14.9597 79.0299 15.0197 79.0299 15.1077V16.1037C79.0299 16.1917 79.0139 16.2557 78.9819 16.2957C78.9579 16.3277 78.8979 16.3437 78.8019 16.3437H77.7819V19.0317C77.7819 19.3197 77.7819 19.5557 77.7819 19.7397C77.7819 19.9157 77.7899 20.0317 77.8059 20.0877C77.8379 20.2397 77.9059 20.3357 78.0099 20.3757C78.1139 20.4157 78.2259 20.4277 78.3459 20.4117C78.4659 20.3957 78.5819 20.3677 78.6939 20.3277C78.8059 20.2877 78.8939 20.2517 78.9579 20.2197C79.0219 20.1877 79.0699 20.1877 79.1019 20.2197C79.1339 20.2437 79.1539 20.2997 79.1619 20.3877L79.2699 21.2877C79.2779 21.3597 79.2739 21.4157 79.2579 21.4557C79.2419 21.5037 79.1979 21.5437 79.1259 21.5757Z" fill="#BABABA"/>
<path d="M73.7452 20.7238C73.4492 21.0998 73.0932 21.3798 72.6772 21.5638C72.2692 21.7558 71.8132 21.8518 71.3092 21.8518C70.7812 21.8518 70.3172 21.7558 69.9172 21.5638C69.5252 21.3718 69.1932 21.1158 68.9212 20.7958C68.6572 20.4678 68.4572 20.0878 68.3212 19.6558C68.1852 19.2238 68.1172 18.7678 68.1172 18.2878C68.1172 17.8078 68.1812 17.3518 68.3092 16.9198C68.4452 16.4878 68.6452 16.1118 68.9092 15.7918C69.1812 15.4638 69.5172 15.2078 69.9172 15.0238C70.3172 14.8318 70.7812 14.7358 71.3092 14.7358C71.8372 14.7358 72.3012 14.8318 72.7012 15.0238C73.1012 15.2158 73.4332 15.4758 73.6972 15.8038C73.9692 16.1238 74.1732 16.4998 74.3092 16.9318C74.4452 17.3558 74.5132 17.8078 74.5132 18.2878C74.5132 18.7598 74.4452 19.2078 74.3092 19.6318C74.1812 20.0478 73.9932 20.4118 73.7452 20.7238ZM71.3092 16.1398C71.0452 16.1398 70.8132 16.2038 70.6132 16.3318C70.4132 16.4518 70.2452 16.6118 70.1092 16.8118C69.9812 17.0118 69.8812 17.2398 69.8092 17.4958C69.7452 17.7518 69.7132 18.0158 69.7132 18.2878C69.7132 18.5598 69.7452 18.8238 69.8092 19.0798C69.8812 19.3358 69.9812 19.5678 70.1092 19.7758C70.2452 19.9758 70.4132 20.1398 70.6132 20.2678C70.8132 20.3878 71.0452 20.4478 71.3092 20.4478C71.5812 20.4478 71.8172 20.3878 72.0172 20.2678C72.2172 20.1398 72.3812 19.9758 72.5092 19.7758C72.6452 19.5678 72.7452 19.3358 72.8092 19.0798C72.8732 18.8238 72.9052 18.5598 72.9052 18.2878C72.9052 18.0238 72.8732 17.7638 72.8092 17.5078C72.7452 17.2518 72.6452 17.0238 72.5092 16.8238C72.3812 16.6158 72.2172 16.4518 72.0172 16.3318C71.8172 16.2038 71.5812 16.1398 71.3092 16.1398Z" fill="#BABABA"/>
<path d="M66.2705 21.3599C66.1265 21.4319 65.9425 21.4959 65.7185 21.5519C65.4945 21.6079 65.2545 21.6519 64.9985 21.6839C64.7505 21.7239 64.4945 21.7519 64.2305 21.7679C63.9745 21.7919 63.7385 21.8039 63.5225 21.8039C62.8505 21.8039 62.2265 21.6959 61.6505 21.4799C61.0825 21.2719 60.5905 20.9679 60.1745 20.5679C59.7665 20.1599 59.4425 19.6599 59.2025 19.0679C58.9705 18.4759 58.8545 17.7999 58.8545 17.0399C58.8545 16.3519 58.9625 15.7159 59.1785 15.1319C59.4025 14.5479 59.7145 14.0439 60.1145 13.6199C60.5225 13.1959 61.0145 12.8679 61.5905 12.6359C62.1665 12.3959 62.8145 12.2759 63.5345 12.2759C64.0065 12.2759 64.4425 12.3079 64.8425 12.3719C65.2425 12.4279 65.6145 12.5079 65.9585 12.6119C66.0785 12.6519 66.1465 12.6919 66.1625 12.7319C66.1865 12.7639 66.1905 12.8159 66.1745 12.8879L65.9945 13.9559C65.9785 14.0759 65.9425 14.1399 65.8865 14.1479C65.8385 14.1479 65.7545 14.1279 65.6345 14.0879C65.2745 13.9679 64.9185 13.8839 64.5665 13.8359C64.2225 13.7879 63.8745 13.7639 63.5225 13.7639C63.0825 13.7639 62.6785 13.8439 62.3105 14.0039C61.9505 14.1639 61.6385 14.3919 61.3745 14.6879C61.1105 14.9759 60.9025 15.3199 60.7505 15.7199C60.6065 16.1199 60.5345 16.5599 60.5345 17.0399C60.5345 17.5599 60.6065 18.0239 60.7505 18.4319C60.9025 18.8399 61.1105 19.1879 61.3745 19.4759C61.6465 19.7559 61.9625 19.9719 62.3225 20.1239C62.6905 20.2679 63.0905 20.3399 63.5225 20.3399C63.8185 20.3399 64.0865 20.3319 64.3265 20.3159C64.5745 20.2919 64.7625 20.2599 64.8905 20.2199V17.9999H63.0545C62.8945 17.9999 62.8145 17.9199 62.8145 17.7599V16.7399C62.8145 16.5799 62.8985 16.4999 63.0665 16.4999H66.1385C66.3225 16.4999 66.4305 16.5239 66.4625 16.5719C66.5025 16.6199 66.5225 16.7239 66.5225 16.8839V20.8679C66.5225 21.0199 66.5025 21.1239 66.4625 21.1799C66.4225 21.2439 66.3585 21.3039 66.2705 21.3599Z" fill="#BABABA"/>
<path d="M52.4164 21.6599C52.3284 21.6599 52.2644 21.6399 52.2244 21.5999C52.1844 21.5679 52.1644 21.5039 52.1644 21.4079V17.3759C52.1644 17.0559 52.0764 16.7999 51.9004 16.6079C51.7244 16.4079 51.5044 16.3079 51.2404 16.3079C51.0404 16.3079 50.8604 16.3559 50.7004 16.4519C50.5404 16.5399 50.4044 16.6639 50.2924 16.8239C50.1804 16.9839 50.0924 17.1679 50.0284 17.3759C49.9724 17.5839 49.9444 17.7999 49.9444 18.0239V21.4199C49.9444 21.5799 49.8684 21.6599 49.7164 21.6599H48.5884C48.5004 21.6599 48.4364 21.6399 48.3964 21.5999C48.3564 21.5679 48.3364 21.5039 48.3364 21.4079V17.3759C48.3364 16.9999 48.2604 16.7279 48.1084 16.5599C47.9644 16.3919 47.7524 16.3079 47.4724 16.3079C47.0884 16.3079 46.7844 16.4399 46.5604 16.7039C46.3364 16.9599 46.2244 17.2679 46.2244 17.6279V21.4199C46.2244 21.5159 46.2084 21.5799 46.1764 21.6119C46.1444 21.6439 46.0844 21.6599 45.9964 21.6599H44.8804C44.7844 21.6599 44.7204 21.6399 44.6884 21.5999C44.6564 21.5599 44.6404 21.4959 44.6404 21.4079V16.7159C44.6404 16.4119 44.6404 16.1119 44.6404 15.8159C44.6404 15.5119 44.6324 15.2799 44.6164 15.1199C44.6004 15.0319 44.6084 14.9719 44.6404 14.9399C44.6804 14.8999 44.7604 14.8799 44.8804 14.8799H45.9964C46.0844 14.8799 46.1404 14.8879 46.1644 14.9039C46.1884 14.9199 46.2004 14.9639 46.2004 15.0359V15.5279C46.3764 15.3439 46.5884 15.1839 46.8364 15.0479C47.0924 14.9039 47.3484 14.8319 47.6044 14.8319C47.9884 14.8319 48.3484 14.9319 48.6844 15.1319C49.0284 15.3319 49.2924 15.5999 49.4764 15.9359C49.5804 15.7839 49.7004 15.6399 49.8364 15.5039C49.9724 15.3679 50.1164 15.2479 50.2684 15.1439C50.4284 15.0399 50.5964 14.9559 50.7724 14.8919C50.9564 14.8279 51.1444 14.7959 51.3364 14.7959C51.6964 14.7959 52.0244 14.8479 52.3204 14.9519C52.6164 15.0559 52.8684 15.2079 53.0764 15.4079C53.2924 15.6079 53.4564 15.8559 53.5684 16.1519C53.6884 16.4399 53.7484 16.7719 53.7484 17.1479V21.4199C53.7484 21.5159 53.7284 21.5799 53.6884 21.6119C53.6564 21.6439 53.5964 21.6599 53.5084 21.6599H52.4164Z" fill="#BABABA"/>
<path d="M41.5638 21.6838C41.4758 21.6838 41.4158 21.6718 41.3838 21.6478C41.3598 21.6238 41.3478 21.5798 41.3478 21.5158V21.0598C41.2758 21.1718 41.1798 21.2718 41.0598 21.3598C40.9478 21.4558 40.8238 21.5358 40.6878 21.5998C40.5518 21.6638 40.4118 21.7158 40.2678 21.7558C40.1238 21.7958 39.9878 21.8158 39.8598 21.8158C39.0758 21.8158 38.4878 21.5838 38.0958 21.1198C37.7038 20.6558 37.5078 19.9958 37.5078 19.1398V15.1558C37.5078 15.0678 37.5238 15.0038 37.5558 14.9638C37.5878 14.9238 37.6478 14.9038 37.7358 14.9038H38.8398C38.9358 14.9038 38.9998 14.9318 39.0318 14.9878C39.0638 15.0358 39.0798 15.0958 39.0798 15.1678V18.9358C39.0798 19.2158 39.0998 19.4478 39.1398 19.6318C39.1878 19.8078 39.2518 19.9518 39.3318 20.0638C39.4118 20.1678 39.5078 20.2438 39.6198 20.2918C39.7398 20.3318 39.8718 20.3518 40.0158 20.3518C40.3678 20.3518 40.6638 20.2158 40.9038 19.9438C41.1518 19.6638 41.2758 19.2318 41.2758 18.6478V15.1558C41.2758 15.0678 41.2918 15.0038 41.3238 14.9638C41.3558 14.9238 41.4158 14.9038 41.5038 14.9038H42.6198C42.7158 14.9038 42.7758 14.9318 42.7998 14.9878C42.8318 15.0438 42.8478 15.1078 42.8478 15.1798V19.9918C42.8478 20.2318 42.8518 20.4838 42.8598 20.7478C42.8678 21.0038 42.8718 21.2318 42.8718 21.4318C42.8718 21.5358 42.8598 21.6038 42.8358 21.6358C42.8198 21.6678 42.7558 21.6838 42.6438 21.6838H41.5638Z" fill="#BABABA"/>
<path d="M31.7664 21.4197C31.7664 21.5157 31.7504 21.5797 31.7184 21.6117C31.6864 21.6437 31.6264 21.6597 31.5384 21.6597H30.4224C30.3264 21.6597 30.2624 21.6397 30.2304 21.5997C30.1984 21.5597 30.1824 21.4957 30.1824 21.4077V16.7157C30.1824 16.4117 30.1824 16.1037 30.1824 15.7917C30.1904 15.4797 30.1824 15.2437 30.1584 15.0837C30.1424 14.9957 30.1504 14.9397 30.1824 14.9157C30.2144 14.8917 30.2864 14.8797 30.3984 14.8797H31.5384C31.6264 14.8797 31.6824 14.8877 31.7064 14.9037C31.7304 14.9197 31.7424 14.9637 31.7424 15.0357V15.4917C31.9104 15.3157 32.1264 15.1557 32.3904 15.0117C32.6624 14.8597 32.9384 14.7837 33.2184 14.7837C34.0184 14.7837 34.6024 15.0117 34.9704 15.4677C35.3464 15.9237 35.5344 16.5877 35.5344 17.4597V21.4197C35.5344 21.5157 35.5184 21.5797 35.4864 21.6117C35.4544 21.6437 35.3944 21.6597 35.3064 21.6597H34.1904C34.0304 21.6597 33.9504 21.5757 33.9504 21.4077V17.6997C33.9504 16.7317 33.6584 16.2477 33.0744 16.2477C32.6664 16.2477 32.3464 16.3797 32.1144 16.6437C31.8824 16.9077 31.7664 17.2677 31.7664 17.7237V21.4197Z" fill="#BABABA"/>
<path d="M27.207 21.6839C27.135 21.6839 27.087 21.6759 27.063 21.6599C27.047 21.6439 27.039 21.5959 27.039 21.5159V20.9999C26.903 21.2159 26.679 21.3999 26.367 21.5519C26.063 21.7039 25.759 21.7799 25.455 21.7799C25.127 21.7799 24.811 21.7319 24.507 21.6359C24.203 21.5479 23.951 21.4039 23.751 21.2039C23.559 21.0119 23.407 20.7799 23.295 20.5079C23.183 20.2279 23.127 19.9119 23.127 19.5599C23.127 19.1439 23.227 18.7679 23.427 18.4319C23.627 18.0959 23.891 17.8359 24.219 17.6519C24.555 17.4599 24.951 17.3239 25.407 17.2439C25.863 17.1559 26.367 17.1279 26.919 17.1599C26.871 16.5279 26.599 16.1799 26.103 16.1159C25.943 16.0999 25.779 16.1039 25.611 16.1279C25.451 16.1519 25.291 16.1919 25.131 16.2479C24.979 16.2959 24.831 16.3559 24.687 16.4279C24.543 16.4919 24.415 16.5599 24.303 16.6319C24.135 16.7439 24.015 16.7999 23.943 16.7999C23.871 16.7999 23.835 16.7199 23.835 16.5599V15.5639C23.835 15.4599 23.843 15.3879 23.859 15.3479C23.883 15.2999 23.943 15.2519 24.039 15.2039C24.279 15.0839 24.559 14.9719 24.879 14.8679C25.207 14.7639 25.591 14.7119 26.031 14.7119C26.847 14.7119 27.455 14.9199 27.855 15.3359C28.263 15.7519 28.467 16.3959 28.467 17.2679V20.0039C28.467 20.1079 28.467 20.2239 28.467 20.3519C28.467 20.4719 28.467 20.5959 28.467 20.7239C28.475 20.8519 28.479 20.9719 28.479 21.0839C28.487 21.2039 28.495 21.3079 28.503 21.3959C28.519 21.5559 28.511 21.6439 28.479 21.6599C28.447 21.6759 28.391 21.6839 28.311 21.6839H27.207ZM27.039 18.3719C26.583 18.3799 26.207 18.4159 25.911 18.4799C25.615 18.5359 25.375 18.6159 25.191 18.7199C25.015 18.8239 24.895 18.9479 24.831 19.0919C24.767 19.2359 24.735 19.3959 24.735 19.5719C24.735 19.8279 24.811 20.0279 24.963 20.1719C25.115 20.3079 25.327 20.3759 25.599 20.3759C26.031 20.3759 26.375 20.2199 26.631 19.9079C26.895 19.5879 27.031 19.0759 27.039 18.3719Z" fill="#BABABA"/>
<path d="M20.3602 21.66C20.2642 21.66 20.2002 21.648 20.1682 21.624C20.1362 21.608 20.0962 21.556 20.0482 21.468L16.5802 15.144V21.372C16.5802 21.5 16.5682 21.58 16.5442 21.612C16.5202 21.644 16.4442 21.66 16.3162 21.66H15.2242C15.1042 21.66 15.0282 21.644 14.9962 21.612C14.9642 21.58 14.9482 21.5 14.9482 21.372V12.72C14.9482 12.584 14.9602 12.496 14.9842 12.456C15.0162 12.416 15.1042 12.396 15.2482 12.396H16.4362C16.5322 12.396 16.5962 12.408 16.6282 12.432C16.6602 12.456 16.7042 12.52 16.7602 12.624L20.1802 18.9V12.684C20.1802 12.564 20.1922 12.488 20.2162 12.456C20.2482 12.416 20.3242 12.396 20.4442 12.396H21.5242C21.6682 12.396 21.7522 12.416 21.7762 12.456C21.8002 12.496 21.8122 12.572 21.8122 12.684V21.324C21.8122 21.476 21.7962 21.568 21.7642 21.6C21.7322 21.64 21.6442 21.66 21.5002 21.66H20.3602Z" fill="#BABABA"/>
</svg>
