<svg width="97" height="35" viewBox="0 0 97 35" fill="none" xmlns="http://www.w3.org/2000/svg">
<rect width="97" height="35" rx="17.5" fill="#444444"/>
<path d="M76.5482 13.1201C76.7562 13.1201 76.9282 13.1881 77.0642 13.3241C77.2002 13.4601 77.2682 13.6361 77.2682 13.8521V21.2681C77.2682 21.4761 77.2002 21.6521 77.0642 21.7961C76.9282 21.9321 76.7562 22.0001 76.5482 22.0001C76.3402 22.0001 76.1682 21.9321 76.0322 21.7961C75.8962 21.6521 75.8282 21.4761 75.8282 21.2681V20.6801L76.0922 20.7881C76.0922 20.8921 76.0362 21.0201 75.9242 21.1721C75.8122 21.3161 75.6602 21.4601 75.4682 21.6041C75.2762 21.7481 75.0482 21.8721 74.7842 21.9761C74.5282 22.0721 74.2482 22.1201 73.9442 22.1201C73.3922 22.1201 72.8922 21.9801 72.4442 21.7001C71.9962 21.4121 71.6402 21.0201 71.3762 20.5241C71.1202 20.0201 70.9922 19.4441 70.9922 18.7961C70.9922 18.1401 71.1202 17.5641 71.3762 17.0681C71.6402 16.5641 71.9922 16.1721 72.4322 15.8921C72.8722 15.6041 73.3602 15.4601 73.8962 15.4601C74.2402 15.4601 74.5562 15.5121 74.8442 15.6161C75.1322 15.7201 75.3802 15.8521 75.5882 16.0121C75.8042 16.1721 75.9682 16.3361 76.0802 16.5041C76.2002 16.6641 76.2602 16.8001 76.2602 16.9121L75.8282 17.0681V13.8521C75.8282 13.6441 75.8962 13.4721 76.0322 13.3361C76.1682 13.1921 76.3402 13.1201 76.5482 13.1201ZM74.1242 20.8001C74.4762 20.8001 74.7842 20.7121 75.0482 20.5361C75.3122 20.3601 75.5162 20.1201 75.6602 19.8161C75.8122 19.5121 75.8882 19.1721 75.8882 18.7961C75.8882 18.4121 75.8122 18.0681 75.6602 17.7641C75.5162 17.4601 75.3122 17.2201 75.0482 17.0441C74.7842 16.8681 74.4762 16.7801 74.1242 16.7801C73.7802 16.7801 73.4762 16.8681 73.2122 17.0441C72.9482 17.2201 72.7402 17.4601 72.5882 17.7641C72.4442 18.0681 72.3722 18.4121 72.3722 18.7961C72.3722 19.1721 72.4442 19.5121 72.5882 19.8161C72.7402 20.1201 72.9482 20.3601 73.2122 20.5361C73.4762 20.7121 73.7802 20.8001 74.1242 20.8001Z" fill="#EFFC35"/>
<path d="M67.5756 15.46C68.1676 15.46 68.6156 15.584 68.9196 15.832C69.2316 16.08 69.4436 16.412 69.5556 16.828C69.6756 17.236 69.7356 17.692 69.7356 18.196V21.268C69.7356 21.476 69.6676 21.652 69.5316 21.796C69.3956 21.932 69.2236 22 69.0156 22C68.8076 22 68.6356 21.932 68.4996 21.796C68.3636 21.652 68.2956 21.476 68.2956 21.268V18.196C68.2956 17.932 68.2596 17.696 68.1876 17.488C68.1236 17.272 68.0036 17.1 67.8276 16.972C67.6516 16.844 67.3996 16.78 67.0716 16.78C66.7516 16.78 66.4796 16.844 66.2556 16.972C66.0396 17.1 65.8716 17.272 65.7516 17.488C65.6396 17.696 65.5836 17.932 65.5836 18.196V21.268C65.5836 21.476 65.5156 21.652 65.3796 21.796C65.2436 21.932 65.0716 22 64.8636 22C64.6556 22 64.4836 21.932 64.3476 21.796C64.2116 21.652 64.1436 21.476 64.1436 21.268V16.312C64.1436 16.104 64.2116 15.932 64.3476 15.796C64.4836 15.652 64.6556 15.58 64.8636 15.58C65.0716 15.58 65.2436 15.652 65.3796 15.796C65.5156 15.932 65.5836 16.104 65.5836 16.312V16.828L65.4036 16.792C65.4756 16.656 65.5796 16.512 65.7156 16.36C65.8516 16.2 66.0116 16.052 66.1956 15.916C66.3796 15.78 66.5876 15.672 66.8196 15.592C67.0516 15.504 67.3036 15.46 67.5756 15.46Z" fill="#EFFC35"/>
<path d="M61.8646 15.46C62.0726 15.46 62.2446 15.528 62.3806 15.664C62.5166 15.8 62.5846 15.976 62.5846 16.192V21.268C62.5846 21.476 62.5166 21.652 62.3806 21.796C62.2446 21.932 62.0726 22 61.8646 22C61.6566 22 61.4846 21.932 61.3486 21.796C61.2126 21.652 61.1446 21.476 61.1446 21.268V20.68L61.4086 20.788C61.4086 20.892 61.3526 21.02 61.2406 21.172C61.1286 21.316 60.9766 21.46 60.7846 21.604C60.5926 21.748 60.3646 21.872 60.1006 21.976C59.8446 22.072 59.5646 22.12 59.2606 22.12C58.7086 22.12 58.2086 21.98 57.7606 21.7C57.3126 21.412 56.9566 21.02 56.6926 20.524C56.4366 20.02 56.3086 19.444 56.3086 18.796C56.3086 18.14 56.4366 17.564 56.6926 17.068C56.9566 16.564 57.3086 16.172 57.7486 15.892C58.1886 15.604 58.6766 15.46 59.2126 15.46C59.5566 15.46 59.8726 15.512 60.1606 15.616C60.4486 15.72 60.6966 15.852 60.9046 16.012C61.1206 16.172 61.2846 16.336 61.3966 16.504C61.5166 16.664 61.5766 16.8 61.5766 16.912L61.1446 17.068V16.192C61.1446 15.984 61.2126 15.812 61.3486 15.676C61.4846 15.532 61.6566 15.46 61.8646 15.46ZM59.4406 20.8C59.7926 20.8 60.1006 20.712 60.3646 20.536C60.6286 20.36 60.8326 20.12 60.9766 19.816C61.1286 19.512 61.2046 19.172 61.2046 18.796C61.2046 18.412 61.1286 18.068 60.9766 17.764C60.8326 17.46 60.6286 17.22 60.3646 17.044C60.1006 16.868 59.7926 16.78 59.4406 16.78C59.0966 16.78 58.7926 16.868 58.5286 17.044C58.2646 17.22 58.0566 17.46 57.9046 17.764C57.7606 18.068 57.6886 18.412 57.6886 18.796C57.6886 19.172 57.7606 19.512 57.9046 19.816C58.0566 20.12 58.2646 20.36 58.5286 20.536C58.7926 20.712 59.0966 20.8 59.4406 20.8Z" fill="#EFFC35"/>
<path d="M50.3542 21.004C50.2742 20.892 50.2382 20.748 50.2462 20.572C50.2542 20.396 50.3582 20.244 50.5582 20.116C50.6862 20.036 50.8222 20.004 50.9662 20.02C51.1102 20.028 51.2502 20.1 51.3862 20.236C51.6182 20.468 51.8622 20.648 52.1182 20.776C52.3742 20.904 52.6942 20.968 53.0782 20.968C53.1982 20.96 53.3302 20.944 53.4742 20.92C53.6182 20.888 53.7422 20.824 53.8462 20.728C53.9582 20.624 54.0142 20.468 54.0142 20.26C54.0142 20.084 53.9542 19.944 53.8342 19.84C53.7142 19.736 53.5542 19.648 53.3542 19.576C53.1622 19.504 52.9462 19.436 52.7062 19.372C52.4582 19.3 52.2022 19.22 51.9382 19.132C51.6822 19.044 51.4462 18.932 51.2302 18.796C51.0142 18.652 50.8382 18.464 50.7022 18.232C50.5662 18 50.4982 17.708 50.4982 17.356C50.4982 16.956 50.6102 16.616 50.8342 16.336C51.0582 16.056 51.3462 15.84 51.6982 15.688C52.0582 15.536 52.4342 15.46 52.8262 15.46C53.0742 15.46 53.3342 15.492 53.6062 15.556C53.8782 15.612 54.1382 15.708 54.3862 15.844C54.6342 15.972 54.8422 16.144 55.0102 16.36C55.0982 16.48 55.1502 16.624 55.1662 16.792C55.1822 16.96 55.1062 17.112 54.9382 17.248C54.8182 17.344 54.6782 17.388 54.5182 17.38C54.3582 17.364 54.2262 17.308 54.1222 17.212C53.9862 17.036 53.8022 16.896 53.5702 16.792C53.3462 16.688 53.0862 16.636 52.7902 16.636C52.6702 16.636 52.5382 16.652 52.3942 16.684C52.2582 16.708 52.1382 16.768 52.0342 16.864C51.9302 16.952 51.8782 17.096 51.8782 17.296C51.8782 17.48 51.9382 17.628 52.0582 17.74C52.1782 17.844 52.3382 17.932 52.5382 18.004C52.7462 18.068 52.9662 18.132 53.1982 18.196C53.4382 18.26 53.6822 18.336 53.9302 18.424C54.1782 18.512 54.4062 18.628 54.6142 18.772C54.8222 18.916 54.9902 19.104 55.1182 19.336C55.2462 19.56 55.3102 19.848 55.3102 20.2C55.3102 20.608 55.1902 20.956 54.9502 21.244C54.7102 21.532 54.4102 21.752 54.0502 21.904C53.6902 22.048 53.3222 22.12 52.9462 22.12C52.4742 22.12 52.0022 22.04 51.5302 21.88C51.0582 21.712 50.6662 21.42 50.3542 21.004Z" fill="#EFFC35"/>
<path d="M44.7923 22.0001C44.5843 22.0001 44.4123 21.9321 44.2763 21.7961C44.1403 21.6521 44.0723 21.4761 44.0723 21.2681V13.8521C44.0723 13.6441 44.1403 13.4721 44.2763 13.3361C44.4123 13.1921 44.5843 13.1201 44.7923 13.1201C45.0003 13.1201 45.1723 13.1921 45.3083 13.3361C45.4443 13.4721 45.5123 13.6441 45.5123 13.8521V21.2681C45.5123 21.4761 45.4443 21.6521 45.3083 21.7961C45.1723 21.9321 45.0003 22.0001 44.7923 22.0001ZM48.6083 15.5801C48.7923 15.5801 48.9523 15.6561 49.0883 15.8081C49.2243 15.9601 49.2923 16.1081 49.2923 16.2521C49.2923 16.4441 49.1963 16.6241 49.0043 16.7921L45.3923 20.1161L45.3323 18.4601L48.0803 15.8081C48.2323 15.6561 48.4083 15.5801 48.6083 15.5801ZM48.7883 21.9881C48.5803 21.9881 48.4043 21.9081 48.2603 21.7481L46.0403 19.3961L47.1323 18.3881L49.2923 20.7401C49.4443 20.9001 49.5203 21.0801 49.5203 21.2801C49.5203 21.4881 49.4363 21.6601 49.2683 21.7961C49.1083 21.9241 48.9483 21.9881 48.7883 21.9881Z" fill="#EFFC35"/>
<path d="M40.574 15.46C41.03 15.46 41.426 15.508 41.762 15.604C42.106 15.7 42.37 15.836 42.554 16.012C42.746 16.18 42.842 16.384 42.842 16.624C42.842 16.784 42.794 16.936 42.698 17.08C42.602 17.216 42.462 17.284 42.278 17.284C42.15 17.284 42.042 17.268 41.954 17.236C41.874 17.196 41.802 17.148 41.738 17.092C41.674 17.036 41.598 16.984 41.51 16.936C41.43 16.888 41.306 16.852 41.138 16.828C40.978 16.796 40.858 16.78 40.778 16.78C40.37 16.78 40.022 16.868 39.734 17.044C39.454 17.22 39.238 17.46 39.086 17.764C38.934 18.06 38.858 18.404 38.858 18.796C38.858 19.18 38.934 19.524 39.086 19.828C39.246 20.124 39.462 20.36 39.734 20.536C40.014 20.712 40.334 20.8 40.694 20.8C40.894 20.8 41.066 20.788 41.21 20.764C41.354 20.74 41.474 20.704 41.57 20.656C41.682 20.592 41.782 20.524 41.87 20.452C41.958 20.38 42.09 20.344 42.266 20.344C42.474 20.344 42.634 20.412 42.746 20.548C42.858 20.676 42.914 20.836 42.914 21.028C42.914 21.228 42.802 21.412 42.578 21.58C42.354 21.74 42.058 21.872 41.69 21.976C41.33 22.072 40.938 22.12 40.514 22.12C39.882 22.12 39.334 21.976 38.87 21.688C38.406 21.392 38.046 20.992 37.79 20.488C37.542 19.984 37.418 19.42 37.418 18.796C37.418 18.14 37.55 17.564 37.814 17.068C38.086 16.564 38.458 16.172 38.93 15.892C39.41 15.604 39.958 15.46 40.574 15.46Z" fill="#EFFC35"/>
<path d="M36.2377 21.2681C36.2377 21.4761 36.1697 21.6521 36.0337 21.7961C35.8977 21.9321 35.7257 22.0001 35.5177 22.0001C35.3097 22.0001 35.1377 21.9321 35.0017 21.7961C34.8657 21.6521 34.7977 21.4761 34.7977 21.2681V16.3121C34.7977 16.1041 34.8657 15.9321 35.0017 15.7961C35.1377 15.6521 35.3097 15.5801 35.5177 15.5801C35.7257 15.5801 35.8977 15.6521 36.0337 15.7961C36.1697 15.9321 36.2377 16.1041 36.2377 16.3121V21.2681ZM35.5057 14.8001C35.2337 14.8001 35.0417 14.7561 34.9297 14.6681C34.8177 14.5801 34.7617 14.4241 34.7617 14.2001V13.9721C34.7617 13.7401 34.8217 13.5841 34.9417 13.5041C35.0697 13.4161 35.2617 13.3721 35.5177 13.3721C35.7977 13.3721 35.9937 13.4161 36.1057 13.5041C36.2177 13.5921 36.2737 13.7481 36.2737 13.9721V14.2001C36.2737 14.4321 36.2137 14.5921 36.0937 14.6801C35.9737 14.7601 35.7777 14.8001 35.5057 14.8001Z" fill="#EFFC35"/>
<path d="M32.6029 15.5801C32.8109 15.5801 32.9829 15.6521 33.1189 15.7961C33.2549 15.9321 33.3229 16.1041 33.3229 16.3121V19.3601C33.3229 20.2081 33.0869 20.8801 32.6149 21.3761C32.1429 21.8721 31.4629 22.1201 30.5749 22.1201C29.6869 22.1201 29.0069 21.8721 28.5349 21.3761C28.0709 20.8801 27.8389 20.2081 27.8389 19.3601V16.3121C27.8389 16.1041 27.9069 15.9321 28.0429 15.7961C28.1789 15.6521 28.3509 15.5801 28.5589 15.5801C28.7669 15.5801 28.9389 15.6521 29.0749 15.7961C29.2109 15.9321 29.2789 16.1041 29.2789 16.3121V19.3601C29.2789 19.8481 29.3869 20.2121 29.6029 20.4521C29.8189 20.6841 30.1429 20.8001 30.5749 20.8001C31.0149 20.8001 31.3429 20.6841 31.5589 20.4521C31.7749 20.2121 31.8829 19.8481 31.8829 19.3601V16.3121C31.8829 16.1041 31.9509 15.9321 32.0869 15.7961C32.2229 15.6521 32.3949 15.5801 32.6029 15.5801Z" fill="#EFFC35"/>
<path d="M26.6765 22.336C26.8445 22.336 27.0005 22.404 27.1445 22.54C27.2885 22.684 27.3605 22.848 27.3605 23.032C27.3605 23.216 27.2765 23.388 27.1085 23.548C26.9485 23.716 26.7405 23.864 26.4845 23.992C26.2285 24.12 25.9605 24.22 25.6805 24.292C25.4085 24.364 25.1605 24.4 24.9365 24.4C24.4405 24.4 24.0445 24.352 23.7485 24.256C23.4525 24.168 23.2085 24.064 23.0165 23.944C22.8245 23.832 22.6445 23.728 22.4765 23.632C22.3085 23.544 22.1045 23.5 21.8645 23.5C21.7125 23.5 21.5885 23.524 21.4925 23.572C21.4045 23.628 21.3045 23.68 21.1925 23.728C21.0885 23.784 20.9405 23.812 20.7485 23.812C20.5485 23.812 20.3805 23.736 20.2445 23.584C20.1085 23.432 20.0405 23.268 20.0405 23.092C20.0405 22.78 20.1805 22.572 20.4605 22.468L22.9445 21.544L24.0245 21.808L21.6965 22.672L22.3805 22.276C22.6605 22.276 22.9045 22.316 23.1125 22.396C23.3285 22.484 23.5325 22.58 23.7245 22.684C23.9165 22.788 24.1125 22.88 24.3125 22.96C24.5205 23.048 24.7565 23.092 25.0205 23.092C25.2365 23.092 25.4165 23.056 25.5605 22.984C25.7125 22.912 25.8445 22.832 25.9565 22.744C26.0925 22.64 26.2125 22.544 26.3165 22.456C26.4285 22.376 26.5485 22.336 26.6765 22.336ZM26.6285 17.8C26.6285 18.4 26.5285 18.96 26.3285 19.48C26.1285 20 25.8445 20.46 25.4765 20.86C25.1165 21.252 24.6845 21.56 24.1805 21.784C23.6845 22.008 23.1405 22.12 22.5485 22.12C21.9565 22.12 21.4125 22.008 20.9165 21.784C20.4205 21.56 19.9885 21.252 19.6205 20.86C19.2605 20.46 18.9805 20 18.7805 19.48C18.5805 18.96 18.4805 18.4 18.4805 17.8C18.4805 17.2 18.5805 16.64 18.7805 16.12C18.9805 15.6 19.2605 15.144 19.6205 14.752C19.9885 14.352 20.4205 14.04 20.9165 13.816C21.4125 13.592 21.9565 13.48 22.5485 13.48C23.1405 13.48 23.6845 13.592 24.1805 13.816C24.6845 14.04 25.1165 14.352 25.4765 14.752C25.8445 15.144 26.1285 15.6 26.3285 16.12C26.5285 16.64 26.6285 17.2 26.6285 17.8ZM25.0685 17.8C25.0685 17.264 24.9605 16.78 24.7445 16.348C24.5285 15.908 24.2325 15.56 23.8565 15.304C23.4805 15.048 23.0445 14.92 22.5485 14.92C22.0525 14.92 21.6165 15.048 21.2405 15.304C20.8645 15.56 20.5685 15.904 20.3525 16.336C20.1445 16.768 20.0405 17.256 20.0405 17.8C20.0405 18.336 20.1445 18.824 20.3525 19.264C20.5685 19.696 20.8645 20.04 21.2405 20.296C21.6165 20.552 22.0525 20.68 22.5485 20.68C23.0445 20.68 23.4805 20.552 23.8565 20.296C24.2325 20.04 24.5285 19.696 24.7445 19.264C24.9605 18.824 25.0685 18.336 25.0685 17.8Z" fill="#EFFC35"/>
</svg>
