<svg width="96" height="35" viewBox="0 0 96 35" fill="none" xmlns="http://www.w3.org/2000/svg">
<rect width="96" height="35" rx="17.5" fill="#2D2D2D"/>
<path d="M75.0585 16.4749C73.7715 18.2169 71.8605 19.3219 69.7415 19.3349V17.2549C71.9515 17.2419 74.0055 15.1879 74.4085 12.2109L76.6445 12.5619C76.5405 13.3419 76.3325 14.0699 76.0335 14.7589L80.7655 17.6059L79.6085 19.3869L75.0585 16.4749ZM69.5205 22.9619V20.9079H80.7525V22.9619H69.5205Z" fill="#BABABA"/>
<path d="M67.4416 14.343H68.7416V16.475H67.4416V20.466H65.2446V12.25H67.4416V14.343ZM60.8896 16.657C59.9666 17.983 58.6146 18.88 57.0156 18.958V16.917C58.7706 16.709 59.9276 14.746 59.9666 12.302L62.1766 12.432C62.1766 13.29 62.0336 14.135 61.7606 14.915L64.9196 17.268L63.6066 18.802L60.8896 16.657ZM59.8756 19.465V21.376H67.5976V23.352H57.6396V19.465H59.8756Z" fill="#BABABA"/>
<path d="M51.9171 12.25V20.089H49.8631V12.25H51.9171ZM45.7551 16.774C45.0271 18.607 43.2591 19.556 40.9971 19.556V17.71C42.3231 17.697 43.1551 17.398 43.6101 16.735H40.9971V14.954H44.0781V14.772V14.2H40.9971V12.38H46.1061V14.759V14.772H47.0681V12.302H49.0961V18.451H47.0681V16.774H45.7551ZM52.4241 21.545L51.7091 23.482L46.7041 21.662C45.3911 22.793 43.5321 23.352 41.5951 23.352V21.298C43.8051 21.298 45.6771 20.336 46.1321 18.698L48.3291 19.127C48.2381 19.478 48.1081 19.803 47.9391 20.115L52.4241 21.545Z" fill="#BABABA"/>
<path d="M40.0883 16.306V18.438H38.7883V23.352H36.5913V12.25H38.7883V16.306H40.0883ZM28.7393 22.832V12.51H35.2003V22.832H28.7393ZM30.9363 14.551V20.791H33.0033V14.551H30.9363Z" fill="#BABABA"/>
<path d="M21.6358 12.3018C24.4048 12.3018 26.4068 13.8618 27.0178 15.8508H24.4178C23.9758 15.0708 22.9748 14.4728 21.6878 14.4728C19.7638 14.4728 18.3338 15.8898 18.3338 17.8658C18.3338 19.8548 19.7638 21.2978 21.6878 21.2978C23.3388 21.2978 24.4828 20.2838 24.7298 19.2438H21.4928V17.2418H27.2518V17.8658C27.2518 21.0768 24.8468 23.4298 21.6358 23.4298C18.3728 23.4298 15.9678 21.0768 15.9678 17.8658C15.9678 14.6548 18.3728 12.3018 21.6358 12.3018Z" fill="#BABABA"/>
</svg>
