<svg xmlns="http://www.w3.org/2000/svg" width="19" height="19" viewBox="0 0 19 19">
    <g fill="none" fill-rule="evenodd">
        <g fill="#1E1E1E" stroke="#1E1E1E" stroke-width=".5">
            <g>
                <path d="M14.147 5.995c.26 0 .47.21.47.47v7.384c0 1.365-1.11 2.475-2.475 2.475H5.909c-1.364 0-2.475-1.11-2.475-2.475V6.465c0-.26.21-.47.47-.47s.47.21.47.47v7.384c0 .847.688 1.536 1.535 1.536h6.233c.847 0 1.536-.69 1.536-1.536V6.465c0-.26.21-.47.469-.47zm-6.829.854c.26 0 .47.21.47.47v5.974c0 .26-.21.47-.47.47-.259 0-.47-.21-.47-.47V7.318c0-.259.211-.47.47-.47zm3.415 0c.259 0 .47.21.47.47v5.974c0 .26-.211.47-.47.47-.26 0-.47-.21-.47-.47V7.318c0-.259.21-.47.47-.47zM2.197 4.373c-.26 0-.47-.21-.47-.47 0-.258.21-.469.47-.469h6.358l.001-1.237c0-.26.21-.47.47-.47.259 0 .469.21.469.47v1.237h6.36c.259 0 .469.21.469.47s-.21.47-.47.47H2.197z" transform="translate(-2183 -3246) translate(2183 3246)"/>
            </g>
        </g>
    </g>
</svg>
