<svg xmlns="http://www.w3.org/2000/svg" width="22" height="22" viewBox="0 0 22 22">
    <g fill="none" fill-rule="evenodd">
        <g stroke="#666" stroke-width="1.5">
            <g>
                <g>
                    <path stroke-linejoin="round" d="M9.177 11.232c.34-.961.583-2.172 1.306-2.896l2.381-2.381c.76-.76.782-1.982.044-2.72L10.213.541c-.738-.737-1.96-.72-2.72.043l-2.38 2.38c-.725.724-1.863 1.041-2.822 1.381L.3 5.032l8.178 8.179.7-1.978-.002-.001z" transform="translate(-2081 -3246) translate(2081 3246) translate(4.48 4)"/>
                    <path d="M3.944 9.575c-.044-.043-.043-.116 0-.158L0 13.342c.043-.042.115-.04.157.001.044.045.044.116 0 .16L4.1 9.576c-.044.042-.115.04-.157-.001z" transform="translate(-2081 -3246) translate(2081 3246) translate(4.48 4)"/>
                </g>
            </g>
        </g>
    </g>
</svg>
