<svg xmlns="http://www.w3.org/2000/svg" width="12" height="14" viewBox="0 0 12 14">
    <g fill="none" fill-rule="evenodd">
        <g fill="#BABABA">
            <g>
                <g>
                    <g>
                        <g>
                            <g>
                                <path d="M5.999 8.417c-1.124 0-2.037-.912-2.037-2.037 0-1.126.913-2.04 2.037-2.04 1.125 0 2.04.914 2.04 2.04 0 1.125-.915 2.037-2.04 2.037zm4.665-.674c.127-.433.196-.89.196-1.363 0-.348-.037-.689-.107-1.016l.916-.667c.327-.239.43-.72.228-1.071l-.386-.665c-.2-.35-.67-.502-1.04-.339l-.945.42C8.926 2.41 8.162 1.94 7.3 1.701L7.197.733C7.156.331 6.788 0 6.383 0h-.766c-.405 0-.772.33-.816.733l-.102.968c-.86.24-1.625.709-2.223 1.341l-.946-.42c-.37-.163-.84-.01-1.043.34l-.383.664C-.1 3.978.006 4.46.33 4.697l.917.667c-.072.327-.109.668-.109 1.016 0 .473.073.93.2 1.363L.33 8.477c-.324.238-.43.72-.226 1.07l.385.664c.201.353.67.505 1.041.34l1.238-.55c.538.48 1.178.841 1.884 1.045l.15 1.395c.043.403.41.732.815.732h.766c.405 0 .773-.329.814-.732l.15-1.395c.707-.204 1.348-.566 1.884-1.045l1.24.55c.37.166.84.013 1.04-.34l.386-.664c.201-.35.099-.832-.228-1.07l-1.005-.734z" transform="translate(-1341 -2867) translate(74 2708) translate(750 80) translate(25 70) translate(492 5) translate(0 4)"/>
                            </g>
                        </g>
                    </g>
                </g>
            </g>
        </g>
    </g>
</svg>
