<svg xmlns="http://www.w3.org/2000/svg" width="23" height="23" viewBox="0 0 23 23">
    <g fill="none" fill-rule="evenodd">
        <g fill="#FFF" stroke="#FFF" stroke-width=".5">
            <g>
                <g>
                    <g>
                        <g>
                            <g>
                                <g>
                                    <g>
                                        <path d="M12.219 0c.191 0 .37.099.468.26h0l1.348 2.204h3.239c.904 0 1.64.722 1.64 1.61h0v10.415c0 .887-.736 1.61-1.64 1.61h0H1.64c-.905 0-1.64-.723-1.64-1.61h0V4.074c0-.888.735-1.61 1.64-1.61h3.238L6.226.26C6.325.1 6.503 0 6.695 0h0zm5.055 3.537H1.64c-.302 0-.547.24-.547.537h0v10.415c0 .296.245.536.547.536h15.634c.3 0 .546-.24.546-.536h0V4.074c0-.296-.245-.537-.546-.537h0zm-7.817 2.74c1.687 0 3.059 1.348 3.059 3.004s-1.372 3.004-3.06 3.004c-1.686 0-3.058-1.348-3.058-3.004S7.77 6.278 9.457 6.278zm0 1.074c-1.084 0-1.966.866-1.966 1.93 0 1.065.882 1.93 1.966 1.93s1.966-.865 1.966-1.93c0-1.064-.882-1.93-1.966-1.93zm2.452-6.278H7.004l-.851 1.39h6.607l-.85-1.39z" transform="translate(-1145 -2935) translate(74 2708) translate(750 80) translate(300 115) translate(21 32) translate(2 5)"/>
                                    </g>
                                </g>
                            </g>
                        </g>
                    </g>
                </g>
            </g>
        </g>
    </g>
</svg>
