<svg xmlns="http://www.w3.org/2000/svg" width="23" height="23" viewBox="0 0 23 23">
    <g fill="none" fill-rule="evenodd">
        <g fill="#FFF" stroke="#FFF" stroke-width=".6">
            <g>
                <g>
                    <g>
                        <g>
                            <g>
                                <g>
                                    <path d="M11.5 5c.414 0 .75.336.75.75v6h6c.414 0 .75.336.75.75s-.336.75-.75.75h-6v6c0 .414-.336.75-.75.75s-.75-.336-.75-.75v-6h-6c-.414 0-.75-.336-.75-.75s.336-.75.75-.75h6v-6c0-.414.336-.75.75-.75z" transform="translate(-1145 -3021) translate(74 2708) translate(750 80) translate(300 115) translate(21 118)"/>
                                </g>
                            </g>
                        </g>
                    </g>
                </g>
            </g>
        </g>
    </g>
</svg>
