<svg xmlns="http://www.w3.org/2000/svg" xmlns:xlink="http://www.w3.org/1999/xlink" width="256" height="256" viewBox="0 0 256 256">
    <defs>
        <path id="a" d="M153.5 137.768H0V1.088h157.988v136.68H0V1.088h153.5z"/>
    </defs>
    <g fill="none" fill-rule="evenodd">
        <rect width="232" height="232" x="12" y="12" fill="#161616" rx="45"/>
        <path fill="#F00" d="M204.003 187.596c-.316.55-.9.886-1.532.886H52.951a1.768 1.768 0 0 1-1.533-.886c-.052-.09-.082-.186-.116-.281a1.753 1.753 0 0 0 1.648 2.376h149.521c.631 0 2.675-.272 3.265-1.177.29-.444 1.594-1.856.345-3.845-.034.095-2.026 2.837-2.078 2.927M153.82 158.924c-.317.55-.901.886-1.532.886h-49.156a1.768 1.768 0 0 1-1.533-.886c-.051-.09-.08-.186-.116-.281a1.76 1.76 0 0 0 .116 1.49c.317.55.902.886 1.533.886h49.156c.63 0 2.467-.308 3.286-1.41.604-.81.702-2.14.524-2.626-.036.094-2.226 1.851-2.278 1.94M178.912 173.26c-.316.548-.9.885-1.532.885H78.042a1.764 1.764 0 0 1-1.532-.886c-.052-.09-.083-.186-.116-.28-.181.488-.15 1.032.116 1.49.314.549.899.885 1.532.885h99.338c.631 0 2.037-.327 2.548-.7.7-.51 1.302-1.341 1.285-3.207-.034.094-2.249 1.723-2.3 1.812"/>
        <path fill="#F00" d="M104.12 155.112h43.023l-21.51-37.29-21.514 37.29zm46.09 3.54l-47.573 2.368c-2.233 0-5.308-1.18-3.116-5.023l24.58-42.604c2.652-4.058 6.564-1.56 7.22 0l20.422 42.604a1.763 1.763 0 0 1-.001 1.77c-.317.55-.902.886-1.533.886z"/>
        <path fill="#F00" d="M79.028 169.447h93.208l-46.604-80.78-46.604 80.78zm96.275 3.54l-98.129 2.368c-1.187 0-5.041-1.18-2.744-5.022l49.671-86.094c1.044-1.981 4.513-3.935 7.22 0l45.514 86.094a1.768 1.768 0 0 1 0 1.77c-.317.548-.901.885-1.532.885z"/>
        <g transform="translate(48.663 51.923)">
            <mask id="b" fill="#fff">
                <use xlink:href="#a"/>
            </mask>
            <path fill="#F00" d="M5.275 131.86h143.39L76.97 7.585 5.275 131.86zm146.454 3.541L4.288 137.768c-1.992 0-5.848-1.188-3.612-5.022L75.438 3.156c2.653-3.762 6.49-1.538 7.22 0l70.603 129.59a1.76 1.76 0 0 1 0 1.77c-.314.549-.899.885-1.532.885z" mask="url(#b)"/>
        </g>
        <path fill="#00F" d="M149.222 154.132v.98l-3.341-2.19h-38.985l-.698 1.21zM174.315 168.467v.98l-3.342-2.19H81.804l-.697 1.21zM199.406 182.804v.98l-3.342-2.19H56.714l-.699 1.21z"/>
        <path fill="#00F" d="M108.276 155.112H151.3l-23.589-37.29-.001 3.605-19.434 33.685zm44.365 4.729l-47.431-1.188a1.768 1.768 0 0 1-1.532-.886 1.768 1.768 0 0 1 0-1.77l21.954-43.04c2.351-2.876 4.81-1.31 5.69.436l24.578 42.604c.316.548.406 1.197.197 1.795-.211.612-.858 2.049-3.456 2.049z"/>
        <path fill="#00F" d="M83.185 169.447h93.208L127.711 87.3v4.968l-44.526 77.179zm94.524 4.697l-97.59-1.156a1.768 1.768 0 0 1-1.532-.886 1.768 1.768 0 0 1 0-1.77l48.114-87.33c1.248-1.143 3.162-1.04 4.62 1.237l49.67 86.094c.317.547.47 1.606.154 2.152-.316.55-.699 1.69-3.436 1.659z"/>
        <path fill="#00F" d="M58.094 183.784h143.39L129.79 59.508 58.094 183.784zm144.676 4.696l-147.742-1.155a1.768 1.768 0 0 1-1.532-.886 1.768 1.768 0 0 1 0-1.77l71.961-129.9c2.253-2.71 4.872-1.324 5.864.311l74.76 129.59c.318.547.713 1.36.517 1.962-.605 1.856-3.197 1.848-3.828 1.848z"/>
        <path fill="#3FA9FF" d="M107.101 155.112h43.024l-21.511-37.29-21.513 37.29zm45.312 4.723l-48.378-1.182a1.768 1.768 0 0 1-1.532-.886 1.768 1.768 0 0 1 0-1.77l23.676-42.604c1.135-2.19 3.336-1.097 3.967 0l24.58 42.604c.316.548.766 1.747.457 2.3-.681 1.214-2.138 1.538-2.77 1.538z"/>
        <path fill="#3FA9FF" d="M82.01 169.447h93.208l-46.605-80.78-46.603 80.78zm95.783 4.697l-98.849-1.156a1.768 1.768 0 0 1-1.532-.886 1.768 1.768 0 0 1 0-1.77l48.137-86.505c2.162-2.235 3.637-1.099 4.268 0l50 86.506c.316.547.51 1.136.34 1.746-.335 1.204-1.731 2.065-2.364 2.065z"/>
        <path fill="#3FA9FF" d="M56.92 183.784h143.39L128.614 59.508 56.92 183.784zm145.85 4.696l-148.917-1.155a1.768 1.768 0 0 1-1.532-.886 1.768 1.768 0 0 1 0-1.77l73.136-129.9c1.931-2.231 4.057-.787 4.69.311l74.76 129.59c.317.547.29 1.617.053 2.204-.524 1.283-1.56 1.606-2.19 1.606z"/>
        <path fill="#FF0" d="M105.24 155.112h43.024l-20.551-35.627-.002-2.62-22.471 38.247zm46.09 3.54l-47.89 1.189c-.631 0-4.881-.011-2.798-3.844l24.579-42.604c.974-1.265 2.874-1.746 3.843-.247l23.8 42.851a1.763 1.763 0 0 1-.002 1.77c-.316.55-.9.886-1.532.886z"/>
        <path fill="#FF0" d="M80.149 169.447h93.208L127.71 90.325V87.3L80.15 169.447zm96.274 3.54l-98.382 1.157c-.63 0-4.328-.36-2.49-3.811l49.67-86.094c.632-1.099 2.915-1.931 4.102.14l48.632 85.954a1.768 1.768 0 0 1 0 1.77c-.316.548-.9.885-1.532.885z"/>
        <path fill="#FF0" d="M55.058 183.784h143.39L126.753 59.508 55.058 183.784zm146.455 3.54L52.95 188.48c-.63 0-4.092-.762-2.49-3.81L125.22 55.08c.996-1.793 3.284-1.256 3.917-.16l73.907 129.75a1.76 1.76 0 0 1 0 1.769c-.315.55-.9.886-1.532.886z"/>
        <path fill="#3FA9FF" d="M149.798 155.244l.227.391-2.383-1.601h-40.868l-.699 1.21zM175.263 169.579l-.949-.133-1.58-1.077h-91.05l-.7 1.21zM199.981 183.915l-.575-.132-1.58-1.077H56.59l-.697 1.21z"/>
        <path fill="#FF0" d="M153.82 157.746c-.317.549-.901.885-1.532.885h-49.156a1.768 1.768 0 0 1-1.533-.885c-.051-.09-.08-.187-.116-.281a1.76 1.76 0 0 0 .116 1.49c.317.55.902.886 1.533.886h49.156a1.754 1.754 0 0 0 1.648-2.376c-.034.094-.064.191-.116.28M178.912 172.08c-.316.55-.9.886-1.532.886H78.042a1.764 1.764 0 0 1-1.532-.885c-.052-.09-.083-.186-.116-.281-.181.488-.15 1.032.116 1.49.314.55.899.886 1.532.886h99.338a1.753 1.753 0 0 0 1.648-2.376c-.035.095-.064.191-.116.28M204.003 186.418c-.316.549-.9.885-1.532.885H52.951a1.768 1.768 0 0 1-1.533-.885c-.052-.09-.082-.187-.116-.281a1.753 1.753 0 0 0 1.648 2.376h149.521a1.753 1.753 0 0 0 1.648-2.376c-.035.094-.064.191-.116.28"/>
        <path fill="#FFF" d="M106.198 155.112h43.024l-21.511-37.29-21.513 37.29zm46.09 3.54h-49.156a1.768 1.768 0 0 1-1.533-.885 1.768 1.768 0 0 1 0-1.77l24.58-42.604c.63-1.097 2.433-1.097 3.064 0l24.579 42.604a1.763 1.763 0 0 1-.002 1.77c-.317.55-.901.886-1.532.886z"/>
        <path fill="#FFF" d="M81.107 169.447h93.208l-46.605-80.78-46.603 80.78zm96.274 3.54H78.04a1.768 1.768 0 0 1-1.533-.885 1.768 1.768 0 0 1 0-1.77L126.18 84.24c.632-1.099 2.432-1.099 3.063 0l49.671 86.094a1.768 1.768 0 0 1 0 1.77c-.316.548-.901.885-1.532.885z"/>
        <path fill="#FFF" d="M56.016 183.784h143.39L127.711 59.508 56.016 183.784zm146.454 3.54H52.95a1.768 1.768 0 0 1-1.533-.885 1.768 1.768 0 0 1 0-1.77L126.18 55.08c.63-1.098 2.431-1.098 3.064 0l74.76 129.59a1.76 1.76 0 0 1 0 1.769c-.315.55-.9.886-1.533.886z"/>
    </g>
</svg>
