<svg xmlns="http://www.w3.org/2000/svg" width="17" height="17" viewBox="0 0 17 17">
    <g fill="none" fill-rule="evenodd">
        <g>
            <g transform="translate(-1678 -1289) translate(1678 1289)">
                <circle cx="8.5" cy="8.5" r="8.5" fill="#F1FA75"/>
                <path fill="#000" fill-rule="nonzero" d="M8.43 12.097c.44 0 .833-.075 1.179-.227.346-.151.618-.372.816-.66.198-.29.297-.626.297-1.01 0-.365-.088-.679-.264-.941-.177-.263-.424-.47-.742-.622v-.014c.25-.167.445-.376.584-.628.14-.253.209-.532.209-.838 0-.278-.057-.53-.17-.756-.112-.226-.268-.412-.466-.559-.198-.147-.429-.26-.693-.34-.265-.081-.548-.121-.851-.121-.486 0-.921.12-1.306.36-.385.239-.643.546-.773.92l1.41.751c.066-.167.147-.29.244-.368.098-.08.224-.119.378-.119.167 0 .303.05.406.149.104.099.156.233.156.403 0 .161-.052.29-.154.388-.102.097-.24.146-.412.146h-.506v1.34h.394c.232 0 .41.057.536.17.125.113.188.26.188.443 0 .198-.057.348-.172.452-.114.103-.253.155-.417.155-.207 0-.373-.052-.497-.155-.123-.104-.216-.26-.278-.47l-1.54.593c.164.458.465.832.902 1.122.438.291.952.436 1.543.436z"/>
            </g>
        </g>
    </g>
</svg>
