<svg xmlns="http://www.w3.org/2000/svg" width="17" height="17" viewBox="0 0 17 17">
    <g fill="none" fill-rule="evenodd">
        <g>
            <g>
                <g transform="translate(-487 -343) translate(487 343)">
                    <circle cx="8.5" cy="8.5" r="8.5" fill="#444"/>
                    <path fill="#BABABA" fill-rule="nonzero" d="M8.227 3.556c.238-.142.534-.141.772.002l3.862 2.327c.225.136.363.38.363.643v5.51c0 .414-.336.75-.75.75H4.71c-.414 0-.75-.336-.75-.75v-5.51c0-.264.139-.509.366-.644zm.382 1.518L5.46 6.953v4.334h2.4l.001-1.354c0-.414.336-.75.75-.75.38 0 .694.282.743.648l.007.102v1.353l2.362.001V6.951L8.609 5.074z"/>
                </g>
            </g>
        </g>
    </g>
</svg>
