<svg xmlns="http://www.w3.org/2000/svg" width="58" height="58" viewBox="0 0 58 58">
    <g fill="none" fill-rule="evenodd">
        <g>
            <g transform="translate(-1533 -2097) translate(1533 2097)">
                <rect width="58" height="57.236" fill="#373737" rx="28.618"/>
                <path fill="#535353" d="M29.467 19.21c.552 0 1 .448 1 1v7.486h7.8c.552 0 1 .449 1 1v.83c0 .552-.448 1-1 1h-7.8v7.486c0 .553-.448 1-1 1h-.934c-.552 0-1-.447-1-1v-7.487h-7.8c-.552 0-1-.447-1-1v-.828c0-.552.448-1 1-1h7.8V20.21c0-.552.448-1 1-1h.934z"/>
            </g>
        </g>
    </g>
</svg>
