<svg xmlns="http://www.w3.org/2000/svg" width="25" height="21" viewBox="0 0 25 21">
    <g fill="none" fill-rule="evenodd">
        <g fill="#FFF">
            <g>
                <path d="M2.725 17.933v-5.188l3.868-3.407 6.655 7.44 1.285-1.152-2.092-2.338 2.25-1.98 6.213 6.946H3.045c-.176 0-.32-.144-.32-.32m.32-15.207h18.372c.173 0 .32.147.32.32v13.547l-5.807-6.49c-.606-.674-1.65-.736-2.328-.138l-2.312 2.036-3.456-3.865c-.604-.676-1.65-.737-2.33-.14l-2.779 2.448V3.047c0-.173.147-.32.32-.32M21.417 1H3.045C1.918 1 1 1.92 1 3.047v14.886c0 1.13.918 2.048 2.045 2.048h18.372c1.127 0 2.044-.919 2.044-2.048V3.047C23.461 1.92 22.544 1 21.417 1" transform="translate(-2131 -208) translate(2131 208)"/>
            </g>
        </g>
    </g>
</svg>
