<svg xmlns="http://www.w3.org/2000/svg" width="44" height="43" viewBox="0 0 44 43">
    <g fill="none" fill-rule="evenodd">
        <g fill="#535353">
            <g>
                <g>
                    <path d="M10.733 0c.553 0 1 .448 1 1v7.599l7.8.001c.553 0 1 .448 1 1v.867c0 .552-.447 1-1 1l-7.8-.001v7.6c0 .553-.447 1-1 1H9.8c-.552 0-1-.447-1-1l-.001-7.6H1c-.552 0-1-.447-1-1V9.6c0-.552.448-1 1-1l7.799-.001L8.8 1c0-.552.448-1 1-1h.933z" transform="translate(-1179 -2190) translate(1179 2190) translate(11.733 11.467)"/>
                </g>
            </g>
        </g>
    </g>
</svg>
