<svg xmlns="http://www.w3.org/2000/svg" width="25" height="24" viewBox="0 0 25 24">
    <g fill="none" fill-rule="evenodd">
        <g fill="#1E1E1F">
            <g>
                <path d="M20.214 5.245c.305-.277.78-.258 1.06.05.278.305.257.78-.05 1.059l-2.231 2.035c.439.687.797 1.27.994 1.619.843 1.497 1.219 2.843 1.219 4.366 0 4.676-3.803 8.479-8.478 8.479-2.551 0-4.827-1.145-6.381-2.934l-2.042 1.86c-.144.132-.324.196-.505.196-.203 0-.406-.082-.555-.245-.278-.305-.256-.78.05-1.06zm-2.345 4.168L7.45 18.91c1.28 1.488 3.165 2.442 5.277 2.442 3.848 0 6.978-3.13 6.978-6.98 0-1.267-.306-2.353-1.026-3.63-.167-.296-.457-.77-.811-1.33zM12.72 1.2c.782.004 1.523.404 2.088 1.127.75.959 1.697 2.303 2.586 3.621l-1.12 1.02c-.901-1.342-1.88-2.735-2.647-3.718-.277-.353-.602-.548-.914-.55-.314 0-.637.19-.915.538-1.72 2.15-4.34 6.184-5.011 7.482-.71 1.371-1.04 2.531-1.04 3.654 0 .672.1 1.322.279 1.938L4.82 17.413c-.364-.946-.572-1.967-.572-3.039 0-1.801.689-3.341 1.208-4.343.79-1.529 3.492-5.63 5.172-7.731.568-.71 1.306-1.1 2.082-1.1z" transform="translate(-1802 -207) translate(1802 207)"/>
            </g>
        </g>
    </g>
</svg>
