<svg xmlns="http://www.w3.org/2000/svg" xmlns:xlink="http://www.w3.org/1999/xlink" width="128" height="72" viewBox="0 0 128 72">
    <defs>
        <rect id="s9b978pbia" width="128" height="72" x="0" y="0" rx="3"/>
    </defs>
    <g fill="none" fill-rule="evenodd">
        <g>
            <g>
                <g transform="translate(-1175 -2276) translate(1175 2276)">
                    <mask id="srlsy6614b" fill="#fff">
                        <use xlink:href="#s9b978pbia"/>
                    </mask>
                    <use fill="#CCC" xlink:href="#s9b978pbia"/>
                    <path fill="#FFF" d="M5.571 94.714v5.572H0v-5.572h5.571zm11.143 0v5.572h-5.571v-5.572h5.571zm11.143 0v5.572h-5.571v-5.572h5.571zm11.143 0v5.572h-5.571v-5.572H39zm11.143 0v5.572H44.57v-5.572h5.572zm11.143 0v5.572h-5.572v-5.572h5.572zm11.143 0v5.572h-5.572v-5.572h5.572zm11.142 0v5.572H78v-5.572h5.571zm11.143 0v5.572h-5.571v-5.572h5.571zm11.143 0v5.572h-5.571v-5.572h5.571zm11.143 0v5.572h-5.571v-5.572H117zm11.143 0v5.572h-5.572v-5.572h5.572zm11.143 0v5.572h-5.572v-5.572h5.572zm11.143 0v5.572h-5.572v-5.572h5.572zM11.143 89.143v5.571H5.57v-5.571h5.572zm11.143 0v5.571h-5.572v-5.571h5.572zm11.143 0v5.571h-5.572v-5.571h5.572zm11.142 0v5.571H39v-5.571h5.571zm11.143 0v5.571h-5.571v-5.571h5.571zm11.143 0v5.571h-5.571v-5.571h5.571zm11.143 0v5.571h-5.571v-5.571H78zm11.143 0v5.571H83.57v-5.571h5.572zm11.143 0v5.571h-5.572v-5.571h5.572zm11.143 0v5.571h-5.572v-5.571h5.572zm11.142 0v5.571H117v-5.571h5.571zm11.143 0v5.571h-5.571v-5.571h5.571zm11.143 0v5.571h-5.571v-5.571h5.571zm11.143 0v5.571h-5.571v-5.571H156zM5.571 83.57v5.572H0V83.57h5.571zm11.143 0v5.572h-5.571V83.57h5.571zm11.143 0v5.572h-5.571V83.57h5.571zm11.143 0v5.572h-5.571V83.57H39zm11.143 0v5.572H44.57V83.57h5.572zm11.143 0v5.572h-5.572V83.57h5.572zm11.143 0v5.572h-5.572V83.57h5.572zm11.142 0v5.572H78V83.57h5.571zm11.143 0v5.572h-5.571V83.57h5.571zm11.143 0v5.572h-5.571V83.57h5.571zm11.143 0v5.572h-5.571V83.57H117zm11.143 0v5.572h-5.572V83.57h5.572zm11.143 0v5.572h-5.572V83.57h5.572zm11.143 0v5.572h-5.572V83.57h5.572zM55.714 78v5.571h-5.571V78h5.571zm11.143 0v5.571h-5.571V78h5.571zm78 0v5.571h-5.571V78h5.571zM156 78v5.571h-5.571V78H156zM11.143 78v5.571H5.57V78h5.572zm11.143 0v5.571h-5.572V78h5.572zm11.143 0v5.571h-5.572V78h5.572zm11.142 0v5.571H39V78h5.571zm55.715 0v5.571h-5.572V78h5.572zm11.143 0v5.571h-5.572V78h5.572zm11.142 0v5.571H117V78h5.571zm11.143 0v5.571h-5.571V78h5.571zM78 78v5.571h-5.571V78H78zm11.143 0v5.571H83.57V78h5.572zM5.57 72.429V78H0v-5.571h5.571zm11.143 0V78h-5.571v-5.571h5.571zm11.143 0V78h-5.571v-5.571h5.571zm11.143 0V78h-5.571v-5.571H39zm11.143 0V78H44.57v-5.571h5.572zm11.143 0V78h-5.572v-5.571h5.572zm11.143 0V78h-5.572v-5.571h5.572zm11.142 0V78H78v-5.571h5.571zm11.143 0V78h-5.571v-5.571h5.571zm11.143 0V78h-5.571v-5.571h5.571zm11.143 0V78h-5.571v-5.571H117zm11.143 0V78h-5.572v-5.571h5.572zm11.143 0V78h-5.572v-5.571h5.572zm11.143 0V78h-5.572v-5.571h5.572zm-117-5.572v5.572h-5.572v-5.572h5.572zm22.285 0v5.572h-5.571v-5.572h5.571zm11.143 0v5.572h-5.571v-5.572h5.571zm78 0v5.572h-5.571v-5.572h5.571zm11.143 0v5.572h-5.571v-5.572H156zm-144.857 0v5.572H5.57v-5.572h5.572zm11.143 0v5.572h-5.572v-5.572h5.572zm55.714 0v5.572h-5.571v-5.572H78zm11.143 0v5.572H83.57v-5.572h5.572zm11.143 0v5.572h-5.572v-5.572h5.572zm11.143 0v5.572h-5.572v-5.572h5.572zm11.142 0v5.572H117v-5.572h5.571zm11.143 0v5.572h-5.571v-5.572h5.571zm-89.143 0v5.572H39v-5.572h5.571zm27.858-5.571v5.571h-5.572v-5.571h5.572zm33.428 0v5.571h-5.571v-5.571h5.571zm-22.286 0v5.571H78v-5.571h5.571zm-78 0v5.571H0v-5.571h5.571zm11.143 0v5.571h-5.571v-5.571h5.571zm11.143 0v5.571h-5.571v-5.571h5.571zm11.143 0v5.571h-5.571v-5.571H39zm11.143 0v5.571H44.57v-5.571h5.572zm11.143 0v5.571h-5.572v-5.571h5.572zm55.714 0v5.571h-5.571v-5.571H117zm11.143 0v5.571h-5.572v-5.571h5.572zm11.143 0v5.571h-5.572v-5.571h5.572zm11.143 0v5.571h-5.572v-5.571h5.572zm-55.715 0v5.571h-5.571v-5.571h5.571zm50.143-5.572v5.572h-5.571v-5.572h5.571zm11.143 0v5.572h-5.571v-5.572H156zm-144.857 0v5.572H5.57v-5.572h5.572zm11.143 0v5.572h-5.572v-5.572h5.572zm11.143 0v5.572h-5.572v-5.572h5.572zm11.142 0v5.572H39v-5.572h5.571zm11.143 0v5.572h-5.571v-5.572h5.571zm11.143 0v5.572h-5.571v-5.572h5.571zm11.143 0v5.572h-5.571v-5.572H78zm11.143 0v5.572H83.57v-5.572h5.572zm11.143 0v5.572h-5.572v-5.572h5.572zm11.143 0v5.572h-5.572v-5.572h5.572zm11.142 0v5.572H117v-5.572h5.571zm11.143 0v5.572h-5.571v-5.572h5.571zm-117-5.571v5.571h-5.571v-5.571h5.571zm22.286 0v5.571h-5.571v-5.571H39zm55.714 0v5.571h-5.571v-5.571h5.571zm-44.571 0v5.571H44.57v-5.571h5.572zm22.286 0v5.571h-5.572v-5.571h5.572zm11.142 0v5.571H78v-5.571h5.571zm-78 0v5.571H0v-5.571h5.571zm100.286 0v5.571h-5.571v-5.571h5.571zm11.143 0v5.571h-5.571v-5.571H117zm11.143 0v5.571h-5.572v-5.571h5.572zm11.143 0v5.571h-5.572v-5.571h5.572zm11.143 0v5.571h-5.572v-5.571h5.572zm-89.143 0v5.571h-5.572v-5.571h5.572zm-33.429 0v5.571h-5.571v-5.571h5.571zm105.857-5.572v5.572h-5.571V44.57h5.571zm11.143 0v5.572h-5.571V44.57h5.571zm-122.571 0v5.572h-5.572V44.57h5.572zm78 0v5.572h-5.572V44.57h5.572zm-33.429 0v5.572h-5.571V44.57h5.571zm-55.714 0v5.572H5.57V44.57h5.572zm100.286 0v5.572h-5.572V44.57h5.572zm-22.286 0v5.572H83.57V44.57h5.572zm-44.572 0v5.572H39V44.57h5.571zm78 0v5.572H117V44.57h5.571zm33.429 0v5.572h-5.571V44.57H156zm-122.571 0v5.572h-5.572V44.57h5.572zm22.285 0v5.572h-5.571V44.57h5.571zm22.286 0v5.572h-5.571V44.57H78zM5.571 39v5.571H0V39h5.571zm55.715 0v5.571h-5.572V39h5.572zm89.143 0v5.571h-5.572V39h5.572zM50.143 39v5.571H44.57V39h5.572zm33.428 0v5.571H78V39h5.571zm11.143 0v5.571h-5.571V39h5.571zM39 39v5.571h-5.571V39H39zm100.286 0v5.571h-5.572V39h5.572zm-33.429 0v5.571h-5.571V39h5.571zM72.43 39v5.571h-5.572V39h5.572zm-55.715 0v5.571h-5.571V39h5.571zm11.143 0v5.571h-5.571V39h5.571zm100.286 0v5.571h-5.572V39h5.572zM117 39v5.571h-5.571V39H117zm-50.143-5.571V39h-5.571v-5.571h5.571zm-44.571 0V39h-5.572v-5.571h5.572zm78 0V39h-5.572v-5.571h5.572zm11.143 0V39h-5.572v-5.571h5.572zm-100.286 0V39H5.57v-5.571h5.572zm144.857 0V39h-5.571v-5.571H156zm-100.286 0V39h-5.571v-5.571h5.571zm-22.285 0V39h-5.572v-5.571h5.572zm44.571 0V39h-5.571v-5.571H78zm11.143 0V39H83.57v-5.571h5.572zm55.714 0V39h-5.571v-5.571h5.571zm-11.143 0V39h-5.571v-5.571h5.571zm-11.143 0V39H117v-5.571h5.571zm-78 0V39H39v-5.571h5.571zm61.286-5.572v5.572h-5.571v-5.572h5.571zm-78 0v5.572h-5.571v-5.572h5.571zm33.429 0v5.572h-5.572v-5.572h5.572zm55.714 0v5.572h-5.571v-5.572H117zm-100.286 0v5.572h-5.571v-5.572h5.571zm78 0v5.572h-5.571v-5.572h5.571zm-22.285 0v5.572h-5.572v-5.572h5.572zm-33.429 0v5.572h-5.571v-5.572H39zm44.571 0v5.572H78v-5.572h5.571zm-78 0v5.572H0v-5.572h5.571zm144.858 0v5.572h-5.572v-5.572h5.572zm-11.143 0v5.572h-5.572v-5.572h5.572zm-11.143 0v5.572h-5.572v-5.572h5.572zm-78 0v5.572H44.57v-5.572h5.572zM156 22.286v5.571h-5.571v-5.571H156zm-100.286 0v5.571h-5.571v-5.571h5.571zm33.429 0v5.571H83.57v-5.571h5.572zm11.143 0v5.571h-5.572v-5.571h5.572zm-55.715 0v5.571H39v-5.571h5.571zm100.286 0v5.571h-5.571v-5.571h5.571zm-133.714 0v5.571H5.57v-5.571h5.572zm55.714 0v5.571h-5.571v-5.571h5.571zm-44.571 0v5.571h-5.572v-5.571h5.572zm11.143 0v5.571h-5.572v-5.571h5.572zm100.285 0v5.571h-5.571v-5.571h5.571zm-11.143 0v5.571H117v-5.571h5.571zm-11.142 0v5.571h-5.572v-5.571h5.572zm-33.429 0v5.571h-5.571v-5.571H78zm72.429-5.572v5.572h-5.572v-5.572h5.572zm-100.286 0v5.572H44.57v-5.572h5.572zm33.428 0v5.572H78v-5.572h5.571zm11.143 0v5.572h-5.571v-5.572h5.571zm-55.714 0v5.572h-5.571v-5.572H39zm100.286 0v5.572h-5.572v-5.572h5.572zm-133.715 0v5.572H0v-5.572h5.571zm55.715 0v5.572h-5.572v-5.572h5.572zm-44.572 0v5.572h-5.571v-5.572h5.571zm11.143 0v5.572h-5.571v-5.572h5.571zm100.286 0v5.572h-5.572v-5.572h5.572zm-11.143 0v5.572h-5.571v-5.572H117zm-11.143 0v5.572h-5.571v-5.572h5.571zm-33.428 0v5.572h-5.572v-5.572h5.572zM156 11.143v5.571h-5.571v-5.571H156zm-100.286 0v5.571h-5.571v-5.571h5.571zm33.429 0v5.571H83.57v-5.571h5.572zm11.143 0v5.571h-5.572v-5.571h5.572zm-55.715 0v5.571H39v-5.571h5.571zm100.286 0v5.571h-5.571v-5.571h5.571zm-33.428 0v5.571h-5.572v-5.571h5.572zm-33.429 0v5.571h-5.571v-5.571H78zm-55.714 0v5.571h-5.572v-5.571h5.572zm11.143 0v5.571h-5.572v-5.571h5.572zm100.285 0v5.571h-5.571v-5.571h5.571zm-11.143 0v5.571H117v-5.571h5.571zm-111.428 0v5.571H5.57v-5.571h5.572zm55.714 0v5.571h-5.571v-5.571h5.571zM5.571 5.57v5.572H0V5.57h5.571zm55.715 0v5.572h-5.572V5.57h5.572zm89.143 0v5.572h-5.572V5.57h5.572zm-100.286 0v5.572H44.57V5.57h5.572zm33.428 0v5.572H78V5.57h5.571zm11.143 0v5.572h-5.571V5.57h5.571zM39 5.571v5.572h-5.571V5.57H39zm100.286 0v5.572h-5.572V5.57h5.572zm-11.143 0v5.572h-5.572V5.57h5.572zm-11.143 0v5.572h-5.571V5.57H117zm-11.143 0v5.572h-5.571V5.57h5.571zm-33.428 0v5.572h-5.572V5.57h5.572zm-55.715 0v5.572h-5.571V5.57h5.571zm11.143 0v5.572h-5.571V5.57h5.571zM11.143 0v5.571H5.57V0h5.572zm11.143 0v5.571h-5.572V0h5.572zm11.143 0v5.571h-5.572V0h5.572zM44.57 0v5.571H39V0h5.571zm11.143 0v5.571h-5.571V0h5.571zm11.143 0v5.571h-5.571V0h5.571zM78 0v5.571h-5.571V0H78zm11.143 0v5.571H83.57V0h5.572zm11.143 0v5.571h-5.572V0h5.572zm11.143 0v5.571h-5.572V0h5.572zm11.142 0v5.571H117V0h5.571zm11.143 0v5.571h-5.571V0h5.571zm11.143 0v5.571h-5.571V0h5.571zM156 0v5.571h-5.571V0H156z" mask="url(#srlsy6614b)"/>
                    <path fill="#000" fill-rule="nonzero" d="M47.242 43.563V29.435h-1.824v5.523h-1.142V29.72h-1.817v13.425h1.817v-6.643h1.142v7.06h1.824zm-6.013-3.91v-9.156h-1.802v3.289H37.29v-3.289h-1.802v9.155h5.742zm-1.802-1.531H37.29v-2.806h2.138v2.806zm22.595-.601v-8.086h-1.801v2.205h-2.718v1.486h2.718v1.487H57.1v1.465h3.12v1.443h1.801zm-10.62.571c3.868-1.977 5.967-4.614 6.3-7.91h-6.798v1.546h4.563c-.376 1.098-1.047 2.077-2.014 2.937-.967.859-2.097 1.52-3.391 1.984l1.34 1.443zm6.175 5.413c1.465 0 2.608-.272 3.431-.817.823-.544 1.234-1.251 1.234-2.12 0-.86-.412-1.565-1.238-2.117-.825-.552-1.967-.827-3.427-.827-1.455 0-2.593.274-3.413.824-.82.549-1.23 1.256-1.23 2.12 0 .869.408 1.576 1.226 2.12.818.545 1.957.817 3.417.817zm0-1.516c-.923 0-1.618-.13-2.084-.392-.466-.261-.7-.604-.7-1.03 0-.424.231-.768.693-1.032.461-.264 1.158-.395 2.09-.395.938 0 1.64.133 2.106.399.467.266.7.609.7 1.029 0 .43-.236.774-.707 1.033-.471.258-1.17.388-2.098.388zm19.68 1.574V29.435h-1.824v14.128h1.824zm-2.879-.417V29.721h-1.816v4.365h-1.948v1.487h1.948v7.573h1.816zm-8.43-2.703c.464-.356.956-.869 1.476-1.538s.883-1.26 1.088-1.772c.185.405.523.908 1.014 1.509.49.6.934 1.047 1.33 1.34l1.245-1.216c-.84-.566-1.5-1.277-1.982-2.131-.48-.855-.721-1.775-.721-2.761v-1.722h2.16v-1.53h-6.371v1.53h2.431v1.56c0 1.138-.262 2.193-.787 3.164-.525.972-1.269 1.778-2.23 2.417l1.347 1.15zm26.104 3.12V29.435H90.25v5.31h-3.303v1.546h3.303v7.272h1.802zm-10.891-3.01c1.904-.996 3.437-2.358 4.6-4.087 1.161-1.728 1.784-3.667 1.867-5.815h-6.965v1.545h4.995c-.25 1.553-.954 2.976-2.113 4.27-1.16 1.294-2.404 2.185-3.732 2.674l1.348 1.413z" mask="url(#srlsy6614b)" opacity=".772"/>
                </g>
            </g>
        </g>
    </g>
</svg>
