<svg xmlns="http://www.w3.org/2000/svg" width="62" height="35" viewBox="0 0 62 35">
    <g fill="none" fill-rule="evenodd">
        <g>
            <g transform="translate(-340 -745) translate(340 745)">
                <rect width="62" height="35" fill="#444" rx="17.5"/>
                <path fill="#FFF" fill-rule="nonzero" d="M17.818 22v-3.498h3.606v-1.63h-3.606v-2.47h4.323v-1.638h-6.125V22h1.802zm7.643 0v-3.161h1.06L28.591 22h2.164l-2.279-3.352v-.025c.398-.131.735-.32 1.013-.565.277-.245.493-.555.647-.93.154-.374.232-.803.232-1.285 0-.453-.065-.864-.194-1.232s-.322-.692-.578-.97c-.256-.28-.592-.496-1.009-.648-.417-.153-.896-.229-1.438-.229h-3.49V22h1.802zm1.282-4.773h-1.282v-2.838h1.358c.525 0 .932.127 1.222.381.29.254.435.599.435 1.035 0 .436-.15.782-.45 1.038-.301.256-.728.384-1.283.384zM38.321 22v-1.631h-4.373v-2.14h3.288v-1.612h-3.288v-2.215h4.1v-1.638h-5.903V22h6.176zm7.795 0v-1.631h-4.373v-2.14h3.288v-1.612h-3.288v-2.215h4.1v-1.638H39.94V22h6.176z"/>
            </g>
        </g>
    </g>
</svg>
