<svg xmlns="http://www.w3.org/2000/svg" width="70" height="35" viewBox="0 0 70 35">
    <g fill="none" fill-rule="evenodd">
        <g>
            <g transform="translate(-268 -745) translate(268 745)">
                <rect width="70" height="35" fill="#444" rx="17.5"/>
                <path fill="#FFF" fill-rule="nonzero" d="M17.818 22v-3.161h1.441c.512 0 .975-.061 1.387-.184.413-.123.768-.307 1.067-.552.298-.246.528-.56.688-.94.161-.38.242-.82.242-1.32 0-.453-.064-.864-.19-1.232-.128-.368-.318-.692-.572-.97-.254-.28-.59-.496-1.006-.648-.417-.153-.898-.229-1.444-.229h-3.415V22h1.802zm1.213-4.78h-1.213v-2.83h1.289c.525 0 .93.126 1.216.38.285.254.428.599.428 1.035 0 .436-.147.78-.441 1.034-.294.254-.72.381-1.28.381zm6.9 4.78v-3.161h1.06L29.06 22h2.164l-2.28-3.352v-.025c.399-.131.736-.32 1.013-.565.277-.245.493-.555.648-.93.154-.374.231-.803.231-1.285 0-.453-.064-.864-.193-1.232-.13-.368-.322-.692-.578-.97-.256-.28-.592-.496-1.01-.648-.416-.153-.895-.229-1.437-.229h-3.491V22h1.803zm1.282-4.773H25.93v-2.838h1.358c.525 0 .932.127 1.222.381.29.254.435.599.435 1.035 0 .436-.15.782-.45 1.038-.301.256-.729.384-1.283.384zM34.519 22v-9.236h-1.84V22h1.84zm4.862.108c.313 0 .62-.033.92-.098.301-.066.594-.174.88-.324.286-.15.536-.332.752-.546.216-.214.39-.483.52-.806.132-.324.197-.68.197-1.07 0-.38-.059-.715-.177-1.003-.19-.461-.574-.848-1.15-1.161-.249-.136-.759-.354-1.53-.654-.24-.093-.432-.17-.574-.232-.141-.061-.283-.131-.425-.21-.142-.078-.248-.154-.32-.228-.072-.074-.13-.158-.172-.25-.042-.094-.063-.197-.063-.312.004-.287.109-.514.314-.679.205-.165.47-.247.797-.247.6 0 1.271.302 2.012.907l1.054-1.377c-.957-.787-1.994-1.174-3.11-1.162-.547.009-1.046.128-1.499.359-.453.23-.81.547-1.073.949-.262.402-.393.846-.393 1.333 0 .241.028.469.086.682.057.214.13.402.222.565.09.163.21.318.355.464.146.146.293.27.441.374.148.104.324.207.527.311.203.104.392.19.565.257.174.068.373.142.597.222.25.085.45.158.603.22.152.06.3.13.441.209.142.078.25.157.324.238.074.08.132.173.174.28.043.105.064.226.064.361 0 .195-.049.364-.146.508-.098.144-.247.258-.448.343-.2.084-.445.127-.733.127-.186 0-.377-.024-.571-.07-.195-.047-.39-.117-.587-.21-.197-.093-.394-.213-.59-.362-.197-.148-.38-.32-.55-.514l-1.098 1.352c.474.487 1 .85 1.577 1.092.578.241 1.174.362 1.787.362zM46.015 22v-5.738h.019l2.253 3.986h1.187l2.254-3.986h.019V22h1.815v-9.236h-1.84l-2.82 5.256h-.025l-2.837-5.256H44.2V22h1.815z"/>
            </g>
        </g>
    </g>
</svg>
