<?xml version="1.0" encoding="UTF-8"?>
<svg width="30px" height="30px" viewBox="0 0 30 30" version="1.1" xmlns="http://www.w3.org/2000/svg" xmlns:xlink="http://www.w3.org/1999/xlink">
    <title>3E200083-12B1-4864-9252-79A9C1E42CE8</title>
    <g id="Page-1" stroke="none" stroke-width="1" fill="none" fill-rule="evenodd">
        <g id="Launcher-_-202202" transform="translate(-132.000000, -1535.000000)">
            <g id="Launcher" transform="translate(70.000000, 1043.000000)">
                <g id="Link" transform="translate(40.000000, 380.000000)">
                    <g id="블로그" transform="translate(0.000000, 94.000000)">
                        <g id="blog" transform="translate(22.000000, 18.000000)">
                            <path d="M7.38234565,30 C3.30498388,30 0,26.6926926 0,22.6127125 L0,7.38728754 C0,3.30755552 3.30498388,0 7.38234565,0 L22.6179023,0 C26.6947682,0 30,3.30755552 30,7.38728754 L30,22.6127125 C30,26.6926926 26.6947682,30 22.6179023,30 L7.38234565,30 Z" id="Fill-1" fill="#020107"></path>
                            <path d="M8.9302936,15.2276064 C8.9302936,14.4217832 8.39003292,13.916767 7.64455933,13.916767 C6.89897037,13.916767 6.3587097,14.4217832 6.3587097,15.2276064 C6.3587097,16.0334296 6.89897037,16.5384458 7.64455933,16.5384458 C8.39003292,16.5384458 8.9302936,16.0334296 8.9302936,15.2276064 M10.3305564,15.2276064 C10.3305564,16.7070904 9.25222712,17.8489027 7.94403327,17.8489027 C7.27501457,17.8489027 6.78582637,17.6205632 6.45627813,17.2431969 L6.45627813,17.7097039 C6.45627813,17.7097804 6.45620121,17.7098951 6.45608584,17.7098951 L4.95867769,17.7098951 C4.95856231,17.7098951 4.95848539,17.7097804 4.95848539,17.7097039 L4.95848539,11.0903438 C4.95848539,11.0902673 4.95856231,11.0901908 4.95867769,11.0901908 L6.45608584,11.0901908 C6.45620121,11.0901908 6.45627813,11.0902673 6.45627813,11.0903438 L6.45627813,13.2120159 C6.78582637,12.8348026 7.27501457,12.6063101 7.94403327,12.6063101 C9.25222712,12.6063101 10.3305564,13.7482371 10.3305564,15.2276064 M17.5609502,15.2276064 C17.5609502,14.4648048 17.0206895,13.9598269 16.3182507,13.9598269 C15.6159656,13.9598269 15.075705,14.4648048 15.075705,15.2276064 C15.075705,15.9905227 15.6159656,16.4955006 16.3182507,16.4955006 C17.0206895,16.4955006 17.5609502,15.9905227 17.5609502,15.2276064 M13.6721732,15.2276064 C13.6721732,13.7482371 14.8504169,12.6063101 16.3182507,12.6063101 C17.7861229,12.6063101 18.9643665,13.7482371 18.9643665,15.2276064 C18.9643665,16.7070904 17.7861229,17.8489027 16.3182507,17.8489027 C14.8504169,17.8489027 13.6721732,16.7070904 13.6721732,15.2276064 M22.3752466,16.3746654 C21.6080057,16.3746654 21.067745,15.8696492 21.067745,15.1283776 C21.067745,14.3869912 21.6080057,13.881975 22.3752466,13.881975 C23.1423337,13.881975 23.6826329,14.3869912 23.6826329,15.1283776 C23.6826329,15.8696492 23.1423337,16.3746654 22.3752466,16.3746654 L22.3752466,16.3746654 Z M22.4051671,19.8347107 C23.7332823,19.8347107 25.0413223,19.1296919 25.0413223,17.4616777 L25.0413223,12.7455547 C25.0413223,12.7454018 25.0412454,12.7453253 25.0410916,12.7453253 L23.5836415,12.7453253 C23.5835261,12.7453253 23.5834107,12.7454018 23.5834107,12.7455547 L23.5834107,13.2517946 C23.2540163,12.8446383 22.774635,12.6063177 22.1256145,12.6063177 C20.7076994,12.6063177 19.6692898,13.758111 19.6692898,15.1283776 C19.6692898,16.4985294 20.7076994,17.6503227 22.1256145,17.6503227 C22.774635,17.6503227 23.2540163,17.4120021 23.5834107,17.0048457 L23.5834107,17.4616777 C23.5834107,18.1666583 23.1541019,18.5240244 22.4551243,18.5240244 L22.4053979,18.5240244 C22.4052825,18.5240244 22.4051671,18.5241008 22.4051671,18.5242538 L22.4051671,19.8347107 Z M10.4682098,10.9090909 L10.4682098,12.251097 C10.9830111,12.3501423 11.2879846,12.7015809 11.2879846,13.3000209 L11.2879846,17.7098684 L12.7852389,17.7098684 L12.7852389,13.3000209 C12.7852389,11.7577827 11.6833732,11.0269892 10.4682098,10.9090909" id="Combined-Shape" fill="#FFFFFF"></path>
                        </g>
                    </g>
                </g>
            </g>
        </g>
    </g>
</svg>