<svg width="30" height="30" viewBox="0 0 30 30" fill="none" xmlns="http://www.w3.org/2000/svg">
<path fill-rule="evenodd" clip-rule="evenodd" d="M7.38235 30C3.30498 30 0 26.6927 0 22.6127V7.38729C0 3.30756 3.30498 0 7.38235 0H22.6179C26.6948 0 30 3.30756 30 7.38729V22.6127C30 26.6927 26.6948 30 22.6179 30H7.38235Z" fill="#020107"/>
<path d="M13.4297 15.5291C14.3925 16.0848 14.8739 16.3627 15.4026 16.3631C15.9312 16.3636 16.4131 16.0866 17.3769 15.5326L23.5204 12.0011C23.7978 11.8417 23.9687 11.5462 23.9687 11.2263C23.9687 10.9063 23.7978 10.6108 23.5204 10.4514L17.3747 6.91866C16.4119 6.36524 15.9306 6.08854 15.4024 6.08875C14.8742 6.08895 14.3931 6.36603 13.4308 6.92019L8.14748 9.96266C8.10831 9.98521 8.08874 9.9965 8.07049 10.0072C6.26576 11.0637 5.15074 12.9925 5.13583 15.0836C5.13568 15.1048 5.13568 15.1274 5.13568 15.1726C5.13568 15.2177 5.13568 15.2403 5.13583 15.2614C5.15071 17.3502 6.26324 19.2772 8.06476 20.3345C8.08296 20.3452 8.10253 20.3565 8.14161 20.3791L11.4511 22.2898C13.3795 23.4032 14.3436 23.9599 15.4025 23.9603C16.4613 23.9606 17.4259 23.4046 19.3551 22.2925L22.8486 20.2785C23.8146 19.7217 24.2976 19.4433 24.5628 18.9843C24.828 18.5252 24.828 17.9678 24.828 16.8528V14.6988C24.828 14.3895 24.6605 14.1045 24.3902 13.954C24.1287 13.8083 23.81 13.8105 23.5505 13.9597L16.3869 18.0775C15.9063 18.3538 15.6659 18.4919 15.4023 18.492C15.1385 18.4921 14.8981 18.3541 14.4173 18.0781L9.56884 15.295C9.32597 15.1556 9.20453 15.0859 9.10699 15.0733C8.88462 15.0446 8.6708 15.1691 8.5861 15.3767C8.54896 15.4678 8.5497 15.6078 8.55121 15.8879C8.55231 16.094 8.55287 16.1971 8.57213 16.2919C8.6153 16.5043 8.72699 16.6965 8.8901 16.8391C8.96293 16.9028 9.05219 16.9544 9.23077 17.0574L14.4146 20.0493C14.8967 20.3275 15.1377 20.4667 15.4023 20.4667C15.667 20.4668 15.9081 20.3278 16.3903 20.0499L22.7441 16.3873C22.9088 16.2923 22.9912 16.2448 23.053 16.2805C23.1147 16.3162 23.1147 16.4113 23.1147 16.6014V17.5783C23.1147 17.8571 23.1147 17.9965 23.0484 18.1112C22.9821 18.226 22.8613 18.2956 22.6198 18.4348L17.3791 21.4557C16.4143 22.0119 15.9319 22.2899 15.4024 22.2897C14.8729 22.2895 14.3907 22.011 13.4265 21.4539L8.52336 18.6216C8.50779 18.6126 8.50001 18.6081 8.49274 18.6039C7.46469 18.0031 6.83034 16.9041 6.82439 15.7134C6.82435 15.705 6.82435 15.696 6.82435 15.678V14.7812C6.82435 14.1239 7.17443 13.5163 7.74312 13.1867C8.24564 12.8954 8.86548 12.8948 9.36853 13.1852L13.4297 15.5291Z" fill="#F2F7F7"/>
</svg>
