<svg width="30" height="30" viewBox="0 0 30 30" fill="none" xmlns="http://www.w3.org/2000/svg">
<path fill-rule="evenodd" clip-rule="evenodd" d="M7.38235 30C3.30498 30 0 26.6927 0 22.6127V7.38729C0 3.30756 3.30498 0 7.38235 0H22.6179C26.6948 0 30 3.30756 30 7.38729V22.6127C30 26.6927 26.6948 30 22.6179 30H7.38235Z" fill="#020107"/>
<g clip-path="url(#clip0_653_21511)">
<path d="M21.9419 8.26947C20.6279 7.66787 19.2407 7.24109 17.8158 7C17.6208 7.34857 17.4444 7.70721 17.2872 8.07441C15.7694 7.84569 14.2259 7.84569 12.708 8.07441C12.5508 7.70725 12.3744 7.34862 12.1795 7C10.7536 7.24312 9.36551 7.67092 8.05017 8.27261C5.43887 12.1361 4.73099 15.9036 5.08493 19.6176C6.61417 20.7475 8.32583 21.6067 10.1455 22.1581C10.5552 21.607 10.9178 21.0224 11.2293 20.4104C10.6376 20.1894 10.0665 19.9167 9.52256 19.5956C9.66571 19.4917 9.80571 19.3848 9.94099 19.281C11.5237 20.0252 13.251 20.4111 15 20.4111C16.7489 20.4111 18.4763 20.0252 20.059 19.281C20.1958 19.3926 20.3358 19.4996 20.4774 19.5956C19.9324 19.9173 19.3603 20.1905 18.7675 20.412C19.0786 21.0237 19.4412 21.6078 19.8513 22.1581C21.6726 21.609 23.3855 20.7501 24.915 19.6192C25.3303 15.3121 24.2056 11.5792 21.9419 8.26947ZM11.6777 17.3335C10.6913 17.3335 9.8765 16.4384 9.8765 15.3373C9.8765 14.2361 10.663 13.3332 11.6745 13.3332C12.686 13.3332 13.4946 14.2361 13.4773 15.3373C13.4599 16.4384 12.6829 17.3335 11.6777 17.3335ZM18.3223 17.3335C17.3344 17.3335 16.5227 16.4384 16.5227 15.3373C16.5227 14.2361 17.3092 13.3332 18.3223 13.3332C19.3354 13.3332 20.1376 14.2361 20.1203 15.3373C20.103 16.4384 19.3275 17.3335 18.3223 17.3335Z" fill="white"/>
</g>
<defs>
<clipPath id="clip0_653_21511">
<rect width="20" height="15.1581" fill="white" transform="translate(5 7)"/>
</clipPath>
</defs>
</svg>
