<?xml version="1.0" encoding="UTF-8"?>
<svg width="30px" height="30px" viewBox="0 0 30 30" version="1.1" xmlns="http://www.w3.org/2000/svg" xmlns:xlink="http://www.w3.org/1999/xlink">
    <title>6E7CEA5E-C928-4E6E-8D1D-CE05C514C16B</title>
    <g id="Page-1" stroke="none" stroke-width="1" fill="none" fill-rule="evenodd">
        <g id="GUIDE-_-Launcher-_-202202" transform="translate(-1352.000000, -5877.000000)">
            <g id="도움말" transform="translate(1330.000000, 5859.000000)">
                <g id="que" transform="translate(22.000000, 18.000000)">
                    <path d="M7.38234565,30 C3.30498388,30 0,26.6926926 0,22.6127125 L0,7.38728754 C0,3.30755552 3.30498388,0 7.38234565,0 L22.6179023,0 C26.6947682,0 30,3.30755552 30,7.38728754 L30,22.6127125 C30,26.6926926 26.6947682,30 22.6179023,30 L7.38234565,30 Z" id="Fill-1" fill="#020107"></path>
                    <g id="?" transform="translate(11.293388, 7.785149)" fill="#FFFFFF" fill-rule="nonzero">
                        <path d="M4.5446281,8.99256198 C4.5446281,9.27190083 4.44256198,9.50826446 4.23842975,9.70165289 C4.03429752,9.89504132 3.78181818,9.99173554 3.48099174,9.99173554 C3.18016529,9.99173554 2.92768595,9.89504132 2.72355372,9.70165289 C2.51942149,9.50826446 2.41735537,9.27190083 2.41735537,8.99256198 L2.41735537,8.21900826 C2.41735537,7.59586777 2.6053719,7.09090909 2.98140496,6.70413223 C3.35743802,6.31735537 3.73884298,5.97355372 4.12561983,5.67272727 C4.49090909,5.39338843 4.82933884,5.07644628 5.14090909,4.72190083 C5.45247934,4.36735537 5.60826446,3.94297521 5.60826446,3.44876033 C5.60826446,2.97603306 5.44173554,2.5946281 5.10867769,2.30454545 C4.77561983,2.01446281 4.32975207,1.86942149 3.77107438,1.86942149 C3.29834711,1.86942149 2.92231405,1.98760331 2.64297521,2.22396694 C2.36363636,2.46033058 2.20247934,2.79338843 2.15950413,3.2231405 C2.13801653,3.45950413 2.02520661,3.66900826 1.82107438,3.85165289 C1.61694215,4.03429752 1.37520661,4.12561983 1.09586777,4.12561983 C0.816528926,4.12561983 0.564049587,4.01818182 0.338429752,3.80330579 C0.112809917,3.58842975 0,3.34132231 0,3.06198347 C0,2.50330579 0.171900826,1.99297521 0.515702479,1.53099174 C0.859504132,1.06900826 1.3161157,0.698347107 1.88553719,0.419008264 C2.45495868,0.139669421 3.08347107,0 3.77107438,0 C4.90991736,0 5.8553719,0.306198347 6.60743802,0.918595041 C7.35950413,1.53099174 7.73553719,2.32066116 7.73553719,3.28760331 C7.73553719,4.19008264 7.53677686,4.88842975 7.1392562,5.38264463 C6.74173554,5.8768595 6.29586777,6.30661157 5.80165289,6.67190083 C5.45785124,6.92975207 5.16239669,7.1822314 4.91528926,7.42933884 C4.66818182,7.67644628 4.5446281,7.93966942 4.5446281,8.21900826 L4.5446281,8.99256198 Z M3.73884298,14.0206612 C3.33057851,14.0206612 2.98140496,13.8863636 2.69132231,13.6177686 C2.40123967,13.3491736 2.25619835,13.0322314 2.25619835,12.6669421 C2.25619835,12.2801653 2.40123967,11.9524793 2.69132231,11.6838843 C2.98140496,11.4152893 3.33057851,11.2809917 3.73884298,11.2809917 C4.12561983,11.2809917 4.45867769,11.4152893 4.73801653,11.6838843 C5.01735537,11.9524793 5.15702479,12.2801653 5.15702479,12.6669421 C5.15702479,13.0322314 5.01735537,13.3491736 4.73801653,13.6177686 C4.45867769,13.8863636 4.12561983,14.0206612 3.73884298,14.0206612 Z" id="Shape"></path>
                    </g>
                </g>
            </g>
        </g>
    </g>
</svg>