<svg width="15" height="15" viewBox="0 0 15 15" xmlns="http://www.w3.org/2000/svg">
    <path d="M13.81 6.86a.657.657 0 0 0-.92 0l-.479.472C12.255 4.367 9.763 2 6.713 2 3.563 2 1 4.523 1 7.626c0 3.101 2.563 5.625 5.713 5.625.36 0 .65-.287.65-.64 0-.354-.29-.64-.65-.64-2.433 0-4.413-1.95-4.413-4.345 0-2.397 1.98-4.347 4.413-4.347 2.323 0 4.228 1.777 4.398 4.022l-.448-.44a.658.658 0 0 0-.92 0 .634.634 0 0 0 0 .905l1.574 1.549a.651.651 0 0 0 .46.188.65.65 0 0 0 .459-.188l1.574-1.55a.634.634 0 0 0 0-.905" fill="#BABABA" stroke="#BABABA" stroke-width=".3" fill-rule="evenodd"/>
</svg>
