<svg width="570" height="210" viewBox="0 0 570 210" xmlns="http://www.w3.org/2000/svg" xmlns:xlink="http://www.w3.org/1999/xlink">
    <defs>
        <path id="tyt08t9uxa" d="M0 0h570v210H0z"/>
        <path id="w72vk4mkic" d="M97.505 3.523H0V0h97.505z"/>
        <path id="gw9emzngse" d="M96.47 85.78H0V0h96.47z"/>
        <path id="rtzaxhgq2g" d="M96.229 84.933V0H0v84.933z"/>
    </defs>
    <g fill="none" fill-rule="evenodd">
        <path fill="#000" d="M-70-6664h1900V300H-70z"/>
        <g>
            <mask id="b4wqgacp6b" fill="#fff">
                <use xlink:href="#tyt08t9uxa"/>
            </mask>
            <use fill="#272727" xlink:href="#tyt08t9uxa"/>
            <g mask="url(#b4wqgacp6b)" opacity=".302">
                <g transform="translate(237.087 141.382)">
                    <mask id="8p3hkvk1wd" fill="#fff">
                        <use xlink:href="#w72vk4mkic"/>
                    </mask>
                    <path d="M96.04 2.207c-.199.346-1.022.576-1.419.576l-93.513-.02c-.398 0-.764-.21-.963-.556C.112 2.152.093 2.09.072 2.03c-.114.306-.095.649.073.936.199.344.565.557.963.557h93.286c.779 0 1.88-.18 2.357-.669.233-.238 1.313-1.189.381-2.855-.021.06-1.06 2.152-1.092 2.207" fill="red" mask="url(#8p3hkvk1wd)"/>
                </g>
                <path d="M301.588 125.583a1.109 1.109 0 0 1-.963.555h-30.893c-.397 0-.764-.21-.962-.555-.033-.056-.051-.116-.074-.176a1.1 1.1 0 0 0 1.036 1.492h30.191c.397 0 1.769-.09 2.335-.74.476-.546.575-.88.63-1.444-.023.06-1.267.812-1.3.868M317.358 134.585a1.11 1.11 0 0 1-.963.556h-62.431a1.11 1.11 0 0 1-.963-.556c-.033-.056-.052-.117-.073-.175a1.1 1.1 0 0 0 1.036 1.491h61.44c.763 0 1.62-.028 2.308-.398.572-.306.956-.84 1.085-1.472.024-.115.013-.266.053-.375-.021.06-1.46.873-1.492.93" fill="red"/>
                <path d="M270.353 123.19h27.04l-13.52-23.419-13.52 23.418zm28.966 2.223-29.897 1.486c-1.404 0-3.336-.74-1.959-3.154l15.447-26.754c1.667-2.55 4.126-.98 4.539 0l12.834 26.754a1.112 1.112 0 0 1-.964 1.668z" fill="red"/>
                <path d="M254.584 132.192h58.578l-29.29-50.73-29.288 50.73zm60.505 2.224-61.67 1.485c-.747 0-3.169-.74-1.725-3.154l31.07-53.812c.78-1.575 3.023-2.424 4.767-.099l28.521 53.911a1.112 1.112 0 0 1-.963 1.669z" fill="red"/>
                <g transform="translate(235.5 59.124)">
                    <mask id="7jr3bdrxif" fill="#fff">
                        <use xlink:href="#gw9emzngse"/>
                    </mask>
                    <path d="M3.315 82.071h90.117L48.373 4.028 3.315 82.07zm92.043 2.224L2.695 85.78c-1.253 0-3.676-.746-2.27-3.153L47.295 1.5C48.846-.962 51.3.088 51.949 1.246L96.32 82.628a1.11 1.11 0 0 1-.963 1.667z" fill="red" mask="url(#7jr3bdrxif)"/>
                </g>
                <path fill="#00F" d="M298.699 122.812v.808l-2.1-1.806h-24.502l-.438.998zM314.468 131.814v.808l-2.1-1.806H256.33l-.44.998zM330.214 140.841l.068.808-2.13-1.806h-87.616l-.44.998z"/>
                <path d="M272.965 123.19h27.04L285.18 99.77l-.001 2.264-12.214 21.154zm27.882 2.97-29.809-.747a1.111 1.111 0 0 1-.963-1.668l13.798-27.03c1.477-1.805 3.022-.821 3.575.276l15.232 26.381c.199.344.317 1.083.186 1.459-.134.384-.386 1.329-2.019 1.329z" fill="#00F"/>
                <path d="M257.196 132.192h58.579l-30.597-51.588.001 3.12-27.983 48.468zm59.406 2.95-61.333-.726a1.111 1.111 0 0 1-.963-1.669l29.842-54.65c.801-.871 2.45-.74 3.454.85l31.063 53.8c.199.344.295 1.01.095 1.353-.197.345-.439 1.062-2.158 1.042z" fill="#00F"/>
                <g transform="translate(238.388 59.212)">
                    <mask id="r6mjxa2zth" fill="#fff">
                        <use xlink:href="#rtzaxhgq2g"/>
                    </mask>
                    <path d="M3.039 81.983h90.117L48.097 3.94l-1.307.985v1.278L3.04 81.983zm90.924 2.95-92.85-.726c-.398 0-.765-.211-.963-.556-.2-.343-.2-.768 0-1.112L45.375.964c1.415-1.703 3.062-.834 3.685.193l46.791 81.045c.199.344.51 1.035.318 1.526-.43 1.101-1.809 1.205-2.206 1.205z" fill="#00F" mask="url(#r6mjxa2zth)"/>
                </g>
                <path d="M272.227 123.19h27.039l-13.52-23.419-13.52 23.418zm28.477 2.965-30.403-.742c-.398 0-.765-.212-.963-.556-.2-.343-.2-.768 0-1.112l14.879-26.754c.713-1.376 2.096-.69 2.493 0l15.447 26.754c.199.344.348 1.068.075 1.508-.462.744-1.131.902-1.528.902z" fill="#3FA9FF"/>
                <path d="M256.458 132.192h58.579l-29.29-50.73-29.29 50.73zm60.03 2.95-61.957-.726a1.111 1.111 0 0 1-.963-1.669l30.254-54.325c.97-1.373 2.45-.403 2.846.286l31.258 54.04c.2.343.281.839.175 1.222-.212.756-.851 1.172-1.613 1.172z" fill="#3FA9FF"/>
                <path d="M240.69 141.195h90.116l-45.058-78.044-45.059 78.044zm91.08 2.968-93.008-.744a1.111 1.111 0 0 1-.963-1.668l45.963-81.575c1.215-1.402 2.55-.495 2.948.193l46.985 81.382c.2.344.32 1.05.148 1.407-.46.957-1.676 1.005-2.073 1.005z" fill="#3FA9FF"/>
                <path d="M271.057 123.19h27.04l-12.917-22.374V99.17l-14.123 24.02zm28.966 2.223-30.096.747c-.398 0-3.069-.007-1.759-2.415l15.446-26.754c.614-.794 1.807-1.097 2.417-.156l14.956 26.91a1.11 1.11 0 0 1-.964 1.667z" fill="#FF0"/>
                <path d="M255.288 132.192h58.579l-28.688-49.689v-1.899l-29.89 51.588zm60.506 2.224-61.83.726c-.397 0-2.72-.227-1.566-2.395l31.124-53.905c.538-1.01 2.054-1.264 2.67-.073l30.565 53.978a1.112 1.112 0 0 1-.963 1.669z" fill="#FF0"/>
                <path d="m239.52 141.195 89.976-.154-44.317-76.905v-.985h-.601l-45.059 78.044zm92.042 2.224-93.286.77c-.626 0-2.653-.523-1.646-2.438l46.985-81.382c.626-1.126 2.064-.788 2.462-.099l46.448 81.481a1.11 1.11 0 0 1-.963 1.667z" fill="#FF0"/>
                <path d="M271.659 123.19h27.04l-13.52-23.419-13.52 23.418zm28.966 2.223h-30.892c-.398 0-.765-.212-.963-.556-.2-.343-.2-.768 0-1.112l15.446-26.754c.398-.69 1.53-.69 1.926 0l15.447 26.754c.199.344.199.769-.001 1.112a1.11 1.11 0 0 1-.963.556z" fill="#FFF"/>
                <path d="M255.89 132.192h58.579l-29.29-50.73-29.289 50.73zm60.506 2.224h-62.433a1.111 1.111 0 0 1-.963-1.669l31.216-54.066c.398-.689 1.53-.689 1.926 0l31.217 54.066a1.112 1.112 0 0 1-.963 1.669z" fill="#FFF"/>
                <path d="M240.121 141.195h90.117L285.18 63.151l-45.059 78.044zm91.85 2.224h-93.777a1.111 1.111 0 0 1-.963-1.668l46.986-81.382c.396-.688 1.528-.688 1.926 0l46.984 81.382c.2.344.2.769 0 1.112-.198.345-.76.556-1.156.556z" fill="#FFF"/>
            </g>
        </g>
    </g>
</svg>
