<svg xmlns="http://www.w3.org/2000/svg" width="30" height="30" viewBox="0 0 30 30">
    <g fill="none" fill-rule="evenodd">
        <g>
            <g>
                <g>
                    <path d="M0 0H30V30H0z" transform="translate(-1335 -4580) translate(70 4580) translate(1265)"/>
                    <g fill="#EFFC35" fill-rule="nonzero">
                        <path d="M16.494.436c.283.248.335.662.137.97l-.067.088-1.453 1.662C16.292 4.616 17 6.476 17 8.5c0 4.694-3.806 8.5-8.5 8.5-1.62 0-3.133-.453-4.42-1.238l-1.516 1.732c-.272.312-.746.343-1.058.07-.283-.248-.335-.662-.137-.97l.067-.088 14-16c.272-.312.746-.343 1.058-.07zm-2.39 3.869l-4.078 4.66 2.186 2.187c.293.293.293.767 0 1.06-.266.267-.683.29-.976.073l-.084-.073-2.116-2.115-3.95 4.515c1.01.566 2.174.888 3.414.888 3.866 0 7-3.134 7-7 0-1.574-.52-3.026-1.396-4.195zM8.5 0c1.528 0 2.962.403 4.201 1.11L11.69 2.266c-.957-.49-2.04-.767-3.189-.767-3.866 0-7 3.134-7 7 0 1.481.46 2.855 1.245 3.986l-1.012 1.158C.646 12.216 0 10.434 0 8.5 0 3.806 3.806 0 8.5 0zm0 3.25c.38 0 .693.282.743.648L9.25 4v1.053l-1.5 1.714V4c0-.414.336-.75.75-.75z" transform="translate(-1335 -4580) translate(70 4580) translate(1265) translate(6.5 6.5)"/>
                    </g>
                </g>
            </g>
        </g>
    </g>
</svg>
