<?xml version="1.0" encoding="UTF-8"?>
<svg width="44px" height="40px" viewBox="0 0 44 40" version="1.1" xmlns="http://www.w3.org/2000/svg" xmlns:xlink="http://www.w3.org/1999/xlink">
    <title>92C5E588-B419-407D-85E7-2DC16A7E417D</title>
    <g id="Page-1" stroke="none" stroke-width="1" fill="none" fill-rule="evenodd">
        <g id="GUIDE_ClockWidget_202105" transform="translate(-549.000000, -4253.000000)" fill="#F1FA75">
            <g id="icon_listening_on_over" transform="translate(549.000000, 4253.000000)">
                <path d="M30.40313,26.5288571 C30.40313,27.6294286 29.51488,28.5251429 28.42348,28.5251429 L27.57093,28.5251429 C26.47953,28.5251429 25.59128,27.6294286 25.59128,26.5288571 L25.59128,23.7482857 C25.59128,22.6477143 26.47953,21.752 27.57093,21.752 L28.42348,21.752 C28.5192531,21.752 28.6134619,21.7588975 28.7056433,21.7722255 L28.70568,19.9432571 C28.70568,16.4281143 25.87008,13.5678286 22.38338,13.5678286 L22.01958,13.5678286 C18.53288,13.5678286 15.69643,16.4281143 15.69643,19.9432571 L15.6965153,21.7723786 C15.7890333,21.7589503 15.883596,21.752 15.979735,21.752 L16.831435,21.752 C17.922835,21.752 18.811085,22.6477143 18.811085,23.7482857 L18.811085,26.5288571 C18.811085,27.6294286 17.922835,28.5251429 16.831435,28.5251429 L15.979735,28.5251429 C14.888335,28.5251429 14.000085,27.6294286 14.000085,26.5288571 L13.99983,19.9432571 C13.99983,15.4852571 17.59788,11.8569714 22.01958,11.8569714 L22.38338,11.8569714 C26.80593,11.8569714 30.40313,15.4852571 30.40313,19.9432571 L30.40313,26.5288571 Z M16.831435,23.4637143 L15.979735,23.4637143 C15.825885,23.4637143 15.696685,23.594 15.696685,23.7482857 L15.696685,26.5288571 C15.696685,26.6831429 15.825885,26.8134286 15.979735,26.8134286 L16.831435,26.8134286 C16.985285,26.8134286 17.114485,26.6831429 17.114485,26.5288571 L17.114485,23.7482857 C17.114485,23.594 16.985285,23.4637143 16.831435,23.4637143 Z M28.42348,23.4637143 L27.57093,23.4637143 C27.41793,23.4637143 27.28873,23.594 27.28873,23.7482857 L27.28873,26.5288571 C27.28873,26.6831429 27.41793,26.8134286 27.57093,26.8134286 L28.42348,26.8134286 C28.57648,26.8134286 28.70568,26.6831429 28.70568,26.5288571 L28.70568,23.7482857 C28.70568,23.594 28.57648,23.4637143 28.42348,23.4637143 Z" id="Combined-Shape"></path>
            </g>
        </g>
    </g>
</svg>