<svg xmlns="http://www.w3.org/2000/svg" width="115" height="40" viewBox="0 0 115 40">
    <defs>
        <linearGradient id="9oi3669aza" x1="50%" x2="50%" y1="4.561%" y2="105.472%">
            <stop offset="0%" stop-color="#F4361D"/>
            <stop offset="100%" stop-color="#F61C00"/>
        </linearGradient>
    </defs>
    <g fill="none" fill-rule="evenodd">
        <g>
            <g>
                <g>
                    <g>
                        <path fill="url(#9oi3669aza)" d="M75.18.613l-.027.001-29.902 1.82c-.418.025-.744.37-.744.79v13.648c0 .418.326.765.744.79l3.653.223v3.757c0 .13.148.205.253.128l4.833-3.577 21.163 1.288c.445.027.824-.32.84-.762V1.377c-.015-.42-.356-.753-.77-.764h-.044z" transform="translate(-1384 -491) translate(1372 473) translate(12 18) translate(19.379 10.316)"/>
                        <path fill="#FFF" d="M0.254 16.167L11.965 16.167 11.965 4.457 0.254 4.457z" transform="translate(-1384 -491) translate(1372 473) translate(12 18) translate(19.379 10.316)"/>
                        <path fill="#1E1E1E" d="M9.038 13.24L7.238 13.24 5.068 10.106 5.068 13.24 3.183 13.24 3.183 7.385 4.982 7.385 7.153 10.519 7.153 7.385 9.038 7.385z" transform="translate(-1384 -491) translate(1372 473) translate(12 18) translate(19.379 10.316)"/>
                        <path fill="#FFF" d="M24.564 10.853H22.58c-.093 0-.169.076-.169.17v2.845h-2.02v-2.846c0-.093-.076-.169-.17-.169H18.24c-.093 0-.169.076-.169.17v2.845h-3.594c-.094 0-.17.076-.17.17v1.666c0 .094.076.17.17.17h13.85c.093 0 .169-.076.169-.17v-1.667c0-.093-.076-.169-.17-.169h-3.593v-2.846c0-.093-.077-.169-.17-.169" transform="translate(-1384 -491) translate(1372 473) translate(12 18) translate(19.379 10.316)"/>
                        <path fill="#FFF" d="M16.544 11.138l4.858-3.76 4.858 3.76c.075.058.183.043.239-.032l1.1-1.471c.055-.074.042-.179-.032-.235l-4.46-3.45c-.313-.242-.497-.615-.497-1.012v-1.64c0-.093-.075-.17-.169-.17h-2.078c-.094 0-.17.077-.17.17v1.64c0 .397-.184.77-.497 1.013L15.236 9.4c-.073.056-.087.16-.032.235l1.1 1.47c.057.076.165.091.24.033M39.244 2.663v7.877c0 .093.076.17.17.17h1.998c.093 0 .17-.077.17-.17V2.663c0-.093-.077-.169-.17-.169h-1.999c-.093 0-.169.076-.169.17M32.252 8.381h2.184V4.775h-2.184v3.606zm5.484 0h-1.162V4.775h1.162c.094 0 .17-.076.17-.17v-1.6c0-.093-.076-.169-.17-.169h-8.844c-.094 0-.17.076-.17.17v1.6c0 .093.076.169.17.169h1.21V8.38h-1.21c-.094 0-.17.076-.17.17v1.6c0 .093.076.168.17.168h8.844c.094 0 .17-.075.17-.169v-1.6c0-.093-.076-.169-.17-.169zM38.707 15.125c0 1.05-.895 1.904-1.994 1.904-1.1 0-1.995-.854-1.995-1.904 0-1.05.895-1.903 1.995-1.903s1.994.854 1.994 1.903m-1.994-4.018c-2.333 0-4.23 1.802-4.23 4.018 0 2.216 1.897 4.019 4.23 4.019 2.332 0 4.23-1.803 4.23-4.019s-1.898-4.018-4.23-4.018M50.741 5.617L48.904 5.617 48.904 14.267 54.025 14.267 54.025 12.445 50.741 12.445zM55.579 14.266L57.416 14.266 57.416 5.617 55.579 5.617zM72.125 7.439L72.125 5.617 66.72 5.617 66.72 14.266 72.125 14.266 72.125 12.445 68.557 12.445 68.557 10.793 71.542 10.793 71.542 8.971 68.557 8.971 68.557 7.439zM63.709 5.617L62.174 12.076 60.64 5.617 58.702 5.617 61.066 14.267 63.282 14.267 65.646 5.617z" transform="translate(-1384 -491) translate(1372 473) translate(12 18) translate(19.379 10.316)"/>
                    </g>
                </g>
            </g>
        </g>
    </g>
</svg>
