<svg xmlns="http://www.w3.org/2000/svg" width="115" height="40" viewBox="0 0 115 40">
    <g fill="none" fill-rule="evenodd">
        <g fill="#BABABA">
            <g>
                <g>
                    <g>
                        <path d="M71.87 7.097h-3.568v1.532h2.984v1.821h-2.984v1.653h3.569v1.822h-5.406v-8.65h5.406v1.822zm-8.842 6.828H60.81l-2.363-8.65h1.937l1.534 6.459 1.535-6.46h1.937l-2.363 8.65zm-7.704 0h1.837v-8.65h-1.837v8.65zm-1.553 0h-5.122v-8.65h1.838v6.828h3.284v1.822zM74.898.272l-29.901 1.82c-.419.024-.745.371-.745.79V16.53c0 .419.326.765.745.791l3.653.222V21.3c0 .13.147.205.251.128l4.834-3.576 21.163 1.287c.455.028.84-.334.84-.79V1.061c0-.455-.385-.817-.84-.79zM2.928 7.043h1.8l2.17 3.133V7.043h1.885v5.855h-1.8l-2.17-3.134v3.134H2.927V7.043zM0 15.826h11.71V4.115H0v11.71zM28.072 13.527h-3.594V10.68c0-.093-.076-.169-.17-.169h-1.982c-.093 0-.17.076-.17.17v2.846h-2.02V10.68c0-.093-.075-.169-.169-.169h-1.981c-.094 0-.17.076-.17.17v2.846h-3.594c-.093 0-.17.075-.17.169v1.666c0 .093.077.17.17.17h13.85c.093 0 .17-.077.17-.17v-1.666c0-.094-.077-.17-.17-.17" transform="translate(-748 -491) translate(736 473) translate(12 18) translate(19.631 10.65)"/>
                        <path d="M16.05 10.764c.056.075.164.09.239.032l4.857-3.759 4.858 3.76c.076.057.183.042.24-.033l1.1-1.471c.055-.074.041-.179-.031-.235l-4.46-3.449c-.314-.243-.498-.617-.498-1.012V2.956c0-.094-.076-.17-.168-.17h-2.08c-.093 0-.17.076-.17.17v1.64c0 .396-.182.77-.496 1.013l-4.46 3.449c-.073.056-.087.161-.032.235l1.1 1.47zM41.157 2.152h-1.999c-.093 0-.17.076-.17.17v7.876c0 .093.077.17.17.17h2c.092 0 .168-.077.168-.17V2.322c0-.094-.076-.17-.169-.17M31.996 8.039h2.184V4.433h-2.184v3.606zm5.654 1.768V8.208c0-.093-.075-.17-.169-.17H36.32V4.434h1.161c.094 0 .17-.076.17-.17v-1.6c0-.092-.076-.169-.17-.169h-8.845c-.092 0-.168.077-.168.17v1.6c0 .093.076.169.168.169h1.212v3.606h-1.212c-.092 0-.168.076-.168.17v1.598c0 .094.076.17.168.17h8.845c.094 0 .17-.076.17-.17zM36.457 16.687c-1.1 0-1.995-.854-1.995-1.904 0-1.05.895-1.903 1.995-1.903s1.996.854 1.996 1.903c0 1.05-.895 1.904-1.996 1.904m0-5.922c-2.332 0-4.23 1.803-4.23 4.018 0 2.216 1.898 4.019 4.23 4.019 2.333 0 4.23-1.803 4.23-4.019 0-2.215-1.897-4.018-4.23-4.018" transform="translate(-748 -491) translate(736 473) translate(12 18) translate(19.631 10.65)"/>
                    </g>
                </g>
            </g>
        </g>
    </g>
</svg>
