<svg xmlns="http://www.w3.org/2000/svg" width="170" height="59" viewBox="0 0 170 59">
    <g fill="none" fill-rule="evenodd">
        <g fill="#BABABA">
            <g>
                <g>
                    <g>
                        <g>
                            <path d="M96.87 9.565h-4.81v2.066h4.022v2.454H92.06v2.228h4.81v2.455h-7.287V7.109h7.286v2.456zm-11.92 9.203h-2.987L78.777 7.109h2.61l2.07 8.706 2.069-8.706h2.61L84.95 18.768zm-10.383 0h2.476V7.109h-2.476v11.659zm-2.093 0H65.57V7.109h2.478v9.204h4.426v2.455zM100.949.367L60.647 2.819c-.564.034-1.002.5-1.002 1.066v18.394c0 .564.438 1.03 1.002 1.066l4.924.3v5.064c0 .175.2.276.34.172l6.515-4.82 28.523 1.735c.614.038 1.132-.45 1.132-1.066V1.432c0-.614-.518-1.102-1.132-1.065zM3.946 9.492h2.425l2.926 4.224V9.492h2.54v7.892H9.414L6.486 13.16v4.224h-2.54V9.492zM0 21.33h15.784V5.546H0V21.33zM37.836 18.232h-4.844v-3.837c0-.126-.102-.228-.228-.228h-2.672c-.126 0-.228.102-.228.228v3.837H27.14v-3.837c0-.126-.102-.228-.228-.228H24.24c-.126 0-.228.102-.228.228v3.837h-4.844c-.126 0-.228.1-.228.228v2.245c0 .126.102.228.228.228h18.667c.125 0 .228-.102.228-.228V18.46c0-.127-.103-.228-.228-.228" transform="translate(-1208 -480) translate(120 309) translate(785) translate(303 171) translate(34 15)"/>
                            <path d="M21.632 14.507c.076.103.222.122.322.045l6.548-5.067 6.547 5.067c.103.077.246.058.323-.045l1.483-1.982c.074-.1.056-.24-.042-.317L30.8 7.56c-.423-.328-.67-.831-.67-1.365V3.984c0-.126-.102-.228-.227-.228h-2.802c-.127 0-.23.102-.23.228v2.211c0 .534-.246 1.037-.669 1.365l-6.01 4.648c-.1.077-.119.218-.044.317l1.483 1.982zM55.473 2.9h-2.694c-.126 0-.23.102-.23.23v10.615c0 .126.104.229.23.229h2.694c.125 0 .228-.103.228-.23V3.13c0-.127-.103-.229-.228-.229M43.125 10.835h2.944v-4.86h-2.944v4.86zm7.621 2.384v-2.156c0-.126-.102-.228-.228-.228h-1.565v-4.86h1.565c.126 0 .228-.103.228-.229V3.59c0-.125-.102-.228-.228-.228H38.597c-.125 0-.227.103-.227.228v2.156c0 .126.102.228.227.228h1.632v4.861h-1.632c-.125 0-.227.102-.227.228v2.156c0 .126.102.229.227.229h11.921c.126 0 .228-.103.228-.23zM49.138 22.49c-1.482 0-2.689-1.15-2.689-2.565 0-1.414 1.207-2.565 2.69-2.565 1.482 0 2.688 1.15 2.688 2.565s-1.206 2.566-2.689 2.566m0-7.982c-3.143 0-5.7 2.43-5.7 5.416 0 2.987 2.557 5.417 5.7 5.417 3.144 0 5.702-2.43 5.702-5.417 0-2.986-2.558-5.416-5.702-5.416" transform="translate(-1208 -480) translate(120 309) translate(785) translate(303 171) translate(34 15)"/>
                        </g>
                    </g>
                </g>
            </g>
        </g>
    </g>
</svg>
