<svg xmlns="http://www.w3.org/2000/svg" xmlns:xlink="http://www.w3.org/1999/xlink" width="18" height="18" viewBox="0 0 18 18">
    <defs>
        <linearGradient id="1bqq7m81yd" x1="50%" x2="50%" y1="4.561%" y2="105.473%">
            <stop offset="0%" stop-color="#F4361C"/>
            <stop offset="100%" stop-color="#F61C00"/>
        </linearGradient>
        <circle id="2kvh945wva" cx="9" cy="9" r="9"/>
        <path id="v0bbletmec" d="M11.856.184c.16 0 .294.131.294.295v6.425c0 .17-.143.304-.312.293L3.974 6.72 2.177 8.048c-.04.029-.094 0-.094-.047V6.604L.726 6.521C.572 6.512.45 6.384.45 6.228V1.157C.45 1 .571.872.726.86L11.838.185"/>
    </defs>
    <g fill="none" fill-rule="evenodd">
        <g>
            <g>
                <g>
                    <g>
                        <g transform="translate(-496 -616) translate(275 582) translate(187 8) translate(34 26)">
                            <mask id="ykegmk11bb" fill="#fff">
                                <use xlink:href="#2kvh945wva"/>
                            </mask>
                            <use fill="#FFF" xlink:href="#2kvh945wva"/>
                            <g mask="url(#ykegmk11bb)">
                                <g>
                                    <g transform="translate(2.7 5.4)">
                                        <mask id="vmu5pnzkme" fill="#fff">
                                            <use xlink:href="#v0bbletmec"/>
                                        </mask>
                                        <path fill="url(#1bqq7m81yd)" d="M11.838.186L.726.861c-.154.011-.276.14-.276.296v5.071c0 .156.121.284.276.293l1.358.083v1.397c0 .048.054.076.094.047l1.796-1.329 7.864.478c.169.011.312-.124.312-.293V.479c0-.164-.133-.294-.294-.294h-.018" mask="url(#vmu5pnzkme)"/>
                                    </g>
                                    <path fill="#F5F5F5" d="M7.585 2.045l-.57 2.4-.57-2.4h-.72l.878 3.214h.824l.878-3.214h-.72zm3.128.677v-.677h-2.01v3.214h2.01v-.677H9.387v-.614h1.109v-.677h-1.11v-.57h1.327zm-6.15 2.537h.684V2.045h-.683v3.214zM2.767 2.045h-.682v3.214h1.903v-.677h-1.22V2.045z" transform="translate(2.7 5.4)"/>
                                </g>
                            </g>
                        </g>
                    </g>
                </g>
            </g>
        </g>
    </g>
</svg>
