<svg width="28" height="28" viewBox="0 0 28 28" fill="none" xmlns="http://www.w3.org/2000/svg">
<rect width="28" height="28" rx="3" fill="#444444"/>
<path fill-rule="evenodd" clip-rule="evenodd" d="M11.5089 6.5C10.0682 6.5 8.90039 7.66785 8.90039 9.10847V18.7441C8.90039 20.1847 10.0682 21.3525 11.5089 21.3525H16.4919C17.9325 21.3525 19.1004 20.1847 19.1004 18.7441V9.10847C19.1004 7.66785 17.9325 6.5 16.4919 6.5H11.5089ZM10.7953 18.7441V9.10847C10.7953 8.71439 11.1148 8.39492 11.5089 8.39492H16.4919C16.886 8.39492 17.2055 8.71439 17.2055 9.10847V18.7441C17.2055 19.1382 16.886 19.4576 16.4919 19.4576H11.5089C11.1148 19.4576 10.7953 19.1382 10.7953 18.7441ZM13.1678 9.82373C12.6445 9.82373 12.2203 10.2479 12.2203 10.7712C12.2203 11.2945 12.6445 11.7186 13.1678 11.7186H14.8288C15.352 11.7186 15.7762 11.2945 15.7762 10.7712C15.7762 10.2479 15.352 9.82373 14.8288 9.82373H13.1678ZM17.0902 21.0776C18.1309 20.8116 18.9003 19.8677 18.9003 18.7441V9.10849C18.9003 7.77832 17.822 6.70001 16.4919 6.70001H11.5088C11.3075 6.70001 11.1119 6.72472 10.925 6.77126C11.1119 6.72471 11.3075 6.7 11.5089 6.7H16.4919C17.8221 6.7 18.9004 7.77831 18.9004 9.10847V18.7441C18.9004 19.8677 18.1309 20.8116 17.0902 21.0776ZM16.7175 19.6296C16.6453 19.6479 16.5697 19.6576 16.4919 19.6576H11.5088C11.0043 19.6576 10.5953 19.2486 10.5953 18.7441V9.10849C10.5953 8.67981 10.8905 8.3201 11.2888 8.22161C10.8905 8.32011 10.5953 8.67982 10.5953 9.10847V18.7441C10.5953 19.2486 11.0043 19.6576 11.5089 19.6576H16.4919C16.5698 19.6576 16.6453 19.6479 16.7175 19.6296ZM13.0171 10.0389C13.0658 10.029 13.1161 10.0237 13.1677 10.0237H14.8287C15.2415 10.0237 15.5762 10.3584 15.5762 10.7712C15.5762 11.1203 15.3368 11.4135 15.0133 11.4957C15.3369 11.4135 15.5762 11.1203 15.5762 10.7712C15.5762 10.3584 15.2416 10.0237 14.8288 10.0237H13.1678C13.1161 10.0237 13.0658 10.029 13.0171 10.0389Z" fill="#BABABA"/>
</svg>
