<svg width="28" height="28" viewBox="0 0 28 28" fill="none" xmlns="http://www.w3.org/2000/svg">
<rect width="28" height="28" rx="3" fill="#2D2D2D"/>
<path fill-rule="evenodd" clip-rule="evenodd" d="M19.5901 7.55177C20.6517 7.98252 21.4004 9.02387 21.4004 10.2401V15.0151C21.4004 16.6167 20.102 17.9151 18.5004 17.9151H14.9004V18.8452H17.5756C18.0726 18.8452 18.4756 19.2481 18.4756 19.7452C18.4756 20.2422 18.0726 20.6452 17.5756 20.6452H10.4256C9.92853 20.6452 9.52558 20.2422 9.52558 19.7452C9.52558 19.2481 9.92853 18.8452 10.4256 18.8452H13.1004V17.9151H10.3581L11.9833 16.1151H13.9921L14.0004 16.1151L14.0087 16.1151H18.5004C19.1079 16.1151 19.6004 15.6226 19.6004 15.0151V10.2401C19.6004 9.63258 19.1079 9.14009 18.5004 9.14009H18.2812L19.3765 7.92694C19.4775 7.81515 19.5485 7.68682 19.5901 7.55177ZM15.5865 9.14009L17.2118 7.34009H9.50039C7.89877 7.34009 6.60039 8.63846 6.60039 10.2401V15.0151C6.60039 16.0786 7.17283 17.0083 8.0264 17.5131L9.30439 16.0977C8.79039 16.0052 8.40039 15.5557 8.40039 15.0151V10.2401C8.40039 9.63257 8.89288 9.14009 9.50039 9.14009H15.5865Z" fill="#1E1E1E"/>
<path fill-rule="evenodd" clip-rule="evenodd" d="M21.1614 7.42657C21.5699 7.79829 21.5996 8.43076 21.2279 8.83921L10.4276 20.7066C10.0559 21.115 9.42342 21.1448 9.01496 20.7731C8.60651 20.4014 8.57673 19.7689 8.94846 19.3604L19.7488 7.49307C20.1205 7.08461 20.7529 7.05484 21.1614 7.42657Z" fill="#1E1E1E"/>
</svg>
