<svg width="28" height="28" viewBox="0 0 28 28" fill="none" xmlns="http://www.w3.org/2000/svg">
<rect width="28" height="28" rx="3" fill="#444444"/>
<path fill-rule="evenodd" clip-rule="evenodd" d="M21.4004 10.2401C21.4004 8.63846 20.102 7.34009 18.5004 7.34009H9.50039C7.89877 7.34009 6.60039 8.63846 6.60039 10.2401V15.0151C6.60039 16.6167 7.89876 17.9151 9.50039 17.9151H13.1004V18.8452H10.4256C9.92853 18.8452 9.52558 19.2481 9.52558 19.7452C9.52558 20.2422 9.92853 20.6452 10.4256 20.6452H17.5756C18.0726 20.6452 18.4756 20.2422 18.4756 19.7452C18.4756 19.2481 18.0726 18.8452 17.5756 18.8452H14.9004V17.9151H18.5004C20.102 17.9151 21.4004 16.6167 21.4004 15.0151V10.2401ZM13.9921 16.1151C13.9949 16.1151 13.9976 16.1151 14.0004 16.1151C14.0031 16.1151 14.0059 16.1151 14.0087 16.1151H18.5004C19.1079 16.1151 19.6004 15.6226 19.6004 15.0151V10.2401C19.6004 9.63258 19.1079 9.14009 18.5004 9.14009H9.50039C8.89288 9.14009 8.40039 9.63257 8.40039 10.2401V15.0151C8.40039 15.6226 8.89288 16.1151 9.50039 16.1151H13.9921Z" fill="#BABABA"/>
</svg>
