<svg width="28" height="28" viewBox="0 0 28 28" fill="none" xmlns="http://www.w3.org/2000/svg">
<rect width="28" height="28" rx="3" fill="#444444"/>
<path fill-rule="evenodd" clip-rule="evenodd" d="M17.1469 6.58318C16.9373 6.52889 16.7175 6.5 16.4909 6.5H11.5079C10.0673 6.5 8.89941 7.66785 8.89941 9.10847V15.6386L10.5943 13.7615V9.10849C10.5943 8.67981 10.8895 8.3201 11.2878 8.22161C10.8896 8.32011 10.5943 8.67982 10.5943 9.10847V13.7614L10.7943 13.5399V9.10847C10.7943 8.71439 11.1138 8.39492 11.5079 8.39492H15.4398L16.8921 6.78651C16.9063 6.77079 16.9209 6.75563 16.9358 6.74103C16.7916 6.7141 16.6429 6.70001 16.4909 6.70001H11.5078C11.3364 6.70001 11.1692 6.71792 11.008 6.75195C11.1692 6.71791 11.3365 6.7 11.5079 6.7H16.4909C16.6429 6.7 16.7916 6.71408 16.9358 6.74101C17.0003 6.678 17.0714 6.62535 17.1469 6.58318ZM18.6169 7.97582C18.7972 8.31344 18.8994 8.69903 18.8994 9.10849V18.7441C18.8994 19.7624 18.2674 20.633 17.3744 20.9854C18.2675 20.6331 18.8994 19.7624 18.8994 18.7441V9.10847C18.8994 8.69901 18.7972 8.31342 18.617 7.97579C18.6786 7.93138 18.7307 7.88808 18.774 7.84582C18.9814 8.21995 19.0994 8.65043 19.0994 9.10847V18.7441C19.0994 20.1847 17.9316 21.3525 16.4909 21.3525H11.5079C10.0673 21.3525 8.89941 20.1847 8.89941 18.7441V18.6229L10.5943 16.7458V18.7441C10.5943 19.2486 11.0033 19.6576 11.5078 19.6576H16.4909C16.5298 19.6576 16.5682 19.6552 16.6058 19.6505C16.5682 19.6552 16.5299 19.6576 16.4909 19.6576H11.5079C11.0033 19.6576 10.5943 19.2486 10.5943 18.7441V16.7458L10.7943 16.5243V18.7441C10.7943 19.1382 11.1138 19.4576 11.5079 19.4576H16.4909C16.885 19.4576 17.2045 19.1382 17.2045 18.7441V9.42489L18.3765 8.12683C18.4693 8.07508 18.549 8.02478 18.6169 7.97582ZM14.1497 9.82373H13.1668C12.6435 9.82373 12.2193 10.2479 12.2193 10.7712C12.2193 11.0842 12.3711 11.3618 12.6052 11.5344L13.9691 10.0237H13.1667C13.128 10.0237 13.09 10.0267 13.0529 10.0323C13.0901 10.0267 13.1281 10.0237 13.1668 10.0237H13.9692L14.1497 9.82373ZM15.7317 11.0561L15.2032 11.6414C15.4541 11.533 15.6488 11.3193 15.7317 11.0561Z" fill="#BABABA"/>
<path fill-rule="evenodd" clip-rule="evenodd" d="M20.1614 7.62652C20.5699 7.99825 20.5996 8.63071 20.2279 9.03917L9.42761 20.9065C9.05588 21.315 8.42342 21.3448 8.01496 20.973C7.60651 20.6013 7.57673 19.9688 7.94846 19.5604L18.7488 7.69302C19.1205 7.28456 19.7529 7.25479 20.1614 7.62652Z" fill="#BABABA"/>
</svg>
