<svg width="30" height="30" viewBox="0 0 30 30" fill="none" xmlns="http://www.w3.org/2000/svg">
<path fill-rule="evenodd" clip-rule="evenodd" d="M25.0908 9.87252C25.0908 7.68848 23.3203 5.91797 21.1363 5.91797H8.86355C6.67951 5.91797 4.909 7.68848 4.909 9.87251V16.3839C4.909 18.5679 6.67951 20.3384 8.86355 20.3384H13.7726V21.6067H10.1252C9.44737 21.6067 8.8979 22.1562 8.8979 22.834C8.8979 23.5118 9.44737 24.0612 10.1252 24.0612H19.8752C20.553 24.0612 21.1024 23.5118 21.1024 22.834C21.1024 22.1562 20.553 21.6067 19.8752 21.6067H16.2272V20.3384H21.1363C23.3203 20.3384 25.0908 18.5679 25.0908 16.3839V9.87252ZM14.9886 17.8839C14.9923 17.8838 14.9961 17.8838 14.9999 17.8838C15.0037 17.8838 15.0075 17.8838 15.0113 17.8839H21.1363C21.9647 17.8839 22.6363 17.2123 22.6363 16.3839V9.87252C22.6363 9.04409 21.9647 8.37251 21.1363 8.37251H8.86355C8.03512 8.37251 7.36355 9.04409 7.36355 9.87251V16.3839C7.36355 17.2123 8.03512 17.8839 8.86355 17.8839H14.9886Z" fill="#BABABA"/>
</svg>
