<svg width="30" height="30" viewBox="0 0 30 30" fill="none" xmlns="http://www.w3.org/2000/svg">
<path fill-rule="evenodd" clip-rule="evenodd" d="M11.6024 4.77246C9.63794 4.77246 8.04541 6.36499 8.04541 8.32947V21.4689C8.04541 23.4334 9.63794 25.0259 11.6024 25.0259H18.3975C20.362 25.0259 21.9545 23.4334 21.9545 21.4689V8.32947C21.9545 6.36499 20.362 4.77246 18.3975 4.77246H11.6024ZM10.6294 8.32947C10.6294 7.79208 11.065 7.35644 11.6024 7.35644H18.3975C18.9349 7.35644 19.3705 7.79208 19.3705 8.32947V21.4689C19.3705 22.0063 18.9349 22.442 18.3975 22.442H11.6024C11.065 22.442 10.6294 22.0063 10.6294 21.4689V8.32947ZM13.8645 9.30482C13.151 9.30482 12.5725 9.88326 12.5725 10.5968C12.5725 11.3104 13.151 11.8888 13.8645 11.8888H16.1296C16.8431 11.8888 17.4215 11.3104 17.4215 10.5968C17.4215 9.88326 16.8431 9.30482 16.1296 9.30482H13.8645ZM18.6968 5.05864C20.3701 5.21004 21.6813 6.61662 21.6813 8.32943V21.4689C21.6813 23.2827 20.2109 24.7532 18.397 24.7532H11.6019C11.501 24.7532 11.4012 24.7486 11.3027 24.7397C11.4014 24.7486 11.5014 24.7532 11.6024 24.7532H18.3975C20.2113 24.7532 21.6818 23.2828 21.6818 21.4689V8.32947C21.6818 6.6165 20.3704 5.20982 18.6968 5.05864ZM10.3567 8.32947C10.3567 7.64146 10.9144 7.08371 11.6024 7.08371H18.3975C18.4364 7.08371 18.4748 7.08549 18.5128 7.08898C18.4747 7.08546 18.4361 7.08366 18.397 7.08366H11.6019C10.9139 7.08366 10.3562 7.64141 10.3562 8.32943V21.4689C10.3562 22.118 10.8527 22.6512 11.4866 22.7094C10.8529 22.6509 10.3567 22.1179 10.3567 21.4689V8.32947ZM16.2239 9.58185C16.7424 9.62968 17.1483 10.0658 17.1483 10.5968C17.1483 11.1597 16.692 11.616 16.1291 11.616H13.864C13.8322 11.616 13.8008 11.6146 13.7697 11.6117C13.8009 11.6146 13.8326 11.6161 13.8645 11.6161H16.1296C16.6925 11.6161 17.1488 11.1597 17.1488 10.5968C17.1488 10.0657 16.7426 9.62945 16.2239 9.58185Z" fill="#BABABA"/>
</svg>
