<svg width="22" height="22" viewBox="0 0 22 22" fill="none" xmlns="http://www.w3.org/2000/svg">
<path d="M9 16H4C2.89543 16 2 15.1046 2 14V5C2 3.89543 2.89543 3 4 3H16.5C17.6046 3 18.5 3.89543 18.5 5V5.5" stroke="#1E1E1F" stroke-width="2" stroke-miterlimit="10" stroke-linecap="round"/>
<path d="M9 20H5.5" stroke="#1E1E1F" stroke-width="2" stroke-miterlimit="10" stroke-linecap="round"/>
<path d="M19 9H15C13.8954 9 13 9.89543 13 11V15V18C13 19.1046 13.8954 20 15 20H17H19C20.1046 20 21 19.1046 21 18V15V11C21 9.89543 20.1046 9 19 9Z" stroke="#1E1E1F" stroke-width="2"/>
</svg>
