<svg width="18" height="18" viewBox="0 0 18 18" fill="none" xmlns="http://www.w3.org/2000/svg">
<path fill-rule="evenodd" clip-rule="evenodd" d="M12.559 6.32789C12.559 7.04015 12.288 7.71727 11.796 8.23351L10.2809 9.74941V10.9506C10.2809 11.2669 10.0231 11.5238 9.70761 11.5238H9.13514C8.8204 11.5238 8.56267 11.2669 8.56267 10.9506V9.39406C8.56267 9.16601 8.65327 8.94733 8.81415 8.78645L10.5667 7.0339C10.7393 6.8535 10.8408 6.59733 10.8408 6.32789V6.1303C10.8408 5.55392 10.3722 5.08377 9.79508 5.08377H9.02346C8.44709 5.08377 7.97693 5.55392 7.97693 6.1303V6.57702C7.97693 6.89254 7.71998 7.15027 7.40446 7.15027H6.832C6.51726 7.15027 6.25953 6.89254 6.25953 6.57702V6.1303C6.25953 4.60502 7.49974 3.36559 9.02346 3.36559H9.79508C11.3196 3.36559 12.559 4.60502 12.559 6.1303V6.32789ZM10.2684 13.242C10.2684 13.5575 10.0106 13.8145 9.69511 13.8145H9.12264C8.80869 13.8145 8.55018 13.5575 8.55018 13.242V12.6695C8.55018 12.3548 8.80869 12.0963 9.12264 12.0963H9.69511C10.0106 12.0963 10.2684 12.3548 10.2684 12.6695V13.242ZM9.40927 -0.000488281C4.66396 -0.000488281 0.818359 3.8459 0.818359 8.59042C0.818359 13.3349 4.66396 17.1813 9.40927 17.1813C14.1538 17.1813 18.0002 13.3349 18.0002 8.59042C18.0002 3.8459 14.1538 -0.000488281 9.40927 -0.000488281Z" fill="#BABABA"/>
</svg>
