<svg width="22" height="22" viewBox="0 0 22 22" fill="none" xmlns="http://www.w3.org/2000/svg">
<path fill-rule="evenodd" clip-rule="evenodd" d="M8.50887 3.5C7.06824 3.5 5.90039 4.66785 5.90039 6.10847V15.7441C5.90039 17.1847 7.06824 18.3525 8.50887 18.3525H13.4919C14.9325 18.3525 16.1004 17.1847 16.1004 15.7441V6.10847C16.1004 4.66785 14.9325 3.5 13.4919 3.5H8.50887ZM7.79531 15.7441V6.10847C7.79531 5.71439 8.11478 5.39492 8.50887 5.39492H13.4919C13.886 5.39492 14.2055 5.71439 14.2055 6.10847V15.7441C14.2055 16.1382 13.886 16.4576 13.4919 16.4576H8.50887C8.11478 16.4576 7.79531 16.1382 7.79531 15.7441ZM10.1678 6.82373C9.64448 6.82373 9.22029 7.24792 9.22029 7.77119C9.22029 8.29445 9.64448 8.71865 10.1678 8.71865H11.8288C12.352 8.71865 12.7762 8.29445 12.7762 7.77119C12.7762 7.24792 12.352 6.82373 11.8288 6.82373H10.1678ZM14.0902 18.0776C15.1309 17.8116 15.9003 16.8677 15.9003 15.7441V6.10849C15.9003 4.77832 14.822 3.70001 13.4919 3.70001H8.50882C8.30748 3.70001 8.11192 3.72472 7.92499 3.77126C8.11193 3.72471 8.30751 3.7 8.50887 3.7H13.4919C14.8221 3.7 15.9004 4.77831 15.9004 6.10847V15.7441C15.9004 16.8677 15.1309 17.8116 14.0902 18.0776ZM13.7175 16.6296C13.6453 16.6479 13.5697 16.6576 13.4919 16.6576H8.50882C8.00427 16.6576 7.59526 16.2486 7.59526 15.7441V6.10849C7.59526 5.67981 7.89051 5.3201 8.28875 5.22161C7.89054 5.32011 7.59531 5.67982 7.59531 6.10847V15.7441C7.59531 16.2486 8.00432 16.6576 8.50887 16.6576H13.4919C13.5698 16.6576 13.6453 16.6479 13.7175 16.6296ZM10.0171 7.03892C10.0658 7.02897 10.1161 7.02374 10.1677 7.02374H11.8287C12.2415 7.02374 12.5762 7.35839 12.5762 7.7712C12.5762 8.12031 12.3368 8.41351 12.0133 8.49569C12.3369 8.41353 12.5762 8.12031 12.5762 7.77119C12.5762 7.35838 12.2416 7.02373 11.8288 7.02373H10.1678C10.1161 7.02373 10.0658 7.02896 10.0171 7.03892Z" fill="#BABABA"/>
</svg>
