<svg width="22" height="22" viewBox="0 0 22 22" fill="none" xmlns="http://www.w3.org/2000/svg">
<path fill-rule="evenodd" clip-rule="evenodd" d="M18.4004 7.24009C18.4004 5.63846 17.102 4.34009 15.5004 4.34009H6.50039C4.89877 4.34009 3.60039 5.63846 3.60039 7.24009V12.0151C3.60039 13.6167 4.89876 14.9151 6.50039 14.9151H10.1004V15.8452H7.42558C6.92853 15.8452 6.52558 16.2481 6.52558 16.7452C6.52558 17.2422 6.92853 17.6452 7.42558 17.6452H14.5756C15.0726 17.6452 15.4756 17.2422 15.4756 16.7452C15.4756 16.2481 15.0726 15.8452 14.5756 15.8452H11.9004V14.9151H15.5004C17.102 14.9151 18.4004 13.6167 18.4004 12.0151V7.24009ZM10.9921 13.1151C10.9949 13.1151 10.9976 13.1151 11.0004 13.1151C11.0031 13.1151 11.0059 13.1151 11.0087 13.1151H15.5004C16.1079 13.1151 16.6004 12.6226 16.6004 12.0151V7.24009C16.6004 6.63258 16.1079 6.14009 15.5004 6.14009H6.50039C5.89288 6.14009 5.40039 6.63257 5.40039 7.24009V12.0151C5.40039 12.6226 5.89288 13.1151 6.50039 13.1151H10.9921Z" fill="#BABABA"/>
</svg>
