<svg width="22" height="22" viewBox="0 0 22 22" fill="none" xmlns="http://www.w3.org/2000/svg">
<path fill-rule="evenodd" clip-rule="evenodd" d="M11.2226 3.44354C16.6604 -0.139568 23.2219 3.58665 21.754 9.9177C21.0169 13.2651 16.5838 18.0514 11.3738 20.4969C11.1574 20.5984 10.9071 20.5984 10.6907 20.4969C5.50471 18.063 1.07421 13.3027 0.247689 9.92776C-1.22152 3.5814 5.34194 -0.133567 10.8311 3.4416L11.0289 3.57382L11.2226 3.44354ZM20.1859 9.56327C21.3538 4.52602 15.9565 1.69996 11.5312 5.20307C11.2402 5.43335 10.8295 5.43461 10.5372 5.20613C6.05209 1.70051 0.646113 4.52057 1.81159 9.55523C2.48043 12.2861 6.25712 16.4295 10.7681 18.744L11.0314 18.8757L11.2982 18.743C15.7219 16.4722 19.4232 12.4478 20.1415 9.74544L20.1859 9.56327ZM14.0143 12.6125C14.2284 12.2578 14.1136 11.7973 13.7576 11.5838C13.4026 11.3712 12.9412 11.4856 12.7267 11.8393L12.6431 11.9669C12.2629 12.5029 11.6554 12.818 10.988 12.818C10.2695 12.818 9.62053 12.4529 9.24946 11.8395C9.03609 11.4849 8.57429 11.3709 8.21903 11.5847C7.86363 11.7975 7.74858 12.2584 7.96343 12.6126C8.59908 13.6637 9.7578 14.3161 10.9888 14.3161L11.1824 14.3116C12.3397 14.2471 13.4109 13.6089 14.0143 12.6125ZM7.76585 7.49997C8.29857 7.49997 8.73685 7.90331 8.78955 8.42061L8.79487 8.5255L8.78955 8.63039C8.73685 9.14769 8.29857 9.55103 7.76585 9.55103C7.1976 9.55103 6.73682 9.09212 6.73682 8.5255C6.73682 7.95888 7.1976 7.49997 7.76585 7.49997ZM15.2347 8.42061C15.182 7.90331 14.7437 7.49997 14.211 7.49997C13.6433 7.49997 13.182 7.95914 13.182 8.5255C13.182 9.09187 13.6433 9.55103 14.211 9.55103C14.7437 9.55103 15.182 9.14769 15.2347 8.63039L15.24 8.5255L15.2347 8.42061Z" fill="#BABABA"/>
</svg>
