<svg xmlns="http://www.w3.org/2000/svg" width="30" height="30" viewBox="0 0 30 30">
    <g fill="none" fill-rule="evenodd">
        <g>
            <g>
                <g>
                    <path d="M0 0H30V30H0z" transform="translate(-1390 -4625) translate(70 4385) translate(1320 240)"/>
                    <g fill="#FFF" fill-rule="nonzero">
                        <path d="M9.847 1.275c4.823-3.236 10.678.063 9.374 5.686-.631 2.869-4.37 6.979-8.818 9.187l-.367.178c-.19.092-.411.093-.602.003C4.84 14.174.915 9.957.186 6.98l-.048-.222C-.967 1.248 4.8-1.913 9.604 1.273l.123.084zm8.009 5.377c1.038-4.477-3.76-6.989-7.691-3.877-.254.2-.611.202-.866.003C5.315-.336.51 2.17 1.547 6.654l.053.194c.715 2.393 3.918 5.866 7.747 7.875l.383.195.396-.2c3.831-2.01 7.03-5.512 7.68-7.866zM12.172 8.38c.339.203.448.642.244.98-.537.888-1.488 1.46-2.517 1.528l-.207.006c-1.109 0-2.152-.587-2.725-1.534-.204-.337-.095-.777.244-.98.308-.185.7-.112.92.157l.062.086c.32.529.879.843 1.498.843.568 0 1.085-.264 1.414-.715l.084-.128c.205-.337.644-.446.983-.243zM6.835 4.834c.493 0 .9.37.956.847l.006.112-.006.112c-.056.477-.463.847-.956.847-.531 0-.962-.43-.962-.96s.43-.958.962-.958zm5.713 0c.493 0 .9.37.955.847l.007.112-.007.112c-.055.477-.462.847-.955.847-.53 0-.962-.43-.962-.96 0-.529.431-.958.962-.958z" transform="translate(-1390 -4625) translate(70 4385) translate(1320 240) translate(5.298 6.804)"/>
                    </g>
                </g>
            </g>
        </g>
    </g>
</svg>
