<svg width="22" height="22" viewBox="0 0 22 22" xmlns="http://www.w3.org/2000/svg">
    <path d="M13 4a.75.75 0 1 1 0 1.5H6a2.5 2.5 0 0 0-2.495 2.336L3.5 8v6a2.5 2.5 0 0 0 2.336 2.495L6 16.5h8a2.5 2.5 0 0 0 2.495-2.336L16.5 14l.007-.102A.75.75 0 0 1 18 14a4 4 0 0 1-4 4H6a4 4 0 0 1-4-4V8a4 4 0 0 1 4-4zm6.169.532a.9.9 0 0 1 .107 1.269l-6.03 7.136-.053.048-.1.073-.106.058-.086.034-.105.028-.124.017h-.107l-.064-.005-.107-.02-.083-.025-.088-.036-.097-.055-.061-.043-.092-.08-2.882-2.912a.9.9 0 0 1 1.187-1.347l.092.08 2.191 2.21 5.34-6.323a.9.9 0 0 1 1.268-.107z" fill="#BABABA" fill-rule="nonzero"/>
</svg>
