<svg width="90" height="90" viewBox="0 0 90 90" xmlns="http://www.w3.org/2000/svg">
    <path d="M18.058 51.784c-9.294-9.295-9.294-24.416 0-33.709 4.504-4.506 10.494-6.983 16.86-6.983 6.368 0 12.358 2.477 16.863 6.983 9.293 9.29 9.293 24.412 0 33.71a23.71 23.71 0 0 1-16.865 6.98c-6.369 0-12.354-2.48-16.858-6.98zM85 80.692 58.132 53.828c9.578-11.746 8.897-29.122-2.044-40.06C50.431 8.115 42.916 5 34.918 5c-7.996 0-15.512 3.114-21.167 8.769-11.668 11.665-11.668 30.65 0 42.322 5.652 5.652 13.17 8.766 21.165 8.766 6.974 0 13.579-2.371 18.907-6.722L80.693 85 85 80.692z" fill="#666" fill-rule="evenodd"/>
</svg>
