<svg width="22" height="22" viewBox="0 0 22 22" xmlns="http://www.w3.org/2000/svg">
    <path d="M16.263 7.886c.267 0 .483.216.483.483v7.588a2.546 2.546 0 0 1-2.543 2.543H7.797a2.547 2.547 0 0 1-2.543-2.543V8.369a.482.482 0 1 1 .966 0v7.588c0 .87.707 1.578 1.577 1.578h6.406a1.58 1.58 0 0 0 1.578-1.578V8.369c0-.267.216-.483.482-.483zm-6.535 1.36v6.14a.482.482 0 1 1-.966 0v-6.14a.484.484 0 0 1 .966 0zm3.51 0v6.14a.483.483 0 0 1-.966 0v-6.14a.483.483 0 1 1 .966 0zM3.983 6.22a.482.482 0 1 1 0-.965h6.534V3.983a.482.482 0 1 1 .965 0v1.271h6.536a.482.482 0 1 1-.001.966H3.983z" fill="#1E1E1E" fill-rule="nonzero" stroke="#1E1E1E" stroke-width=".5"/>
</svg>
