<svg width="28" height="28" viewBox="0 0 28 28" fill="none" xmlns="http://www.w3.org/2000/svg">
<path fill-rule="evenodd" clip-rule="evenodd" d="M14.0004 6C13.3929 6 12.9004 6.49249 12.9004 7.1V12.9004H7.1C6.49249 12.9004 6 13.3929 6 14.0004C6 14.6079 6.49249 15.1004 7.1 15.1004H12.9004V20.9C12.9004 21.5075 13.3929 22 14.0004 22C14.6079 22 15.1004 21.5075 15.1004 20.9V15.1004H20.9C21.5075 15.1004 22 14.6079 22 14.0004C22 13.3929 21.5075 12.9004 20.9 12.9004H15.1004V7.1C15.1004 6.49249 14.6079 6 14.0004 6Z" fill="white"/>
</svg>
