<svg width="90" height="33" viewBox="0 0 90 33" fill="none" xmlns="http://www.w3.org/2000/svg">
<path d="M13.6029 8.06992C12.171 8.66963 10.5951 10.364 10.0975 12.4907C9.46746 15.1854 12.0892 16.3249 12.3042 15.9512C12.5573 15.5122 11.8344 15.3637 11.6855 13.9656C11.4932 12.1599 12.3327 10.1421 13.3892 9.25677C13.5856 9.09238 13.5763 9.3213 13.5763 9.74467L13.5345 18.7185C13.5345 20.6383 13.4552 21.2446 13.3128 21.8435C13.1685 22.4505 12.9365 22.8608 13.1123 23.0187C13.3087 23.1955 14.1473 22.775 14.6326 22.0975C15.2147 21.285 15.4183 20.3092 15.455 19.2495C15.4992 17.972 15.4974 15.945 15.4992 14.7886L15.4815 8.75624C15.4727 8.2984 14.2028 7.81802 13.6035 8.06904M64.481 17.0538C64.4347 18.0518 64.2139 18.8318 63.9397 19.3821C63.4089 20.4473 62.3075 20.7781 61.8398 19.2469C61.585 18.4122 61.5731 17.0181 61.7563 15.8533C61.9419 14.6667 62.4636 13.7705 63.326 13.8514C64.1766 13.9313 64.5748 15.0272 64.4811 17.0539L64.481 17.0538ZM50.1409 23.246C50.1294 24.9043 49.8684 26.3583 49.3087 26.7815C48.515 27.3803 47.448 26.9311 47.669 25.721C47.8645 24.6502 48.7888 23.5567 50.1431 22.2206L50.1409 23.2469L50.1409 23.246ZM49.924 17.0444C49.8754 17.9534 49.6399 18.8666 49.3828 19.3826C48.8521 20.4478 47.7427 20.7808 47.2829 19.2473C46.9685 18.1995 47.0438 16.8434 47.1994 15.989C47.4012 14.8803 47.8905 13.8518 48.7691 13.8518C49.6233 13.8518 50.0445 14.789 49.9241 17.0445L49.924 17.0444ZM41.6172 17.0305C41.5651 17.9932 41.3774 18.7981 41.076 19.3825C40.5306 20.4405 39.4519 20.7759 38.9761 19.2472C38.6331 18.1449 38.7498 16.6419 38.8926 15.83C39.1043 14.6251 39.6345 13.7708 40.4623 13.8519C41.3126 13.935 41.7259 15.0277 41.6173 17.0307L41.6172 17.0305ZM79.6857 18.155C79.4778 18.155 79.383 18.3692 79.3046 18.7298C79.0323 19.9838 78.7463 20.2677 78.3765 20.2677C77.9644 20.2677 77.594 19.6468 77.4988 18.4039C77.4241 17.4267 77.4361 15.6274 77.5317 13.8377C77.5512 13.47 77.4498 13.1061 76.4635 12.7479C76.0391 12.5937 75.4221 12.3669 75.115 13.1083C74.247 15.203 73.9076 16.8662 73.8276 17.5417C73.8235 17.5767 73.7806 17.5838 73.7731 17.5021C73.7222 16.961 73.6084 15.9777 73.5942 13.9117C73.5916 13.5087 73.5061 13.1656 73.0612 12.8847C72.7726 12.7024 71.896 12.38 71.5803 12.7636C71.3069 13.0774 70.9902 13.9214 70.6611 14.922L70.2073 16.2853L70.2141 13.2587C70.2155 12.9447 70.0002 12.8401 69.9352 12.8212C69.6429 12.7364 69.067 12.5946 68.8215 12.5946C68.5199 12.5946 68.4461 12.7632 68.4461 13.0089L68.3983 17.8955L68.3992 18.1774C68.2323 19.0956 67.6912 20.342 67.1029 20.342C66.5138 20.342 66.2367 19.821 66.2367 17.4394C66.2367 16.0501 66.2784 15.446 66.2989 14.4413L66.3325 13.3172C66.3281 13.0079 65.7933 12.8521 65.5444 12.7944C65.2943 12.7364 65.0771 12.7138 64.9074 12.7235C64.6673 12.737 64.4973 12.8946 64.4973 13.1112L64.4987 13.4483C64.1893 12.9622 63.692 12.624 63.3609 12.526C62.4695 12.2613 61.5393 12.496 60.8375 13.4777C60.2798 14.2578 59.9437 15.1414 59.8122 16.4108C59.7155 17.3389 59.7471 18.28 59.919 19.076C59.7113 19.974 59.3257 20.342 58.9035 20.342C58.2904 20.342 57.846 19.3415 57.8976 17.6109C57.9316 16.4726 58.1594 15.6738 58.4085 14.5182C58.5146 14.0256 58.4284 13.7677 58.2121 13.5205C58.0137 13.2938 57.5909 13.178 56.9832 13.3205C56.5503 13.4222 55.9314 13.5313 55.3651 13.6152C55.3651 13.6152 55.3993 13.4789 55.4273 13.2385C55.5746 11.9781 54.2049 12.0803 53.7679 12.4828C53.5071 12.7232 53.3295 13.0066 53.262 13.5164C53.1551 14.3253 53.8149 14.7068 53.8149 14.7068C53.5983 15.6967 53.0678 16.9919 52.52 17.9275C52.2266 18.4289 52.0021 18.8005 51.7124 19.1954L51.7101 18.7549L51.7434 14.4417L51.7772 13.3294C51.774 13.1032 51.6418 13.0178 51.3671 12.9096C51.1241 12.814 50.8368 12.7477 50.5389 12.7246C50.1629 12.6953 49.9361 12.8947 49.9422 13.1307C49.9433 13.1752 49.9433 13.4487 49.9433 13.4487C49.634 12.9625 49.1365 12.6244 48.8056 12.5264C47.9141 12.2617 46.984 12.4963 46.2822 13.478C45.7246 14.2581 45.3594 15.3529 45.2569 16.4015C45.1597 17.3788 45.1782 18.2094 45.3097 18.909C45.1679 19.6096 44.7603 20.3423 44.2996 20.3423C43.7105 20.3423 43.3752 19.8212 43.3752 17.4397C43.3752 16.0504 43.417 15.4463 43.4375 14.4416L43.4711 13.3175C43.4666 13.0081 42.9319 12.8523 42.683 12.7946C42.4226 12.7345 42.1969 12.7122 42.0251 12.725C41.7974 12.7419 41.6371 12.9459 41.6371 13.0979V13.4485C41.3278 12.9624 40.8304 12.6242 40.4994 12.5262C39.608 12.2616 38.6829 12.4999 37.976 13.4778C37.5151 14.1155 37.1419 14.8225 36.9507 16.3875C36.8952 16.8398 36.8707 17.2632 36.8738 17.6591C36.69 18.7832 35.8782 20.0788 35.2141 20.0788C34.8255 20.0788 34.4554 19.325 34.4554 17.7187C34.4554 15.5789 34.5878 12.5325 34.6102 12.2387L35.6117 12.2226C36.0302 12.218 36.4093 12.2279 36.9666 12.1993C37.2462 12.1852 37.5155 11.1816 37.227 11.0574C37.0962 11.0012 36.1719 10.9519 35.8054 10.9442C35.4973 10.9372 34.6396 10.8738 34.6396 10.8738L34.7344 8.63807C34.7496 8.46006 34.5193 8.36849 34.3871 8.31281C34.0659 8.17696 33.7785 8.11191 33.4378 8.04173C32.9672 7.94468 32.7537 8.03961 32.712 8.43682C32.6501 9.03961 32.6165 10.8052 32.6165 10.8052C32.2712 10.8052 31.0915 10.7377 30.7461 10.7377C30.4252 10.7377 30.0788 12.118 30.5225 12.1351L32.5126 12.1899L32.4874 16.5373C32.1627 18.2293 31.0193 19.1433 31.0193 19.1433C31.2648 18.024 30.7632 17.1834 29.8597 16.4718C29.5268 16.2096 28.8697 15.7132 28.1344 15.1693C28.1344 15.1693 28.5602 14.7496 28.9387 13.9054C29.2062 13.3072 29.2178 12.6229 28.5611 12.4719C27.4759 12.2224 26.5812 13.0193 26.3143 13.8702C26.1075 14.5293 26.2178 15.0183 26.6228 15.5265C26.6524 15.5637 26.6844 15.6017 26.7175 15.6397C26.4725 16.1118 26.136 16.7475 25.8511 17.2403C25.06 18.609 24.4624 19.6916 24.0109 19.6916C23.6498 19.6916 23.6547 18.5925 23.6547 17.5634C23.6547 16.6763 23.7201 15.3425 23.7725 13.9617C23.7898 13.505 23.5614 13.2448 23.1785 13.0091C22.9461 12.8659 22.4495 12.5845 22.1621 12.5845C21.7317 12.5845 20.4903 12.643 19.3172 16.0363C19.1694 16.4641 18.8788 17.2434 18.8788 17.2434L18.9038 13.1628C18.9038 13.0672 18.8529 12.9746 18.7362 12.9114C18.5385 12.8041 18.0114 12.5845 17.5412 12.5845C17.3176 12.5845 17.2059 12.6885 17.2059 12.8959L17.1649 19.28C17.1649 19.7651 17.1776 20.3318 17.2256 20.5784C17.2736 20.825 17.3507 21.0278 17.4465 21.1476C17.5423 21.2675 17.653 21.3587 17.8356 21.3964C18.0056 21.4314 18.936 21.5509 18.9844 21.1953C19.0424 20.7693 19.0445 20.3081 19.5333 18.5891C20.294 15.9128 21.2858 14.6069 21.752 14.1431C21.8335 14.0621 21.9266 14.0572 21.9221 14.19L21.7851 17.4885C21.6587 20.822 22.2653 21.4399 23.1319 21.4399C23.7948 21.4399 24.7295 20.7812 25.7304 19.1136L27.3972 16.321L28.3821 17.2279C29.1734 17.9789 29.4332 18.6926 29.2608 19.3695C29.129 19.8871 28.6324 20.4213 27.7488 19.902C27.4913 19.7509 27.3813 19.6339 27.1223 19.4633C26.9832 19.3718 26.7707 19.3444 26.6433 19.4404C26.3125 19.6898 26.1232 20.0071 26.0151 20.4C25.9099 20.7822 26.2928 20.9842 26.6897 21.1601C27.0314 21.3121 27.7658 21.45 28.2342 21.4657C30.0591 21.5276 31.5209 20.5845 32.5386 18.1543C32.7206 20.2532 33.496 21.4409 34.843 21.4409C35.7436 21.4409 36.6464 20.2769 37.0411 19.1317C37.1544 19.5984 37.3222 20.0044 37.5389 20.3477C38.5768 21.9922 40.5904 21.6381 41.6018 20.2418C41.9145 19.8103 41.9621 19.6552 41.9621 19.6552C42.1097 20.9738 43.1715 21.4344 43.7793 21.4344C44.4603 21.4344 45.1633 21.1125 45.656 20.0032C45.7138 20.1236 45.7768 20.2386 45.8456 20.3476C46.8836 21.9921 48.8971 21.638 49.9085 20.2417C49.9512 20.183 49.993 20.1235 50.0337 20.0634L50.0634 20.9296L49.1323 21.7836C47.5734 23.2137 46.3881 24.2988 46.3009 25.5623C46.189 27.1736 47.4956 27.7723 48.4842 27.8507C49.5341 27.934 50.4331 27.3539 50.9856 26.5425C51.4717 25.8282 51.7897 24.2906 51.7664 22.7722L51.7297 20.5622C52.2777 19.9258 52.8949 19.1217 53.4633 18.1804C54.0827 17.1546 54.7467 15.777 55.0864 14.7049C55.0864 14.7049 55.6631 14.7098 56.2787 14.6695C56.4757 14.6567 56.5321 14.6969 56.4958 14.8412C56.4519 15.0156 55.7182 17.8454 56.3877 19.7307C56.8461 21.0212 57.8792 21.4366 58.4918 21.4366C59.2089 21.4366 59.8949 20.895 60.2625 20.0909C60.3067 20.1805 60.3531 20.2673 60.4036 20.3474C61.4416 21.9919 63.448 21.6358 64.4665 20.2415C64.6963 19.9268 64.8268 19.655 64.8268 19.655C65.0454 21.0197 66.1067 21.4413 66.7145 21.4413C67.3477 21.4413 67.9486 21.1817 68.4363 20.028C68.4566 20.5359 68.4887 20.9512 68.5393 21.0821C68.5703 21.1622 68.7501 21.2627 68.881 21.3113C69.4602 21.5261 70.051 21.4245 70.2687 21.3803C70.4201 21.3496 70.5383 21.2282 70.5542 20.9145C70.5966 20.0909 70.5705 18.7071 70.8193 17.6787C71.2385 15.9527 71.6294 15.2834 71.8148 14.9519C71.9186 14.7663 72.0358 14.7356 72.04 14.9321C72.0489 15.3299 72.0686 16.4975 72.2309 18.0666C72.3503 19.2205 72.5094 19.9025 72.6319 20.1184C72.9813 20.7357 73.4127 20.7649 73.7632 20.7649C73.9868 20.7649 74.4541 20.7031 74.4123 20.3104C74.392 20.1189 74.4276 18.9356 74.8408 17.2352C75.1107 16.1248 75.5605 15.1216 75.7227 14.7547C75.7826 14.6195 75.8104 14.7261 75.8093 14.7468C75.7751 15.5115 75.6985 18.0127 76.01 19.3806C76.4323 21.2338 77.654 21.4412 78.0795 21.4412C78.9883 21.4412 79.7315 20.75 79.982 18.931C80.0423 18.4932 79.953 18.1552 79.6854 18.1552" fill="#BABABA"/>
</svg>
