<svg width="90" height="33" viewBox="0 0 90 33" fill="none" xmlns="http://www.w3.org/2000/svg">
<path fill-rule="evenodd" clip-rule="evenodd" d="M10.7729 21.1526C11.8024 21.1526 12.6366 20.998 13.2754 20.6887V18.8882C12.6366 19.2625 11.9326 19.4497 11.1636 19.4497C10.3579 19.4497 9.71704 19.1984 9.24097 18.6959C8.76489 18.1934 8.52686 17.519 8.52686 16.6726C8.52686 15.7896 8.77913 15.0898 9.28369 14.573C9.78825 14.0562 10.4515 13.7979 11.2734 13.7979C12.0221 13.7979 12.6895 13.9728 13.2754 14.3228V12.4246C12.6895 12.2089 11.9692 12.1011 11.1147 12.1011C9.73535 12.1011 8.61332 12.5365 7.74866 13.4072C6.88399 14.278 6.45166 15.4132 6.45166 16.813C6.45166 18.1273 6.83618 19.1791 7.60522 19.9685C8.37427 20.7579 9.43018 21.1526 10.7729 21.1526ZM16.6873 21.1526C17.4848 21.1526 18.1216 20.7843 18.5977 20.0479H18.6282V21H20.5508V14.75H18.6282V18.3267C18.6282 18.7417 18.5244 19.0703 18.3169 19.3124C18.1094 19.5545 17.8327 19.6755 17.4868 19.6755C16.7869 19.6755 16.437 19.234 16.437 18.3511V14.75H14.5144V18.522C14.5144 20.2757 15.2387 21.1526 16.6873 21.1526ZM24.7592 21.0397C24.4113 21.1149 24.0501 21.1526 23.6758 21.1526C22.9881 21.1526 22.3513 21.0468 21.7654 20.8352V19.2727C22.0828 19.4639 22.3991 19.6064 22.7145 19.7C23.0298 19.7935 23.3279 19.8403 23.6086 19.8403C23.9504 19.8403 24.22 19.7935 24.4174 19.7C24.6147 19.6064 24.7134 19.4639 24.7134 19.2727C24.7134 19.1506 24.6686 19.0489 24.5791 18.9675C24.4896 18.8861 24.3746 18.8149 24.2343 18.7539C24.0939 18.6929 23.9403 18.6379 23.7734 18.5891C23.6066 18.5403 23.4459 18.4854 23.2913 18.4243C23.0431 18.3307 22.8243 18.23 22.6351 18.1222C22.4459 18.0144 22.2872 17.8892 22.1591 17.7468C22.0309 17.6044 21.9332 17.4396 21.8661 17.2524C21.799 17.0653 21.7654 16.8435 21.7654 16.5872C21.7654 16.2372 21.8417 15.9361 21.9943 15.6838C22.1469 15.4316 22.3503 15.2251 22.6046 15.0643C22.8589 14.9036 23.1499 14.7856 23.4774 14.7103C23.805 14.6351 24.1458 14.5974 24.4998 14.5974C24.7764 14.5974 25.0572 14.6188 25.342 14.6615C25.6269 14.7042 25.9076 14.7663 26.1843 14.8477V16.3369C25.9402 16.1945 25.6788 16.0877 25.4 16.0165C25.1213 15.9453 24.8477 15.9097 24.5791 15.9097C24.453 15.9097 24.3339 15.9209 24.222 15.9432C24.1101 15.9656 24.0115 15.9982 23.926 16.0409C23.8406 16.0836 23.7734 16.1385 23.7246 16.2057C23.6758 16.2728 23.6514 16.3491 23.6514 16.4346C23.6514 16.5485 23.688 16.6462 23.7612 16.7275C23.8345 16.8089 23.9301 16.8791 24.0481 16.9381C24.1661 16.9971 24.2973 17.05 24.4418 17.0968C24.5862 17.1436 24.7297 17.1914 24.8721 17.2402C25.1284 17.3298 25.3604 17.4274 25.5679 17.5332C25.7754 17.639 25.9534 17.7631 26.1019 17.9055C26.2504 18.0479 26.3644 18.2148 26.4437 18.406C26.5231 18.5972 26.5627 18.8251 26.5627 19.0896C26.5627 19.4599 26.4824 19.7762 26.3217 20.0387C26.1609 20.3011 25.9473 20.5148 25.6808 20.6796C25.4143 20.8444 25.1071 20.9644 24.7592 21.0397ZM30.1638 21.1526C30.7375 21.1526 31.1668 21.0773 31.4517 20.9268V19.4985C31.236 19.6165 31.0264 19.6755 30.823 19.6755C30.3062 19.6755 30.0479 19.35 30.0479 18.699V16.1721H31.4517V14.75H30.0479V12.8518L28.1252 13.4011V14.75H27.1121V16.1721H28.1252V19.0347C28.1252 20.4466 28.8048 21.1526 30.1638 21.1526ZM37.9672 20.2493C37.3588 20.8515 36.5257 21.1526 35.4678 21.1526C34.4261 21.1526 33.6072 20.8606 33.0111 20.2767C32.415 19.6928 32.1169 18.9004 32.1169 17.8994C32.1169 16.8659 32.4262 16.0572 33.0447 15.4733C33.6632 14.8894 34.4993 14.5974 35.5532 14.5974C36.5908 14.5974 37.4046 14.8894 37.9946 15.4733C38.5846 16.0572 38.8796 16.8293 38.8796 17.7896C38.8796 18.8271 38.5755 19.6471 37.9672 20.2493ZM35.5288 19.6755C34.5604 19.6755 34.0762 19.0754 34.0762 17.875C34.0762 17.3013 34.2023 16.8577 34.4546 16.5444C34.7069 16.2311 35.0609 16.0745 35.5166 16.0745C36.4484 16.0745 36.9143 16.6584 36.9143 17.8262C36.9143 19.0591 36.4525 19.6755 35.5288 19.6755ZM42.0596 17.5271V21H40.1309V14.75H42.0596V15.7266H42.084C42.2834 15.3929 42.5631 15.1213 42.9232 14.9117C43.2833 14.7022 43.677 14.5974 44.1042 14.5974C44.9872 14.5974 45.5915 14.986 45.917 15.7632C46.3931 14.986 47.0929 14.5974 48.0166 14.5974C49.3757 14.5974 50.0552 15.4356 50.0552 17.1121V21H48.1326V17.4355C48.1326 16.5282 47.7989 16.0745 47.1316 16.0745C46.8142 16.0745 46.5558 16.2108 46.3564 16.4834C46.1571 16.756 46.0574 17.0958 46.0574 17.5027V21H44.1287V17.3989C44.1287 16.516 43.8011 16.0745 43.146 16.0745C42.8164 16.0745 42.5529 16.2047 42.3556 16.4651C42.1582 16.7255 42.0596 17.0795 42.0596 17.5271ZM57.1902 21V17.6492H57.7212C57.8433 17.6492 57.9562 17.6746 58.0599 17.7255C58.1637 17.7763 58.2634 17.8496 58.359 17.9452C58.4546 18.0408 58.5492 18.1558 58.6428 18.29C58.7364 18.4243 58.8341 18.5769 58.9358 18.7478L60.2969 21H62.5613L60.9072 18.4121C60.8218 18.2778 60.7272 18.1405 60.6234 18.0001C60.5197 17.8597 60.4108 17.7285 60.2969 17.6064C60.1829 17.4844 60.0649 17.3776 59.9429 17.286C59.8208 17.1945 59.6947 17.1283 59.5645 17.0876V17.0632C59.8615 16.9778 60.1311 16.8598 60.3732 16.7092C60.6153 16.5587 60.8218 16.3796 60.9927 16.1721C61.1636 15.9646 61.2958 15.7316 61.3894 15.4733C61.483 15.2149 61.5298 14.9331 61.5298 14.6279C61.5298 13.041 60.4678 12.2476 58.3438 12.2476H55.2188V21H57.1902ZM57.1902 16.1599H58.0447C58.4679 16.1599 58.8076 16.0378 59.064 15.7937C59.3244 15.5455 59.4546 15.2383 59.4546 14.8721C59.4546 14.1071 58.9968 13.7246 58.0813 13.7246H57.1902V16.1599ZM66.7788 21V13.8528H69.2751V12.2476H62.3171V13.8528H64.8013V21H66.7788ZM72.2292 16.1599V21H70.4531V12.2476H73.3401L75.1284 17.4355C75.2708 17.8506 75.3746 18.2677 75.4397 18.6868H75.4763C75.5862 18.2026 75.7021 17.7814 75.8242 17.4233L77.6125 12.2476H80.4263V21H78.4792V15.7632C78.4792 15.1976 78.5037 14.573 78.5525 13.8894H78.5037C78.4019 14.4265 78.3104 14.8131 78.229 15.0491L76.1782 21H74.5669L72.4795 15.1101C72.4225 14.9514 72.331 14.5445 72.2048 13.8894H72.1499C72.2028 14.752 72.2292 15.5089 72.2292 16.1599ZM84.3875 21V17.9849H85.3274C86.3853 17.9849 87.2307 17.7133 87.8634 17.17C88.4961 16.6268 88.8125 15.9158 88.8125 15.0369C88.8125 13.1773 87.7098 12.2476 85.5044 12.2476H82.416V21H84.3875ZM84.3875 16.4895H85.1626C86.2124 16.4895 86.7373 16.0297 86.7373 15.1101C86.7373 14.2109 86.2124 13.7612 85.1626 13.7612H84.3875V16.4895Z" fill="#A8A8A8"/>
</svg>
