<svg width="90" height="33" viewBox="0 0 90 33" fill="none" xmlns="http://www.w3.org/2000/svg">
<path d="M32.4344 10.7869L30.5943 21.2131H34.2787L36.1189 10.7869H32.4344Z" fill="#BABABA"/>
<path d="M37.3893 10.7869L36.8975 13.5738H41.3893L35.5492 21.2131H39.7418L42.9221 17.0533L42.1885 21.2131H45.873L46.791 16H43.7254L47.7131 10.7869H37.3893Z" fill="#BABABA"/>
<path d="M31.1598 10.7869H26.9713L29.1025 8H24.9139L20.9262 13.2131H25.1189L19 21.2131H23.1885L26.373 17.0533L25.6393 21.2131H29.3238L30.2418 16H27.1762L31.1598 10.7869Z" fill="#BABABA"/>
<path d="M48.9836 10.7869L47.1434 21.2131H50.8279L52.668 10.7869H48.9836Z" fill="#BABABA"/>
<path d="M53.9385 10.7869L53.4467 13.5738H57.918L52.1025 21.2131H56.291L59.4344 17.0861L58.7049 21.2131H62.3934L63.3115 16H60.2582L64.2295 10.7869H53.9385Z" fill="#BABABA"/>
<path d="M67.7951 18.4262L69.1434 10.7869H65.4549L63.6189 21.2131H66L65.5123 24H69.1967L70.1803 18.4262H67.7951Z" fill="#BABABA"/>
</svg>
