<svg width="90" height="33" viewBox="0 0 90 33" fill="none" xmlns="http://www.w3.org/2000/svg">
<path fill-rule="evenodd" clip-rule="evenodd" d="M23 9H27.8214V12.1764H29.4286V10.5882H31.0357V9H35.8572V13.7647H34.25V15.3529H32.6429V16.9411H34.25V18.5293H35.8572V23.294H31.0357V21.7058H29.4286V20.1175H27.8214V23.294H23V9ZM55.1429 9H59.9643V12.1764H61.5714V10.5882H63.1786V9H68V13.7647H66.3929V15.3529H64.7857V16.9411H66.3929V18.5293H68V23.294H63.1786V21.7058H61.5714V20.1175H59.9643V23.294H55.1429V9ZM37.4643 9H42.2857V23.294H37.4643V9ZM48.7143 9H45.5V10.5882H43.8928V21.7058H45.5V23.294H48.7143H53.5357V18.5293H48.7143V13.7647H53.5357V9H48.7143Z" fill="#BABABA"/>
</svg>
