<svg width="90" height="33" viewBox="0 0 90 33" fill="none" xmlns="http://www.w3.org/2000/svg">
<path fill-rule="evenodd" clip-rule="evenodd" d="M53.1863 11.4292C52.5805 11.4292 52.1065 11.9206 52.1065 12.5462V18.5294L48.6792 12.3536C48.3428 11.7667 47.789 11.4571 47.1564 11.4571C46.1823 11.4571 45.5029 12.1715 45.5029 13.194V20.6439C45.5029 21.2562 46.0045 21.7742 46.5966 21.7742C47.1945 21.7742 47.6629 21.2782 47.6629 20.6439V14.4792L51.2009 20.8223C51.6388 21.586 52.306 21.7461 52.7534 21.7461C53.6149 21.7461 54.2665 21.0548 54.2665 20.1366V12.5462C54.2665 11.9206 53.7915 11.4292 53.1863 11.4292ZM61.9116 17.2124C61.8108 18.7579 60.9563 19.5405 59.375 19.5405H57.8582V13.6351H59.375C61.0033 13.6351 61.8374 14.4334 61.9252 16.0723C61.941 16.4514 61.9368 16.8675 61.9116 17.2124ZM59.3333 11.4852H57.197C56.2786 11.4852 55.6848 12.0678 55.6848 12.9684V20.1934C55.6848 21.0746 56.3064 21.6899 57.197 21.6899H59.3333C62.2133 21.6899 63.9059 20.1316 64.0983 17.2998C64.1196 16.9436 64.1333 16.3873 64.0829 15.7623C63.8943 13.0044 62.2076 11.4852 59.3333 11.4852ZM38.775 16.8651L39.8632 13.6663C39.8702 13.6457 39.8957 13.5785 39.976 13.5785C40.0265 13.5785 40.0609 13.6223 40.0756 13.6731L41.1476 16.8651H38.775ZM41.9555 12.7971C41.6217 11.8741 40.901 11.3449 39.976 11.3449C39.0592 11.3449 38.3435 11.8741 38.0106 12.7971L35.3572 20.2339C35.1577 20.8053 35.4358 21.4558 35.9624 21.6526C36.0881 21.7031 36.221 21.7291 36.3558 21.7291C36.799 21.7291 37.2083 21.448 37.3762 21.0246L38.1147 18.845H41.8228L42.5599 21.0246C42.7011 21.4388 43.106 21.7171 43.5686 21.7171C43.709 21.7171 43.846 21.6908 43.9727 21.639C44.4935 21.4388 44.7766 20.7806 44.5799 20.2339L41.9555 12.7971ZM31.202 19.5824H28.9035V17.4513H31.2295C31.7821 17.4513 32.4405 17.6363 32.4405 18.5167C32.4405 19.2439 32.0464 19.5824 31.202 19.5824ZM28.9035 13.6209H31.0623C31.8516 13.6209 32.1889 13.8971 32.1889 14.5461C32.1889 15.1873 31.8205 15.4992 31.0623 15.4992H28.9035V13.6209ZM33.3053 16.3793C33.9984 15.9398 34.3615 15.2095 34.3615 14.2502C34.3615 12.9183 33.429 11.4852 31.384 11.4852H28.2426C27.3524 11.4852 26.7304 12.1067 26.7304 12.9967V20.1934C26.7304 21.0885 27.3375 21.6899 28.2426 21.6899H31.4257C33.4296 21.6899 34.627 20.5675 34.627 18.6857C34.627 17.6082 34.1381 16.7647 33.3053 16.3793ZM60.9793 24.323H29.0199C24.7952 24.323 21.3583 20.8674 21.3583 16.6199C21.3583 12.3222 24.7952 8.82667 29.0199 8.82667H60.9793C65.204 8.82667 68.642 12.3222 68.642 16.6199C68.642 20.8674 65.204 24.323 60.9793 24.323ZM61.1869 7.57495H28.8132C23.9536 7.57495 20 11.6324 20 16.6199C20 21.6411 23.8715 25.575 28.8132 25.575H61.1869C66.1283 25.575 70 21.6411 70 16.6199C70 11.6324 66.0463 7.57495 61.1869 7.57495Z" fill="#BABABA"/>
</svg>
