<svg width="90" height="33" viewBox="0 0 90 33" xmlns="http://www.w3.org/2000/svg" xmlns:xlink="http://www.w3.org/1999/xlink">
    <defs>
        <path id="t8w3e6zg1a" d="M.059.222h25.774v17.345H.06z"/>
        <path id="4or8hhy1lc" d="M0 .268h9.587v9.587H0z"/>
        <path id="ftm7lpeske" d="M0 17.862h62V.517H0z"/>
    </defs>
    <g transform="translate(14 8)" fill="none" fill-rule="evenodd">
        <g transform="translate(36.167 .295)">
            <mask id="vtabcpithb" fill="#fff">
                <use xlink:href="#t8w3e6zg1a"/>
            </mask>
            <path d="M22.668 5.81h-2.921v1.254h2.442v1.49h-2.442v1.354h2.92v1.49h-4.424v-7.08h4.425V5.81zm-7.24 5.589h-1.814L11.68 4.318h1.586l1.257 5.288 1.256-5.288h1.585l-1.934 7.08zm-6.306 0h1.504V4.318H9.122v7.08zm-1.271 0H3.658V4.318h1.505v5.59H7.85v1.49zM25.146.223.668 1.712a.648.648 0 0 0-.609.647v11.172c0 .343.267.626.61.648l2.99.181v3.077c0 .106.12.167.206.104l3.957-2.927 17.324 1.054a.648.648 0 0 0 .687-.648V.87a.649.649 0 0 0-.687-.647z" fill="#BABABA" mask="url(#vtabcpithb)"/>
        </g>
        <g transform="translate(0 3.395)">
            <mask id="p3wfy3by7d" fill="#fff">
                <use xlink:href="#4or8hhy1lc"/>
            </mask>
            <path d="M2.397 2.665H3.87L5.647 5.23V2.665H7.19v4.793H5.717L3.939 4.893v2.565H2.397V2.665zM0 9.855h9.587V.268H0v9.587z" fill="#BABABA" mask="url(#p3wfy3by7d)"/>
        </g>
        <path d="M22.98 11.368h-2.942v-2.33a.139.139 0 0 0-.139-.139h-1.623a.138.138 0 0 0-.138.139v2.33h-1.654v-2.33a.138.138 0 0 0-.138-.139h-1.623a.139.139 0 0 0-.139.139v2.33h-2.942a.138.138 0 0 0-.138.138v1.364c0 .077.062.139.138.139H22.98a.139.139 0 0 0 .139-.139v-1.364a.138.138 0 0 0-.139-.138" fill="#BABABA"/>
        <path d="M13.138 9.106a.139.139 0 0 0 .196.027l3.977-3.077 3.977 3.077c.062.047.149.035.195-.027l.901-1.204a.14.14 0 0 0-.025-.192l-3.652-2.824a1.049 1.049 0 0 1-.407-.828V2.714a.138.138 0 0 0-.138-.138H16.46a.139.139 0 0 0-.139.138v1.344c0 .324-.15.63-.406.828L12.264 7.71a.139.139 0 0 0-.026.192l.9 1.204zM33.692 2.056h-1.636a.139.139 0 0 0-.14.14v6.447a.14.14 0 0 0 .14.139h1.636a.14.14 0 0 0 .138-.14V2.196a.139.139 0 0 0-.138-.139" fill="#BABABA"/>
        <mask id="pc5371059f" fill="#fff">
            <use xlink:href="#ftm7lpeske"/>
        </mask>
        <path d="M26.192 6.876h1.789V3.923h-1.789v2.953zm4.63 1.447V7.014a.138.138 0 0 0-.14-.138h-.95V3.923h.95a.138.138 0 0 0 .14-.138v-1.31a.139.139 0 0 0-.14-.138h-7.24a.139.139 0 0 0-.138.138v1.31c0 .076.062.138.138.138h.992v2.953h-.992a.138.138 0 0 0-.138.138v1.31c0 .076.062.138.138.138h7.24a.139.139 0 0 0 .14-.139zM29.845 13.955c-.9 0-1.634-.7-1.634-1.558 0-.86.733-1.559 1.634-1.559.9 0 1.633.7 1.633 1.559s-.733 1.558-1.633 1.558m0-4.848c-1.91 0-3.463 1.476-3.463 3.29s1.554 3.29 3.463 3.29 3.462-1.476 3.462-3.29-1.553-3.29-3.462-3.29" fill="#BABABA" mask="url(#pc5371059f)"/>
    </g>
</svg>
