<svg width="90" height="33" viewBox="0 0 90 33" xmlns="http://www.w3.org/2000/svg">
    <g fill="#BABABA" fill-rule="evenodd">
        <path d="M17.156 12.157c-.775 0-1 .346-1 1.105v1.26h2.07l-.207 2.039h-1.863v6.182h-2.484V16.56H12v-2.038h1.672v-1.226c0-2.055.828-3.142 3.14-3.142.5 0 1.086.034 1.448.086v1.916M20.881 18.926c0 1.226.45 2.037 1.604 2.037 1.018 0 1.535-.742 1.535-1.916v-.829c0-1.174-.517-1.917-1.535-1.917-1.155 0-1.604.812-1.604 2.038v.587zm-2.483-.552c0-2.297 1.086-4.024 3.363-4.024 1.242 0 2 .64 2.362 1.433v-1.26h2.38v8.219h-2.38v-1.243c-.345.794-1.12 1.415-2.362 1.415-2.277 0-3.363-1.726-3.363-4.022v-.518zM31.676 14.35c.965 0 1.88.207 2.38.552l-.552 1.762c-.38-.19-1-.38-1.655-.38-1.346 0-1.932.777-1.932 2.107v.482c0 1.33.586 2.107 1.932 2.107.655 0 1.276-.19 1.655-.38l.551 1.762c-.499.345-1.414.552-2.379.552-2.914 0-4.242-1.571-4.242-4.092v-.38c0-2.52 1.328-4.092 4.242-4.092M36.867 17.873h3v-.207c0-.898-.362-1.606-1.448-1.606-1.122 0-1.552.708-1.552 1.813m-2.484 1.07v-.725c0-2.33 1.328-3.868 4.036-3.868 2.552 0 3.672 1.554 3.672 3.834v1.312h-5.224c.051 1.123.551 1.623 1.931 1.623.931 0 1.915-.19 2.639-.5l.448 1.708c-.655.346-2 .605-3.19.605-3.139 0-4.312-1.571-4.312-3.989M48.817 18.321c0-1.157-.448-2.02-1.638-2.02-1.018 0-1.57.725-1.57 1.899v.863c0 1.175.552 1.9 1.57 1.9 1.19 0 1.638-.863 1.638-2.02v-.622zm2.484.57c0 2.296-1.104 4.023-3.38 4.023-1.242 0-2.104-.622-2.45-1.416v1.244h-2.344V10.395l2.483-.224v5.49c.362-.724 1.155-1.311 2.31-1.311 2.277 0 3.38 1.726 3.38 4.023v.518zM57.819 18.252c0-1.087-.45-1.95-1.604-1.95-1.156 0-1.604.863-1.604 1.95v.76c0 1.088.448 1.951 1.604 1.951 1.155 0 1.604-.863 1.604-1.951v-.76zm-5.691.587v-.414c0-2.365 1.344-4.075 4.087-4.075 2.741 0 4.087 1.71 4.087 4.075v.414c0 2.366-1.346 4.075-4.087 4.075-2.743 0-4.087-1.709-4.087-4.075zM66.82 18.252c0-1.087-.449-1.95-1.604-1.95-1.156 0-1.604.863-1.604 1.95v.76c0 1.088.448 1.951 1.604 1.951 1.155 0 1.604-.863 1.604-1.951v-.76zm-5.69.587v-.414c0-2.365 1.344-4.075 4.086-4.075s4.087 1.71 4.087 4.075v.414c0 2.366-1.345 4.075-4.087 4.075s-4.087-1.709-4.087-4.075zM72.717 18.442l2.449-3.92h2.638l-2.57 4.059 2.673 4.16H75.27l-2.553-4.022v4.023h-2.484V10.396l2.484-.225"/>
    </g>
</svg>
