<svg width="90" height="33" viewBox="0 0 90 33" fill="none" xmlns="http://www.w3.org/2000/svg">
<g clip-path="url(#clip0_8219_2847)">
<path fill-rule="evenodd" clip-rule="evenodd" d="M54.2787 11.6847C54.4636 11.6847 54.587 11.7471 54.587 11.9342L54.3403 16.1767L56.3132 11.7471C56.3749 11.6223 56.4982 11.5599 56.6215 11.5599H60.259C60.3823 11.5599 60.5056 11.6847 60.5056 11.8094C60.5056 11.8718 60.5056 11.8718 60.5056 11.9342L55.7583 22.5403C55.6967 22.6651 55.5734 22.7275 55.4501 22.7275H50.3946C50.2096 22.7275 50.0863 22.6027 50.0863 22.4155L50.7645 11.9966C50.7645 11.8094 50.8878 11.6847 51.0728 11.6847H54.2787ZM36.9544 11.6847L36.6461 12.9948C37.1304 12.5048 37.6942 11.8718 38.3108 11.6847H41.5783C41.7442 11.6847 41.904 11.8094 41.7016 11.9966C40.7152 12.6829 39.9137 13.2444 39.4205 13.8059C39.0506 14.1802 38.619 14.8041 38.1874 15.7399L37.8175 16.7382L37.5093 17.8612L36.5228 22.4779C36.5228 22.6027 36.3379 22.7275 36.2146 22.7275H32.5154C32.3305 22.7275 32.2072 22.6027 32.2072 22.4155V22.3531L34.365 11.9342C34.365 11.8094 34.55 11.6847 34.6733 11.6847H36.9544ZM44.5376 11.6223C47.5586 11.6223 49.963 14.0555 49.963 17.1125C49.963 20.1695 47.5586 22.6027 44.5376 22.6027C41.5167 22.6027 39.1122 20.1695 39.1122 17.1125C39.1122 14.0555 41.5167 11.6223 44.5376 11.6223ZM64.5746 11.6223C67.5956 11.6223 70 14.0555 70 17.1125C70 20.1695 67.5956 22.6027 64.5746 22.6027C61.5537 22.6027 59.1492 20.1695 59.1492 17.1125C59.1492 14.0555 61.5537 11.6223 64.5746 11.6223ZM44.5376 15.3656C43.5512 15.3656 42.8114 16.1767 42.8114 17.1125C42.8114 18.0483 43.6128 18.8594 44.5376 18.8594C45.4624 18.8594 46.2639 18.0483 46.2639 17.1125C46.2639 16.1767 45.5241 15.3656 44.5376 15.3656ZM29.3712 9.00195C29.5561 9.00195 29.6794 9.12673 29.6794 9.3139V9.37628L29.2479 11.3727C29.2479 11.4351 29.3095 11.5599 29.3712 11.5599C29.3712 11.5599 29.3712 11.5599 29.4328 11.5599H33.3786C33.5635 11.5599 33.7437 11.6847 33.6868 11.9342L32.762 15.8647C32.7004 16.0519 32.5771 16.1143 32.3921 16.1143L30.2343 15.9895C29.5561 15.9895 28.8163 16.1767 28.2614 16.8006C27.5216 17.5492 27.46 18.6722 27.7682 19.4833C28.0765 20.2943 28.9396 20.731 29.8027 20.5439C30.4809 20.4191 30.8508 19.7328 30.7892 19.1713C30.7275 18.5474 30.4809 18.3603 30.111 18.3603C29.7411 18.3603 29.6178 18.5474 29.6178 18.7346C29.6178 18.9218 29.6794 19.0465 29.8027 19.1713C29.9877 19.3585 29.6178 19.92 29.1246 19.608C28.8163 19.4209 28.6313 19.0465 28.693 18.485C28.7546 17.7988 29.3095 17.1749 30.296 17.1749C31.2824 17.1749 32.0222 17.7988 32.2072 18.7346C32.5154 19.92 31.8989 21.3549 30.4809 22.1036C28.7546 23.0394 25.857 22.977 24.254 21.2301C23.3292 20.2319 23.021 18.9218 23.0826 17.7364C23.0826 17.3621 23.1443 16.9253 23.2676 16.551C23.2676 16.4262 23.2059 16.3014 23.0826 16.2391H23.021H20.3083C20.1233 16.2391 20 16.0519 20 15.8647V15.8023L20.8631 11.9966C20.9248 11.7471 21.1097 11.6223 21.3564 11.6223H24.0074C24.1307 11.5599 24.254 11.4975 24.3157 11.3103L24.7472 9.37628C24.8089 9.12673 25.0555 9.00195 25.2405 9.00195H29.3712ZM64.5746 15.3656C65.5611 15.3656 66.3009 16.1767 66.3009 17.1125C66.3009 18.0483 65.4994 18.8594 64.5746 18.8594C63.6498 18.8594 62.8484 18.0483 62.8484 17.1125C62.8484 16.1767 63.6498 15.3656 64.5746 15.3656Z" fill="#BABABA"/>
</g>
<defs>
<clipPath id="clip0_8219_2847">
<rect width="50" height="13.7255" fill="white" transform="translate(20 9)"/>
</clipPath>
</defs>
</svg>
