<svg width="90" height="33" viewBox="0 0 90 33" xmlns="http://www.w3.org/2000/svg" xmlns:xlink="http://www.w3.org/1999/xlink">
    <defs>
        <path id="m4m3w1ybda" d="M0 .211h17.256V19H0z"/>
    </defs>
    <g fill="none" fill-rule="evenodd">
        <path fill="#BABABA" d="M49.486 11.957v9.086h5.8V18.01h-2.587v-6.053zM56.114 21.043h3.315v-9.086h-3.315zM70.2 11.957l.006 9.086H76V18.44h-2.65v-.705h2.346l-.006-2.495h-2.34v-.679h2.576v-2.603zM44.264 11.957l-1.23 4.26-.134.467h-.05l-.143-.467-1.263-4.26h-3.558l3.53 9.086h2.896l3.517-9.086z"/>
        <path fill="#BABABA" d="m65.81 11.957-1.236 4.26-.135.467h-.049l-.138-.467-1.263-4.26h-3.56l3.531 9.086h2.893l3.518-9.086z"/>
        <g transform="translate(18 7)">
            <mask id="4iyxry1y4b" fill="#fff">
                <use xlink:href="#m4m3w1ybda"/>
            </mask>
            <path d="M11.854 7.182c.763.17.91.84.785 1.265l-1 3.283c-.165.54-.717.878-1.257.767a1.063 1.063 0 0 1-.75-.6 2.202 2.202 0 0 0 1.077-1.792 1.84 1.84 0 0 0-.401-1.206l.289-.95c.144-.471.655-.9 1.257-.767M3.005 2.198c.6-.122 1.207.242 1.384.827l1.19 3.843c.227.659.868.641.868.641s.636.028.868-.64l1.19-3.844a1.204 1.204 0 0 1 1.384-.827c.896.189 1.008.997.88 1.378L9.374 8.21a2.326 2.326 0 0 0-.834-.157H3.472L2.124 3.575c-.165-.551.158-1.231.881-1.377M2.55 12.521v-2.49c0-.568.5-.959 1.019-.959H8.54c.191 0 1.087.114 1.087 1.062 0 .949-.897 1.062-1.124 1.062H5.66c-.3 0-.542.229-.542.51 0 .282.242.51.542.51h.302c.774 0 1.38.594 1.38 1.352v.534c0 .281.242.51.541.51.3 0 .542-.229.542-.51v-.534a2.32 2.32 0 0 0-.428-1.352h.608c.299.769.968 1.152 1.548 1.277.9.194 1.721-.23 2.133-.728.222.247.507.404.828.517-.458 2.195-2.554 3.757-5.244 3.757-3.582 0-5.319-2.65-5.319-4.518m11.083-.155c-.643-.138-.84-.755-.73-1.09.007-.018.548-1.804.558-1.828.15-.389.566-.736 1.112-.628.697.138.832.83.713 1.147l-.519 1.701c-.111.366-.541.826-1.134.698m3.258-4.202c-.615-.968-1.507-1.39-2.722-1.283a2.394 2.394 0 0 0-1.802-1.425l.397-1.317c.26-.762.145-1.66-.308-2.4-.46-.753-1.214-1.27-2.125-1.457C8.66-.061 6.979.909 6.5 2.49l-.054.23-.054-.232C5.91.902 4.227-.067 2.559.282 1.663.47.919.972.462 1.698.006 2.423-.122 3.326.12 4.111L1.303 8.04a2.833 2.833 0 0 0-.836 1.991v2.523C.574 16.229 3.763 19 7.886 19c1.73 0 3.342-.499 4.663-1.44 1.246-.89 2.142-2.142 2.537-3.54.748-.32 1.232-.91 1.515-1.838l.518-1.702c.194-.643.236-1.589-.227-2.316" fill="#BABABA" mask="url(#4iyxry1y4b)"/>
        </g>
    </g>
</svg>
