<svg width="90" height="33" viewBox="0 0 90 33" fill="none" xmlns="http://www.w3.org/2000/svg">
<g opacity="0.2">
<path d="M65.5374 23.5799C64.4388 23.5799 63.4292 23.4046 62.4988 23.0442C61.5685 22.6936 60.7767 22.1969 60.1234 21.5541C59.4702 20.921 58.9555 20.1516 58.5893 19.2458C58.2231 18.3498 58.0449 17.3661 58.0449 16.2948C58.0449 15.2332 58.2231 14.2495 58.5893 13.3438C58.9555 12.438 59.4702 11.6686 60.1234 11.0258C60.7767 10.3927 61.5685 9.89602 62.4988 9.53567C63.4292 9.18505 64.4388 9 65.5374 9C66.6162 9 67.6159 9.18505 68.5463 9.53567C69.4667 9.88629 70.2585 10.383 70.9118 11.0161C71.565 11.6491 72.0698 12.4185 72.4459 13.3243C72.8121 14.2398 73.0002 15.2235 73.0002 16.2948C73.0002 17.3661 72.8121 18.3596 72.4459 19.2653C72.0698 20.1711 71.565 20.9405 70.9118 21.5736C70.2585 22.2066 69.4667 22.7033 68.5463 23.054C67.6159 23.4046 66.6162 23.5799 65.5374 23.5799ZM65.5275 20.0445C66.1906 20.0445 66.7845 19.8789 67.319 19.5478C67.8534 19.2166 68.2592 18.7589 68.5463 18.194C68.8333 17.6291 68.9818 16.996 68.9818 16.2948C68.9818 15.6033 68.8333 14.9703 68.5463 14.4054C68.2592 13.8405 67.8534 13.3827 67.319 13.0516C66.7845 12.7205 66.1906 12.5451 65.5275 12.5451C64.8545 12.5451 64.2606 12.7107 63.736 13.0419C63.2016 13.373 62.7958 13.8307 62.4988 14.3956C62.2019 14.9703 62.0633 15.6033 62.0633 16.2948C62.0633 16.996 62.2019 17.6291 62.4988 18.194C62.7958 18.7589 63.2016 19.2166 63.736 19.5478C64.2705 19.8789 64.8644 20.0445 65.5275 20.0445Z" fill="#BABABA"/>
<path d="M50.8599 23.5507C50.0186 23.5507 49.2268 23.4533 48.4746 23.2487C47.7224 23.054 47.0395 22.752 46.4159 22.343C45.7825 21.9437 45.248 21.4567 44.7927 20.8918C44.3374 20.3269 43.9811 19.6452 43.7238 18.866C43.4664 18.0869 43.3477 17.2395 43.3477 16.324C43.3477 15.5059 43.4466 14.7365 43.6545 13.9963C43.8623 13.2561 44.1692 12.5841 44.5849 11.9803C45.0006 11.3764 45.4954 10.8505 46.0794 10.4025C46.6633 9.9642 47.3463 9.62332 48.1381 9.3701C48.9299 9.12661 49.7811 9 50.7016 9C51.4142 9 52.1268 9.09739 52.8493 9.29218C53.562 9.48697 54.2548 9.78889 54.9278 10.1882C55.591 10.5875 56.165 11.0648 56.6401 11.6199L53.9084 13.8892C52.9681 13.0126 51.8992 12.5646 50.6917 12.5646C50.3354 12.5646 49.9988 12.6231 49.6722 12.7205C49.3456 12.8276 49.0388 12.9834 48.7616 13.1977C48.4845 13.4119 48.2371 13.6652 48.0292 13.9574C47.8214 14.2495 47.663 14.6002 47.5442 15.0092C47.4255 15.4183 47.3661 15.8565 47.3661 16.324C47.3661 16.8305 47.4453 17.3174 47.6036 17.7655C47.762 18.2135 47.9797 18.6128 48.2668 18.9634C48.5538 19.314 48.92 19.5867 49.3753 19.7815C49.8207 19.986 50.3156 20.0834 50.8599 20.0834C51.6121 20.0834 52.3248 19.9276 53.0176 19.6159V18.3109H50.563V15.2527H56.6302V21.8463C55.9572 22.343 55.106 22.752 54.0568 23.0734C53.0077 23.3948 51.9388 23.5507 50.8599 23.5507Z" fill="#BABABA"/>
<path d="M34.6565 23.5799C33.5579 23.5799 32.5483 23.4046 31.618 23.0442C30.6876 22.6936 29.8958 22.1969 29.2426 21.5541C28.5893 20.921 28.0746 20.1516 27.7084 19.2458C27.3422 18.3498 27.1641 17.3661 27.1641 16.2948C27.1641 15.2332 27.3422 14.2495 27.7084 13.3438C28.0746 12.438 28.5893 11.6686 29.2426 11.0258C29.8958 10.3927 30.6876 9.89602 31.618 9.53567C32.5483 9.18505 33.5579 9 34.6565 9C35.7354 9 36.735 9.18505 37.6654 9.53567C38.5859 9.88629 39.3777 10.383 40.0309 11.0161C40.6842 11.6491 41.1889 12.4185 41.5651 13.3243C41.9313 14.2398 42.1193 15.2235 42.1193 16.2948C42.1193 17.3661 41.9313 18.3596 41.5651 19.2653C41.1889 20.1711 40.6842 20.9405 40.0309 21.5736C39.3777 22.2066 38.5859 22.7033 37.6654 23.054C36.735 23.4046 35.7354 23.5799 34.6565 23.5799ZM34.6466 20.0445C35.3098 20.0445 35.9036 19.8789 36.4381 19.5478C36.9726 19.2166 37.3784 18.7589 37.6654 18.194C37.9524 17.6291 38.1009 16.996 38.1009 16.2948C38.1009 15.6033 37.9524 14.9703 37.6654 14.4054C37.3784 13.8405 36.9726 13.3827 36.4381 13.0516C35.9036 12.7205 35.3098 12.5451 34.6466 12.5451C33.9736 12.5451 33.3797 12.7107 32.8552 13.0419C32.3207 13.373 31.9149 13.8307 31.618 14.3956C31.321 14.9703 31.1825 15.6033 31.1825 16.2948C31.1825 16.996 31.321 17.6291 31.618 18.194C31.9149 18.7589 32.3207 19.2166 32.8552 19.5478C33.3896 19.8789 33.9835 20.0445 34.6466 20.0445Z" fill="#BABABA"/>
<path d="M17 23.3754V9.20453H20.8799V20.0055H26.6007V23.3754H17Z" fill="#BABABA"/>
</g>
</svg>
