<svg width="90" height="33" viewBox="0 0 90 33" xmlns="http://www.w3.org/2000/svg" xmlns:xlink="http://www.w3.org/1999/xlink">
    <defs>
        <path id="uz11b2hqja" d="M.09.006h5.355v2.027H.09z"/>
        <path id="a4ezegrqec" d="M0 .016h11.551v11.101H0z"/>
    </defs>
    <g fill="none" fill-rule="evenodd">
        <g fill="#BABABA">
            <path d="M9.468 12.56s-.031-2.342 2.65-2.368h2.512c.538 0 .994.376.994.837 0 .471-.456.848-.994.848h-1.163c-.77.005-.704.56-.704.56v1.093h1.403c.556 0 1.012.357 1.012.815 0 .471-.396.831-.938.831h-1.477v5.549c0 .78-.674 1.475-1.614 1.475-.935 0-1.68-.632-1.68-1.425V12.56zM18.805 20.714c0 .844-.676 1.486-1.613 1.486-.924 0-1.685-.642-1.685-1.424v-4.998s0-2.204 2.723-2.204h2.16c1.13 0 1.13.865 1.13.865s0 .832-1.058.832h-.953c-.704 0-.704.545-.704.545v4.898zM34.293 15.281c-.731 0-.731.532-.731.532v1.458h2.079v-1.42s0-.57-.66-.57h-.688zm.54-1.767c2.817 0 2.817 2.263 2.817 2.263v2.343c0 .472-.457.818-1.013.818l-3.107-.002v1.006s.032.529.748.529l1.743.003c.559 0 .999.373.999.845 0 .469-.455.881-1 .881h-3.06c-2.684 0-2.684-2.233-2.684-2.233v-4.19s.02-2.238 2.705-2.263h1.852zM44.708 20.516c.559-.015 1.058.42 1.058.891 0 .472-.5.793-1.058.793h-4.387c-.923 0-1.59-.558-1.59-1.35v-5.91c0-.784.762-1.426 1.686-1.426h4.461c.562 0 1 .372 1 .84 0 .472-.438.82-1 .82h-2.381c-.408 0-.408.348-.408.348l-.002 4.632s-.028.36.41.36l2.211.002zM48.709 20.488h1.334v-1.99l-1.334.002c-.727 0-.657.994-.657.994s-.077.994.657.994m4.688-4.729v4.99c0 .794-.768 1.451-1.706 1.451h-2.847c-2.804 0-2.804-2.26-2.804-2.26v-1.117s.176-2.04 2.804-2.03h1.204V15.77s0-.527-.66-.527H47.86c-.558 0-1.1-.328-1.1-.8 0-.473.513-.925 1.07-.925h2.88c2.686.013 2.686 2.241 2.686 2.241M61.23 11.325s0-.762-1.01-.762h-7.01c-1.01 0-1.01.74-1.01.74s0 .732.946.732h1.466c.63 0 .63.479.63.479v4.519c0 .742.603 1.307 1.443 1.307.825 0 1.507-.565 1.507-1.252v-4.581c.01-.104.09-.45.626-.45h1.466c.946 0 .946-.732.946-.732M3.671 20.487h1.333v-1.989H3.671c-.755 0-.658.994-.658.994s-.076.995.658.995m4.69-4.732v4.993c0 .795-.767 1.452-1.707 1.452H3.807C1 22.2 1 19.94 1 19.94v-1.118s.177-2.042 2.807-2.033h1.202v-1.023s0-.528-.66-.528H2.822c-.558 0-1.102-.327-1.102-.8 0-.473.516-.925 1.073-.925h2.881c2.687.013 2.687 2.242 2.687 2.242M25.849 15.281c-.732 0-.732.532-.732.532v1.458h2.08v-1.42s0-.57-.66-.57h-.688zm.54-1.767c2.818 0 2.818 2.263 2.818 2.263v2.343c0 .472-.459.818-1.014.818l-3.106-.002v1.006s.03.529.747.529l1.743.003c.56 0 .999.373.999.845 0 .469-.455.881-1 .881h-3.06c-2.685 0-2.685-2.233-2.685-2.233v-4.19s.02-2.238 2.705-2.263h1.853z"/>
            <path d="M67.392 10.812c-.659-.442-1.589-.212-2.077.515l-2.658 3.56-.955-2.061c-.177-.387-.939-.572-1.344-.384-.407.186-.656.768-.476 1.155l1.751 4.025c.138.293.448.536.942.655.445.108 1.28-.01 1.768-.736l3.363-4.612c.488-.727.347-1.674-.314-2.117"/>
        </g>
        <g transform="translate(72.773 9.312)">
            <mask id="0nhztunu4b" fill="#fff">
                <use xlink:href="#uz11b2hqja"/>
            </mask>
            <path d="m.285 1.161 1.611.766c.281.125.48.15.773.017L5.16.807A.413.413 0 0 0 5.4.231a.415.415 0 0 0-.584-.167L2.541 1.532a.434.434 0 0 1-.531-.027L.77.504A.408.408 0 0 0 .177.55c-.143.18-.115.486.108.611" fill="#B7B7B7" mask="url(#0nhztunu4b)"/>
        </g>
        <g transform="translate(69.293 11.535)">
            <mask id="ds9fmjt2fd" fill="#fff">
                <use xlink:href="#a4ezegrqec"/>
            </mask>
            <path d="M8.79 7.72c-1.486 1.39-4.593 1.387-6.045-.002a.255.255 0 0 1 .351-.368c1.257 1.206 4.059 1.205 5.35-.001a.252.252 0 0 1 .36.012.254.254 0 0 1-.016.36M4.127 5.337l.002-.032.002-.023.002-.022.086-.949.087-.95.009-.102a.974.974 0 0 1 .13-.366.987.987 0 0 1 .836-.478h.978c.051 0 .1.006.15.014l.014.001a.982.982 0 0 1 .805.855l.005.054.157 1.737.016.174.007.076v.011a.986.986 0 0 1-.979 1.024H5.106a.982.982 0 0 1-.772-.38.977.977 0 0 1-.208-.607l.001-.037m7.398-.834-.39.29a15.399 15.399 0 0 1-.977.673 8.692 8.692 0 0 1-.733.419l-.047.018a1.32 1.32 0 0 1-.284.077l-.05.008a1.389 1.389 0 0 1-.173.013h-.004c-.044 0-.086-.003-.129-.007l-.035-.005a1.004 1.004 0 0 1-.258-.073.91.91 0 0 1-.408-.377 1.122 1.122 0 0 1-.116-.27 1.161 1.161 0 0 1-.041-.2l-.001-.006-.011-.09a6.639 6.639 0 0 1-.013-.107L7.848 4.8l-.017-.163-.02-.197a28.381 28.381 0 0 1-.11-1.967 1.116 1.116 0 0 1 .062-.394.975.975 0 0 1 .26-.395c.059-.053.1-.079.1-.079a1.06 1.06 0 0 1 .127-.07c.014-.005.029-.01.043-.017a1.187 1.187 0 0 1 .145-.049c.031-.008.063-.015.095-.02l.052-.008c.035-.005.07-.007.106-.008l.034-.002h.013l.037.002a1.15 1.15 0 0 1 .217.03l.038.01c.04.011.082.024.122.04a12.691 12.691 0 0 1 .522.223 29.781 29.781 0 0 1 .706.327c.199.098.382.189.569.286.124.066.253.137.385.213-.008-.056-.014-.113-.023-.17a4.243 4.243 0 0 0-.111-.47c-.237-.829-1.135-1.183-1.135-1.183-.288-.129-.91-.299-.91-.299a13.698 13.698 0 0 0-3.34-.423h-.08S3.985.004 2.352.436c-.6.159-.87.293-.87.293C1.01.945.629 1.281.427 1.752a2.732 2.732 0 0 1 .19-.104l.046-.023c.06-.028.121-.055.184-.079l.043-.015c.049-.018.098-.034.148-.049l.068-.018a2.608 2.608 0 0 1 .347-.065l.061-.008a2.41 2.41 0 0 1 .204-.01h.004l.017.001c.063.001.126.005.19.01l.063.008c.051.006.102.013.154.023l.062.012c.07.014.141.032.212.054.665.205 1.09.586 1.301 1.075.211.49.209 1.086.019 1.723a2.663 2.663 0 0 1-.075.216l-.028.067-.06.136-.04.074a2.059 2.059 0 0 1-.183.293 1.722 1.722 0 0 1-.132.166l-.051.058a2.291 2.291 0 0 1-.101.1l-.044.041c-.05.045-.102.087-.155.127-.007.006-.016.01-.023.015a2.343 2.343 0 0 1-.143.096l-.06.034a2.028 2.028 0 0 1-.115.062c-.023.012-.047.022-.071.033a2.374 2.374 0 0 1-.306.113l-.078.021c-.041.01-.084.02-.126.028l-.074.015c-.05.008-.1.014-.15.019-.02.002-.037.005-.056.006a2.554 2.554 0 0 1-.204.008h-.006c-.05 0-.1-.004-.152-.006l-.078-.004A1.863 1.863 0 0 1 .11 5.54C.072 5.507.037 5.47 0 5.435v.007C0 6.771.131 8.068.386 9.32c.102.497.33.738.33.738.249.325.606.562 1.017.655l.089.017c1.279.254 2.6.387 3.953.387a20.31 20.31 0 0 0 3.97-.39l.064-.013a1.775 1.775 0 0 0 1.352-1.373l.002-.008a18.9 18.9 0 0 0 .362-4.83" fill="#B7B7B7" mask="url(#ds9fmjt2fd)"/>
        </g>
        <path d="M78.86 16.05a.83.83 0 0 1-.828-.832.83.83 0 0 1 .828-.831.83.83 0 0 1 .829.831.83.83 0 0 1-.829.832m1.78-1.43-.01-.005-.017-.008-.017-.01a13.86 13.86 0 0 0-1.12-.597c-.004-.002-.683-.329-1.198-.536a.696.696 0 0 0-.26-.05.658.658 0 0 0-.357.102l-.013.009c-.038.027-.212.168-.206.474a27.085 27.085 0 0 0 .173 2.54l.002.014v.013c.002.01.038.353.31.48.06.028.14.042.233.042.183 0 .362-.059.457-.118l.016-.01.015-.007c.004-.002.385-.199.978-.6.243-.166.46-.329.691-.501.127-.095.256-.192.39-.29a.538.538 0 0 0 .077-.07 20 20 0 0 0-.081-.831c-.012-.008-.021-.017-.033-.024l-.03-.017M74.264 17.43a.53.53 0 0 0 .136.018h1.322a.535.535 0 0 0 .538-.537l-.001-.02v-.003l-.006-.061-.173-1.911-.004-.047a.536.536 0 0 0-.527-.469h-.975a.54.54 0 0 0-.522.45l-.008.089-.173 1.898-.003.038-.001.015-.001.02c0 .244.164.458.398.52M71.09 14.387a.83.83 0 0 1 .828.831.83.83 0 0 1-.829.832.83.83 0 0 1-.828-.832c0-.46.37-.831.828-.831m-.727 2.68c.133.023.265.034.395.034.893 0 1.583-.526 1.846-1.407.196-.659.325-1.825-1.022-2.24a1.937 1.937 0 0 0-.571-.088c-.54 0-1.078.237-1.49.631a17.082 17.082 0 0 0-.216 2.288c.275.42.66.713 1.058.782" fill="#B7B7B7"/>
    </g>
</svg>
