<svg width="90" height="33" viewBox="0 0 90 33" fill="none" xmlns="http://www.w3.org/2000/svg">
<path d="M50.7009 9C48.5359 9 46.5903 9.94155 45.252 11.4374C45.195 11.502 45.0958 11.502 45.0387 11.4374C43.7004 9.94155 41.7555 9 39.5898 9C35.5525 9 32.2795 12.273 32.2795 16.3103C32.2795 20.3475 35.5525 23.6205 39.5898 23.6205C41.7548 23.6205 43.7004 22.679 45.0387 21.1831C45.0958 21.1186 45.195 21.1186 45.252 21.1831C46.5903 22.679 48.5359 23.6205 50.7009 23.6205C54.7382 23.6205 58.0112 20.3475 58.0112 16.3103C58.0112 12.273 54.7388 9 50.7009 9ZM50.7009 20.1111C49.5311 20.1111 48.5542 19.5473 47.9544 18.9107C47.7635 18.7076 47.5271 18.4291 47.2662 18.1927C47.1419 18.0799 47.0183 17.9794 46.9001 17.8883C46.4109 17.5398 45.8043 17.3327 45.1454 17.3327C44.4864 17.3327 43.8798 17.5398 43.3907 17.8883C43.2718 17.9787 43.1488 18.0799 43.0245 18.1927C42.7636 18.4291 42.5272 18.7076 42.3363 18.9107C41.7372 19.5473 40.7596 20.1111 39.5898 20.1111C39.5599 20.1111 39.5307 20.1098 39.5008 20.1091C39.4505 20.1077 39.4003 20.1064 39.35 20.103C39.3154 20.1009 39.2814 20.0975 39.2474 20.0948C39.227 20.0934 39.2067 20.0914 39.187 20.0894C37.2767 19.8883 35.7883 18.2728 35.7883 16.3096V16.3259V16.294V16.3103C35.7883 14.3477 37.2767 12.7322 39.1863 12.5305C39.2073 12.5284 39.2291 12.5271 39.2508 12.5244C39.2834 12.5216 39.3167 12.5189 39.3493 12.5169C39.3996 12.5142 39.4499 12.5128 39.5015 12.5108C39.5307 12.5108 39.5599 12.5087 39.5891 12.5087C40.7589 12.5087 41.7358 13.0726 42.3357 13.7091C42.5265 13.9122 42.763 14.1908 43.0238 14.4272C43.1481 14.5399 43.2718 14.6405 43.39 14.7315C43.8791 15.08 44.4857 15.2872 45.1447 15.2872C45.8036 15.2872 46.4103 15.08 46.8994 14.7315C47.0183 14.6412 47.1412 14.5399 47.2655 14.4272C47.5264 14.1908 47.7628 13.9122 47.9537 13.7091C48.5529 13.0726 49.5304 12.5087 50.7002 12.5087C50.7294 12.5087 50.758 12.5101 50.7872 12.5108C50.8381 12.5121 50.8898 12.5135 50.94 12.5169C50.972 12.5189 51.0046 12.521 51.0365 12.5244C51.0589 12.5257 51.082 12.5278 51.1044 12.5305C52.9407 12.7248 54.387 14.2261 54.4943 16.0874C54.4943 16.0997 54.4956 16.1119 54.4963 16.1234C54.4977 16.1581 54.4984 16.1927 54.499 16.2274C54.4997 16.279 54.5004 16.3306 54.499 16.3823C54.4984 16.421 54.4984 16.4604 54.4963 16.4991C54.4963 16.5073 54.495 16.5154 54.495 16.5236C54.3917 18.3883 52.9441 19.8951 51.1044 20.0894C51.0813 20.0914 51.0582 20.0934 51.0351 20.0955C51.0039 20.0982 50.972 20.1009 50.9407 20.103C50.8904 20.1057 50.8381 20.107 50.7872 20.1091C50.758 20.1091 50.7294 20.1111 50.7002 20.1111V20.1125L50.7009 20.1111Z" fill="#C3C4C5"/>
<path d="M25.6887 14.3028L27.8632 15.0087C28.1866 15.1405 29.3557 15.4326 30.2334 16.3096C31.0411 17.1173 31.4032 18.1988 31.4032 19.2504C31.4032 22.45 28.1003 23.6198 25.7016 23.6198C22.0468 23.6198 20.4708 22.0017 20 21.573L22.1609 18.8122C22.3138 19.0201 23.8015 20.4039 25.7016 20.4039C26.4326 20.4039 27.6024 20.1118 27.6024 19.2341C27.6024 18.6492 27.0025 18.1886 25.7016 17.7722L23.5278 17.065C22.0319 16.4719 20.877 15.4326 20.877 13.3857C20.877 12.2649 21.3077 11.4123 21.504 11.1066C22.7194 9.21399 25.1514 9 25.9937 9C27.4747 9 28.5691 9.27309 29.3632 9.60868C30.3713 10.0346 30.8951 10.5611 31.1111 10.754L29.3095 13.057C27.2532 11.7853 25.972 11.8804 25.2634 12.1317C24.7811 12.3029 24.6276 12.6874 24.6059 12.936C24.5787 13.2424 24.6276 13.9061 25.6901 14.3022L25.6887 14.3028Z" fill="#C3C4C5"/>
<path d="M65.3215 9.07324H59.4739V23.547H62.9826V18.7224H65.3215C67.7841 18.7224 70.0001 17.2605 70.0001 13.8978C70.0001 10.5352 67.7841 9.07324 65.3215 9.07324ZM66.4907 13.8978C66.4907 14.9474 65.6395 15.7986 64.5899 15.7986H62.9819V11.9971H64.5899C65.6395 11.9971 66.4907 12.8483 66.4907 13.8978Z" fill="#C3C4C5"/>
</svg>
