<svg width="90" height="33" viewBox="0 0 90 33" xmlns="http://www.w3.org/2000/svg">
    <defs>
        <linearGradient x1="49.833%" y1="77.168%" x2="49.833%" y2="12.74%" id="m66ti3fdja">
            <stop stop-color="#FFF" offset="0%"/>
            <stop stop-color="#FFF" stop-opacity=".7" offset="100%"/>
        </linearGradient>
        <linearGradient x1="81.047%" y1="-3.465%" x2="62.286%" y2="28.719%" id="vo59cmb7yb">
            <stop offset="0%"/>
            <stop stop-opacity="0" offset="100%"/>
        </linearGradient>
        <linearGradient x1="64.005%" y1="86.388%" x2="56.546%" y2="67.031%" id="yu7lfa5boc">
            <stop offset="0%"/>
            <stop stop-opacity="0" offset="100%"/>
        </linearGradient>
    </defs>
    <g fill="none" fill-rule="evenodd">
        <g fill="#BABABA">
            <path d="M31.273 11.856c-.637 0-1.156.517-1.156 1.151v3.559l-3.103-4.055c-.244-.312-.571-.63-1.152-.63h-.191c-.656 0-1.17.51-1.17 1.162v6.706c0 .635.52 1.151 1.157 1.151.639 0 1.157-.516 1.157-1.15v-3.702l3.234 4.222c.244.311.571.63 1.153.63h.06c.655 0 1.168-.51 1.168-1.163v-6.73c0-.634-.519-1.15-1.157-1.15M49.236 11.856c-.61 0-1.045.402-1.206.803l-1.72 4.428-1.695-4.37a1.306 1.306 0 0 0-1.253-.86c-.71 0-1.267.548-1.267 1.248 0 .222.067.413.134.57l2.646 6.3v-.003c.254.602.735.928 1.354.928h.117c.618 0 1.1-.326 1.354-.929l2.666-6.348c.047-.104.125-.313.125-.542 0-.687-.55-1.225-1.255-1.225M57.49 18.381h-3.312v-.91h2.729c.647 0 1.173-.45 1.173-1.086 0-.645-.526-1.099-1.173-1.099h-2.729v-.91h3.253c.647 0 1.174-.54 1.174-1.178 0-.644-.527-1.19-1.174-1.19h-4.523c-.71 0-1.108.502-1.108 1.208v6.335c0 .707.398 1.197 1.108 1.197h4.582c.647 0 1.173-.54 1.173-1.178 0-.643-.526-1.189-1.173-1.189M64.004 16.158h-1.43v-2.004h1.43c.356 0 1.113.121 1.113 1.002s-.757 1.002-1.113 1.002m3.692-1.213v-.023c0-.858-.308-1.564-.836-2.09-.612-.609-1.553-.905-2.667-.905H61.36c-.71 0-1.348.502-1.348 1.208v6.434c0 .707.57 1.26 1.28 1.26.71 0 1.281-.553 1.281-1.26v-1.451h.94l1.669 2.104c.32.406.704.608 1.176.608.673 0 1.22-.533 1.22-1.19 0-.41-.183-.674-.376-.916l-.955-1.184c.932-.539 1.45-1.427 1.45-2.595M38.13 17.132h-1.054l1.053-2.497 1.053 2.497H38.13zm4.252 2.038-2.843-6.392c-.265-.589-.77-.927-1.387-.927h-.046c-.617 0-1.122.338-1.387.927l-2.843 6.392a1.28 1.28 0 0 0-.137.533c0 .674.525 1.203 1.196 1.203.518 0 .954-.231 1.167-.72l.476-1.051h3.102l.476 1.05c.213.49.649.72 1.167.72.671 0 1.197-.528 1.197-1.202 0-.204-.07-.384-.138-.533zM85.234 12.046a1.284 1.284 0 0 0-1.702.617l-1.813 3.873-1.812-3.873a1.28 1.28 0 0 0-1.173-.733v-.003h-7.536c-.656 0-1.189.53-1.189 1.183 0 .654.533 1.184 1.19 1.184h2.042v5.26c0 .704.573 1.275 1.28 1.275.708 0 1.281-.57 1.281-1.274v-5.261h2.043l2.714 5.8c.217.463.679.732 1.16.732.482 0 .944-.269 1.16-.732l2.974-6.354a1.272 1.272 0 0 0-.62-1.694"/>
        </g>
        <g opacity=".7">
            <path fill="url(#m66ti3fdja)" fill-rule="nonzero" d="M0 1.553h3.792v10.874H0z" transform="translate(8 9)"/>
            <path d="M19.828 15.378a1.908 1.908 0 0 0-2.681-.635L8.912 20.05c-.915.586-1.183 1.823-.615 2.766a1.908 1.908 0 0 0 2.682.635l8.25-5.322a2.021 2.021 0 0 0 .6-2.75z" fill="#FFF" fill-rule="nonzero"/>
            <path d="m19.21 14.602-8.248-5.296c-.899-.585-2.097-.309-2.665.634-.568.942-.3 2.177.615 2.762l8.248 5.312a1.909 1.909 0 0 0 2.68-.634 2.064 2.064 0 0 0-.63-2.778z" fill="#FFF" fill-rule="nonzero"/>
            <path d="m17.1 18.32-2.275-1.553z"/>
            <path d="M8.866 9.398 6.302 7.767l-5.42 3.45c-.884.559-1.144 1.74-.594 2.641a1.86 1.86 0 0 0 2.595.606l6.975-4.444-.992-.622z" fill="url(#vo59cmb7yb)" fill-rule="nonzero" opacity=".5" transform="translate(8 9)"/>
            <path fill="url(#yu7lfa5boc)" fill-rule="nonzero" opacity=".2" d="M3.792 2.33H0v9.32l3.792-2.453z" transform="translate(8 9)"/>
        </g>
    </g>
</svg>
