<svg width="80" height="33" viewBox="0 0 80 33" xmlns="http://www.w3.org/2000/svg">
    <g fill="none" fill-rule="evenodd">
        <path opacity=".1" d="M0 0h80v33H0z"/>
        <path d="M54.338 11.228c.016.228.016.456.016.686C54.354 18.92 48.988 27 39.177 27v-.004A15.168 15.168 0 0 1 31 24.619a10.752 10.752 0 0 0 7.895-2.198 5.337 5.337 0 0 1-4.984-3.682c.8.153 1.624.122 2.408-.091a5.31 5.31 0 0 1-4.279-5.197v-.068c.742.41 1.572.639 2.421.664a5.29 5.29 0 0 1-1.65-7.08 15.17 15.17 0 0 0 10.993 5.54 5.285 5.285 0 0 1 1.543-5.066 5.363 5.363 0 0 1 7.547.23c1.195-.234 2.34-.67 3.388-1.287a5.328 5.328 0 0 1-2.345 2.932A10.659 10.659 0 0 0 57 8.481a10.8 10.8 0 0 1-2.662 2.747z" fill="#BABABA" fill-rule="nonzero"/>
    </g>
</svg>
