<svg width="90" height="33" viewBox="0 0 90 33" xmlns="http://www.w3.org/2000/svg" xmlns:xlink="http://www.w3.org/1999/xlink">
    <defs>
        <path id="d19otpvb1a" d="M0 .686h20.528V14.94H0z"/>
    </defs>
    <g fill="none" fill-rule="evenodd">
        <g transform="translate(11 9.1)">
            <mask id="1bxpv5dv6b" fill="#fff">
                <use xlink:href="#d19otpvb1a"/>
            </mask>
            <path d="M8.211 10.867V4.758l5.333 3.055-5.333 3.054zM20.1 2.911a2.56 2.56 0 0 0-1.815-1.8c-1.6-.425-8.02-.425-8.02-.425s-6.42 0-8.02.425a2.562 2.562 0 0 0-1.815 1.8c-.43 1.589-.43 4.901-.43 4.901s0 3.314.43 4.902a2.562 2.562 0 0 0 1.815 1.8c1.6.425 8.02.425 8.02.425s6.42 0 8.02-.425a2.56 2.56 0 0 0 1.815-1.8c.429-1.588.429-4.902.429-4.902s0-3.312-.429-4.9z" fill="#BABABA" mask="url(#1bxpv5dv6b)"/>
        </g>
        <path d="M43.072 21.356c.113-.291.169-.767.169-1.428v-2.78c0-.642-.056-1.11-.169-1.406-.113-.296-.31-.444-.595-.444-.274 0-.467.148-.58.444-.112.297-.169.764-.169 1.405v2.781c0 .66.054 1.137.162 1.428.108.29.304.437.587.437.284 0 .482-.147.595-.437m-2.276 1.398c-.406-.273-.694-.695-.865-1.267-.172-.573-.257-1.335-.257-2.287v-1.295c0-.961.097-1.733.293-2.316.196-.582.502-1.007.918-1.274.415-.267.961-.4 1.636-.4.666 0 1.2.136 1.6.407.402.272.696.697.881 1.275.186.577.28 1.347.28 2.308V19.2c0 .952-.091 1.717-.272 2.294-.181.578-.475 1-.881 1.267-.406.267-.957.4-1.652.4-.714 0-1.274-.136-1.68-.407M72.233 15.465c-.103.126-.171.332-.205.619-.035.286-.052.72-.052 1.303v.64h1.483v-.64c0-.573-.02-1.007-.06-1.303-.038-.296-.109-.505-.212-.626-.103-.122-.262-.183-.477-.183-.215 0-.374.064-.477.19zm-.257 3.757v.45c0 .574.017 1.003.052 1.29.034.287.104.495.212.626.108.13.274.197.5.197.302 0 .51-.117.623-.35.113-.233.174-.621.184-1.165l1.747.102c.01.078.015.185.015.32 0 .826-.228 1.442-.683 1.85-.455.407-1.099.611-1.93.611-.999 0-1.699-.31-2.1-.932-.401-.62-.602-1.582-.602-2.883V17.78c0-1.34.208-2.318.624-2.934.416-.617 1.128-.925 2.137-.925.694 0 1.227.126 1.6.378.371.254.633.647.785 1.18.151.535.227 1.272.227 2.213v1.53h-3.39zM35.863 19.055l-2.305-8.257h2.012l.807 3.742c.205.923.358 1.709.455 2.36h.059c.069-.467.22-1.248.455-2.345l.837-3.757h2.01l-2.333 8.257v3.96h-1.997v-3.96zM51.822 14.09v8.925h-1.585l-.176-1.092h-.044c-.43.826-1.077 1.238-1.939 1.238-.596 0-1.036-.194-1.32-.582-.285-.389-.426-.996-.426-1.82v-6.67h2.025v6.553c0 .398.045.682.133.852.088.17.234.254.44.254a.899.899 0 0 0 .507-.16.993.993 0 0 0 .36-.407v-7.092h2.025zM62.214 14.09v8.925h-1.586l-.176-1.092h-.044c-.43.826-1.077 1.238-1.938 1.238-.597 0-1.037-.194-1.32-.582-.285-.389-.426-.996-.426-1.82v-6.67h2.025v6.553c0 .398.044.682.132.852.088.17.235.254.441.254a.899.899 0 0 0 .506-.16.993.993 0 0 0 .36-.407v-7.092h2.026z" fill="#BABABA"/>
        <path fill="#BABABA" d="M57.327 12.415h-2.01v10.6h-1.983v-10.6h-2.01v-1.617h6.003zM67.061 19.157c0 .65-.026 1.16-.08 1.53-.054.368-.145.63-.272.786a.63.63 0 0 1-.514.232.944.944 0 0 1-.462-.116.882.882 0 0 1-.345-.35v-5.067c.068-.243.186-.442.352-.597a.783.783 0 0 1 .543-.233.55.55 0 0 1 .477.24c.113.16.191.43.236.808.043.38.065.918.065 1.617v1.15zm1.858-3.641c-.123-.562-.321-.97-.595-1.223-.274-.252-.651-.379-1.13-.379-.373 0-.72.105-1.043.313-.323.21-.573.484-.749.823h-.014v-4.703h-1.952v12.668h1.673l.205-.844h.045c.156.301.39.539.704.713.314.175.66.263 1.043.263.685 0 1.189-.313 1.512-.94.322-.626.484-1.604.484-2.934V17.86c0-.999-.061-1.78-.183-2.344z"/>
    </g>
</svg>
