<svg xmlns="http://www.w3.org/2000/svg" width="44" height="40" viewBox="0 0 44 40">
    <g fill="none" fill-rule="evenodd">
        <g fill="#EFFC35">
            <g>
                <path d="M30.403 26.529c0 1.1-.888 1.996-1.98 1.996h-.852c-1.091 0-1.98-.896-1.98-1.996v-2.78c0-1.101.889-1.997 1.98-1.997h.852c.096 0 .19.007.283.02v-1.829c0-3.515-2.836-6.375-6.323-6.375h-.363c-3.487 0-6.324 2.86-6.324 6.375v1.83c.093-.014.188-.021.284-.021h.851c1.092 0 1.98.896 1.98 1.996v2.78c0 1.101-.888 1.997-1.98 1.997h-.851c-1.092 0-1.98-.896-1.98-1.996v-6.586c0-4.458 3.598-8.086 8.02-8.086h.363c4.423 0 8.02 3.628 8.02 8.086v6.586zm-13.572-3.065h-.851c-.154 0-.283.13-.283.284v2.78c0 .155.129.285.283.285h.851c.154 0 .283-.13.283-.284v-2.78c0-.155-.129-.285-.283-.285zm11.592 0h-.852c-.153 0-.282.13-.282.284v2.78c0 .155.129.285.282.285h.852c.153 0 .283-.13.283-.284v-2.78c0-.155-.13-.285-.283-.285z" transform="translate(-500.000000, -4253.000000) translate(500.000000, 4253.000000)"/>
            </g>
        </g>
    </g>
</svg>
