<svg xmlns="http://www.w3.org/2000/svg" width="30" height="30" viewBox="0 0 30 30">
    <g fill="none" fill-rule="evenodd">
        <g>
            <g>
                <g>
                    <path d="M0 0H30V30H0z" transform="translate(-1335 -4780) translate(70 4580) translate(1265 200)"/>
                    <g fill="#7A7F34" fill-rule="nonzero">
                        <path d="M8.5 0C13.194 0 17 3.806 17 8.5S13.194 17 8.5 17 0 13.194 0 8.5 3.806 0 8.5 0zm0 1.5c-3.866 0-7 3.134-7 7s3.134 7 7 7 7-3.134 7-7-3.134-7-7-7zm0 1.75c.38 0 .693.282.743.648L9.25 4v4.189l2.962 2.963c.293.293.293.767 0 1.06-.266.267-.683.29-.976.073l-.084-.073L7.97 9.03l-.02-.02c-.018-.02-.034-.038-.049-.058l.069.078c-.035-.034-.065-.071-.092-.11l-.031-.051-.023-.044c-.009-.017-.017-.036-.024-.055L7.79 8.74l-.02-.067-.007-.036-.005-.034-.003-.025-.004-.06V4c0-.414.336-.75.75-.75z" transform="translate(-1335 -4780) translate(70 4580) translate(1265 200) translate(6.5 6.5)"/>
                    </g>
                </g>
            </g>
        </g>
    </g>
</svg>
