<?xml version="1.0" encoding="UTF-8"?>
<svg width="30px" height="30px" viewBox="0 0 30 30" version="1.1" xmlns="http://www.w3.org/2000/svg" xmlns:xlink="http://www.w3.org/1999/xlink">
    <title>1858E92B-3280-48B4-94D2-6E460BDA7F7E</title>
    <g id="Page-1" stroke="none" stroke-width="1" fill="none" fill-rule="evenodd">
        <g id="Add-Source_202201" transform="translate(-175.000000, -4471.000000)">
            <g id="Group-12" transform="translate(70.000000, 4381.000000)">
                <g id="Group-10" transform="translate(50.000000, 50.000000)">
                    <g id="erroricon-source-prismcamera-select-disable" transform="translate(55.000000, 40.000000)">
                        <rect id="area" x="0" y="0" width="30" height="30"></rect>
                        <g id="icon_path" transform="translate(7.000000, 5.000000)" fill="#7A7F34" fill-rule="nonzero">
                            <path d="M17.2688961,2.28872416 C17.552943,2.53593491 17.6059123,2.94992622 17.4088892,3.25790377 L17.3422636,3.34684382 L16.007,4.88 L16.0814653,5.2418138 C16.1515439,5.58268647 16.4170491,5.84819165 16.7579218,5.91800576 L17.1548573,5.99972 C17.2976589,6.02880921 17.4,6.15415727 17.4,6.29986778 C17.4,6.44557828 17.2976589,6.57092634 17.1548573,6.60028 L16.7579218,6.68146535 C16.4170491,6.75127946 16.1515439,7.01678463 16.0814653,7.35792175 L16.00028,7.75485728 C15.9709263,7.89739442 15.8455783,7.99973555 15.6998678,7.99973555 C15.5544217,7.99973555 15.4288092,7.89739442 15.39972,7.75485728 L15.3182702,7.35792175 C15.2481916,7.01678463 14.9829509,6.75127946 14.6418138,6.68146535 L14.47,6.646 L11.9713465,9.51875139 C11.9902655,9.67652726 12,9.83712682 12,10 C12,12.1852546 10.2476539,13.9612268 8.07150479,13.9993737 L5.807,16.6 L13,16.6 C13.8345636,16.6 14.5198898,15.9610385 14.5934613,15.1456326 L14.6,15 L14.6,10.013 L14.6,10 C14.6,9.64561729 14.8633436,9.35274177 15.2050141,9.30639017 L15.3,9.3 C15.6543827,9.3 15.9472582,9.56334362 15.9936098,9.90501415 L16,10 L16,10 L16,15 C16,16.6568542 14.6568542,18 13,18 L4.588,18 L3.61146697,19.1236235 C3.33953515,19.436075 2.86579884,19.4689227 2.55334731,19.1969909 C2.26930046,18.9497801 2.21633115,18.5357888 2.41335426,18.2278113 L2.47997989,18.1388712 L16.2107765,2.36209159 C16.4827083,2.04964005 16.9564446,2.01679234 17.2688961,2.28872416 Z M8,2 C8.38659932,2 8.7,2.31340068 8.7,2.7 C8.7,3.05438271 8.43665638,3.34725823 8.09498585,3.39360983 L8,3.4 L3,3.4 C2.16543638,3.4 1.48011021,4.03896152 1.40653868,4.85436739 L1.4,5 L1.4,15 C1.4,15.4491187 1.5850453,15.8550177 1.88305289,16.1456141 L0.96265693,17.2021166 C0.3706244,16.6541192 0,15.8703416 0,15 L0,5 C0,3.34314575 1.34314575,2 3,2 L8,2 Z M8,6 C8.79621051,6 9.53808664,6.23263315 10.1613665,6.63363762 L9.22736802,7.70735673 C8.86179627,7.51123728 8.44388856,7.4 8,7.4 C6.56405965,7.4 5.4,8.56405965 5.4,10 C5.4,10.5724903 5.58502852,11.1017649 5.8985467,11.5312848 L4.96421913,12.6047272 C4.36319224,11.9048846 4,10.9948564 4,10 C4,7.790861 5.790861,6 8,6 Z M12.6,0 C12.8225765,0 13.0147597,0.156571024 13.059275,0.374542449 L13.1836108,0.981485417 C13.2891502,1.49527146 13.6845236,1.89705585 14.194855,2.01108215 L13.9644354,2.26472692 L12.063,4.448 L12.0163892,4.21820758 C11.9092455,3.69661117 11.5033888,3.29044751 10.9817924,3.18361082 L10.3745424,3.059275 C10.156571,3.01445271 10,2.82257646 10,2.6 C10,2.37742354 10.156571,2.18524029 10.3745424,2.140725 L10.9817924,2.01608218 C11.5033888,1.90924548 11.9092455,1.50308183 12.0163892,0.981485417 L12.140725,0.374542449 C12.1855473,0.156571024 12.3774235,0 12.6,0 Z" id="Combined-Shape"></path>
                        </g>
                    </g>
                </g>
            </g>
        </g>
    </g>
</svg>