<svg xmlns="http://www.w3.org/2000/svg" width="30" height="30" viewBox="0 0 30 30">
    <g fill="none" fill-rule="evenodd">
        <g fill="#EFFC35">
            <g>
                <g>
                    <path d="M17.558.794c.306-.278.78-.254 1.059.053.278.308.254.78-.054 1.06l-1.301 1.177c.052.177.084.364.084.56v9.5c0 1.105-.895 2-2 2H3.914l-2.461 2.224c-.143.13-.323.193-.503.193-.204 0-.408-.083-.556-.247-.278-.308-.254-.781.053-1.06l11.122-10.05-.001.007.36-.327-.002-.001zm-14.387.85l1.338 2.7h2.037l-1.374-2.7H7.22l1.339 2.7h2.037l-1.375-2.7h2.049l.87 1.756-5.064 4.576-.065-.32c-.046-.224-.245-.387-.476-.387-.23 0-.43.163-.474.388l-.13.628c-.111.539-.531.96-1.07 1.07l-.63.129c-.224.046-.386.245-.386.475 0 .23.162.43.387.475l.1.02L.6 13.83c-.08-.214-.13-.443-.13-.685v-9.5c0-1.104.896-2 2-2h.7zm9.565 5.528l-1.45 1.31c.098.119.174.256.206.412l.089.435c.032.155.169.267.328.267.16 0 .297-.112.329-.267l.089-.435c.076-.373.367-.663.74-.74l.434-.09c.156-.03.269-.168.269-.327 0-.16-.113-.297-.27-.328l-.433-.09c-.123-.025-.231-.08-.331-.147zm1.35-5.528l-.557.503-.256-.503h.813z" transform="translate(-1173 -2093) translate(1173 2093) translate(7 7)"/>
                </g>
            </g>
        </g>
    </g>
</svg>
