<svg xmlns="http://www.w3.org/2000/svg" width="30" height="30" viewBox="0 0 30 30">
    <g fill="none" fill-rule="evenodd">
        <g fill="#7A7F34">
            <g>
                <g>
                    <path d="M12.588 3.375h2.037l-1.374-2.7h2.074c1.105 0 2 .895 2 2v9.5c0 1.105-.895 2-2 2H2.45c-1.105 0-2-.895-2-2v-9.5c0-1.105.895-2 2-2h.7l1.338 2.7h2.037L5.151.675H7.2l1.338 2.7h2.037L9.201.675h2.049l1.338 2.7zM6.515 6.3c-.23 0-.429.162-.475.388l-.129.628c-.11.54-.53.96-1.07 1.07l-.628.129c-.226.046-.388.245-.388.475 0 .23.162.429.388.475l.628.129c.54.11.96.53 1.07 1.07l.129.628c.046.226.245.388.475.388.23 0 .43-.162.475-.388l.129-.628c.11-.54.53-.96 1.07-1.07l.629-.129c.225-.046.387-.245.387-.475 0-.23-.162-.429-.387-.475l-.629-.129c-.54-.11-.96-.53-1.07-1.07l-.129-.628c-.046-.226-.245-.388-.475-.388zm5.373-1.392c-.159 0-.296.112-.328.268l-.089.434c-.077.373-.367.664-.74.74l-.434.09c-.156.031-.268.169-.268.328s.112.296.268.329l.434.088c.373.077.663.367.74.74l.09.435c.03.155.168.267.327.267.16 0 .297-.112.33-.267l.088-.435c.077-.373.367-.663.74-.74l.434-.088c.156-.033.268-.17.268-.33 0-.158-.112-.296-.268-.327l-.434-.09c-.373-.076-.663-.367-.74-.74l-.089-.434c-.032-.156-.17-.268-.329-.268z" transform="translate(-1173 -2289) translate(1173 2289) translate(7 8)"/>
                </g>
            </g>
        </g>
    </g>
</svg>
