<svg xmlns="http://www.w3.org/2000/svg" xmlns:xlink="http://www.w3.org/1999/xlink" width="25" height="15" viewBox="0 0 25 15">
    <defs>
        <path id="5tivgemyva" d="M0 0L24.341 0 24.341 13.556 0 13.556z"/>
    </defs>
    <g fill="none" fill-rule="evenodd">
        <g>
            <g transform="translate(-1070 -1095) translate(1070 1095)">
                <mask id="ocm77ik4sb" fill="#fff">
                    <use xlink:href="#5tivgemyva"/>
                </mask>
                <path fill="#CCC" d="M22.759 6.328c-.146 0-.265-.118-.265-.264 0-.147.12-.264.265-.264.145 0 .263.117.263.264 0 .146-.118.264-.263.264m1.582.707c0-1.224-.651-2.176-1.873-2.176 0 0-1.18.033-1.556 1.12-.381 1.096-1.04 1.46-1.106.972C19.078 2.997 15.613 0 11.449 0 6.753 0 2.947 3.807 2.947 8.5c0 .062.004.12.013.178 0 0-1.198-.154-1.897-.835C.565 7.357.15 7.797.04 8.05c-.308.71 1.206 1.985 3.495 1.54.346.276.833.507 1.434.695-.157.115-.998.778-1.365 2.02-.404 1.373 2.808 1.414 2.99 1.07.18-.341-.275-1.36.57-2.64 1.257.165 2.721.24 4.285.24 1.464 0 2.842-.1 4.045-.281.843 1.28.425 2.341.606 2.68.18.345 3.393.304 2.988-1.068-.404-1.374-1.394-2.042-1.394-2.042 2.862 0 4.825-.904 5.465-1.27.078-.041.153-.087.225-.137l.013-.009-.001.002c.57-.402.945-1.064.945-1.815" mask="url(#ocm77ik4sb)"/>
            </g>
        </g>
    </g>
</svg>
