<svg width="22" height="22" viewBox="0 0 22 22" fill="none" xmlns="http://www.w3.org/2000/svg">
<path fill-rule="evenodd" clip-rule="evenodd" d="M20.751 4.48675C20.751 3.046 19.583 1.87805 18.1423 1.87805H4.04351C2.60277 1.87805 1.43481 3.046 1.43481 4.48675V16.8295C1.43481 18.2703 2.60277 19.4382 4.04351 19.4382H18.1423C19.583 19.4382 20.751 18.2703 20.751 16.8295V4.48675ZM4.04351 3.61718H18.1423L18.2437 3.62303C18.6762 3.67326 19.0119 4.0408 19.0119 4.48675V16.8295L19.006 16.9309C18.9558 17.3634 18.5882 17.6991 18.1423 17.6991H4.04351L3.9421 17.6932C3.50963 17.643 3.17394 17.2755 3.17394 16.8295V4.48675L3.1798 4.38534C3.23003 3.95287 3.59757 3.61718 4.04351 3.61718Z" fill="#1E1E1F"/>
<path fill-rule="evenodd" clip-rule="evenodd" d="M11.406 11.4348C11.7565 11.4348 12.0434 11.2386 12.0434 11.0002V6.65199C12.0434 6.41306 11.7565 6.21741 11.406 6.21741H10.7678C10.4182 6.21741 10.1304 6.41306 10.1304 6.65199V11.0002C10.1304 11.2386 10.4182 11.4348 10.7678 11.4348H11.406ZM11.406 14.6395C11.7565 14.6395 12.0434 14.3534 12.0434 14.0021V13.3647C12.0434 13.0143 11.7565 12.7265 11.406 12.7265H10.7678C10.4182 12.7265 10.1304 13.0143 10.1304 13.3647V14.0021C10.1304 14.3534 10.4182 14.6395 10.7678 14.6395H11.406Z" fill="#1E1E1F"/>
<path d="M11.8934 11.0002C11.8934 11.0547 11.8605 11.1223 11.7716 11.183C11.6838 11.2429 11.5547 11.2848 11.406 11.2848V11.5848C11.6078 11.5848 11.7974 11.5286 11.9407 11.4308C12.0829 11.3337 12.1934 11.1841 12.1934 11.0002H11.8934ZM11.8934 6.65199V11.0002H12.1934V6.65199H11.8934ZM11.406 6.36741C11.5548 6.36741 11.6839 6.4092 11.7716 6.46903C11.8604 6.52955 11.8934 6.59714 11.8934 6.65199H12.1934C12.1934 6.46791 12.083 6.31821 11.9406 6.22117C11.7973 6.12344 11.6077 6.06741 11.406 6.06741V6.36741ZM10.7678 6.36741H11.406V6.06741H10.7678V6.36741ZM10.2804 6.65199C10.2804 6.5973 10.3134 6.52969 10.4024 6.46907C10.4904 6.40918 10.6195 6.36741 10.7678 6.36741V6.06741C10.5665 6.06741 10.3769 6.12347 10.2335 6.22113C10.0912 6.31807 9.98037 6.46775 9.98037 6.65199H10.2804ZM10.2804 11.0002V6.65199H9.98037V11.0002H10.2804ZM10.7678 11.2848C10.6196 11.2848 10.4905 11.2429 10.4025 11.1829C10.3134 11.1222 10.2804 11.0545 10.2804 11.0002H9.98037C9.98037 11.1842 10.0913 11.3339 10.2335 11.4308C10.3768 11.5285 10.5664 11.5848 10.7678 11.5848V11.2848ZM11.406 11.2848H10.7678V11.5848H11.406V11.2848ZM11.8934 14.0021C11.8934 14.2705 11.6737 14.4895 11.406 14.4895V14.7895C11.8392 14.7895 12.1934 14.4364 12.1934 14.0021H11.8934ZM11.8934 13.3647V14.0021H12.1934V13.3647H11.8934ZM11.406 12.8765C11.6733 12.8765 11.8934 13.0969 11.8934 13.3647H12.1934C12.1934 12.9317 11.8396 12.5765 11.406 12.5765V12.8765ZM10.7678 12.8765H11.406V12.5765H10.7678V12.8765ZM10.2804 13.3647C10.2804 13.097 10.5012 12.8765 10.7678 12.8765V12.5765C10.3352 12.5765 9.98037 12.9316 9.98037 13.3647H10.2804ZM10.2804 14.0021V13.3647H9.98037V14.0021H10.2804ZM10.7678 14.4895C10.5008 14.4895 10.2804 14.2703 10.2804 14.0021H9.98037C9.98037 14.4365 10.3356 14.7895 10.7678 14.7895V14.4895ZM11.406 14.4895H10.7678V14.7895H11.406V14.4895Z" fill="#1E1E1F"/>
</svg>
